<svg width="15" height="17" viewBox="0 0 15 17" fill="none" xmlns="http://www.w3.org/2000/svg">
<g clip-path="url(#clip0_655_40408)">
<path d="M5.99659 3.18754H4.15172C3.96756 3.18754 3.81689 3.33696 3.81689 3.51957V3.85161C3.81689 5.6811 5.32024 7.17192 7.16511 7.17192H7.83475C9.67962 7.17192 11.183 5.6811 11.183 3.85161V3.51957C11.183 3.33696 11.0323 3.18754 10.8481 3.18754H9.00327C8.56465 3.18754 8.14947 3.01821 7.83475 2.71605V2.4637C8.22314 2.32757 8.50439 1.96233 8.50439 1.52739C8.50439 1.05589 7.91177 0.461571 7.73095 0.288915C7.60372 0.166065 7.39947 0.166065 7.26891 0.288915C7.08811 0.461571 6.49547 1.05591 6.49547 1.52739C6.49547 1.95902 6.77672 2.32426 7.16511 2.4637V2.71605C6.85037 3.0182 6.43855 3.18754 5.99659 3.18754ZM7.83475 6.50786H7.16511C6.04345 6.50786 5.08251 5.82055 4.68411 4.8477H5.88278C6.46872 4.8477 7.04125 4.64848 7.49997 4.2932C7.95867 4.64848 8.53122 4.8477 9.11717 4.8477H10.3158C9.91739 5.82055 8.95637 6.50786 7.83475 6.50786ZM10.5133 3.85161C10.5133 3.9645 10.5033 4.07407 10.4899 4.18364H9.11713C8.60486 4.18364 8.09927 3.97778 7.73766 3.61586C7.60708 3.48636 7.39613 3.48636 7.26557 3.61586C6.90062 3.97777 6.39838 4.18364 5.88276 4.18364H4.51001C4.49661 4.07407 4.48657 3.96451 4.48657 3.85161H5.99662C6.55243 3.85161 7.0781 3.66235 7.49996 3.31373C7.92185 3.66235 8.44751 3.85161 9.0033 3.85161H10.5133ZM7.50004 1.01282C7.68754 1.22532 7.83152 1.44113 7.83486 1.52747C7.83486 1.71009 7.68419 1.8595 7.50004 1.8595C7.31588 1.8595 7.16522 1.71009 7.16522 1.52747C7.16856 1.44114 7.31254 1.22532 7.50004 1.01282Z" fill="#611D42"/>
<path d="M8.40736 5.74741C8.53794 5.61791 8.53794 5.40872 8.40736 5.27925L7.73772 4.61519C7.60714 4.48569 7.39619 4.48569 7.26563 4.61519L6.59598 5.27925C6.4654 5.40874 6.4654 5.61793 6.59598 5.74741L7.26563 6.41147C7.32924 6.47456 7.41295 6.50776 7.50001 6.50776C7.58708 6.50776 7.67077 6.47455 7.73774 6.41147L8.40736 5.74741ZM7.49999 5.70756L7.30244 5.51166L7.49999 5.31576L7.69754 5.51166L7.49999 5.70756Z" fill="#611D42"/>
<path d="M14.0292 3.85156C13.5671 3.85156 13.1921 4.22344 13.1921 4.68163V6.03963L12.8472 6.38163C12.8205 6.34511 12.7903 6.30858 12.7568 6.27538C12.4522 5.97323 11.9198 5.97323 11.6151 6.27538L9.32825 8.54318C9.01351 8.8553 8.83943 9.27365 8.83943 9.71856V12.4845H8.16978C7.98563 12.4845 7.83496 12.6339 7.83496 12.8165V14.1446C7.83496 14.3272 7.98563 14.4766 8.16978 14.4766H8.5046V16.4688C8.5046 16.6515 8.65527 16.8009 8.83943 16.8009H11.518C11.7021 16.8009 11.8528 16.6515 11.8528 16.4688V14.4766H12.1876C12.3718 14.4766 12.5225 14.3272 12.5225 14.1446V12.8165C12.5225 12.6339 12.3718 12.4845 12.1876 12.4845H11.518V10.9604L14.1799 8.32076C14.6218 7.88248 14.8662 7.2981 14.8662 6.6772V4.68169C14.8662 4.2235 14.4912 3.85156 14.0292 3.85156ZM11.1832 16.1366H9.17431V14.4765H11.1832V16.1366ZM11.8529 13.8123H8.50466V13.1482H11.8529V13.8123ZM14.1967 6.67696C14.1967 7.1219 14.0226 7.53693 13.7079 7.85234L10.949 10.5883C10.8854 10.6514 10.8485 10.7344 10.8485 10.824V12.4842H9.50925V9.7151C9.50925 9.44947 9.61304 9.19713 9.80389 9.01119L12.0907 6.74339C12.1611 6.67366 12.218 6.67366 12.2883 6.74339C12.3251 6.77991 12.3285 6.81976 12.3285 6.83968C12.3285 6.8596 12.3218 6.90276 12.2883 6.93597L10.949 8.26409C10.882 8.3305 10.8486 8.4135 10.8486 8.49984C10.8486 8.58617 10.882 8.66918 10.9457 8.73559C11.0762 8.86508 11.2872 8.86508 11.4177 8.73559L13.7616 6.41126C13.8252 6.34817 13.8621 6.26517 13.8621 6.17551V4.68138C13.8621 4.58841 13.9357 4.51537 14.0295 4.51537C14.1232 4.51537 14.1969 4.58841 14.1969 4.68138L14.1967 6.67696Z" fill="#611D42"/>
<path d="M0.970832 3.85156C0.508789 3.85156 0.133789 4.22344 0.133789 4.68163V6.67713C0.133789 7.29804 0.378203 7.88241 0.820168 8.32069L3.48203 10.9604V12.4844H2.81238C2.62823 12.4844 2.47756 12.6338 2.47756 12.8164V14.1446C2.47756 14.3272 2.62823 14.4766 2.81238 14.4766H3.1472V16.4688C3.1472 16.6514 3.29787 16.8008 3.48203 16.8008H6.1606C6.34475 16.8008 6.49542 16.6514 6.49542 16.4688V14.4766H6.83024C7.01439 14.4766 7.16506 14.3272 7.16506 14.1446V12.8164C7.16506 12.6338 7.01439 12.4844 6.83024 12.4844H6.1606V9.71531C6.1606 9.27038 5.98649 8.85534 5.67177 8.53993L3.38491 6.27213C3.08022 5.96997 2.54787 5.96997 2.24317 6.27213C2.20969 6.30533 2.17956 6.34185 2.15277 6.37838L1.8079 6.0397V4.68169C1.8079 4.2235 1.43287 3.85156 0.970832 3.85156ZM5.82569 16.1366H3.81676V14.4765H5.82569V16.1366ZM6.49533 13.8123H3.14712V13.1482H6.49533V13.8123ZM3.57912 8.73545C3.7097 8.86494 3.92065 8.86494 4.05121 8.73545C4.11818 8.66904 4.15166 8.58604 4.15166 8.4997C4.15166 8.41337 4.11817 8.33037 4.05456 8.26395L2.71527 6.93583C2.67844 6.89931 2.6751 6.85946 2.6751 6.83954C2.6751 6.81962 2.68179 6.77645 2.71527 6.74325C2.78559 6.67353 2.84251 6.67353 2.91282 6.74325L5.19968 9.01105C5.38718 9.19699 5.49098 9.44934 5.49098 9.71496V12.484H4.15169V10.8239C4.15169 10.7342 4.11486 10.6512 4.05459 10.5881L1.29567 7.85221C0.980923 7.54009 0.806837 7.12174 0.806837 6.67683V4.68132C0.806837 4.58835 0.880498 4.51531 0.974248 4.51531C1.068 4.51531 1.14166 4.58835 1.14166 4.68132V6.17545C1.14166 6.2651 1.17849 6.34811 1.23876 6.4112L3.57912 8.73545Z" fill="#611D42"/>
</g>
<defs>
<clipPath id="clip0_655_40408">
<rect width="15" height="17" fill="white"/>
</clipPath>
</defs>
</svg>
