<svg width="64" height="47" viewBox="0 0 64 47" fill="none" xmlns="http://www.w3.org/2000/svg">
<path fill-rule="evenodd" clip-rule="evenodd" d="M32 0.959961C49.65 0.959961 63.95 5.29996 63.95 10.65V18.65C63.95 24.01 49.65 28.35 32 28.35C14.35 28.35 0 24.01 0 18.65V10.65C0.05 5.30996 14.36 0.959961 32 0.959961Z" fill="#E09F34"/>
<path fill-rule="evenodd" clip-rule="evenodd" d="M31.9993 19.9601C49.3293 19.9601 63.4692 15.7701 63.4692 10.6301C63.4692 5.49007 49.3293 1.31006 31.9993 1.31006C14.6693 1.31006 0.539062 5.50007 0.539062 10.6301C0.539062 15.7601 14.6693 19.9601 31.9993 19.9601Z" fill="#FFC578"/>
<path fill-rule="evenodd" clip-rule="evenodd" d="M48.4407 38.59V41.79C48.4407 44.55 41.0807 46.79 32.0007 46.79C22.9207 46.79 15.5605 44.56 15.5605 41.79V38.4399C20.6547 41.011 26.2768 42.363 31.9829 42.389C37.6891 42.4151 43.3233 41.1145 48.4407 38.59Z" fill="#E09F34"/>
<g style="mix-blend-mode:multiply" opacity="0.5">
<path fill-rule="evenodd" clip-rule="evenodd" d="M48.4407 36.16V39.36C48.4407 42.11 41.0807 44.36 32.0007 44.36C22.9207 44.36 15.5605 42.12 15.5605 39.36V35.96C20.6548 38.5296 26.2763 39.8815 31.9819 39.9093C37.6875 39.9371 43.3216 38.6399 48.4407 36.1199V36.16Z" fill="#E09F34"/>
</g>
<g style="mix-blend-mode:multiply" opacity="0.5">
<path fill-rule="evenodd" clip-rule="evenodd" d="M48.4407 34.9598V38.1598C48.4407 40.9098 41.0807 43.1598 32.0007 43.1598C22.9207 43.1598 15.5605 40.9198 15.5605 38.1598V34.7998C20.6548 37.3695 26.2763 38.7214 31.9819 38.7491C37.6875 38.7769 43.3216 37.4797 48.4407 34.9598Z" fill="#E09F34"/>
</g>
<path fill-rule="evenodd" clip-rule="evenodd" d="M60.9099 22.7402C59.3099 33.7902 46.98 42.3902 32.02 42.3902C17.06 42.3902 4.90988 33.9002 3.12988 22.9602C8.31988 26.1802 19.2198 28.4002 31.8398 28.4002C44.7298 28.3902 55.8299 26.0702 60.9099 22.7402Z" fill="#E09F34"/>
<g style="mix-blend-mode:multiply" opacity="0.5">
<path fill-rule="evenodd" clip-rule="evenodd" d="M59.73 26.9598C45.79 33.3598 18.3498 33.3398 4.31982 27.1198C3.75439 25.7974 3.35475 24.4103 3.12988 22.9898C8.31988 26.2098 19.2198 28.4297 31.8398 28.4297C44.7298 28.4297 55.8398 26.1098 60.8398 22.7798C60.6403 24.2129 60.2677 25.6165 59.73 26.9598Z" fill="#E09F34"/>
</g>
<g style="mix-blend-mode:multiply" opacity="0.5">
<path fill-rule="evenodd" clip-rule="evenodd" d="M3.41016 23.1201C8.71016 26.2501 19.4101 28.3901 31.8301 28.3901C44.4901 28.3901 55.4301 26.1502 60.6001 22.9102C60.3825 23.8494 60.0883 24.7691 59.7202 25.6602C45.7802 32.0702 18.3401 32.0501 4.31006 25.8301C3.93555 24.9533 3.63461 24.0468 3.41016 23.1201Z" fill="#E09F34"/>
</g>
<path fill-rule="evenodd" clip-rule="evenodd" d="M32.0007 18.6C48.1307 18.6 61.2808 15.03 61.2808 10.66C61.2808 6.28997 48.1307 2.72998 32.0007 2.72998C15.8707 2.72998 2.7207 6.28997 2.7207 10.66C2.7207 15.03 15.9107 18.6 32.0007 18.6Z" fill="#927449"/>
<path d="M32.0007 18.59C48.1716 18.59 61.2808 15.0396 61.2808 10.66C61.2808 6.28035 48.1716 2.72998 32.0007 2.72998C15.8298 2.72998 2.7207 6.28035 2.7207 10.66C2.7207 15.0396 15.8298 18.59 32.0007 18.59Z" fill="#927449"/>
<path d="M32.0007 18.59C48.1716 18.59 61.2808 15.0396 61.2808 10.66C61.2808 6.28035 48.1716 2.72998 32.0007 2.72998C15.8298 2.72998 2.7207 6.28035 2.7207 10.66C2.7207 15.0396 15.8298 18.59 32.0007 18.59Z" fill="#E09F34"/>
<path fill-rule="evenodd" clip-rule="evenodd" d="M57.3098 14.6601C52.2298 17.0201 42.8 18.6001 32 18.6001C21.2 18.6001 11.78 17.0201 6.69995 14.6601C6.4189 14.28 6.26183 13.8226 6.25 13.3501C6.25 9.5001 17.78 6.3501 32 6.3501C46.22 6.3501 57.76 9.4801 57.76 13.3501C57.7482 13.8226 57.5909 14.28 57.3098 14.6601Z" fill="#768BBF"/>
<path fill-rule="evenodd" clip-rule="evenodd" d="M49.6001 17.0101C37.9659 19.1301 26.0444 19.1301 14.4102 17.0101C17.0102 15.0601 23.9102 13.6602 32.0002 13.6602C40.0902 13.6602 46.9901 15.0601 49.6001 17.0101Z" fill="#506BAD"/>
<path fill-rule="evenodd" clip-rule="evenodd" d="M21.7194 4.66999C22.1059 4.70289 22.4813 4.81598 22.8217 5.00214C23.162 5.1883 23.4597 5.44339 23.6959 5.7511C23.9321 6.05882 24.1014 6.41243 24.1933 6.78931C24.2851 7.16619 24.2975 7.55806 24.2294 7.93995C24.1276 8.74478 23.7283 9.48243 23.1102 10.0079C22.4922 10.5335 21.7 10.8089 20.8893 10.78C20.5032 10.7484 20.128 10.6364 19.7877 10.4514C19.4474 10.2663 19.1496 10.0121 18.9132 9.7052C18.6769 9.39826 18.5074 9.04532 18.4154 8.66901C18.3235 8.2927 18.3111 7.9013 18.3793 7.51996C18.4788 6.71331 18.877 5.97325 19.4953 5.44568C20.1135 4.91811 20.9071 4.64136 21.7194 4.66999Z" fill="#E49EA5"/>
<path fill-rule="evenodd" clip-rule="evenodd" d="M29.78 9.86011C30.13 11.0101 28.56 12.2301 26.27 12.5901C23.98 12.9501 21.84 12.3201 21.49 11.1701C21.14 10.0201 22.72 8.80007 25.01 8.44007C27.3 8.08007 29.43 8.71011 29.78 9.86011Z" fill="#E49EA5"/>
<path fill-rule="evenodd" clip-rule="evenodd" d="M25.4601 17.0102C24.0601 17.6002 21.9602 16.9002 20.7702 15.4302C19.5802 13.9602 19.7701 12.3002 21.1701 11.7102C22.5701 11.1202 24.66 11.8202 25.85 13.2802C27.04 14.7402 26.9101 16.4102 25.4601 17.0102Z" fill="#E49EA5"/>
<path fill-rule="evenodd" clip-rule="evenodd" d="M14.7192 16.24C13.5092 15.46 13.7891 13.8 15.3391 12.53C16.8891 11.26 19.1491 10.87 20.3391 11.65C21.5291 12.43 21.2692 14.09 19.7192 15.36C18.1692 16.63 15.9092 17.02 14.7192 16.24Z" fill="#E49EA5"/>
<path fill-rule="evenodd" clip-rule="evenodd" d="M12.41 8.61981C13.06 7.53981 15.3301 7.21984 17.4801 7.89984C19.6301 8.57984 20.84 9.99983 20.19 11.0798C19.54 12.1598 17.27 12.4799 15.12 11.7999C12.97 11.1199 11.76 9.68981 12.41 8.61981Z" fill="#E49EA5"/>
<path fill-rule="evenodd" clip-rule="evenodd" d="M21.4201 6.85016C21.669 6.87276 21.9105 6.94661 22.1294 7.06714C22.3483 7.18767 22.5399 7.35226 22.6921 7.55048C22.8443 7.74869 22.9538 7.97626 23.0137 8.21887C23.0736 8.46149 23.0825 8.71388 23.04 8.96015C22.9732 9.47782 22.7161 9.95208 22.3186 10.2904C21.9211 10.6287 21.4118 10.8069 20.8901 10.7902C20.6411 10.7704 20.3991 10.6986 20.1794 10.5796C19.9598 10.4606 19.7673 10.2969 19.6147 10.0991C19.4621 9.90132 19.3528 9.67375 19.2934 9.43109C19.2341 9.18843 19.2262 8.93603 19.2702 8.69013C19.3348 8.17063 19.591 7.69402 19.9888 7.35364C20.3865 7.01326 20.8969 6.8337 21.4201 6.85016Z" fill="#D05663"/>
<path fill-rule="evenodd" clip-rule="evenodd" d="M26.6102 10.1902C26.8302 10.9302 25.8201 11.7202 24.3501 11.9502C22.8801 12.1802 21.5003 11.7802 21.2803 11.0402C21.0603 10.3002 22.0601 9.5102 23.5401 9.2802C25.0201 9.0502 26.3902 9.45017 26.6102 10.1902Z" fill="#D05663"/>
<path fill-rule="evenodd" clip-rule="evenodd" d="M23.8301 14.79C23.2874 14.9422 22.7115 14.9283 22.1768 14.7501C21.642 14.5718 21.1729 14.2374 20.8301 13.79C20.0701 12.85 20.1801 11.79 21.0901 11.39C21.6329 11.2391 22.2085 11.2537 22.7429 11.4318C23.2774 11.61 23.7464 11.9436 24.0901 12.39C24.8401 13.34 24.7301 14.41 23.8301 14.79Z" fill="#D05663"/>
<path fill-rule="evenodd" clip-rule="evenodd" d="M16.91 14.3001C16.13 13.8001 16.3099 12.73 17.3099 11.91C17.7403 11.521 18.2724 11.2619 18.8441 11.1628C19.4157 11.0637 20.0036 11.1286 20.5399 11.35C21.3199 11.85 21.14 12.9201 20.14 13.7301C19.7112 14.1218 19.1797 14.3834 18.6077 14.4843C18.0358 14.5853 17.447 14.5214 16.91 14.3001Z" fill="#D05663"/>
<path fill-rule="evenodd" clip-rule="evenodd" d="M15.43 9.39018C15.85 8.70018 17.31 8.49016 18.69 8.93016C20.07 9.37016 20.85 10.2902 20.43 10.9302C20.01 11.5702 18.5599 11.8302 17.1699 11.3902C15.7799 10.9502 15.01 10.0902 15.43 9.39018Z" fill="#D05663"/>
<path fill-rule="evenodd" clip-rule="evenodd" d="M21.1206 9.07003C21.2504 9.07904 21.3766 9.11544 21.4912 9.17684C21.6059 9.23824 21.7063 9.32324 21.7857 9.42623C21.8651 9.52923 21.9218 9.64789 21.9519 9.77438C21.9821 9.90086 21.9851 10.0323 21.9607 10.1601C21.926 10.4295 21.7919 10.6763 21.5848 10.852C21.3776 11.0277 21.1121 11.1198 20.8406 11.1101C20.7115 11.0995 20.586 11.0621 20.4722 11.0003C20.3584 10.9384 20.2588 10.8534 20.1797 10.7508C20.1006 10.6482 20.0438 10.5302 20.013 10.4043C19.9822 10.2785 19.978 10.1476 20.0008 10.02C20.0355 9.7506 20.1696 9.50382 20.3767 9.32809C20.5839 9.15236 20.8491 9.06033 21.1206 9.07003Z" fill="#E09F34"/>
<path fill-rule="evenodd" clip-rule="evenodd" d="M23.8204 10.8002C23.9304 11.1902 23.4105 11.6002 22.6405 11.7202C21.8705 11.8402 21.1604 11.6302 21.0404 11.2402C20.9204 10.8502 21.4506 10.4501 22.2206 10.3301C22.9906 10.2101 23.7004 10.4202 23.8204 10.8002Z" fill="#E09F34"/>
<path fill-rule="evenodd" clip-rule="evenodd" d="M22.3707 13.1902C22.087 13.271 21.7857 13.2647 21.5057 13.1719C21.2257 13.0792 20.98 12.9044 20.8006 12.6702C20.4106 12.1802 20.4708 11.6202 20.9308 11.4202C21.2154 11.3405 21.5174 11.3484 21.7975 11.4429C22.0775 11.5375 22.3228 11.7142 22.5008 11.9502C22.9108 12.4402 22.8407 12.9602 22.3707 13.1902Z" fill="#E09F34"/>
<path fill-rule="evenodd" clip-rule="evenodd" d="M18.7807 12.9598C18.3707 12.6998 18.4707 12.1398 18.9907 11.7198C19.2126 11.5142 19.4888 11.3766 19.7866 11.3234C20.0844 11.2702 20.3913 11.3037 20.6706 11.4198C21.0706 11.6798 20.9807 12.2398 20.4607 12.6598C20.2388 12.8654 19.9623 13.0029 19.6645 13.0561C19.3667 13.1093 19.0601 13.0759 18.7807 12.9598Z" fill="#E09F34"/>
<path fill-rule="evenodd" clip-rule="evenodd" d="M18.0099 10.3902C18.2199 10.0302 19.0098 9.92022 19.6998 10.1502C20.3898 10.3802 20.8197 10.8502 20.6097 11.2102C20.3997 11.5702 19.6098 11.6802 18.9098 11.4502C18.2098 11.2202 17.7899 10.7502 18.0099 10.3902Z" fill="#E09F34"/>
<path fill-rule="evenodd" clip-rule="evenodd" d="M20.96 10.25C21.74 10.31 22.31 10.81 22.23 11.38C22.15 11.95 21.46 12.38 20.68 12.3C19.9 12.22 19.32 11.74 19.4 11.18C19.5034 10.8624 19.7186 10.5932 20.0054 10.4222C20.2923 10.2512 20.6315 10.19 20.96 10.25Z" fill="#FFC578"/>
<path fill-rule="evenodd" clip-rule="evenodd" d="M44.4291 4.6701C44.815 4.70657 45.1891 4.82305 45.5275 5.01214C45.8659 5.20122 46.1611 5.45876 46.3944 5.7683C46.6278 6.07784 46.7941 6.43262 46.8827 6.80999C46.9713 7.18736 46.9803 7.57903 46.9091 7.96007C46.8072 8.76491 46.4082 9.50255 45.7902 10.0281C45.1721 10.5536 44.3797 10.829 43.569 10.8001C43.1829 10.7685 42.8077 10.6566 42.4674 10.4715C42.1271 10.2864 41.8292 10.0322 41.5929 9.72527C41.3566 9.41833 41.187 9.06539 41.0951 8.68908C41.0032 8.31276 40.9908 7.92143 41.059 7.54009C41.1542 6.72446 41.5546 5.9751 42.1798 5.44268C42.805 4.91025 43.6087 4.63423 44.4291 4.6701Z" fill="#E49EA5"/>
<path fill-rule="evenodd" clip-rule="evenodd" d="M52.49 9.86011C52.84 11.0101 51.27 12.2301 48.98 12.5901C46.69 12.9501 44.5499 12.3201 44.1999 11.1701C43.8499 10.0201 45.4299 8.80007 47.7199 8.44007C50.0099 8.08007 52.14 8.71011 52.49 9.86011Z" fill="#E49EA5"/>
<path fill-rule="evenodd" clip-rule="evenodd" d="M48.1691 17.0102C46.7691 17.6002 44.6692 16.9002 43.4792 15.4302C42.2892 13.9602 42.4791 12.3002 43.8791 11.7102C45.2791 11.1202 47.369 11.8202 48.559 13.2802C49.749 14.7402 49.5691 16.4102 48.1691 17.0102Z" fill="#E49EA5"/>
<path fill-rule="evenodd" clip-rule="evenodd" d="M37.4302 16.24C36.2202 15.46 36.5001 13.8 38.0501 12.53C39.6001 11.26 41.8601 10.87 43.0501 11.65C44.2401 12.43 43.9902 14.09 42.4302 15.36C40.8702 16.63 38.6502 17.02 37.4302 16.24Z" fill="#E49EA5"/>
<path fill-rule="evenodd" clip-rule="evenodd" d="M35.12 8.61981C35.77 7.53981 38.04 7.21984 40.19 7.89984C42.34 8.57984 43.55 9.99983 42.9 11.0798C42.25 12.1598 39.9799 12.4799 37.8299 11.7999C35.6799 11.1199 34.47 9.68981 35.12 8.61981Z" fill="#E49EA5"/>
<path fill-rule="evenodd" clip-rule="evenodd" d="M44.1291 6.85016C44.3786 6.8713 44.6209 6.94425 44.8406 7.06433C45.0602 7.18442 45.2526 7.34898 45.405 7.54755C45.5575 7.74612 45.6668 7.9743 45.7261 8.21753C45.7853 8.46076 45.7933 8.7137 45.7492 8.96015C45.6824 9.47782 45.4251 9.95208 45.0276 10.2904C44.6301 10.6287 44.1208 10.8069 43.5991 10.7902C43.3501 10.7704 43.1081 10.6986 42.8884 10.5796C42.6688 10.4606 42.4763 10.2969 42.3237 10.0991C42.1711 9.90132 42.0618 9.67375 42.0024 9.43109C41.9431 9.18843 41.9352 8.93603 41.9792 8.69013C42.0438 8.17063 42.3 7.69402 42.6977 7.35364C43.0955 7.01326 43.6059 6.8337 44.1291 6.85016Z" fill="#D05663"/>
<path fill-rule="evenodd" clip-rule="evenodd" d="M49.3191 10.1902C49.5391 10.9302 48.5291 11.7202 47.0591 11.9502C45.5891 12.1802 44.2093 11.7802 43.9893 11.0402C43.7693 10.3002 44.7693 9.5102 46.2493 9.2802C47.7293 9.0502 49.0991 9.45017 49.3191 10.1902Z" fill="#D05663"/>
<path fill-rule="evenodd" clip-rule="evenodd" d="M46.5391 14.79C45.9963 14.9408 45.4209 14.9262 44.8865 14.7481C44.352 14.5699 43.8828 14.2363 43.5391 13.79C42.7791 12.85 42.8891 11.79 43.7991 11.39C44.3419 11.2391 44.9175 11.2537 45.4519 11.4318C45.9864 11.61 46.4554 11.9436 46.7991 12.39C47.5491 13.34 47.4391 14.41 46.5391 14.79Z" fill="#D05663"/>
<path fill-rule="evenodd" clip-rule="evenodd" d="M39.6296 14.3001C38.8496 13.8001 39.0298 12.73 40.0298 11.91C40.4602 11.521 40.992 11.2619 41.5637 11.1628C42.1354 11.0637 42.7235 11.1286 43.2597 11.35C44.0397 11.85 43.8596 12.9201 42.8596 13.7301C42.4308 14.1218 41.8993 14.3834 41.3274 14.4843C40.7554 14.5853 40.1666 14.5214 39.6296 14.3001Z" fill="#D05663"/>
<path fill-rule="evenodd" clip-rule="evenodd" d="M38.1399 9.39018C38.5599 8.70018 40.0199 8.49016 41.3999 8.93016C42.7799 9.37016 43.5599 10.2902 43.1399 10.9302C42.7199 11.5702 41.2699 11.8302 39.8799 11.3902C38.4899 10.9502 37.7199 10.0902 38.1399 9.39018Z" fill="#D05663"/>
<path fill-rule="evenodd" clip-rule="evenodd" d="M43.8296 9.07003C43.9593 9.07904 44.0859 9.11544 44.2005 9.17684C44.3151 9.23824 44.4153 9.32324 44.4947 9.42623C44.574 9.52923 44.6308 9.64789 44.6609 9.77438C44.6911 9.90086 44.6941 10.0323 44.6697 10.1601C44.635 10.4295 44.5009 10.6763 44.2937 10.852C44.0866 11.0277 43.8211 11.1198 43.5496 11.1101C43.4205 11.0995 43.295 11.0621 43.1812 11.0003C43.0674 10.9384 42.9678 10.8534 42.8887 10.7508C42.8096 10.6482 42.7528 10.5302 42.722 10.4043C42.6911 10.2785 42.687 10.1476 42.7098 10.02C42.7445 9.7506 42.8785 9.50382 43.0857 9.32809C43.2929 9.15236 43.5581 9.06033 43.8296 9.07003Z" fill="#E09F34"/>
<path fill-rule="evenodd" clip-rule="evenodd" d="M46.5294 10.8002C46.6394 11.1902 46.1192 11.6002 45.3492 11.7202C44.5792 11.8402 43.8694 11.6302 43.7494 11.2402C43.6294 10.8502 44.1593 10.4501 44.9293 10.3301C45.6993 10.2101 46.4094 10.4202 46.5294 10.8002Z" fill="#E09F34"/>
<path fill-rule="evenodd" clip-rule="evenodd" d="M45.0806 13.1898C44.797 13.2707 44.4956 13.2643 44.2156 13.1716C43.9356 13.0789 43.6901 12.9041 43.5108 12.6699C43.1208 12.1799 43.1807 11.6199 43.6507 11.4199C43.9339 11.3409 44.2342 11.3492 44.5125 11.4438C44.7909 11.5384 45.0343 11.7147 45.2108 11.9499C45.6108 12.4399 45.5506 12.9598 45.0806 13.1898Z" fill="#E09F34"/>
<path fill-rule="evenodd" clip-rule="evenodd" d="M41.4897 12.9598C41.0797 12.6998 41.1797 12.1398 41.6997 11.7198C41.9216 11.5142 42.1978 11.3766 42.4956 11.3234C42.7934 11.2702 43.1003 11.3037 43.3796 11.4198C43.7796 11.6798 43.6897 12.2398 43.1697 12.6598C42.9477 12.8654 42.6713 13.0029 42.3735 13.0561C42.0757 13.1093 41.7691 13.0759 41.4897 12.9598Z" fill="#E09F34"/>
<path fill-rule="evenodd" clip-rule="evenodd" d="M40.7208 10.3902C40.9308 10.0302 41.7208 9.92022 42.4108 10.1502C43.1008 10.3802 43.5407 10.8502 43.3207 11.2102C43.1007 11.5702 42.3207 11.6802 41.6207 11.4502C40.9207 11.2202 40.5008 10.7502 40.7208 10.3902Z" fill="#E09F34"/>
<path fill-rule="evenodd" clip-rule="evenodd" d="M43.67 10.2501C44.45 10.3101 45.02 10.8101 44.94 11.3801C44.86 11.9501 44.1699 12.3801 43.3899 12.3001C42.6099 12.2201 42.0299 11.7401 42.1099 11.1801C42.2152 10.8637 42.4307 10.5958 42.7171 10.4251C43.0035 10.2544 43.3416 10.1922 43.67 10.2501Z" fill="#FFC578"/>
<path fill-rule="evenodd" clip-rule="evenodd" d="M32.5591 2.96021C32.9456 2.99311 33.321 3.10627 33.6614 3.29243C34.0017 3.47858 34.2994 3.73361 34.5356 4.04133C34.7718 4.34904 34.9413 4.70265 35.0332 5.07953C35.125 5.45642 35.1372 5.84835 35.0691 6.23023C34.9673 7.03506 34.5682 7.77271 33.9502 8.29822C33.3322 8.82374 32.54 9.09908 31.7292 9.0702C31.3431 9.03862 30.9677 8.92673 30.6274 8.74164C30.2871 8.55656 29.9892 8.30237 29.7529 7.99543C29.5166 7.68849 29.3471 7.33555 29.2551 6.95923C29.1632 6.58292 29.1511 6.19152 29.2192 5.81019C29.3209 5.00447 29.7196 4.26573 30.3374 3.73859C30.9552 3.21145 31.7474 2.93389 32.5591 2.96021Z" fill="#E49EA5"/>
<path fill-rule="evenodd" clip-rule="evenodd" d="M40.6195 8.12991C40.9695 9.27991 39.3995 10.5 37.1095 10.86C34.8195 11.22 32.6795 10.5899 32.3395 9.43991C31.9995 8.28991 33.5595 7.06993 35.8495 6.70993C38.1395 6.34993 40.2795 6.95991 40.6195 8.12991Z" fill="#E49EA5"/>
<path fill-rule="evenodd" clip-rule="evenodd" d="M36.3005 15.28C35.452 15.5166 34.5519 15.4924 33.7173 15.2106C32.8826 14.9288 32.1521 14.4025 31.6206 13.6999C30.4306 12.2399 30.6207 10.57 32.0107 9.97997C32.8583 9.74369 33.7573 9.76694 34.5915 10.0468C35.4258 10.3267 36.157 10.8503 36.6906 11.55C37.9106 13.02 37.7005 14.68 36.3005 15.28Z" fill="#E49EA5"/>
<path fill-rule="evenodd" clip-rule="evenodd" d="M25.5602 14.51C24.3502 13.73 24.6303 12.07 26.1903 10.8C27.7503 9.53003 29.9903 9.14002 31.1903 9.92002C32.3903 10.7 32.1302 12.36 30.5702 13.63C29.0102 14.9 26.7802 15.29 25.5602 14.51Z" fill="#E49EA5"/>
<path fill-rule="evenodd" clip-rule="evenodd" d="M23.2498 6.88983C23.9098 5.80983 26.1697 5.48986 28.3197 6.16986C30.4697 6.84986 31.6799 8.26985 31.0299 9.34985C30.3799 10.4299 28.1098 10.7498 25.9598 10.0698C23.8098 9.38982 22.5998 7.95983 23.2498 6.88983Z" fill="#E49EA5"/>
<path fill-rule="evenodd" clip-rule="evenodd" d="M32.2604 5.12018C32.5099 5.14132 32.7522 5.21427 32.9718 5.33435C33.1915 5.45444 33.3836 5.61906 33.536 5.81763C33.6885 6.0162 33.7978 6.24438 33.8571 6.48761C33.9164 6.73084 33.9243 6.98378 33.8803 7.23023C33.8134 7.7479 33.5563 8.2221 33.1589 8.56043C32.7614 8.89875 32.2521 9.07691 31.7304 9.06018C31.4819 9.03889 31.2405 8.96621 31.0216 8.84674C30.8028 8.72728 30.6112 8.56365 30.4589 8.36621C30.3066 8.16877 30.1969 7.94187 30.1369 7.69983C30.0769 7.45779 30.0678 7.20592 30.1103 6.96021C30.1748 6.44071 30.431 5.96404 30.8288 5.62366C31.2265 5.28328 31.7372 5.10372 32.2604 5.12018Z" fill="#D05663"/>
<path fill-rule="evenodd" clip-rule="evenodd" d="M37.45 8.46019C37.68 9.20019 36.66 9.9902 35.19 10.2202C33.72 10.4502 32.3399 10.0502 32.1199 9.31016C31.8999 8.57016 32.9099 7.78022 34.3799 7.55022C35.8499 7.32022 37.23 7.72019 37.45 8.46019Z" fill="#D05663"/>
<path fill-rule="evenodd" clip-rule="evenodd" d="M34.6691 13.06C34.1264 13.2136 33.5501 13.2004 33.015 13.022C32.48 12.8437 32.011 12.5084 31.6691 12.06C30.8991 11.12 31.0191 10.06 31.9191 9.65999C32.4619 9.50914 33.0372 9.52371 33.5717 9.70186C34.1061 9.88001 34.5754 10.2136 34.9191 10.66C35.6891 11.61 35.5691 12.68 34.6691 13.06Z" fill="#D05663"/>
<path fill-rule="evenodd" clip-rule="evenodd" d="M27.7606 12.57C26.9806 12.07 27.1605 11 28.1605 10.18C28.5909 9.791 29.1227 9.53194 29.6944 9.43283C30.2661 9.33371 30.8542 9.39861 31.3905 9.62002C32.1705 10.12 31.9906 11.19 30.9906 12C30.5624 12.3928 30.0308 12.6552 29.4586 12.7562C28.8863 12.8572 28.2973 12.7926 27.7606 12.57Z" fill="#D05663"/>
<path fill-rule="evenodd" clip-rule="evenodd" d="M26.27 7.6602C26.69 6.9702 28.15 6.76018 29.53 7.20018C30.91 7.64018 31.7 8.56018 31.28 9.20018C30.86 9.84018 29.4 10.1002 28.02 9.6602C26.64 9.2202 25.91 8.3602 26.27 7.6602Z" fill="#D05663"/>
<path fill-rule="evenodd" clip-rule="evenodd" d="M31.96 7.34005C32.0897 7.34906 32.2159 7.38546 32.3306 7.44686C32.4452 7.50826 32.5456 7.59326 32.625 7.69625C32.7044 7.79925 32.7608 7.91791 32.791 8.0444C32.8212 8.17088 32.8241 8.30228 32.7998 8.43002C32.7651 8.69946 32.631 8.94624 32.4238 9.12197C32.2166 9.29771 31.9514 9.38973 31.6799 9.38003C31.5514 9.36804 31.4266 9.32973 31.3135 9.26742C31.2004 9.20511 31.1015 9.12018 31.0227 9.01791C30.9439 8.91564 30.8869 8.79822 30.8555 8.673C30.824 8.54777 30.8187 8.41743 30.8398 8.29006C30.8746 8.02062 31.0086 7.77384 31.2158 7.59811C31.423 7.42238 31.6885 7.33035 31.96 7.34005Z" fill="#E09F34"/>
<path fill-rule="evenodd" clip-rule="evenodd" d="M34.6597 9.07014C34.7797 9.46014 34.2498 9.87018 33.4798 9.99018C32.7098 10.1102 31.9997 9.90014 31.8897 9.51014C31.7797 9.12014 32.2996 8.72017 33.0596 8.60017C33.8196 8.48017 34.5397 8.69014 34.6597 9.07014Z" fill="#E09F34"/>
<path fill-rule="evenodd" clip-rule="evenodd" d="M33.2099 11.4599C32.9278 11.5414 32.6276 11.5353 32.3491 11.4425C32.0705 11.3496 31.8266 11.1744 31.6498 10.9399C31.2498 10.4499 31.31 9.88993 31.78 9.68993C32.0631 9.60953 32.3639 9.61717 32.6425 9.71184C32.9212 9.80651 33.1643 9.98375 33.3398 10.22C33.7398 10.71 33.6799 11.2599 33.2099 11.4599Z" fill="#E09F34"/>
<path fill-rule="evenodd" clip-rule="evenodd" d="M29.6202 11.2098C29.2202 10.9498 29.3102 10.3898 29.8302 9.96979C30.0521 9.76419 30.3285 9.6266 30.6264 9.57342C30.9242 9.52024 31.231 9.55372 31.5104 9.6698C31.9104 9.9298 31.8202 10.4898 31.3002 10.9098C31.0783 11.1154 30.8021 11.2529 30.5043 11.3061C30.2065 11.3593 29.8996 11.3259 29.6202 11.2098Z" fill="#E09F34"/>
<path fill-rule="evenodd" clip-rule="evenodd" d="M28.85 8.66023C29.07 8.30023 29.85 8.19024 30.54 8.42024C31.23 8.65024 31.6701 9.12024 31.4501 9.48024C31.2301 9.84024 30.4502 9.95023 29.7602 9.72023C29.0702 9.49023 28.63 9.02023 28.85 8.66023Z" fill="#E09F34"/>
<path fill-rule="evenodd" clip-rule="evenodd" d="M31.8 8.5201C32.58 8.5801 33.16 9.08011 33.08 9.6501C32.9765 9.96701 32.761 10.2353 32.4738 10.4046C32.1867 10.574 31.8477 10.6328 31.5202 10.5701C30.7402 10.5201 30.1702 10.0101 30.2402 9.45009C30.3455 9.13376 30.5608 8.86581 30.8471 8.69509C31.1335 8.52437 31.4717 8.46227 31.8 8.5201Z" fill="#FFC578"/>
</svg>
