<svg width="80" height="121" viewBox="0 0 80 121" fill="none" xmlns="http://www.w3.org/2000/svg">
<path d="M24.6597 111.71L24.1895 119.71C24.1895 119.71 31.1895 122.17 36.6895 118.85L34.6096 110.85L24.6597 111.71Z" fill="#5F3D30"/>
<path d="M34.6099 110.91L24.6099 111.71L24.5498 112.86C24.5498 112.86 32.9098 114.06 34.3298 119.92C34.7498 119.73 36.2299 119.12 36.6399 118.92L34.6099 110.91Z" fill="#5F3D30"/>
<path d="M24.8896 104.39L23.8096 112.39C23.8096 112.39 30.2397 114.11 35.6597 112.03L34.2996 103.92L24.8896 104.39Z" fill="#5F3D30"/>
<path d="M34.3093 103.98L24.8394 104.75L24.7793 105.9C24.7793 105.9 32.6394 107.02 34.4094 112.43C34.8335 112.321 35.2508 112.187 35.6594 112.03L34.3093 103.98Z" fill="#5F3D30"/>
<path d="M24.7395 96.4998L23.2295 104.83C23.2295 104.83 31.2996 106.45 35.3196 103.95L33.3196 95.8198L24.7395 96.4998Z" fill="#5F3D30"/>
<path d="M33.3801 95.96L24.71 96.6599L24.5 97.8599C25.57 98.0399 32.5 99.42 34.05 104.58C34.4926 104.419 34.918 104.215 35.3201 103.97L33.3801 95.96Z" fill="#5F3D30"/>
<path d="M25.2693 87.6099L23.6992 96.8299C23.6992 96.8299 32.6293 97.5899 34.7693 95.8999L32.3494 86.8999L25.2693 87.6099Z" fill="#5F3D30"/>
<path d="M32.6096 87.8398L25.1296 88.4398L24.9297 89.6198C25.7497 89.7598 32.7695 91.0498 34.4595 96.0998C34.5692 96.0437 34.6732 95.9767 34.7695 95.8998L32.6096 87.8398Z" fill="#5F3D30"/>
<path d="M33.5503 80.56L33.7002 88.77C33.7002 88.77 25.3604 90.13 23.9004 88L26.6104 79.75L33.5503 80.56Z" fill="#5F3D30"/>
<path d="M33.5598 80.8398L26.4199 80.3198L25.9199 81.8598C28.0599 82.7998 32.0099 85.0298 32.6799 88.8598L33.6799 88.7198L33.5598 80.8398Z" fill="#5F3D30"/>
<path d="M28.6497 71.8599C26.6871 74.5192 25.553 77.6988 25.3896 80.9999C26.8465 81.7529 28.4491 82.1813 30.0874 82.2555C31.7257 82.3297 33.3607 82.0481 34.8796 81.4299C34.273 78.5835 34.4457 75.6262 35.3796 72.8699L28.6497 71.8599Z" fill="#5F3D30"/>
<path d="M34.99 74.2499L27.79 73.1299C27.59 73.4599 27.3802 73.8499 27.1602 74.2799C28.5102 74.9099 33.34 77.4298 34.03 81.7198C34.31 81.6398 34.5901 81.5399 34.8801 81.4299C34.3723 79.0591 34.4098 76.604 34.99 74.2499Z" fill="#5F3D30"/>
<path d="M30.0596 66.3799L26.8896 73.3799C26.8896 73.3799 29.8295 75.4799 35.9695 75.0399L36.3896 67.9199L30.0596 66.3799Z" fill="#5F3D30"/>
<path d="M28.9395 68.92C29.9395 69.34 34.4695 71.4901 35.0295 75.0901C35.3395 75.0901 35.6695 75.09 36.0295 75.04L36.3696 69.2401L29.3696 68.0601L28.9395 68.92Z" fill="#5F3D30"/>
<path d="M32.7995 60.0698C31.1627 62.4181 29.657 64.8551 28.2895 67.3698C27.3495 69.4698 36.0596 70.5798 37.3396 69.5598C37.3396 69.5598 37.4896 63.6798 38.6296 61.5598L32.7995 60.0698Z" fill="#5F3D30"/>
<path d="M30.5098 63.5C31.9798 64.21 35.6999 66.32 36.8599 69.75C37.0321 69.7071 37.1949 69.6326 37.3398 69.5301C37.3978 67.4517 37.6252 65.3815 38.0198 63.3401L31.2998 62.29L30.5098 63.5Z" fill="#5F3D30"/>
<path d="M34.0598 57.2603L29.5498 62.8303C29.5498 62.8303 35.1199 65.2203 38.4199 64.5703L40.2097 58.4803L34.0598 57.2603Z" fill="#5F3D30"/>
<path d="M40.0603 59.01L37.9802 58.01L34.0703 57.23L33.7402 57.64C34.9402 58.81 37.2504 61.47 37.3804 64.64C37.7157 64.6309 38.0499 64.5974 38.3804 64.5399L40.0603 59.01Z" fill="#5F3D30"/>
<path d="M38.3999 51.5601C36.1113 52.9209 34.2345 54.877 32.9697 57.2201C32.9697 57.2201 39.5298 60.06 41.2898 58.8L42.7197 52.6901L38.3999 51.5601Z" fill="#5F3D30"/>
<path d="M34.1094 55.3799C35.7099 56.2049 37.0834 57.4102 38.1094 58.8899C38.7108 59.0238 39.3233 59.1008 39.9392 59.1199L40.1794 55.0099L35.1794 54.1699C34.7996 54.5522 34.4423 54.9562 34.1094 55.3799Z" fill="#5F3D30"/>
<path d="M25.1301 91.73C25.1301 91.73 24.2101 94.86 24.8901 95.73C25.5701 96.6 29.6401 96.5 29.6401 96.5C29.6401 96.5 24.9601 96.41 25.1301 91.73Z" fill="#5F3D30"/>
<path d="M24.7997 99.2803C24.7997 99.2803 23.7197 102.97 24.5197 104.05C25.3197 105.13 30.1098 104.96 30.1098 104.96C30.1098 104.96 24.6097 104.79 24.7997 99.2803Z" fill="#5F3D30"/>
<path d="M25.1101 113.91C25.1101 113.91 24.3801 118.26 25.1701 119.33C25.9601 120.4 31.84 120.33 31.84 120.33C31.84 120.33 24.9201 119.41 25.1101 113.91Z" fill="#5F3D30"/>
<path d="M25.5501 84.1001C25.5501 84.1001 24.0601 87.1001 24.5501 87.8501C25.0401 88.6001 28.5501 88.9701 28.5501 88.9701C28.0013 88.9107 27.4735 88.7266 27.0069 88.4319C26.5402 88.1372 26.1469 87.7397 25.8574 87.2698C25.568 86.7998 25.3897 86.2699 25.3365 85.7206C25.2832 85.1712 25.3563 84.6169 25.5501 84.1001Z" fill="#5F3D30"/>
<path d="M26.7492 76.2002C26.7492 76.2002 25.4494 79.5502 25.8994 80.5102C26.3494 81.4702 30.1892 81.9402 30.1892 81.9402C30.1892 81.9402 25.6892 80.5502 26.7492 76.2002Z" fill="#5F3D30"/>
<path d="M24.9492 106.86C24.9492 106.86 24.1093 111.05 24.5693 112.01C25.0293 112.97 31.1194 112.85 31.1194 112.85C31.1194 112.85 24.0592 112.84 24.9492 106.86Z" fill="#5F3D30"/>
<path d="M29.1798 70.0898C29.1798 70.0898 27.6597 72.1798 27.8997 72.9898C28.1397 73.7998 31.1497 74.5498 31.1497 74.5498C30.7042 74.4193 30.2925 74.193 29.9434 73.8869C29.5944 73.5808 29.3163 73.2021 29.1287 72.7774C28.9411 72.3527 28.8484 71.8922 28.8572 71.428C28.8661 70.9638 28.9762 70.5071 29.1798 70.0898Z" fill="#5F3D30"/>
<path d="M30.2901 64.8501C30.2901 64.8501 28.7701 66.9401 29.0101 67.7401C29.2501 68.5401 32.2601 69.3001 32.2601 69.3001C31.8148 69.1708 31.4033 68.9456 31.0543 68.6405C30.7052 68.3354 30.427 67.9576 30.2393 67.5336C30.0516 67.1097 29.9591 66.6498 29.9678 66.1863C29.9766 65.7227 30.0865 65.2667 30.2901 64.8501Z" fill="#5F3D30"/>
<path d="M32.4001 59.79C32.4001 59.79 30.7599 61.79 30.9499 62.63C31.1399 63.47 34.61 63.93 34.61 63.93C34.61 63.93 30.8101 63.1 32.4001 59.79Z" fill="#5F3D30"/>
<path d="M42.8699 47.3798C42.8699 47.3798 40.8699 53.8098 35.0999 55.6798C29.3299 57.5498 29.0999 59.8698 29.0999 59.8698L27.0999 56.5098L27.9697 60.5098C27.9697 60.5098 22.5498 64.7998 22.0898 67.8798L20.9897 65.3398L21.5598 69.2598C21.5598 69.2598 17.9698 76.6798 13.7998 80.3398C13.7998 80.3398 14.0098 64.1998 13.0098 59.7198L15.9099 59.8698L13.0798 58.4098C13.0798 58.4098 15.2997 50.7498 19.9597 49.4098L24.3599 50.0998L21.0698 48.6898C21.0698 48.6898 31.7497 40.2398 40.4697 43.1798C41.2735 43.5218 41.9433 44.1175 42.3767 44.8759C42.8101 45.6343 42.9833 46.5137 42.8699 47.3798Z" fill="#A4AA01"/>
<path d="M41.9797 44.3701C41.5824 43.867 41.0624 43.4744 40.4697 43.2301C31.7497 40.2901 21.0698 48.7401 21.0698 48.7401L24.3599 50.1501L19.9597 49.4601C15.2997 50.7601 13.0798 58.4601 13.0798 58.4601L15.9099 59.9201L13.0098 59.7701C14.0098 64.2501 13.7998 80.3901 13.7998 80.3901C15.8498 75.7801 15.1098 76.1701 18.7998 62.7601C22.4898 49.3501 41.9797 44.3701 41.9797 44.3701Z" fill="#BFC34C"/>
<path d="M38.9098 45.3998C38.9098 45.3998 43.2296 42.8798 45.7296 44.2698C48.2296 45.6598 52.6798 50.0498 52.6798 50.0498C51.0475 50.1982 49.4604 50.6671 48.0096 51.4298C48.0096 51.4298 53.5296 51.1898 54.0096 52.2898C54.4896 53.3898 56.4398 62.2898 56.1398 66.0398L52.6498 66.1098L55.9896 67.1098C55.9896 67.1098 54.7696 78.3298 58.9896 80.2998C55.42 79.432 52.1077 77.7282 49.3258 75.3289C46.544 72.9295 44.3722 69.9033 42.9896 66.4998L46.2296 64.2298L42.6598 65.6598C40.9532 64.0986 39.5377 62.2465 38.4796 60.1898L40.6498 58.2998L37.4596 59.4398C37.4596 59.4398 34.6697 55.5798 34.2997 52.4398C33.8697 48.9998 35.8098 46.7298 38.9098 45.3998Z" fill="#A4AA01"/>
<path d="M59.0596 80.35C54.8496 78.35 56.0596 67.16 56.0596 67.16L52.7195 66.16L56.2095 66.09C56.5095 62.37 54.5996 53.44 54.0796 52.34C53.5596 51.24 48.0796 51.48 48.0796 51.48C49.5303 50.7174 51.1172 50.2484 52.7495 50.1C52.7495 50.1 48.2996 45.7 45.7996 44.32C43.2996 42.94 38.9795 45.45 38.9795 45.45C38.9795 45.45 45.6795 53.08 47.9795 62.1C49.7995 69.39 53.6996 77.71 59.0596 80.35Z" fill="#BFC34C"/>
<path d="M39.1194 43.6C39.1194 43.6 35.1194 39.81 34.1194 37.14C33.1194 34.47 32.4492 28.22 32.4492 28.22C33.7857 29.1679 35.2938 29.8471 36.8894 30.22C36.8894 30.22 32.5293 26.81 32.8193 25.64C33.1093 24.47 37.2793 16.41 39.8193 13.76L42.5293 15.96L40.6394 12.96C40.6394 12.96 48.6394 5.18996 46.6394 0.959961C48.8275 3.92949 50.29 7.37003 50.9099 11.0062C51.5298 14.6424 51.2898 18.3732 50.2092 21.9L46.2993 21.53L49.9294 22.76C50.2434 25.0539 50.1588 27.3848 49.6794 29.65H46.8394L49.9792 30.85C49.9792 30.85 48.3893 36.09 48.7793 39.21C49.1693 42.33 41.5894 45.87 39.1194 43.6Z" fill="#BFC34C"/>
<path d="M38.8401 46.05C38.8401 46.05 41.0102 51.7901 47.1702 50.9001L46.5301 48.7501L49.1102 51.8201C49.1102 51.8201 61.1101 54.3601 61.2701 54.9201L60.2 51.3501L62.49 55.6601C62.49 55.6601 77.1801 57.6001 79.0201 59.6601C79.0201 59.6601 78.09 53.5301 68.2 47.5101L66.0901 48.05L67.2 46.9901C67.2 46.9901 61.9801 42.9901 59.0701 41.7601L56.8702 43.4201L58.3602 41.3701C58.3602 41.3701 53.8602 37.8001 48.6102 38.4601L47.5 40.4601L47.9302 38.2501C47.9302 38.2501 38.7801 38.15 38.8401 46.05Z" fill="#A4AA01"/>
<path d="M68.1992 47.5002L66.0894 48.0403L67.1992 46.9803C67.1992 46.9803 61.9793 42.9802 59.0693 41.7502L56.8694 43.4102L58.3594 41.3602C58.3594 41.3602 53.8594 37.7903 48.6094 38.4503L47.4993 40.4503L47.9294 38.2402C47.9294 38.2402 39.2994 38.2402 38.8594 45.4302C39.5194 45.0402 52.4094 38.0402 78.6694 59.4302C78.7933 59.5142 78.9102 59.6079 79.0193 59.7102C79.0193 59.7102 78.0592 53.5002 68.1992 47.5002Z" fill="#BFC34C"/>
<path d="M47.4004 46.63C47.4004 46.63 52.8904 48.63 55.9304 45.85L53.6804 43.85L56.8103 44.91C58.8589 43.3858 60.794 41.7148 62.6003 39.91L58.9004 37.91L64.4304 38.22C65.8692 36.7958 67.2058 35.2721 68.4304 33.66L66.8203 33.38L68.9802 32.81C68.9802 32.81 69.7204 32.43 71.4204 28.09C73.1204 23.75 73.7903 23.09 75.2803 22.25C75.2803 22.25 61.4704 22.09 58.8804 25.84C58.6817 27.3888 58.2919 28.907 57.7202 30.36L57.7903 26.18C57.7903 26.18 52.6102 28.33 50.0002 31.24L49.3203 35.32L48.9402 31.48C46.304 32.8344 44.0315 34.802 42.314 37.2174C40.5964 39.6328 39.4841 42.4252 39.0703 45.36L47.4004 46.63Z" fill="#BFC34C"/>
<path d="M55.9297 45.85L53.6797 43.85L56.8096 44.91C58.8582 43.3858 60.7933 41.7147 62.5996 39.91L58.8997 37.91L64.4297 38.22C65.8685 36.7958 67.2051 35.2721 68.4297 33.66L66.8196 33.38L68.9795 32.81C68.9795 32.81 69.7197 32.43 71.4197 28.09C73.1197 23.75 73.7895 23.09 75.2795 22.25H75.0596C65.6996 28.03 39.0596 45.36 39.0596 45.36L47.4297 46.63C47.4297 46.63 52.8897 48.64 55.9297 45.85Z" fill="#A4AA01"/>
<path d="M39.23 44.8999C39.23 44.8999 40.9701 36.4999 34.0701 33.3599L27.1602 30.2199L28.3 33.3899L24.4001 29.6199C21.0221 28.1141 17.1992 27.9427 13.7 29.1399L15.78 31.2399C15.78 31.2399 8.33013 27.2399 3.88013 34.7099L5.78003 35.1199L3.55005 36.2799C2.09358 38.946 0.904407 41.7497 0 44.6499C0 44.6499 8.63 38.6499 11 39.5399L13.72 36.8299L12.3701 39.8299C12.3701 39.8299 17.7502 41.4099 20.4202 43.2699C23.3102 45.2999 32.58 50.1199 39.23 44.8999Z" fill="#A4AA01"/>
<path d="M28.9299 39.2699C32.1323 41.4566 35.4725 43.4341 38.9299 45.1899L39.2397 44.8999C39.2397 44.8999 40.9798 36.4999 34.0798 33.3599L27.1699 30.2199L28.3098 33.3899L24.4099 29.6199C21.0319 28.1141 17.209 27.9427 13.7097 29.1399L15.7898 31.2399C15.7898 31.2399 8.33989 27.2399 3.88989 34.7099L5.78979 35.1199L3.55981 36.2799C2.10335 38.946 0.914172 41.7497 0.00976562 44.6499C0.00976562 44.6499 8.81993 25.9899 28.9299 39.2699Z" fill="#BFC34C"/>
</svg>
