<svg width="119" height="152" viewBox="0 0 119 152" fill="none" xmlns="http://www.w3.org/2000/svg">
<path d="M62.9695 151.326H36.2695C36.2695 151.326 43.7094 145.906 49.9094 145.496C56.1094 145.086 62.9695 151.326 62.9695 151.326Z" fill="#768BBF"/>
<path d="M62.9702 151.326L53.8603 148.326L44.3803 145.246C44.3803 145.246 43.3803 134.626 42.5803 121.296C42.1803 114.836 41.8003 107.736 41.5803 100.906C41.4003 95.5155 41.3201 90.2755 41.4001 85.6555C41.4001 82.2955 41.5903 79.2656 41.8303 76.7056C43.6103 77.0056 45.2204 77.2156 46.6404 77.3556C48.8214 77.599 51.0164 77.6925 53.2102 77.6356C53.2102 77.9556 53.7801 82.8756 54.6501 90.0556C57.0201 109.636 61.6102 145.886 62.9702 151.326Z" fill="#5F3D30"/>
<path d="M54.6494 90.1357C57.0194 109.676 61.6495 145.926 62.9695 151.366L53.8596 148.366L46.6396 77.3657C48.8207 77.6091 51.0156 77.7027 53.2095 77.6457C53.2095 77.9957 53.7794 82.9157 54.6494 90.1357Z" fill="#421C18"/>
<path d="M53.2095 77.6756C53.2095 77.9956 53.7794 82.9156 54.6494 90.0956C51.0694 89.0956 45.3994 87.1556 41.3994 85.6956C41.3994 82.3356 41.5896 79.3056 41.8296 76.7456C45.5825 77.434 49.3946 77.7456 53.2095 77.6756Z" fill="#421C18"/>
<path d="M71.71 151.136H98.4099C98.4099 151.136 90.97 145.716 84.77 145.306C78.57 144.896 71.71 151.136 71.71 151.136Z" fill="#768BBF"/>
<path d="M85.6296 144.056C85.6296 144.056 83.5196 145.346 80.1296 147.136C77.8296 148.356 74.9295 149.816 71.6895 151.256C68.9595 144.786 62.8996 109.126 59.8696 90.576C58.7596 83.836 58.0596 79.356 58.0596 79.356C58.0596 79.356 59.9196 75.356 63.5596 74.136C65.4696 73.456 67.8795 73.526 70.7595 75.286C71.0695 76.676 71.7596 79.606 72.5696 83.506C72.8096 84.586 73.0596 85.736 73.3196 86.956C74.2496 91.236 75.3195 96.296 76.4895 101.606C80.7095 121.136 85.6296 144.056 85.6296 144.056Z" fill="#5F3D30"/>
<path d="M73.3196 86.956C68.9408 88.5221 64.4429 89.7327 59.8696 90.576C58.7596 83.836 58.0596 79.356 58.0596 79.356C58.0596 79.356 62.3895 70.176 70.7595 75.286C71.1595 77.066 72.0996 81.346 73.3196 86.956Z" fill="#421C18"/>
<path d="M80.1296 147.136C77.8296 148.356 74.9295 149.816 71.6895 151.256C68.9595 144.786 62.8996 109.126 59.8696 90.5757C58.7596 83.8357 58.0596 79.3557 58.0596 79.3557C58.0596 79.3557 59.9196 75.3557 63.5596 74.1357L80.1296 147.136Z" fill="#421C18"/>
<path d="M39.46 54.4759C39.46 54.4759 38.83 55.9459 34.46 60.2159C33.5489 60.5679 32.613 60.852 31.6599 61.0659C30.7799 61.2759 29.8301 61.4559 28.8501 61.6159C24.1182 62.26 19.3453 62.5541 14.5701 62.4958C11.1001 62.4958 8.66996 62.3559 8.66996 62.3559C7.68002 63.1534 6.59511 63.8252 5.43998 64.3559C4.25998 64.7259 2.25011 65.2359 2.08011 64.8559C1.91011 64.4759 5.19002 63.2159 4.98002 62.8559C4.77002 62.4959 0.920163 64.9759 0.630163 64.3759C0.420163 63.9559 4.54017 62.1659 4.39017 61.8859C4.24017 61.6059 0.230046 63.8859 0.0100462 63.7959C-0.209954 63.1959 3.25012 61.2459 3.84012 60.9659C3.67012 60.7359 2.84003 60.7959 1.99003 61.2559C1.14003 61.7159 0.799978 62.3659 0.189978 62.7259C0.168264 62.7381 0.143237 62.7433 0.118445 62.7407C0.0936519 62.7381 0.0704872 62.7278 0.0517943 62.7113C0.0331014 62.6948 0.0198692 62.6729 0.0141966 62.6487C0.00852408 62.6244 0.010608 62.5989 0.020056 62.5759C0.396457 61.8064 0.946474 61.1348 1.62675 60.6142C2.30702 60.0936 3.09886 59.7381 3.93998 59.5759C4.64025 59.4055 5.35949 59.3248 6.08011 59.3359C6.60874 59.3345 7.13661 59.3713 7.65995 59.4459C13.5399 56.1559 22.5701 53.4459 26.0801 52.4459L27.5401 52.0359L30.5401 49.2759L39.46 54.4759Z" fill="#DC8D75"/>
<path d="M39.46 54.4759C39.46 54.4759 38.83 55.9459 34.46 60.2159C33.5489 60.5679 32.613 60.852 31.6599 61.0659L26.0801 52.4459L27.54 52.0359L30.54 49.2759L39.46 54.4759Z" fill="#C87559"/>
<path d="M6.97949 61.436C6.6616 61.5147 6.3312 61.5294 6.00757 61.4793C5.68393 61.4292 5.37365 61.3151 5.09448 61.1439C4.81531 60.9727 4.57299 60.7477 4.38159 60.4819C4.1902 60.2162 4.05342 59.915 3.97949 59.596C4.67977 59.4256 5.39901 59.3449 6.11963 59.356C6.44715 60.0317 6.73418 60.7262 6.97949 61.436Z" fill="#C87559"/>
<path d="M2.98925 57.666C2.65925 57.936 3.23926 58.776 3.74926 58.986L4.87938 59.466C4.87938 59.466 4.56925 60.726 6.48925 61.396L6.80931 61.496C7.06213 61.5583 7.32869 61.5314 7.56395 61.4199C7.79922 61.3083 7.98861 61.1189 8.10033 60.8837C8.21205 60.6485 8.23915 60.3819 8.17699 60.1291C8.11482 59.8762 7.96731 59.6526 7.75926 59.496C6.15927 58.416 3.82925 58.016 2.98925 57.666Z" fill="#DC8D75"/>
<path d="M51.5193 38.6957C50.0893 42.8857 45.0893 50.2657 41.5193 55.1757C39.4193 58.0957 37.8394 60.1757 37.8394 60.1757C37.8394 60.1757 36.8394 59.1757 27.6094 50.2257C28.9694 48.3057 30.3392 46.4757 31.6892 44.7557C36.9572 38.0202 42.935 31.8715 49.5193 26.4157C51.5193 26.3457 53.8193 32.0257 51.5193 38.6957Z" fill="#E09F34"/>
<path d="M41.5898 55.1358C39.4898 58.0558 37.9097 60.1358 37.9097 60.1358C37.9097 60.1358 36.9097 59.1358 27.6797 50.1858C29.0397 48.2658 30.4098 46.4358 31.7598 44.7158C34.0998 47.1858 38.8598 52.2058 41.5898 55.1358Z" fill="#87A0D1"/>
<path d="M118.199 73.586C118.039 73.836 116.889 72.176 116.259 71.586C115.669 71.0921 114.937 70.798 114.169 70.746C114.119 70.896 117.729 73.996 117.659 74.536C117.589 75.076 112.899 71.276 112.789 71.416C112.679 71.556 116.219 75.226 115.899 75.356C115.129 75.666 111.419 72.216 111.309 72.116C111.199 72.016 111.619 72.686 111.909 73.116C112.47 73.7288 113.09 74.2849 113.759 74.776C113.797 74.8117 113.822 74.8586 113.831 74.9098C113.84 74.9609 113.832 75.0135 113.808 75.0597C113.784 75.1058 113.746 75.1431 113.7 75.1659C113.653 75.1887 113.6 75.1957 113.549 75.186C110.199 74.636 108.969 71.186 108.969 71.186C98.3992 69.596 87.8092 65.016 85.9692 63.006C85.272 62.2022 84.6712 61.3195 84.1792 60.376C83.0187 58.2202 81.9675 56.0074 81.0293 53.746L89.4292 50.666C89.4292 50.666 90.0492 51.516 92.6992 56.536L93.3293 57.716C94.6064 58.1989 95.8379 58.7946 97.0093 59.496C99.2293 60.746 101.959 62.496 104.559 64.196C106.999 65.806 109.319 67.426 111.009 68.696C115.009 69.096 115.819 69.796 116.569 70.516L116.749 70.696C117.477 71.5157 117.977 72.5123 118.199 73.586Z" fill="#DC8D75"/>
<path d="M116.59 70.5256C115.851 70.3581 115.103 70.2279 114.35 70.1356C114.142 70.3919 113.88 70.5998 113.583 70.7448C113.286 70.8899 112.961 70.9686 112.63 70.9756C112.266 71.0225 111.896 70.9847 111.549 70.865C111.202 70.7453 110.888 70.547 110.63 70.2856C110.08 69.0256 111 68.7056 111 68.7056C115.07 69.1356 115.84 69.8056 116.59 70.5256Z" fill="#C87559"/>
<path d="M89.4497 50.6758C89.4497 50.6758 90.0697 51.5258 92.7197 56.5458C89.9397 57.7758 86.1597 59.4958 84.1997 60.3858C83.0392 58.23 81.988 56.0172 81.0498 53.7558L89.4497 50.6758Z" fill="#C87559"/>
<path d="M110.259 70.1356C110.259 70.1356 110.809 71.0056 112.259 70.4956C113.709 69.9856 113.729 69.4956 113.729 69.4956C113.729 69.4956 116.27 69.9956 116.83 69.4956C115.724 68.7381 114.436 68.2893 113.1 68.1956C111.85 68.1356 109.069 68.2056 110.259 70.1356Z" fill="#DC8D75"/>
<path d="M92.3498 52.1358C92.3498 52.1358 91.4196 52.9558 85.4296 56.3558C83.9996 57.1658 82.2696 58.1258 80.1896 59.2658C79.7696 58.5158 79.3897 57.7958 79.0297 57.0958L78.8996 56.8358C78.8196 56.6658 78.7396 56.4958 78.6496 56.3258L78.5097 56.0258L78.3298 55.6358C78.1998 55.3758 78.0897 55.1158 77.9697 54.8658C77.8497 54.6158 77.8598 54.6158 77.8098 54.4858L77.6996 54.2458C76.2879 50.7657 75.1836 47.1686 74.3996 43.4958C72.9596 37.5658 74.2996 28.7058 78.1796 28.9058C78.2694 28.896 78.3599 28.896 78.4496 28.9058C79.5232 29.2161 80.4759 29.8478 81.1796 30.7158C83.7596 33.4558 86.5396 38.7158 88.6796 43.3958C89.2396 44.6258 89.7597 45.8058 90.2197 46.8758C91.5197 49.9758 92.3498 52.1358 92.3498 52.1358Z" fill="#FFB14A"/>
<path d="M85.4296 56.3856C83.9996 57.1956 82.2696 58.1556 80.1896 59.2956C79.7696 58.5456 79.3897 57.8256 79.0297 57.1256L78.8996 56.8656C78.8196 56.6956 78.7396 56.5256 78.6496 56.3556L78.5097 56.0556C78.2597 55.5356 78.0298 55.0556 77.8098 54.5156L77.6996 54.2756C76.2879 50.7955 75.1836 47.1984 74.3996 43.5256C72.9596 37.5956 74.2996 28.7356 78.1796 28.9356C78.2694 28.9258 78.3599 28.9258 78.4496 28.9356C77.3796 30.9356 76.1598 34.0156 77.3398 39.0056C78.0498 42.0056 80.3396 46.9256 82.6896 51.3056C83.6496 53.1356 84.6096 54.9056 85.4296 56.3856Z" fill="#E09F34"/>
<path d="M109.64 70.2155L108.04 69.4256L108.51 68.7056L110.02 69.8356L109.64 70.2155Z" fill="#C87559"/>
<path d="M92.3496 52.1358C92.3496 52.1358 91.4194 52.9558 85.4294 56.3558C84.6094 54.8758 83.6495 53.1358 82.6895 51.3058C85.4095 49.7058 88.4695 47.9258 90.2195 46.9058C91.5195 49.9758 92.3496 52.1358 92.3496 52.1358Z" fill="#87A0D1"/>
<path d="M85.4292 56.3859C83.9992 57.1959 82.2692 58.1559 80.1892 59.2959C79.7692 58.5459 79.3893 57.8259 79.0293 57.1259L78.8992 56.8659C78.8192 56.6959 78.7392 56.5259 78.6492 56.3559L78.5093 56.0559C78.2593 55.5359 78.0293 55.0559 77.8093 54.5159L77.6992 54.2759C78.6992 53.6959 80.5792 52.5759 82.6992 51.3359C83.6492 53.1359 84.6092 54.9059 85.4292 56.3859Z" fill="#768BBF"/>
<path d="M73.2295 61.4358C73.1795 62.9058 74.1096 79.5558 74.1096 79.5558C74.1096 79.5558 73.7895 79.8758 70.4594 80.9858L70.2094 81.0658C69.9095 81.0658 68.5696 76.7458 68.5696 76.7458C68.5696 76.7458 68.3995 76.4058 67.4795 81.5258C63.3639 81.9511 59.2222 82.0648 55.0896 81.8658H54.6196H53.7295C49.1077 81.6853 44.5263 80.9328 40.0896 79.6258C39.4196 74.6258 42.3095 53.8258 42.7295 49.9258C43.1495 46.0258 47.2595 28.3258 49.5295 26.4858C50.9895 25.2958 54.5294 24.6258 58.6494 24.2658C59.5094 24.1958 60.3895 24.1358 61.2695 24.0858H62.0796H62.3596C63.4596 24.0358 64.5596 24.0058 65.6296 23.9858C66.1042 23.9794 66.5786 24.0062 67.0495 24.0658C71.4995 24.5958 78.4294 27.5658 79.1794 29.8958C79.2844 30.5315 79.2844 31.1801 79.1794 31.8158C78.6794 38.1358 74.2495 57.1358 73.2295 61.4358Z" fill="#FFB14A"/>
<path d="M74.1094 79.5556C74.1094 79.5556 73.7892 79.8756 70.4592 80.9856C69.2298 74.1036 68.6109 67.1265 68.6094 60.1356C69.7894 53.6956 75.5092 39.3055 79.2092 31.6855C78.6792 38.1255 74.2092 57.1055 73.2092 61.4355C73.1792 62.9055 74.1094 79.5556 74.1094 79.5556Z" fill="#E09F34"/>
<path d="M59.2199 22.7859C58.9699 23.3359 58.2699 24.8859 58.5199 25.3859C59.4172 26.3172 60.5866 26.9403 61.86 27.1659C62.86 27.1659 66.2199 26.3958 66.9999 24.4658C67.1899 22.8458 67.1199 22.0359 66.7899 21.9859C66.4599 21.9359 59.5199 22.2359 59.2199 22.7859Z" fill="#ECBF54"/>
<path d="M62.45 22.5156C62.3765 23.0136 62.2526 23.5028 62.0801 23.9756C62.0744 24.0188 62.0744 24.0625 62.0801 24.1056C61.8001 24.8456 61.4701 26.0156 61.0801 27.3756C59.4701 32.7656 57.0001 43.2356 55.3301 61.5656C54.7096 68.3066 54.4924 75.0787 54.6799 81.8456H53.7901C53.4701 52.8456 58.14 34.1456 60.44 26.7656C60.81 25.5656 61.1201 24.6656 61.3301 24.0656C61.5401 23.4656 61.6699 23.1756 61.6699 23.1756L62.45 22.5156Z" fill="#421C18"/>
<path d="M73.37 25.5757C73.31 31.7357 71.2999 50.2956 71.2299 56.4056C71.1599 62.5156 71.0399 69.6757 71.0399 69.6757C69.6869 70.6425 68.118 71.2639 66.4699 71.4857C65.1439 71.6846 63.7958 71.6846 62.4698 71.4857C62.3398 59.7757 64.3599 38.6456 65.4699 32.0956C66.5799 25.5456 66.9198 22.7856 66.9198 22.7856C68.3571 23.0766 69.7588 23.5226 71.1 24.1157C71.9339 24.4703 72.7015 24.9639 73.37 25.5757Z" fill="#D05663"/>
<path d="M73.3699 25.5757C73.3099 31.7357 71.2997 50.2957 71.2297 56.4057C71.1597 62.5157 71.0398 69.6758 71.0398 69.6758C69.6868 70.6426 68.1178 71.264 66.4697 71.4857C65.5497 59.4157 69.8099 32.2157 71.1399 24.1357C71.9582 24.4882 72.7119 24.9749 73.3699 25.5757Z" fill="#AE3658"/>
<path d="M59.0295 23.4355C56.4522 30.9303 54.2659 38.554 52.4795 46.2756C50.2195 56.5956 49.7195 70.9955 49.7195 70.9955C48.6681 70.9727 47.6194 70.8825 46.5796 70.7256C44.911 70.5496 43.2988 70.0213 41.8496 69.1756C43.0496 58.4756 44.6796 47.6556 46.3796 39.6656C48.0796 31.6756 51.6696 25.8256 52.6096 24.8156C53.544 24.2461 54.5987 23.9036 55.6895 23.8156C57.3495 23.5556 59.0295 23.4355 59.0295 23.4355Z" fill="#D05663"/>
<path d="M59.03 23.4355C56.4527 30.9303 54.2664 38.554 52.48 46.2756C50.22 56.5956 49.72 70.9955 49.72 70.9955C48.6686 70.9727 47.6199 70.8825 46.5801 70.7256C47.0601 43.9856 53.3599 28.7256 55.6899 23.8256C57.3499 23.5556 59.03 23.4355 59.03 23.4355Z" fill="#AE3658"/>
<path d="M66.3597 19.1357C66.3597 19.1357 66.7497 21.0057 67.0997 20.9957C67.4497 20.9857 67.1595 19.2157 67.1595 19.2157C67.1595 19.2157 68.2396 21.3857 68.7496 21.2957C69.2596 21.2057 68.1996 18.7157 68.1996 18.7157C69.6588 17.8378 70.782 16.4964 71.3897 14.9057C72.2335 13.308 72.7277 11.549 72.8397 9.74567C72.8397 8.74567 72.6795 5.79569 70.1595 4.32569C67.6395 2.85569 63.3095 1.94567 60.1595 3.21567C59.3495 1.80567 59.0097 1.53569 58.7997 1.64569C58.5897 1.75569 59.0096 2.88568 59.0096 2.88568C59.0096 2.88568 57.1795 0.575689 56.8995 1.01569C56.6195 1.45569 57.0296 2.51568 57.7496 3.06568C55.3696 1.53568 54.6797 1.70568 55.0797 1.94568C55.9136 2.81125 56.9045 3.51033 57.9996 4.00568C54.6396 5.28568 52.1297 6.30568 52.3197 7.00568C52.5097 7.70568 54.3197 7.16568 54.3197 7.16568C54.3197 7.16568 52.6696 8.16569 52.9396 8.51569C53.2096 8.86569 54.5697 8.13568 54.5697 8.13568C54.5697 8.13568 52.5097 9.8657 53.0497 10.3057C53.5897 10.7457 54.8697 9.3057 54.8697 9.3057C54.6145 9.72597 54.4528 10.1963 54.3959 10.6847C54.3389 11.1731 54.388 11.668 54.5397 12.1357C55.1397 13.6957 66.3597 19.1357 66.3597 19.1357Z" fill="#421C18"/>
<path d="M67.0994 16.5757C67.0994 16.5757 66.4492 21.1957 66.1792 23.0757C64.9144 23.9406 63.3831 24.327 61.8594 24.1657C61.1709 23.9957 60.5009 23.7579 59.8594 23.4557L60.6294 19.7457L67.0994 16.5757Z" fill="#C87559"/>
<path d="M61.7192 4.4857C61.7081 5.21001 61.8938 5.92377 62.2566 6.55076C62.6194 7.17776 63.1457 7.69445 63.7793 8.04569C65.6393 9.25569 67.0193 9.35569 67.0493 9.16569C67.0793 8.97569 65.8393 7.81568 65.8393 7.81568C65.8393 7.81568 68.6192 9.48569 68.6492 9.25569C68.5969 8.90733 68.489 8.56967 68.3293 8.25569C69.1035 9.28004 69.9777 10.2247 70.9392 11.0757C71.5992 10.9757 71.3392 7.6157 70.6492 6.4257C69.2692 4.1357 62.4092 2.9457 61.7192 4.4857Z" fill="#522F2C"/>
<path d="M56.1197 12.6757C56.1197 12.6757 55.8996 11.1857 54.7396 11.3657C53.5796 11.5457 53.6597 13.7957 54.1097 14.5357C54.3178 14.8408 54.5922 15.0948 54.9127 15.2784C55.2332 15.462 55.5911 15.5705 55.9596 15.5957C56.3496 15.5657 56.1197 12.6757 56.1197 12.6757Z" fill="#C87559"/>
<path d="M66.8096 16.9856C66.9787 17.2372 67.2082 17.4424 67.4773 17.5822C67.7464 17.7219 68.0465 17.7919 68.3496 17.7856C69.5196 17.8456 70.0496 16.7856 70.3496 15.7856C70.6059 15.0884 70.6059 14.3227 70.3496 13.6256C70.1196 13.2356 69.1295 12.5756 67.9795 13.6856C67.1095 14.5356 66.8096 16.9856 66.8096 16.9856Z" fill="#DC8D75"/>
<path d="M69.7904 15.1358C69.851 15.0416 69.8918 14.936 69.91 14.8254C69.9283 14.7149 69.9235 14.6018 69.8963 14.4931C69.8692 14.3844 69.8202 14.2824 69.7521 14.1934C69.6839 14.1045 69.5982 14.0304 69.5004 13.9758C68.6404 13.5658 67.9003 14.5858 67.6903 15.3258C68.3703 15.2058 68.4504 15.3258 68.5404 15.6758C68.6304 16.0258 68.0604 16.6758 67.5404 16.5058C67.0204 16.3358 67.2604 16.3958 67.2604 16.3958C67.2557 16.5572 67.2988 16.7163 67.3841 16.8533C67.4695 16.9902 67.5934 17.099 67.7403 17.1658C67.8997 17.2391 68.0738 17.2744 68.2491 17.2687C68.4244 17.263 68.5961 17.2166 68.7504 17.1332C68.9046 17.0498 69.0374 16.9316 69.138 16.788C69.2387 16.6444 69.3046 16.4793 69.3304 16.3058C69.1987 16.5481 68.9784 16.7301 68.7157 16.8139C68.453 16.8978 68.168 16.877 67.9203 16.7558C68.0724 16.754 68.2226 16.7203 68.3609 16.6569C68.4993 16.5936 68.6227 16.5019 68.7235 16.388C68.8243 16.274 68.9002 16.1402 68.9462 15.9951C68.9921 15.8501 69.0071 15.6971 68.9903 15.5458C68.9103 14.9358 68.0404 15.0658 68.0404 15.0658C68.0404 15.0658 68.5304 14.2458 69.0404 14.2758C69.8404 14.2858 69.7904 15.1358 69.7904 15.1358Z" fill="#AA533B"/>
<path d="M68.1795 13.9656C68.1874 14.0822 68.1874 14.1991 68.1795 14.3156C68.0628 14.8897 67.916 15.4571 67.7396 16.0157C67.3514 17.2289 66.7029 18.3425 65.8392 19.2788C64.9755 20.215 63.9176 20.9511 62.7396 21.4356C61.8972 21.8365 60.9687 22.0226 60.0369 21.9772C59.1051 21.9319 58.1989 21.6565 57.3995 21.1757H57.3497C56.1697 20.1757 55.7295 18.3557 55.6495 16.4557C55.6158 14.5878 55.797 12.7222 56.1895 10.8957C56.3395 10.1257 56.4897 9.52565 56.5797 9.19565C57.678 8.08605 58.9732 7.1908 60.3995 6.55566C60.6795 7.93566 62.1295 9.98566 66.1895 10.6757C65.7195 11.7757 65.6495 12.3056 65.9095 12.4056C66.1695 12.5056 66.5096 11.8257 66.5296 11.7757C66.5496 11.7257 66.1295 13.4356 66.4395 13.3456C66.7495 13.2556 67.0096 12.4656 67.0096 12.4656C67.0096 12.4656 66.8196 14.1657 67.2596 13.8857C67.5633 13.6267 67.7741 13.2755 67.8597 12.8857C68.0046 13.2332 68.1117 13.5952 68.1795 13.9656Z" fill="#DC8D75"/>
<path d="M68.1794 13.9659C68.1873 14.0824 68.1873 14.1994 68.1794 14.3159L67.7195 13.9659C67.7195 13.9659 67.1595 15.1159 66.7195 14.9159C66.2795 14.7159 66.7195 13.7659 66.7195 13.6859C66.7195 13.6059 66.2794 14.4659 65.8994 14.3559C65.5194 14.2459 65.8994 12.8359 65.8994 12.7859C65.8994 12.7359 65.3595 13.3559 65.0195 13.2259C64.6795 13.0959 64.7396 12.3159 65.2896 11.2259C60.9896 11.1159 60.0496 9.34588 59.5896 7.74588C58.2636 8.58112 57.0957 9.64415 56.1396 10.8859C56.2896 10.1159 56.4395 9.51588 56.5295 9.18588C57.6279 8.07629 58.9234 7.18103 60.3496 6.5459C60.6296 7.9259 62.0796 9.97589 66.1396 10.6659C65.6696 11.7659 65.5996 12.2959 65.8596 12.3959C66.1196 12.4959 66.4595 11.8159 66.4795 11.7659C66.4995 11.7159 66.0796 13.4259 66.3896 13.3359C66.6996 13.2459 66.9595 12.4559 66.9595 12.4559C66.9595 12.4559 66.7695 14.1559 67.2095 13.8759C67.5132 13.6169 67.724 13.2657 67.8096 12.8759C67.9723 13.2246 68.0963 13.5901 68.1794 13.9659Z" fill="#C87559"/>
<path d="M65.5192 14.7256C65.5192 14.9156 65.0992 15.1255 64.5192 15.2155C63.9392 15.3055 63.4592 15.2156 63.4292 15.0256C63.3992 14.8356 63.8492 14.6356 64.4292 14.5456C65.0092 14.4556 65.5192 14.5456 65.5192 14.7256Z" fill="#C87559"/>
<path d="M58.22 15.2256C58.22 15.4056 57.6801 15.4356 57.1201 15.2856C56.5601 15.1356 56.12 14.8757 56.19 14.7057C56.26 14.5357 56.73 14.4957 57.29 14.6357C57.85 14.7757 58.26 15.0456 58.22 15.2256Z" fill="#C87559"/>
<path d="M61.21 20.446C61.21 20.636 60.75 20.796 60.21 20.796C59.67 20.796 59.21 20.636 59.21 20.446C59.21 20.256 59.67 20.106 60.21 20.106C60.75 20.106 61.21 20.256 61.21 20.446Z" fill="#C87559"/>
<path d="M60.44 8.88574C60.44 8.88574 59.6202 9.28573 60.3602 10.6557C60.6038 10.4306 60.7488 10.1185 60.7637 9.78717C60.7787 9.4558 60.6623 9.13191 60.44 8.88574Z" fill="#F5E284"/>
<path d="M58.7696 13.1358C58.7696 13.2723 58.7292 13.4057 58.6534 13.5191C58.5776 13.6326 58.4697 13.7211 58.3436 13.7733C58.2175 13.8255 58.0787 13.8392 57.9449 13.8125C57.811 13.7859 57.6881 13.7202 57.5916 13.6237C57.4951 13.5272 57.4295 13.4043 57.4029 13.2704C57.3763 13.1366 57.39 12.9978 57.4422 12.8718C57.4944 12.7457 57.5829 12.6379 57.6964 12.5621C57.8098 12.4863 57.9432 12.4458 58.0797 12.4458C58.2627 12.4458 58.438 12.5185 58.5674 12.6479C58.6968 12.7773 58.7696 12.9528 58.7696 13.1358Z" fill="#421C18"/>
<path d="M63.09 13.1358C63.09 13.2723 63.0493 13.4057 62.9735 13.5191C62.8977 13.6326 62.79 13.7211 62.6639 13.7733C62.5379 13.8255 62.3991 13.8392 62.2653 13.8125C62.1314 13.7859 62.0085 13.7202 61.912 13.6237C61.8155 13.5272 61.7499 13.4043 61.7233 13.2704C61.6966 13.1366 61.7101 12.9978 61.7623 12.8718C61.8146 12.7457 61.903 12.6379 62.0165 12.5621C62.13 12.4863 62.2633 12.4458 62.3998 12.4458C62.5828 12.4458 62.7584 12.5185 62.8878 12.6479C63.0172 12.7773 63.09 12.9528 63.09 13.1358Z" fill="#421C18"/>
<path d="M61.3594 11.5759C61.4392 11.697 61.5295 11.8108 61.6294 11.9159C61.9779 11.7742 62.3537 11.7127 62.7292 11.7359C63.0837 11.8034 63.4343 11.8902 63.7793 11.9959C63.4726 11.6341 63.0473 11.3931 62.5793 11.3159C62.159 11.3161 61.7433 11.4047 61.3594 11.5759Z" fill="#421C18"/>
<path d="M59.3499 11.6657C59.235 11.7563 59.1147 11.8398 58.9897 11.9157C58.6665 11.6727 58.2825 11.5238 57.8799 11.4857C57.6399 11.4357 56.8799 11.3957 56.8799 11.3957C57.2746 11.1337 57.7493 11.0203 58.2197 11.0757C58.6343 11.1892 59.0198 11.3904 59.3499 11.6657Z" fill="#421C18"/>
<path d="M60.3196 11.5156C60.3196 11.5156 61.2295 14.8756 58.5195 16.0156C59.5476 14.7245 60.1736 13.1596 60.3196 11.5156Z" fill="#AA533B"/>
<path d="M63.6096 16.6657C63.6047 16.7056 63.6047 16.7459 63.6096 16.7857C63.6152 17.1539 63.5416 17.5191 63.3943 17.8566C63.247 18.1941 63.0292 18.4962 62.7554 18.7425C62.4816 18.9888 62.1583 19.1736 61.8071 19.2846C61.456 19.3955 61.0851 19.43 60.7195 19.3857C60.3908 19.3548 60.0715 19.2597 59.7795 19.1057C59.4846 18.9478 59.2267 18.7287 59.0232 18.4632C58.8197 18.1976 58.6753 17.8916 58.5996 17.5657C58.5462 17.3702 58.5192 17.1684 58.5195 16.9657C60.2657 17.2804 62.0671 16.9725 63.6096 16.0957C63.6244 16.2854 63.6244 16.476 63.6096 16.6657Z" fill="#38281B"/>
<path d="M63.6099 16.666C63.6049 16.7059 63.6049 16.7462 63.6099 16.786C63.6154 17.1542 63.5419 17.5194 63.3945 17.8569C63.2472 18.1944 63.0294 18.4965 62.7556 18.7428C62.4818 18.9891 62.1585 19.1739 61.8074 19.2849C61.4562 19.3958 61.0853 19.4303 60.7197 19.386C60.9526 18.7367 61.3358 18.1518 61.8381 17.679C62.3404 17.2063 62.9477 16.8591 63.6099 16.666Z" fill="#D05663"/>
<path d="M63.5999 16.7857C62.8257 17.4468 61.8475 17.8211 60.8298 17.8457C60.0715 17.9322 59.3035 17.8362 58.5898 17.5657C58.5364 17.3702 58.5094 17.1684 58.5098 16.9657C60.256 17.2804 62.0573 16.9725 63.5999 16.0957C63.6197 16.3253 63.6197 16.5561 63.5999 16.7857Z" fill="white"/>
</svg>
