<svg width="66" height="174" viewBox="0 0 66 174" fill="none" xmlns="http://www.w3.org/2000/svg">
<path d="M21.9287 160.274C24.1687 162.944 26.1789 163.074 26.6489 163.004C26.9766 162.97 27.2818 162.822 27.512 162.586C27.7421 162.351 27.8827 162.042 27.9089 161.714C28.0989 160.714 24.4487 153.504 24.4487 153.504C24.4487 153.504 20.9887 146.804 19.4487 146.394C17.9087 145.984 15.6387 152.754 21.9287 160.274Z" fill="#5B7DC0"/>
<path d="M26.999 157.714C27.559 159.624 27.799 161.234 27.229 161.714C27.0749 161.793 26.8988 161.817 26.729 161.784C25.419 161.604 22.579 159.404 20.729 156.564L19.729 154.944C19.439 154.474 19.1592 154.024 18.8992 153.574C17.6192 151.424 17.069 150.744 16.959 149.174C18.959 145.994 20.899 142.924 22.429 140.524L25.429 135.754L30.8792 141.754L27.5391 145.754L23.929 150.054C24.8928 151.893 25.7252 153.797 26.4192 155.754C26.5992 156.444 26.799 157.084 26.999 157.714Z" fill="#DC8D75"/>
<path d="M30.7986 141.764L27.4585 145.764C25.4862 144.308 23.7494 142.557 22.3086 140.574L25.3086 135.804L30.7986 141.764Z" fill="#C87559"/>
<path d="M27.1785 161.764C27.0244 161.843 26.8483 161.868 26.6785 161.834C26.1207 160.102 25.1733 158.522 23.9087 157.214C22.7763 156.014 21.2715 155.232 19.6387 154.994C19.3487 154.524 19.0686 154.074 18.8086 153.624C20.4225 153.837 21.9714 154.396 23.3486 155.264C24.9386 156.274 26.4785 158.714 27.1785 161.764Z" fill="#5B7DC0"/>
<path d="M43.5789 127.674C43.1092 129.228 42.4116 130.704 41.5088 132.054C39.2788 135.844 35.9389 140.594 35.1089 140.754C34.3083 140.905 33.4926 140.962 32.6787 140.924C32.6787 140.924 32.5087 141.424 30.6787 143.024C27.6043 142.048 24.9462 140.069 23.1289 137.404L24.9688 135.134C24.7218 134.12 24.6374 133.074 24.7188 132.034C25.0017 131.585 25.3853 131.209 25.8389 130.934C27.2789 129.844 29.5889 128.504 29.5889 128.504C29.5889 128.504 28.7488 121.384 29.4988 120.504C30.2488 119.624 42.5889 119.504 42.6689 119.924C42.7489 120.344 43.7989 125.654 43.5789 127.674Z" fill="#BFC34C"/>
<path d="M43.5791 127.674C43.1095 129.228 42.4118 130.704 41.509 132.054C36.2627 132.045 31.0234 131.671 25.8291 130.934C27.2691 129.844 29.5791 128.504 29.5791 128.504C29.5791 128.504 28.739 121.384 29.489 120.504C30.239 119.624 42.5792 119.504 42.6592 119.924C42.7392 120.344 43.7991 125.654 43.5791 127.674Z" fill="#A4AA01"/>
<path d="M32.6787 140.924C32.6787 140.924 32.5087 141.424 30.6787 143.024C27.6043 142.048 24.9462 140.069 23.1289 137.404L24.9688 135.134C24.9688 135.134 26.9087 138.654 32.6787 140.924Z" fill="#E09F34"/>
<path d="M27.1789 161.764C27.0249 161.843 26.8487 161.867 26.6789 161.834C26.2619 159.839 26.1575 157.791 26.3691 155.764C26.5991 156.424 26.819 157.084 26.999 157.714C26.8421 159.065 26.9028 160.432 27.1789 161.764Z" fill="#5B7DC0"/>
<path d="M19.6793 172.974L13.8494 172.824H12.0594L1.74933 172.544C1.66187 172.542 1.57669 172.517 1.50275 172.47C1.42881 172.423 1.36902 172.357 1.3299 172.279C1.29078 172.2 1.27386 172.113 1.28083 172.026C1.28779 171.939 1.3184 171.855 1.36945 171.784C1.87082 171.147 2.47601 170.599 3.15949 170.164C3.54894 169.91 3.95294 169.68 4.36945 169.474L4.57941 169.384C7.57941 167.994 12.1295 166.174 12.1295 166.174C12.1295 166.174 11.4895 162.014 10.6495 156.274C9.19948 146.534 7.14948 132.274 6.64948 125.964C15.5795 122.824 19.7293 128.864 19.7293 128.864C19.7293 128.864 19.6193 144.764 19.4693 156.124C19.3893 161.594 19.3093 166.014 19.2293 167.124C20.1893 172.094 19.6793 172.974 19.6793 172.974Z" fill="#DC8D75"/>
<path d="M19.6792 128.814C19.6792 128.814 19.5694 144.714 19.4194 156.074L10.6494 156.224C9.19941 146.484 7.14941 132.224 6.64941 125.914C15.5294 122.774 19.6792 128.814 19.6792 128.814Z" fill="#C87559"/>
<path d="M22.0287 147.214C21.6487 149.214 20.2687 149.214 20.2687 149.214V151.984L9.06874 151.734L9.18861 148.734C9.18861 148.734 8.18872 149.014 7.54872 146.874C7.20872 145.734 6.80882 140.004 6.64882 134.094C6.43912 129.783 6.57278 125.463 7.04872 121.174C8.04872 115.764 16.7388 114.004 19.6388 116.774C21.4588 118.524 22.0886 129.404 22.1986 137.694C22.2686 142.514 22.1687 146.444 22.0287 147.214Z" fill="#BFC34C"/>
<path d="M22.1986 137.684C17.9286 137.004 10.9488 135.224 6.64882 134.084C6.43912 129.774 6.57278 125.453 7.04872 121.164C8.04872 115.754 16.7388 113.994 19.6388 116.764C21.4588 118.514 22.0886 129.444 22.1986 137.684Z" fill="#A4AA01"/>
<path d="M20.2693 149.224V151.994L9.06934 151.744L9.18921 148.744C9.18921 148.744 14.8993 149.064 20.2693 149.224Z" fill="#E09F34"/>
<path d="M13.8491 172.824H12.0591C10.6362 171.42 8.8371 170.458 6.87915 170.054C5.64717 169.804 4.37426 169.842 3.15918 170.164C3.54863 169.91 3.95263 169.68 4.36914 169.474C6.17914 169.034 8.679 169.154 9.979 170.004C11.279 170.854 12.9191 172.084 13.8491 172.824Z" fill="#5B7DC0"/>
<path d="M20.0986 172.444C20.0986 172.824 20.0985 173.444 19.9485 173.444C19.4485 173.444 1.32849 173.444 0.948486 173.314C0.850846 173.165 0.798828 172.992 0.798828 172.814C0.798828 172.636 0.850846 172.462 0.948486 172.314C1.00849 172.314 20.0586 172.334 20.0986 172.444Z" fill="#5B7DC0"/>
<path d="M37.1294 10.734L36.6294 5.444L36.5593 4.664L36.4492 3.194C36.4492 3.194 40.9293 1.66401 40.9993 3.04401C41.0134 3.56469 40.918 4.08252 40.7192 4.564C40.5834 4.92134 40.3985 5.25794 40.1694 5.564C40.9474 7.4746 41.5594 9.44852 41.9993 11.464C42.1093 12.924 37.1294 10.734 37.1294 10.734Z" fill="#DC8D75"/>
<path d="M40.7192 4.564C40.4792 4.854 40.1794 5.09399 39.8894 4.93399L39.3293 4.624C38.9321 4.86 38.4681 4.95841 38.0093 4.90399C37.5305 4.79879 37.0465 4.71869 36.5593 4.664L36.4492 3.194C36.4492 3.194 40.9293 1.66401 40.9993 3.04401C41.0134 3.56469 40.918 4.08252 40.7192 4.564Z" fill="#C87559"/>
<path d="M65.0596 58.6339V59.0239C64.8592 67.6254 63.8548 76.1893 62.0596 84.6039C60.7496 90.7738 59.0595 96.4239 56.9995 100.154C54.7313 99.9234 52.5027 99.399 50.3696 98.5939C48.9196 98.1039 47.3696 97.5139 45.8596 96.8839C40.448 94.6408 35.1752 92.0762 30.0696 89.2039L25.5195 47.0739L28.5195 44.2439C33.8767 37.467 36.7937 29.0825 36.7996 20.4439C36.7996 19.2039 36.7296 17.9439 36.6096 16.6939L36.3496 14.0139L35.7295 7.71387C35.7295 7.71387 44.0396 9.09388 52.8396 19.6639C61.6396 30.2339 65.0596 47.1839 65.0596 58.6339Z" fill="#D05663"/>
<path d="M45.8694 96.8839C40.4577 94.6408 35.1849 92.0763 30.0793 89.2039L25.5293 47.0739C26.2393 46.7339 26.7393 46.5139 26.7393 46.5139L32.7393 45.2739C32.7393 45.2739 36.8293 46.1639 38.7893 55.0539C39.9862 61.2644 40.406 67.5997 40.0393 73.9139C40.0393 73.9139 44.4194 82.5839 45.8694 96.8839Z" fill="#AE3658"/>
<path d="M65.0593 58.6338C65.0593 70.0838 62.0593 90.9738 57.0093 100.154C54.741 99.9233 52.5125 99.3989 50.3794 98.5938C62.2294 72.5938 57.1493 39.5138 51.7693 29.4138C46.3893 19.3138 38.7694 15.7738 36.3594 13.9738L35.7393 7.67383C35.7393 7.67383 44.0494 9.05381 52.8494 19.6238C61.6494 30.1938 65.0593 47.1838 65.0593 58.6338Z" fill="#FFB14A"/>
<path d="M40.3191 4.44375C40.0991 4.55375 39.839 4.21375 39.679 3.94375C39.519 3.67375 39.509 3.63376 39.509 3.63376C39.4059 3.89541 39.2371 4.12612 39.019 4.30374C38.609 4.66374 38.1191 3.58377 38.1191 3.58377C38.1203 3.71745 38.082 3.84849 38.009 3.96054C37.9361 4.07259 37.8317 4.16066 37.709 4.21374C37.309 4.35374 36.999 3.40375 36.999 3.40375C36.999 3.40375 36.6792 4.40374 36.1392 4.21374C35.8692 4.12374 35.6391 3.42374 35.5391 2.71374C35.4391 2.00374 35.469 1.29376 35.689 1.20376C35.8681 1.15616 36.0584 1.17561 36.2241 1.25848C36.3899 1.34135 36.5198 1.48191 36.5891 1.65375C36.6295 1.51151 36.698 1.37888 36.7908 1.26376C36.8836 1.14864 36.9987 1.05342 37.1292 0.983763C37.5292 0.803763 38.209 1.70376 38.209 1.70376C38.3833 1.4288 38.6333 1.21002 38.929 1.07376C39.379 0.893759 39.5991 1.74374 39.5991 1.74374C39.66 1.65494 39.7389 1.5801 39.8308 1.52414C39.9228 1.46818 40.0257 1.43239 40.1326 1.41916C40.2394 1.40592 40.3478 1.41553 40.4507 1.44736C40.5535 1.47918 40.6483 1.5325 40.729 1.60376C41.449 2.12376 40.6791 4.28375 40.3191 4.44375Z" fill="#DC8D75"/>
<path d="M39.3691 3.85372C39.2942 4.03754 39.1737 4.19929 39.019 4.32373C38.609 4.68373 38.1191 3.60372 38.1191 3.60372C38.1203 3.73741 38.082 3.86847 38.009 3.98053C37.9361 4.09258 37.8317 4.18065 37.709 4.23373C37.309 4.37373 36.999 3.42373 36.999 3.42373C36.999 3.42373 36.6792 4.42373 36.1392 4.23373C35.8692 4.14373 35.6391 3.44373 35.5391 2.73373C36.2305 2.52754 36.9477 2.4198 37.6692 2.41372C37.9228 2.40142 38.1759 2.44321 38.4121 2.53631C38.6483 2.62941 38.8621 2.77171 39.0391 2.95373C39.3491 3.27373 39.4691 3.56372 39.3691 3.85372Z" fill="#C87559"/>
<path d="M38.5791 5.37369C38.6991 6.01369 37.8691 6.30369 36.7891 6.09369C35.7091 5.88369 34.999 5.3737 34.999 4.2637C34.999 3.1537 36.259 3.12371 36.759 3.08371C37.259 3.04371 38.8691 3.1937 38.8691 3.7637C38.8691 4.3337 37.1492 4.44369 37.1492 4.44369C37.1492 4.44369 38.4391 4.62369 38.5791 5.37369Z" fill="#DC8D75"/>
<path d="M54.9492 95.2539C54.8098 95.2723 54.6818 95.3408 54.5891 95.4466C54.4964 95.5524 54.4453 95.6883 54.4453 95.8289C54.4453 95.9696 54.4964 96.1055 54.5891 96.2112C54.6818 96.317 54.8098 96.3855 54.9492 96.4039C55.0887 96.3855 55.2169 96.317 55.3096 96.2112C55.4023 96.1055 55.4534 95.9696 55.4534 95.8289C55.4534 95.6883 55.4023 95.5524 55.3096 95.4466C55.2169 95.3408 55.0887 95.2723 54.9492 95.2539Z" fill="#D05663"/>
<path d="M56.949 89.8237C56.7182 89.8237 56.4971 89.9154 56.334 90.0786C56.1708 90.2417 56.0791 90.463 56.0791 90.6937C56.0791 90.9245 56.1708 91.1457 56.334 91.3089C56.4971 91.4721 56.7182 91.5637 56.949 91.5637C57.1797 91.5637 57.4011 91.4721 57.5642 91.3089C57.7274 91.1457 57.8191 90.9245 57.8191 90.6937C57.8191 90.463 57.7274 90.2417 57.5642 90.0786C57.4011 89.9154 57.1797 89.8237 56.949 89.8237Z" fill="#D05663"/>
<path d="M58.799 84.8238V84.7038L58.7189 84.5138C58.6623 84.4259 58.5914 84.3481 58.5089 84.2838C58.3656 84.1736 58.1898 84.1137 58.0089 84.1138C57.8683 84.1146 57.7304 84.1526 57.609 84.2238C57.4278 84.3318 57.2924 84.5026 57.2289 84.7038V84.8238C57.1896 84.9693 57.1893 85.1225 57.2279 85.2682C57.2665 85.4139 57.3427 85.5469 57.4489 85.6538C57.6108 85.809 57.8248 85.8981 58.049 85.9038C58.276 85.8978 58.4931 85.8088 58.6591 85.6538C58.7525 85.5395 58.8145 85.4029 58.839 85.2573C58.8636 85.1118 58.8497 84.9624 58.799 84.8238Z" fill="#D05663"/>
<path d="M60.0286 79.7141C59.8421 79.5339 59.5929 79.4331 59.3335 79.4331C59.0742 79.4331 58.8252 79.5339 58.6387 79.7141C58.5428 79.7994 58.4732 79.9105 58.4385 80.0341C58.3726 80.1495 58.3415 80.2814 58.3487 80.4141C58.3568 80.605 58.4194 80.7896 58.5291 80.946C58.6388 81.1024 58.7911 81.2242 58.9678 81.2968C59.1446 81.3693 59.3384 81.3898 59.5264 81.3557C59.7144 81.3215 59.8887 81.2342 60.0286 81.1041C60.1211 81.0159 60.1899 80.9059 60.2286 80.7841C60.2887 80.6701 60.3197 80.5429 60.3186 80.4141C60.3175 80.1517 60.2134 79.9004 60.0286 79.7141Z" fill="#D05663"/>
<path d="M61.5184 72.4437C61.3089 72.2413 61.0297 72.1268 60.7384 72.1237C60.5927 72.1127 60.4469 72.144 60.3185 72.2138C60.1833 72.2575 60.0622 72.337 59.9684 72.4437C59.8637 72.5375 59.7875 72.6588 59.7484 72.7937C59.6803 72.9231 59.6461 73.0676 59.6486 73.2138C59.6561 73.5012 59.77 73.7756 59.9684 73.9837C60.1754 74.1838 60.4505 74.2981 60.7384 74.3037C60.8878 74.3062 61.0356 74.2719 61.1686 74.2038C61.3031 74.1637 61.424 74.0876 61.5184 73.9837C61.7068 73.7692 61.8193 73.4986 61.8385 73.2138C61.8349 72.9255 61.7202 72.6497 61.5184 72.4437Z" fill="#D05663"/>
<path d="M60.9592 66.5337C60.6894 66.5596 60.4391 66.6851 60.2568 66.8857C60.0746 67.0863 59.9736 67.3476 59.9736 67.6187C59.9736 67.8897 60.0746 68.151 60.2568 68.3516C60.4391 68.5522 60.6894 68.6777 60.9592 68.7037C61.229 68.6777 61.4796 68.5522 61.6619 68.3516C61.8441 68.151 61.9451 67.8897 61.9451 67.6187C61.9451 67.3476 61.8441 67.0863 61.6619 66.8857C61.4796 66.6851 61.229 66.5596 60.9592 66.5337Z" fill="#D05663"/>
<path d="M61.4688 58.5537C61.2426 58.5774 61.0333 58.684 60.8811 58.853C60.7289 59.0219 60.6445 59.2413 60.6445 59.4688C60.6445 59.6962 60.7289 59.9155 60.8811 60.0845C61.0333 60.2534 61.2426 60.3601 61.4688 60.3837C61.6949 60.3601 61.9044 60.2534 62.0566 60.0845C62.2088 59.9155 62.293 59.6962 62.293 59.4688C62.293 59.2413 62.2088 59.0219 62.0566 58.853C61.9044 58.684 61.6949 58.5774 61.4688 58.5537Z" fill="#D05663"/>
<path d="M61.9393 51.3441C61.8444 51.2472 61.7308 51.1706 61.6053 51.119C61.4798 51.0674 61.345 51.0419 61.2093 51.0441C61.03 51.0468 60.8543 51.0951 60.6986 51.1843C60.5429 51.2735 60.4125 51.4007 60.3194 51.5541C60.1988 51.7444 60.146 51.97 60.1695 52.1941C60.165 52.319 60.1923 52.4429 60.2494 52.5541C60.2874 52.6651 60.3527 52.7649 60.4393 52.8441L60.6295 52.9941C60.7693 53.0746 60.9281 53.116 61.0895 53.1141C61.3165 53.1339 61.544 53.0815 61.7394 52.9641C61.8968 52.8756 62.0275 52.7462 62.1173 52.5895C62.2071 52.4328 62.2527 52.2547 62.2494 52.0741C62.2404 51.8007 62.1298 51.5404 61.9393 51.3441Z" fill="#D05663"/>
<path d="M60.2188 44.554C60.1551 44.4417 60.0628 44.3482 59.9512 44.2833C59.8397 44.2183 59.7129 44.1841 59.5838 44.1841C59.4547 44.1841 59.3279 44.2183 59.2164 44.2833C59.1048 44.3482 59.0125 44.4417 58.9488 44.554C58.8529 44.7027 58.8042 44.877 58.8089 45.054C58.819 45.2556 58.9005 45.447 59.0389 45.594C59.1084 45.6671 59.1924 45.7252 59.2852 45.7648C59.3781 45.8043 59.478 45.8245 59.5789 45.824C59.7848 45.82 59.9815 45.7378 60.129 45.594L60.2488 45.444C60.3197 45.3261 60.3578 45.1914 60.359 45.054C60.3636 44.877 60.3147 44.7027 60.2188 44.554Z" fill="#D05663"/>
<path d="M58.3892 37.7239C58.2408 37.574 58.0399 37.488 57.8291 37.4839C57.6181 37.4869 57.4167 37.5731 57.269 37.7239C57.1956 37.7964 57.1372 37.8828 57.0974 37.9781C57.0576 38.0734 57.0371 38.1756 57.0371 38.2789C57.0371 38.3821 57.0576 38.4843 57.0974 38.5796C57.1372 38.6749 57.1956 38.7613 57.269 38.8339C57.3415 38.9094 57.4284 38.9696 57.5247 39.0108C57.6209 39.052 57.7244 39.0735 57.8291 39.0739C58.0401 39.0709 58.2415 38.9846 58.3892 38.8339C58.4633 38.7609 58.522 38.6737 58.5615 38.5774C58.6011 38.4812 58.6206 38.3779 58.6191 38.2739C58.6152 38.068 58.533 37.8713 58.3892 37.7239Z" fill="#D05663"/>
<path d="M56.0691 29.2739C55.8583 29.2968 55.6634 29.3967 55.5217 29.5545C55.3801 29.7123 55.3018 29.9169 55.3018 30.1289C55.3018 30.341 55.3801 30.5456 55.5217 30.7034C55.6634 30.8612 55.8583 30.9611 56.0691 30.9839C56.2799 30.9611 56.4748 30.8612 56.6165 30.7034C56.7581 30.5456 56.8364 30.341 56.8364 30.1289C56.8364 29.9169 56.7581 29.7123 56.6165 29.5545C56.4748 29.3967 56.2799 29.2968 56.0691 29.2739Z" fill="#D05663"/>
<path d="M52.9395 24.2041C52.7465 24.2259 52.5686 24.318 52.4392 24.4628C52.3099 24.6076 52.2383 24.795 52.2383 24.9891C52.2383 25.1833 52.3099 25.3706 52.4392 25.5154C52.5686 25.6602 52.7465 25.7523 52.9395 25.7741C53.1324 25.7523 53.3106 25.6602 53.4399 25.5154C53.5693 25.3706 53.6409 25.1833 53.6409 24.9891C53.6409 24.795 53.5693 24.6076 53.4399 24.4628C53.3106 24.318 53.1324 24.2259 52.9395 24.2041Z" fill="#D05663"/>
<path d="M47.5793 17.2638C47.4568 17.1868 47.314 17.1484 47.1694 17.1538C47.025 17.1497 46.8823 17.1879 46.7593 17.2638H46.6594C46.545 17.3322 46.4498 17.4287 46.3833 17.5443C46.3168 17.6598 46.2809 17.7905 46.2793 17.9238C46.28 18.0574 46.3155 18.1884 46.3821 18.3041C46.4487 18.4198 46.5443 18.5162 46.6594 18.5838L46.7593 18.6338C46.8843 18.705 47.0256 18.7429 47.1694 18.7438C47.3134 18.7442 47.4549 18.7063 47.5793 18.6338C47.7027 18.5604 47.8049 18.4565 47.8767 18.3323C47.9485 18.208 47.9873 18.0674 47.9893 17.9238C47.9817 17.7883 47.9403 17.6568 47.8687 17.5415C47.797 17.4261 47.6975 17.3307 47.5793 17.2638Z" fill="#D05663"/>
<path d="M40.8792 12.2041C40.7571 12.0878 40.6037 12.0094 40.438 11.9786C40.2722 11.9477 40.101 11.9657 39.9453 12.0303C39.7896 12.0949 39.656 12.2034 39.5608 12.3425C39.4656 12.4817 39.413 12.6455 39.4092 12.8141C39.4119 13.0438 39.5054 13.263 39.6692 13.4241C39.8302 13.5835 40.0476 13.6729 40.2742 13.6729C40.5007 13.6729 40.7181 13.5835 40.8792 13.4241C41.0429 13.263 41.1364 13.0438 41.1392 12.8141C41.1343 12.5848 41.0412 12.3663 40.8792 12.2041Z" fill="#D05663"/>
<path d="M23.6192 25.5238C21.8592 25.3038 16.7291 24.9038 13.5191 28.4038C12.0941 30.0727 11.1718 32.1117 10.8592 34.2838C10.5492 36.2838 10.3791 44.9138 9.18905 47.8638C7.99905 50.8138 5.92922 57.2638 3.85922 60.5238C1.78922 63.7838 -0.650734 66.6038 0.159266 70.4338C0.969266 74.2638 2.22923 74.9438 6.86923 77.3238C11.5092 79.7038 12.8691 84.7238 17.7791 84.1638C22.6891 83.6038 24.5492 81.5238 25.0492 77.8938C25.5492 74.2638 23.929 73.6938 24.429 70.6838C24.929 67.6738 27.1192 70.4938 29.0692 65.3538C31.0192 60.2138 31.5792 51.8738 29.0692 40.9638C28.5054 38.581 28.3198 36.1243 28.5191 33.6838C28.553 32.4776 28.4929 31.2707 28.3392 30.0738C28.0956 28.9313 27.5159 27.8877 26.6749 27.077C25.8339 26.2663 24.7699 25.7254 23.6192 25.5238Z" fill="#421C18"/>
<path d="M43.6689 125.324C43.6689 125.324 38.8889 128.324 26.6689 129.854C23.6302 130.225 20.5696 130.388 17.5087 130.344H16.8688H16.5387H15.8988H15.5788L13.6388 130.214H13.4687H13.1886H12.7687H12.4887H12.3388H11.9486L11.3488 130.144L10.8588 130.084L9.95865 129.964L9.55875 129.904H9.30875L8.96866 129.844H8.76871L8.39884 129.784H8.21866C7.63866 129.684 7.15874 129.584 6.79874 129.504L6.59879 129.454H6.47867H6.39884L5.96866 129.354C5.96866 129.354 5.96866 129.294 5.96866 129.194C5.96381 129.171 5.96381 129.147 5.96866 129.124C5.96866 129.064 5.96866 128.994 5.96866 128.914C5.96866 128.854 5.96866 128.794 5.96866 128.714V128.494C5.96866 128.494 5.96866 128.434 5.96866 128.404C5.96866 128.374 5.96866 128.284 5.96866 128.224C5.96381 128.194 5.96381 128.164 5.96866 128.134C5.96866 128.004 5.96866 127.864 5.96866 127.724C5.96266 127.604 5.96266 127.484 5.96866 127.364C5.96866 127.244 5.96886 127.124 5.91886 126.994C5.92377 126.927 5.92377 126.86 5.91886 126.794C5.9238 126.724 5.9238 126.654 5.91886 126.584C5.91886 126.514 5.91886 126.444 5.91886 126.364C5.91886 126.284 5.91886 126.224 5.91886 126.144C5.80886 125.024 5.68878 123.624 5.58878 121.964V121.444C5.58878 121.334 5.58878 121.224 5.58878 121.104L5.52872 120.034C5.52872 119.904 5.52872 119.784 5.52872 119.654C5.52872 119.034 5.46864 118.374 5.44864 117.654C5.44864 117.514 5.44864 117.374 5.44864 117.234C5.44864 116.584 5.44864 115.904 5.44864 115.234V114.934C5.44864 111.804 5.44884 108.204 5.64884 104.184C5.83803 100.49 6.28564 96.8147 6.98868 93.1839C8.2614 86.5557 10.1702 80.0657 12.6886 73.8039C12.6886 73.8039 11.9388 72.2939 8.40885 64.2439C4.87885 56.1939 4.75872 50.9039 6.52872 48.6439C8.29872 46.3839 12.5286 45.6439 12.6886 45.6439C12.4986 45.4739 16.8887 47.8439 21.0287 47.3639C25.1687 46.8839 28.9189 43.5438 28.9189 43.5438C28.9189 43.5438 33.9188 42.7039 35.3388 47.6139C37.4888 55.2239 34.4587 73.4138 34.4587 73.4138L34.5988 73.6339C34.6021 73.6638 34.6021 73.694 34.5988 73.7239C34.6116 73.7559 34.6285 73.7861 34.6488 73.8139L34.8988 74.2539L34.9587 74.3538C35.1787 74.7638 35.4587 75.2939 35.7687 75.9639L35.8888 76.2039C35.9488 76.3439 36.0188 76.4839 36.0788 76.6339L36.4486 77.4739C36.4486 77.5539 36.5187 77.6339 36.5487 77.7239C36.5787 77.8139 36.7187 78.1139 36.7987 78.3139C36.8787 78.5139 36.8886 78.5538 36.9386 78.6638L37.0187 78.8639C37.0187 78.9339 37.0688 79.0139 37.0988 79.0939L37.2187 79.3939L37.3188 79.6638C37.3188 79.8038 37.4287 79.9439 37.4787 80.0939C37.5287 80.2439 37.5288 80.2539 37.5588 80.3339C37.5887 80.4139 37.7087 80.7339 37.7787 80.9439V81.0239C37.7787 81.1239 37.8488 81.2339 37.8788 81.3439C38.0188 81.7539 38.1688 82.1839 38.3088 82.6339L38.4386 83.0639C38.692 83.8839 38.942 84.7539 39.1886 85.6739L39.2787 86.0339C39.4787 86.8006 39.6788 87.6106 39.8788 88.4639C41.9088 99.0239 43.6689 125.324 43.6689 125.324Z" fill="#87A0D1"/>
<path d="M13.6496 130.154H13.4794H13.1994H12.7795H12.4994H12.3495H11.9594L11.3595 130.084L10.8695 130.024L9.96939 129.904L9.56949 129.844H9.31949L8.9794 129.784H8.77945L8.40958 129.724H8.2294C7.6494 129.624 7.16948 129.524 6.80948 129.444L6.60953 129.394H6.48941H6.40958L5.9794 129.294C5.9794 129.294 5.9794 129.234 5.9794 129.134C5.97455 129.111 5.97455 129.087 5.9794 129.064C5.9794 129.004 5.9794 128.934 5.9794 128.854C5.9794 128.794 5.9794 128.734 5.9794 128.654V128.434C5.9794 128.434 5.9794 128.374 5.9794 128.344C5.9794 128.314 5.9794 128.224 5.9794 128.164C5.97455 128.134 5.97455 128.104 5.9794 128.074C5.9794 127.944 5.9794 127.804 5.9794 127.664C5.9734 127.544 5.9734 127.424 5.9794 127.304C5.9794 127.184 5.97935 127.064 5.92935 126.934C5.93426 126.867 5.93426 126.801 5.92935 126.734C5.93429 126.664 5.93429 126.594 5.92935 126.524C5.92935 126.454 5.92935 126.384 5.92935 126.304C5.92935 126.224 5.92935 126.164 5.92935 126.084C5.81935 124.964 5.69952 123.564 5.59952 121.904V121.444C5.59952 121.334 5.59952 121.224 5.59952 121.104L5.53946 120.034C5.53946 119.904 5.53946 119.784 5.53946 119.654C5.53946 119.034 5.47938 118.374 5.45938 117.654C5.45938 117.514 5.45938 117.374 5.45938 117.234C5.45938 116.584 5.45938 115.904 5.45938 115.234V114.934C5.45938 111.804 5.45958 108.204 5.65958 104.184C5.84877 100.491 6.29638 96.8149 6.99942 93.184C8.27215 86.5558 10.1809 80.0658 12.6994 73.804C12.6994 73.804 11.9496 72.294 8.41959 64.244C4.88959 56.194 4.76946 50.904 6.53946 48.644C8.30946 46.384 12.5394 45.644 12.6994 45.644C12.5594 45.714 8.81948 47.524 10.0595 55.924C11.3195 64.474 16.9794 74.294 16.9794 74.294C15.7074 77.8367 14.7045 81.4704 13.9794 85.164C13.2402 88.7538 12.8119 92.4007 12.6994 96.064C12.0194 104.444 13.0896 121.784 13.6496 130.154Z" fill="#768BBF"/>
<path d="M43.6694 125.324C43.6694 125.324 38.8894 128.324 26.6694 129.854C23.6307 130.224 20.5702 130.388 17.5093 130.344H16.8694H16.5393H15.8994H15.5793L13.6394 130.214H13.4692H13.1892H12.7693H12.4893H12.3394H11.9492L11.3494 130.144L10.8594 130.084L9.95923 129.964L9.55933 129.904H9.30933L8.96924 129.844H8.76929L8.39941 129.784H8.21924C7.63924 129.684 7.15932 129.584 6.79932 129.504L6.59937 129.454H6.47925H6.39941L5.96924 129.354C5.96924 129.354 5.96924 129.294 5.96924 129.194C5.96438 129.171 5.96438 129.147 5.96924 129.124C5.96924 129.064 5.96924 128.994 5.96924 128.914C5.96924 128.854 5.96924 128.794 5.96924 128.714V128.494C5.96924 128.494 5.96924 128.434 5.96924 128.404C5.96924 128.374 5.96924 128.284 5.96924 128.224C5.96439 128.194 5.96439 128.163 5.96924 128.134C5.96924 128.004 5.96924 127.864 5.96924 127.724C5.96323 127.604 5.96323 127.484 5.96924 127.364C5.96924 127.244 5.96943 127.124 5.91943 126.994C5.92434 126.927 5.92434 126.86 5.91943 126.794C5.92437 126.724 5.92437 126.654 5.91943 126.584C5.91943 126.514 5.91943 126.444 5.91943 126.364C5.91943 126.284 5.91943 126.224 5.91943 126.144C5.8461 125.477 5.7759 124.687 5.70923 123.774C5.70923 123.204 5.62936 122.604 5.58936 121.964V121.444C5.58936 121.334 5.58936 121.224 5.58936 121.104L5.5293 120.034C5.5293 119.904 5.5293 119.784 5.5293 119.654C5.5293 119.034 5.46922 118.374 5.44922 117.654C5.44922 117.514 5.44922 117.374 5.44922 117.234C5.44922 116.584 5.44922 115.904 5.44922 115.234V114.934C5.44922 111.804 5.44941 108.204 5.64941 104.184C5.70941 102.884 5.80921 101.604 5.93921 100.324C6.18921 97.8937 6.55926 95.5037 6.98926 93.2337C8.37926 91.7137 9.98921 90.0037 11.6892 88.0737C12.5034 87.1719 13.2648 86.2236 13.9692 85.2337C24.3892 70.7937 28.9194 43.6137 28.9194 43.6137C28.9194 43.6137 33.9194 42.7737 35.3394 47.6837C37.4894 55.2937 34.4592 73.4837 34.4592 73.4837L34.5994 73.7037C34.6027 73.7336 34.6027 73.7638 34.5994 73.7937C34.6122 73.8256 34.629 73.8559 34.6494 73.8837L34.8994 74.3237L34.9592 74.4237C35.1792 74.8337 35.4593 75.3637 35.7693 76.0337L35.8894 76.2737C35.9494 76.4137 36.0193 76.5537 36.0793 76.7037L36.4492 77.5437C36.4492 77.6237 36.5193 77.7037 36.5493 77.7937C36.5793 77.8837 36.7193 78.1837 36.7993 78.3837C36.8793 78.5837 36.8892 78.6237 36.9392 78.7337L37.0193 78.9337C37.0193 79.0037 37.0694 79.0837 37.0994 79.1637L37.2192 79.4637L37.3193 79.7337C37.3193 79.8737 37.4292 80.0137 37.4792 80.1637C37.5292 80.3137 37.5293 80.3237 37.5593 80.4037C37.5893 80.4837 37.7093 80.8037 37.7793 81.0137V81.0937C37.7793 81.1937 37.8494 81.3037 37.8794 81.4137C38.0194 81.8237 38.1693 82.2537 38.3093 82.7037L38.4392 83.1337C38.6925 83.9537 38.9425 84.8237 39.1892 85.7437L39.2793 86.1037C39.4793 86.8703 39.6794 87.6804 39.8794 88.5337C41.9094 99.0237 43.6694 125.324 43.6694 125.324Z" fill="#D05663"/>
<path d="M13.6492 130.154H13.479H13.199H12.7791H12.499H12.3491H11.959L11.3591 130.084L10.8691 130.024L9.96899 129.904L9.56909 129.844H9.31909L8.979 129.784H8.77905L8.40918 129.724H8.229C7.649 129.624 7.16908 129.524 6.80908 129.444L6.60913 129.394H6.48901H6.40918L5.979 129.294C5.979 129.294 5.979 129.234 5.979 129.134C5.97415 129.111 5.97415 129.087 5.979 129.064C5.979 129.004 5.979 128.934 5.979 128.854C5.979 128.794 5.979 128.734 5.979 128.654V128.434C5.979 128.434 5.979 128.374 5.979 128.344C5.979 128.314 5.979 128.224 5.979 128.164C5.97415 128.134 5.97415 128.104 5.979 128.074C5.979 127.944 5.979 127.804 5.979 127.664C5.973 127.544 5.973 127.424 5.979 127.304C5.979 127.184 5.97896 127.064 5.92896 126.934C5.93386 126.868 5.93386 126.801 5.92896 126.734C5.93389 126.664 5.93389 126.594 5.92896 126.524C5.92896 126.454 5.92896 126.384 5.92896 126.304C5.92896 126.224 5.92896 126.164 5.92896 126.084C5.81896 124.964 5.69912 123.564 5.59912 121.904V121.444C5.59912 121.334 5.59912 121.224 5.59912 121.104L5.53906 120.034C5.53906 119.904 5.53906 119.784 5.53906 119.654C5.53906 119.034 5.47898 118.374 5.45898 117.654C5.45898 117.514 5.45898 117.374 5.45898 117.234C5.45898 116.584 5.45898 115.904 5.45898 115.234V114.934C5.45898 111.804 5.45918 108.204 5.65918 104.184C5.84837 100.491 6.29598 96.8149 6.99902 93.1841C8.38902 91.6641 9.99897 89.9541 11.699 88.0241C12.5132 87.1223 13.2745 86.174 13.979 85.1841C13.2398 88.7739 12.8115 92.4207 12.699 96.0841C12.019 104.444 13.0892 121.784 13.6492 130.154Z" fill="#AE3658"/>
<path d="M35.9888 85.9239C34.2288 93.1039 30.8389 101.284 25.1689 110.514C21.7487 115.983 17.7925 121.098 13.3589 125.784L9.54883 129.684H9.29883L8.95874 129.624H8.75879L8.38892 129.564H8.20874L7.41895 129.414H7.27881L6.78882 129.314L6.58887 129.264H6.46875H6.38892L6.12891 129.204H6.06885H5.95874C5.95874 129.204 5.95874 129.144 5.95874 129.044C5.95388 129.021 5.95388 128.997 5.95874 128.974C5.95874 128.914 5.95874 128.844 5.95874 128.764C5.95874 128.704 5.95874 128.644 5.95874 128.564V128.344C5.95874 128.344 5.95874 128.284 5.95874 128.254C5.95874 128.224 5.95874 128.134 5.95874 128.074C5.95389 128.044 5.95389 128.014 5.95874 127.984C5.95874 127.984 5.95874 127.904 5.95874 127.874V127.574C5.95274 127.454 5.95274 127.334 5.95874 127.214C5.95874 127.094 5.95894 126.974 5.90894 126.844C5.91384 126.777 5.91384 126.71 5.90894 126.644C5.91387 126.574 5.91387 126.504 5.90894 126.434C5.90894 126.364 5.90894 126.294 5.90894 126.214C5.90894 126.134 5.90894 126.074 5.90894 125.994C5.90894 125.854 5.90894 125.714 5.90894 125.574C5.90894 125.434 5.90894 125.274 5.90894 125.114C5.90894 124.954 5.90889 124.794 5.85889 124.624C5.80889 124.454 5.85889 124.414 5.85889 124.294C5.85889 124.174 5.85889 123.924 5.85889 123.724C5.85889 123.524 5.85889 123.324 5.85889 123.114C5.85889 122.904 5.85889 122.864 5.85889 122.724L5.79883 121.824C8.4491 119.703 10.964 117.419 13.3289 114.984C32.0889 95.6639 34.5789 73.7739 34.5789 73.7739C34.5789 73.7739 34.6689 73.9039 34.8289 74.1739C36.6905 77.802 37.1051 82.0017 35.9888 85.9239Z" fill="#FFB14A"/>
<path d="M13.3589 125.784L9.54883 129.684H9.29883L8.95874 129.624H8.75879L8.38892 129.564H8.20874L7.41895 129.414H7.27881L6.78882 129.314L6.58887 129.264H6.46875H6.38892L6.12891 129.204H6.06885H5.95874C5.95874 129.204 5.95874 129.144 5.95874 129.044C5.95388 129.021 5.95388 128.997 5.95874 128.974C5.95874 128.914 5.95874 128.844 5.95874 128.764C5.95874 128.704 5.95874 128.644 5.95874 128.564V128.344C5.95874 128.344 5.95874 128.284 5.95874 128.254C5.95874 128.224 5.95874 128.134 5.95874 128.074C5.95389 128.044 5.95389 128.014 5.95874 127.984C5.95874 127.984 5.95874 127.904 5.95874 127.874V127.574C5.95274 127.454 5.95274 127.334 5.95874 127.214C5.95874 127.094 5.95894 126.974 5.90894 126.844C5.91384 126.777 5.91384 126.71 5.90894 126.644C5.91387 126.574 5.91387 126.504 5.90894 126.434C5.90894 126.364 5.90894 126.294 5.90894 126.214C5.90894 126.134 5.90894 126.074 5.90894 125.994C5.90894 125.854 5.90894 125.714 5.90894 125.574C5.90894 125.434 5.90894 125.274 5.90894 125.114C5.90894 124.954 5.90889 124.794 5.85889 124.624C5.80889 124.454 5.85889 124.414 5.85889 124.294C5.85889 124.174 5.85889 123.924 5.85889 123.724C5.85889 123.524 5.85889 123.324 5.85889 123.114C5.85889 122.904 5.85889 122.864 5.85889 122.724L5.79883 121.824C8.4491 119.703 10.964 117.419 13.3289 114.984C12.9289 118.634 13.1589 122.504 13.3589 125.784Z" fill="#E09F34"/>
<path d="M19.9993 113.444C19.9125 113.303 19.7924 113.187 19.6494 113.104H19.5894C19.435 113.012 19.2588 112.964 19.0793 112.964C18.9033 112.966 18.7308 113.014 18.5793 113.104C18.4278 113.192 18.302 113.318 18.2146 113.47C18.1272 113.622 18.0811 113.794 18.0811 113.969C18.0811 114.144 18.1272 114.316 18.2146 114.468C18.302 114.62 18.4278 114.746 18.5793 114.834C18.7308 114.924 18.9033 114.972 19.0793 114.974C19.2588 114.974 19.435 114.925 19.5894 114.834H19.6494C19.7936 114.748 19.9138 114.628 19.9993 114.484C20.084 114.334 20.1289 114.166 20.1294 113.994C20.1352 113.802 20.0902 113.613 19.9993 113.444Z" fill="#D05663"/>
<path d="M22.7192 107.884C22.5059 107.907 22.3087 108.008 22.1653 108.167C22.0219 108.327 21.9424 108.534 21.9424 108.749C21.9424 108.963 22.0219 109.17 22.1653 109.33C22.3087 109.49 22.5059 109.591 22.7192 109.614C22.9326 109.591 23.13 109.49 23.2734 109.33C23.4168 109.17 23.4961 108.963 23.4961 108.749C23.4961 108.534 23.4168 108.327 23.2734 108.167C23.13 108.008 22.9326 107.907 22.7192 107.884Z" fill="#D05663"/>
<path d="M25.5991 102.234C25.4164 102.255 25.2478 102.343 25.1255 102.48C25.0031 102.617 24.9355 102.795 24.9355 102.979C24.9355 103.163 25.0031 103.34 25.1255 103.478C25.2478 103.615 25.4164 103.703 25.5991 103.724C25.7818 103.703 25.9504 103.615 26.0728 103.478C26.1951 103.34 26.2627 103.163 26.2627 102.979C26.2627 102.795 26.1951 102.617 26.0728 102.48C25.9504 102.343 25.7818 102.255 25.5991 102.234Z" fill="#D05663"/>
<path d="M16.2894 117.064C16.0946 116.878 15.8382 116.771 15.5694 116.764H15.3194C15.1842 116.763 15.0504 116.793 14.9293 116.854C14.8032 116.895 14.6898 116.967 14.5995 117.064C14.5004 117.152 14.4277 117.266 14.3895 117.394C14.3277 117.514 14.3 117.649 14.3094 117.784C14.3073 117.917 14.3319 118.049 14.3817 118.173C14.4315 118.297 14.5056 118.409 14.5995 118.504C14.6933 118.599 14.8054 118.675 14.9291 118.727C15.0527 118.778 15.1854 118.804 15.3194 118.804H15.5694C15.8386 118.798 16.0957 118.691 16.2894 118.504C16.3798 118.414 16.4481 118.304 16.4894 118.184C16.559 118.066 16.5905 117.93 16.5794 117.794C16.5829 117.659 16.559 117.524 16.5091 117.399C16.4593 117.274 16.3845 117.159 16.2894 117.064Z" fill="#D05663"/>
<path d="M28.7388 95.854C28.5107 95.854 28.2919 95.9446 28.1306 96.1059C27.9693 96.2672 27.8789 96.486 27.8789 96.7141C27.8789 96.9421 27.9693 97.1609 28.1306 97.3221C28.2919 97.4834 28.5107 97.574 28.7388 97.574C28.9669 97.574 29.1856 97.4834 29.3469 97.3221C29.5082 97.1609 29.5989 96.9421 29.5989 96.7141C29.5989 96.486 29.5082 96.2672 29.3469 96.1059C29.1856 95.9446 28.9669 95.854 28.7388 95.854Z" fill="#D05663"/>
<path d="M31.8696 90.6738C31.6654 90.6738 31.4696 90.755 31.3252 90.8994C31.1808 91.0438 31.0996 91.2396 31.0996 91.4438C31.0996 91.6481 31.1808 91.8439 31.3252 91.9883C31.4696 92.1327 31.6654 92.2139 31.8696 92.2139C32.0738 92.2139 32.2697 92.1327 32.4141 91.9883C32.5585 91.8439 32.6396 91.6481 32.6396 91.4438C32.6396 91.2396 32.5585 91.0438 32.4141 90.8994C32.2697 90.755 32.0738 90.6738 31.8696 90.6738Z" fill="#D05663"/>
<path d="M34.9691 84.8141C34.9495 84.7095 34.9011 84.6126 34.8292 84.5341C34.7704 84.4468 34.6916 84.3748 34.5993 84.3241C34.4725 84.2484 34.3267 84.2103 34.1791 84.2141C34.0708 84.2016 33.9617 84.2263 33.8693 84.2841C33.7672 84.3138 33.6743 84.3689 33.5993 84.4441L33.4791 84.6141C33.4208 84.704 33.3866 84.8072 33.3793 84.9141C33.3592 84.986 33.3592 85.0621 33.3793 85.1341C33.3866 85.241 33.4208 85.3442 33.4791 85.4341C33.5844 85.6156 33.7568 85.7485 33.9591 85.8041C34.1717 85.8578 34.3968 85.8292 34.5893 85.7241C34.7092 85.6539 34.8091 85.554 34.8793 85.4341C34.9362 85.3399 34.9703 85.2338 34.9791 85.1241C35.004 85.0218 35.0005 84.9146 34.9691 84.8141Z" fill="#D05663"/>
<path d="M35.1792 79.7239C35.1941 79.6614 35.1941 79.5963 35.1792 79.5339V79.3438L35.1094 79.1838C35.0357 79.0523 34.9192 78.95 34.7793 78.8938C34.6618 78.8475 34.535 78.8303 34.4094 78.8438C34.2592 78.8629 34.1189 78.9295 34.0093 79.0339C33.9274 79.1247 33.8685 79.2338 33.8372 79.3521C33.8059 79.4703 33.8032 79.5943 33.8293 79.7138C33.8754 79.8587 33.9622 79.9871 34.0793 80.0838C34.1268 80.1233 34.1809 80.1537 34.2393 80.1738C34.3234 80.2146 34.4158 80.2351 34.5093 80.2338H34.6992C34.8246 80.2143 34.9399 80.1536 35.0269 80.0613C35.1138 79.9689 35.1674 79.8502 35.1792 79.7239Z" fill="#D05663"/>
<path d="M28.439 43.6138C28.439 43.6138 26.299 49.9039 21.019 50.5339C15.739 51.1639 12.209 45.7139 12.209 45.7139C12.209 45.7139 17.369 45.7139 17.499 43.3239C17.499 42.6239 17.499 41.2738 17.499 40.0638C17.499 38.8538 17.4092 37.6938 17.4092 37.6938L23.269 40.0139C23.269 40.0139 22.8492 42.5638 23.6592 43.6938C23.7313 43.7874 23.8116 43.8745 23.8992 43.9539C24.9992 44.8739 28.439 43.6138 28.439 43.6138Z" fill="#DC8D75"/>
<path d="M23.6289 43.6941C23.0289 43.7838 22.4188 43.7838 21.8188 43.6941C20.8446 43.5207 19.932 43.098 19.1697 42.4671C18.4074 41.8363 17.8213 41.0187 17.4688 40.0941C17.4688 38.8241 17.3789 37.7241 17.3789 37.7241L23.2388 40.0441C23.2388 40.0441 22.7989 42.5641 23.6289 43.6941Z" fill="#C87559"/>
<path d="M27.3495 33.1341C27.3495 33.1341 28.5494 32.0041 29.4294 33.1341C30.3094 34.2641 28.6694 36.904 27.2294 36.714C25.7894 36.524 27.3495 33.1341 27.3495 33.1341Z" fill="#C87559"/>
<path d="M27.8998 32.8637C27.8998 33.9637 27.8996 35.6337 27.7296 36.8637C27.5196 38.9237 26.7297 41.7737 23.7897 42.0237C22.42 41.9655 21.0938 41.5255 19.961 40.7532C18.8283 39.981 17.9343 38.9074 17.3798 37.6537C16.9697 37.9037 16.4833 37.9978 16.0096 37.9189C15.5359 37.8399 15.1064 37.5932 14.7997 37.2237C14.4158 36.8896 14.1794 36.4174 14.142 35.9098C14.1045 35.4023 14.269 34.9005 14.5997 34.5137C15.2597 33.9337 16.3197 35.0637 16.3197 35.0637L16.1996 34.2037C16.1996 33.9637 16.1297 33.6537 16.0697 33.2637C19.5097 32.6337 23.4996 30.3637 23.9596 27.5137C24.1906 28.4965 24.6764 29.4012 25.368 30.1367C26.0597 30.8722 26.933 31.4127 27.8998 31.7037C27.8998 31.7037 27.9098 32.1937 27.8998 32.8637Z" fill="#DC8D75"/>
<path d="M27.8994 32.864C25.1294 32.864 24.0293 29.4939 24.0293 29.4939C23.8203 30.2378 23.4615 30.9311 22.9749 31.5312C22.4882 32.1314 21.8838 32.6257 21.1992 32.9839C19.6765 33.8457 17.9483 34.2778 16.1992 34.2339C16.1992 33.9939 16.1293 33.6839 16.0693 33.2939C19.5093 32.6639 23.4992 30.3939 23.9592 27.5439C24.1903 28.5268 24.676 29.4314 25.3677 30.167C26.0593 30.9025 26.9326 31.4429 27.8994 31.7339C27.8994 31.7339 27.9094 32.194 27.8994 32.864Z" fill="#C87559"/>
<path d="M20.2892 35.954C20.2892 36.174 19.7092 36.264 19.0892 36.144C18.4692 36.024 18.0192 35.744 18.0892 35.514C18.1592 35.284 18.6692 35.204 19.2892 35.324C19.9092 35.444 20.3292 35.724 20.2892 35.954Z" fill="#C87559"/>
<path d="M25.9091 35.954C25.9091 36.174 26.4891 36.264 27.0991 36.144C27.7091 36.024 28.1691 35.744 28.0991 35.514C28.0291 35.284 27.5191 35.204 26.9091 35.324C26.2991 35.444 25.8591 35.724 25.9091 35.954Z" fill="#C87559"/>
<path d="M22.4095 40.7237C22.4095 41.1037 24.2494 41.0637 24.2894 40.7237C24.3694 39.9337 22.3795 40.0537 22.4095 40.7237Z" fill="#C87559"/>
<path d="M14.9896 36.3338C14.8251 35.9979 14.7931 35.6124 14.8998 35.2538C15.1098 34.7838 15.9896 35.0738 16.6996 36.1338C16.6008 36.1499 16.5086 36.193 16.433 36.2585C16.3573 36.3239 16.3014 36.4091 16.2713 36.5045C16.2413 36.5999 16.2381 36.7018 16.2626 36.7988C16.287 36.8958 16.3381 36.9841 16.4098 37.0538C16.7098 37.4438 17.4098 37.0538 17.4098 37.0538C17.3246 37.2399 17.1804 37.3926 16.9996 37.4884C16.8188 37.5843 16.6115 37.6178 16.4098 37.5838C16.2126 37.5893 16.0171 37.5444 15.8421 37.4534C15.6672 37.3625 15.5185 37.2284 15.4098 37.0638C15.6783 37.2141 15.982 37.2901 16.2897 37.2838C15.7897 36.9038 15.7297 36.5838 15.8597 36.3438C15.9195 36.2703 15.9938 36.2101 16.0782 36.1671C16.1626 36.124 16.2551 36.0991 16.3497 36.0938C16.3497 36.0938 15.4996 35.4538 15.2196 35.5638C14.9396 35.6738 14.9896 36.3338 14.9896 36.3338Z" fill="#C87559"/>
<path d="M22.7993 26.5438C22.7993 26.5438 16.7994 24.9738 14.1194 30.3838L16.3894 29.4438L13.4893 32.0838C13.4893 32.0838 18.2694 32.0238 20.4094 30.1938C21.6022 29.2882 22.4462 27.9991 22.7993 26.5438Z" fill="#522F2C"/>
<path d="M24.1891 32.7539C23.8204 33.4864 23.6612 34.3066 23.7292 35.1239C23.7983 35.4629 23.943 35.7819 24.1525 36.0572C24.362 36.3324 24.6309 36.5569 24.9391 36.7139C24.6415 36.1232 24.4166 35.4987 24.2692 34.8539C24.1884 34.157 24.1616 33.4549 24.1891 32.7539Z" fill="#AA533B"/>
<path d="M22.7993 35.0239C22.3745 34.6639 21.8525 34.4377 21.2993 34.3739C20.8206 34.2981 20.3317 34.3151 19.8594 34.4239C20.0536 34.2171 20.2894 34.054 20.5515 33.9454C20.8136 33.8367 21.0958 33.7851 21.3794 33.7939C22.2994 33.8539 22.7993 35.0239 22.7993 35.0239Z" fill="#522F2C"/>
<path d="M22.9287 32.2737L22.6787 32.8137C22.2093 32.6523 21.7278 32.5286 21.2388 32.4437C20.8112 32.49 20.387 32.5635 19.9688 32.6637C20.3502 32.3901 20.7719 32.1775 21.2188 32.0337C21.7945 32.065 22.3666 32.1453 22.9287 32.2737Z" fill="#522F2C"/>
<path d="M25.0586 34.7738C25.3861 34.4942 25.7903 34.32 26.2185 34.2738C26.5847 34.1992 26.9624 34.1992 27.3286 34.2738C27.1777 34.1135 26.9944 33.9869 26.791 33.9025C26.5876 33.818 26.3688 33.7776 26.1487 33.7838C25.4387 33.8738 25.0586 34.7738 25.0586 34.7738Z" fill="#522F2C"/>
<path d="M25.1689 32.4439L25.0488 32.9039C25.5153 32.7761 25.9896 32.6792 26.4688 32.6139C26.782 32.6354 27.0932 32.6822 27.3989 32.7539C27.0679 32.5089 26.6951 32.326 26.2988 32.2139C25.9116 32.224 25.5293 32.3019 25.1689 32.4439Z" fill="#522F2C"/>
<path d="M21.1494 36.814C21.2598 37.2586 21.4728 37.6712 21.7715 38.0185C22.0702 38.3658 22.4463 38.6383 22.8694 38.814C24.2694 39.324 25.6194 37.814 25.6194 37.814C24.8586 38.1057 24.0285 38.1663 23.2334 37.9885C22.4383 37.8106 21.7134 37.402 21.1494 36.814Z" fill="#AA533B"/>
<path d="M24.6992 30.8237C24.6764 30.9649 24.6235 31.0996 24.5442 31.2186C24.4648 31.3377 24.3608 31.4383 24.2393 31.5137C24.0992 31.4443 23.9776 31.3429 23.8838 31.2179C23.79 31.0928 23.7267 30.9476 23.6992 30.7937C23.6992 30.5337 23.9792 30.0137 24.1892 29.9937C24.3992 29.9737 24.7292 30.5237 24.6992 30.8237Z" fill="#F5E284"/>
<path d="M24.6995 30.8237C24.6766 30.9649 24.6238 31.0996 24.5444 31.2186C24.4651 31.3376 24.3611 31.4383 24.2395 31.5137C24.2395 31.0837 24.1895 30.0737 24.1895 29.9937C24.3695 29.9937 24.7295 30.5237 24.6995 30.8237Z" fill="#ECBF54"/>
<path d="M24.4587 30.7938C24.4497 30.8697 24.4234 30.9425 24.3818 31.0067C24.3402 31.0708 24.2844 31.1245 24.2188 31.1638C24.1287 31.1638 23.9287 30.9238 23.9287 30.7838C23.9287 30.6438 24.0787 30.3638 24.1887 30.3538C24.2987 30.3438 24.4787 30.6338 24.4587 30.7938Z" fill="#D05663"/>
<path d="M24.1689 29.334C24.1053 29.334 24.044 29.3593 23.999 29.4043C23.954 29.4493 23.9287 29.5103 23.9287 29.574C23.9287 29.6376 23.954 29.6987 23.999 29.7437C24.044 29.7887 24.1053 29.814 24.1689 29.814C24.2326 29.814 24.2936 29.7887 24.3386 29.7437C24.3836 29.6987 24.4089 29.6376 24.4089 29.574C24.4089 29.5103 24.3836 29.4493 24.3386 29.4043C24.2936 29.3593 24.2326 29.334 24.1689 29.334Z" fill="#F5E284"/>
<path d="M24.1289 28.7139C24.0759 28.7139 24.0248 28.735 23.9873 28.7725C23.9498 28.81 23.9287 28.8608 23.9287 28.9139C23.9287 28.9669 23.9498 29.0178 23.9873 29.0553C24.0248 29.0928 24.0759 29.1139 24.1289 29.1139C24.1819 29.1139 24.2328 29.0928 24.2703 29.0553C24.3078 29.0178 24.3289 28.9669 24.3289 28.9139C24.3289 28.8608 24.3078 28.81 24.2703 28.7725C24.2328 28.735 24.1819 28.7139 24.1289 28.7139Z" fill="#F5E284"/>
<path d="M24.2491 28.2238C24.2346 28.1961 24.2136 28.1721 24.1881 28.1539C24.1626 28.1357 24.1332 28.1237 24.1022 28.119C24.0712 28.1143 24.0394 28.1169 24.0096 28.1267C23.9798 28.1365 23.9527 28.1531 23.9305 28.1753C23.9084 28.1975 23.8917 28.2246 23.882 28.2544C23.8722 28.2842 23.8697 28.3158 23.8744 28.3469C23.8791 28.3779 23.8911 28.4073 23.9093 28.4329C23.9275 28.4584 23.9513 28.4793 23.9791 28.4938C24.0149 28.5296 24.0635 28.5498 24.1141 28.5498C24.1648 28.5498 24.2133 28.5296 24.2491 28.4938C24.2849 28.458 24.305 28.4095 24.305 28.3588C24.305 28.3082 24.2849 28.2596 24.2491 28.2238Z" fill="#F5E284"/>
<path d="M23.949 27.4438C23.8959 27.4438 23.8451 27.4649 23.8076 27.5024C23.7701 27.5399 23.749 27.5908 23.749 27.6439C23.749 27.6969 23.7701 27.7478 23.8076 27.7853C23.8451 27.8228 23.8959 27.8438 23.949 27.8438C24.002 27.8438 24.0531 27.8228 24.0906 27.7853C24.1281 27.7478 24.1492 27.6969 24.1492 27.6439C24.1492 27.5908 24.1281 27.5399 24.0906 27.5024C24.0531 27.4649 24.002 27.4438 23.949 27.4438Z" fill="#F5E284"/>
<path d="M23.8591 26.8838C23.8215 26.8838 23.7846 26.8949 23.7534 26.9158C23.7221 26.9367 23.6979 26.9664 23.6835 27.0011C23.6692 27.0358 23.6652 27.074 23.6726 27.1108C23.6799 27.1477 23.698 27.1816 23.7246 27.2081C23.7511 27.2347 23.7851 27.2528 23.822 27.2601C23.8588 27.2675 23.8971 27.2637 23.9318 27.2493C23.9665 27.2349 23.9962 27.2106 24.017 27.1794C24.0379 27.1481 24.049 27.1114 24.049 27.0738C24.0466 27.0242 24.0258 26.9773 23.9907 26.9421C23.9555 26.907 23.9087 26.8862 23.8591 26.8838Z" fill="#F5E284"/>
<path d="M23.7393 26.3438C23.7024 26.3529 23.6696 26.3741 23.6462 26.404C23.6228 26.4339 23.6104 26.4708 23.6104 26.5088C23.6104 26.5467 23.6228 26.5836 23.6462 26.6135C23.6696 26.6434 23.7024 26.6646 23.7393 26.6738C23.7761 26.6646 23.8089 26.6434 23.8323 26.6135C23.8557 26.5836 23.8684 26.5467 23.8684 26.5088C23.8684 26.4708 23.8557 26.4339 23.8323 26.404C23.8089 26.3741 23.7761 26.3529 23.7393 26.3438Z" fill="#F5E284"/>
<path d="M23.459 25.8438C23.4139 25.8438 23.3707 25.8617 23.3389 25.8936C23.307 25.9254 23.2891 25.9687 23.2891 26.0138C23.2891 26.0589 23.307 26.1021 23.3389 26.134C23.3707 26.1659 23.4139 26.1837 23.459 26.1837C23.5041 26.1837 23.5475 26.1659 23.5793 26.134C23.6112 26.1021 23.6292 26.0589 23.6292 26.0138C23.6292 25.9687 23.6112 25.9254 23.5793 25.8936C23.5475 25.8617 23.5041 25.8438 23.459 25.8438Z" fill="#F5E284"/>
<path d="M23.0891 25.4438C23.0523 25.453 23.0195 25.4742 22.9961 25.5041C22.9727 25.534 22.96 25.5709 22.96 25.6089C22.96 25.6468 22.9727 25.6837 22.9961 25.7136C23.0195 25.7435 23.0523 25.7647 23.0891 25.7738C23.126 25.7647 23.1587 25.7435 23.1821 25.7136C23.2055 25.6837 23.2183 25.6468 23.2183 25.6089C23.2183 25.5709 23.2055 25.534 23.1821 25.5041C23.1587 25.4742 23.126 25.453 23.0891 25.4438Z" fill="#F5E284"/>
<path d="M56.7985 45.3338C56.6785 45.8438 56.6784 45.5438 55.7084 44.9538C55.4913 46.0273 55.0203 47.0333 54.3348 47.8875C53.6494 48.7417 52.7694 49.4193 51.7684 49.8638C49.6258 52.9906 47.0881 55.8274 44.2184 58.3038C40.3401 61.759 35.8725 64.489 31.0284 66.3638C29.911 66.8031 28.7281 67.0532 27.5284 67.1038C24.1077 66.8364 20.7553 66.0017 17.6085 64.6338C14.1246 63.3231 10.9162 61.373 8.14857 58.8838C3.93857 54.7538 5.23842 50.8838 6.24842 49.4038C6.3656 49.2276 6.49611 49.0604 6.63856 48.9038C8.97856 46.4338 16.1586 50.6638 22.1686 54.1838C24.3386 55.4538 26.3584 56.6338 27.9484 57.3738C31.6384 55.2738 47.3684 49.2338 50.2584 47.8938C50.4389 45.9605 51.3555 44.1705 52.8185 42.8938C54.1185 41.8038 56.2986 41.3438 56.3886 41.6338C56.4786 41.9238 55.6284 42.1038 54.1984 43.0638C54.7084 43.0638 54.8285 43.7738 54.8285 43.7738C55.1609 43.7381 55.4961 43.7381 55.8285 43.7738C56.1258 43.9095 56.3764 44.1299 56.549 44.4074C56.7215 44.6849 56.8083 45.0072 56.7985 45.3338Z" fill="#DC8D75"/>
<path d="M22.1188 54.1838C21.0288 54.9638 19.1187 56.9539 18.0587 61.7539C17.8412 62.7043 17.6743 63.6657 17.5587 64.6339C14.0748 63.3232 10.8664 61.373 8.09876 58.8839C3.88876 54.7539 5.18861 50.8839 6.19861 49.4039C6.3158 49.2276 6.44631 49.0605 6.58875 48.9039C8.92875 46.4439 16.1088 50.6638 22.1188 54.1838Z" fill="#768BBF"/>
<path d="M51.7185 49.8638C44.1685 61.0238 31.5085 67.1838 27.4785 67.1038C24.0577 66.8364 20.7054 66.0017 17.5586 64.6338C17.6742 63.6656 17.8411 62.7043 18.0586 61.7538C22.2286 63.6438 26.4487 64.9238 28.3787 64.6738C32.2187 64.1738 44.2985 58.7138 51.7185 49.8638Z" fill="#C87559"/>
<path d="M18.0587 61.7538C17.8412 62.7043 17.6743 63.6656 17.5587 64.6338C14.0748 63.3231 10.8664 61.373 8.09876 58.8838C3.88876 54.7538 5.18861 50.8838 6.19861 49.4038C6.04203 51.5145 6.70872 53.6038 8.05872 55.2338C9.79872 57.4438 13.9087 59.8738 18.0587 61.7538Z" fill="#5B7DC0"/>
<path d="M48.0693 48.314C48.0693 48.504 51.0694 53.7841 51.3394 53.7241C51.6094 53.6641 52.1594 52.7841 52.1594 52.7841L48.8894 47.874L48.0693 48.314Z" fill="#ECBF54"/>
<path d="M49.5195 47.3737C49.5195 47.3737 52.1595 51.5237 52.5195 51.3737C52.8795 51.2237 53.1497 50.5637 53.1497 50.5637L49.9995 46.8438L49.5195 47.3737Z" fill="#F5E284"/>
</svg>
