<svg width="156" height="97" viewBox="0 0 156 97" fill="none" xmlns="http://www.w3.org/2000/svg">
<path d="M36.0279 89.8021L36.4087 96.2889C36.4087 96.2889 30.7392 98.2836 26.2847 95.5915L27.9692 89.1047L36.0279 89.8021Z" fill="#5F3D30"/>
<path d="M27.9688 89.1534L36.0681 89.8021L36.1167 90.7346C36.1167 90.7346 29.3457 91.7076 28.1957 96.4592C27.8555 96.3051 26.6568 95.8105 26.3247 95.6483L27.9688 89.1534Z" fill="#5F3D30"/>
<path d="M35.8415 83.8665L36.7163 90.3533C36.7163 90.3533 31.5084 91.748 27.1187 90.0614L28.2202 83.4854L35.8415 83.8665Z" fill="#5F3D30"/>
<path d="M28.2116 83.534L35.8815 84.1584L35.9302 85.0909C35.9302 85.0909 29.5641 85.999 28.1305 90.3858C27.7871 90.2973 27.4491 90.189 27.1181 90.0614L28.2116 83.534Z" fill="#5F3D30"/>
<path d="M35.963 77.4687L37.186 84.2231C37.186 84.2231 30.6499 85.5367 27.394 83.5096L29.0139 76.9174L35.963 77.4687Z" fill="#5F3D30"/>
<path d="M28.9645 77.031L35.9867 77.5985L36.1567 78.5716C35.2901 78.7175 29.6773 79.8365 28.422 84.0205C28.0636 83.8902 27.719 83.7245 27.3933 83.5259L28.9645 77.031Z" fill="#5F3D30"/>
<path d="M35.5335 70.2603L36.8052 77.7364C36.8052 77.7364 29.5725 78.3526 27.8393 76.9823L29.7992 69.6846L35.5335 70.2603Z" fill="#5F3D30"/>
<path d="M29.5889 70.4468L35.6471 70.9333L35.8091 71.8901C35.1449 72.0036 29.4595 73.0496 28.0907 77.1444C28.0018 77.0989 27.9176 77.0446 27.8396 76.9822L29.5889 70.4468Z" fill="#5F3D30"/>
<path d="M28.8274 64.5439L28.706 71.201C28.706 71.201 35.4606 72.3037 36.6431 70.5766L34.4482 63.8871L28.8274 64.5439Z" fill="#5F3D30"/>
<path d="M28.8191 64.7708L34.6019 64.3492L35.0068 65.5978C33.2736 66.36 30.0744 68.1682 29.5318 71.2738L28.7218 71.1603L28.8191 64.7708Z" fill="#5F3D30"/>
<path d="M32.7962 57.4894C34.3857 59.6457 35.3042 62.2238 35.4365 64.9006C34.2566 65.5112 32.9586 65.8585 31.6317 65.9187C30.3048 65.9789 28.9806 65.7505 27.7504 65.2492C28.2417 62.9413 28.1018 60.5433 27.3454 58.3083L32.7962 57.4894Z" fill="#5F3D30"/>
<path d="M27.6609 59.4273L33.4923 58.5192C33.6543 58.7867 33.8243 59.103 34.0024 59.4517C32.909 59.9625 28.9972 62.0058 28.4384 65.4844C28.2116 65.4195 27.9848 65.3384 27.7499 65.2492C28.1612 63.3269 28.1308 61.3361 27.6609 59.4273Z" fill="#5F3D30"/>
<path d="M31.6543 53.0459L34.2217 58.7219C34.2217 58.7219 31.8406 60.4246 26.8677 60.0679L26.5274 54.2946L31.6543 53.0459Z" fill="#5F3D30"/>
<path d="M32.5615 55.1056C31.7516 55.4462 28.0826 57.1895 27.629 60.1086C27.378 60.1086 27.1107 60.1086 26.8191 60.068L26.5437 55.3651L32.2131 54.4083L32.5615 55.1056Z" fill="#5F3D30"/>
<path d="M29.4349 47.9294C30.7607 49.8335 31.9801 51.8096 33.0877 53.8486C33.849 55.5514 26.7946 56.4514 25.7579 55.6244C25.7579 55.6244 25.6363 50.8566 24.713 49.1375L29.4349 47.9294Z" fill="#5F3D30"/>
<path d="M31.2896 50.7108C30.099 51.2865 27.086 52.9974 26.1465 55.7786C26.0069 55.7438 25.8751 55.6833 25.7577 55.6002C25.7108 53.915 25.5266 52.2363 25.207 50.5811L30.6497 49.7296L31.2896 50.7108Z" fill="#5F3D30"/>
<path d="M28.4141 45.6512L32.0669 50.1677C32.0669 50.1677 27.5555 52.1056 24.8828 51.5786L23.4332 46.6405L28.4141 45.6512Z" fill="#5F3D30"/>
<path d="M23.5546 47.07L25.2393 46.2592L28.406 45.6267L28.6733 45.9591C27.7014 46.9078 25.8304 49.0647 25.7251 51.6351C25.4535 51.6277 25.1829 51.6006 24.9152 51.554L23.5546 47.07Z" fill="#5F3D30"/>
<path d="M24.8994 41.0292C26.7529 42.1327 28.273 43.7188 29.2974 45.6187C29.2974 45.6187 23.9842 47.9215 22.5588 46.8998L21.4006 41.9455L24.8994 41.0292Z" fill="#5F3D30"/>
<path d="M28.3735 44.1266C27.0772 44.7955 25.9648 45.7728 25.1339 46.9727C24.6467 47.0812 24.1506 47.1436 23.6518 47.1591L23.4573 43.8265L27.5069 43.1454C27.8145 43.4554 28.1039 43.783 28.3735 44.1266Z" fill="#5F3D30"/>
<path d="M35.6467 73.6011C35.6467 73.6011 36.3918 76.1391 35.8411 76.8445C35.2903 77.55 31.9939 77.4689 31.9939 77.4689C31.9939 77.4689 35.7844 77.3959 35.6467 73.6011Z" fill="#5F3D30"/>
<path d="M35.9141 79.7233C35.9141 79.7233 36.7888 82.7153 36.1409 83.591C35.4929 84.4667 31.6133 84.3289 31.6133 84.3289C31.6133 84.3289 36.068 84.1911 35.9141 79.7233Z" fill="#5F3D30"/>
<path d="M35.6627 91.586C35.6627 91.586 36.2539 95.1132 35.6141 95.9808C34.9742 96.8484 30.212 96.7917 30.212 96.7917C30.212 96.7917 35.8166 96.0456 35.6627 91.586Z" fill="#5F3D30"/>
<path d="M35.3063 67.4144C35.3063 67.4144 36.513 69.847 36.1162 70.4551C35.7193 71.0632 32.8765 71.3633 32.8765 71.3633C33.3209 71.3151 33.7484 71.1659 34.1264 70.9269C34.5044 70.6879 34.8229 70.3656 35.0573 69.9845C35.2918 69.6035 35.4361 69.1738 35.4793 68.7284C35.5224 68.2829 35.4632 67.8335 35.3063 67.4144Z" fill="#5F3D30"/>
<path d="M34.3346 61.0087C34.3346 61.0087 35.3874 63.7251 35.0229 64.5035C34.6584 65.2819 31.5485 65.663 31.5485 65.663C31.5485 65.663 35.1931 64.5359 34.3346 61.0087Z" fill="#5F3D30"/>
<path d="M35.7927 85.8692C35.7927 85.8692 36.4729 89.2667 36.1004 90.0451C35.7278 90.8235 30.7954 90.7262 30.7954 90.7262C30.7954 90.7262 36.5135 90.7181 35.7927 85.8692Z" fill="#5F3D30"/>
<path d="M32.3668 56.0541C32.3668 56.0541 33.5979 57.7488 33.4035 58.4056C33.2091 59.0624 30.7713 59.6705 30.7713 59.6705C31.1321 59.5646 31.4655 59.3812 31.7483 59.133C32.031 58.8848 32.2562 58.5777 32.4081 58.2334C32.56 57.889 32.6351 57.5156 32.628 57.1392C32.6209 56.7628 32.5317 56.3925 32.3668 56.0541Z" fill="#5F3D30"/>
<path d="M31.4674 51.8055C31.4674 51.8055 32.6985 53.5002 32.5041 54.1489C32.3097 54.7975 29.8718 55.4138 29.8718 55.4138C30.2324 55.3089 30.5657 55.1264 30.8485 54.8789C31.1312 54.6315 31.3565 54.3252 31.5085 53.9814C31.6605 53.6377 31.7355 53.2648 31.7284 52.8889C31.7213 52.5131 31.6322 52.1432 31.4674 51.8055Z" fill="#5F3D30"/>
<path d="M29.7584 47.7025C29.7584 47.7025 31.0868 49.3242 30.9329 50.0053C30.779 50.6865 27.9685 51.0594 27.9685 51.0594C27.9685 51.0594 31.0461 50.3864 29.7584 47.7025Z" fill="#5F3D30"/>
<path d="M21.2786 37.6397C21.2786 37.6397 22.8984 42.8534 27.5717 44.3697C32.2449 45.886 32.4312 47.7672 32.4312 47.7672L34.051 45.0428L33.3465 48.2862C33.3465 48.2862 37.7362 51.7647 38.1087 54.2621L38.9997 52.2026L38.538 55.3811C38.538 55.3811 41.4457 61.3977 44.823 64.3654C44.823 64.3654 44.653 51.2782 45.4629 47.6456L43.114 47.7672L45.4061 46.5834C45.4061 46.5834 43.6082 40.3722 39.834 39.2857L36.2702 39.8452L38.9349 38.7019C38.9349 38.7019 30.285 31.8502 23.2225 34.2341C22.5715 34.5114 22.029 34.9944 21.678 35.6094C21.327 36.2243 21.1867 36.9374 21.2786 37.6397Z" fill="#A4AA01"/>
<path d="M21.9995 35.1992C22.3213 34.7912 22.7424 34.4729 23.2225 34.2749C30.285 31.8909 38.9349 38.7426 38.9349 38.7426L36.2702 39.8859L39.834 39.3264C43.6082 40.3806 45.4061 46.6241 45.4061 46.6241L43.114 47.808L45.4629 47.6863C44.653 51.319 44.823 64.4061 44.823 64.4061C43.1627 60.6681 43.762 60.9843 40.7734 50.1108C37.7848 39.2373 21.9995 35.1992 21.9995 35.1992Z" fill="#BFC34C"/>
<path d="M24.4861 36.0342C24.4861 36.0342 20.9874 33.9908 18.9626 35.1179C16.9378 36.245 13.3335 39.8046 13.3335 39.8046C14.6555 39.9249 15.9409 40.3052 17.1159 40.9236C17.1159 40.9236 12.6452 40.729 12.2564 41.621C11.8677 42.5129 10.2882 49.7295 10.5312 52.7701L13.3578 52.8269L10.6528 53.6378C10.6528 53.6378 11.6409 62.7355 8.22302 64.3329C11.1142 63.6293 13.7969 62.2477 16.05 60.3022C18.303 58.3567 20.062 55.9029 21.1818 53.1432L18.5576 51.3025L21.4489 52.462C22.8311 51.1962 23.9775 49.6944 24.8345 48.0267L23.0768 46.4942L25.6606 47.4185C25.6606 47.4185 27.9202 44.2887 28.2199 41.7426C28.5682 38.9532 26.9969 37.1126 24.4861 36.0342Z" fill="#A4AA01"/>
<path d="M8.16641 64.3736C11.5762 62.7519 10.5962 53.6785 10.5962 53.6785L13.3014 52.8676L10.4748 52.8109C10.2318 49.7945 11.7786 42.5536 12.1998 41.6616C12.621 40.7697 17.0593 40.9643 17.0593 40.9643C15.8843 40.3459 14.5991 39.9656 13.2771 39.8453C13.2771 39.8453 16.8812 36.2776 18.906 35.1586C20.9308 34.0396 24.4297 36.0749 24.4297 36.0749C24.4297 36.0749 19.0032 42.2617 17.1404 49.5756C15.6663 55.4867 12.5076 62.233 8.16641 64.3736Z" fill="#BFC34C"/>
<path d="M24.316 34.5748C24.316 34.5748 27.5556 31.5016 28.3656 29.3367C29.1755 27.1717 29.7183 22.1038 29.7183 22.1038C28.6358 22.8725 27.4143 23.4233 26.1221 23.7256C26.1221 23.7256 29.6534 20.9606 29.4185 20.0119C29.1836 19.0632 25.8062 12.5277 23.7491 10.3789L21.5542 12.1628L23.0849 9.73023C23.0849 9.73023 16.6055 3.42991 18.2253 0C16.4531 2.40785 15.2686 5.19762 14.7666 8.14601C14.2645 11.0944 14.4589 14.1195 15.3341 16.9793L18.5008 16.6792L15.5607 17.6766C15.3064 19.5366 15.3749 21.4267 15.7631 23.2634H18.0634L15.5203 24.2364C15.5203 24.2364 16.8081 28.4852 16.4922 31.0151C16.1763 33.545 22.3155 36.4154 24.316 34.5748Z" fill="#BFC34C"/>
<path d="M24.5427 36.5614C24.5427 36.5614 22.7851 41.2157 17.796 40.4941L18.3145 38.7507L16.2248 41.2401C16.2248 41.2401 6.50585 43.2996 6.37626 43.7537L7.24293 40.8589L5.38818 44.3537C5.38818 44.3537 -6.50958 45.9268 -7.99983 47.5971C-7.99983 47.5971 -7.24655 42.6266 0.763567 37.7453L2.47239 38.1831L1.57349 37.3236C1.57349 37.3236 5.80118 34.0802 8.15805 33.0829L9.93984 34.4289L8.73306 32.7666C8.73306 32.7666 12.3777 29.8719 16.6298 30.407L17.5289 32.0288L17.1805 30.2368C17.1805 30.2368 24.5913 30.1557 24.5427 36.5614Z" fill="#A4AA01"/>
<path d="M0.763414 37.7373L2.47224 38.1752L1.57334 37.3157C1.57334 37.3157 5.80103 34.0723 8.1579 33.0749L9.93968 34.4209L8.73291 32.7587C8.73291 32.7587 12.3776 29.8639 16.6296 30.3991L17.5287 32.0208L17.1803 30.2288C17.1803 30.2288 24.17 30.2288 24.5264 36.0588C23.9918 35.7426 13.5519 30.0666 -7.71663 47.4108C-7.81693 47.4789 -7.91159 47.5548 -7.99998 47.6378C-7.99998 47.6378 -7.22241 42.6024 0.763414 37.7373Z" fill="#BFC34C"/>
<path d="M17.6097 37.0317C17.6097 37.0317 13.1633 38.6534 10.7011 36.3992L12.5234 34.7775L9.98846 35.637C8.32927 34.4011 6.76196 33.0461 5.29898 31.5828L8.29565 29.961L3.81676 30.2124C2.65147 29.0576 1.5689 27.8221 0.577082 26.5149L1.88114 26.2879L0.131784 25.8257C0.131784 25.8257 -0.467709 25.5176 -1.84457 21.9985C-3.22144 18.4794 -3.76398 17.9442 -4.97076 17.2631C-4.97076 17.2631 6.21417 17.1334 8.31187 20.1741C8.47277 21.4299 8.78847 22.6609 9.2515 23.8391L9.19475 20.4497C9.19475 20.4497 13.3902 22.1931 15.5041 24.5526L16.0548 27.8609L16.3626 24.7473C18.4978 25.8455 20.3383 27.4409 21.7293 29.3994C23.1204 31.3579 24.0213 33.6222 24.3564 36.0019L17.6097 37.0317Z" fill="#BFC34C"/>
<path d="M10.7013 36.3992L12.5236 34.7775L9.98865 35.637C8.32946 34.4011 6.76216 33.0461 5.29918 31.5827L8.29585 29.961L3.81696 30.2124C2.65167 29.0576 1.56909 27.8221 0.577276 26.5149L1.88134 26.2879L0.131977 25.8257C0.131977 25.8257 -0.467514 25.5176 -1.84438 21.9985C-3.22124 18.4794 -3.76378 17.9442 -4.97056 17.2631H-4.7924C2.78845 21.9498 24.3647 36.0019 24.3647 36.0019L17.5856 37.0317C17.5856 37.0317 13.1634 38.6615 10.7013 36.3992Z" fill="#A4AA01"/>
<path d="M24.2268 35.6288C24.2268 35.6288 22.8175 28.8177 28.4059 26.2716L34.0024 23.7255L33.0792 26.2959L36.2378 23.239C38.9737 22.018 42.07 21.879 44.9041 22.8498L43.2194 24.5526C43.2194 24.5526 49.2533 21.3092 52.8574 27.3662L51.3186 27.6987L53.1247 28.6393C54.3044 30.8011 55.2675 33.0744 56 35.4261C56 35.4261 49.0104 30.561 47.0909 31.2827L44.8879 29.0852L45.9812 31.5178C45.9812 31.5178 41.6238 32.7989 39.4613 34.3071C37.1206 35.9532 29.6128 39.8615 24.2268 35.6288Z" fill="#A4AA01"/>
<path d="M32.5691 31.0637C29.9755 32.8368 27.2701 34.4402 24.4699 35.864L24.219 35.6288C24.219 35.6288 22.8097 28.8177 28.3981 26.2716L33.9946 23.7255L33.0714 26.2959L36.23 23.239C38.9659 22.018 42.0622 21.879 44.8963 22.8498L43.2116 24.5526C43.2116 24.5526 49.2454 21.3092 52.8496 27.3662L51.3108 27.6987L53.1169 28.6393C54.2966 30.8011 55.2597 33.0744 55.9922 35.4261C55.9922 35.4261 48.8567 20.2956 32.5691 31.0637Z" fill="#BFC34C"/>
<path d="M196.577 86.03H89.4238V88.823H196.577V86.03Z" fill="#CE800C"/>
<path d="M196.577 87.4261H89.4238V88.8227H196.577V87.4261Z" fill="#5F3D30"/>
<path d="M236 88.8223H50V93.9854H236V88.8223Z" fill="#CE800C"/>
<path d="M236 91.4184H50V93.9998H236V91.4184Z" fill="#5F3D30"/>
<path d="M66.0671 20.8576H55.2856V28.5598H66.0671V20.8576Z" fill="#FFC578"/>
<path d="M66.0671 20.8576H55.2856V21.4783H66.0671V20.8576Z" fill="#E09F34"/>
<path d="M66.0671 27.9246H55.2856V28.5453H66.0671V27.9246Z" fill="#E09F34"/>
<path d="M66.5294 29.4909H54.8091V52.809H66.5294V29.4909Z" fill="#FFC578"/>
<g style="mix-blend-mode:multiply" opacity="0.5">
<path d="M66.5294 29.4909H54.8091V30.1116H66.5294V29.4909Z" fill="#E09F34"/>
</g>
<path d="M66.5294 52.1736H54.8091V52.7943H66.5294V52.1736Z" fill="#E09F34"/>
<path d="M67.329 53.7255H54.0103V93.9855H67.329V53.7255Z" fill="#FFC578"/>
<path d="M67.329 53.7255H54.0103V54.3462H67.329V53.7255Z" fill="#E09F34"/>
<path d="M67.329 93.3794H54.0103V94H67.329V93.3794Z" fill="#E09F34"/>
<path d="M60.823 6.86401H60.5146V8.72608H60.823V6.86401Z" fill="#CE800C"/>
<path d="M60.9914 8.55638H60.4448V9.13471H60.9914V8.55638Z" fill="#FFC578"/>
<path d="M67.0059 19.9125H54.332V20.8435H67.0059V19.9125Z" fill="#D87A00"/>
<path d="M67.0059 20.3919H54.332V20.8575H67.0059V20.3919Z" fill="#E09F34"/>
<path d="M66.8244 13.6774C66.0533 12.3937 60.7257 8.86703 60.7257 8.86703C60.7257 8.86703 55.398 12.3937 54.6129 13.6774C54.1483 14.6608 53.9321 15.7443 53.9835 16.832C54.0348 17.9197 54.3524 18.9778 54.9076 19.9125H66.5438C67.0968 18.9766 67.4118 17.9179 67.4607 16.8303C67.5096 15.7426 67.2912 14.6597 66.8244 13.6774Z" fill="#FFC578"/>
<path d="M66.8238 13.6773C66.6558 13.424 66.4579 13.1918 66.2347 12.986C66.1931 13.9117 65.9446 14.816 65.5077 15.6318C65.0708 16.4475 64.4566 17.1536 63.7111 17.6976C61.1595 19.602 56.9538 18.8825 54.0938 17.9233C54.2206 18.6371 54.4979 19.3154 54.907 19.9124H66.5431C67.0961 18.9765 67.4112 17.9178 67.4601 16.8302C67.509 15.7425 67.2906 14.6596 66.8238 13.6773Z" fill="#E09F34"/>
<path d="M67.4687 28.5597H53.8833V29.4907H67.4687V28.5597Z" fill="#D87A00"/>
<path d="M67.4687 29.0253H53.8833V29.4908H67.4687V29.0253Z" fill="#E09F34"/>
<path d="M68.3801 52.7949H52.9443V53.7259H68.3801V52.7949Z" fill="#D87A00"/>
<path d="M68.3801 53.2599H52.9443V53.7253H68.3801V53.2599Z" fill="#E09F34"/>
<path d="M80.9839 37.8983H72.7124V43.809H80.9839V37.8983Z" fill="#FFC578"/>
<path d="M80.9839 37.8983H72.7124V38.3779H80.9839V37.8983Z" fill="#E09F34"/>
<path d="M80.9839 43.3288H72.7124V43.8085H80.9839V43.3288Z" fill="#E09F34"/>
<path d="M81.3347 44.5142H72.3481V62.3872H81.3347V44.5142Z" fill="#FFC578"/>
<g style="mix-blend-mode:multiply" opacity="0.5">
<path d="M81.3347 44.5142H72.3481V44.9938H81.3347V44.5142Z" fill="#E09F34"/>
</g>
<path d="M81.3347 61.9214H72.3481V62.4011H81.3347V61.9214Z" fill="#E09F34"/>
<path d="M81.9506 63.1206H71.7305V93.9997H81.9506V63.1206Z" fill="#FFC578"/>
<path d="M81.9506 63.1206H71.7305V63.6002H81.9506V63.1206Z" fill="#E09F34"/>
<path d="M81.9506 93.5199H71.7305V93.9995H81.9506V93.5199Z" fill="#E09F34"/>
<path d="M76.9602 27.1628H76.7217V28.5875H76.9602V27.1628Z" fill="#CE800C"/>
<path d="M77.1008 28.4612H76.6802V28.8985H77.1008V28.4612Z" fill="#FFC578"/>
<path d="M81.699 37.1786H71.9834V37.898H81.699V37.1786Z" fill="#D87A00"/>
<path d="M81.699 37.5457H71.9834V37.8983H81.699V37.5457Z" fill="#E09F34"/>
<path d="M81.5585 32.3968C80.1304 31.0035 78.5611 29.7647 76.8761 28.7009C75.1936 29.7682 73.6243 31.0067 72.1934 32.3968C71.8384 33.1513 71.6731 33.9821 71.7122 34.816C71.7513 35.6499 71.9939 36.4614 72.4179 37.1789H81.3484C81.7714 36.4606 82.012 35.6485 82.0487 34.8144C82.0853 33.9802 81.9169 33.1498 81.5585 32.3968Z" fill="#FFC578"/>
<path d="M81.558 32.3968C81.4354 32.2011 81.2844 32.0251 81.1096 31.8748C81.0775 32.5824 80.8867 33.2735 80.5517 33.8965C80.2166 34.5194 79.7458 35.058 79.1747 35.472C77.226 36.8826 73.9874 36.3889 71.8003 35.6413C71.8975 36.1914 72.1078 36.7151 72.4174 37.1789H81.3478C81.7709 36.4606 82.0114 35.6485 82.0481 34.8144C82.0848 33.9802 81.9163 33.1498 81.558 32.3968Z" fill="#E09F34"/>
<path d="M82.0494 43.8089H71.6328V44.5283H82.0494V43.8089Z" fill="#D87A00"/>
<path d="M82.0494 44.1616H71.6328V44.5142H82.0494V44.1616Z" fill="#E09F34"/>
<path d="M82.7641 62.4015H70.9175V63.121H82.7641V62.4015Z" fill="#D87A00"/>
<path d="M82.7641 62.7542H70.9175V63.1069H82.7641V62.7542Z" fill="#E09F34"/>
<path d="M161.009 45.9387H124.88V86.0294H161.009V45.9387Z" fill="#FFC578"/>
<path d="M161.009 45.9387H124.88V47.8006H161.009V45.9387Z" fill="#E09F34"/>
<path d="M156.396 50.608H129.521V86.0294H156.396V50.608Z" fill="#5F3D30"/>
<path d="M155.457 51.5392H130.445V86.0297H155.457V51.5392Z" fill="#CE800C"/>
<path d="M149.288 58.9595C145.405 57.309 144.199 56.1381 143.302 54.8544C142.419 56.1804 141.283 57.1115 137.498 58.9595C133.222 61.019 133.222 64.2635 133.222 64.2635V86.0299H153.578V64.2635C153.4 63.0743 152.907 61.9551 152.153 61.0222C151.398 60.0894 150.409 59.3771 149.288 58.9595Z" fill="#5F3D30"/>
<g style="mix-blend-mode:multiply">
<path d="M147.704 65.5184C144.802 64.2206 143.932 63.4307 143.273 62.4291C142.6 63.4307 141.955 64.2347 139.067 65.5184C135.787 66.9291 136.011 69.5105 136.011 69.5105V86.0293H150.774V69.5105C150.69 68.6211 150.356 67.774 149.813 67.0674C149.269 66.3608 148.538 65.8238 147.704 65.5184Z" fill="#E1E1DA"/>
</g>
<path d="M143.414 4H142.489V9.60033H143.414V4Z" fill="#CE800C"/>
<path d="M143.919 9.0647H142.292V10.7857H143.919V9.0647Z" fill="#FFC578"/>
<path d="M161.933 43.1456H123.954V45.9387H161.933V43.1456Z" fill="#CE800C"/>
<path d="M161.933 44.5425H123.954V45.9391H161.933V44.5425Z" fill="#5F3D30"/>
<path d="M161.401 24.4122C159.074 20.5752 143.091 9.99527 143.091 9.99527C143.091 9.99527 127.123 20.5752 124.795 24.4122C122.468 28.2491 121.725 37.5594 125.651 43.1456H160.588C164.471 37.5594 163.742 28.2633 161.401 24.4122Z" fill="#FFC578"/>
<path d="M161.401 24.4125C160.89 23.6669 160.292 22.9851 159.621 22.3812C159.504 25.1546 158.764 27.8653 157.455 30.3089C156.146 32.7524 154.302 34.8652 152.064 36.4877C144.437 42.2149 131.791 40.0566 123.253 37.1648C123.618 39.3125 124.435 41.3567 125.651 43.1601H160.588C164.471 37.5598 163.742 28.2636 161.401 24.4125Z" fill="#E09F34"/>
<path d="M121.641 41.157H109.584V48.8591H121.641V41.157Z" fill="#FFC578"/>
<path d="M121.641 41.157H109.584V41.7777H121.641V41.157Z" fill="#E09F34"/>
<path d="M121.641 48.2385H109.584V48.8591H121.641V48.2385Z" fill="#E09F34"/>
<path d="M111.196 43.0753C111.511 42.9152 111.766 42.6582 111.925 42.3418C112.057 42.6631 112.301 42.9243 112.612 43.0753C112.771 43.1787 112.9 43.3211 112.989 43.489C113.077 43.6568 113.121 43.8446 113.117 44.0346V47.6882H110.706V44.0346C110.7 43.846 110.742 43.659 110.828 43.4912C110.914 43.3234 111.041 43.1803 111.196 43.0753Z" fill="#CE800C"/>
<path d="M111.337 44.204C111.586 44.0794 111.788 43.8764 111.911 43.6257C112.028 43.8766 112.226 44.0804 112.472 44.204C112.597 44.2834 112.701 44.3938 112.772 44.5246C112.843 44.6555 112.88 44.8025 112.879 44.9517V47.6884H110.944V45.0222C110.933 44.8633 110.964 44.7043 111.032 44.5608C111.101 44.4173 111.206 44.2943 111.337 44.204Z" fill="#5F3D30"/>
<path d="M114.884 43.0753C115.201 42.9194 115.458 42.6612 115.613 42.3418C115.754 42.6612 116.002 42.9208 116.314 43.0753C116.472 43.1787 116.602 43.3211 116.69 43.489C116.778 43.6568 116.823 43.8446 116.819 44.0346V47.6882H114.393V44.0346C114.391 43.8466 114.435 43.661 114.52 43.4939C114.606 43.3267 114.731 43.1831 114.884 43.0753Z" fill="#CE800C"/>
<path d="M115.038 44.204C115.282 44.0726 115.482 43.8713 115.612 43.6257C115.723 43.8763 115.916 44.0806 116.159 44.204C116.285 44.2834 116.388 44.3938 116.459 44.5246C116.53 44.6555 116.567 44.8025 116.566 44.9517V47.6884H114.631V45.0222C114.622 44.8619 114.654 44.7021 114.726 44.5585C114.797 44.4149 114.905 44.2926 115.038 44.204Z" fill="#5F3D30"/>
<path d="M118.529 43.0753C118.843 42.9152 119.099 42.6582 119.258 42.3418C119.397 42.6583 119.639 42.9172 119.945 43.0753C120.106 43.1756 120.238 43.3173 120.327 43.4859C120.416 43.6546 120.458 43.844 120.45 44.0346V47.6882H118.038V44.0346C118.032 43.846 118.075 43.659 118.161 43.4912C118.246 43.3234 118.373 43.1803 118.529 43.0753Z" fill="#CE800C"/>
<path d="M118.725 44.204C118.974 44.0794 119.176 43.8764 119.3 43.6257C119.417 43.8766 119.614 44.0804 119.861 44.204C119.986 44.2834 120.089 44.3938 120.16 44.5246C120.232 44.6555 120.269 44.8025 120.267 44.9517V47.6884H118.333V45.0222C118.322 44.8633 118.352 44.7043 118.421 44.5608C118.49 44.4173 118.595 44.2943 118.725 44.204Z" fill="#5F3D30"/>
<path d="M115.767 27.1628H115.459V29.0248H115.767V27.1628Z" fill="#CE800C"/>
<path d="M115.935 28.8559H115.388V29.4343H115.935V28.8559Z" fill="#FFC578"/>
<path d="M121.95 40.2258H109.276V41.1569H121.95V40.2258Z" fill="#CE800C"/>
<path d="M121.95 40.6914H109.276V41.1569H121.95V40.6914Z" fill="#5F3D30"/>
<path d="M121.767 33.9768C120.996 32.6931 115.668 29.1665 115.668 29.1665C115.668 29.1665 110.341 32.6931 109.556 33.9768C109.091 34.9627 108.875 36.0485 108.926 37.1384C108.977 38.2283 109.295 39.2887 109.85 40.226H121.486C122.04 39.2875 122.354 38.2266 122.403 37.1367C122.452 36.0468 122.234 34.9615 121.767 33.9768Z" fill="#FFC578"/>
<path d="M121.767 33.9764C121.598 33.7279 121.401 33.5006 121.178 33.2993C121.137 34.223 120.888 35.1252 120.451 35.9386C120.014 36.7521 119.4 37.4557 118.655 37.9968C116.117 39.9011 111.897 39.1958 109.051 38.2224C109.167 38.9414 109.44 39.6255 109.85 40.2255H121.487C122.04 39.2871 122.355 38.2262 122.404 37.1363C122.452 36.0464 122.234 34.9611 121.767 33.9764Z" fill="#E09F34"/>
<path d="M124.894 48.8591H108.14V86.0299H124.894V48.8591Z" fill="#FFC578"/>
<path d="M124.88 48.8591H123.127V86.0299H124.88V48.8591Z" fill="#E09F34"/>
<path d="M112.92 53.1191C114.039 52.7671 115.019 52.0715 115.724 51.1301C116.145 51.779 116.537 52.2868 118.402 53.1191C118.954 53.278 119.439 53.6128 119.786 54.0732C120.132 54.5337 120.321 55.0949 120.323 55.6724V65.4059H111.056V55.6724C111.077 55.1078 111.266 54.5627 111.598 54.1075C111.931 53.6523 112.391 53.3079 112.92 53.1191Z" fill="#CE800C"/>
<path d="M113.468 56.124C114.347 55.8474 115.117 55.2996 115.669 54.5582C116.187 55.3097 116.944 55.8618 117.814 56.124C118.249 56.253 118.633 56.5155 118.912 56.8746C119.191 57.2338 119.351 57.6717 119.371 58.1271V65.4061H111.954V58.1271C111.977 57.6786 112.133 57.2474 112.403 56.89C112.673 56.5325 113.044 56.2656 113.468 56.124Z" fill="#5F3D30"/>
<path d="M121.221 65.4061H110.103V67.2681H121.221V65.4061Z" fill="#CE800C"/>
<path d="M121.221 66.3366H110.103V67.2677H121.221V66.3366Z" fill="#5F3D30"/>
<path d="M112.92 73.743C114.039 73.391 115.019 72.6955 115.724 71.754C116.145 72.4029 116.537 72.9107 118.402 73.743C118.955 73.9046 119.441 74.2421 119.787 74.705C120.133 75.1678 120.321 75.7311 120.323 76.3104V86.0298H111.056V76.3104C111.074 75.7434 111.262 75.1952 111.594 74.7372C111.927 74.2792 112.389 73.9327 112.92 73.743Z" fill="#CE800C"/>
<path d="M113.468 76.7472C114.347 76.4706 115.117 75.9228 115.669 75.1814C116.187 75.9329 116.944 76.485 117.814 76.7472C118.251 76.877 118.636 77.1416 118.915 77.5035C119.195 77.8655 119.354 78.3065 119.371 78.7645V86.0293H111.954V78.7645C111.974 78.3135 112.129 77.8792 112.399 77.519C112.67 77.1588 113.042 76.8896 113.468 76.7472Z" fill="#5F3D30"/>
<path d="M108.14 48.8591H91.3862V86.0299H108.14V48.8591Z" fill="#E09F34"/>
<path d="M108.14 48.8591H106.388V86.0299H108.14V48.8591Z" fill="#5F3D30"/>
<path d="M96.4619 53.1191C97.5801 52.7671 98.5607 52.0715 99.2659 51.1301C99.6864 51.779 100.065 52.2868 101.944 53.1191C102.495 53.278 102.981 53.6128 103.327 54.0732C103.674 54.5337 103.862 55.0949 103.864 55.6724V65.4059H94.5972V55.6724C94.6182 55.1078 94.8072 54.5627 95.1397 54.1075C95.4721 53.6523 95.9328 53.3079 96.4619 53.1191Z" fill="#CE800C"/>
<path d="M97.0222 56.124C97.901 55.8474 98.6711 55.2996 99.2234 54.5582C99.7414 55.3097 100.498 55.8618 101.368 56.124C101.803 56.253 102.187 56.5155 102.466 56.8746C102.745 57.2338 102.905 57.6717 102.925 58.1271V65.4061H95.5083V58.1271C95.5307 57.6786 95.6872 57.2474 95.9574 56.89C96.2276 56.5325 96.5986 56.2656 97.0222 56.124Z" fill="#5F3D30"/>
<path d="M104.775 65.4061H93.6577V67.2681H104.775V65.4061Z" fill="#CE800C"/>
<path d="M104.775 66.3366H93.6577V67.2677H104.775V66.3366Z" fill="#5F3D30"/>
<path d="M96.4619 73.743C97.5801 73.391 98.5607 72.6955 99.2659 71.754C99.6864 72.4029 100.065 72.9107 101.944 73.743C102.496 73.9046 102.982 74.2421 103.329 74.705C103.675 75.1678 103.863 75.7311 103.864 76.3104V86.0298H94.5972V76.3104C94.6154 75.7434 94.8033 75.1952 95.1359 74.7372C95.4685 74.2792 95.9306 73.9327 96.4619 73.743Z" fill="#CE800C"/>
<path d="M97.0222 76.7472C97.901 76.4706 98.6711 75.9228 99.2234 75.1814C99.7414 75.9329 100.498 76.485 101.368 76.7472C101.805 76.877 102.19 77.1416 102.47 77.5035C102.749 77.8655 102.908 78.3065 102.925 78.7645V86.0293H95.5083V78.7645C95.528 78.3135 95.6832 77.8792 95.9536 77.519C96.224 77.1588 96.5965 76.8896 97.0222 76.7472Z" fill="#5F3D30"/>
<path d="M53.0056 91.3375C53.8345 91.1521 55.5227 90.152 55.8428 89.3506C55.1831 89.1388 54.507 88.9804 53.821 88.877C53.3931 88.877 53.7402 89.6155 53.5279 90.0626C53.3392 90.4566 53.2313 91.1388 52.8843 91.4568" fill="#87A0D1"/>
<path d="M47.6987 91.5859C47.9244 92.1161 48.0795 92.6726 48.1603 93.2418C48.1493 93.5999 48.102 93.956 48.0188 94.3048C47.9817 94.3975 47.5773 94.3246 47.3179 94.6823C47.6467 94.7929 48.0047 94.7858 48.3287 94.6624C48.6657 94.5035 48.6826 93.4504 48.8443 93.0298C49.2183 91.927 49.2722 90.5064 47.6649 91.5065" fill="#FFB14A"/>
<path d="M49.205 91.8242C49.4308 92.3544 49.5859 92.9109 49.6666 93.4801C49.6557 93.8392 49.6083 94.1965 49.5251 94.5464C49.4881 94.6358 49.0837 94.5663 48.8242 94.9206C49.1528 95.0329 49.5114 95.0259 49.8351 94.9007C50.1552 94.7451 50.1721 93.692 50.3506 93.2714C50.7247 92.1653 50.7786 90.7447 49.1713 91.7448" fill="#FFB14A"/>
<path d="M47.7188 87.6418C46.923 83.0928 46.431 78.4975 46.2462 73.8853C46.2126 73.1766 46.2463 70.4147 47.3717 70.2425C48.0153 70.1631 48.2545 71.1102 48.5746 71.5076C49.3799 69.769 50.2088 69.5206 51.0108 71.4811C51.7622 70.1564 53.6357 70.0074 53.5548 71.9778C54.3838 70.322 56.5875 70.9016 55.8833 72.9514C57.4906 71.9282 58.4509 73.7959 57.4906 75.0576C58.9867 74.0641 59.6841 76.1637 58.5317 77.4254C59.7919 77.2665 60.4861 79.1607 58.6934 80.3463C60.2738 80.1608 60.54 82.3697 58.8283 82.9956C60.0582 83.0486 60.3277 84.7309 58.5587 85.7839C59.9065 85.678 59.6572 88.3074 57.8107 88.1518C58.6126 90.2546 53.1539 89.1254 51.1456 88.6518C48.8172 88.0193 46.6473 89.8076 47.1291 86.9662" fill="#BFC34C"/>
<path d="M46.583 78.8031C46.9031 78.4487 47.4658 77.9354 47.7454 77.5414C48.0824 78.7634 49.0293 78.3693 49.5516 77.6175C49.7942 78.611 50.9566 78.7634 51.5194 77.8957C51.762 78.7634 52.0821 79.5515 53.0458 78.6441C53.0862 78.6839 53.0863 78.6044 53.0863 78.6044C53.2076 79.2667 53.6861 80.2602 54.5318 79.79C54.5318 80.4523 54.7306 81.4855 55.6538 80.8132C55.7347 81.3663 55.8156 82.1578 56.5771 82.0385C56.2165 82.8664 55.6538 83.8136 57.0994 83.6944C56.8197 84.1679 55.8156 85.5886 56.5367 86.0125C56.2166 86.486 55.9773 87.3537 56.257 87.5524C55.6134 87.8836 55.3742 88.6187 55.4551 89.3274C53.8478 88.7744 52.0855 88.6982 50.3569 88.579C49.5515 88.5392 48.9484 88.4598 48.47 87.7875C48.2273 87.4332 47.5871 87.1782 47.5062 86.7245C47.0299 84.1145 46.7081 81.4795 46.5425 78.8329" fill="#A4AA01"/>
<path d="M48.7836 86.8006C48.4466 84.3599 48.3017 81.8828 48.15 79.4223C48.0321 77.485 47.8839 75.5345 47.8805 73.5939C47.8742 73.546 47.8503 73.502 47.8134 73.4702C47.7765 73.4383 47.7291 73.4208 47.68 73.4208C47.6309 73.4208 47.5834 73.4383 47.5465 73.4702C47.5096 73.502 47.4858 73.546 47.4795 73.5939C47.4795 75.5808 47.6345 77.5512 47.7558 79.5217C47.9075 81.9822 48.0456 84.4626 48.396 86.9032C48.4331 87.1549 48.8173 87.049 48.7836 86.8006Z" fill="#A4AA01"/>
<path d="M50.0202 86.7345C49.8282 84.3567 49.8484 81.9558 49.8416 79.5714C49.8416 77.5414 49.8416 75.5081 49.8619 73.4748C49.8619 73.4221 49.8405 73.3715 49.8026 73.3343C49.7647 73.297 49.7133 73.276 49.6597 73.276C49.606 73.276 49.5547 73.297 49.5168 73.3343C49.4788 73.3715 49.4575 73.4221 49.4575 73.4748C49.4575 75.5081 49.4339 77.5414 49.4407 79.5714C49.4407 81.9558 49.4238 84.3567 49.6193 86.7345C49.6395 86.9861 50.0404 86.9861 50.0202 86.7345Z" fill="#A4AA01"/>
<path d="M51.038 86.89C51.3076 84.3699 51.4727 81.8365 51.6547 79.3097C51.7962 77.3526 51.8568 75.3689 52.1095 73.4217C52.1432 73.17 51.7389 73.1733 51.7085 73.4217C51.4558 75.3689 51.3952 77.3526 51.2537 79.3097C51.0717 81.8365 50.9167 84.3699 50.637 86.89C50.6101 87.145 51.011 87.1417 51.038 86.89Z" fill="#A4AA01"/>
<path d="M52.271 86.7345C52.2851 85.9697 52.3652 85.2075 52.5103 84.4561C52.6957 83.1314 52.9079 81.8267 53.1269 80.5119C53.3459 79.1972 53.5818 77.8395 53.8278 76.5082C53.9862 75.6737 54.1244 74.8226 54.3501 74.0013C54.3585 73.9528 54.3483 73.903 54.3215 73.8615C54.2947 73.82 54.2532 73.7897 54.205 73.7765C54.1568 73.7633 54.1053 73.7682 54.0605 73.7901C54.0158 73.8121 53.9808 73.8496 53.9626 73.8953C53.7435 74.6934 53.6088 75.518 53.4538 76.3327C53.201 77.6871 52.9652 79.0482 52.7394 80.406C52.5137 81.7637 52.3014 83.0818 52.1127 84.423C51.9648 85.1875 51.8826 85.963 51.8667 86.7411C51.8667 86.9928 52.2778 86.9961 52.271 86.7411V86.7345Z" fill="#9DAC2D"/>
<path d="M52.9047 87.3636C53.7066 83.1413 55.1556 79.0547 56.2237 74.8953C56.2321 74.8469 56.2219 74.7971 56.1951 74.7555C56.1683 74.714 56.1268 74.6837 56.0786 74.6705C56.0304 74.6574 55.9789 74.6622 55.9342 74.6842C55.8894 74.7061 55.8545 74.7436 55.8362 74.7894C54.768 78.9521 53.3225 83.0386 52.5172 87.2609C52.47 87.5093 52.8541 87.6153 52.9047 87.3636Z" fill="#A4AA01"/>
<path d="M57.2816 76.6837C57.103 77.2798 56.8267 77.8593 56.5908 78.4322C56.146 79.5118 55.6911 80.5881 55.243 81.6644C54.4815 83.4791 53.6391 85.3071 53.0022 87.155C52.9214 87.3968 53.3088 87.4862 53.3897 87.261C54.0266 85.3966 54.869 83.5851 55.6305 81.767C56.0798 80.6918 56.5291 79.6156 56.9784 78.5382C57.2142 77.962 57.4905 77.3858 57.6691 76.7897C57.6775 76.7412 57.6673 76.6914 57.6405 76.6498C57.6137 76.6083 57.5722 76.578 57.524 76.5648C57.4758 76.5517 57.4243 76.5565 57.3796 76.5785C57.3348 76.6004 57.2999 76.6379 57.2816 76.6837Z" fill="#A4AA01"/>
<path d="M57.7296 79.6907C56.2706 82.2075 54.8924 84.7707 53.3929 87.2644C53.3794 87.3069 53.3809 87.3526 53.3971 87.3943C53.4132 87.4359 53.4431 87.471 53.482 87.4939C53.5208 87.5168 53.5664 87.5263 53.6114 87.5207C53.6563 87.5151 53.6981 87.4948 53.7299 87.4631C55.2294 84.9694 56.6042 82.4062 58.0666 79.8894C58.0801 79.8469 58.0786 79.8011 58.0625 79.7595C58.0463 79.7178 58.0164 79.6827 57.9776 79.6598C57.9387 79.6369 57.8931 79.6275 57.8482 79.6331C57.8032 79.6387 57.7615 79.659 57.7296 79.6907Z" fill="#A4AA01"/>
<path d="M58.0399 82.0055C56.7602 83.8718 55.3765 85.6672 53.8953 87.3835C53.7336 87.5789 54.0133 87.8604 54.1784 87.6617C55.6827 85.9211 57.0867 84.0991 58.3836 82.2042C58.5251 81.9889 58.1781 81.7902 58.0467 82.0055H58.0399Z" fill="#A4AA01"/>
<path d="M57.6558 85.0687C56.6449 85.9794 55.5228 86.7245 54.4951 87.5921C54.2996 87.761 54.5861 88.0392 54.7815 87.8736C55.7924 86.9993 56.9447 86.2575 57.9388 85.3468C58.1275 85.1746 57.8445 84.8965 57.6558 85.0687Z" fill="#A4AA01"/>
<path d="M54.3705 88.3505C55.3814 88.2213 56.2911 87.8041 57.2615 87.5557C57.3081 87.5377 57.3463 87.5034 57.3686 87.4594C57.391 87.4154 57.3959 87.3648 57.3825 87.3175C57.3691 87.2701 57.3383 87.2293 57.296 87.2029C57.2538 87.1766 57.2031 87.1666 57.1538 87.1749C56.2204 87.4133 55.3342 87.8372 54.3705 87.9564C54.1178 87.9895 54.1144 88.3836 54.3705 88.3505Z" fill="#A4AA01"/>
<path d="M47.5269 74.3887C47.1899 73.776 46.27 69.6034 48.376 71.1896C49.3397 71.9579 48.0391 73.9747 47.6347 74.5377" fill="#A4AA01"/>
<path d="M47.5603 73.5542C47.2234 72.9449 46.3001 68.7689 48.4061 70.3585C49.3698 71.1235 48.086 73.1436 47.6648 73.7032" fill="#FFB14A"/>
<path d="M48.4029 71.1466C48.4223 71.2704 48.391 71.3968 48.3158 71.4979C48.2407 71.5991 48.1278 71.6669 48.0019 71.6864C47.9077 71.7011 47.8112 71.6879 47.7246 71.6486C47.638 71.6093 47.5652 71.5456 47.5155 71.4656C47.4658 71.3856 47.4413 71.2929 47.4452 71.1992C47.4491 71.1056 47.4813 71.0152 47.5375 70.9395C47.5938 70.8637 47.6715 70.8061 47.7611 70.7739C47.8507 70.7417 47.9481 70.7364 48.0407 70.7586C48.1334 70.7808 48.2173 70.8295 48.2818 70.8986C48.3463 70.9676 48.3884 71.054 48.4029 71.1466Z" fill="#D05663"/>
<path d="M44.0662 81.6841C42.0444 81.8398 42.4319 80.29 42.0444 78.7898C43.891 77.8427 45.077 78.3957 45.3904 80.2105C45.7914 82.1974 45.2017 84.3666 46.0879 86.3403C46.4889 87.1284 47.7458 86.1283 48.4702 86.6019C48.8072 86.8403 48.8442 87.5755 49.0834 87.8901C49.727 88.8372 48.5747 91.0726 49.2183 92.1952C46.2463 92.3542 45.1276 91.5031 43.2777 89.1452C42.287 87.8802 45.2994 84.2506 44.0527 81.7272" fill="#87A0D1"/>
<path d="M53.1067 86.2541C51.1254 86.1647 47.3009 85.8965 46.1316 87.6649C44.3323 90.2281 46.9134 92.3012 49.2519 92.1985C50.6704 92.3045 54.0063 91.6355 54.1243 91.1189C54.1562 90.9872 54.14 90.8486 54.0784 90.7275C54.0168 90.6064 53.9137 90.5105 53.7873 90.4566C54.9936 90.1254 54.1883 89.377 54.1883 89.2445C54.2153 89.1684 56.1393 88.877 54.4309 87.9199C57.0525 87.4629 54.4545 86.3436 53.1067 86.2541Z" fill="#768BBF"/>
<path d="M42.9948 78.6574C42.4753 78.5562 41.9958 78.3119 41.6122 77.9531C41.2286 77.5942 40.9566 77.1356 40.8281 76.6307C40.7809 76.3823 40.6124 76.4353 40.6596 76.6837C40.7748 77.2442 41.0631 77.7562 41.4852 78.1497C41.9074 78.5432 42.4427 78.7992 43.0183 78.8826C43.2744 78.9091 43.3553 78.7137 43.0992 78.6839L42.9948 78.6574Z" fill="#421C18"/>
<path d="M40.9089 76.7103C40.5719 76.8692 39.7026 76.7897 40.1036 76.1605C40.5046 75.4485 41.3098 76.081 40.9089 76.7103Z" fill="#768BBF"/>
<path d="M42.7826 78.578C42.2569 78.2468 41.9469 77.452 42.2737 76.8957C42.4018 76.6738 42.2535 76.548 42.1255 76.7699C42.0264 76.937 41.9621 77.1217 41.9362 77.3135C41.9104 77.5052 41.9235 77.7001 41.975 77.8868C42.0264 78.0735 42.1149 78.2483 42.2357 78.4011C42.3564 78.5538 42.5067 78.6815 42.6781 78.7767C42.8971 78.9191 43.1027 78.7767 42.887 78.631L42.7826 78.578Z" fill="#421C18"/>
<path d="M42.3511 76.8955C42.0579 76.7896 41.603 76.6306 42.0849 76.1603C42.4858 75.7629 43.4327 76.7101 42.3781 76.869" fill="#768BBF"/>
<path d="M42.486 80.1575C41.2831 80.4721 40.6933 81.6047 41.5762 82.7074C42.1389 82.0782 42.9409 81.9988 43.6654 81.6047C43.6384 80.9192 43.1296 80.4721 42.486 80.1575Z" fill="#FFB14A"/>
<path d="M44.3628 80.1773C44.3549 80.2497 44.3202 80.3166 44.2651 80.3653C44.21 80.4139 44.1386 80.4409 44.0645 80.4409C43.9905 80.4409 43.9191 80.4139 43.8641 80.3653C43.809 80.3166 43.7742 80.2497 43.7663 80.1773C43.7619 80.1362 43.7663 80.0947 43.7792 80.0553C43.7922 80.016 43.8135 79.9798 43.8416 79.9491C43.8697 79.9183 43.9041 79.8937 43.9425 79.8769C43.981 79.8601 44.0225 79.8514 44.0645 79.8514C44.1066 79.8514 44.1482 79.8601 44.1866 79.8769C44.225 79.8937 44.2594 79.9183 44.2876 79.9491C44.3157 79.9798 44.337 80.016 44.3499 80.0553C44.3629 80.0947 44.3672 80.1362 44.3628 80.1773Z" fill="#421C18"/>
<path d="M49.535 74.4417C49.198 73.829 48.2747 69.6564 50.3807 71.2427C51.3444 72.0076 50.0606 74.0277 49.6428 74.5907" fill="#A4AA01"/>
<path d="M49.5655 73.6104C49.2285 73.0011 48.3086 68.8252 50.4146 70.4148C51.3783 71.1797 50.0776 73.1998 49.6732 73.7595" fill="#FFB14A"/>
<path d="M50.4114 71.1997C50.4257 71.2923 50.4116 71.3869 50.3711 71.4717C50.3306 71.5564 50.2655 71.6275 50.184 71.6759C50.1024 71.7242 50.0081 71.7478 49.9129 71.7435C49.8177 71.7392 49.726 71.7073 49.6492 71.6518C49.5725 71.5963 49.5143 71.5197 49.4819 71.4316C49.4495 71.3436 49.4443 71.2481 49.4671 71.1572C49.4899 71.0663 49.5395 70.984 49.6098 70.9209C49.6802 70.8577 49.768 70.8164 49.8621 70.8023C49.9248 70.7929 49.9887 70.7957 50.0502 70.8106C50.1117 70.8255 50.1696 70.8522 50.2207 70.8891C50.2717 70.926 50.3148 70.9724 50.3475 71.0257C50.3802 71.079 50.402 71.1381 50.4114 71.1997Z" fill="#D05663"/>
<path d="M51.7186 74.6404C51.4187 74.031 50.7886 69.9412 52.7295 71.6003C53.6157 72.3951 52.251 74.2728 51.813 74.7927" fill="#A4AA01"/>
<path d="M51.7992 73.8423C51.4993 73.2296 50.8692 69.1398 52.81 70.7989C53.6962 71.5937 52.3316 73.4747 51.8935 73.9913" fill="#FFB14A"/>
<path d="M52.7598 71.5672C52.7688 71.6579 52.7501 71.7492 52.7062 71.8295C52.6623 71.9098 52.5951 71.9755 52.5132 72.0182C52.4312 72.0609 52.3383 72.0788 52.246 72.0696C52.1538 72.0603 52.0663 72.0243 51.9949 71.9662C51.9234 71.9081 51.8712 71.8304 51.8447 71.7431C51.8182 71.6557 51.8187 71.5626 51.8462 71.4755C51.8736 71.3884 51.9267 71.3113 51.9988 71.254C52.0708 71.1966 52.1586 71.1615 52.251 71.1532C52.3742 71.1421 52.4969 71.1795 52.5922 71.257C52.6876 71.3346 52.7478 71.4461 52.7598 71.5672Z" fill="#D05663"/>
<path d="M53.8347 75.1106C53.582 74.4946 53.2316 70.4478 55.0276 72.1964C55.843 73.0309 54.384 74.786 53.919 75.2662" fill="#A4AA01"/>
<path d="M53.9661 74.3324C53.7134 73.7165 53.3629 69.6697 55.1589 71.4149C55.9744 72.2527 54.5153 74.0046 54.0503 74.4848" fill="#FFB14A"/>
<path d="M55.0579 72.1568C55.0605 72.2459 55.0362 72.3339 54.9879 72.4094C54.9397 72.4849 54.8697 72.5447 54.7868 72.5811C54.7039 72.6175 54.6119 72.6289 54.5224 72.6138C54.4329 72.5987 54.3501 72.5579 54.2842 72.4965C54.2184 72.435 54.1727 72.3558 54.1528 72.2688C54.1329 72.1817 54.1397 72.0908 54.1724 72.0076C54.2051 71.9244 54.2621 71.8526 54.3364 71.8013C54.4107 71.7501 54.4988 71.7216 54.5895 71.7196C54.7105 71.717 54.8276 71.7614 54.9154 71.8433C55.0031 71.9252 55.0543 72.0379 55.0579 72.1568Z" fill="#D05663"/>
<path d="M55.6476 75.9949C55.4758 75.4518 55.4657 71.9878 56.8675 73.594C57.5009 74.3623 56.1363 75.7532 55.7083 76.1307" fill="#A4AA01"/>
<path d="M55.8161 75.3391C55.6409 74.7993 55.6342 71.332 57.0359 72.9415C57.6694 73.7098 56.3047 75.1006 55.8768 75.4782" fill="#FFB14A"/>
<path d="M56.8976 73.5542C56.8918 73.6561 56.845 73.7516 56.7676 73.8196C56.6902 73.8876 56.5885 73.9226 56.4848 73.9169C56.3811 73.9112 56.284 73.8652 56.2148 73.7891C56.1456 73.7131 56.11 73.6131 56.1158 73.5112C56.1217 73.4093 56.1684 73.3139 56.2458 73.2459C56.2842 73.2122 56.3288 73.1863 56.3774 73.1696C56.4259 73.1529 56.4772 73.1458 56.5286 73.1486C56.5799 73.1514 56.6302 73.1641 56.6765 73.1861C56.7228 73.208 56.7643 73.2386 56.7986 73.2763C56.8328 73.314 56.8592 73.3579 56.8762 73.4056C56.8932 73.4533 56.9005 73.5038 56.8976 73.5542Z" fill="#D05663"/>
<path d="M57.1572 77.25C57.0493 76.7565 57.3189 73.69 58.4309 75.2233C58.9296 75.9518 57.6087 77.0778 57.201 77.3758" fill="#A4AA01"/>
<path d="M57.3657 76.6837C57.2545 76.1903 57.5274 73.1237 58.636 74.657C59.1381 75.3855 57.8173 76.5115 57.4062 76.8095" fill="#FFB14A"/>
<path d="M58.4574 75.21C58.4526 75.2549 58.4384 75.2983 58.4158 75.3377C58.3932 75.377 58.3627 75.4113 58.3261 75.4386C58.2894 75.4659 58.2475 75.4856 58.2029 75.4964C58.1583 75.5072 58.1119 75.5089 58.0666 75.5014C58.0212 75.4951 57.9775 75.4801 57.9381 75.4572C57.8986 75.4343 57.8642 75.404 57.8367 75.368C57.8091 75.332 57.7891 75.2911 57.7777 75.2475C57.7662 75.2039 57.7636 75.1585 57.77 75.1139C57.7764 75.0694 57.7917 75.0265 57.815 74.9877C57.8383 74.9489 57.8692 74.915 57.9058 74.888C57.9424 74.8609 57.9841 74.8412 58.0284 74.83C58.0728 74.8187 58.119 74.8162 58.1643 74.8225C58.2101 74.8277 58.2542 74.842 58.2941 74.8646C58.3339 74.8872 58.3687 74.9176 58.3961 74.9539C58.4236 74.9902 58.4433 75.0317 58.4538 75.0757C58.4643 75.1197 58.4656 75.1654 58.4574 75.21Z" fill="#D05663"/>
<path d="M57.7971 79.8893C57.6893 79.3959 57.9623 76.326 59.0709 77.8593C59.5695 78.5878 58.2486 79.7138 57.8409 80.0151" fill="#A4AA01"/>
<path d="M57.9995 79.3229C57.8883 78.8295 58.1612 75.7629 59.2732 77.2929C59.7719 78.0214 58.451 79.1474 58.04 79.4487" fill="#FFB14A"/>
<path d="M59.1014 77.836C59.0961 77.8809 59.0816 77.9244 59.0586 77.9636C59.0356 78.0028 59.0046 78.0369 58.9677 78.0639C58.9307 78.0909 58.8886 78.1102 58.8438 78.1205C58.799 78.1309 58.7525 78.1321 58.7071 78.1241C58.6424 78.1127 58.5825 78.0829 58.5348 78.0385C58.4871 77.994 58.4537 77.9368 58.4386 77.874C58.4236 77.8111 58.4276 77.7452 58.4501 77.6845C58.4727 77.6238 58.5128 77.571 58.5656 77.5324C58.6183 77.4938 58.6814 77.4713 58.747 77.4675C58.8127 77.4638 58.878 77.479 58.9349 77.5113C58.9919 77.5435 59.038 77.5915 59.0675 77.6492C59.0971 77.7069 59.1089 77.7718 59.1014 77.836Z" fill="#D05663"/>
<path d="M58.0396 82.1941C57.9958 81.6907 58.6597 78.6805 59.5627 80.3396C59.9637 81.1244 58.508 82.0782 58.0666 82.3265" fill="#A4AA01"/>
<path d="M58.3261 81.6577C58.2789 81.1543 58.9427 78.1441 59.8491 79.8032C60.2501 80.5881 58.7944 81.5418 58.3496 81.7902" fill="#FFB14A"/>
<path d="M59.6098 80.3197C59.5902 80.3814 59.5528 80.436 59.502 80.477C59.4512 80.518 59.3893 80.5435 59.324 80.5503C59.2586 80.5572 59.1927 80.5452 59.1343 80.5157C59.0758 80.4862 59.0274 80.4406 58.995 80.3844C58.9626 80.3282 58.9476 80.264 58.9519 80.1995C58.9562 80.1351 58.9795 80.0733 59.0191 80.0217C59.0586 79.9702 59.1126 79.9311 59.1745 79.9093C59.2363 79.8875 59.3033 79.884 59.3672 79.8991C59.412 79.9098 59.4541 79.9293 59.491 79.9566C59.5278 79.9839 59.5586 80.0183 59.5813 80.0577C59.604 80.0972 59.6183 80.1408 59.6232 80.1858C59.6281 80.2309 59.6235 80.2765 59.6098 80.3197Z" fill="#D05663"/>
<path d="M57.605 85.2342C57.6387 84.7606 58.69 82.0484 59.2898 83.7208C59.5526 84.5056 58.0565 85.1912 57.605 85.36" fill="#A4AA01"/>
<path d="M57.9385 84.7739C57.9688 84.297 59.0235 81.5848 59.6233 83.2572C59.8861 84.0453 58.3934 84.7275 57.9385 84.913" fill="#FFB14A"/>
<path d="M59.3269 83.7043C59.3013 83.7657 59.2575 83.8181 59.2012 83.8547C59.1449 83.8913 59.0787 83.9105 59.0112 83.9097C58.9437 83.9089 58.878 83.8882 58.8226 83.8503C58.7672 83.8124 58.7246 83.7589 58.7005 83.697C58.6764 83.635 58.6717 83.5673 58.6872 83.5028C58.7026 83.4382 58.7375 83.3796 58.7872 83.3347C58.8369 83.2898 58.8993 83.2607 58.9661 83.251C59.0328 83.2413 59.1011 83.2515 59.1618 83.2804C59.2391 83.3171 59.2992 83.3814 59.3299 83.4602C59.3606 83.539 59.3595 83.6263 59.3269 83.7043Z" fill="#D05663"/>
<path d="M57.0286 87.3438C57.251 86.9398 59.2728 84.9926 59.1178 86.6815C59.0234 87.4696 57.433 87.4763 56.9849 87.4465" fill="#A4AA01"/>
<path d="M57.5105 87.0721C57.7295 86.6681 59.7547 84.7209 59.5963 86.4098C59.5054 87.198 57.9115 87.2046 57.4634 87.1748" fill="#FFB14A"/>
<path d="M59.1552 86.6881C59.1243 86.7149 59.0883 86.7355 59.0494 86.7486C59.0104 86.7617 58.9692 86.767 58.9281 86.7642C58.887 86.7614 58.8469 86.7506 58.8101 86.7324C58.7732 86.7142 58.7405 86.689 58.7137 86.6583C58.6863 86.6277 58.6653 86.5921 58.6519 86.5535C58.6386 86.5149 58.6332 86.4741 58.636 86.4335C58.6388 86.3928 58.6498 86.3531 58.6684 86.3166C58.6869 86.2802 58.7127 86.2477 58.7441 86.2211C58.7749 86.1942 58.8108 86.1737 58.8498 86.1606C58.8888 86.1475 58.93 86.1422 58.9711 86.145C59.0122 86.1478 59.0524 86.1586 59.0892 86.1768C59.126 86.1949 59.1587 86.2202 59.1854 86.2509C59.2129 86.2815 59.2339 86.3171 59.2473 86.3557C59.2606 86.3942 59.266 86.4351 59.2632 86.4757C59.2603 86.5164 59.2494 86.5561 59.2308 86.5925C59.2123 86.629 59.1866 86.6614 59.1552 86.6881Z" fill="#D05663"/>
<path d="M55.9475 88.6154C56.3181 88.3372 58.9801 87.3702 58.1276 88.8538C57.7131 89.536 56.2676 88.9101 55.8599 88.6982" fill="#A4AA01"/>
<path d="M56.4963 88.5591C56.8636 88.2776 59.5289 87.3106 58.673 88.7975C58.2619 89.4797 56.8164 88.8538 56.4087 88.6386" fill="#FFB14A"/>
<path d="M58.1578 88.867C58.0985 88.8847 58.0351 88.8847 57.9758 88.867C57.9165 88.8493 57.8638 88.8148 57.8245 88.7677C57.7852 88.7206 57.761 88.6631 57.7549 88.6025C57.7489 88.5419 57.7612 88.4809 57.7904 88.4271C57.8196 88.3734 57.8644 88.3294 57.919 88.3007C57.9737 88.272 58.0358 88.2598 58.0975 88.2658C58.1592 88.2718 58.2176 88.2956 58.2655 88.3342C58.3135 88.3729 58.3487 88.4246 58.3667 88.4829C58.3786 88.5216 58.3827 88.5622 58.3787 88.6025C58.3746 88.6427 58.3625 88.6818 58.3431 88.7175C58.3237 88.7531 58.2974 88.7847 58.2656 88.8104C58.2338 88.8361 58.1972 88.8553 58.1578 88.867Z" fill="#D05663"/>
<path d="M53.8142 86.8769C53.3296 86.7164 52.8189 86.6456 52.308 86.6683C52.052 86.6683 52.0688 86.8703 52.3249 86.8703L52.3552 86.8537C52.703 86.8507 53.05 86.8863 53.3897 86.9597C53.6525 87.0193 54.4241 87.4332 54.1343 87.7313C53.8579 87.9272 53.5379 88.0555 53.201 88.1055C52.9415 88.1618 52.5675 88.1651 52.3047 88.1949C52.1295 88.2148 52.089 88.3075 52.2878 88.4036C52.5675 88.536 53.9355 88.7347 53.6356 89.2646C53.5346 89.4533 53.0932 89.5427 52.9146 89.556L52.0924 89.5957C51.9071 89.5957 51.87 89.6851 52.0621 89.7712C52.3114 89.8871 52.5979 89.9832 52.8438 90.1024C52.9988 90.1706 53.1266 90.287 53.2077 90.4336C53.2414 90.5428 52.9449 90.6853 52.8944 90.6985C52.378 90.8551 51.8409 90.9354 51.3006 90.9369C51.0411 90.9369 51.0411 91.1621 51.3006 91.1621C51.6641 91.1644 52.0274 91.1467 52.3889 91.1091C52.7259 91.0727 53.1774 91.0363 53.4234 90.778C53.8075 90.4038 53.3527 90.0362 52.9348 89.8044C53.3695 89.7746 53.912 89.7182 54.0299 89.3606C54.2153 88.7976 53.6357 88.5128 53.1673 88.334C53.6795 88.2777 54.3635 88.1552 54.4848 87.7412C54.6061 87.3273 54.131 86.9994 53.8142 86.8769Z" fill="#87A0D1"/>
<path d="M52.3117 86.8537C52.3488 86.602 52.1197 86.5987 52.0826 86.8537C51.9916 87.463 50.7348 87.3835 50.2765 87.4332C50.1013 87.4531 50.0306 87.5591 50.2361 87.6518C50.4956 87.7677 52.1635 88.0922 51.9209 88.5293C51.7996 88.7512 51.2099 88.8142 50.9774 88.844C50.6426 88.897 50.3013 88.897 49.9665 88.844C49.7138 88.7877 49.6902 88.9102 49.9328 88.993C50.1215 89.0559 51.84 89.248 51.6547 89.6553C51.5334 89.9302 50.8931 90.0361 50.6202 90.0527C50.2942 90.1024 49.9623 90.1024 49.6363 90.0527C49.3836 89.9898 49.3364 90.1388 49.5857 90.2083C49.8351 90.2779 50.0744 90.3242 50.3102 90.3971C50.3776 90.417 51.1728 90.7283 51.0515 90.97C50.9302 91.2118 50.3776 91.225 50.0878 91.235C49.7264 91.2665 49.3627 91.2598 49.0028 91.2151C48.7501 91.1621 48.6658 91.3542 48.932 91.4071C49.3765 91.4868 49.8297 91.508 50.2799 91.4701C50.6337 91.4469 51.1223 91.4072 51.3413 91.0892C51.5604 90.7713 51.1627 90.4269 50.91 90.2911C51.284 90.2547 51.7524 90.1818 51.968 89.8573C52.1837 89.5328 51.9243 89.248 51.5064 89.0526C51.6356 89.0324 51.7588 88.9849 51.8676 88.9134C51.9764 88.842 52.0681 88.7482 52.1365 88.6386C52.4398 88.0922 51.7996 87.8207 51.2335 87.6452C51.7794 87.5723 52.241 87.3603 52.3117 86.8537Z" fill="#87A0D1"/>
<path d="M49.9259 86.6847C49.4138 86.486 48.8107 86.6417 48.3019 86.7543C48.0761 86.8039 48.0222 86.9397 48.2816 86.9298C48.6453 86.9126 49.0076 86.8739 49.3666 86.8139C49.7036 86.7543 50.3775 87.102 49.9259 87.3338C49.3789 87.5505 48.7997 87.678 48.2109 87.7113C47.9952 87.7378 47.9683 87.8372 48.2109 87.9067C48.5054 87.9664 48.8037 88.0062 49.1038 88.0259C49.5351 88.0955 50.172 88.5591 49.808 88.824C49.4441 89.089 48.4029 88.983 47.9817 88.9631C47.7559 88.9631 47.7223 89.0592 47.9413 89.1221C48.4838 89.2777 49.5452 89.2678 49.5755 89.9202C49.5755 90.142 48.9016 90.1553 48.8342 90.1553C48.5544 90.185 48.2727 90.1916 47.9918 90.1752C47.7593 90.1354 47.6885 90.2845 47.8907 90.3275C48.1569 90.3838 48.8107 90.9203 48.814 91.2316C48.814 91.4866 48.9959 91.427 48.9926 91.172C48.963 91.0135 48.902 90.8624 48.813 90.7271C48.7239 90.5919 48.6087 90.4752 48.4737 90.3838C48.969 90.4103 49.7575 90.4103 49.8687 90.003C49.9428 89.7182 49.7339 89.483 49.4272 89.2943C49.5508 89.2912 49.6719 89.2597 49.7808 89.2021C49.8897 89.1446 49.9833 89.0627 50.054 88.9631C50.1337 88.7927 50.1453 88.5991 50.0867 88.4206C50.028 88.2422 49.9033 88.0919 49.7373 87.9994C49.6458 87.9853 49.5599 87.9472 49.4888 87.8889C49.4176 87.8307 49.3639 87.7546 49.3332 87.6687C49.3026 87.5829 49.2962 87.4904 49.3148 87.4013C49.3333 87.3121 49.3761 87.2296 49.4386 87.1625C49.5011 87.0953 49.5809 87.046 49.6696 87.0199C49.7583 86.9938 49.8525 86.9918 49.9423 87.0142C50.0321 87.0365 50.1139 87.0823 50.1793 87.1468C50.2447 87.2112 50.291 87.2919 50.3135 87.3802C50.5123 87.0457 50.2022 86.8006 49.9259 86.6847Z" fill="#87A0D1"/>
</svg>
