<svg width="258" height="188" viewBox="0 0 258 188" fill="none" xmlns="http://www.w3.org/2000/svg">
<path d="M64.5972 166.532V184H178.246V169.463H192.753V184H306.402V166.532H64.5972Z" fill="#87A0D1"/>
<path d="M193.265 166.858H177.715V184H193.265V166.858Z" fill="#768BBF"/>
<path d="M191.876 166.858H179.125V184H191.876V166.858Z" fill="#768BBF"/>
<path d="M86.9106 173.983H84.5405V179.48H86.9106V173.983Z" fill="#506BAD"/>
<path d="M109.734 173.983H107.364V179.48H109.734V173.983Z" fill="#506BAD"/>
<path d="M132.559 173.983H130.188V179.48H132.559V173.983Z" fill="#506BAD"/>
<path d="M155.381 173.983H153.011V179.48H155.381V173.983Z" fill="#506BAD"/>
<path d="M238.441 179.48H240.812V173.983H238.441V179.48Z" fill="#506BAD"/>
<path d="M215.618 179.48H217.988V173.983H215.618V179.48Z" fill="#506BAD"/>
<path d="M82.8032 166.755H80.4331V172.252H82.8032V166.755Z" fill="#506BAD"/>
<path d="M105.627 166.755H103.257V172.252H105.627V166.755Z" fill="#506BAD"/>
<path d="M128.472 166.755H126.101V172.252H128.472V166.755Z" fill="#506BAD"/>
<path d="M151.295 166.755H148.925V172.252H151.295V166.755Z" fill="#506BAD"/>
<path d="M174.119 166.755H171.749V172.252H174.119V166.755Z" fill="#506BAD"/>
<path d="M242.528 172.273H244.898V166.776H242.528V172.273Z" fill="#506BAD"/>
<path d="M219.704 172.273H222.075V166.776H219.704V172.273Z" fill="#506BAD"/>
<path d="M196.881 172.273H199.251V166.776H196.881V172.273Z" fill="#506BAD"/>
<path d="M185.622 59.0778V143.384L153.379 134.324L148.781 133.021L142.651 131.311C142.651 131.311 143.489 124.756 145.39 115.024C149.476 94.1155 158.344 58.3652 174.2 39.2279C176.376 36.5544 178.851 34.1366 181.576 32.0209C184.072 40.8323 185.431 49.9243 185.622 59.0778Z" fill="#87A0D1"/>
<path d="M181.678 32C178.425 35.9709 175.641 40.3019 173.383 44.9075C165.7 59.6474 155.218 87.9055 153.46 134.487L148.863 133.184L142.733 131.474C142.733 131.474 143.57 124.918 145.471 115.186C149.557 94.2778 158.425 58.5277 174.281 39.3903C176.453 36.6515 178.936 34.1716 181.678 32Z" fill="#C0CDE7"/>
<path d="M185.623 105.292V143.302L153.379 134.324L148.782 133.021C147.74 127.361 146.596 121.213 145.411 114.922C149.497 94.0132 158.365 58.263 174.221 39.1256L173.302 44.8261L169.501 68.2796C175.686 80.2501 181.072 92.6145 185.623 105.292Z" fill="#87A0D1"/>
<path d="M172.403 35.359L166.6 68.2183L160.776 101.22L149.293 166.369H116.804L114.352 163.62L108.222 156.596V121.864C120.794 87.4425 143.117 57.3934 172.485 35.359H172.403Z" fill="#87A0D1"/>
<path d="M166.579 68.2792L160.776 101.22L135.725 108.549C135.725 108.549 146.227 81.0646 166.579 68.2792Z" fill="#87A0D1"/>
<path d="M172.402 35.359C154.883 52.4377 140.468 72.4139 129.799 94.3998C113.453 127.666 110.531 154.662 110.531 154.662L117.417 163.498L119.583 166.246H116.824L114.372 163.498L108.242 156.474V121.864C120.814 87.4425 143.137 57.3934 172.505 35.359H172.402Z" fill="#C0CDE7"/>
<path d="M129.779 79.8434V163.641H108.141V121.864C113.556 107.009 120.826 92.8908 129.779 79.8434Z" fill="#87A0D1"/>
<path d="M68.705 166.369H60.7562C57.1754 159.106 53.2201 152.032 48.9054 145.176C45.4114 139.577 43 136.279 43 136.279L62.2069 143.75L67.5606 162.399L68.705 166.369Z" fill="#768BBF"/>
<path d="M68.7038 166.368H60.7551C57.1742 159.105 53.219 152.031 48.9043 145.175C54.2986 148.941 63.82 155.843 65.7815 158.937C66.4525 160.049 67.0467 161.206 67.5595 162.398L68.7038 166.368Z" fill="#506BAD"/>
<path d="M81.7402 166.369H65.9454C60.9396 154.603 53.0668 144.267 43.04 136.299L64.6379 137.663L77.3472 138.457H78.3075L81.7402 166.369Z" fill="#87A0D1"/>
<path d="M77.3076 138.456V166.369H69.2366C64.8844 156.881 64.4757 144.116 64.5983 137.581L77.3076 138.456Z" fill="#87A0D1"/>
<path d="M124.139 79.5581V166.369H70.9111C69.4531 158.073 69.5017 149.585 71.0542 141.307C71.1564 140.676 71.2584 140.065 71.4014 139.434C72.0796 135.978 73.0086 132.576 74.1806 129.254L74.9772 127.218C76.9827 122.033 79.5667 117.089 82.6805 112.478C82.987 111.99 83.3344 111.501 83.6817 111.033C83.8062 110.828 83.9431 110.631 84.0908 110.443C84.3973 110.015 84.6833 109.608 85.0102 109.201C88.9018 104.053 93.3871 99.3795 98.3735 95.2752C99.3543 94.4608 100.417 93.6669 101.398 92.8729C102.378 92.0789 103.441 91.2849 104.626 90.5112L106.322 89.3711C109.318 87.3638 112.414 85.5088 115.598 83.8132C116.906 83.0803 118.296 82.3881 119.685 81.7773C121.074 81.1665 122.525 80.4132 124.017 79.7414L124.139 79.5581Z" fill="#87A0D1"/>
<path d="M184.028 140.574L147.964 166.369H119.174V159.671C119.868 153.048 121.063 146.488 122.75 140.045C123.179 138.416 123.628 136.686 124.139 134.894C129.39 116.571 139.954 91.7535 160.918 73.3083C175.313 92.8641 183.376 116.331 184.028 140.574Z" fill="#87A0D1"/>
<path d="M160.857 73.3898C159.529 74.9371 139.995 98.3295 134.887 149.41C134.355 154.785 133.967 160.444 133.783 166.45H119.174V159.752C119.868 153.13 121.063 146.569 122.75 140.126C123.179 138.498 123.628 136.767 124.139 134.975C129.39 116.673 139.954 91.835 160.857 73.3898Z" fill="#C0CDE7"/>
<path d="M145.492 166.369H87.5439L84.6426 142.59V142.366L85.6642 131.23H86.6859C92.6696 131.238 98.633 131.921 104.463 133.266C107.809 134.016 111.1 134.996 114.311 136.197C117.228 137.288 120.056 138.602 122.771 140.127C123.24 140.371 123.69 140.656 124.16 140.941C134.027 146.682 141.571 155.676 145.492 166.369Z" fill="#87A0D1"/>
<path d="M124.016 79.6198C57.9562 108.937 70.8904 166.45 70.8904 166.45H84.7645C84.7645 166.45 74.834 110.199 124.016 79.6198Z" fill="#C0CDE7"/>
<path d="M137.135 166.369H74.6099C74.3056 153.765 78.1844 141.413 85.6441 131.23C130.638 136.503 137.135 166.369 137.135 166.369Z" fill="#C0CDE7"/>
<path d="M127.409 166.369H74.6094C74.3097 153.766 78.188 141.416 85.6436 131.23C94.4516 133.645 102.703 137.745 109.938 143.303C117.802 149.223 123.852 157.211 127.409 166.369Z" fill="#768BBF"/>
<path d="M127.408 166.369H78.8794C81.597 161.299 90.1584 148.595 109.938 143.302C117.801 149.222 123.851 157.21 127.408 166.369Z" fill="#506BAD"/>
<path d="M185.377 59.0778V143.384L217.539 134.324L222.136 133.021L228.266 131.311C228.266 131.311 227.429 124.756 225.528 115.024C221.442 94.1155 212.573 58.3652 196.717 39.2279C194.541 36.5544 192.067 34.1366 189.341 32.0209C186.874 40.8359 185.541 49.9278 185.377 59.0778Z" fill="#87A0D1"/>
<path d="M189.321 32C192.574 35.9709 195.358 40.3019 197.616 44.9075C205.299 59.6474 215.781 87.9055 217.538 134.487L222.136 133.184L228.266 131.474C228.266 131.474 227.428 124.918 225.528 115.186C221.442 94.2778 212.573 58.5277 196.717 39.3903C194.545 36.6515 192.064 34.1716 189.321 32Z" fill="#C0CDE7"/>
<path d="M185.377 105.292V143.302L217.539 134.242L222.136 132.939C223.199 127.28 224.343 121.131 225.508 114.84C221.421 93.9317 212.553 58.1815 196.697 39.0441L197.616 44.7446L201.417 68.1981C195.256 80.1971 189.898 92.5888 185.377 105.292Z" fill="#87A0D1"/>
<path d="M198.597 35.359L204.4 68.2183L210.224 101.118L221.727 166.267H254.196L256.627 163.518L262.757 156.494V121.864C250.186 87.4425 227.863 57.3934 198.495 35.359H198.597Z" fill="#87A0D1"/>
<path d="M204.461 68.2792L210.285 101.179L235.316 108.508C235.316 108.508 224.772 81.0646 204.461 68.2792Z" fill="#87A0D1"/>
<path d="M198.597 35.359C216.117 52.4377 230.532 72.4139 241.201 94.3998C257.547 127.666 260.469 154.662 260.469 154.662L253.583 163.498L251.458 166.369H254.237L256.669 163.62L262.799 156.596V121.864C250.227 87.4425 227.905 57.3934 198.537 35.359H198.597Z" fill="#C0CDE7"/>
<path d="M241.241 79.8434V163.641H262.88V121.864C257.464 107.009 250.194 92.8908 241.241 79.8434Z" fill="#87A0D1"/>
<path d="M246.86 79.5581V166.369H300.088C301.548 158.074 301.506 149.587 299.965 141.307C299.843 140.676 299.741 140.065 299.598 139.434C298.92 135.978 297.991 132.576 296.819 129.254L296.022 127.218C294.025 122.029 291.44 117.084 288.319 112.478C288.011 111.979 287.677 111.497 287.317 111.033C287.193 110.828 287.057 110.631 286.909 110.443L286.009 109.201C282.105 104.058 277.614 99.3849 272.626 95.2752C271.645 94.4608 270.582 93.6669 269.602 92.8729C268.621 92.0789 267.559 91.2849 266.374 90.5112L264.677 89.3711C261.817 87.4574 258.731 85.5844 255.421 83.8132C254.093 83.0803 252.704 82.3881 251.335 81.7773C249.966 81.1665 248.495 80.4132 247.003 79.7414L246.86 79.5581Z" fill="#87A0D1"/>
<path d="M186.91 140.574L223.056 166.369H251.826V159.671C251.132 153.048 249.936 146.488 248.25 140.045C247.841 138.416 247.371 136.686 246.86 134.894C241.609 116.571 231.045 91.7535 210.081 73.3083C195.664 92.8569 187.58 116.325 186.91 140.574Z" fill="#87A0D1"/>
<path d="M210.142 73.3898C211.491 74.9371 231.004 98.3295 236.112 149.41C236.664 154.785 237.032 160.444 237.216 166.45H251.825V159.752C251.132 153.13 249.936 146.569 248.25 140.126C247.841 138.498 247.371 136.767 246.86 134.975C241.609 116.673 231.025 91.835 210.142 73.3898Z" fill="#C0CDE7"/>
<path d="M225.508 166.369H283.456L286.358 142.59V142.366L285.315 131.23H284.294C278.31 131.238 272.347 131.921 266.517 133.266C263.17 134.016 259.88 134.996 256.668 136.197C253.751 137.288 250.923 138.602 248.209 140.127C247.739 140.371 247.289 140.656 246.819 140.941C236.96 146.686 229.423 155.679 225.508 166.369Z" fill="#87A0D1"/>
<path d="M246.983 79.6198C313.044 108.937 300.109 166.45 300.109 166.45H286.194C286.194 166.45 296.166 110.199 246.983 79.6198Z" fill="#C0CDE7"/>
<path d="M233.886 166.369H296.411C296.715 153.765 292.837 141.413 285.377 131.23C240.363 136.503 233.886 166.369 233.886 166.369Z" fill="#C0CDE7"/>
<path d="M243.591 166.369H296.411C296.711 153.766 292.833 141.416 285.377 131.23C276.569 133.645 268.317 137.745 261.082 143.303C253.217 149.226 247.16 157.212 243.591 166.369Z" fill="#768BBF"/>
<path d="M243.591 166.369H292.12C289.423 161.299 280.841 148.595 261.062 143.302C253.204 149.228 247.155 157.214 243.591 166.369Z" fill="#506BAD"/>
<path d="M225.937 166.369H145.062C145.062 166.369 157.997 141.002 185.5 131.29C213.003 141.022 225.937 166.369 225.937 166.369Z" fill="#C0CDE7"/>
<path d="M223.342 166.369H147.739C149.735 157.872 154.556 150.297 161.419 144.875C168.281 139.453 176.782 136.502 185.54 136.502C194.299 136.502 202.8 139.453 209.662 144.875C216.525 150.297 221.346 157.872 223.342 166.369Z" fill="#768BBF"/>
<path d="M223.342 166.369H147.739C147.739 166.369 159.856 152.22 185.581 146.804C211.245 152.24 223.342 166.369 223.342 166.369Z" fill="#506BAD"/>
<path d="M313.472 166.104H57.5068V167.428H313.472V166.104Z" fill="#C0CDE7"/>
<path d="M175.979 169.728H64.5366V174.675H175.979V169.728Z" fill="#C0CDE7"/>
<path d="M306.463 169.728H195.021V174.675H306.463V169.728Z" fill="#C0CDE7"/>
<path d="M165.496 179.012H54.0537V183.959H165.496V179.012Z" fill="#C0CDE7"/>
<path d="M316.946 179.012H205.504V183.959H316.946V179.012Z" fill="#C0CDE7"/>
<path d="M80.3036 174.049L81.0415 186.622C81.0415 186.622 70.057 190.488 61.4262 185.27L64.69 172.698L80.3036 174.049Z" fill="#5F3D30"/>
<path d="M64.6896 172.792L80.3818 174.049L80.4761 175.857C80.4761 175.857 67.3573 177.743 65.129 186.952C64.47 186.653 62.1474 185.695 61.504 185.38L64.6896 172.792Z" fill="#5F3D30"/>
<path d="M79.9428 162.545L81.6377 175.118C81.6377 175.118 71.5474 177.821 63.0423 174.552L65.1766 161.807L79.9428 162.545Z" fill="#5F3D30"/>
<path d="M65.1605 161.901L80.021 163.111L80.1152 164.918C80.1152 164.918 67.781 166.679 65.0034 175.181C64.338 175.009 63.6831 174.799 63.0419 174.552L65.1605 161.901Z" fill="#5F3D30"/>
<path d="M80.1783 150.146L82.5479 163.237C82.5479 163.237 69.8841 165.783 63.5758 161.854L66.7143 149.077L80.1783 150.146Z" fill="#5F3D30"/>
<path d="M66.6193 149.297L80.2247 150.397L80.5542 152.283C78.8751 152.566 68.0003 154.735 65.5681 162.844C64.8737 162.591 64.206 162.27 63.5751 161.885L66.6193 149.297Z" fill="#5F3D30"/>
<path d="M79.3463 136.175L81.8101 150.664C81.8101 150.664 67.7968 151.859 64.4387 149.203L68.2361 135.059L79.3463 136.175Z" fill="#5F3D30"/>
<path d="M67.8284 136.536L79.5661 137.479L79.8799 139.333C78.5931 139.553 67.5775 141.581 64.9255 149.517C64.7533 149.429 64.5902 149.324 64.439 149.203L67.8284 136.536Z" fill="#5F3D30"/>
<path d="M66.3528 125.095L66.1175 137.998C66.1175 137.998 79.2045 140.135 81.4956 136.788L77.2431 123.822L66.3528 125.095Z" fill="#5F3D30"/>
<path d="M66.337 125.535L77.5411 124.718L78.3257 127.138C74.9675 128.615 68.7691 132.12 67.7177 138.139L66.1485 137.919L66.337 125.535Z" fill="#5F3D30"/>
<path d="M74.0425 111.423C77.1223 115.602 78.9019 120.599 79.1582 125.787C76.8721 126.97 74.3572 127.643 71.7864 127.76C69.2156 127.877 66.6499 127.434 64.2663 126.462C65.2183 121.989 64.9473 117.342 63.4817 113.01L74.0425 111.423Z" fill="#5F3D30"/>
<path d="M64.0931 115.179L75.3915 113.419C75.7053 113.937 76.0347 114.55 76.3799 115.226C74.2614 116.216 66.6823 120.176 65.5995 126.918C65.1601 126.792 64.7206 126.635 64.2655 126.462C65.0624 122.737 65.0036 118.878 64.0931 115.179Z" fill="#5F3D30"/>
<path d="M71.8299 102.811L76.8042 113.811C76.8042 113.811 72.1909 117.112 62.5559 116.42L61.8966 105.231L71.8299 102.811Z" fill="#5F3D30"/>
<path d="M73.5874 106.803C72.0182 107.463 64.9095 110.842 64.0307 116.499C63.5442 116.499 63.0264 116.499 62.4615 116.42L61.9278 107.306L72.9124 105.451L73.5874 106.803Z" fill="#5F3D30"/>
<path d="M67.5305 92.8941C70.0991 96.5845 72.4617 100.414 74.6077 104.366C76.0827 107.667 62.4147 109.411 60.4061 107.808C60.4061 107.808 60.1707 98.5673 58.3818 95.2357L67.5305 92.8941Z" fill="#5F3D30"/>
<path d="M71.1235 98.2848C68.8168 99.4006 62.9791 102.717 61.1588 108.107C60.8885 108.04 60.6331 107.922 60.4056 107.761C60.3147 104.495 59.9579 101.242 59.3387 98.0334L69.8838 96.3832L71.1235 98.2848Z" fill="#5F3D30"/>
<path d="M65.5527 88.4787L72.6299 97.2322C72.6299 97.2322 63.8891 100.988 58.7107 99.9667L55.9021 90.396L65.5527 88.4787Z" fill="#5F3D30"/>
<path d="M56.1371 91.2285L59.4012 89.6569L65.5367 88.4311L66.0547 89.0754C64.1716 90.9142 60.5465 95.0945 60.3425 100.076C59.8163 100.062 59.2919 100.009 58.7733 99.9191L56.1371 91.2285Z" fill="#5F3D30"/>
<path d="M58.742 79.5205C62.3333 81.6592 65.2785 84.7333 67.2632 88.4155C67.2632 88.4155 56.969 92.8787 54.2072 90.8985L51.9633 81.2964L58.742 79.5205Z" fill="#5F3D30"/>
<path d="M65.4741 85.5236C62.9626 86.8201 60.8072 88.7143 59.1972 91.0398C58.2534 91.2501 57.2922 91.3711 56.3258 91.4012L55.9488 84.9422L63.7949 83.6221C64.391 84.2228 64.9517 84.8577 65.4741 85.5236Z" fill="#5F3D30"/>
<path d="M79.5653 142.65C79.5653 142.65 81.009 147.569 79.9419 148.936C78.8748 150.303 72.4881 150.146 72.4881 150.146C72.4881 150.146 79.8321 150.004 79.5653 142.65Z" fill="#5F3D30"/>
<path d="M80.0838 154.515C80.0838 154.515 81.7786 160.314 80.5232 162.011C79.2679 163.709 71.7512 163.442 71.7512 163.442C71.7512 163.442 80.382 163.174 80.0838 154.515Z" fill="#5F3D30"/>
<path d="M79.5968 177.507C79.5968 177.507 80.7423 184.343 79.5026 186.025C78.2629 187.706 69.036 187.596 69.036 187.596C69.036 187.596 79.895 186.15 79.5968 177.507Z" fill="#5F3D30"/>
<path d="M78.9064 130.659C78.9064 130.659 81.2446 135.373 80.4757 136.552C79.7067 137.731 74.1988 138.312 74.1988 138.312C75.0599 138.219 75.8881 137.93 76.6204 137.467C77.3527 137.003 77.9698 136.379 78.4241 135.64C78.8784 134.902 79.1581 134.069 79.2417 133.205C79.3253 132.342 79.2105 131.471 78.9064 130.659Z" fill="#5F3D30"/>
<path d="M77.0236 118.244C77.0236 118.244 79.0634 123.508 78.3573 125.017C77.6511 126.526 71.6256 127.264 71.6256 127.264C71.6256 127.264 78.687 125.08 77.0236 118.244Z" fill="#5F3D30"/>
<path d="M79.8484 166.427C79.8484 166.427 81.1664 173.012 80.4446 174.52C79.7227 176.029 70.1661 175.84 70.1661 175.84C70.1661 175.84 81.245 175.825 79.8484 166.427Z" fill="#5F3D30"/>
<path d="M73.2103 108.641C73.2103 108.641 75.5956 111.925 75.219 113.198C74.8423 114.471 70.119 115.65 70.119 115.65C70.8182 115.445 71.4642 115.089 72.0119 114.608C72.5597 114.127 72.996 113.532 73.2904 112.865C73.5847 112.197 73.7302 111.473 73.7164 110.744C73.7026 110.014 73.5298 109.297 73.2103 108.641Z" fill="#5F3D30"/>
<path d="M71.4681 100.407C71.4681 100.407 73.8534 103.691 73.4768 104.948C73.1001 106.206 68.3768 107.4 68.3768 107.4C69.0755 107.197 69.7212 106.843 70.269 106.363C70.8167 105.884 71.2533 105.29 71.5478 104.624C71.8423 103.958 71.9876 103.235 71.9738 102.506C71.9601 101.778 71.7876 101.061 71.4681 100.407Z" fill="#5F3D30"/>
<path d="M68.1573 92.4544C68.1573 92.4544 70.7311 95.5975 70.433 96.9176C70.1348 98.2377 64.6894 98.9606 64.6894 98.9606C64.6894 98.9606 70.6524 97.6562 68.1573 92.4544Z" fill="#5F3D30"/>
<path d="M51.7278 72.9511C51.7278 72.9511 54.8663 83.0561 63.9207 85.9949C72.9751 88.9337 73.336 92.5797 73.336 92.5797L76.4745 87.2994L75.1095 93.5856C75.1095 93.5856 83.6145 100.327 84.3363 105.168L86.0626 101.176L85.168 107.337C85.168 107.337 90.8016 118.998 97.3452 124.749C97.3452 124.749 97.0157 99.3846 98.585 92.344L94.034 92.5797L98.475 90.2853C98.475 90.2853 94.9915 78.2472 87.6789 76.1413L80.7741 77.2257L85.9369 75.0098C85.9369 75.0098 69.1778 61.7302 55.4942 66.3506C54.2329 66.888 53.1818 67.8242 52.5017 69.0161C51.8217 70.2079 51.5499 71.59 51.7278 72.9511Z" fill="#A4AA01"/>
<path d="M53.1247 68.2212C53.7481 67.4305 54.5641 66.8135 55.4942 66.4296C69.1778 61.8093 85.9369 75.0888 85.9369 75.0888L80.7741 77.3047L87.6789 76.2203C94.9915 78.2634 98.475 90.3643 98.475 90.3643L94.034 92.6588L98.585 92.423C97.0157 99.4635 97.3452 124.828 97.3452 124.828C94.1283 117.584 95.2895 118.196 89.4991 97.122C83.7087 76.0475 53.1247 68.2212 53.1247 68.2212Z" fill="#BFC34C"/>
<path d="M57.942 69.8394C57.942 69.8394 51.1632 65.8791 47.2402 68.0636C43.3171 70.248 36.3338 77.1471 36.3338 77.1471C38.8952 77.3803 41.3857 78.1173 43.6623 79.3159C43.6623 79.3159 35.0002 78.9387 34.2469 80.6674C33.4937 82.3961 30.4335 96.3829 30.9043 102.276L36.3809 102.386L31.1399 103.958C31.1399 103.958 33.0544 121.591 26.4323 124.686C32.0338 123.323 37.2316 120.645 41.5969 116.874C45.9623 113.104 49.3702 108.348 51.5398 102.999L46.4555 99.4317L52.0574 101.679C54.7353 99.2255 56.9566 96.3148 58.617 93.0826L55.2115 90.1124L60.2176 91.904C60.2176 91.904 64.5956 85.8378 65.1762 80.9031C65.851 75.497 62.8066 71.9296 57.942 69.8394Z" fill="#A4AA01"/>
<path d="M26.3224 124.765C32.9289 121.622 31.0301 104.037 31.0301 104.037L36.2714 102.465L30.7949 102.355C30.3241 96.509 33.3211 82.475 34.1371 80.7463C34.9531 79.0176 43.5524 79.3948 43.5524 79.3948C41.2759 78.1962 38.7857 77.4592 36.2243 77.226C36.2243 77.226 43.2073 70.3112 47.1303 68.1425C51.0534 65.9737 57.8325 69.9183 57.8325 69.9183C57.8325 69.9183 47.3187 81.9092 43.7095 96.0846C40.8535 107.541 34.7335 120.616 26.3224 124.765Z" fill="#BFC34C"/>
<path d="M57.6121 67.0109C57.6121 67.0109 63.889 61.0547 65.4582 56.8587C67.0275 52.6627 68.0791 42.8405 68.0791 42.8405C65.9818 44.3302 63.6153 45.3976 61.1115 45.9835C61.1115 45.9835 67.9534 40.6246 67.4983 38.7859C67.0432 36.9472 60.4996 24.2805 56.5138 20.1159L52.2612 23.5732L55.2269 18.8586C55.2269 18.8586 42.6731 6.64765 45.8116 0C42.3779 4.66676 40.083 10.0737 39.1102 15.7882C38.1374 21.5026 38.514 27.3657 40.2097 32.9082L46.3452 32.3268L40.6488 34.2598C40.1561 37.8648 40.2889 41.528 41.0411 45.0878H45.4978L40.5706 46.9736C40.5706 46.9736 43.0656 55.2085 42.4536 60.1118C41.8416 65.015 53.7362 70.5783 57.6121 67.0109Z" fill="#BFC34C"/>
<path d="M58.0513 70.8613C58.0513 70.8613 54.646 79.882 44.9796 78.4833L45.9841 75.1045L41.9354 79.9292C41.9354 79.9292 23.1048 83.9209 22.8538 84.801L24.5329 79.1905L20.9394 85.9639C20.9394 85.9639 -2.11256 89.0127 -4.99992 92.2501C-4.99992 92.2501 -3.54044 82.6165 11.9792 73.1558L15.29 74.0044L13.5484 72.3386C13.5484 72.3386 21.7395 66.0524 26.306 64.1194L29.7582 66.7282L27.4201 63.5065C27.4201 63.5065 34.4816 57.896 42.72 58.9332L44.462 62.0763L43.7869 58.6032C43.7869 58.6032 58.1455 58.4461 58.0513 70.8613Z" fill="#A4AA01"/>
<path d="M11.9793 73.1403L15.2901 73.989L13.5485 72.3232C13.5485 72.3232 21.7397 66.0369 26.3061 64.1039L29.7583 66.7127L27.4202 63.491C27.4202 63.491 34.4817 57.8806 42.7201 58.9178L44.4621 62.0609L43.7871 58.5878C43.7871 58.5878 57.3296 58.5878 58.02 69.8872C56.9843 69.2743 36.757 58.2735 -4.45079 91.8889C-4.64511 92.0209 -4.82853 92.1681 -4.99978 92.3289C-4.99978 92.3289 -3.49322 82.5696 11.9793 73.1403Z" fill="#BFC34C"/>
<path d="M44.6192 71.7727C44.6192 71.7727 36.0041 74.9158 31.2337 70.5469L34.7644 67.4038L29.8529 69.0697C26.6383 66.6743 23.6016 64.0482 20.7671 61.2119L26.5731 58.0688L17.8953 58.556C15.6375 56.3179 13.5401 53.9232 11.6184 51.3897L14.145 50.9497L10.7556 50.0539C10.7556 50.0539 9.59412 49.4567 6.92645 42.6362C4.25877 35.8157 3.2076 34.7785 0.869465 33.4584C0.869465 33.4584 22.5403 33.2069 26.6045 39.1002C26.9163 41.5342 27.528 43.9201 28.4251 46.2036L28.3151 39.6345C28.3151 39.6345 36.4438 43.0134 40.5394 47.5866L41.6064 53.9985L42.2029 47.9638C46.3397 50.0923 49.9057 53.1845 52.6009 56.9803C55.2961 60.7762 57.0416 65.1647 57.6909 69.7768L44.6192 71.7727Z" fill="#BFC34C"/>
<path d="M31.2341 70.5469L34.7648 67.4038L29.8533 69.0697C26.6387 66.6743 23.602 64.0481 20.7675 61.2119L26.5735 58.0688L17.8957 58.556C15.6379 56.3178 13.5405 53.9232 11.6188 51.3897L14.1454 50.9497L10.756 50.0539C10.756 50.0539 9.59453 49.4567 6.92685 42.6362C4.25917 35.8157 3.20801 34.7784 0.869869 33.4583H1.21505C15.903 42.5419 57.707 69.7768 57.707 69.7768L44.5725 71.7727C44.5725 71.7727 36.0045 74.9315 31.2341 70.5469Z" fill="#A4AA01"/>
<path d="M57.4395 69.0538C57.4395 69.0538 54.7089 55.8528 65.5365 50.9181L76.3797 45.9835L74.591 50.9653L80.7108 45.0405C86.0116 42.6741 92.0106 42.4046 97.5017 44.2862L94.2376 47.5864C94.2376 47.5864 105.928 41.3002 112.911 53.0397L109.93 53.6841L113.429 55.5071C115.715 59.697 117.581 64.103 119 68.6609C119 68.6609 105.458 59.2316 101.739 60.6303L97.4703 56.3714L99.5885 61.086C99.5885 61.086 91.1461 63.5691 86.9562 66.4922C82.4212 69.6824 67.8748 77.2573 57.4395 69.0538Z" fill="#A4AA01"/>
<path d="M73.6027 60.206C68.5776 63.6425 63.3359 66.7502 57.9105 69.5096L57.4243 69.0538C57.4243 69.0538 54.6937 55.8528 65.5214 50.9181L76.3646 45.9835L74.5758 50.9653L80.6956 45.0405C85.9965 42.6741 91.9955 42.4046 97.4866 44.2862L94.2225 47.5864C94.2225 47.5864 105.913 41.3002 112.896 53.0397L109.915 53.6841L113.414 55.5071C115.7 59.697 117.566 64.103 118.985 68.6609C118.985 68.6609 105.16 39.3358 73.6027 60.206Z" fill="#BFC34C"/>
<g clip-path="url(#clip0_110_875)">
<path fill-rule="evenodd" clip-rule="evenodd" d="M-33.3354 138.775L-20.5423 143.795L-8.52653 164.804L2.78754 145.687L-15.2818 127.714L-33.3354 138.775Z" fill="#768BBF"/>
<path d="M52.1011 150.188C52.0307 150.202 51.9579 150.202 51.8875 150.188C37.7523 146.724 38.164 124.342 38.4995 102.708C38.7739 86.398 39.0485 71.0037 32.8729 66.6555C32.7517 66.5939 32.6452 66.507 32.5606 66.4006C32.476 66.2941 32.4153 66.1706 32.3827 66.0385C32.3501 65.9065 32.3461 65.7689 32.3715 65.6353C32.3969 65.5017 32.451 65.3751 32.5297 65.2642C32.6084 65.1533 32.7102 65.0606 32.8279 64.9926C32.9456 64.9246 33.0764 64.8828 33.2117 64.87C33.3471 64.8573 33.4836 64.8739 33.6119 64.9187C33.7403 64.9636 33.8575 65.0355 33.9555 65.1298C40.9392 70.0425 40.6799 85.9404 40.3902 102.754C40.0243 123.656 39.6584 145.26 52.3297 148.372C52.5515 148.43 52.7448 148.566 52.8736 148.756C53.0024 148.945 53.0579 149.175 53.03 149.403C53.002 149.63 52.8922 149.84 52.7213 149.993C52.5505 150.146 52.3303 150.231 52.1011 150.233V150.188Z" fill="#768BBF"/>
<path fill-rule="evenodd" clip-rule="evenodd" d="M-135.209 184.15C-135.209 184.15 -130.482 178.459 -131.732 172.142C-124.794 168.038 -122.583 156.657 -128.271 144.68C-133.958 132.703 -155.428 106.11 -149.435 72.6211C-143.443 39.1319 -122.446 20.7472 -82.8612 21.7236C-59.7144 14.0951 7.56087 11.9287 28.451 45.1126C49.341 78.2966 22.4431 124.449 24.9743 140.255C27.5055 156.062 32.2325 179.13 32.2325 179.13C32.2325 179.13 12.6537 195.562 -15.4641 181.343C-10.4016 164.27 -9.77661 145.946 -18.3004 137.097C-32.527 141.827 -53.6915 135.571 -53.6915 135.571L-59.7908 145.061L-53.9506 182.349C-53.9506 182.349 -73.3463 195.47 -100.397 181.724C-96.3712 170.363 -94.444 158.364 -94.7091 146.312C-94.8921 130.949 -98.4908 121.901 -103.233 110.916C-107.975 99.9311 -124.398 103.013 -125.663 109.65C-126.929 116.287 -108.89 143.215 -112.397 160.852C-115.904 178.489 -124.794 183.524 -135.209 184.15Z" fill="#87A0D1"/>
<mask id="mask0_110_875" style="mask-type:luminance" maskUnits="userSpaceOnUse" x="-151" y="17" width="188" height="171">
<path d="M-135.209 184.15C-135.209 184.15 -130.482 178.459 -131.732 172.142C-124.794 168.038 -122.583 156.657 -128.271 144.68C-133.958 132.703 -155.428 106.11 -149.435 72.6211C-143.443 39.1319 -122.446 20.7472 -82.8612 21.7236C-59.7144 14.0951 7.56087 11.9287 28.451 45.1126C49.341 78.2966 22.4431 124.449 24.9743 140.255C27.5055 156.062 32.2325 179.13 32.2325 179.13C32.2325 179.13 12.6537 195.562 -15.4641 181.343C-10.4016 164.27 -9.77661 145.946 -18.3004 137.097C-32.527 141.827 -53.6915 135.571 -53.6915 135.571L-59.7908 145.061L-53.9506 182.349C-53.9506 182.349 -73.3463 195.47 -100.397 181.724C-96.3712 170.363 -94.444 158.364 -94.7091 146.312C-94.8921 130.949 -98.4908 121.901 -103.233 110.916C-107.975 99.9311 -124.398 103.013 -125.663 109.65C-126.929 116.287 -108.89 143.215 -112.397 160.852C-115.904 178.489 -124.794 183.524 -135.209 184.15Z" fill="white"/>
</mask>
<g mask="url(#mask0_110_875)">
<path fill-rule="evenodd" clip-rule="evenodd" d="M1.04918 181.8C1.03594 183.458 0.536865 185.075 -0.386294 186.451C-1.30945 187.827 -2.616 188.902 -4.144 189.543C-5.672 190.183 -7.35416 190.361 -8.98204 190.053C-10.6099 189.746 -12.1117 188.967 -13.3015 187.814C-14.4913 186.661 -15.317 185.183 -15.6755 183.565C-16.034 181.947 -15.9097 180.259 -15.3185 178.71C-14.7273 177.162 -13.6948 175.821 -12.3492 174.854C-11.0036 173.888 -9.404 173.337 -7.74871 173.271C-6.61076 173.251 -5.48037 173.456 -4.42172 173.874C-3.36306 174.292 -2.39722 174.915 -1.5798 175.708C-0.762369 176.5 -0.10929 177.446 0.341869 178.492C0.793028 179.537 1.03331 180.661 1.04918 181.8Z" fill="#C0CDE7"/>
<path fill-rule="evenodd" clip-rule="evenodd" d="M17.9902 183.86C17.9891 185.656 17.4594 187.413 16.4676 188.911C15.4757 190.408 14.0656 191.581 12.4124 192.282C10.7593 192.984 8.9363 193.183 7.17086 192.855C5.40543 192.527 3.77568 191.686 2.48434 190.438C1.193 189.189 0.297312 187.588 -0.0910376 185.834C-0.479388 184.08 -0.343401 182.25 0.30022 180.573C0.943841 178.896 2.06636 177.445 3.52819 176.402C4.99001 175.358 6.72658 174.768 8.52109 174.706C10.9895 174.665 13.3732 175.606 15.1486 177.322C16.9241 179.039 17.9461 181.39 17.9902 183.86Z" fill="#C0CDE7"/>
<path fill-rule="evenodd" clip-rule="evenodd" d="M32.4917 180.61C32.4784 182.268 31.9794 183.885 31.0562 185.261C30.133 186.637 28.8265 187.712 27.2985 188.353C25.7705 188.993 24.0883 189.171 22.4605 188.863C20.8326 188.556 19.3304 187.777 18.1406 186.624C16.9508 185.471 16.1255 183.993 15.767 182.375C15.4085 180.757 15.5324 179.069 16.1237 177.52C16.7149 175.972 17.7473 174.631 19.0929 173.664C20.4385 172.698 22.0381 172.147 23.6934 172.081C24.8308 172.063 25.9608 172.269 27.0185 172.688C28.0763 173.107 29.0412 173.73 29.8582 174.522C30.6753 175.314 31.3284 176.259 31.7803 177.304C32.2321 178.349 32.4738 179.472 32.4917 180.61Z" fill="#C0CDE7"/>
</g>
<path fill-rule="evenodd" clip-rule="evenodd" d="M46.001 145.671C46.001 145.671 57.7878 151.881 65.0002 150.248C58.474 154.826 55.5918 155.405 55.5918 155.405L51.3379 152.934L53.3351 157.984L50.8193 159.342L46.001 145.671Z" fill="#768BBF"/>
<path fill-rule="evenodd" clip-rule="evenodd" d="M9.02385 28.0857C-13.5435 16.353 -46.114 15.4529 -67.8428 18.4738V114.456H9.02385V28.0857Z" fill="#F3D65E"/>
<path d="M9.02402 105.393H-68.0254V110.352H9.02402V105.393Z" fill="#A82A2A"/>
<path fill-rule="evenodd" clip-rule="evenodd" d="M5.07467 114.455C5.02508 115.095 4.736 115.693 4.26535 116.128C3.79469 116.564 3.17705 116.806 2.53577 116.806C1.8945 116.806 1.27686 116.564 0.8062 116.128C0.335543 115.693 0.0464678 115.095 -0.00311854 114.455C-0.0302592 114.105 0.0152464 113.753 0.130527 113.422C0.245807 113.09 0.428566 112.785 0.66697 112.528C0.905374 112.27 1.1945 112.064 1.51612 111.924C1.83774 111.783 2.18478 111.71 2.53577 111.71C2.88677 111.71 3.23418 111.783 3.5558 111.924C3.87742 112.064 4.16617 112.27 4.40458 112.528C4.64298 112.785 4.82574 113.09 4.94102 113.422C5.0563 113.753 5.10181 114.105 5.07467 114.455Z" fill="#F3D65E"/>
<path fill-rule="evenodd" clip-rule="evenodd" d="M9.02385 28.0857C-13.5435 16.353 -46.114 15.4529 -67.8428 18.4738V114.456H9.02385V28.0857Z" fill="#FFB14A"/>
<mask id="mask1_110_875" style="mask-type:luminance" maskUnits="userSpaceOnUse" x="-68" y="17" width="78" height="98">
<path d="M9.02385 28.0857C-13.5435 16.353 -46.114 15.4529 -67.8428 18.4738V114.456H9.02385V28.0857Z" fill="white"/>
</mask>
<g mask="url(#mask1_110_875)">
<path fill-rule="evenodd" clip-rule="evenodd" d="M6.3553 102.25C6.3553 102.586 6.22187 102.908 5.98452 103.145C5.74717 103.383 5.42524 103.516 5.08958 103.516C4.9221 103.518 4.75573 103.487 4.60042 103.424C4.4451 103.362 4.30373 103.269 4.18459 103.151C4.06545 103.033 3.97106 102.893 3.9065 102.738C3.84195 102.583 3.80858 102.417 3.80859 102.25V34.6767C3.80858 34.5091 3.84195 34.3432 3.9065 34.1885C3.97106 34.0339 4.06545 33.8935 4.18459 33.7757C4.30373 33.6579 4.4451 33.565 4.60042 33.5023C4.75573 33.4396 4.9221 33.4083 5.08958 33.4103C5.42524 33.4103 5.74717 33.5437 5.98452 33.7812C6.22187 34.0187 6.3553 34.3408 6.3553 34.6767V102.25Z" fill="#E09F34"/>
<path d="M-15.2361 51.9615C10.7004 44.1016 25.3583 16.692 17.5029 -9.25938C9.64752 -35.2108 -17.7465 -49.8768 -43.683 -42.0169C-69.6194 -34.157 -84.277 -6.74749 -76.4216 19.2039C-68.5662 45.1553 -41.1726 59.8214 -15.2361 51.9615Z" fill="#D05663"/>
<path d="M-16.2816 44.5782C5.35384 37.3644 17.0483 13.9672 9.83855 -7.68061C2.62882 -29.3285 -20.7549 -41.0295 -42.3903 -33.8156C-64.0257 -26.6017 -75.7198 -3.20476 -68.5101 18.4431C-61.3004 40.0909 -37.917 51.7921 -16.2816 44.5782Z" fill="#E09F34"/>
<path d="M-28.6397 34.997C-12.7739 34.997 0.0880814 22.1278 0.0880814 6.25285C0.0880814 -9.62213 -12.7739 -22.4914 -28.6397 -22.4914C-44.5056 -22.4914 -57.3672 -9.62213 -57.3672 6.25285C-57.3672 22.1278 -44.5056 34.997 -28.6397 34.997Z" fill="#AE3658"/>
<path d="M-14.29 20.4397C-5.94135 12.0862 -5.94135 -1.45742 -14.29 -9.81086C-22.6386 -18.1643 -36.1744 -18.1642 -44.5231 -9.81079C-52.8717 -1.45735 -52.8718 12.0862 -44.5231 20.4397C-36.1745 28.7931 -22.6386 28.7931 -14.29 20.4397Z" fill="#FFB14A"/>
</g>
<path d="M9.02402 100.449H-68.0254V105.408H9.02402V100.449Z" fill="#E09F34"/>
<path fill-rule="evenodd" clip-rule="evenodd" d="M28.42 45.082C27.4614 43.5717 26.407 42.1244 25.2636 40.7489C43.043 77.4878 27.7643 104.92 23.0526 120.497C18.3409 136.075 21.1619 150.187 32.2016 179.099C32.2016 179.099 27.4594 156.031 24.9434 140.225C22.4274 124.418 49.2644 78.266 28.42 45.082Z" fill="#768BBF"/>
</g>
<path d="M-11.8999 157L11.1802 151.42L20.8901 131L57.6501 132.05L64.9802 151.42L75.9102 154.09V159.09H73.3301V163.9H75.9102V165.05H-5.30981L-7.94995 161.05H-11.8999V157ZM45.7102 133.21L22.0303 132.79L17.3301 151.38H61.0103L55.6201 133.38L47.7603 133.24L45.7102 133.21Z" fill="#D05663"/>
<g style="mix-blend-mode:overlay">
<path d="M74.3301 158.35H-10.3198C-10.3714 158.358 -10.4244 158.356 -10.4749 158.342C-10.5253 158.328 -10.5721 158.303 -10.6121 158.27C-10.652 158.236 -10.6843 158.194 -10.7063 158.146C-10.7283 158.099 -10.7397 158.047 -10.7397 157.995C-10.7397 157.942 -10.7283 157.891 -10.7063 157.843C-10.6843 157.796 -10.652 157.754 -10.6121 157.72C-10.5721 157.686 -10.5253 157.661 -10.4749 157.648C-10.4244 157.634 -10.3714 157.631 -10.3198 157.64H74.3301C74.3817 157.631 74.4346 157.634 74.4851 157.648C74.5356 157.661 74.5824 157.686 74.6223 157.72C74.6623 157.754 74.6945 157.796 74.7166 157.843C74.7386 157.891 74.75 157.942 74.75 157.995C74.75 158.047 74.7386 158.099 74.7166 158.146C74.6945 158.194 74.6623 158.236 74.6223 158.27C74.5824 158.303 74.5356 158.328 74.4851 158.342C74.4346 158.356 74.3817 158.358 74.3301 158.35Z" fill="#8D1D43"/>
</g>
<path d="M44.3799 151.42L45.71 133.25L47.76 133.29L48.97 151.42H44.3799Z" fill="#D05663"/>
<path d="M45.7097 133.25L44.3796 151.42H17.3296L22.0298 132.83L32.4597 133.02H32.4697L33.7598 133.04L37.7798 133.11L41.8796 133.18L45.7097 133.25Z" fill="#C0CDE7"/>
<path d="M41.8796 133.18L33.6597 151.42H29.5298L37.7798 133.11L41.8796 133.18Z" fill="#87A0D1"/>
<path d="M33.76 133.04L25.48 151.42H24.1699L32.46 133.02H32.47L33.76 133.04Z" fill="#87A0D1"/>
<path d="M48.9702 151.42L47.7603 133.29L55.6201 133.42L61.0103 151.42H48.9702Z" fill="#C0CDE7"/>
<path d="M75.9097 159.1H73.3296V163.92H75.9097V159.1Z" fill="#FA6564"/>
<path d="M57.6499 173.86C58.441 173.86 59.2145 174.094 59.8723 174.534C60.5301 174.973 61.0427 175.598 61.3455 176.329C61.6482 177.06 61.7273 177.864 61.573 178.64C61.4187 179.416 61.0377 180.129 60.4783 180.688C59.9189 181.248 59.2061 181.629 58.4302 181.783C57.6543 181.937 56.85 181.858 56.1191 181.555C55.3882 181.253 54.7635 180.74 54.324 180.082C53.8844 179.424 53.6499 178.651 53.6499 177.86C53.6499 176.799 54.0714 175.782 54.8215 175.031C55.5717 174.281 56.589 173.86 57.6499 173.86Z" fill="#FFC578"/>
<path d="M3.72998 173.86C4.52111 173.86 5.29435 174.094 5.95215 174.534C6.60995 174.973 7.12279 175.598 7.42554 176.329C7.72829 177.06 7.80742 177.864 7.65308 178.64C7.49874 179.416 7.11776 180.129 6.55835 180.688C5.99894 181.248 5.28618 181.629 4.51025 181.783C3.73433 181.937 2.93012 181.858 2.19922 181.555C1.46831 181.253 0.843578 180.74 0.404053 180.082C-0.0354729 179.424 -0.27002 178.651 -0.27002 177.86C-0.27002 176.799 0.151222 175.782 0.901367 175.031C1.65151 174.281 2.66911 173.86 3.72998 173.86Z" fill="#FFC578"/>
<path d="M-3.26978 178.66C-3.30168 178.398 -3.31842 178.134 -3.31982 177.87C-3.31982 176 -2.57701 174.207 -1.25488 172.885C0.0672488 171.563 1.86045 170.82 3.73022 170.82C5.6 170.82 7.3932 171.563 8.71533 172.885C10.0375 174.207 10.7803 176 10.7803 177.87C10.7955 178.146 10.7955 178.423 10.7803 178.7C10.7803 180.556 10.0427 182.337 8.72998 183.65C7.41723 184.962 5.63679 185.7 3.78027 185.7C1.92376 185.7 0.143077 184.962 -1.16968 183.65C-2.48243 182.337 -3.21973 180.556 -3.21973 178.7L-3.26978 178.66ZM7.73022 177.87C7.73022 177.079 7.49568 176.305 7.05615 175.648C6.61663 174.99 5.99189 174.477 5.26099 174.174C4.53008 173.872 3.72563 173.792 2.94971 173.947C2.17378 174.101 1.46102 174.482 0.901611 175.041C0.342201 175.601 -0.0385301 176.314 -0.192871 177.089C-0.347212 177.865 -0.268083 178.67 0.034668 179.401C0.337419 180.131 0.850016 180.756 1.50781 181.196C2.16561 181.635 2.9391 181.87 3.73022 181.87C4.25719 181.872 4.77948 181.771 5.26709 181.571C5.7547 181.371 6.19798 181.077 6.57153 180.705C6.94509 180.334 7.24158 179.892 7.44385 179.405C7.64612 178.919 7.75025 178.397 7.75024 177.87H7.73022Z" fill="#421C18"/>
<path d="M64.6599 178.6C64.6731 180.457 63.9483 182.242 62.645 183.565C61.3416 184.887 59.5664 185.637 57.7099 185.65C55.8534 185.663 54.0677 184.939 52.7455 183.635C51.4234 182.332 50.6731 180.557 50.6599 178.7C50.6446 178.424 50.6446 178.147 50.6599 177.87C50.6599 176.002 51.4021 174.21 52.7233 172.889C54.0445 171.567 55.8363 170.825 57.7048 170.825C59.5732 170.825 61.3653 171.567 62.6865 172.889C64.0077 174.21 64.7499 176.002 64.7499 177.87C64.6899 178.12 64.6799 178.36 64.6599 178.6ZM61.6599 177.87C61.6599 177.079 61.4253 176.306 60.9858 175.648C60.5463 174.99 59.9215 174.477 59.1906 174.175C58.4597 173.872 57.6555 173.793 56.8796 173.947C56.1037 174.101 55.3909 174.482 54.8315 175.042C54.2721 175.601 53.8911 176.314 53.7368 177.09C53.5824 177.866 53.6615 178.67 53.9643 179.401C54.267 180.132 54.7799 180.757 55.4377 181.196C56.0955 181.636 56.8687 181.87 57.6599 181.87C58.186 181.871 58.7071 181.769 59.1935 181.569C59.68 181.368 60.1223 181.074 60.4948 180.702C60.8673 180.331 61.1628 179.889 61.3644 179.403C61.5661 178.917 61.6699 178.396 61.6699 177.87H61.6599Z" fill="#421C18"/>
<path d="M67.0099 178.01L64.6598 178.6C64.6598 178.36 64.6598 178.12 64.6598 177.87C64.6598 176.001 63.9176 174.209 62.5964 172.888C61.2752 171.567 59.4834 170.825 57.6149 170.825C55.7465 170.825 53.9544 171.567 52.6332 172.888C51.312 174.209 50.5697 176.001 50.5697 177.87C50.5545 178.146 50.5545 178.423 50.5697 178.7H48.4098C48.3946 178.423 48.3946 178.146 48.4098 177.87C48.4891 175.449 49.5064 173.155 51.2465 171.471C52.9866 169.787 55.3132 168.845 57.7348 168.845C60.1564 168.845 62.4832 169.787 64.2233 171.471C65.9634 173.155 66.9805 175.449 67.0597 177.87L67.0099 178.01Z" fill="#8D1D43"/>
<path d="M13.01 178.7H10.73C10.7452 178.423 10.7452 178.146 10.73 177.87C10.73 176 9.98717 174.207 8.66504 172.885C7.34291 171.563 5.54971 170.82 3.67993 170.82C1.81016 170.82 0.0169559 171.563 -1.30518 172.885C-2.62731 174.207 -3.37012 176 -3.37012 177.87C-3.36871 178.134 -3.35197 178.398 -3.32007 178.66L-5.64014 177.97V177.87C-5.64014 175.398 -4.65824 173.027 -2.9104 171.28C-1.16256 169.532 1.20811 168.55 3.67993 168.55C6.15175 168.55 8.52242 169.532 10.2703 171.28C12.0181 173.027 13 175.398 13 177.87C13.0185 178.146 13.0219 178.423 13.01 178.7Z" fill="#8D1D43"/>
<path d="M75.9099 165.06L73.97 176.28L66.97 178.01V177.87C66.8907 175.45 65.8734 173.155 64.1333 171.471C62.3932 169.787 60.0666 168.846 57.645 168.846C55.2234 168.846 52.8966 169.787 51.1565 171.471C49.4164 173.155 48.3991 175.45 48.3198 177.87C48.3046 178.147 48.3046 178.424 48.3198 178.7H13.01C13.0252 178.424 13.0252 178.147 13.01 177.87C13.01 176.646 12.7689 175.434 12.3005 174.303C11.8322 173.173 11.1455 172.145 10.28 171.28C9.41459 170.414 8.38735 169.728 7.25659 169.26C6.12584 168.791 4.91386 168.55 3.68994 168.55C2.46602 168.55 1.25405 168.791 0.123291 169.26C-1.00746 169.728 -2.03495 170.414 -2.90039 171.28C-3.76583 172.145 -4.45228 173.173 -4.92065 174.303C-5.38903 175.434 -5.63013 176.646 -5.63013 177.87V177.97L-10.8901 176.41L-11.8901 165.06H75.9199H75.9099Z" fill="#AE3658"/>
<path d="M17.7302 170.03H16.9302V151.37L16.9402 151.32L21.7202 132.43L55.9202 133.03L61.4001 151.42V166.31H60.6101V151.48L55.3201 133.81L22.3401 133.24L17.7302 151.47V170.03Z" fill="#AE3658"/>
<path d="M47.24 133.28H46.4399V167.26H47.24V133.28Z" fill="#AE3658"/>
<path d="M43.7097 154.2H38.6196V155H43.7097V154.2Z" fill="#8D1D43"/>
<defs>
<clipPath id="clip0_110_875">
<rect width="246" height="171" fill="white" transform="translate(-181 17)"/>
</clipPath>
</defs>
</svg>
