<svg width="156" height="158" viewBox="0 0 156 158" fill="none" xmlns="http://www.w3.org/2000/svg">
<path d="M-211.403 134.532V152H-97.7543V137.463H-83.2466V152H30.4019V134.532H-211.403Z" fill="#87A0D1"/>
<path d="M8.0899 147.48H10.46V141.983H8.0899V147.48Z" fill="#506BAD"/>
<path d="M12.1973 140.273H14.5674V134.776H12.1973V140.273Z" fill="#506BAD"/>
<path d="M26.3154 134.369H34.2437C37.8325 127.11 41.7881 120.036 46.095 113.176C49.5891 107.577 51.9999 104.279 51.9999 104.279L32.7931 111.75L27.4393 130.399L26.3154 134.369Z" fill="#768BBF"/>
<path d="M26.3154 134.368H34.2437C37.8325 127.109 41.7881 120.036 46.095 113.175C40.7007 116.941 31.1788 123.843 29.2173 126.937C28.5463 128.049 27.9522 129.206 27.4393 130.398L26.3154 134.368Z" fill="#506BAD"/>
<path d="M13.2583 134.369H29.053C34.0588 122.569 41.9468 112.204 51.9993 104.217L30.4014 105.581L17.6921 106.375H16.7318L13.2583 134.369Z" fill="#87A0D1"/>
<path d="M17.6924 106.456V134.369H25.7638C30.1161 124.881 30.5243 112.116 30.4017 105.581L17.6924 106.456Z" fill="#87A0D1"/>
<path d="M-29.1401 47.5581V134.369H24.0881C25.5476 126.074 25.5059 117.587 23.9654 109.307C23.8428 108.676 23.7408 108.065 23.5978 107.434C22.9196 103.978 21.9906 100.576 20.8186 97.2542L20.022 95.2183C18.0248 90.0293 15.4403 85.0841 12.3187 80.4785C12.0107 79.9794 11.6765 79.497 11.3175 79.033C11.193 78.8284 11.0566 78.6313 10.9089 78.4426L10.0095 77.2007C6.10461 72.0581 1.61368 67.3849 -3.37381 63.2752C-4.35459 62.4608 -5.41757 61.6669 -6.39836 60.8729C-7.37915 60.0789 -8.44133 59.2849 -9.62645 58.5112L-11.3226 57.3711C-14.1832 55.4574 -17.2686 53.5844 -20.5788 51.8132C-21.9069 51.0803 -23.2964 50.3881 -24.6654 49.7773C-26.0344 49.1665 -27.5054 48.4132 -28.997 47.7414L-29.1401 47.5581Z" fill="#87A0D1"/>
<path d="M-50.4922 134.369H7.45573L10.3576 110.59V110.366L9.31546 99.2298H8.29381C2.31012 99.2382 -3.65331 99.9211 -9.48286 101.266C-12.8295 102.016 -16.1204 102.996 -19.3317 104.197C-22.2488 105.288 -25.0772 106.602 -27.7913 108.127C-28.2613 108.371 -28.7107 108.656 -29.1806 108.941C-39.0397 114.686 -46.5769 123.679 -50.4922 134.369Z" fill="#87A0D1"/>
<path d="M-29.0166 47.6198C37.0435 76.9366 24.1094 134.45 24.1094 134.45H10.1944C10.1944 134.45 20.1658 78.1988 -29.0166 47.6198Z" fill="#C0CDE7"/>
<path d="M-42.1143 134.369H20.4112C20.7154 121.765 16.8372 109.413 9.3775 99.2298C-35.6366 104.503 -42.1143 134.369 -42.1143 134.369Z" fill="#C0CDE7"/>
<path d="M-32.4087 134.369H20.411C20.7107 121.766 16.8329 109.416 9.37734 99.2298C0.569317 101.645 -7.6828 105.745 -14.9179 111.303C-22.7833 117.226 -28.8395 125.212 -32.4087 134.369Z" fill="#768BBF"/>
<path d="M-32.4087 134.369H16.1199C13.4227 129.299 4.8409 116.595 -14.9383 111.302C-22.7962 117.228 -28.8452 125.214 -32.4087 134.369Z" fill="#506BAD"/>
<path d="M37.472 134.104H-218.493V135.428H37.472V134.104Z" fill="#C0CDE7"/>
<path d="M30.4631 137.728H-80.979V142.675H30.4631V137.728Z" fill="#C0CDE7"/>
<path d="M40.946 147.012H-70.4961V151.959H40.946V147.012Z" fill="#C0CDE7"/>
<path d="M47.1563 149.524C48.6024 151.243 49.9001 151.326 50.2035 151.281C50.415 151.259 50.6121 151.164 50.7607 151.013C50.9093 150.861 51 150.662 51.017 150.451C51.1396 149.808 48.7832 145.168 48.7832 145.168C48.7832 145.168 46.5495 140.856 45.5553 140.592C44.5612 140.328 43.0957 144.685 47.1563 149.524Z" fill="#5B7DC0"/>
<path d="M50.4297 147.877C50.7913 149.106 50.9462 150.142 50.5782 150.451C50.4787 150.502 50.365 150.518 50.2554 150.496C49.4097 150.38 47.5763 148.965 46.382 147.137L45.7365 146.095C45.5493 145.792 45.3686 145.502 45.2008 145.213C44.3744 143.829 44.0193 143.392 43.9482 142.381C45.2394 140.335 46.4917 138.359 47.4795 136.815L49.4162 133.745L52.9346 137.606L50.7784 140.18L48.4478 142.948C49.0701 144.131 49.6074 145.357 50.0554 146.616C50.1716 147.06 50.3006 147.472 50.4297 147.877Z" fill="#DC8D75"/>
<path d="M52.8827 137.613L50.7264 140.187C49.4532 139.25 48.332 138.123 47.4019 136.847L49.3385 133.777L52.8827 137.613Z" fill="#C87559"/>
<path d="M50.5459 150.484C50.4464 150.534 50.3327 150.55 50.2231 150.529C49.863 149.414 49.2514 148.397 48.435 147.555C47.704 146.783 46.7326 146.28 45.6784 146.127C45.4912 145.824 45.3104 145.535 45.1426 145.245C46.1845 145.382 47.1844 145.742 48.0735 146.301C49.0999 146.951 50.094 148.521 50.5459 150.484Z" fill="#5B7DC0"/>
<path d="M61.1329 128.545C60.8297 129.545 60.3793 130.495 59.7966 131.364C58.3569 133.803 56.2008 136.86 55.665 136.963C55.1482 137.06 54.6216 137.097 54.0962 137.072C54.0962 137.072 53.9864 137.394 52.805 138.424C50.8203 137.795 49.1043 136.522 47.9312 134.807L49.1189 133.346C48.9595 132.694 48.905 132.02 48.9575 131.351C49.1402 131.062 49.3878 130.82 49.6806 130.643C50.6102 129.942 52.1015 129.079 52.1015 129.079C52.1015 129.079 51.5591 124.497 52.0433 123.931C52.5275 123.365 60.4939 123.287 60.5455 123.558C60.5972 123.828 61.2749 127.245 61.1329 128.545Z" fill="#BFC34C"/>
<path d="M61.1331 128.545C60.8299 129.545 60.3795 130.495 59.7967 131.364C56.4099 131.358 53.0276 131.117 49.6743 130.643C50.6039 129.942 52.0952 129.079 52.0952 129.079C52.0952 129.079 51.5529 124.497 52.037 123.931C52.5212 123.365 60.4876 123.287 60.5392 123.558C60.5909 123.828 61.2751 127.245 61.1331 128.545Z" fill="#A4AA01"/>
<path d="M54.0962 137.072C54.0962 137.072 53.9864 137.394 52.805 138.423C50.8203 137.795 49.1043 136.522 47.9312 134.807L49.1189 133.346C49.1189 133.346 50.3713 135.611 54.0962 137.072Z" fill="#E09F34"/>
<path d="M50.5456 150.483C50.4461 150.534 50.3324 150.55 50.2228 150.528C49.9536 149.244 49.8862 147.927 50.0228 146.622C50.1713 147.047 50.3132 147.472 50.4294 147.877C50.3281 148.746 50.3673 149.626 50.5456 150.483Z" fill="#5B7DC0"/>
<path d="M45.7041 157.698L41.9405 157.601H40.7849L34.1291 157.421C34.0727 157.42 34.0177 157.403 33.9699 157.373C33.9222 157.343 33.8836 157.3 33.8584 157.25C33.8331 157.2 33.8222 157.143 33.8267 157.087C33.8312 157.031 33.8509 156.977 33.8839 156.932C34.2076 156.522 34.5982 156.169 35.0395 155.889C35.2909 155.726 35.5517 155.578 35.8206 155.445L35.9561 155.387C37.8928 154.493 40.8302 153.321 40.8302 153.321C40.8302 153.321 40.417 150.644 39.8747 146.95C38.9387 140.682 37.6153 131.506 37.2925 127.445C43.0574 125.424 45.7364 129.311 45.7364 129.311C45.7364 129.311 45.6653 139.543 45.5685 146.854C45.5169 150.374 45.4652 153.218 45.4136 153.933C46.0333 157.131 45.7041 157.698 45.7041 157.698Z" fill="#DC8D75"/>
<path d="M45.704 129.279C45.704 129.279 45.6332 139.511 45.5364 146.822L39.8747 146.918C38.9387 140.65 37.6153 131.473 37.2925 127.412C43.0251 125.392 45.704 129.279 45.704 129.279Z" fill="#C87559"/>
<path d="M47.2207 141.12C46.9754 142.407 46.0845 142.407 46.0845 142.407V144.19L38.8542 144.029L38.9316 142.098C38.9316 142.098 38.2861 142.278 37.873 140.901C37.6535 140.167 37.3953 136.48 37.292 132.677C37.1566 129.903 37.2429 127.122 37.5502 124.362C38.1957 120.881 43.8057 119.748 45.6779 121.531C46.8528 122.657 47.2594 129.658 47.3304 134.993C47.3756 138.095 47.3111 140.624 47.2207 141.12Z" fill="#BFC34C"/>
<path d="M47.3304 134.987C44.5739 134.549 40.0679 133.404 37.292 132.67C37.1566 129.896 37.2429 127.116 37.5502 124.356C38.1957 120.874 43.8058 119.742 45.6779 121.524C46.8528 122.65 47.2594 129.684 47.3304 134.987Z" fill="#A4AA01"/>
<path d="M46.0853 142.413V144.196L38.855 144.035L38.9324 142.104C38.9324 142.104 42.6186 142.31 46.0853 142.413Z" fill="#E09F34"/>
<path d="M41.9406 157.601H40.785C39.8664 156.697 38.705 156.078 37.441 155.818C36.6457 155.658 35.824 155.682 35.0396 155.889C35.291 155.726 35.5518 155.578 35.8207 155.445C36.9891 155.162 38.603 155.239 39.4422 155.786C40.2814 156.333 41.3402 157.125 41.9406 157.601Z" fill="#5B7DC0"/>
<path d="M45.9754 157.356C45.9754 157.601 45.9753 158 45.8785 158C45.5557 158 33.858 158 33.6127 157.916C33.5497 157.821 33.5161 157.709 33.5161 157.595C33.5161 157.48 33.5497 157.368 33.6127 157.273C33.6515 157.273 45.9496 157.286 45.9754 157.356Z" fill="#5B7DC0"/>
<path d="M56.9694 53.29L56.6466 49.8856L56.6014 49.3837L56.5303 48.4377C56.5303 48.4377 59.4224 47.4531 59.4676 48.3412C59.4767 48.6762 59.4151 49.0095 59.2868 49.3193C59.1992 49.5493 59.0798 49.7659 58.9319 49.9629C59.4341 51.1924 59.8292 52.4627 60.1132 53.7597C60.1842 54.6993 56.9694 53.29 56.9694 53.29Z" fill="#DC8D75"/>
<path d="M59.2868 49.3193C59.1319 49.506 58.9383 49.6604 58.7511 49.5574L58.3896 49.3579C58.1332 49.5098 57.8336 49.5732 57.5374 49.5381C57.2283 49.4704 56.9159 49.4189 56.6014 49.3837L56.5303 48.4377C56.5303 48.4377 59.4224 47.4531 59.4676 48.3412C59.4767 48.6762 59.4151 49.0095 59.2868 49.3193Z" fill="#C87559"/>
<path d="M74.9998 84.1154V84.3663C74.8704 89.9018 74.222 95.413 73.0631 100.828C72.2174 104.799 71.1263 108.435 69.7965 110.835C68.3322 110.687 66.8935 110.349 65.5165 109.831C64.5804 109.516 63.5798 109.136 62.605 108.731C59.1114 107.287 55.7075 105.637 52.4115 103.788L49.4741 76.6761L51.4108 74.8548C54.8692 70.4937 56.7523 65.0979 56.7561 59.5386C56.7561 58.7407 56.711 57.9298 56.6335 57.1254L56.4656 55.4007L56.0653 51.3464C56.0653 51.3464 61.43 52.2345 67.111 59.0367C72.792 65.8389 74.9998 76.7468 74.9998 84.1154Z" fill="#D05663"/>
<path d="M62.6118 108.731C59.1182 107.287 55.7143 105.637 52.4183 103.788L49.481 76.6761C49.9393 76.4573 50.2621 76.3157 50.2621 76.3157L54.1355 75.5177C54.1355 75.5177 56.7758 76.0904 58.0411 81.8115C58.8138 85.8082 59.0849 89.8852 58.8481 93.9486C58.8481 93.9486 61.6757 99.5281 62.6118 108.731Z" fill="#AE3658"/>
<path d="M74.9998 84.1153C74.9998 91.4838 73.0631 104.927 69.8029 110.835C68.3386 110.687 66.9 110.349 65.5229 109.831C73.1729 93.0991 69.8933 71.8109 66.4202 65.3111C62.9471 58.8114 58.0279 56.5333 56.4721 55.3749L56.0718 51.3206C56.0718 51.3206 61.4365 52.2087 67.1175 59.0109C72.7984 65.8131 74.9998 76.7468 74.9998 84.1153Z" fill="#FFB14A"/>
<path d="M59.0284 49.242C58.8863 49.3127 58.7184 49.0939 58.6151 48.9202C58.5118 48.7464 58.5054 48.7207 58.5054 48.7207C58.4388 48.8891 58.3299 49.0375 58.1891 49.1518C57.9244 49.3835 57.6081 48.6885 57.6081 48.6885C57.6089 48.7746 57.5841 48.8589 57.5371 48.931C57.49 49.0031 57.4226 49.0598 57.3434 49.0939C57.0851 49.184 56.885 48.5727 56.885 48.5727C56.885 48.5727 56.6785 49.2162 56.3299 49.0939C56.1556 49.036 56.0071 48.5855 55.9425 48.1286C55.878 47.6717 55.8973 47.2148 56.0393 47.1569C56.1549 47.1263 56.2778 47.1388 56.3848 47.1921C56.4918 47.2454 56.5756 47.3359 56.6204 47.4465C56.6465 47.3549 56.6907 47.2696 56.7506 47.1955C56.8105 47.1214 56.8848 47.0601 56.969 47.0153C57.2273 46.8995 57.6661 47.4787 57.6661 47.4787C57.7787 47.3017 57.9401 47.1609 58.1309 47.0732C58.4214 46.9574 58.5636 47.5044 58.5636 47.5044C58.6029 47.4472 58.6538 47.3991 58.7131 47.3631C58.7725 47.3271 58.839 47.304 58.9079 47.2955C58.9769 47.287 59.0469 47.2932 59.1133 47.3137C59.1797 47.3341 59.2409 47.3684 59.293 47.4143C59.7578 47.7489 59.2608 49.139 59.0284 49.242Z" fill="#DC8D75"/>
<path d="M58.4154 48.8622C58.3671 48.9805 58.2893 49.0846 58.1894 49.1647C57.9247 49.3964 57.6085 48.7014 57.6085 48.7014C57.6092 48.7874 57.5845 48.8717 57.5374 48.9438C57.4903 49.016 57.4229 49.0726 57.3437 49.1068C57.0855 49.1969 56.8854 48.5855 56.8854 48.5855C56.8854 48.5855 56.6789 49.2291 56.3303 49.1068C56.156 49.0489 56.0074 48.5984 55.9429 48.1415C56.3892 48.0088 56.8522 47.9395 57.318 47.9355C57.4817 47.9276 57.6451 47.9545 57.7976 48.0144C57.9501 48.0744 58.0881 48.1659 58.2023 48.2831C58.4025 48.489 58.48 48.6756 58.4154 48.8622Z" fill="#C87559"/>
<path d="M57.9054 49.8404C57.9829 50.2523 57.447 50.4389 56.7498 50.3038C56.0526 50.1686 55.5942 49.8404 55.5942 49.1261C55.5942 48.4118 56.4077 48.3925 56.7304 48.3667C57.0532 48.341 58.0926 48.4375 58.0926 48.8043C58.0926 49.1711 56.9823 49.2419 56.9823 49.2419C56.9823 49.2419 57.815 49.3577 57.9054 49.8404Z" fill="#DC8D75"/>
<path d="M68.4733 107.682C68.3832 107.694 68.3006 107.738 68.2408 107.806C68.1809 107.874 68.1479 107.961 68.1479 108.052C68.1479 108.142 68.1809 108.23 68.2408 108.298C68.3006 108.366 68.3832 108.41 68.4733 108.422C68.5633 108.41 68.646 108.366 68.7059 108.298C68.7657 108.23 68.7987 108.142 68.7987 108.052C68.7987 107.961 68.7657 107.874 68.7059 107.806C68.646 107.738 68.5633 107.694 68.4733 107.682Z" fill="#D05663"/>
<path d="M69.7642 104.187C69.6152 104.187 69.4725 104.246 69.3672 104.351C69.2619 104.456 69.2026 104.599 69.2026 104.747C69.2026 104.896 69.2619 105.038 69.3672 105.143C69.4725 105.248 69.6152 105.307 69.7642 105.307C69.9132 105.307 70.056 105.248 70.1614 105.143C70.2667 105.038 70.3259 104.896 70.3259 104.747C70.3259 104.599 70.2667 104.456 70.1614 104.351C70.056 104.246 69.9132 104.187 69.7642 104.187Z" fill="#D05663"/>
<path d="M70.9585 100.97V100.892L70.9068 100.77C70.8703 100.713 70.8245 100.663 70.7713 100.622C70.6787 100.551 70.5653 100.513 70.4485 100.513C70.3577 100.513 70.2687 100.538 70.1903 100.583C70.0733 100.653 69.9859 100.763 69.945 100.892V100.97C69.9196 101.063 69.9194 101.162 69.9443 101.256C69.9692 101.349 70.0184 101.435 70.087 101.504C70.1915 101.604 70.3296 101.661 70.4744 101.665C70.6209 101.661 70.7611 101.603 70.8682 101.504C70.9285 101.43 70.9685 101.342 70.9844 101.249C71.0002 101.155 70.9913 101.059 70.9585 100.97Z" fill="#D05663"/>
<path d="M71.7526 97.6813C71.6323 97.5653 71.4714 97.5004 71.3039 97.5004C71.1365 97.5004 70.9758 97.5653 70.8554 97.6813C70.7934 97.7362 70.7485 97.8077 70.7261 97.8872C70.6836 97.9615 70.6635 98.0463 70.6681 98.1317C70.6734 98.2546 70.7138 98.3734 70.7846 98.474C70.8555 98.5747 70.9537 98.6531 71.0678 98.6998C71.1819 98.7465 71.3071 98.7596 71.4284 98.7377C71.5498 98.7157 71.6623 98.6595 71.7526 98.5758C71.8124 98.519 71.8567 98.4482 71.8817 98.3699C71.9205 98.2965 71.9405 98.2147 71.9399 98.1317C71.9392 97.9629 71.8719 97.8011 71.7526 97.6813Z" fill="#D05663"/>
<path d="M72.7145 93.0025C72.5792 92.8723 72.399 92.7986 72.211 92.7966C72.1169 92.7895 72.0228 92.8096 71.9399 92.8545C71.8526 92.8827 71.7745 92.9338 71.7139 93.0025C71.6463 93.0629 71.5971 93.1409 71.5719 93.2277C71.5279 93.311 71.5058 93.404 71.5074 93.4981C71.5123 93.683 71.5858 93.8596 71.7139 93.9936C71.8475 94.1223 72.0251 94.1959 72.211 94.1995C72.3074 94.2011 72.4028 94.179 72.4887 94.1352C72.5755 94.1094 72.6536 94.0604 72.7145 93.9936C72.8361 93.8555 72.9087 93.6814 72.9212 93.4981C72.9188 93.3125 72.8448 93.135 72.7145 93.0025Z" fill="#D05663"/>
<path d="M72.3531 89.1992C72.1789 89.2159 72.0173 89.2966 71.8996 89.4257C71.782 89.5548 71.7168 89.723 71.7168 89.8974C71.7168 90.0718 71.782 90.24 71.8996 90.3691C72.0173 90.4982 72.1789 90.579 72.3531 90.5956C72.5272 90.579 72.689 90.4982 72.8067 90.3691C72.9243 90.24 72.9895 90.0718 72.9895 89.8974C72.9895 89.723 72.9243 89.5548 72.8067 89.4257C72.689 89.2966 72.5272 89.2159 72.3531 89.1992Z" fill="#D05663"/>
<path d="M72.682 84.0638C72.536 84.079 72.4009 84.1476 72.3026 84.2563C72.2044 84.3651 72.1499 84.5063 72.1499 84.6526C72.1499 84.799 72.2044 84.9401 72.3026 85.0489C72.4009 85.1576 72.536 85.2262 72.682 85.2415C72.828 85.2262 72.9633 85.1576 73.0615 85.0489C73.1598 84.9401 73.2141 84.799 73.2141 84.6526C73.2141 84.5063 73.1598 84.3651 73.0615 84.2563C72.9633 84.1476 72.828 84.079 72.682 84.0638Z" fill="#D05663"/>
<path d="M72.9859 79.4241C72.9246 79.3617 72.8513 79.3124 72.7703 79.2793C72.6893 79.2461 72.6022 79.2296 72.5146 79.231C72.3988 79.2328 72.2854 79.2638 72.1849 79.3212C72.0844 79.3786 72.0002 79.4605 71.9402 79.5592C71.8622 79.6817 71.8282 79.8269 71.8434 79.9711C71.8404 80.0515 71.8581 80.1312 71.8949 80.2028C71.9195 80.2742 71.9616 80.3385 72.0175 80.3894L72.1403 80.4859C72.2306 80.5377 72.3331 80.5644 72.4373 80.5632C72.5838 80.5759 72.7307 80.5422 72.8568 80.4666C72.9585 80.4097 73.0428 80.3264 73.1008 80.2256C73.1588 80.1247 73.1882 80.0101 73.1861 79.8939C73.1803 79.7179 73.1089 79.5505 72.9859 79.4241Z" fill="#D05663"/>
<path d="M71.8752 75.0544C71.8341 74.9821 71.7745 74.922 71.7025 74.8802C71.6305 74.8384 71.5486 74.8164 71.4653 74.8164C71.382 74.8164 71.3001 74.8384 71.2281 74.8802C71.1561 74.922 71.0965 74.9821 71.0554 75.0544C70.9934 75.1501 70.962 75.2623 70.965 75.3762C70.9716 75.5059 71.0242 75.6291 71.1135 75.7237C71.1584 75.7708 71.2126 75.8081 71.2725 75.8336C71.3325 75.859 71.397 75.872 71.4621 75.8717C71.5951 75.8691 71.7221 75.8162 71.8172 75.7237L71.8946 75.6271C71.9403 75.5513 71.9649 75.4646 71.9657 75.3762C71.9687 75.2623 71.9371 75.1501 71.8752 75.0544Z" fill="#D05663"/>
<path d="M70.6941 70.659C70.5984 70.5626 70.4686 70.5072 70.3326 70.5045C70.1963 70.5065 70.0664 70.562 69.971 70.659C69.9236 70.7057 69.8859 70.7613 69.8602 70.8226C69.8345 70.8839 69.8213 70.9497 69.8213 71.0161C69.8213 71.0826 69.8345 71.1484 69.8602 71.2097C69.8859 71.271 69.9236 71.3266 69.971 71.3733C70.0178 71.4219 70.0739 71.4606 70.136 71.4872C70.1981 71.5137 70.265 71.5275 70.3326 71.5278C70.4688 71.5258 70.5988 71.4703 70.6941 71.3733C70.742 71.3264 70.7799 71.2702 70.8054 71.2083C70.8309 71.1463 70.8436 71.0799 70.8426 71.0129C70.84 70.8804 70.787 70.7538 70.6941 70.659Z" fill="#D05663"/>
<path d="M69.196 65.2211C69.0599 65.2358 68.9341 65.3001 68.8427 65.4017C68.7513 65.5032 68.7007 65.6349 68.7007 65.7713C68.7007 65.9078 68.7513 66.0395 68.8427 66.141C68.9341 66.2426 69.0599 66.3069 69.196 66.3216C69.3321 66.3069 69.458 66.2426 69.5494 66.141C69.6408 66.0395 69.6914 65.9078 69.6914 65.7713C69.6914 65.6349 69.6408 65.5032 69.5494 65.4017C69.458 65.3001 69.3321 65.2358 69.196 65.2211Z" fill="#D05663"/>
<path d="M67.1753 61.9585C67.0508 61.9725 66.9359 62.0318 66.8524 62.125C66.7689 62.2182 66.7227 62.3387 66.7227 62.4637C66.7227 62.5886 66.7689 62.7092 66.8524 62.8024C66.9359 62.8955 67.0508 62.9548 67.1753 62.9688C67.2999 62.9548 67.4149 62.8955 67.4984 62.8024C67.5819 62.7092 67.6281 62.5886 67.6281 62.4637C67.6281 62.3387 67.5819 62.2182 67.4984 62.125C67.4149 62.0318 67.2999 61.9725 67.1753 61.9585Z" fill="#D05663"/>
<path d="M63.7157 57.4922C63.6366 57.4426 63.5445 57.4179 63.4511 57.4214C63.3578 57.4187 63.2657 57.4433 63.1863 57.4922H63.1219C63.048 57.5362 62.9866 57.5983 62.9436 57.6726C62.9007 57.747 62.8775 57.8311 62.8765 57.9169C62.8769 58.0028 62.8998 58.0871 62.9428 58.1616C62.9858 58.2361 63.0475 58.2981 63.1219 58.3416L63.1863 58.3738C63.267 58.4196 63.3583 58.444 63.4511 58.4446C63.5441 58.4449 63.6354 58.4204 63.7157 58.3738C63.7953 58.3265 63.8614 58.2597 63.9077 58.1797C63.954 58.0997 63.9791 58.0093 63.9804 57.9169C63.9755 57.8297 63.9487 57.745 63.9025 57.6708C63.8562 57.5966 63.792 57.5352 63.7157 57.4922Z" fill="#D05663"/>
<path d="M59.3904 54.236C59.3116 54.1612 59.2126 54.1107 59.1056 54.0909C58.9986 54.071 58.888 54.0826 58.7875 54.1242C58.687 54.1658 58.6007 54.2356 58.5393 54.3251C58.4778 54.4147 58.4439 54.5201 58.4414 54.6286C58.4432 54.7764 58.5035 54.9175 58.6093 55.0211C58.7132 55.1237 58.8536 55.1812 58.9998 55.1812C59.1461 55.1812 59.2864 55.1237 59.3904 55.0211C59.4961 54.9175 59.5565 54.7764 59.5582 54.6286C59.5551 54.481 59.495 54.3404 59.3904 54.236Z" fill="#D05663"/>
<path d="M48.2477 62.8078C47.1115 62.6662 43.7997 62.4088 41.7275 64.6612C40.8075 65.7352 40.2121 67.0473 40.0103 68.4452C39.8102 69.7322 39.7003 75.286 38.9321 77.1844C38.1639 79.0828 36.8277 83.2337 35.4914 85.3316C34.1551 87.4295 32.5799 89.2443 33.1028 91.7091C33.6257 94.1738 34.4391 94.6114 37.4345 96.143C40.4299 97.6747 41.3079 100.905 44.4776 100.545C47.6473 100.184 48.8481 98.8459 49.1709 96.5099C49.4936 94.1738 48.4477 93.807 48.7705 91.8699C49.0933 89.9329 50.5072 91.7477 51.766 88.4399C53.0249 85.1321 53.3864 79.765 51.766 72.744C51.4021 71.2105 51.2822 69.6296 51.4109 68.059C51.4328 67.2828 51.394 66.5061 51.2948 65.7359C51.1375 65.0006 50.7633 64.329 50.2204 63.8073C49.6774 63.2856 48.9906 62.9375 48.2477 62.8078Z" fill="#421C18"/>
<path d="M61.1913 127.033C61.1913 127.033 58.1055 128.963 50.2167 129.948C48.255 130.187 46.2792 130.292 44.3032 130.263H43.8901H43.677H43.2639H43.0573L41.805 130.18H41.6951H41.5143H41.2432H41.0625H40.9657H40.7138L40.3266 130.135L40.0103 130.096L39.4292 130.019L39.171 129.98H39.0096L38.7901 129.942H38.661L38.4222 129.903H38.3059C37.9315 129.839 37.6216 129.774 37.3892 129.723L37.2602 129.691H37.1826H37.1311L36.8534 129.626C36.8534 129.626 36.8534 129.588 36.8534 129.523C36.8502 129.509 36.8502 129.493 36.8534 129.478C36.8534 129.44 36.8534 129.395 36.8534 129.343C36.8534 129.305 36.8534 129.266 36.8534 129.214V129.073C36.8534 129.073 36.8534 129.034 36.8534 129.015C36.8534 128.996 36.8534 128.938 36.8534 128.899C36.8502 128.88 36.8502 128.86 36.8534 128.841C36.8534 128.758 36.8534 128.667 36.8534 128.577C36.8495 128.5 36.8495 128.423 36.8534 128.346C36.8534 128.268 36.8535 128.191 36.8212 128.108C36.8244 128.065 36.8244 128.022 36.8212 127.979C36.8244 127.934 36.8244 127.889 36.8212 127.844C36.8212 127.799 36.8212 127.754 36.8212 127.702C36.8212 127.651 36.8212 127.612 36.8212 127.561C36.7502 126.84 36.6727 125.939 36.6081 124.871V124.536C36.6081 124.465 36.6081 124.394 36.6081 124.317L36.5694 123.629C36.5694 123.545 36.5694 123.468 36.5694 123.384C36.5694 122.985 36.5306 122.56 36.5177 122.097C36.5177 122.007 36.5177 121.917 36.5177 121.827C36.5177 121.408 36.5177 120.971 36.5177 120.54V120.347C36.5177 118.332 36.5178 116.016 36.6469 113.428C36.769 111.052 37.058 108.686 37.5119 106.35C38.3335 102.084 39.5657 97.9075 41.1915 93.8778C41.1915 93.8778 40.7075 92.9061 38.4287 87.7256C36.1498 82.5451 36.0723 79.1408 37.2149 77.6864C38.3576 76.232 41.0883 75.7558 41.1915 75.7558C41.0689 75.6464 43.903 77.1716 46.5756 76.8627C49.2482 76.5538 51.6692 74.4043 51.6692 74.4043C51.6692 74.4043 54.897 73.8638 55.8137 77.0236C57.2016 81.9209 55.2455 93.6268 55.2455 93.6268L55.336 93.7684C55.3381 93.7877 55.3381 93.8071 55.336 93.8264C55.3442 93.8469 55.3551 93.8664 55.3683 93.8843L55.5297 94.1674L55.5683 94.2317C55.7103 94.4956 55.8911 94.8367 56.0912 95.2679L56.1688 95.4223C56.2075 95.5124 56.2527 95.6025 56.2914 95.699L56.5302 96.2396C56.5302 96.2911 56.5754 96.3426 56.5948 96.4005C56.6142 96.4584 56.7045 96.6515 56.7562 96.7802C56.8078 96.9089 56.8142 96.9346 56.8465 97.0054L56.8982 97.1341C56.8982 97.1792 56.9305 97.2307 56.9499 97.2822L57.0273 97.4752L57.0919 97.6489C57.0919 97.739 57.1628 97.8292 57.1951 97.9257C57.2274 98.0222 57.2274 98.0287 57.2468 98.0801C57.2662 98.1316 57.3436 98.3375 57.3888 98.4727V98.5242C57.3888 98.5885 57.4341 98.6593 57.4534 98.7301C57.5438 98.994 57.6406 99.2707 57.731 99.5603L57.8148 99.837C57.9784 100.365 58.1398 100.925 58.299 101.517L58.3572 101.748C58.4863 102.242 58.6155 102.763 58.7446 103.312C60.0551 110.108 61.1913 127.033 61.1913 127.033Z" fill="#87A0D1"/>
<path d="M41.8113 130.141H41.7015H41.5207H41.2496H41.0688H40.972H40.7202L40.3329 130.096L40.0166 130.058L39.4355 129.98L39.1774 129.942H39.016L38.7964 129.903H38.6673L38.4286 129.865H38.3122C37.9378 129.8 37.628 129.736 37.3956 129.684L37.2665 129.652H37.189H37.1374L36.8597 129.588C36.8597 129.588 36.8597 129.549 36.8597 129.485C36.8566 129.47 36.8566 129.455 36.8597 129.44C36.8597 129.401 36.8597 129.356 36.8597 129.305C36.8597 129.266 36.8597 129.227 36.8597 129.176V129.034C36.8597 129.034 36.8597 128.996 36.8597 128.977C36.8597 128.957 36.8597 128.899 36.8597 128.861C36.8566 128.841 36.8566 128.822 36.8597 128.803C36.8597 128.719 36.8597 128.629 36.8597 128.539C36.8558 128.462 36.8558 128.384 36.8597 128.307C36.8597 128.23 36.8597 128.153 36.8274 128.069C36.8306 128.026 36.8306 127.983 36.8274 127.94C36.8306 127.895 36.8306 127.85 36.8274 127.805C36.8274 127.76 36.8274 127.715 36.8274 127.664C36.8274 127.612 36.8274 127.574 36.8274 127.522C36.7564 126.801 36.679 125.9 36.6145 124.832V124.536C36.6145 124.465 36.6145 124.394 36.6145 124.317L36.5757 123.629C36.5757 123.545 36.5757 123.468 36.5757 123.384C36.5757 122.985 36.5369 122.56 36.524 122.097C36.524 122.007 36.524 121.917 36.524 121.827C36.524 121.408 36.524 120.971 36.524 120.54V120.347C36.524 118.332 36.5241 116.016 36.6532 113.429C36.7754 111.052 37.0643 108.686 37.5182 106.35C38.3398 102.084 39.5721 97.9076 41.1979 93.8779C41.1979 93.8779 40.7139 92.9062 38.435 87.7257C36.1562 82.5452 36.0786 79.1409 37.2213 77.6865C38.3639 76.2321 41.0946 75.7559 41.1979 75.7559C41.1075 75.801 38.6932 76.9657 39.4937 82.3715C40.3071 87.8737 43.9609 94.1932 43.9609 94.1932C43.1397 96.4731 42.4923 98.8115 42.0242 101.188C41.547 103.499 41.2705 105.846 41.1979 108.203C40.7589 113.596 41.4498 124.755 41.8113 130.141Z" fill="#768BBF"/>
<path d="M61.1917 127.033C61.1917 127.033 58.1059 128.963 50.2171 129.948C48.2554 130.187 46.2796 130.292 44.3036 130.263H43.8905H43.6774H43.2643H43.0577L41.8054 130.18H41.6955H41.5147H41.2436H41.0629H40.9661H40.7142L40.327 130.135L40.0107 130.096L39.4296 130.019L39.1714 129.98H39.01L38.7905 129.942H38.6614L38.4226 129.903H38.3063C37.9319 129.839 37.622 129.774 37.3896 129.723L37.2606 129.691H37.183H37.1315L36.8538 129.626C36.8538 129.626 36.8538 129.588 36.8538 129.523C36.8506 129.508 36.8506 129.493 36.8538 129.478C36.8538 129.44 36.8538 129.395 36.8538 129.343C36.8538 129.304 36.8538 129.266 36.8538 129.214V129.073C36.8538 129.073 36.8538 129.034 36.8538 129.015C36.8538 128.996 36.8538 128.938 36.8538 128.899C36.8506 128.88 36.8506 128.86 36.8538 128.841C36.8538 128.757 36.8538 128.667 36.8538 128.577C36.8499 128.5 36.8499 128.423 36.8538 128.346C36.8538 128.268 36.8539 128.191 36.8216 128.107C36.8248 128.065 36.8248 128.022 36.8216 127.979C36.8248 127.934 36.8248 127.889 36.8216 127.844C36.8216 127.799 36.8216 127.754 36.8216 127.702C36.8216 127.651 36.8216 127.612 36.8216 127.56C36.7743 127.131 36.729 126.623 36.6859 126.035C36.6859 125.668 36.6344 125.282 36.6085 124.87V124.536C36.6085 124.465 36.6085 124.394 36.6085 124.317L36.5698 123.628C36.5698 123.545 36.5698 123.468 36.5698 123.384C36.5698 122.985 36.531 122.56 36.5181 122.097C36.5181 122.007 36.5181 121.917 36.5181 121.827C36.5181 121.408 36.5181 120.971 36.5181 120.539V120.346C36.5181 118.332 36.5182 116.015 36.6473 113.428C36.686 112.592 36.7505 111.768 36.8344 110.944C36.9958 109.381 37.2347 107.842 37.5123 106.382C38.4096 105.403 39.4489 104.303 40.5464 103.061C41.072 102.481 41.5635 101.87 42.0183 101.233C48.7451 91.9406 51.6696 74.4493 51.6696 74.4493C51.6696 74.4493 54.8974 73.9087 55.8141 77.0685C57.202 81.9658 55.2459 93.6718 55.2459 93.6718L55.3364 93.8134C55.3385 93.8326 55.3385 93.852 55.3364 93.8713C55.3446 93.8918 55.3555 93.9113 55.3687 93.9292L55.5301 94.2123L55.5687 94.2767C55.7107 94.5405 55.8915 94.8816 56.0916 95.3128L56.1692 95.4673C56.2079 95.5574 56.2531 95.6474 56.2918 95.744L56.5306 96.2845C56.5306 96.336 56.5758 96.3875 56.5952 96.4454C56.6146 96.5033 56.7049 96.6964 56.7566 96.8251C56.8082 96.9538 56.8146 96.9795 56.8469 97.0503L56.8986 97.179C56.8986 97.2241 56.9309 97.2756 56.9503 97.327L57.0277 97.5201L57.0923 97.6939C57.0923 97.784 57.1632 97.8741 57.1955 97.9706C57.2278 98.0671 57.2278 98.0736 57.2472 98.1251C57.2666 98.1766 57.344 98.3825 57.3892 98.5176V98.5691C57.3892 98.6335 57.4345 98.7042 57.4538 98.775C57.5442 99.0389 57.641 99.3156 57.7314 99.6052L57.8152 99.8819C57.9788 100.41 58.1402 100.969 58.2994 101.562L58.3576 101.793C58.4867 102.287 58.6159 102.808 58.745 103.357C60.0555 110.108 61.1917 127.033 61.1917 127.033Z" fill="#D05663"/>
<path d="M41.8112 130.141H41.7014H41.5206H41.2495H41.0687H40.972H40.7201L40.3329 130.096L40.0165 130.058L39.4354 129.98L39.1773 129.942H39.0159L38.7963 129.903H38.6672L38.4285 129.865H38.3122C37.9377 129.8 37.6279 129.736 37.3955 129.684L37.2664 129.652H37.1889H37.1373L36.8596 129.588C36.8596 129.588 36.8596 129.549 36.8596 129.485C36.8565 129.47 36.8565 129.455 36.8596 129.44C36.8596 129.401 36.8596 129.356 36.8596 129.305C36.8596 129.266 36.8596 129.228 36.8596 129.176V129.034C36.8596 129.034 36.8596 128.996 36.8596 128.977C36.8596 128.957 36.8596 128.899 36.8596 128.861C36.8565 128.841 36.8565 128.822 36.8596 128.803C36.8596 128.719 36.8596 128.629 36.8596 128.539C36.8558 128.462 36.8558 128.384 36.8596 128.307C36.8596 128.23 36.8596 128.153 36.8273 128.069C36.8305 128.026 36.8305 127.983 36.8273 127.94C36.8305 127.895 36.8305 127.85 36.8273 127.805C36.8273 127.76 36.8273 127.715 36.8273 127.664C36.8273 127.612 36.8273 127.574 36.8273 127.522C36.7563 126.801 36.6789 125.9 36.6144 124.832V124.536C36.6144 124.465 36.6144 124.395 36.6144 124.317L36.5756 123.629C36.5756 123.545 36.5756 123.468 36.5756 123.384C36.5756 122.985 36.5368 122.56 36.5239 122.097C36.5239 122.007 36.5239 121.917 36.5239 121.827C36.5239 121.408 36.5239 120.971 36.5239 120.54V120.347C36.5239 118.332 36.5241 116.016 36.6532 113.429C36.7753 111.052 37.0643 108.686 37.5181 106.35C38.4155 105.372 39.4548 104.271 40.5522 103.029C41.0779 102.449 41.5694 101.838 42.0241 101.201C41.5469 103.512 41.2705 105.858 41.1978 108.216C40.7588 113.596 41.4497 124.755 41.8112 130.141Z" fill="#AE3658"/>
<path d="M56.2332 101.678C55.097 106.298 52.9087 111.562 49.2483 117.502C47.0403 121.022 44.4863 124.314 41.6242 127.329L39.1645 129.839H39.0031L38.7836 129.8H38.6545L38.4157 129.762H38.2994L37.7895 129.665H37.6991L37.3828 129.601L37.2537 129.568H37.1761H37.1246L36.9567 129.53H36.918H36.8469C36.8469 129.53 36.8469 129.491 36.8469 129.427C36.8438 129.412 36.8438 129.397 36.8469 129.382C36.8469 129.343 36.8469 129.298 36.8469 129.247C36.8469 129.208 36.8469 129.169 36.8469 129.118V128.976C36.8469 128.976 36.8469 128.938 36.8469 128.918C36.8469 128.899 36.8469 128.841 36.8469 128.803C36.8438 128.783 36.8438 128.764 36.8469 128.745C36.8469 128.745 36.8469 128.693 36.8469 128.674V128.481C36.843 128.404 36.843 128.326 36.8469 128.249C36.8469 128.172 36.847 128.095 36.8147 128.011C36.8179 127.968 36.8179 127.925 36.8147 127.882C36.8179 127.837 36.8179 127.792 36.8147 127.747C36.8147 127.702 36.8147 127.657 36.8147 127.606C36.8147 127.554 36.8147 127.516 36.8147 127.464C36.8147 127.374 36.8147 127.284 36.8147 127.194C36.8147 127.104 36.8147 127.001 36.8147 126.898C36.8147 126.795 36.8147 126.692 36.7824 126.582C36.7501 126.473 36.7824 126.447 36.7824 126.37C36.7824 126.293 36.7824 126.132 36.7824 126.003C36.7824 125.875 36.7824 125.746 36.7824 125.611C36.7824 125.476 36.7824 125.45 36.7824 125.36L36.7437 124.781C38.4546 123.416 40.0781 121.946 41.6048 120.379C53.7156 107.946 55.323 93.8586 55.323 93.8586C55.323 93.8586 55.3811 93.9422 55.4844 94.1159C56.6862 96.4508 56.9538 99.1535 56.2332 101.678Z" fill="#FFB14A"/>
<path d="M41.6242 127.329L39.1645 129.839H39.0031L38.7836 129.8H38.6545L38.4157 129.762H38.2994L37.7895 129.665H37.6991L37.3828 129.601L37.2537 129.568H37.1761H37.1246L36.9567 129.53H36.918H36.8469C36.8469 129.53 36.8469 129.491 36.8469 129.427C36.8438 129.412 36.8438 129.397 36.8469 129.382C36.8469 129.343 36.8469 129.298 36.8469 129.247C36.8469 129.208 36.8469 129.169 36.8469 129.118V128.976C36.8469 128.976 36.8469 128.938 36.8469 128.918C36.8469 128.899 36.8469 128.841 36.8469 128.803C36.8438 128.783 36.8438 128.764 36.8469 128.745C36.8469 128.745 36.8469 128.693 36.8469 128.674V128.481C36.843 128.404 36.843 128.326 36.8469 128.249C36.8469 128.172 36.847 128.095 36.8147 128.011C36.8179 127.968 36.8179 127.925 36.8147 127.882C36.8179 127.837 36.8179 127.792 36.8147 127.747C36.8147 127.702 36.8147 127.657 36.8147 127.606C36.8147 127.554 36.8147 127.516 36.8147 127.464C36.8147 127.374 36.8147 127.284 36.8147 127.194C36.8147 127.104 36.8147 127.001 36.8147 126.898C36.8147 126.795 36.8147 126.692 36.7824 126.582C36.7501 126.473 36.7824 126.447 36.7824 126.37C36.7824 126.293 36.7824 126.132 36.7824 126.003C36.7824 125.875 36.7824 125.746 36.7824 125.611C36.7824 125.476 36.7824 125.45 36.7824 125.36L36.7437 124.781C38.4546 123.416 40.0781 121.946 41.6048 120.379C41.3465 122.728 41.495 125.218 41.6242 127.329Z" fill="#E09F34"/>
<path d="M45.9107 119.388C45.8547 119.297 45.7771 119.222 45.6848 119.169H45.6461C45.5464 119.11 45.4327 119.079 45.3168 119.079C45.2031 119.08 45.0918 119.111 44.994 119.169C44.8962 119.225 44.815 119.307 44.7586 119.404C44.7021 119.502 44.6724 119.613 44.6724 119.726C44.6724 119.838 44.7021 119.949 44.7586 120.047C44.815 120.144 44.8962 120.226 44.994 120.282C45.0918 120.34 45.2031 120.371 45.3168 120.372C45.4327 120.372 45.5464 120.341 45.6461 120.282H45.6848C45.7779 120.227 45.8555 120.15 45.9107 120.057C45.9654 119.961 45.9944 119.852 45.9947 119.742C45.9984 119.618 45.9694 119.496 45.9107 119.388Z" fill="#D05663"/>
<path d="M47.6665 115.81C47.5288 115.824 47.4015 115.889 47.3089 115.992C47.2164 116.095 47.165 116.228 47.165 116.366C47.165 116.504 47.2164 116.638 47.3089 116.74C47.4015 116.843 47.5288 116.908 47.6665 116.923C47.8043 116.908 47.9317 116.843 48.0243 116.74C48.1169 116.638 48.1681 116.504 48.1681 116.366C48.1681 116.228 48.1169 116.095 48.0243 115.992C47.9317 115.889 47.8043 115.824 47.6665 115.81Z" fill="#D05663"/>
<path d="M49.526 112.174C49.4081 112.187 49.2993 112.244 49.2203 112.332C49.1413 112.42 49.0977 112.535 49.0977 112.653C49.0977 112.771 49.1413 112.886 49.2203 112.974C49.2993 113.062 49.4081 113.119 49.526 113.133C49.644 113.119 49.7528 113.062 49.8318 112.974C49.9108 112.886 49.9544 112.771 49.9544 112.653C49.9544 112.535 49.9108 112.42 49.8318 112.332C49.7528 112.244 49.644 112.187 49.526 112.174Z" fill="#D05663"/>
<path d="M43.5157 121.717C43.39 121.598 43.2244 121.529 43.0509 121.524H42.8895C42.8022 121.523 42.7159 121.543 42.6377 121.582C42.5563 121.608 42.4831 121.655 42.4247 121.717C42.3608 121.774 42.3139 121.848 42.2892 121.93C42.2493 122.007 42.2314 122.094 42.2375 122.181C42.2361 122.266 42.252 122.351 42.2841 122.431C42.3163 122.511 42.3641 122.583 42.4247 122.644C42.4853 122.705 42.5577 122.754 42.6375 122.787C42.7174 122.821 42.803 122.837 42.8895 122.837H43.0509C43.2247 122.833 43.3907 122.764 43.5157 122.644C43.574 122.586 43.6182 122.516 43.6448 122.438C43.6897 122.362 43.7101 122.275 43.7029 122.187C43.7052 122.1 43.6897 122.014 43.6576 121.933C43.6254 121.852 43.5771 121.779 43.5157 121.717Z" fill="#D05663"/>
<path d="M51.5527 108.068C51.4054 108.068 51.2642 108.126 51.1601 108.23C51.0559 108.334 50.9976 108.475 50.9976 108.621C50.9976 108.768 51.0559 108.909 51.1601 109.013C51.2642 109.117 51.4054 109.175 51.5527 109.175C51.6999 109.175 51.8411 109.117 51.9453 109.013C52.0494 108.909 52.1079 108.768 52.1079 108.621C52.1079 108.475 52.0494 108.334 51.9453 108.23C51.8411 108.126 51.6999 108.068 51.5527 108.068Z" fill="#D05663"/>
<path d="M53.5738 104.734C53.4419 104.734 53.3155 104.786 53.2223 104.879C53.1291 104.972 53.0767 105.098 53.0767 105.23C53.0767 105.361 53.1291 105.487 53.2223 105.58C53.3155 105.673 53.4419 105.725 53.5738 105.725C53.7056 105.725 53.832 105.673 53.9252 105.58C54.0184 105.487 54.0709 105.361 54.0709 105.23C54.0709 105.098 54.0184 104.972 53.9252 104.879C53.832 104.786 53.7056 104.734 53.5738 104.734Z" fill="#D05663"/>
<path d="M55.5746 100.963C55.562 100.896 55.5307 100.834 55.4843 100.783C55.4463 100.727 55.3954 100.681 55.3358 100.648C55.254 100.599 55.1599 100.575 55.0646 100.577C54.9947 100.569 54.9242 100.585 54.8646 100.622C54.7987 100.641 54.7387 100.677 54.6903 100.725L54.6127 100.835C54.5751 100.892 54.553 100.959 54.5483 101.028C54.5353 101.074 54.5353 101.123 54.5483 101.169C54.553 101.238 54.5751 101.304 54.6127 101.362C54.6807 101.479 54.792 101.565 54.9226 101.6C55.0598 101.635 55.2052 101.617 55.3294 101.549C55.4068 101.504 55.4713 101.44 55.5166 101.362C55.5534 101.302 55.5754 101.233 55.5811 101.163C55.5971 101.097 55.5949 101.028 55.5746 100.963Z" fill="#D05663"/>
<path d="M55.7106 97.6876C55.7202 97.6474 55.7202 97.6055 55.7106 97.5653V97.443L55.6655 97.34C55.6179 97.2554 55.5427 97.1895 55.4524 97.1534C55.3766 97.1236 55.2947 97.1125 55.2136 97.1212C55.1167 97.1335 55.0261 97.1764 54.9553 97.2435C54.9025 97.302 54.8644 97.3722 54.8442 97.4483C54.824 97.5244 54.8223 97.6042 54.8391 97.6811C54.8689 97.7743 54.9249 97.857 55.0005 97.9192C55.0312 97.9446 55.0661 97.9642 55.1038 97.9771C55.1581 98.0033 55.2178 98.0166 55.2781 98.0157H55.4007C55.4816 98.0032 55.5561 97.9641 55.6122 97.9047C55.6683 97.8452 55.7029 97.7688 55.7106 97.6876Z" fill="#D05663"/>
<path d="M51.3593 74.4494C51.3593 74.4494 49.9779 78.4973 46.5693 78.9027C43.1607 79.3081 40.8818 75.8008 40.8818 75.8008C40.8818 75.8008 44.213 75.8008 44.2969 74.2628C44.2969 73.8123 44.2969 72.9435 44.2969 72.1648C44.2969 71.3861 44.2389 70.6396 44.2389 70.6396L48.0218 72.1327C48.0218 72.1327 47.7508 73.7737 48.2737 74.5009C48.3203 74.5611 48.3721 74.6171 48.4286 74.6682C49.1387 75.2603 51.3593 74.4494 51.3593 74.4494Z" fill="#DC8D75"/>
<path d="M48.254 74.5011C47.8667 74.5588 47.4728 74.5588 47.0855 74.5011C46.4566 74.3895 45.8674 74.1174 45.3753 73.7114C44.8832 73.3054 44.5048 72.7793 44.2772 72.1843C44.2772 71.367 44.2192 70.6591 44.2192 70.6591L48.0022 72.1521C48.0022 72.1521 47.7182 73.7739 48.254 74.5011Z" fill="#C87559"/>
<path d="M50.6556 67.7052C50.6556 67.7052 51.4302 66.9781 51.9983 67.7052C52.5664 68.4324 51.5077 70.1314 50.5781 70.0091C49.6484 69.8868 50.6556 67.7052 50.6556 67.7052Z" fill="#C87559"/>
<path d="M51.0109 67.5312C51.0109 68.2391 51.0108 69.3139 50.9011 70.1054C50.7655 71.4311 50.2555 73.2652 48.3576 73.426C47.4734 73.3886 46.6172 73.1054 45.886 72.6085C45.1547 72.1115 44.5776 71.4206 44.2196 70.6138C43.9549 70.7747 43.6409 70.8353 43.3351 70.7845C43.0293 70.7337 42.752 70.5748 42.554 70.3371C42.3061 70.1221 42.1535 69.8182 42.1294 69.4916C42.1052 69.1649 42.2114 68.842 42.4249 68.5931C42.8509 68.2198 43.5352 68.947 43.5352 68.947L43.4577 68.3936C43.4577 68.2391 43.4126 68.0396 43.3738 67.7887C45.5946 67.3832 48.1703 65.9224 48.4673 64.0883C48.6164 64.7208 48.93 65.303 49.3765 65.7763C49.823 66.2497 50.3868 66.5975 51.0109 66.7847C51.0109 66.7847 51.0174 67.1001 51.0109 67.5312Z" fill="#DC8D75"/>
<path d="M51.0111 67.5314C49.2229 67.5314 48.5127 65.3627 48.5127 65.3627C48.3778 65.8414 48.1461 66.2875 47.832 66.6738C47.5178 67.06 47.1277 67.3781 46.6857 67.6087C45.7027 68.1632 44.587 68.4413 43.4579 68.4131C43.4579 68.2586 43.4128 68.0591 43.374 67.8081C45.5948 67.4027 48.1705 65.9419 48.4675 64.1078C48.6166 64.7403 48.9302 65.3225 49.3767 65.7958C49.8232 66.2691 50.387 66.6169 51.0111 66.8042C51.0111 66.8042 51.0176 67.1003 51.0111 67.5314Z" fill="#C87559"/>
<path d="M46.0982 69.52C46.0982 69.6616 45.7238 69.7195 45.3235 69.6423C44.9233 69.565 44.6328 69.3848 44.678 69.2368C44.7232 69.0888 45.0524 69.0373 45.4526 69.1146C45.8529 69.1918 46.124 69.372 46.0982 69.52Z" fill="#C87559"/>
<path d="M49.7261 69.52C49.7261 69.6616 50.1005 69.7195 50.4943 69.6423C50.8881 69.565 51.1851 69.3848 51.1399 69.2368C51.0947 69.0888 50.7655 69.0373 50.3717 69.1146C49.9779 69.1918 49.6939 69.372 49.7261 69.52Z" fill="#C87559"/>
<path d="M47.467 72.5895C47.467 72.834 48.6548 72.8083 48.6806 72.5895C48.7322 72.0811 47.4476 72.1583 47.467 72.5895Z" fill="#C87559"/>
<path d="M42.6766 69.7644C42.5704 69.5482 42.5497 69.3001 42.6186 69.0694C42.7541 68.7669 43.3221 68.9536 43.7804 69.6357C43.7167 69.646 43.6572 69.6738 43.6083 69.7159C43.5595 69.758 43.5234 69.8129 43.504 69.8743C43.4846 69.9357 43.4826 70.0012 43.4983 70.0636C43.5141 70.1261 43.5471 70.1829 43.5934 70.2278C43.787 70.4787 44.2389 70.2278 44.2389 70.2278C44.1839 70.3475 44.0909 70.4458 43.9741 70.5075C43.8574 70.5691 43.7236 70.5907 43.5934 70.5689C43.4661 70.5724 43.3399 70.5435 43.2269 70.4849C43.114 70.4264 43.018 70.3401 42.9478 70.2342C43.1212 70.3309 43.3172 70.3798 43.5158 70.3758C43.193 70.1312 43.1543 69.9253 43.2383 69.7709C43.2768 69.7236 43.3249 69.6848 43.3793 69.6571C43.4338 69.6294 43.4935 69.6133 43.5546 69.61C43.5546 69.61 43.0058 69.1981 42.825 69.2689C42.6443 69.3397 42.6766 69.7644 42.6766 69.7644Z" fill="#C87559"/>
<path d="M47.7183 63.4642C47.7183 63.4642 43.8449 62.4538 42.1148 65.9353L43.5802 65.3304L41.708 67.0294C41.708 67.0294 44.7939 66.9907 46.1754 65.8131C46.9454 65.2303 47.4903 64.4007 47.7183 63.4642Z" fill="#522F2C"/>
<path d="M48.6154 67.4606C48.3773 67.932 48.2746 68.4598 48.3185 68.9858C48.3631 69.2039 48.4565 69.4092 48.5918 69.5864C48.727 69.7635 48.9006 69.908 49.0996 70.009C48.9075 69.6289 48.7623 69.227 48.6671 68.812C48.615 68.3636 48.5976 67.9117 48.6154 67.4606Z" fill="#AA533B"/>
<path d="M47.7182 68.9214C47.444 68.6898 47.107 68.5442 46.7499 68.5032C46.4408 68.4544 46.1252 68.4653 45.8203 68.5353C45.9457 68.4023 46.098 68.2973 46.2671 68.2274C46.4363 68.1575 46.6185 68.1242 46.8016 68.1299C47.3955 68.1685 47.7182 68.9214 47.7182 68.9214Z" fill="#522F2C"/>
<path d="M47.802 67.1516L47.6406 67.4991C47.3375 67.3952 47.0267 67.3156 46.711 67.261C46.435 67.2908 46.1611 67.3381 45.8911 67.4026C46.1373 67.2265 46.4096 67.0897 46.6981 66.9971C47.0698 67.0173 47.4391 67.0689 47.802 67.1516Z" fill="#522F2C"/>
<path d="M49.1772 68.7605C49.3887 68.5806 49.6496 68.4684 49.926 68.4387C50.1625 68.3907 50.4063 68.3907 50.6427 68.4387C50.5452 68.3355 50.4269 68.2541 50.2956 68.1998C50.1643 68.1454 50.0231 68.1194 49.881 68.1234C49.4226 68.1813 49.1772 68.7605 49.1772 68.7605Z" fill="#522F2C"/>
<path d="M49.248 67.2611L49.1704 67.5571C49.4715 67.4749 49.7777 67.4126 50.0871 67.3705C50.2893 67.3843 50.4902 67.4144 50.6875 67.4606C50.4738 67.303 50.2332 67.1852 49.9774 67.1131C49.7274 67.1196 49.4806 67.1697 49.248 67.2611Z" fill="#522F2C"/>
<path d="M46.6533 70.0734C46.7246 70.3595 46.8621 70.625 47.0549 70.8486C47.2477 71.0721 47.4905 71.2474 47.7637 71.3605C48.6675 71.6887 49.539 70.7169 49.539 70.7169C49.0478 70.9047 48.512 70.9437 47.9987 70.8292C47.4854 70.7148 47.0174 70.4518 46.6533 70.0734Z" fill="#AA533B"/>
<path d="M48.9449 66.2185C48.9301 66.3093 48.896 66.396 48.8448 66.4726C48.7936 66.5492 48.7264 66.614 48.6479 66.6625C48.5576 66.6178 48.479 66.5526 48.4185 66.4721C48.3579 66.3916 48.3171 66.2982 48.2993 66.1992C48.2993 66.0318 48.4801 65.6972 48.6156 65.6843C48.7512 65.6714 48.9642 66.0254 48.9449 66.2185Z" fill="#F5E284"/>
<path d="M48.945 66.2184C48.9302 66.3093 48.8961 66.396 48.8449 66.4726C48.7937 66.5492 48.7265 66.6139 48.648 66.6625C48.648 66.3858 48.6157 65.7358 48.6157 65.6843C48.7319 65.6843 48.9643 66.0254 48.945 66.2184Z" fill="#ECBF54"/>
<path d="M48.7899 66.1992C48.7841 66.248 48.7671 66.2949 48.7403 66.3362C48.7134 66.3775 48.6774 66.4121 48.635 66.4373C48.5769 66.4373 48.4478 66.2828 48.4478 66.1927C48.4478 66.1026 48.5446 65.9225 48.6156 65.916C48.6866 65.9096 48.8028 66.0962 48.7899 66.1992Z" fill="#D05663"/>
<path d="M48.6028 65.2598C48.5617 65.2598 48.5222 65.276 48.4931 65.305C48.4641 65.334 48.4478 65.3732 48.4478 65.4142C48.4478 65.4552 48.4641 65.4944 48.4931 65.5234C48.5222 65.5524 48.5617 65.5686 48.6028 65.5686C48.6439 65.5686 48.6833 65.5524 48.7124 65.5234C48.7414 65.4944 48.7578 65.4552 48.7578 65.4142C48.7578 65.3732 48.7414 65.334 48.7124 65.305C48.6833 65.276 48.6439 65.2598 48.6028 65.2598Z" fill="#F5E284"/>
<path d="M48.577 64.8607C48.5427 64.8607 48.5098 64.8743 48.4856 64.8984C48.4614 64.9225 48.4478 64.9553 48.4478 64.9894C48.4478 65.0235 48.4614 65.0563 48.4856 65.0804C48.5098 65.1045 48.5427 65.1181 48.577 65.1181C48.6112 65.1181 48.644 65.1045 48.6682 65.0804C48.6925 65.0563 48.7061 65.0235 48.7061 64.9894C48.7061 64.9553 48.6925 64.9225 48.6682 64.8984C48.644 64.8743 48.6112 64.8607 48.577 64.8607Z" fill="#F5E284"/>
<path d="M48.6546 64.5453C48.6452 64.5275 48.6316 64.5121 48.6152 64.5003C48.5987 64.4886 48.5797 64.4809 48.5597 64.4779C48.5397 64.4748 48.5192 64.4765 48.4999 64.4828C48.4807 64.4891 48.4632 64.4998 48.4489 64.5141C48.4346 64.5284 48.4238 64.5458 48.4175 64.565C48.4112 64.5842 48.4096 64.6046 48.4126 64.6245C48.4157 64.6445 48.4234 64.6634 48.4352 64.6799C48.4469 64.6963 48.4623 64.7097 48.4802 64.7191C48.5034 64.7421 48.5347 64.7551 48.5674 64.7551C48.6001 64.7551 48.6314 64.7421 48.6546 64.7191C48.6777 64.6961 48.6906 64.6648 48.6906 64.6322C48.6906 64.5996 48.6777 64.5684 48.6546 64.5453Z" fill="#F5E284"/>
<path d="M48.4606 64.0434C48.4264 64.0434 48.3936 64.057 48.3694 64.0811C48.3452 64.1052 48.3315 64.138 48.3315 64.1721C48.3315 64.2062 48.3452 64.239 48.3694 64.2631C48.3936 64.2872 48.4264 64.3008 48.4606 64.3008C48.4949 64.3008 48.5278 64.2872 48.552 64.2631C48.5763 64.239 48.5899 64.2062 48.5899 64.1721C48.5899 64.138 48.5763 64.1052 48.552 64.0811C48.5278 64.057 48.4949 64.0434 48.4606 64.0434Z" fill="#F5E284"/>
<path d="M48.4025 63.683C48.3783 63.683 48.3545 63.6901 48.3343 63.7036C48.3141 63.717 48.2985 63.7361 48.2892 63.7584C48.2799 63.7808 48.2774 63.8054 48.2821 63.8291C48.2868 63.8528 48.2985 63.8746 48.3157 63.8917C48.3328 63.9088 48.3548 63.9204 48.3786 63.9252C48.4024 63.9299 48.4271 63.9275 48.4495 63.9182C48.4719 63.909 48.491 63.8933 48.5045 63.8732C48.518 63.8531 48.5251 63.8294 48.5251 63.8052C48.5236 63.7733 48.5101 63.7431 48.4875 63.7205C48.4648 63.6979 48.4346 63.6845 48.4025 63.683Z" fill="#F5E284"/>
<path d="M48.3254 63.3354C48.3016 63.3413 48.2805 63.355 48.2654 63.3742C48.2503 63.3935 48.2422 63.4172 48.2422 63.4416C48.2422 63.4661 48.2503 63.4898 48.2654 63.509C48.2805 63.5283 48.3016 63.5419 48.3254 63.5478C48.3492 63.5419 48.3704 63.5283 48.3855 63.509C48.4006 63.4898 48.4088 63.4661 48.4088 63.4416C48.4088 63.4172 48.4006 63.3935 48.3855 63.3742C48.3704 63.355 48.3492 63.3413 48.3254 63.3354Z" fill="#F5E284"/>
<path d="M48.1444 63.0137C48.1153 63.0137 48.0874 63.0252 48.0668 63.0457C48.0462 63.0662 48.0347 63.0941 48.0347 63.1231C48.0347 63.1521 48.0462 63.1799 48.0668 63.2004C48.0874 63.2209 48.1153 63.2325 48.1444 63.2325C48.1735 63.2325 48.2015 63.2209 48.2221 63.2004C48.2426 63.1799 48.2542 63.1521 48.2542 63.1231C48.2542 63.0941 48.2426 63.0662 48.2221 63.0457C48.2015 63.0252 48.1735 63.0137 48.1444 63.0137Z" fill="#F5E284"/>
<path d="M47.9056 62.7563C47.8819 62.7622 47.8607 62.7758 47.8456 62.7951C47.8305 62.8143 47.8223 62.8381 47.8223 62.8625C47.8223 62.8869 47.8305 62.9107 47.8456 62.9299C47.8607 62.9491 47.8819 62.9628 47.9056 62.9687C47.9294 62.9628 47.9506 62.9491 47.9657 62.9299C47.9808 62.9107 47.989 62.8869 47.989 62.8625C47.989 62.8381 47.9808 62.8143 47.9657 62.7951C47.9506 62.7758 47.9294 62.7622 47.9056 62.7563Z" fill="#F5E284"/>
<path d="M69.6673 75.5563C69.5899 75.8845 69.5898 75.6914 68.9636 75.3117C68.8235 76.0026 68.5194 76.6499 68.0769 77.1996C67.6344 77.7494 67.0663 78.1854 66.4201 78.4715C65.0369 80.4837 63.3987 82.3093 61.5461 83.9029C59.0424 86.1265 56.1583 87.8834 53.0311 89.0898C52.3097 89.3726 51.5461 89.5335 50.7717 89.5661C48.5633 89.394 46.3992 88.8568 44.3677 87.9765C42.1186 87.1331 40.0474 85.8781 38.2607 84.2762C35.5429 81.6184 36.382 79.1279 37.034 78.1755C37.1097 78.062 37.1939 77.9545 37.2859 77.8537C38.7965 76.2642 43.4317 78.9863 47.3115 81.2516C48.7124 82.0689 50.0163 82.8282 51.0427 83.3044C53.4249 81.953 63.5796 78.0661 65.4453 77.2037C65.5619 75.9596 66.1535 74.8076 67.098 73.986C67.9372 73.2846 69.3446 72.9885 69.4027 73.1752C69.4608 73.3618 68.912 73.4776 67.9888 74.0954C68.3181 74.0954 68.3956 74.5523 68.3956 74.5523C68.6102 74.5294 68.8266 74.5294 69.0412 74.5523C69.2331 74.6397 69.3949 74.7815 69.5063 74.9601C69.6177 75.1387 69.6737 75.3461 69.6673 75.5563Z" fill="#DC8D75"/>
<path d="M47.2793 81.2516C46.5756 81.7536 45.3426 83.0342 44.6583 86.1232C44.5179 86.7348 44.4101 87.3535 44.3355 87.9766C42.0864 87.1331 40.0152 85.8781 38.2285 84.2762C35.5106 81.6184 36.3498 79.1279 37.0018 78.1755C37.0774 78.0621 37.1617 77.9545 37.2537 77.8537C38.7643 76.2706 43.3995 78.9863 47.2793 81.2516Z" fill="#768BBF"/>
<path d="M66.3879 78.4715C61.5139 85.6533 53.341 89.6175 50.7394 89.566C48.5311 89.394 46.3669 88.8568 44.3354 87.9765C44.4101 87.3535 44.5178 86.7348 44.6582 86.1231C47.3502 87.3394 50.0746 88.1631 51.3205 88.0022C53.7995 87.6805 61.5978 84.1668 66.3879 78.4715Z" fill="#C87559"/>
<path d="M44.6583 86.1231C44.5179 86.7348 44.4101 87.3535 44.3355 87.9765C42.0864 87.133 40.0152 85.8781 38.2285 84.2762C35.5106 81.6184 36.3498 79.1279 37.0018 78.1755C36.9007 79.5337 37.3311 80.8783 38.2026 81.9273C39.3259 83.3495 41.9792 84.9133 44.6583 86.1231Z" fill="#5B7DC0"/>
<path d="M64.0317 77.4741C64.0317 77.5964 65.9684 80.9943 66.1427 80.9557C66.3171 80.9171 66.6722 80.3508 66.6722 80.3508L64.5611 77.191L64.0317 77.4741Z" fill="#ECBF54"/>
<path d="M64.9678 76.869C64.9678 76.869 66.6721 79.5397 66.9045 79.4432C67.1369 79.3466 67.3113 78.9219 67.3113 78.9219L65.2776 76.528L64.9678 76.869Z" fill="#F5E284"/>
<path d="M119.077 152V109.255C119.048 107.641 119.373 106.041 120.027 104.567C120.682 103.093 121.651 101.781 122.866 100.722C124.549 99.1838 126.744 98.331 129.021 98.331C131.298 98.331 133.493 99.1838 135.176 100.722C136.392 101.78 137.363 103.092 138.02 104.566C138.677 106.04 139.004 107.64 138.978 109.255V152H157.443V91.641H100.652V152H119.077Z" fill="#5F3D30"/>
<path d="M135.545 46.1386L135.449 46.4129L134.697 48.7038C134.624 48.92 134.489 49.1097 134.309 49.2489C134.129 49.3881 133.912 49.4705 133.685 49.4858H124.315C124.162 49.4804 124.012 49.4421 123.875 49.3734C123.738 49.3048 123.618 49.2074 123.522 49.0879C123.429 48.9726 123.355 48.8429 123.303 48.7038L122.551 46.4129L122.469 46.1386C122.264 45.5213 122.469 45 123.043 45H134.957C135.49 45 135.736 45.5213 135.545 46.1386Z" fill="#CE800C"/>
<path d="M135.45 46.4816L134.697 48.7726C134.652 48.9145 134.578 49.0453 134.479 49.1567H123.536C123.443 49.0413 123.369 48.9116 123.317 48.7726L122.565 46.4816H135.45Z" fill="#E09F34"/>
<path d="M138.089 47.1402C137.797 47.0258 137.486 46.9654 137.173 46.9619H120.759C120.45 46.9655 120.144 47.026 119.856 47.1402C116.491 48.512 110.5 51.2556 110.5 51.2556L112.525 52.9018H145.475L147.499 51.2556C147.499 51.2556 141.508 48.4572 138.089 47.1402Z" fill="#E09F34"/>
<path d="M147.458 51.2829H110.446V55.8373H147.458V51.2829Z" fill="#CE800C"/>
<path d="M147.458 52.6963H110.446V55.8514H147.458V52.6963Z" fill="#E09F34"/>
<path d="M167.524 78.7871H90.4624V84H167.524V78.7871Z" fill="#CE800C"/>
<path d="M158.073 53.4779H99.8188V62.9022H158.073V53.4779Z" fill="#CE800C"/>
<g style="mix-blend-mode:multiply" opacity="0.5">
<path d="M158.073 57.0581H99.8188V62.902H158.073V57.0581Z" fill="#E09F34"/>
</g>
<path d="M160.083 58.1834H97.7935V67.6077H160.083V58.1834Z" fill="#E09F34"/>
<path d="M142.561 65.2205V59.5961H115.329V65.2205H97.7935V67.6074H115.329H142.561H160.083V65.2205H142.561Z" fill="#E09F34"/>
<path d="M141.44 60.7073H116.437V65.2617H141.44V60.7073Z" fill="#E09F34"/>
<path d="M140.565 61.5714H117.326V64.3973H140.565V61.5714Z" fill="#CE800C"/>
<path d="M139.512 62.2573H118.379V63.6977H139.512V62.2573Z" fill="#FFC578"/>
<path d="M164.706 66.5649H93.1704V73.1358H164.706V66.5649Z" fill="#CE800C"/>
<g style="mix-blend-mode:multiply" opacity="0.5">
<path d="M164.706 69.9254H93.1704V73.1354H164.706V69.9254Z" fill="#E09F34"/>
</g>
<path d="M166.731 70.9958H91.1602V79.4049H166.731V70.9958Z" fill="#E09F34"/>
<path d="M166.731 77.1273H91.1602V79.3907H166.731V77.1273Z" fill="#E09F34"/>
<path d="M166.539 83.7532V148.557H142.411V107.65C142.411 101.271 136.407 96.0994 128.994 96.0994C121.58 96.0994 115.589 101.271 115.589 107.65V148.557H91.4609V83.7532H166.539Z" fill="#E09F34"/>
<g style="mix-blend-mode:multiply" opacity="0.5">
<path d="M91.4609 83.7531V87.7451L126.094 89.4324V91.5175C117.353 92.7659 110.651 99.5151 110.651 107.65V109.584H91.502V113.082H110.651V120.558H91.502V124.07H110.651V143.879H91.502V148.612H115.63V107.65C115.63 101.271 121.634 96.0993 129.034 96.0993C136.434 96.0993 142.452 101.271 142.452 107.65V148.557H166.581V143.879H147.431V124.084H166.581V120.558H147.431V113.096H166.581V109.584H147.431V107.622C147.431 99.4876 140.729 92.7384 131.975 91.4901V89.6793L166.622 91.3666V83.7257L91.4609 83.7531Z" fill="#E09F34"/>
</g>
<path d="M168.687 81.4216H89.2998V84.9197H168.687V81.4216Z" fill="#E09F34"/>
<path d="M169.686 78.4717H88.1924V80.3098H169.686V78.4717Z" fill="#CE800C"/>
<path d="M106.206 97.0873C106.206 98.1997 105.877 99.2871 105.261 100.212C104.644 101.137 103.768 101.858 102.744 102.283C101.719 102.709 100.591 102.821 99.5035 102.603C98.4157 102.386 97.4166 101.851 96.6323 101.064C95.848 100.278 95.3139 99.2755 95.0976 98.1845C94.8812 97.0935 94.992 95.9626 95.4165 94.9349C95.8409 93.9072 96.56 93.0287 97.4822 92.4107C98.4044 91.7927 99.4886 91.4629 100.598 91.4629C102.085 91.4629 103.512 92.0554 104.563 93.1102C105.615 94.165 106.206 95.5956 106.206 97.0873Z" fill="#FFC578"/>
<path d="M105.289 97.0871C105.289 98.0177 105.014 98.9274 104.499 99.7012C103.983 100.475 103.25 101.078 102.393 101.434C101.536 101.79 100.593 101.883 99.6827 101.702C98.7726 101.52 97.9365 101.072 97.2803 100.414C96.6242 99.7561 96.1774 98.9177 95.9964 98.005C95.8153 97.0923 95.9084 96.1462 96.2635 95.2865C96.6186 94.4267 97.2198 93.6919 97.9913 93.1748C98.7628 92.6578 99.6701 92.3819 100.598 92.3819C101.842 92.3819 103.035 92.8775 103.915 93.7599C104.795 94.6423 105.289 95.8392 105.289 97.0871Z" fill="#5F3D30"/>
<path d="M103.908 97.0875C103.908 97.7441 103.714 98.3859 103.35 98.9319C102.986 99.4778 102.47 99.9033 101.865 100.155C101.26 100.406 100.594 100.472 99.9524 100.343C99.3103 100.215 98.7206 99.8992 98.2577 99.4349C97.7947 98.9706 97.4794 98.3791 97.3517 97.7351C97.224 97.0912 97.2895 96.4237 97.54 95.8171C97.7906 95.2105 98.2149 94.692 98.7592 94.3273C99.3036 93.9625 99.9435 93.7677 100.598 93.7677C101.476 93.7677 102.318 94.1175 102.939 94.74C103.56 95.3626 103.908 96.2071 103.908 97.0875Z" fill="#CE800C"/>
<path d="M102.157 97.0872C102.157 97.3965 102.066 97.6989 101.894 97.956C101.723 98.2132 101.48 98.4136 101.195 98.532C100.91 98.6503 100.596 98.6813 100.294 98.621C99.9912 98.5606 99.7134 98.4117 99.4953 98.193C99.2772 97.9743 99.1287 97.6956 99.0685 97.3923C99.0083 97.0889 99.0393 96.7745 99.1573 96.4887C99.2754 96.2029 99.4749 95.9587 99.7314 95.7869C99.9878 95.6151 100.29 95.5233 100.598 95.5233C101.011 95.5233 101.408 95.6881 101.7 95.9814C101.993 96.2747 102.157 96.6724 102.157 97.0872Z" fill="#EAD1AA"/>
<path d="M162.997 97.0873C162.997 98.1997 162.668 99.2871 162.052 100.212C161.435 101.137 160.559 101.858 159.535 102.283C158.51 102.709 157.382 102.821 156.295 102.603C155.207 102.386 154.208 101.851 153.423 101.064C152.639 100.278 152.105 99.2755 151.889 98.1845C151.672 97.0935 151.783 95.9626 152.207 94.9349C152.632 93.9072 153.351 93.0287 154.273 92.4107C155.195 91.7927 156.28 91.4629 157.389 91.4629C158.875 91.4665 160.299 92.0602 161.35 93.1142C162.401 94.1682 162.993 95.5967 162.997 97.0873Z" fill="#FFC578"/>
<path d="M162.026 97.0871C162.026 98.0177 161.751 98.9274 161.235 99.7012C160.719 100.475 159.987 101.078 159.13 101.434C158.272 101.79 157.329 101.883 156.419 101.702C155.509 101.52 154.673 101.072 154.017 100.414C153.361 99.7561 152.914 98.9177 152.733 98.005C152.552 97.0923 152.645 96.1462 153 95.2865C153.355 94.4267 153.956 93.6919 154.728 93.1748C155.499 92.6578 156.406 92.3819 157.334 92.3819C158.579 92.3819 159.772 92.8775 160.652 93.7599C161.531 94.6423 162.026 95.8392 162.026 97.0871Z" fill="#5F3D30"/>
<path d="M160.658 97.0875C160.658 97.7441 160.463 98.3859 160.1 98.9319C159.736 99.4778 159.219 99.9033 158.614 100.155C158.009 100.406 157.344 100.472 156.702 100.343C156.06 100.215 155.47 99.8992 155.007 99.4349C154.544 98.9706 154.229 98.3791 154.101 97.7351C153.973 97.0912 154.039 96.4237 154.29 95.8171C154.54 95.2105 154.964 94.692 155.509 94.3273C156.053 93.9625 156.693 93.7677 157.348 93.7677C158.226 93.7677 159.068 94.1175 159.688 94.74C160.309 95.3626 160.658 96.2071 160.658 97.0875Z" fill="#CE800C"/>
<path d="M158.948 97.0872C158.948 97.3965 158.857 97.6989 158.685 97.956C158.514 98.2132 158.27 98.4136 157.985 98.532C157.7 98.6503 157.387 98.6813 157.085 98.621C156.782 98.5606 156.504 98.4117 156.286 98.193C156.068 97.9743 155.92 97.6956 155.86 97.3923C155.799 97.0889 155.83 96.7745 155.948 96.4887C156.066 96.2029 156.266 95.9587 156.522 95.7869C156.779 95.6151 157.081 95.5233 157.389 95.5233C157.802 95.5233 158.199 95.6881 158.491 95.9814C158.784 96.2747 158.948 96.6724 158.948 97.0872Z" fill="#EAD1AA"/>
<path d="M115.589 109.557H90.3936V111.793H115.589V109.557Z" fill="#E09F34"/>
<path d="M115.589 120.421H90.3936V122.753H115.589V120.421Z" fill="#E09F34"/>
<path d="M167.606 109.557H142.411V111.793H167.606V109.557Z" fill="#E09F34"/>
<path d="M167.606 120.421H142.411V122.753H167.606V120.421Z" fill="#E09F34"/>
<path d="M115.589 145.539H88V152H115.589V145.539Z" fill="#E09F34"/>
<path d="M170 145.539H142.411V152H170V145.539Z" fill="#E09F34"/>
<path d="M131.223 87.2517H126.764V91.9158H131.223V87.2517Z" fill="#E09F34"/>
<path d="M114.618 62.5455C114.618 63.2428 114.412 63.9244 114.026 64.5042C113.639 65.084 113.09 65.5359 112.448 65.8027C111.806 66.0695 111.099 66.1393 110.417 66.0033C109.735 65.8673 109.109 65.5315 108.617 65.0384C108.125 64.5454 107.791 63.9172 107.655 63.2333C107.519 62.5495 107.589 61.8406 107.855 61.1964C108.121 60.5522 108.572 60.0016 109.15 59.6142C109.728 59.2268 110.408 59.02 111.103 59.02C111.564 59.02 112.021 59.1112 112.448 59.2884C112.874 59.4656 113.262 59.7252 113.588 60.0526C113.915 60.38 114.174 60.7686 114.35 61.1964C114.527 61.6241 114.618 62.0825 114.618 62.5455Z" fill="#FFC578"/>
<path d="M114.043 62.5454C114.043 63.1288 113.871 63.699 113.547 64.184C113.224 64.669 112.765 65.0471 112.228 65.2703C111.69 65.4935 111.099 65.5519 110.529 65.4381C109.958 65.3243 109.434 65.0434 109.023 64.631C108.612 64.2185 108.332 63.693 108.218 63.1209C108.105 62.5487 108.163 61.9557 108.385 61.4168C108.608 60.8779 108.985 60.4172 109.468 60.0931C109.952 59.7691 110.521 59.5961 111.102 59.5961C111.881 59.5997 112.627 59.9116 113.178 60.4639C113.728 61.0163 114.039 61.7643 114.043 62.5454Z" fill="#CE800C"/>
<path d="M113.181 62.5456C113.184 62.9586 113.064 63.363 112.837 63.7077C112.611 64.0524 112.287 64.3218 111.907 64.4818C111.527 64.6417 111.109 64.685 110.705 64.6061C110.301 64.5272 109.929 64.3296 109.637 64.0386C109.345 63.7475 109.145 63.376 109.064 62.9712C108.983 62.5663 109.023 62.1464 109.18 61.7646C109.337 61.3828 109.603 61.0563 109.946 60.8266C110.288 60.5969 110.69 60.4742 111.102 60.4742C111.651 60.4742 112.178 60.692 112.567 61.0801C112.957 61.4681 113.177 61.995 113.181 62.5456Z" fill="#E09F34"/>
<path d="M112.087 62.5454C112.09 62.7413 112.034 62.9336 111.928 63.0978C111.821 63.262 111.668 63.3907 111.489 63.4676C111.309 63.5445 111.111 63.566 110.919 63.5294C110.727 63.4929 110.55 63.3999 110.411 63.2624C110.272 63.1248 110.177 62.9488 110.138 62.7569C110.098 62.5649 110.117 62.3656 110.191 62.1844C110.265 62.0031 110.391 61.848 110.554 61.7388C110.716 61.6297 110.907 61.5714 111.102 61.5714C111.361 61.5714 111.61 61.6735 111.794 61.8558C111.978 62.0381 112.084 62.2858 112.087 62.5454Z" fill="#FFC578"/>
<path d="M150.304 62.5455C150.307 63.2467 150.102 63.9329 149.715 64.517C149.328 65.1011 148.777 65.5569 148.132 65.8265C147.487 66.096 146.776 66.1673 146.09 66.0311C145.404 65.895 144.774 65.5576 144.28 65.0619C143.785 64.5661 143.449 63.9342 143.313 63.2463C143.178 62.5585 143.248 61.8458 143.517 61.1985C143.786 60.5513 144.241 59.9987 144.823 59.6108C145.405 59.223 146.09 59.0173 146.789 59.0201C147.721 59.0201 148.615 59.3915 149.274 60.0526C149.934 60.7138 150.304 61.6105 150.304 62.5455Z" fill="#FFC578"/>
<path d="M149.716 62.5455C149.718 63.1327 149.547 63.7075 149.223 64.1968C148.9 64.6862 148.438 65.0681 147.898 65.2941C147.358 65.52 146.763 65.5799 146.188 65.466C145.614 65.3521 145.086 65.0696 144.672 64.6544C144.258 64.2391 143.976 63.7099 143.863 63.1339C143.749 62.5578 143.809 61.9609 144.034 61.4189C144.26 60.8769 144.64 60.4143 145.128 60.0898C145.616 59.7652 146.189 59.5934 146.775 59.5961C147.554 59.5997 148.3 59.9116 148.85 60.464C149.401 61.0163 149.712 61.7644 149.716 62.5455Z" fill="#CE800C"/>
<path d="M148.867 62.5456C148.87 62.9586 148.751 63.363 148.524 63.7077C148.297 64.0524 147.973 64.3218 147.594 64.4818C147.214 64.6417 146.796 64.685 146.391 64.6061C145.987 64.5272 145.616 64.3296 145.323 64.0386C145.031 63.7475 144.832 63.376 144.75 62.9712C144.669 62.5663 144.71 62.1464 144.867 61.7646C145.024 61.3828 145.29 61.0563 145.632 60.8266C145.974 60.5969 146.377 60.4742 146.789 60.4742C147.338 60.4742 147.865 60.692 148.254 61.0801C148.644 61.4681 148.864 61.995 148.867 62.5456Z" fill="#E09F34"/>
<path d="M147.759 62.5454C147.762 62.7419 147.706 62.9348 147.599 63.0993C147.492 63.2638 147.338 63.3925 147.158 63.469C146.977 63.5454 146.778 63.5661 146.586 63.5284C146.394 63.4908 146.217 63.3964 146.078 63.2575C145.94 63.1185 145.845 62.9413 145.808 62.7484C145.77 62.5556 145.791 62.3559 145.867 62.1748C145.943 61.9938 146.072 61.8397 146.236 61.7322C146.4 61.6247 146.592 61.5688 146.788 61.5715C147.046 61.5715 147.293 61.6741 147.475 61.8567C147.657 62.0394 147.759 62.2871 147.759 62.5454Z" fill="#FFC578"/>
<path d="M109.571 104.728H93.2803V105.373H109.571V104.728Z" fill="#E09F34"/>
<path d="M164.706 104.728H148.416V105.373H164.706V104.728Z" fill="#E09F34"/>
</svg>
