<svg width="258" height="263" viewBox="0 0 258 263" fill="none" xmlns="http://www.w3.org/2000/svg">
<path d="M27.5767 252.03H-79.5762V254.823H27.5767V252.03Z" fill="#CE800C"/>
<path d="M27.5767 253.426H-79.5762V254.823H27.5767V253.426Z" fill="#5F3D30"/>
<path d="M67 254.822H-119V259.985H67V254.822Z" fill="#CE800C"/>
<path d="M67 257.418H-119V260H67V257.418Z" fill="#5F3D30"/>
<path d="M62.5002 186.858H51.7188V194.56H62.5002V186.858Z" fill="#FFC578"/>
<path d="M62.5002 186.858H51.7188V187.478H62.5002V186.858Z" fill="#E09F34"/>
<path d="M62.5002 193.925H51.7188V194.545H62.5002V193.925Z" fill="#E09F34"/>
<path d="M62.9767 195.491H51.2563V218.809H62.9767V195.491Z" fill="#FFC578"/>
<g style="mix-blend-mode:multiply" opacity="0.5">
<path d="M62.9767 195.491H51.2563V196.112H62.9767V195.491Z" fill="#E09F34"/>
</g>
<path d="M62.9767 218.174H51.2563V218.794H62.9767V218.174Z" fill="#E09F34"/>
<path d="M63.7758 219.725H50.457V259.986H63.7758V219.725Z" fill="#FFC578"/>
<path d="M63.7758 219.725H50.457V220.346H63.7758V219.725Z" fill="#E09F34"/>
<path d="M63.7758 259.379H50.457V260H63.7758V259.379Z" fill="#E09F34"/>
<path d="M57.2561 172.864H56.9478V174.726H57.2561V172.864Z" fill="#CE800C"/>
<path d="M57.3406 174.556H56.7939V175.135H57.3406V174.556Z" fill="#FFC578"/>
<path d="M63.4532 185.913H50.7793V186.844H63.4532V185.913Z" fill="#D87A00"/>
<path d="M63.4532 186.392H50.7793V186.857H63.4532V186.392Z" fill="#E09F34"/>
<path d="M50.9622 179.677C51.7333 178.394 57.0606 174.867 57.0606 174.867C57.0606 174.867 62.3883 178.394 63.1734 179.677C63.638 180.661 63.8542 181.744 63.8028 182.832C63.7515 183.92 63.4342 184.978 62.879 185.912H51.2425C50.6895 184.977 50.3745 183.918 50.3256 182.83C50.2767 181.743 50.4954 180.66 50.9622 179.677Z" fill="#FFC578"/>
<path d="M50.9622 179.677C51.1302 179.424 51.3278 179.192 51.5509 178.986C51.5926 179.912 51.841 180.816 52.2779 181.632C52.7148 182.447 53.329 183.154 54.0745 183.698C56.6121 185.602 60.8319 184.883 63.6779 183.923C63.5557 184.636 63.2835 185.314 62.879 185.912H51.2425C50.6895 184.977 50.3745 183.918 50.3256 182.83C50.2767 181.743 50.4954 180.66 50.9622 179.677Z" fill="#E09F34"/>
<path d="M63.9018 194.56H50.3164V195.491H63.9018V194.56Z" fill="#D87A00"/>
<path d="M63.9018 195.025H50.3164V195.491H63.9018V195.025Z" fill="#E09F34"/>
<path d="M64.8274 218.795H49.3916V219.726H64.8274V218.795Z" fill="#D87A00"/>
<path d="M64.8274 219.26H49.3916V219.725H64.8274V219.26Z" fill="#E09F34"/>
<path d="M45.0728 203.898H36.8013V209.809H45.0728V203.898Z" fill="#FFC578"/>
<path d="M45.0728 203.898H36.8013V204.378H45.0728V203.898Z" fill="#E09F34"/>
<path d="M45.0728 209.329H36.8013V209.808H45.0728V209.329Z" fill="#E09F34"/>
<path d="M45.4236 210.514H36.437V228.387H45.4236V210.514Z" fill="#FFC578"/>
<g style="mix-blend-mode:multiply" opacity="0.5">
<path d="M45.4236 210.514H36.437V210.994H45.4236V210.514Z" fill="#E09F34"/>
</g>
<path d="M45.4236 227.921H36.437V228.401H45.4236V227.921Z" fill="#E09F34"/>
<path d="M46.0554 229.121H35.835V260H46.0554V229.121Z" fill="#FFC578"/>
<path d="M46.0554 229.121H35.835V229.6H46.0554V229.121Z" fill="#E09F34"/>
<path d="M46.0554 259.52H35.835V259.999H46.0554V259.52Z" fill="#E09F34"/>
<path d="M41.0634 193.163H40.8252V194.587H41.0634V193.163Z" fill="#CE800C"/>
<path d="M41.1199 194.461H40.6992V194.898H41.1199V194.461Z" fill="#FFC578"/>
<path d="M45.7888 203.179H36.0732V203.898H45.7888V203.179Z" fill="#D87A00"/>
<path d="M45.7888 203.546H36.0732V203.898H45.7888V203.546Z" fill="#E09F34"/>
<path d="M36.2127 198.397C37.6436 197.007 39.2125 195.768 40.8951 194.701C42.5801 195.765 44.1496 197.003 45.5778 198.397C45.9361 199.15 46.1043 199.98 46.0676 200.814C46.0309 201.648 45.7907 202.461 45.3676 203.179H36.4509C36.0246 202.463 35.7798 201.652 35.7383 200.818C35.6967 199.984 35.8597 199.152 36.2127 198.397Z" fill="#FFC578"/>
<path d="M36.2127 198.397C36.341 198.201 36.4966 198.025 36.6751 197.875C36.7072 198.582 36.898 199.274 37.233 199.896C37.5681 200.519 38.0389 201.058 38.61 201.472C40.5587 202.883 43.7973 202.389 45.9704 201.641C45.8846 202.192 45.6788 202.717 45.3676 203.179H36.4509C36.0246 202.463 35.7798 201.652 35.7383 200.818C35.6967 199.984 35.8597 199.152 36.2127 198.397Z" fill="#E09F34"/>
<path d="M46.1393 209.809H35.7227V210.528H46.1393V209.809Z" fill="#D87A00"/>
<path d="M46.1393 210.162H35.7227V210.514H46.1393V210.162Z" fill="#E09F34"/>
<path d="M46.8681 228.402H35.0215V229.121H46.8681V228.402Z" fill="#D87A00"/>
<path d="M46.8681 228.754H35.0215V229.107H46.8681V228.754Z" fill="#E09F34"/>
<path d="M7.64077 207.157H-4.41602V214.859H7.64077V207.157Z" fill="#FFC578"/>
<path d="M7.64077 207.157H-4.41602V207.778H7.64077V207.157Z" fill="#E09F34"/>
<path d="M7.64077 214.239H-4.41602V214.859H7.64077V214.239Z" fill="#E09F34"/>
<path d="M0.883121 209.075C1.20062 208.919 1.45725 208.661 1.61218 208.342C1.75342 208.661 2.00146 208.921 2.31317 209.075C2.47157 209.179 2.60134 209.321 2.68967 209.489C2.77801 209.657 2.82213 209.845 2.81803 210.035V213.688H0.392633V210.035C0.390803 209.847 0.434461 209.661 0.519962 209.494C0.605462 209.327 0.730022 209.183 0.883121 209.075Z" fill="#CE800C"/>
<path d="M1.03676 210.204C1.28092 210.073 1.48081 209.871 1.61145 209.626C1.72174 209.876 1.91516 210.081 2.15841 210.204C2.28392 210.283 2.38708 210.394 2.45824 210.525C2.52941 210.655 2.56625 210.803 2.56503 210.952V213.688H0.644165V211.022C0.628841 210.863 0.657429 210.702 0.726654 210.558C0.795879 210.413 0.903124 210.291 1.03676 210.204Z" fill="#5F3D30"/>
<path d="M4.58459 209.075C4.89905 208.915 5.15449 208.658 5.31364 208.342C5.45234 208.658 5.69484 208.917 6.0006 209.075C6.16195 209.176 6.29386 209.317 6.38258 209.486C6.47131 209.655 6.51343 209.844 6.50512 210.035V213.688H4.09376V210.035C4.08814 209.846 4.13047 209.659 4.21629 209.491C4.30212 209.323 4.42877 209.18 4.58459 209.075Z" fill="#CE800C"/>
<path d="M4.72482 210.204C4.97397 210.079 5.1757 209.876 5.29951 209.626C5.41619 209.877 5.6137 210.08 5.86016 210.204C5.98567 210.283 6.08917 210.394 6.16034 210.525C6.2315 210.655 6.26801 210.803 6.26679 210.952V213.688H4.33223V211.022C4.32138 210.863 4.3517 210.704 4.42054 210.561C4.48937 210.417 4.59439 210.294 4.72482 210.204Z" fill="#5F3D30"/>
<path d="M1.76591 193.163H1.45752V195.025H1.76591V193.163Z" fill="#CE800C"/>
<path d="M1.93432 194.856H1.3877V195.434H1.93432V194.856Z" fill="#FFC578"/>
<path d="M7.94882 206.226H-4.7251V207.157H7.94882V206.226Z" fill="#CE800C"/>
<path d="M7.94882 206.691H-4.7251V207.157H7.94882V206.691Z" fill="#5F3D30"/>
<path d="M7.76729 199.977C6.9962 198.693 1.66856 195.166 1.66856 195.166C1.66856 195.166 -3.65875 198.693 -4.44386 199.977C-4.90853 200.963 -5.125 202.049 -5.07365 203.138C-5.02231 204.228 -4.70478 205.289 -4.1495 206.226H7.48696C8.04002 205.288 8.35468 204.227 8.40358 203.137C8.45249 202.047 8.23406 200.962 7.76729 199.977Z" fill="#FFC578"/>
<path d="M7.76679 199.976C7.598 199.728 7.40044 199.501 7.17807 199.299C7.13636 200.223 6.88772 201.125 6.45073 201.939C6.01374 202.752 5.39965 203.456 4.65445 203.997C2.11687 205.901 -2.10321 205.196 -4.94922 204.222C-4.83339 204.941 -4.56036 205.626 -4.15 206.226H7.48647C8.03953 205.287 8.35419 204.226 8.40309 203.136C8.45199 202.046 8.23356 200.961 7.76679 199.976Z" fill="#E09F34"/>
<path d="M8.79016 214.944H-7.96338V252.115H8.79016V214.944Z" fill="#FFC578"/>
<path d="M4.00895 219.203C2.8926 218.855 1.91228 218.165 1.205 217.229C0.573682 218.18 -0.368986 218.879 -1.45896 219.203C-3.57594 220.134 -3.39352 221.771 -3.39352 221.771V231.49H5.87334V221.771C5.85508 221.204 5.66757 220.656 5.33494 220.198C5.00231 219.74 4.54024 219.393 4.00895 219.203Z" fill="#CE800C"/>
<path d="M3.44816 222.208C2.5741 221.93 1.80583 221.388 1.24696 220.657C0.722031 221.398 -0.0319705 221.944 -0.897758 222.208C-1.33343 222.34 -1.71755 222.605 -1.99647 222.967C-2.2754 223.328 -2.43542 223.768 -2.4541 224.226V231.491H4.9624V224.226C4.94272 223.775 4.78747 223.34 4.5171 222.98C4.24672 222.62 3.87387 222.351 3.44816 222.208Z" fill="#5F3D30"/>
<path d="M6.81371 231.49H-4.3042V233.352H6.81371V231.49Z" fill="#CE800C"/>
<path d="M6.81371 232.436H-4.3042V233.367H6.81371V232.436Z" fill="#5F3D30"/>
<path d="M4.00895 239.827C2.8926 239.479 1.91228 238.789 1.205 237.852C0.573682 238.804 -0.368986 239.502 -1.45896 239.827C-3.57594 240.758 -3.39352 242.395 -3.39352 242.395V252.128H5.87334V242.395C5.85508 241.828 5.66757 241.28 5.33494 240.822C5.00231 240.364 4.54024 240.017 4.00895 239.827Z" fill="#CE800C"/>
<path d="M3.44816 242.832C2.56909 242.564 1.79793 242.02 1.24696 241.281C0.910489 241.788 0.574316 242.183 -0.897758 242.832C-1.33343 242.964 -1.71755 243.229 -1.99647 243.591C-2.2754 243.952 -2.43542 244.392 -2.4541 244.85V252.129H4.9624V244.878C4.94833 244.422 4.79539 243.981 4.52463 243.616C4.25387 243.25 3.87821 242.976 3.44816 242.832Z" fill="#5F3D30"/>
<path d="M25.5299 214.944H8.77637V252.115H25.5299V214.944Z" fill="#E09F34"/>
<path d="M10.5288 214.944H8.77637V252.115H10.5288V214.944Z" fill="#5F3D30"/>
<path d="M20.4552 219.203C19.3389 218.855 18.3586 218.165 17.6513 217.229C17.02 218.18 16.0773 218.879 14.9873 219.203C12.8703 220.134 13.0528 221.771 13.0528 221.771V231.49H22.3196V221.771C22.3014 221.204 22.1139 220.656 21.7812 220.198C21.4486 219.74 20.9865 219.393 20.4552 219.203Z" fill="#CE800C"/>
<path d="M19.894 222.208C19.0199 221.93 18.252 221.388 17.6931 220.657C17.1682 221.398 16.4138 221.944 15.548 222.208C15.1124 222.34 14.7283 222.605 14.4493 222.967C14.1704 223.328 14.0104 223.768 13.9917 224.226V231.491H21.4082V224.226C21.3885 223.775 21.2333 223.34 20.9629 222.98C20.6925 222.62 20.3197 222.351 19.894 222.208Z" fill="#5F3D30"/>
<path d="M23.2585 231.49H12.1406V233.352H23.2585V231.49Z" fill="#CE800C"/>
<path d="M23.2585 232.436H12.1406V233.367H23.2585V232.436Z" fill="#5F3D30"/>
<path d="M20.4552 239.827C19.3389 239.479 18.3586 238.789 17.6513 237.852C17.02 238.804 16.0773 239.502 14.9873 239.827C12.8703 240.758 13.0528 242.395 13.0528 242.395V252.128H22.3196V242.395C22.3014 241.828 22.1139 241.28 21.7812 240.822C21.4486 240.364 20.9865 240.017 20.4552 239.827Z" fill="#CE800C"/>
<path d="M19.8937 242.832C19.0147 242.564 18.2438 242.02 17.6929 241.281C17.3564 241.788 17.0199 242.183 15.5478 242.832C15.113 242.97 14.7316 243.242 14.4576 243.609C14.1836 243.975 14.0305 244.419 14.0195 244.878V252.157H21.436V244.878C21.42 244.418 21.263 243.975 20.987 243.609C20.7109 243.243 20.329 242.972 19.8937 242.832Z" fill="#5F3D30"/>
<path d="M269.364 95.0536H250.616V119.849H269.364V95.0536Z" fill="#E09F34"/>
<path d="M269.364 96.2819V99.3402L250.616 97.8411V96.4618L269.364 96.2819Z" fill="#E09F34"/>
<path d="M270.986 131.153H248.963V164.794H270.986V131.153Z" fill="#E09F34"/>
<path d="M271.016 132.682V137.149L248.994 134.81V132.682H271.016Z" fill="#E09F34"/>
<path d="M269.123 65.6997V68.9679H250.855V65.5799C251.817 60.4228 258.427 55.9253 259.869 55.0558C259.941 55.0106 260.024 54.9867 260.11 54.9867C260.195 54.9867 260.278 55.0106 260.35 55.0558C261.582 56.0453 268.192 60.5427 269.123 65.6997Z" fill="#E09F34"/>
<path d="M268.673 69.8668H251.337V87.5268H268.673V69.8668Z" fill="#E09F34"/>
<path d="M268.673 69.8668V72.6252L251.337 71.2761V69.8668H268.673Z" fill="#E09F34"/>
<path d="M255.995 80.0324V85.0995H253.291V80.0324C253.291 79.8552 253.326 79.6798 253.394 79.5161C253.462 79.3524 253.562 79.2037 253.687 79.0784C253.813 78.9531 253.962 78.8536 254.126 78.7858C254.29 78.718 254.465 78.6831 254.643 78.6831C254.82 78.6831 254.997 78.718 255.161 78.7858C255.325 78.8536 255.474 78.9531 255.599 79.0784C255.725 79.2037 255.824 79.3524 255.892 79.5161C255.96 79.6798 255.995 79.8552 255.995 80.0324Z" fill="#5F3D30"/>
<path d="M268.643 68.8186H251.337C250.789 68.8186 250.345 69.2616 250.345 69.8081V69.898C250.345 70.4444 250.789 70.8874 251.337 70.8874H268.643C269.19 70.8874 269.634 70.4444 269.634 69.898V69.8081C269.634 69.2616 269.19 68.8186 268.643 68.8186Z" fill="#FFB14A"/>
<path d="M269.935 83.7193H250.075C249.511 83.7193 249.054 84.1758 249.054 84.7388V95.2028C249.054 95.7658 249.511 96.2223 250.075 96.2223H269.935C270.499 96.2223 270.957 95.7658 270.957 95.2028V84.7388C270.957 84.1758 270.499 83.7193 269.935 83.7193Z" fill="#FFB14A"/>
<path d="M270.958 84.7391V86.2682L249.055 84.979V84.7391C249.051 84.6066 249.073 84.4746 249.121 84.3511C249.169 84.2276 249.242 84.115 249.334 84.0199C249.427 83.9248 249.537 83.8493 249.659 83.7977C249.781 83.7461 249.913 83.7195 250.046 83.7196H269.876C270.015 83.7114 270.154 83.7317 270.285 83.7792C270.416 83.8268 270.536 83.9006 270.637 83.9961C270.738 84.0916 270.819 84.2069 270.874 84.3347C270.929 84.4624 270.958 84.6 270.958 84.7391Z" fill="#FFB14A"/>
<path d="M254.522 88.8774V96.2232H250.856V88.8774C250.848 88.6293 250.89 88.382 250.977 88.1497C251.065 87.9175 251.198 87.7049 251.368 87.5239C251.539 87.3429 251.743 87.1971 251.969 87.0949C252.196 86.9928 252.441 86.9361 252.69 86.9284C252.938 86.9361 253.182 86.9928 253.409 87.0949C253.636 87.1971 253.84 87.3429 254.011 87.5239C254.181 87.7049 254.314 87.9175 254.402 88.1497C254.489 88.382 254.53 88.6293 254.522 88.8774Z" fill="#5F3D30"/>
<path d="M271.076 95.2337H248.934C248.419 95.2337 248.002 95.6498 248.002 96.1632V96.253C248.002 96.7664 248.419 97.1825 248.934 97.1825H271.076C271.591 97.1825 272.008 96.7664 272.008 96.253V96.1632C272.008 95.6498 271.591 95.2337 271.076 95.2337Z" fill="#FFC578"/>
<path d="M271.076 82.7296H248.934C248.419 82.7296 248.002 83.1457 248.002 83.6591V83.7489C248.002 84.2623 248.419 84.6784 248.934 84.6784H271.076C271.591 84.6784 272.008 84.2623 272.008 83.7489V83.6591C272.008 83.1457 271.591 82.7296 271.076 82.7296Z" fill="#FFC578"/>
<path d="M271.678 118.41H248.333C247.669 118.41 247.131 118.947 247.131 119.61V131.903C247.131 132.565 247.669 133.102 248.333 133.102H271.678C272.342 133.102 272.88 132.565 272.88 131.903V119.61C272.88 118.947 272.342 118.41 271.678 118.41Z" fill="#FFB14A"/>
<path d="M253.56 124.466V133.101H249.263V124.466C249.255 124.175 249.305 123.885 249.41 123.613C249.514 123.34 249.671 123.091 249.872 122.88C250.073 122.668 250.314 122.498 250.58 122.379C250.847 122.26 251.135 122.195 251.427 122.188C252.011 122.211 252.563 122.463 252.962 122.89C253.361 123.316 253.576 123.883 253.56 124.466Z" fill="#5F3D30"/>
<path d="M262.153 124.466V133.102H257.856V124.466C257.856 123.894 258.085 123.345 258.49 122.94C258.896 122.535 259.446 122.308 260.02 122.308C260.593 122.308 261.143 122.535 261.549 122.94C261.955 123.345 262.183 123.894 262.183 124.466H262.153Z" fill="#5F3D30"/>
<path d="M273.001 131.963H247.011C246.397 131.963 245.9 132.459 245.9 133.072V133.162C245.9 133.775 246.397 134.271 247.011 134.271H273.001C273.614 134.271 274.112 133.775 274.112 133.162V133.072C274.112 132.459 273.614 131.963 273.001 131.963Z" fill="#FFC578"/>
<path d="M273.001 117.27H247.011C246.397 117.27 245.9 117.767 245.9 118.379V118.469C245.9 119.082 246.397 119.579 247.011 119.579H273.001C273.614 119.579 274.112 119.082 274.112 118.469V118.379C274.112 117.767 273.614 117.27 273.001 117.27Z" fill="#FFC578"/>
<path d="M270.986 187.191H248.963V252.884H270.986V187.191Z" fill="#E09F34"/>
<path d="M271.016 187.55V192.077L248.994 189.978V187.55H271.016Z" fill="#E09F34"/>
<path d="M271.017 248.565H242.865V258.999H271.017V248.565Z" fill="#FFC578"/>
<path d="M271.678 157.958H248.333C247.669 157.958 247.131 158.495 247.131 159.157V171.45C247.131 172.112 247.669 172.649 248.333 172.649H271.678C272.342 172.649 272.88 172.112 272.88 171.45V159.157C272.88 158.495 272.342 157.958 271.678 157.958Z" fill="#FFB14A"/>
<path d="M253.56 164.014V172.649H249.263V164.014C249.255 163.722 249.305 163.432 249.41 163.16C249.514 162.887 249.671 162.638 249.872 162.427C250.073 162.215 250.314 162.045 250.58 161.926C250.847 161.808 251.135 161.743 251.427 161.735C252.011 161.758 252.563 162.011 252.962 162.437C253.361 162.864 253.576 163.43 253.56 164.014Z" fill="#5F3D30"/>
<path d="M262.153 164.014V172.649H257.856V164.014C257.856 163.441 258.085 162.892 258.49 162.487C258.896 162.082 259.446 161.855 260.02 161.855C260.593 161.855 261.143 162.082 261.549 162.487C261.955 162.892 262.183 163.441 262.183 164.014H262.153Z" fill="#5F3D30"/>
<path d="M273.001 171.51H247.011C246.397 171.51 245.9 172.007 245.9 172.619V172.709C245.9 173.322 246.397 173.819 247.011 173.819H273.001C273.614 173.819 274.112 173.322 274.112 172.709V172.619C274.112 172.007 273.614 171.51 273.001 171.51Z" fill="#FFC578"/>
<path d="M273.001 156.817H247.011C246.397 156.817 245.9 157.314 245.9 157.927V158.017C245.9 158.629 246.397 159.126 247.011 159.126H273.001C273.614 159.126 274.112 158.629 274.112 158.017V157.927C274.112 157.314 273.614 156.817 273.001 156.817Z" fill="#FFC578"/>
<path d="M271.678 172.649H248.333C247.669 172.649 247.131 173.186 247.131 173.848V186.141C247.131 186.804 247.669 187.34 248.333 187.34H271.678C272.342 187.34 272.88 186.804 272.88 186.141V173.848C272.88 173.186 272.342 172.649 271.678 172.649Z" fill="#FFB14A"/>
<path d="M253.56 178.705V187.34H249.263V178.705C249.255 178.413 249.305 178.123 249.41 177.851C249.514 177.579 249.671 177.33 249.872 177.118C250.073 176.906 250.314 176.736 250.58 176.618C250.847 176.499 251.135 176.434 251.427 176.426C252.011 176.45 252.563 176.702 252.962 177.128C253.361 177.555 253.576 178.121 253.56 178.705Z" fill="#5F3D30"/>
<path d="M262.153 178.705V187.34H257.856V178.705C257.856 178.132 258.085 177.583 258.49 177.178C258.896 176.774 259.446 176.546 260.02 176.546C260.593 176.546 261.143 176.774 261.549 177.178C261.955 177.583 262.183 178.132 262.183 178.705H262.153Z" fill="#5F3D30"/>
<path d="M273.001 186.201H247.011C246.397 186.201 245.9 186.698 245.9 187.311V187.401C245.9 188.013 246.397 188.51 247.011 188.51H273.001C273.614 188.51 274.112 188.013 274.112 187.401V187.311C274.112 186.698 273.614 186.201 273.001 186.201Z" fill="#FFC578"/>
<path d="M273.001 171.51H247.011C246.397 171.51 245.9 172.007 245.9 172.619V172.709C245.9 173.322 246.397 173.819 247.011 173.819H273.001C273.614 173.819 274.112 173.322 274.112 172.709V172.619C274.112 172.007 273.614 171.51 273.001 171.51Z" fill="#FFC578"/>
<path d="M263.085 169.951H244.487V259H263.085V169.951Z" fill="#FFB14A"/>
<path d="M255.543 181.495H252.028C250.834 181.495 249.865 182.461 249.865 183.653V188.421C249.865 189.613 250.834 190.579 252.028 190.579H255.543C256.738 190.579 257.707 189.613 257.707 188.421V183.653C257.707 182.461 256.738 181.495 255.543 181.495Z" fill="#5F3D30"/>
<path d="M255.543 199.574H252.028C250.834 199.574 249.865 200.54 249.865 201.732V206.5C249.865 207.692 250.834 208.658 252.028 208.658H255.543C256.738 208.658 257.707 207.692 257.707 206.5V201.732C257.707 200.54 256.738 199.574 255.543 199.574Z" fill="#5F3D30"/>
<path d="M255.543 217.623H252.028C250.834 217.623 249.865 218.59 249.865 219.782V224.549C249.865 225.742 250.834 226.708 252.028 226.708H255.543C256.738 226.708 257.707 225.742 257.707 224.549V219.782C257.707 218.59 256.738 217.623 255.543 217.623Z" fill="#5F3D30"/>
<path d="M255.543 235.702H252.028C250.834 235.702 249.865 236.669 249.865 237.861V242.628C249.865 243.821 250.834 244.787 252.028 244.787H255.543C256.738 244.787 257.707 243.821 257.707 242.628V237.861C257.707 236.669 256.738 235.702 255.543 235.702Z" fill="#5F3D30"/>
<path d="M361.723 121.587H244.307V129.203H361.723V121.587Z" fill="#CE800C"/>
<path d="M361.723 115.201H244.307V123.747H361.723V115.201Z" fill="#E09F34"/>
<path d="M361.723 114.212H244.307V119.159H361.723V114.212Z" fill="#E09F34"/>
<path d="M361.723 127.615H244.307V138.858H361.723V127.615Z" fill="#E09F34"/>
<path d="M253.561 132.982V138.978H248.303V132.982C248.3 132.717 248.358 132.455 248.473 132.216C248.588 131.977 248.756 131.767 248.964 131.603C249.805 130.973 250.766 130.283 250.916 130.103C251.067 129.923 252.059 130.973 252.9 131.603C253.102 131.773 253.265 131.983 253.379 132.221C253.493 132.459 253.555 132.718 253.561 132.982Z" fill="#5F3D30"/>
<path d="M262.243 132.982V138.978H256.985V132.982C256.983 132.717 257.041 132.455 257.156 132.216C257.27 131.977 257.438 131.767 257.646 131.603C258.487 130.973 259.449 130.283 259.599 130.103C259.749 129.923 260.741 130.973 261.552 131.603C261.762 131.767 261.933 131.976 262.053 132.214C262.172 132.453 262.237 132.715 262.243 132.982Z" fill="#5F3D30"/>
<path d="M250.466 116.011H248.633V119.909H250.466V116.011Z" fill="#5F3D30"/>
<path d="M255.814 116.011H253.98V119.909H255.814V116.011Z" fill="#5F3D30"/>
<path d="M361.723 112.863H244.307V117.511H361.723V112.863Z" fill="#CE800C"/>
<path d="M361.723 138.918H244.307V167.972H361.723V138.918Z" fill="#E09F34"/>
<path d="M361.723 138.918H244.307V144.285H361.723V138.918Z" fill="#E09F34"/>
<path d="M361.723 169.56H244.307V174.927H361.723V169.56Z" fill="#E09F34"/>
<path d="M262.755 157.387V167.911H252.329V157.327C252.311 156.277 252.611 155.246 253.19 154.368C253.769 153.491 254.6 152.808 255.574 152.41C256.548 152.011 257.619 151.915 258.649 152.135C259.678 152.354 260.617 152.879 261.343 153.64C262.289 154.655 262.796 156.002 262.755 157.387Z" fill="#5F3D30"/>
<path d="M250.466 171.059H248.633V176.456H250.466V171.059Z" fill="#5F3D30"/>
<path d="M255.814 171.059H253.98V176.456H255.814V171.059Z" fill="#5F3D30"/>
<path d="M361.723 166.712H244.307V173.159H361.723V166.712Z" fill="#CE800C"/>
<path d="M250.466 140.028H248.633V145.425H250.466V140.028Z" fill="#5F3D30"/>
<path d="M255.814 140.028H253.98V145.425H255.814V140.028Z" fill="#5F3D30"/>
<path d="M361.723 135.711H244.307V142.157H361.723V135.711Z" fill="#CE800C"/>
<path d="M232.739 16.678L233.641 0.337307C233.641 -0.112436 234.062 -0.112436 234.092 0.337307L234.993 16.678H232.739Z" fill="#FFB14A"/>
<path d="M245.268 59.4036H222.464V89.5664H245.268V59.4036Z" fill="#E09F34"/>
<path d="M245.268 60.872V64.6198L222.464 62.7609V61.1119L245.268 60.872Z" fill="#E09F34"/>
<g style="mix-blend-mode:multiply" opacity="0.5">
<path d="M245.269 59.4036H238.148V89.5664H245.269V59.4036Z" fill="#E09F34"/>
</g>
<path d="M247.281 103.359H220.451V144.316H247.281V103.359Z" fill="#E09F34"/>
<path d="M247.281 105.217V110.644L220.451 107.795V105.217H247.281Z" fill="#E09F34"/>
<g style="mix-blend-mode:multiply" opacity="0.5">
<path d="M247.282 103.359H238.148V144.316H247.282V103.359Z" fill="#E09F34"/>
</g>
<path d="M244.998 23.634V27.7717H222.765V23.634C223.906 17.3676 231.958 11.8807 233.58 10.8313C233.665 10.7746 233.764 10.7444 233.866 10.7444C233.967 10.7444 234.067 10.7746 234.152 10.8313C235.774 12.0006 243.856 17.3676 244.998 23.634Z" fill="#E09F34"/>
<g style="mix-blend-mode:multiply" opacity="0.5">
<path d="M234.152 10.8313C234.074 10.7729 233.979 10.7414 233.881 10.7414C233.784 10.7414 233.688 10.7729 233.61 10.8313C236.771 16 238.818 21.7695 239.619 27.7717H245.028V23.634C243.856 17.3676 235.774 12.0006 234.152 10.8313Z" fill="#E09F34"/>
</g>
<path d="M244.426 28.7312H223.305V50.2288H244.426V28.7312Z" fill="#E09F34"/>
<g style="mix-blend-mode:multiply" opacity="0.5">
<path d="M244.428 28.7312H238.148V50.2288H244.428V28.7312Z" fill="#E09F34"/>
</g>
<g style="mix-blend-mode:multiply" opacity="0.5">
<path d="M244.426 28.7312V32.0592L223.305 30.4402V28.7312H244.426Z" fill="#E09F34"/>
</g>
<path d="M228.983 41.1145V47.111H225.709V41.1145C225.709 40.8979 225.751 40.6834 225.834 40.4833C225.917 40.2832 226.04 40.1015 226.193 39.9484C226.347 39.7953 226.528 39.6737 226.729 39.5908C226.929 39.5079 227.145 39.4653 227.362 39.4653C227.795 39.4731 228.207 39.6504 228.51 39.9588C228.814 40.2672 228.983 40.6823 228.983 41.1145Z" fill="#5F3D30"/>
<path d="M235.504 41.1145V47.111H232.229V41.1145C232.228 40.6823 232.398 40.2672 232.702 39.9588C233.005 39.6504 233.418 39.4731 233.851 39.4653C234.289 39.4653 234.71 39.6391 235.02 39.9484C235.329 40.2576 235.504 40.6771 235.504 41.1145Z" fill="#5F3D30"/>
<path d="M242.023 41.1145V47.111H238.748V41.1145C238.748 40.6823 238.918 40.2672 239.222 39.9588C239.525 39.6504 239.938 39.4731 240.371 39.4653C240.588 39.4653 240.802 39.5079 241.003 39.5908C241.203 39.6737 241.386 39.7953 241.539 39.9484C241.693 40.1015 241.815 40.2832 241.898 40.4833C241.981 40.6834 242.023 40.8979 242.023 41.1145Z" fill="#5F3D30"/>
<path d="M244.368 27.4414H223.336C222.656 27.4414 222.104 27.9917 222.104 28.6706V28.7606C222.104 29.4395 222.656 29.9898 223.336 29.9898H244.368C245.048 29.9898 245.599 29.4395 245.599 28.7606V28.6706C245.599 27.9917 245.048 27.4414 244.368 27.4414Z" fill="#FFB14A"/>
<path d="M245.989 45.5819H221.772C221.092 45.5819 220.541 46.1322 220.541 46.8111V59.5538C220.541 60.2327 221.092 60.7832 221.772 60.7832H245.989C246.669 60.7832 247.22 60.2327 247.22 59.5538V46.8111C247.22 46.1322 246.669 45.5819 245.989 45.5819Z" fill="#FFB14A"/>
<path d="M247.22 46.8111V48.7L220.541 47.111V46.8111C220.541 46.4851 220.67 46.1724 220.901 45.9418C221.132 45.7113 221.445 45.5819 221.772 45.5819H245.989C246.313 45.5895 246.622 45.7214 246.851 45.9503C247.081 46.1792 247.212 46.4875 247.22 46.8111Z" fill="#FFB14A"/>
<path d="M227.212 51.8477V60.8425H222.765V51.8477C222.749 51.2403 222.974 50.6512 223.39 50.2078C223.806 49.7644 224.38 49.5025 224.989 49.4791C225.597 49.5025 226.172 49.7644 226.588 50.2078C227.004 50.6512 227.228 51.2403 227.212 51.8477Z" fill="#5F3D30"/>
<path d="M236.104 51.8478V60.8427H231.627V51.8478C231.591 51.5328 231.621 51.2137 231.717 50.9112C231.813 50.6088 231.971 50.3299 232.183 50.093C232.394 49.8562 232.653 49.6667 232.943 49.5369C233.233 49.4071 233.547 49.34 233.865 49.34C234.183 49.34 234.498 49.4071 234.788 49.5369C235.078 49.6667 235.337 49.8562 235.548 50.093C235.759 50.3299 235.919 50.6088 236.015 50.9112C236.11 51.2137 236.141 51.5328 236.104 51.8478Z" fill="#5F3D30"/>
<path d="M244.998 51.8477V60.8425H240.521V51.8477C240.505 51.2403 240.729 50.6512 241.145 50.2078C241.561 49.7644 242.136 49.5025 242.744 49.4791C243.355 49.5025 243.933 49.7632 244.354 50.2058C244.775 50.6483 245.006 51.2375 244.998 51.8477Z" fill="#5F3D30"/>
<path d="M247.342 59.6129H220.392C219.761 59.6129 219.25 60.1231 219.25 60.7523V60.8422C219.25 61.4714 219.761 61.9815 220.392 61.9815H247.342C247.972 61.9815 248.483 61.4714 248.483 60.8422V60.7523C248.483 60.1231 247.972 59.6129 247.342 59.6129Z" fill="#FFC578"/>
<path d="M247.342 44.4121H220.392C219.761 44.4121 219.25 44.9223 219.25 45.5515V45.6414C219.25 46.2706 219.761 46.7807 220.392 46.7807H247.342C247.972 46.7807 248.483 46.2706 248.483 45.6414V45.5515C248.483 44.9223 247.972 44.4121 247.342 44.4121Z" fill="#FFC578"/>
<path d="M248.122 87.8566H219.64C218.843 87.8566 218.198 88.501 218.198 89.2959V104.317C218.198 105.112 218.843 105.756 219.64 105.756H248.122C248.919 105.756 249.565 105.112 249.565 104.317V89.2959C249.565 88.501 248.919 87.8566 248.122 87.8566Z" fill="#FFB14A"/>
<path d="M226.04 95.2024V105.726H220.812V95.2024C220.8 94.848 220.858 94.4946 220.983 94.1626C221.108 93.8306 221.298 93.5265 221.54 93.2675C221.783 93.0086 222.074 92.7999 222.398 92.6534C222.722 92.5069 223.071 92.4256 223.426 92.414C223.782 92.4256 224.131 92.5069 224.455 92.6534C224.778 92.7999 225.069 93.0086 225.312 93.2675C225.555 93.5265 225.744 93.8306 225.869 94.1626C225.994 94.4946 226.052 94.848 226.04 95.2024Z" fill="#5F3D30"/>
<path d="M236.495 95.2031V105.727H231.237V95.2031C231.198 94.8351 231.237 94.4629 231.351 94.1106C231.465 93.7584 231.652 93.434 231.899 93.1587C232.147 92.8833 232.451 92.6632 232.79 92.5125C233.129 92.3617 233.495 92.2837 233.866 92.2837C234.237 92.2837 234.604 92.3617 234.943 92.5125C235.282 92.6632 235.585 92.8833 235.833 93.1587C236.081 93.434 236.268 93.7584 236.382 94.1106C236.496 94.4629 236.534 94.8351 236.495 95.2031Z" fill="#5F3D30"/>
<path d="M246.951 95.2031V105.727H241.693V95.2031C241.653 94.8351 241.692 94.4629 241.806 94.1106C241.92 93.7584 242.107 93.434 242.355 93.1587C242.603 92.8833 242.906 92.6632 243.245 92.5125C243.584 92.3617 243.951 92.2837 244.322 92.2837C244.693 92.2837 245.059 92.3617 245.398 92.5125C245.737 92.6632 246.04 92.8833 246.288 93.1587C246.536 93.434 246.723 93.7584 246.837 94.1106C246.951 94.4629 246.99 94.8351 246.951 95.2031Z" fill="#5F3D30"/>
<path d="M249.685 104.318H218.047C217.3 104.318 216.695 104.922 216.695 105.667V105.757C216.695 106.502 217.3 107.106 218.047 107.106H249.685C250.431 107.106 251.037 106.502 251.037 105.757V105.667C251.037 104.922 250.431 104.318 249.685 104.318Z" fill="#FFC578"/>
<path d="M249.685 86.4482H218.047C217.3 86.4482 216.695 87.0523 216.695 87.7975V87.8873C216.695 88.6325 217.3 89.2366 218.047 89.2366H249.685C250.431 89.2366 251.037 88.6325 251.037 87.8873V87.7975C251.037 87.0523 250.431 86.4482 249.685 86.4482Z" fill="#FFC578"/>
<path d="M234.663 8.07254H233.04C232.874 8.07254 232.739 8.20671 232.739 8.3723C232.739 8.53789 232.874 8.67223 233.04 8.67223H234.663C234.828 8.67223 234.963 8.53789 234.963 8.3723C234.963 8.20671 234.828 8.07254 234.663 8.07254Z" fill="#E09F34"/>
<path d="M234.663 5.46368H233.04C232.874 5.46368 232.739 5.59784 232.739 5.76343C232.739 5.92902 232.874 6.06337 233.04 6.06337H234.663C234.828 6.06337 234.963 5.92902 234.963 5.76343C234.963 5.59784 234.828 5.46368 234.663 5.46368Z" fill="#E09F34"/>
<path d="M247.281 171.57H220.451V254.533H247.281V171.57Z" fill="#E09F34"/>
<path d="M247.281 171.989V177.536L220.451 174.957V171.989H247.281Z" fill="#E09F34"/>
<g style="mix-blend-mode:multiply" opacity="0.5">
<path d="M247.282 171.57H238.148V254.533H247.282V171.57Z" fill="#E09F34"/>
</g>
<path d="M247.281 253.003H213V258.999H247.281V253.003Z" fill="#FFC578"/>
<path d="M248.122 135.98H219.64C218.843 135.98 218.198 136.624 218.198 137.419V152.441C218.198 153.236 218.843 153.88 219.64 153.88H248.122C248.919 153.88 249.565 153.236 249.565 152.441V137.419C249.565 136.624 248.919 135.98 248.122 135.98Z" fill="#FFB14A"/>
<path d="M226.04 143.355V153.879H220.812V143.355C220.8 143.001 220.858 142.647 220.983 142.315C221.108 141.983 221.298 141.679 221.54 141.42C221.783 141.161 222.074 140.953 222.398 140.806C222.722 140.66 223.071 140.578 223.426 140.567C223.782 140.578 224.131 140.66 224.455 140.806C224.778 140.953 225.069 141.161 225.312 141.42C225.555 141.679 225.744 141.983 225.869 142.315C225.994 142.647 226.052 143.001 226.04 143.355Z" fill="#5F3D30"/>
<path d="M236.495 143.356V153.88H231.237V143.356C231.198 142.988 231.237 142.616 231.351 142.263C231.465 141.911 231.652 141.587 231.899 141.311C232.147 141.036 232.451 140.816 232.79 140.665C233.129 140.514 233.495 140.436 233.866 140.436C234.237 140.436 234.604 140.514 234.943 140.665C235.282 140.816 235.585 141.036 235.833 141.311C236.081 141.587 236.268 141.911 236.382 142.263C236.496 142.616 236.534 142.988 236.495 143.356Z" fill="#5F3D30"/>
<path d="M246.951 143.356V153.88H241.693V143.356C241.653 142.988 241.692 142.616 241.806 142.263C241.92 141.911 242.107 141.587 242.355 141.311C242.603 141.036 242.906 140.816 243.245 140.665C243.584 140.514 243.951 140.436 244.322 140.436C244.693 140.436 245.059 140.514 245.398 140.665C245.737 140.816 246.04 141.036 246.288 141.311C246.536 141.587 246.723 141.911 246.837 142.263C246.951 142.616 246.99 142.988 246.951 143.356Z" fill="#5F3D30"/>
<path d="M249.685 152.471H218.047C217.3 152.471 216.695 153.075 216.695 153.82V153.91C216.695 154.655 217.3 155.259 218.047 155.259H249.685C250.431 155.259 251.037 154.655 251.037 153.91V153.82C251.037 153.075 250.431 152.471 249.685 152.471Z" fill="#FFC578"/>
<path d="M249.685 134.601H218.047C217.3 134.601 216.695 135.205 216.695 135.95V136.04C216.695 136.785 217.3 137.389 218.047 137.389H249.685C250.431 137.389 251.037 136.785 251.037 136.04V135.95C251.037 135.205 250.431 134.601 249.685 134.601Z" fill="#FFC578"/>
<path d="M248.122 153.879H219.64C218.843 153.879 218.198 154.523 218.198 155.318V170.34C218.198 171.134 218.843 171.779 219.64 171.779H248.122C248.919 171.779 249.565 171.134 249.565 170.34V155.318C249.565 154.523 248.919 153.879 248.122 153.879Z" fill="#FFB14A"/>
<path d="M226.04 161.256V171.75H220.812V161.256C220.8 160.901 220.858 160.548 220.983 160.216C221.108 159.884 221.298 159.58 221.54 159.321C221.783 159.062 222.074 158.853 222.398 158.707C222.722 158.56 223.071 158.479 223.426 158.467C223.782 158.479 224.131 158.56 224.455 158.707C224.778 158.853 225.069 159.062 225.312 159.321C225.555 159.58 225.744 159.884 225.869 160.216C225.994 160.548 226.052 160.901 226.04 161.256Z" fill="#5F3D30"/>
<path d="M236.495 161.255V171.749H231.237V161.255C231.198 160.887 231.237 160.514 231.351 160.162C231.465 159.81 231.652 159.486 231.899 159.21C232.147 158.935 232.451 158.715 232.79 158.564C233.129 158.413 233.495 158.335 233.866 158.335C234.237 158.335 234.604 158.413 234.943 158.564C235.282 158.715 235.585 158.935 235.833 159.21C236.081 159.486 236.268 159.81 236.382 160.162C236.496 160.514 236.534 160.887 236.495 161.255Z" fill="#5F3D30"/>
<path d="M246.951 161.255V171.749H241.693V161.255C241.653 160.887 241.692 160.514 241.806 160.162C241.92 159.81 242.107 159.486 242.355 159.21C242.603 158.935 242.906 158.715 243.245 158.564C243.584 158.413 243.951 158.335 244.322 158.335C244.693 158.335 245.059 158.413 245.398 158.564C245.737 158.715 246.04 158.935 246.288 159.21C246.536 159.486 246.723 159.81 246.837 160.162C246.951 160.514 246.99 160.887 246.951 161.255Z" fill="#5F3D30"/>
<path d="M249.685 170.37H218.047C217.3 170.37 216.695 170.974 216.695 171.719V171.809C216.695 172.554 217.3 173.158 218.047 173.158H249.685C250.431 173.158 251.037 172.554 251.037 171.809V171.719C251.037 170.974 250.431 170.37 249.685 170.37Z" fill="#FFC578"/>
<path d="M249.685 152.471H218.047C217.3 152.471 216.695 153.075 216.695 153.82V153.91C216.695 154.655 217.3 155.259 218.047 155.259H249.685C250.431 155.259 251.037 154.655 251.037 153.91V153.82C251.037 153.075 250.431 152.471 249.685 152.471Z" fill="#FFC578"/>
<path d="M109.969 262.366H83.2695C83.2695 262.366 90.7094 256.946 96.9094 256.536C103.109 256.126 109.969 262.366 109.969 262.366Z" fill="#768BBF"/>
<path d="M109.97 262.366L100.86 259.366L91.3799 256.286C91.3799 256.286 90.3798 245.666 89.5798 232.336C89.1798 225.876 88.7998 218.776 88.5798 211.946C88.3998 206.556 88.3196 201.316 88.3996 196.696C88.3996 193.336 88.5898 190.306 88.8298 187.746C90.6098 188.046 92.2199 188.256 93.6399 188.396C95.8209 188.639 98.0159 188.733 100.21 188.676C100.21 188.996 100.78 193.916 101.65 201.096C104.02 220.676 108.61 256.926 109.97 262.366Z" fill="#5F3D30"/>
<path d="M101.649 201.176C104.019 220.716 108.649 256.966 109.969 262.406L100.86 259.406L93.6396 188.406C95.8207 188.649 98.0156 188.743 100.209 188.686C100.209 189.036 100.779 193.956 101.649 201.176Z" fill="#421C18"/>
<path d="M100.209 188.716C100.209 189.036 100.779 193.956 101.649 201.136C98.0694 200.136 92.3994 198.196 88.3994 196.736C88.3994 193.376 88.5896 190.346 88.8296 187.786C92.5825 188.474 96.3946 188.786 100.209 188.716Z" fill="#421C18"/>
<path d="M118.71 262.176H145.41C145.41 262.176 137.97 256.756 131.77 256.346C125.57 255.936 118.71 262.176 118.71 262.176Z" fill="#768BBF"/>
<path d="M132.63 255.096C132.63 255.096 130.52 256.386 127.13 258.176C124.83 259.396 121.929 260.856 118.689 262.296C115.959 255.826 109.9 220.166 106.87 201.616C105.76 194.876 105.06 190.396 105.06 190.396C105.06 190.396 106.92 186.396 110.56 185.176C112.47 184.496 114.88 184.566 117.76 186.326C118.07 187.716 118.76 190.646 119.57 194.546C119.81 195.626 120.06 196.776 120.32 197.996C121.25 202.276 122.32 207.336 123.49 212.646C127.71 232.176 132.63 255.096 132.63 255.096Z" fill="#5F3D30"/>
<path d="M120.32 197.996C115.941 199.562 111.443 200.773 106.87 201.616C105.76 194.876 105.06 190.396 105.06 190.396C105.06 190.396 109.39 181.216 117.76 186.326C118.16 188.106 119.1 192.386 120.32 197.996Z" fill="#421C18"/>
<path d="M127.13 258.176C124.83 259.396 121.929 260.856 118.689 262.296C115.959 255.826 109.9 220.166 106.87 201.616C105.76 194.876 105.06 190.396 105.06 190.396C105.06 190.396 106.92 186.396 110.56 185.176L127.13 258.176Z" fill="#421C18"/>
<path d="M86.46 165.516C86.46 165.516 85.83 166.986 81.46 171.256C80.5489 171.608 79.613 171.892 78.6599 172.106C77.7799 172.316 76.8301 172.496 75.8501 172.656C71.1182 173.3 66.3453 173.594 61.5701 173.536C58.1001 173.536 55.67 173.396 55.67 173.396C54.68 174.193 53.5951 174.865 52.44 175.396C51.26 175.766 49.2501 176.276 49.0801 175.896C48.9101 175.516 52.19 174.256 51.98 173.896C51.77 173.536 47.9202 176.016 47.6302 175.416C47.4202 174.996 51.5402 173.206 51.3902 172.926C51.2402 172.646 47.23 174.926 47.01 174.836C46.79 174.236 50.2501 172.286 50.8401 172.006C50.6701 171.776 49.84 171.836 48.99 172.296C48.14 172.756 47.8 173.406 47.19 173.766C47.1683 173.778 47.1432 173.783 47.1184 173.781C47.0937 173.778 47.0705 173.768 47.0518 173.751C47.0331 173.735 47.0199 173.713 47.0142 173.689C47.0085 173.664 47.0106 173.639 47.0201 173.616C47.3965 172.846 47.9465 172.175 48.6267 171.654C49.307 171.134 50.0989 170.778 50.94 170.616C51.6403 170.446 52.3595 170.365 53.0801 170.376C53.6087 170.375 54.1366 170.411 54.6599 170.486C60.5399 167.196 69.5701 164.486 73.0801 163.486L74.5401 163.076L77.5401 160.316L86.46 165.516Z" fill="#DC8D75"/>
<path d="M86.46 165.516C86.46 165.516 85.83 166.986 81.46 171.256C80.5489 171.608 79.613 171.892 78.6599 172.106L73.0801 163.486L74.54 163.076L77.54 160.316L86.46 165.516Z" fill="#C87559"/>
<path d="M53.9795 172.476C53.6616 172.555 53.3312 172.569 53.0076 172.519C52.6839 172.469 52.3737 172.355 52.0945 172.184C51.8153 172.013 51.573 171.788 51.3816 171.522C51.1902 171.256 51.0534 170.955 50.9795 170.636C51.6798 170.466 52.399 170.385 53.1196 170.396C53.4471 171.072 53.7342 171.766 53.9795 172.476Z" fill="#C87559"/>
<path d="M49.9897 168.706C49.6597 168.976 50.2397 169.816 50.7497 170.026L51.8799 170.506C51.8799 170.506 51.5697 171.766 53.4897 172.436L53.8098 172.536C54.0626 172.598 54.3292 172.571 54.5644 172.46C54.7997 172.348 54.9891 172.159 55.1008 171.924C55.2125 171.689 55.2396 171.422 55.1775 171.169C55.1153 170.916 54.9678 170.693 54.7598 170.536C53.1598 169.456 50.8297 169.056 49.9897 168.706Z" fill="#DC8D75"/>
<path d="M98.5198 149.736C97.0898 153.926 92.0898 161.306 88.5198 166.216C86.4198 169.136 84.8398 171.216 84.8398 171.216C84.8398 171.216 83.8399 170.216 74.6099 161.266C75.9699 159.346 77.3397 157.516 78.6897 155.796C83.9577 149.06 89.9355 142.911 96.5198 137.456C98.5198 137.386 100.82 143.066 98.5198 149.736Z" fill="#E09F34"/>
<path d="M88.5898 166.176C86.4898 169.096 84.9097 171.176 84.9097 171.176C84.9097 171.176 83.9097 170.176 74.6797 161.226C76.0397 159.306 77.4098 157.476 78.7598 155.756C81.0998 158.226 85.8598 163.246 88.5898 166.176Z" fill="#87A0D1"/>
<path d="M165.2 184.626C165.04 184.876 163.89 183.216 163.26 182.626C162.669 182.132 161.938 181.838 161.17 181.786C161.12 181.936 164.73 185.036 164.66 185.576C164.59 186.116 159.9 182.316 159.79 182.456C159.68 182.596 163.22 186.266 162.9 186.396C162.13 186.706 158.42 183.256 158.31 183.156C158.2 183.056 158.62 183.726 158.91 184.156C159.47 184.769 160.09 185.325 160.76 185.816C160.797 185.852 160.823 185.899 160.831 185.95C160.84 186.001 160.832 186.054 160.808 186.1C160.785 186.146 160.747 186.183 160.7 186.206C160.654 186.229 160.601 186.236 160.55 186.226C157.2 185.676 155.97 182.226 155.97 182.226C145.4 180.636 134.81 176.056 132.97 174.046C132.272 173.242 131.672 172.36 131.18 171.416C130.019 169.26 128.968 167.047 128.03 164.786L136.43 161.706C136.43 161.706 137.05 162.556 139.7 167.576L140.33 168.756C141.607 169.239 142.838 169.835 144.01 170.536C146.23 171.786 148.96 173.536 151.56 175.236C154 176.846 156.32 178.466 158.01 179.736C162.01 180.136 162.82 180.836 163.57 181.556L163.75 181.736C164.478 182.556 164.978 183.552 165.2 184.626Z" fill="#DC8D75"/>
<path d="M163.59 181.566C162.85 181.398 162.103 181.268 161.35 181.176C161.141 181.432 160.879 181.64 160.582 181.785C160.285 181.93 159.96 182.009 159.63 182.016C159.266 182.063 158.896 182.025 158.549 181.905C158.202 181.785 157.887 181.587 157.63 181.326C157.08 180.066 158 179.746 158 179.746C162.07 180.176 162.84 180.846 163.59 181.566Z" fill="#C87559"/>
<path d="M136.45 161.716C136.45 161.716 137.07 162.566 139.72 167.586C136.94 168.816 133.16 170.536 131.2 171.426C130.039 169.27 128.988 167.057 128.05 164.796L136.45 161.716Z" fill="#C87559"/>
<path d="M157.259 181.176C157.259 181.176 157.809 182.046 159.259 181.536C160.709 181.026 160.729 180.536 160.729 180.536C160.729 180.536 163.27 181.036 163.83 180.536C162.724 179.778 161.436 179.329 160.1 179.236C158.85 179.176 156.069 179.246 157.259 181.176Z" fill="#DC8D75"/>
<path d="M139.35 163.176C139.35 163.176 138.42 163.996 132.43 167.396C131 168.206 129.27 169.166 127.19 170.306C126.77 169.556 126.39 168.836 126.03 168.136L125.9 167.876C125.82 167.706 125.74 167.536 125.65 167.366L125.51 167.066L125.33 166.676C125.2 166.416 125.09 166.156 124.97 165.906C124.85 165.656 124.86 165.656 124.81 165.526L124.7 165.286C123.288 161.806 122.184 158.209 121.4 154.536C119.96 148.606 121.3 139.746 125.18 139.946C125.269 139.936 125.36 139.936 125.45 139.946C126.523 140.256 127.476 140.888 128.18 141.756C130.76 144.496 133.54 149.756 135.68 154.436C136.24 155.666 136.76 156.846 137.22 157.916C138.52 161.016 139.35 163.176 139.35 163.176Z" fill="#FFB14A"/>
<path d="M132.43 167.426C131 168.236 129.27 169.196 127.19 170.336C126.77 169.586 126.39 168.866 126.03 168.166L125.9 167.906C125.82 167.736 125.74 167.566 125.65 167.396L125.51 167.096C125.26 166.576 125.03 166.096 124.81 165.556L124.7 165.316C123.288 161.836 122.184 158.238 121.4 154.566C119.96 148.636 121.3 139.776 125.18 139.976C125.269 139.966 125.36 139.966 125.45 139.976C124.38 141.976 123.16 145.056 124.34 150.046C125.05 153.046 127.34 157.966 129.69 162.346C130.65 164.176 131.61 165.946 132.43 167.426Z" fill="#E09F34"/>
<path d="M156.64 181.256L155.04 180.466L155.51 179.746L157.02 180.876L156.64 181.256Z" fill="#C87559"/>
<path d="M139.35 163.176C139.35 163.176 138.419 163.996 132.429 167.396C131.609 165.916 130.649 164.176 129.689 162.346C132.409 160.746 135.469 158.966 137.219 157.946C138.519 161.016 139.35 163.176 139.35 163.176Z" fill="#87A0D1"/>
<path d="M132.43 167.426C131 168.236 129.27 169.196 127.19 170.336C126.77 169.586 126.39 168.866 126.03 168.166L125.9 167.906C125.82 167.736 125.74 167.566 125.65 167.396L125.51 167.096C125.26 166.576 125.03 166.096 124.81 165.556L124.7 165.316C125.7 164.736 127.58 163.616 129.7 162.376C130.65 164.176 131.61 165.946 132.43 167.426Z" fill="#768BBF"/>
<path d="M120.229 172.476C120.179 173.946 121.11 190.596 121.11 190.596C121.11 190.596 120.789 190.916 117.459 192.026L117.209 192.106C116.909 192.106 115.57 187.786 115.57 187.786C115.57 187.786 115.399 187.446 114.479 192.566C110.364 192.991 106.222 193.105 102.09 192.906H101.62H100.729C96.1077 192.725 91.5263 191.973 87.0896 190.666C86.4196 185.666 89.3095 164.866 89.7295 160.966C90.1495 157.066 94.2595 139.366 96.5295 137.526C97.9895 136.336 101.529 135.666 105.649 135.306C106.509 135.236 107.39 135.176 108.27 135.126H109.08H109.36C110.46 135.076 111.56 135.046 112.63 135.026C113.104 135.019 113.579 135.046 114.05 135.106C118.5 135.636 125.429 138.606 126.179 140.936C126.284 141.572 126.284 142.22 126.179 142.856C125.679 149.176 121.249 168.176 120.229 172.476Z" fill="#FFB14A"/>
<path d="M121.11 190.596C121.11 190.596 120.79 190.916 117.46 192.026C116.23 185.144 115.611 178.167 115.61 171.176C116.79 164.736 122.51 150.346 126.21 142.726C125.68 149.166 121.21 168.146 120.21 172.476C120.18 173.946 121.11 190.596 121.11 190.596Z" fill="#E09F34"/>
<path d="M106.22 133.826C105.97 134.376 105.27 135.926 105.52 136.426C106.417 137.357 107.587 137.98 108.86 138.206C109.86 138.206 113.22 137.436 114 135.506C114.19 133.886 114.12 133.076 113.79 133.026C113.46 132.976 106.52 133.276 106.22 133.826Z" fill="#ECBF54"/>
<path d="M109.45 133.556C109.376 134.054 109.253 134.543 109.08 135.016C109.074 135.059 109.074 135.103 109.08 135.146C108.8 135.886 108.47 137.056 108.08 138.416C106.47 143.806 104 154.276 102.33 172.606C101.71 179.347 101.492 186.119 101.68 192.886H100.79C100.47 163.886 105.14 145.186 107.44 137.806C107.81 136.606 108.12 135.706 108.33 135.106C108.54 134.506 108.67 134.216 108.67 134.216L109.45 133.556Z" fill="#421C18"/>
<path d="M120.37 136.616C120.31 142.776 118.3 161.336 118.23 167.446C118.16 173.556 118.04 180.716 118.04 180.716C116.687 181.683 115.118 182.304 113.47 182.526C112.144 182.725 110.796 182.725 109.47 182.526C109.34 170.816 111.36 149.686 112.47 143.136C113.58 136.586 113.92 133.826 113.92 133.826C115.357 134.117 116.759 134.563 118.1 135.156C118.934 135.51 119.701 136.004 120.37 136.616Z" fill="#D05663"/>
<path d="M120.37 136.616C120.31 142.776 118.3 161.336 118.23 167.446C118.16 173.556 118.04 180.716 118.04 180.716C116.687 181.683 115.118 182.304 113.47 182.526C112.55 170.456 116.81 143.256 118.14 135.176C118.958 135.528 119.712 136.015 120.37 136.616Z" fill="#AE3658"/>
<path d="M106.03 134.476C103.452 141.97 101.266 149.594 99.4795 157.316C97.2195 167.636 96.7195 182.036 96.7195 182.036C95.6681 182.013 94.6194 181.923 93.5796 181.766C91.911 181.59 90.2988 181.061 88.8496 180.216C90.0496 169.516 91.6796 158.696 93.3796 150.706C95.0796 142.716 98.6696 136.866 99.6096 135.856C100.544 135.286 101.599 134.944 102.689 134.856C104.349 134.596 106.03 134.476 106.03 134.476Z" fill="#D05663"/>
<path d="M106.03 134.476C103.453 141.97 101.266 149.594 99.48 157.316C97.22 167.636 96.72 182.036 96.72 182.036C95.6686 182.013 94.6199 181.923 93.5801 181.766C94.0601 155.026 100.36 139.766 102.69 134.866C104.35 134.596 106.03 134.476 106.03 134.476Z" fill="#AE3658"/>
<path d="M113.36 130.176C113.36 130.176 113.75 132.046 114.1 132.036C114.45 132.026 114.16 130.256 114.16 130.256C114.16 130.256 115.24 132.426 115.75 132.336C116.26 132.246 115.2 129.756 115.2 129.756C116.659 128.878 117.782 127.536 118.39 125.946C119.234 124.348 119.728 122.589 119.84 120.786C119.84 119.786 119.68 116.836 117.16 115.366C114.64 113.896 110.31 112.986 107.16 114.256C106.35 112.846 106.01 112.576 105.8 112.686C105.59 112.796 106.01 113.926 106.01 113.926C106.01 113.926 104.18 111.616 103.9 112.056C103.62 112.496 104.03 113.556 104.75 114.106C102.37 112.576 101.68 112.746 102.08 112.986C102.914 113.851 103.904 114.55 105 115.046C101.64 116.326 99.1297 117.346 99.3197 118.046C99.5097 118.746 101.32 118.206 101.32 118.206C101.32 118.206 99.6696 119.206 99.9396 119.556C100.21 119.906 101.57 119.176 101.57 119.176C101.57 119.176 99.5097 120.906 100.05 121.346C100.59 121.786 101.87 120.346 101.87 120.346C101.615 120.766 101.453 121.236 101.396 121.725C101.339 122.213 101.388 122.708 101.54 123.176C102.14 124.736 113.36 130.176 113.36 130.176Z" fill="#421C18"/>
<path d="M114.1 127.616C114.1 127.616 113.45 132.236 113.18 134.116C111.915 134.981 110.384 135.367 108.86 135.206C108.171 135.036 107.501 134.798 106.86 134.496L107.63 130.786L114.1 127.616Z" fill="#C87559"/>
<path d="M108.72 115.526C108.709 116.25 108.894 116.964 109.257 117.591C109.62 118.218 110.146 118.734 110.78 119.086C112.64 120.296 114.02 120.396 114.05 120.206C114.08 120.016 112.84 118.856 112.84 118.856C112.84 118.856 115.62 120.526 115.65 120.296C115.597 119.947 115.489 119.61 115.33 119.296C116.104 120.32 116.978 121.265 117.94 122.116C118.6 122.016 118.34 118.656 117.65 117.466C116.27 115.176 109.41 113.986 108.72 115.526Z" fill="#522F2C"/>
<path d="M103.12 123.716C103.12 123.716 102.9 122.226 101.74 122.406C100.58 122.586 100.66 124.836 101.11 125.576C101.318 125.881 101.592 126.135 101.913 126.318C102.233 126.502 102.591 126.611 102.96 126.636C103.35 126.606 103.12 123.716 103.12 123.716Z" fill="#C87559"/>
<path d="M113.81 128.026C113.979 128.277 114.208 128.482 114.477 128.622C114.746 128.762 115.046 128.832 115.35 128.826C116.52 128.886 117.05 127.826 117.35 126.826C117.606 126.128 117.606 125.363 117.35 124.666C117.12 124.276 116.129 123.616 114.979 124.726C114.109 125.576 113.81 128.026 113.81 128.026Z" fill="#DC8D75"/>
<path d="M116.79 126.176C116.851 126.082 116.891 125.976 116.91 125.865C116.928 125.755 116.923 125.642 116.896 125.533C116.869 125.424 116.82 125.322 116.752 125.233C116.683 125.144 116.598 125.07 116.5 125.016C115.64 124.606 114.9 125.626 114.69 126.366C115.37 126.246 115.45 126.366 115.54 126.716C115.63 127.066 115.06 127.716 114.54 127.546C114.02 127.376 114.26 127.436 114.26 127.436C114.255 127.597 114.298 127.756 114.384 127.893C114.469 128.03 114.593 128.139 114.74 128.206C114.899 128.279 115.073 128.314 115.249 128.309C115.424 128.303 115.596 128.257 115.75 128.173C115.904 128.09 116.037 127.972 116.138 127.828C116.238 127.684 116.304 127.519 116.33 127.346C116.198 127.588 115.978 127.77 115.715 127.854C115.452 127.938 115.168 127.917 114.92 127.796C115.072 127.794 115.222 127.76 115.36 127.697C115.499 127.634 115.622 127.542 115.723 127.428C115.824 127.314 115.9 127.18 115.946 127.035C115.992 126.89 116.007 126.737 115.99 126.586C115.91 125.976 115.04 126.106 115.04 126.106C115.04 126.106 115.53 125.286 116.04 125.316C116.84 125.326 116.79 126.176 116.79 126.176Z" fill="#AA533B"/>
<path d="M115.18 125.006C115.187 125.122 115.187 125.239 115.18 125.356C115.063 125.93 114.916 126.497 114.74 127.056C114.351 128.269 113.703 129.383 112.839 130.319C111.975 131.255 110.918 131.991 109.74 132.476C108.897 132.877 107.969 133.063 107.037 133.017C106.105 132.972 105.199 132.697 104.399 132.216H104.35C103.17 131.216 102.729 129.396 102.649 127.496C102.616 125.628 102.797 123.762 103.19 121.936C103.34 121.166 103.49 120.566 103.58 120.236C104.678 119.126 105.973 118.231 107.399 117.596C107.679 118.976 109.13 121.026 113.19 121.716C112.72 122.816 112.649 123.346 112.909 123.446C113.169 123.546 113.51 122.866 113.53 122.816C113.55 122.766 113.13 124.476 113.44 124.386C113.75 124.296 114.01 123.506 114.01 123.506C114.01 123.506 113.82 125.206 114.26 124.926C114.563 124.667 114.774 124.316 114.86 123.926C115.005 124.273 115.112 124.635 115.18 125.006Z" fill="#DC8D75"/>
<path d="M115.179 125.006C115.187 125.122 115.187 125.239 115.179 125.356L114.719 125.006C114.719 125.006 114.159 126.156 113.719 125.956C113.279 125.756 113.719 124.806 113.719 124.726C113.719 124.646 113.279 125.506 112.899 125.396C112.519 125.286 112.899 123.876 112.899 123.826C112.899 123.776 112.36 124.396 112.02 124.266C111.68 124.136 111.74 123.356 112.29 122.266C107.99 122.156 107.05 120.386 106.59 118.786C105.264 119.621 104.096 120.684 103.14 121.926C103.29 121.156 103.44 120.556 103.53 120.226C104.628 119.116 105.923 118.221 107.35 117.586C107.63 118.966 109.08 121.016 113.14 121.706C112.67 122.806 112.6 123.336 112.86 123.436C113.12 123.536 113.459 122.856 113.479 122.806C113.499 122.756 113.08 124.466 113.39 124.376C113.7 124.286 113.959 123.496 113.959 123.496C113.959 123.496 113.769 125.196 114.209 124.916C114.513 124.657 114.724 124.306 114.81 123.916C114.972 124.265 115.096 124.63 115.179 125.006Z" fill="#C87559"/>
<path d="M112.52 125.766C112.52 125.956 112.1 126.166 111.52 126.256C110.94 126.346 110.46 126.256 110.43 126.066C110.4 125.876 110.85 125.676 111.43 125.586C112.01 125.496 112.52 125.586 112.52 125.766Z" fill="#C87559"/>
<path d="M105.22 126.266C105.22 126.446 104.68 126.476 104.12 126.326C103.56 126.176 103.12 125.916 103.19 125.746C103.26 125.576 103.73 125.536 104.29 125.676C104.85 125.816 105.26 126.086 105.22 126.266Z" fill="#C87559"/>
<path d="M108.21 131.486C108.21 131.676 107.75 131.836 107.21 131.836C106.67 131.836 106.21 131.676 106.21 131.486C106.21 131.296 106.67 131.146 107.21 131.146C107.75 131.146 108.21 131.296 108.21 131.486Z" fill="#C87559"/>
<path d="M107.44 119.926C107.44 119.926 106.62 120.326 107.36 121.696C107.604 121.471 107.749 121.159 107.764 120.827C107.779 120.496 107.662 120.172 107.44 119.926Z" fill="#F5E284"/>
<path d="M105.77 124.176C105.77 124.312 105.729 124.446 105.653 124.559C105.578 124.673 105.47 124.761 105.344 124.813C105.217 124.866 105.079 124.879 104.945 124.853C104.811 124.826 104.688 124.76 104.592 124.664C104.495 124.567 104.43 124.444 104.403 124.31C104.376 124.177 104.39 124.038 104.442 123.912C104.494 123.786 104.583 123.678 104.696 123.602C104.81 123.526 104.943 123.486 105.08 123.486C105.263 123.486 105.438 123.559 105.567 123.688C105.697 123.817 105.77 123.993 105.77 124.176Z" fill="#421C18"/>
<path d="M110.09 124.176C110.09 124.312 110.049 124.446 109.974 124.559C109.898 124.673 109.79 124.761 109.664 124.813C109.538 124.866 109.399 124.879 109.265 124.853C109.131 124.826 109.008 124.76 108.912 124.664C108.815 124.567 108.75 124.444 108.723 124.31C108.697 124.177 108.71 124.038 108.762 123.912C108.815 123.786 108.903 123.678 109.016 123.602C109.13 123.526 109.263 123.486 109.4 123.486C109.583 123.486 109.758 123.559 109.888 123.688C110.017 123.817 110.09 123.993 110.09 124.176Z" fill="#421C18"/>
<path d="M108.36 122.616C108.44 122.737 108.53 122.851 108.63 122.956C108.978 122.814 109.354 122.753 109.73 122.776C110.084 122.843 110.435 122.93 110.78 123.036C110.473 122.674 110.048 122.433 109.58 122.356C109.159 122.356 108.744 122.445 108.36 122.616Z" fill="#421C18"/>
<path d="M106.35 122.706C106.235 122.796 106.115 122.88 105.99 122.956C105.667 122.713 105.282 122.564 104.88 122.526C104.64 122.476 103.88 122.436 103.88 122.436C104.275 122.174 104.749 122.06 105.22 122.116C105.634 122.229 106.02 122.43 106.35 122.706Z" fill="#421C18"/>
<path d="M107.32 122.556C107.32 122.556 108.23 125.916 105.52 127.056C106.548 125.764 107.174 124.2 107.32 122.556Z" fill="#AA533B"/>
<path d="M110.61 127.706C110.605 127.746 110.605 127.786 110.61 127.826C110.615 128.194 110.542 128.559 110.394 128.897C110.247 129.234 110.029 129.536 109.755 129.783C109.482 130.029 109.158 130.214 108.807 130.325C108.456 130.436 108.085 130.47 107.719 130.426C107.391 130.395 107.072 130.3 106.78 130.146C106.485 129.988 106.227 129.769 106.023 129.503C105.82 129.238 105.675 128.932 105.6 128.606C105.546 128.41 105.519 128.208 105.52 128.006C107.266 128.32 109.067 128.013 110.61 127.136C110.624 127.325 110.624 127.516 110.61 127.706Z" fill="#38281B"/>
<path d="M110.61 127.706C110.605 127.746 110.605 127.786 110.61 127.826C110.615 128.194 110.542 128.559 110.395 128.897C110.247 129.234 110.029 129.537 109.756 129.783C109.482 130.029 109.159 130.214 108.807 130.325C108.456 130.436 108.085 130.47 107.72 130.426C107.953 129.777 108.336 129.192 108.838 128.719C109.34 128.246 109.948 127.899 110.61 127.706Z" fill="#D05663"/>
<path d="M110.6 127.826C109.826 128.487 108.848 128.861 107.83 128.886C107.072 128.972 106.304 128.876 105.59 128.606C105.536 128.41 105.509 128.208 105.51 128.006C107.256 128.32 109.057 128.013 110.6 127.136C110.62 127.365 110.62 127.596 110.6 127.826Z" fill="white"/>
<path d="M142.544 225.41L139.434 223.62L136.324 221.83L177.124 151L183.334 154.58L142.544 225.41Z" fill="#D05663"/>
<path d="M129.234 243.96C129.234 243.96 109.924 234.35 117.954 220.41C125.984 206.47 138.665 217.78 145.175 206.48L149.415 208.92L129.234 243.96Z" fill="#E09F34"/>
<path d="M127.185 242.78C127.185 242.78 145.185 254.65 153.185 240.71C161.185 226.77 144.784 221.32 151.294 210.02L147.344 207.74L127.185 242.78Z" fill="#CE800C"/>
<path d="M182.025 171.01C181.832 171.359 181.539 171.642 181.184 171.824C180.829 172.006 180.428 172.077 180.032 172.029C179.637 171.981 179.264 171.815 178.963 171.554C178.662 171.293 178.445 170.947 178.342 170.562C178.238 170.177 178.253 169.77 178.382 169.393C178.512 169.016 178.751 168.686 179.07 168.446C179.388 168.206 179.771 168.067 180.169 168.046C180.568 168.025 180.963 168.124 181.305 168.33C181.748 168.597 182.071 169.025 182.205 169.525C182.339 170.024 182.275 170.557 182.025 171.01Z" fill="#5F3D30"/>
<path d="M185.984 160.88C185.792 161.229 185.499 161.513 185.144 161.694C184.789 161.876 184.388 161.947 183.992 161.899C183.596 161.851 183.224 161.686 182.923 161.424C182.622 161.163 182.405 160.818 182.302 160.432C182.198 160.047 182.212 159.64 182.342 159.263C182.472 158.886 182.711 158.556 183.03 158.316C183.348 158.076 183.731 157.937 184.129 157.916C184.527 157.896 184.923 157.994 185.265 158.2C185.708 158.467 186.031 158.895 186.165 159.395C186.299 159.894 186.235 160.427 185.984 160.88Z" fill="#5F3D30"/>
<path d="M169.834 157.21C169.643 157.56 169.351 157.845 168.996 158.028C168.641 158.211 168.24 158.284 167.843 158.237C167.447 158.19 167.073 158.025 166.771 157.764C166.469 157.503 166.252 157.157 166.148 156.772C166.044 156.386 166.058 155.978 166.188 155.601C166.318 155.223 166.557 154.893 166.877 154.653C167.196 154.413 167.579 154.274 167.978 154.254C168.377 154.233 168.773 154.333 169.114 154.54C169.555 154.806 169.876 155.233 170.01 155.73C170.144 156.228 170.081 156.758 169.834 157.21Z" fill="#5F3D30"/>
<path d="M165.574 167.19C165.382 167.54 165.089 167.824 164.734 168.007C164.378 168.189 163.976 168.26 163.58 168.212C163.183 168.164 162.81 167.998 162.509 167.735C162.207 167.473 161.992 167.127 161.889 166.741C161.786 166.354 161.802 165.947 161.933 165.569C162.064 165.192 162.305 164.863 162.626 164.624C162.946 164.385 163.33 164.247 163.729 164.229C164.128 164.21 164.524 164.312 164.865 164.52C165.304 164.788 165.622 165.215 165.755 165.713C165.887 166.21 165.822 166.739 165.574 167.19Z" fill="#5F3D30"/>
<path d="M141.404 233.04C140.772 234.139 139.827 235.025 138.69 235.587C137.554 236.149 136.276 236.361 135.018 236.197C133.761 236.033 132.581 235.499 131.627 234.663C130.673 233.828 129.988 232.728 129.659 231.504C129.33 230.279 129.372 228.984 129.779 227.783C130.186 226.582 130.94 225.529 131.946 224.757C132.952 223.985 134.164 223.528 135.429 223.445C136.694 223.362 137.956 223.656 139.054 224.29C140.526 225.139 141.6 226.538 142.04 228.179C142.481 229.819 142.252 231.568 141.404 233.04Z" fill="#5F3D30"/>
<path d="M133.305 234.26L127.755 231.07L126.675 232.95L132.225 236.15L137.775 239.35L138.855 237.46L133.305 234.26Z" fill="#A82A2A"/>
<path d="M171.025 175.96L167.915 174.17L164.805 172.38L177.125 151L183.335 154.58L171.025 175.96Z" fill="#87A0D1"/>
<path d="M173.366 158.945L135.426 224.961L135.991 225.286L173.931 159.27L173.366 158.945Z" fill="#421C18"/>
<path d="M175.203 159.791L131.881 235.008L132.445 235.332L175.766 160.116L175.203 159.791Z" fill="#421C18"/>
<path d="M178.634 156.246L132.952 235.561L133.515 235.885L179.197 156.57L178.634 156.246Z" fill="#421C18"/>
<path d="M174.305 166.521L134.17 236.233L134.734 236.557L174.869 166.845L174.305 166.521Z" fill="#421C18"/>
<path d="M179.084 156.004L178.515 156.992L184.303 160.326L184.872 159.338L179.084 156.004Z" fill="#421C18"/>
<path d="M174.979 166.047L174.41 167.035L179.687 170.075L180.256 169.087L174.979 166.047Z" fill="#421C18"/>
<path d="M169.054 155.86L168.445 156.917L175.326 160.88L175.935 159.823L169.054 155.86Z" fill="#421C18"/>
<path d="M164.47 165.653L163.901 166.641L168.728 169.421L169.297 168.433L164.47 165.653Z" fill="#421C18"/>
<path d="M48.2398 171.554C46.7892 171.228 43.835 169.467 43.2748 168.057C44.4292 167.684 45.6125 167.406 46.8128 167.224C47.5617 167.224 46.9543 168.523 47.3258 169.31C47.656 170.004 47.8448 171.204 48.4521 171.764" fill="#87A0D1"/>
<path d="M57.5274 171.991C57.1324 172.924 56.861 173.904 56.7197 174.905C56.7388 175.536 56.8217 176.162 56.9673 176.776C57.0321 176.94 57.7398 176.811 58.1938 177.441C57.6184 177.635 56.9919 177.623 56.4248 177.406C55.8351 177.126 55.8056 175.273 55.5226 174.532C54.8681 172.592 54.7737 170.091 57.5865 171.851" fill="#FFB14A"/>
<path d="M54.8912 172.411C54.4962 173.344 54.2247 174.323 54.0834 175.325C54.1025 175.957 54.1854 176.586 54.331 177.202C54.3959 177.359 55.1036 177.237 55.5576 177.86C54.9827 178.058 54.3551 178.046 53.7886 177.825C53.2284 177.551 53.1989 175.698 52.8864 174.958C52.2318 173.011 52.1375 170.511 54.9502 172.271" fill="#FFB14A"/>
<path d="M57.492 165.049C58.8847 157.043 59.7456 148.956 60.0689 140.838C60.1279 139.591 60.0689 134.73 58.0994 134.427C56.9731 134.287 56.5545 135.954 55.9943 136.653C54.585 133.593 53.1344 133.156 51.731 136.607C50.416 134.275 47.1374 134.013 47.2789 137.481C45.8283 134.567 41.9717 135.587 43.2042 139.195C40.3914 137.394 38.7108 140.681 40.3914 142.901C37.7732 141.153 36.5527 144.848 38.5694 147.069C36.364 146.789 35.1493 150.123 38.2864 152.209C35.5208 151.883 35.0548 155.771 38.0504 156.872C35.8981 156.965 35.4264 159.926 38.5222 161.78C36.1635 161.593 36.5998 166.221 39.8312 165.947C38.4278 169.648 47.9806 167.661 51.495 166.827C55.5697 165.714 59.3672 168.861 58.5239 163.86" fill="#BFC34C"/>
<path d="M59.4795 149.493C58.9193 148.87 57.9345 147.966 57.4451 147.273C56.8554 149.423 55.1984 148.73 54.2844 147.407C53.8598 149.155 51.8255 149.423 50.8408 147.896C50.4162 149.423 49.856 150.811 48.1695 149.214C48.0988 149.284 48.0987 149.144 48.0987 149.144C47.8864 150.309 47.049 152.058 45.569 151.23C45.569 152.396 45.2211 154.214 43.6054 153.031C43.4639 154.005 43.3224 155.398 41.9897 155.188C42.6207 156.645 43.6054 158.312 41.0757 158.102C41.5651 158.936 43.3223 161.436 42.0604 162.182C42.6206 163.015 43.0393 164.542 42.5499 164.892C43.6762 165.475 44.0948 166.769 43.9532 168.016C46.766 167.043 49.8501 166.909 52.8751 166.699C54.2844 166.629 55.3399 166.489 56.1772 165.306C56.6018 164.682 57.7222 164.234 57.8638 163.435C58.6974 158.842 59.2605 154.204 59.5503 149.546" fill="#A4AA01"/>
<path d="M55.6285 163.569C56.2182 159.273 56.4718 154.914 56.7372 150.583C56.9436 147.174 57.2029 143.741 57.2088 140.325C57.2199 140.241 57.2617 140.164 57.3263 140.108C57.3909 140.051 57.4739 140.021 57.5598 140.021C57.6457 140.021 57.7287 140.051 57.7933 140.108C57.8579 140.164 57.8996 140.241 57.9106 140.325C57.9106 143.822 57.6394 147.29 57.4271 150.758C57.1617 155.089 56.92 159.454 56.3067 163.75C56.2419 164.193 55.5696 164.006 55.6285 163.569Z" fill="#A4AA01"/>
<path d="M53.4646 163.453C53.8007 159.268 53.7654 155.042 53.7772 150.846C53.7772 147.273 53.7771 143.694 53.7417 140.116C53.7417 140.023 53.779 139.934 53.8454 139.868C53.9118 139.803 54.0018 139.766 54.0956 139.766C54.1894 139.766 54.2793 139.803 54.3457 139.868C54.412 139.934 54.4493 140.023 54.4493 140.116C54.4493 143.694 54.4906 147.273 54.4788 150.846C54.4788 155.042 54.5083 159.268 54.1663 163.453C54.1309 163.896 53.4292 163.896 53.4646 163.453Z" fill="#A4AA01"/>
<path d="M51.6837 163.726C51.212 159.291 50.923 154.832 50.6046 150.385C50.3569 146.941 50.2509 143.449 49.8086 140.022C49.7496 139.579 50.4572 139.585 50.5103 140.022C50.9525 143.449 51.0586 146.941 51.3063 150.385C51.6247 154.832 51.896 159.291 52.3854 163.726C52.4326 164.175 51.7309 164.169 51.6837 163.726Z" fill="#A4AA01"/>
<path d="M49.5258 163.453C49.5012 162.107 49.361 160.765 49.107 159.443C48.7827 157.111 48.4113 154.815 48.028 152.501C47.6447 150.187 47.2319 147.797 46.8014 145.454C46.5243 143.986 46.2825 142.488 45.8874 141.042C45.8727 140.957 45.8906 140.869 45.9375 140.796C45.9844 140.723 46.057 140.67 46.1414 140.647C46.2257 140.623 46.3158 140.632 46.3942 140.671C46.4725 140.709 46.5336 140.775 46.5656 140.856C46.9489 142.26 47.1848 143.712 47.456 145.146C47.8983 147.529 48.311 149.925 48.7061 152.315C49.1012 154.704 49.4727 157.024 49.8029 159.384C50.0617 160.73 50.2056 162.095 50.2334 163.464C50.2334 163.907 49.514 163.913 49.5258 163.464V163.453Z" fill="#9DAC2D"/>
<path d="M48.417 164.56C47.0135 157.129 44.4779 149.936 42.6086 142.616C42.5939 142.53 42.6118 142.443 42.6587 142.37C42.7056 142.297 42.7782 142.243 42.8626 142.22C42.9469 142.197 43.037 142.205 43.1154 142.244C43.1937 142.283 43.2548 142.349 43.2868 142.429C45.1561 149.756 47.6857 156.948 49.095 164.379C49.1776 164.816 48.5054 165.003 48.417 164.56Z" fill="#A4AA01"/>
<path d="M40.757 145.763C41.0695 146.812 41.5531 147.832 41.9658 148.841C42.7442 150.741 43.5403 152.635 44.3245 154.529C45.6572 157.723 47.1313 160.941 48.2458 164.193C48.3873 164.618 47.7093 164.776 47.5678 164.379C46.4533 161.098 44.979 157.91 43.6463 154.71C42.8601 152.818 42.0739 150.923 41.2876 149.027C40.8748 148.013 40.3914 146.999 40.0789 145.95C40.0642 145.865 40.082 145.777 40.1289 145.704C40.1758 145.631 40.2484 145.577 40.3327 145.554C40.4171 145.531 40.5072 145.539 40.5855 145.578C40.6639 145.617 40.725 145.683 40.757 145.763Z" fill="#A4AA01"/>
<path d="M39.9729 151.056C42.5262 155.485 44.938 159.996 47.5621 164.385C47.5857 164.46 47.5831 164.541 47.5549 164.614C47.5267 164.687 47.4744 164.749 47.4063 164.789C47.3383 164.83 47.2586 164.846 47.1799 164.836C47.1012 164.826 47.0281 164.791 46.9724 164.735C44.3484 160.346 41.9424 155.835 39.3832 151.405C39.3596 151.33 39.3622 151.25 39.3904 151.177C39.4187 151.103 39.471 151.042 39.539 151.001C39.607 150.961 39.6867 150.944 39.7655 150.954C39.8442 150.964 39.9172 151 39.9729 151.056Z" fill="#A4AA01"/>
<path d="M39.4304 155.13C41.6699 158.414 44.0913 161.574 46.6834 164.595C46.9665 164.939 46.477 165.434 46.188 165.085C43.5555 162.021 41.0986 158.814 38.8289 155.479C38.5812 155.1 39.1886 154.751 39.4186 155.13H39.4304Z" fill="#A4AA01"/>
<path d="M40.1024 160.521C41.8714 162.124 43.8351 163.435 45.6336 164.962C45.9756 165.259 45.4744 165.749 45.1323 165.458C43.3633 163.919 41.3467 162.613 39.6072 161.01C39.2769 160.707 39.7722 160.218 40.1024 160.521Z" fill="#A4AA01"/>
<path d="M45.8521 166.297C44.0831 166.07 42.4911 165.335 40.7928 164.898C40.7113 164.866 40.6444 164.806 40.6054 164.729C40.5663 164.651 40.5577 164.562 40.5812 164.479C40.6047 164.395 40.6585 164.324 40.7325 164.277C40.8064 164.231 40.8951 164.213 40.9814 164.228C42.6148 164.647 44.1657 165.393 45.8521 165.603C46.2944 165.662 46.3003 166.355 45.8521 166.297Z" fill="#A4AA01"/>
<path d="M57.8284 141.724C58.4181 140.646 60.0279 133.302 56.3425 136.094C54.656 137.446 56.9321 140.995 57.6397 141.986" fill="#A4AA01"/>
<path d="M57.7693 140.255C58.359 139.183 59.9747 131.833 56.2892 134.631C54.6027 135.977 56.8493 139.533 57.5864 140.518" fill="#FFB14A"/>
<path d="M56.2951 136.018C56.2612 136.236 56.3159 136.458 56.4474 136.636C56.5789 136.814 56.7765 136.934 56.9968 136.968C57.1616 136.994 57.3305 136.971 57.4821 136.902C57.6336 136.832 57.761 136.72 57.848 136.579C57.9351 136.439 57.9778 136.276 57.971 136.111C57.9641 135.946 57.9079 135.787 57.8094 135.653C57.711 135.52 57.5749 135.419 57.4181 135.362C57.2614 135.305 57.091 135.296 56.9288 135.335C56.7666 135.374 56.6198 135.46 56.507 135.581C56.3942 135.703 56.3205 135.855 56.2951 136.018Z" fill="#D05663"/>
<path d="M63.8843 154.564C67.4224 154.838 66.7442 152.11 67.4224 149.47C64.1909 147.803 62.1153 148.776 61.5669 151.97C60.8652 155.467 61.8971 159.285 60.3463 162.759C59.6445 164.146 57.445 162.386 56.1772 163.219C55.5875 163.639 55.5228 164.933 55.1041 165.487C53.9778 167.154 55.9944 171.088 54.8681 173.064C60.0691 173.343 62.0269 171.845 65.2642 167.696C66.9978 165.469 61.7261 159.081 63.9079 154.64" fill="#87A0D1"/>
<path d="M48.0634 162.607C51.5307 162.45 58.2236 161.978 60.2698 165.09C63.4187 169.601 58.9017 173.25 54.8094 173.069C52.3268 173.256 46.4891 172.078 46.2827 171.169C46.2267 170.937 46.255 170.694 46.3629 170.48C46.4707 170.267 46.6512 170.098 46.8724 170.004C44.7613 169.421 46.1705 168.104 46.1705 167.87C46.1234 167.736 42.7563 167.223 45.746 165.539C41.1583 164.735 45.7047 162.765 48.0634 162.607Z" fill="#768BBF"/>
<path d="M65.7594 149.237C66.6685 149.059 67.5076 148.629 68.179 147.997C68.8503 147.366 69.3262 146.559 69.5511 145.67C69.6336 145.233 69.9285 145.326 69.8459 145.763C69.6444 146.75 69.1398 147.651 68.4011 148.343C67.6624 149.036 66.7255 149.487 65.7182 149.633C65.27 149.68 65.1285 149.336 65.5767 149.284L65.7594 149.237Z" fill="#421C18"/>
<path d="M69.4095 145.81C69.9992 146.09 71.5205 145.95 70.8187 144.843C70.117 143.589 68.7078 144.703 69.4095 145.81Z" fill="#768BBF"/>
<path d="M66.1307 149.097C67.0506 148.514 67.5931 147.116 67.0211 146.136C66.797 145.746 67.0564 145.524 67.2805 145.915C67.4539 146.209 67.5665 146.534 67.6118 146.872C67.657 147.209 67.6339 147.552 67.544 147.881C67.454 148.209 67.299 148.517 67.0877 148.786C66.8765 149.055 66.6133 149.279 66.3135 149.447C65.9302 149.698 65.5704 149.447 65.9478 149.191L66.1307 149.097Z" fill="#421C18"/>
<path d="M66.8859 146.136C67.3989 145.95 68.195 145.67 67.3517 144.842C66.65 144.143 64.993 145.81 66.8387 146.089" fill="#768BBF"/>
<path d="M66.6495 151.877C68.7546 152.431 69.7867 154.424 68.2417 156.365C67.257 155.258 65.8534 155.118 64.5856 154.424C64.6328 153.218 65.5232 152.431 66.6495 151.877Z" fill="#FFB14A"/>
<path d="M63.3654 151.912C63.3791 152.039 63.44 152.157 63.5363 152.243C63.6327 152.329 63.7577 152.376 63.8873 152.376C64.0169 152.376 64.1418 152.329 64.2381 152.243C64.3345 152.157 64.3954 152.039 64.4092 151.912C64.417 151.84 64.4092 151.767 64.3866 151.697C64.3639 151.628 64.3267 151.564 64.2774 151.51C64.2282 151.456 64.168 151.413 64.1008 151.383C64.0336 151.354 63.9609 151.338 63.8873 151.338C63.8137 151.338 63.7409 151.354 63.6737 151.383C63.6064 151.413 63.5462 151.456 63.497 151.51C63.4478 151.564 63.4106 151.628 63.3879 151.697C63.3652 151.767 63.3576 151.84 63.3654 151.912Z" fill="#421C18"/>
<path d="M54.3137 141.817C54.9034 140.739 56.5191 133.395 52.8336 136.187C51.1471 137.533 53.3938 141.089 54.125 142.08" fill="#A4AA01"/>
<path d="M54.2606 140.354C54.8503 139.282 56.4601 131.932 52.7746 134.73C51.0881 136.076 53.3644 139.632 54.072 140.617" fill="#FFB14A"/>
<path d="M52.7805 136.111C52.7556 136.274 52.7802 136.441 52.851 136.59C52.9219 136.739 53.0358 136.864 53.1786 136.95C53.3213 137.035 53.4864 137.076 53.6529 137.069C53.8195 137.061 53.9801 137.005 54.1143 136.907C54.2486 136.809 54.3504 136.675 54.4071 136.52C54.4639 136.365 54.4729 136.197 54.4331 136.037C54.3932 135.877 54.3063 135.732 54.1833 135.621C54.0602 135.51 53.9065 135.437 53.7417 135.412C53.6322 135.395 53.5203 135.4 53.4126 135.427C53.305 135.453 53.2036 135.5 53.1144 135.565C53.0251 135.63 52.9496 135.711 52.8924 135.805C52.8351 135.899 52.7971 136.003 52.7805 136.111Z" fill="#D05663"/>
<path d="M50.4928 142.167C51.0176 141.095 52.1203 133.896 48.7238 136.817C47.1729 138.215 49.5611 141.52 50.3277 142.435" fill="#A4AA01"/>
<path d="M50.3512 140.762C50.876 139.684 51.9787 132.486 48.5822 135.406C47.0313 136.805 49.4195 140.115 50.1861 141.025" fill="#FFB14A"/>
<path d="M48.6706 136.758C48.6549 136.918 48.6877 137.079 48.7645 137.22C48.8413 137.361 48.9589 137.477 49.1022 137.552C49.2456 137.627 49.4082 137.659 49.5697 137.642C49.7311 137.626 49.8842 137.563 50.0092 137.461C50.1342 137.358 50.2257 137.222 50.2721 137.068C50.3184 136.914 50.3175 136.75 50.2695 136.597C50.2215 136.444 50.1285 136.308 50.0024 136.207C49.8763 136.106 49.7227 136.044 49.561 136.03C49.3453 136.01 49.1307 136.076 48.9639 136.212C48.797 136.349 48.6915 136.545 48.6706 136.758Z" fill="#D05663"/>
<path d="M46.7896 142.995C47.2318 141.911 47.8451 134.788 44.7021 137.866C43.2751 139.334 45.8284 142.423 46.6422 143.269" fill="#A4AA01"/>
<path d="M46.5596 141.625C47.0019 140.541 47.6151 133.419 44.4721 136.49C43.0451 137.965 45.5984 141.048 46.4122 141.893" fill="#FFB14A"/>
<path d="M44.649 137.796C44.6443 137.953 44.6869 138.108 44.7713 138.241C44.8558 138.374 44.9783 138.479 45.1233 138.543C45.2684 138.607 45.4295 138.627 45.586 138.6C45.7426 138.574 45.8876 138.502 46.0028 138.394C46.118 138.286 46.198 138.146 46.2329 137.993C46.2677 137.84 46.2558 137.68 46.1986 137.533C46.1414 137.387 46.0415 137.261 45.9115 137.17C45.7816 137.08 45.6274 137.03 45.4686 137.027C45.2569 137.022 45.0519 137.1 44.8983 137.244C44.7448 137.388 44.6552 137.587 44.649 137.796Z" fill="#D05663"/>
<path d="M43.6171 144.551C43.9179 143.595 43.9355 137.499 41.4824 140.325C40.3738 141.678 42.762 144.126 43.5109 144.79" fill="#A4AA01"/>
<path d="M43.3221 143.397C43.6287 142.447 43.6405 136.344 41.1874 139.177C40.0788 140.529 42.467 142.977 43.2159 143.642" fill="#FFB14A"/>
<path d="M41.4292 140.255C41.4393 140.435 41.5212 140.603 41.6566 140.722C41.7921 140.842 41.9702 140.904 42.1516 140.894C42.333 140.884 42.503 140.803 42.6241 140.669C42.7452 140.535 42.8074 140.359 42.7973 140.18C42.7871 140 42.7053 139.832 42.5698 139.713C42.5027 139.653 42.4245 139.608 42.3396 139.578C42.2547 139.549 42.1648 139.537 42.075 139.541C41.9852 139.546 41.8972 139.569 41.8162 139.607C41.7351 139.646 41.6625 139.7 41.6025 139.766C41.5426 139.833 41.4963 139.91 41.4666 139.994C41.4369 140.078 41.4241 140.167 41.4292 140.255Z" fill="#D05663"/>
<path d="M40.9753 146.76C41.164 145.892 40.6923 140.494 38.7463 143.193C37.8736 144.475 40.1851 146.457 40.8986 146.981" fill="#A4AA01"/>
<path d="M40.6098 145.763C40.8044 144.895 40.3267 139.498 38.3867 142.196C37.5081 143.479 39.8196 145.46 40.539 145.985" fill="#FFB14A"/>
<path d="M38.6993 143.17C38.7078 143.249 38.7326 143.325 38.7721 143.394C38.8116 143.463 38.8651 143.524 38.9292 143.572C38.9932 143.62 39.0666 143.655 39.1447 143.674C39.2228 143.693 39.3039 143.696 39.3832 143.682C39.4626 143.671 39.5391 143.645 39.6081 143.605C39.6771 143.564 39.7374 143.511 39.7856 143.448C39.8338 143.384 39.8688 143.312 39.8888 143.236C39.9088 143.159 39.9134 143.079 39.9022 143.001C39.891 142.922 39.8642 142.847 39.8235 142.778C39.7827 142.71 39.7287 142.65 39.6647 142.603C39.6006 142.555 39.5277 142.521 39.45 142.501C39.3724 142.481 39.2916 142.477 39.2122 142.488C39.1322 142.497 39.055 142.522 38.9852 142.562C38.9154 142.601 38.8546 142.655 38.8065 142.719C38.7584 142.783 38.724 142.856 38.7056 142.933C38.6871 143.011 38.685 143.091 38.6993 143.17Z" fill="#D05663"/>
<path d="M39.855 151.405C40.0437 150.537 39.566 145.134 37.626 147.832C36.7533 149.115 39.0649 151.096 39.7784 151.627" fill="#A4AA01"/>
<path d="M39.5014 150.408C39.696 149.54 39.2183 144.143 37.2724 146.835C36.3997 148.118 38.7112 150.099 39.4306 150.63" fill="#FFB14A"/>
<path d="M37.5731 147.791C37.5823 147.87 37.6077 147.947 37.648 148.016C37.6882 148.085 37.7424 148.145 37.8071 148.192C37.8717 148.24 37.9454 148.274 38.0239 148.292C38.1023 148.31 38.1837 148.312 38.263 148.298C38.3762 148.278 38.4811 148.226 38.5646 148.148C38.6481 148.069 38.7065 147.969 38.7329 147.858C38.7592 147.747 38.7522 147.632 38.7127 147.525C38.6733 147.418 38.6031 147.325 38.5107 147.257C38.4184 147.189 38.308 147.149 38.1932 147.143C38.0783 147.136 37.964 147.163 37.8644 147.22C37.7647 147.277 37.684 147.361 37.6323 147.463C37.5805 147.564 37.56 147.678 37.5731 147.791Z" fill="#D05663"/>
<path d="M39.4305 155.462C39.5072 154.576 38.3455 149.278 36.7652 152.198C36.0634 153.579 38.6108 155.258 39.3833 155.695" fill="#A4AA01"/>
<path d="M38.929 154.518C39.0115 153.632 37.8498 148.334 36.2636 151.254C35.5619 152.635 38.1094 154.314 38.8878 154.751" fill="#FFB14A"/>
<path d="M36.6824 152.163C36.7167 152.271 36.7822 152.367 36.871 152.44C36.9599 152.512 37.0682 152.556 37.1826 152.569C37.2969 152.581 37.4123 152.559 37.5145 152.508C37.6168 152.456 37.7016 152.375 37.7583 152.277C37.815 152.178 37.8412 152.065 37.8337 151.951C37.8262 151.838 37.7853 151.729 37.7161 151.638C37.6469 151.547 37.5524 151.479 37.4441 151.44C37.3359 151.402 37.2188 151.396 37.107 151.422C37.0285 151.441 36.9548 151.476 36.8903 151.524C36.8259 151.572 36.772 151.632 36.7322 151.702C36.6924 151.771 36.6676 151.848 36.659 151.927C36.6504 152.006 36.6584 152.087 36.6824 152.163Z" fill="#D05663"/>
<path d="M40.1909 160.812C40.132 159.979 38.2922 155.205 37.2425 158.149C36.7826 159.53 39.4008 160.736 40.1909 161.034" fill="#A4AA01"/>
<path d="M39.6074 160.002C39.5544 159.163 37.7087 154.389 36.659 157.333C36.1991 158.72 38.8114 159.92 39.6074 160.247" fill="#FFB14A"/>
<path d="M37.1777 158.12C37.2226 158.228 37.2993 158.32 37.3978 158.384C37.4964 158.449 37.6121 158.482 37.7303 158.481C37.8484 158.48 37.9634 158.443 38.0604 158.377C38.1573 158.31 38.2318 158.216 38.274 158.107C38.3162 157.998 38.3244 157.879 38.2973 157.765C38.2703 157.651 38.2093 157.548 38.1223 157.469C38.0353 157.39 37.9262 157.339 37.8093 157.322C37.6924 157.305 37.573 157.323 37.4667 157.374C37.3314 157.438 37.2262 157.551 37.1725 157.69C37.1188 157.829 37.1207 157.982 37.1777 158.12Z" fill="#D05663"/>
<path d="M41.1993 164.525C40.8101 163.814 37.2721 160.387 37.5433 163.359C37.7084 164.747 40.4916 164.758 41.2759 164.706" fill="#A4AA01"/>
<path d="M40.3565 164.047C39.9732 163.336 36.4291 159.909 36.7063 162.881C36.8655 164.268 39.6547 164.28 40.439 164.228" fill="#FFB14A"/>
<path d="M37.4784 163.371C37.5323 163.418 37.5953 163.455 37.6635 163.478C37.7317 163.501 37.8038 163.51 37.8757 163.505C37.9476 163.5 38.0179 163.481 38.0823 163.449C38.1467 163.417 38.204 163.373 38.2509 163.319C38.2989 163.265 38.3356 163.202 38.359 163.134C38.3823 163.066 38.3919 162.994 38.3869 162.923C38.382 162.851 38.3627 162.781 38.3302 162.717C38.2977 162.653 38.2527 162.596 38.1977 162.549C38.1438 162.502 38.081 162.466 38.0128 162.443C37.9445 162.42 37.8723 162.41 37.8004 162.415C37.7285 162.42 37.6582 162.439 37.5938 162.471C37.5294 162.503 37.4722 162.547 37.4254 162.602C37.3773 162.655 37.3405 162.718 37.3171 162.786C37.2938 162.854 37.2844 162.926 37.2893 162.997C37.2943 163.069 37.3135 163.139 37.3459 163.203C37.3784 163.267 37.4234 163.324 37.4784 163.371Z" fill="#D05663"/>
<path d="M43.0923 166.763C42.4436 166.273 37.7852 164.572 39.2771 167.183C40.0024 168.383 42.5321 167.282 43.2456 166.909" fill="#A4AA01"/>
<path d="M42.1309 166.664C41.4881 166.169 36.8238 164.467 38.3216 167.084C39.041 168.284 41.5707 167.183 42.2842 166.804" fill="#FFB14A"/>
<path d="M39.224 167.206C39.3278 167.237 39.4387 167.237 39.5425 167.206C39.6462 167.175 39.7384 167.114 39.8072 167.031C39.876 166.948 39.9184 166.847 39.929 166.74C39.9396 166.634 39.9181 166.526 39.8669 166.432C39.8158 166.337 39.7374 166.26 39.6418 166.209C39.5461 166.159 39.4375 166.137 39.3295 166.148C39.2216 166.158 39.1193 166.2 39.0354 166.268C38.9516 166.336 38.89 166.427 38.8585 166.53C38.8376 166.598 38.8304 166.67 38.8375 166.74C38.8445 166.811 38.8657 166.88 38.8997 166.943C38.9336 167.006 38.9796 167.061 39.0353 167.106C39.0909 167.151 39.1551 167.185 39.224 167.206Z" fill="#D05663"/>
<path d="M46.825 163.703C47.673 163.421 48.5668 163.296 49.4608 163.336C49.9089 163.336 49.8794 163.692 49.4313 163.692L49.3783 163.663C48.7697 163.657 48.1624 163.72 47.568 163.849C47.108 163.954 45.7577 164.683 46.2648 165.207C46.7485 165.552 47.3085 165.778 47.8982 165.866C48.3523 165.965 49.0067 165.971 49.4667 166.023C49.7733 166.058 49.8441 166.221 49.4962 166.39C49.0068 166.623 46.6127 166.973 47.1375 167.906C47.3144 168.238 48.0868 168.395 48.3993 168.419L49.8381 168.488C50.1624 168.488 50.2274 168.646 49.8912 168.797C49.4549 169.001 48.9536 169.17 48.5232 169.38C48.252 169.5 48.0284 169.705 47.8864 169.963C47.8274 170.155 48.3463 170.406 48.4348 170.429C49.3383 170.705 50.2783 170.846 51.2239 170.849C51.678 170.849 51.678 171.245 51.2239 171.245C50.5878 171.249 49.9519 171.218 49.3193 171.152C48.7296 171.088 47.9394 171.024 47.5089 170.569C46.8367 169.911 47.6327 169.264 48.3639 168.856C47.6032 168.803 46.6539 168.704 46.4475 168.075C46.1232 167.084 47.1374 166.583 47.9571 166.268C47.0608 166.169 45.8638 165.953 45.6515 165.225C45.4392 164.496 46.2707 163.919 46.825 163.703Z" fill="#87A0D1"/>
<path d="M49.4547 163.662C49.3898 163.219 49.7908 163.214 49.8556 163.662C50.0149 164.735 52.2144 164.595 53.0164 164.682C53.323 164.717 53.4468 164.904 53.0871 165.067C52.633 165.271 49.7141 165.842 50.1387 166.612C50.351 167.002 51.3829 167.113 51.7898 167.165C52.3757 167.259 52.9729 167.259 53.5588 167.165C54.0011 167.066 54.0424 167.282 53.6179 167.428C53.2876 167.538 50.2802 167.876 50.6045 168.593C50.8168 169.077 51.9373 169.264 52.4149 169.293C52.9854 169.38 53.5662 169.38 54.1367 169.293C54.579 169.182 54.6616 169.444 54.2252 169.567C53.7889 169.689 53.3701 169.771 52.9573 169.899C52.8394 169.934 51.4478 170.482 51.6601 170.907C51.8724 171.333 52.8395 171.356 53.3466 171.374C53.979 171.429 54.6155 171.417 55.2454 171.339C55.6876 171.245 55.835 171.583 55.3692 171.677C54.5914 171.817 53.7982 171.854 53.0105 171.787C52.3913 171.747 51.5362 171.677 51.1529 171.117C50.7696 170.558 51.4655 169.951 51.9077 169.712C51.2532 169.648 50.4336 169.52 50.0562 168.949C49.6788 168.378 50.1328 167.876 50.864 167.533C50.6379 167.497 50.4223 167.413 50.232 167.288C50.0416 167.162 49.8811 166.997 49.7614 166.804C49.2306 165.842 50.351 165.364 51.3416 165.055C50.3864 164.927 49.5785 164.554 49.4547 163.662Z" fill="#87A0D1"/>
<path d="M53.6295 163.365C54.5258 163.015 55.5812 163.289 56.4716 163.488C56.8667 163.575 56.9611 163.814 56.5071 163.796C55.8706 163.766 55.2365 163.698 54.6083 163.592C54.0186 163.487 52.8393 164.099 53.6295 164.507C54.5868 164.889 55.6005 165.113 56.6309 165.172C57.0083 165.219 57.0554 165.393 56.6309 165.516C56.1154 165.621 55.5934 165.691 55.0683 165.726C54.3135 165.848 53.199 166.664 53.8358 167.13C54.4727 167.597 56.2948 167.41 57.0319 167.375C57.427 167.375 57.4859 167.544 57.1026 167.655C56.1533 167.929 54.2959 167.911 54.2428 169.059C54.2428 169.45 55.4221 169.473 55.54 169.473C56.0296 169.526 56.5227 169.537 57.0142 169.508C57.4211 169.438 57.545 169.701 57.1912 169.776C56.7253 169.875 55.5812 170.82 55.5753 171.368C55.5753 171.816 55.257 171.711 55.2629 171.263C55.3146 170.984 55.4214 170.718 55.5772 170.48C55.733 170.242 55.9347 170.036 56.1709 169.875C55.3041 169.922 53.9243 169.922 53.7297 169.205C53.6 168.704 53.9656 168.29 54.5022 167.958C54.286 167.953 54.074 167.897 53.8835 167.796C53.6929 167.695 53.5292 167.55 53.4053 167.375C53.2659 167.075 53.2455 166.734 53.3482 166.42C53.4508 166.106 53.669 165.842 53.9596 165.679C54.1197 165.654 54.27 165.587 54.3945 165.485C54.519 165.382 54.6131 165.248 54.6668 165.097C54.7204 164.946 54.7315 164.783 54.699 164.626C54.6665 164.469 54.5917 164.324 54.4823 164.206C54.373 164.088 54.2333 164.001 54.0781 163.955C53.9229 163.909 53.7579 163.906 53.6009 163.945C53.4438 163.984 53.3005 164.065 53.1861 164.178C53.0717 164.292 52.9905 164.434 52.9513 164.589C52.6034 164 53.146 163.569 53.6295 163.365Z" fill="#87A0D1"/>
<path d="M192.881 257.14C192.881 259.271 189.03 261 184.27 261C179.511 261 175.66 259.271 175.66 257.14C175.66 255.009 179.518 253.28 184.27 253.28C189.023 253.28 192.881 255.009 192.881 257.14Z" fill="#D4830A"/>
<path d="M194.88 243.731C196.075 243.574 197.169 242.985 197.956 242.076C198.929 241.007 199.623 239.716 199.976 238.317C200.355 236.717 200.489 235.07 200.373 233.431C200.286 231.703 200.023 229.9 199.754 228.071C199.44 226.16 199.229 224.234 199.121 222.301C199.003 220.271 199.208 218.236 199.727 216.27C200.28 214.25 201.344 212.404 202.817 210.909C203.55 210.166 204.401 209.548 205.335 209.08C206.27 208.61 206.264 208.376 207.307 208.316L210 208.986C207.864 209.552 205.926 210.693 204.399 212.283C203.354 213.597 202.659 215.153 202.379 216.806C202.11 218.509 202.11 220.243 202.379 221.946C202.667 223.731 203.049 225.501 203.524 227.246C203.981 229.062 204.466 230.932 204.776 232.915C205.129 234.993 205.167 237.112 204.89 239.201C204.552 241.491 203.65 243.662 202.265 245.52C201.523 246.515 200.625 247.384 199.606 248.094C198.516 248.86 197.282 249.4 195.977 249.682L194.88 243.731Z" fill="#F4A837"/>
<path d="M171.439 251.518C173.755 255.807 178.689 258.775 184.405 258.775C190.416 258.775 195.56 255.498 197.7 250.854C192.662 251.858 187.537 252.372 182.399 252.389C178.728 252.396 175.062 252.105 171.439 251.518Z" fill="#E09F34"/>
<path d="M197.775 241.319C195.661 236.628 190.484 233.277 184.432 233.277C178.144 233.277 172.799 236.862 170.86 241.855C177.269 243.141 186.418 243.738 197.775 241.319Z" fill="#E09F34"/>
<path d="M197.775 241.319C186.418 243.738 177.269 243.141 170.847 241.875C170.325 243.201 170.058 244.612 170.059 246.036C170.06 247.95 170.539 249.834 171.453 251.518C175.076 252.105 178.741 252.396 182.412 252.389C187.551 252.372 192.676 251.858 197.714 250.854C198.407 249.361 198.769 247.737 198.778 246.092C198.786 244.447 198.439 242.819 197.761 241.319H197.775Z" fill="#CE800C"/>
<path d="M181.901 200.69C181.901 200.69 182.736 210.112 181.78 218.052C181.039 224.238 177.801 231.85 176.502 234.725C176.432 234.881 176.396 235.05 176.398 235.22C176.4 235.391 176.439 235.559 176.513 235.714C176.586 235.868 176.693 236.004 176.825 236.113C176.956 236.223 177.11 236.302 177.276 236.346C178.622 236.708 180.177 237.164 184.957 237.117C188.498 237.084 190.43 236.568 191.453 236.112C191.602 236.045 191.734 235.949 191.843 235.828C191.952 235.708 192.034 235.567 192.086 235.413C192.137 235.26 192.156 235.097 192.141 234.936C192.126 234.775 192.077 234.619 191.999 234.477C189.426 229.318 187.829 223.733 187.286 217.999C186.817 212.222 186.763 206.42 187.125 200.636" fill="#FFB14A"/>
<path d="M185.785 197.205H183.207C181.935 197.205 180.904 198.231 180.904 199.497V201.313C180.904 202.579 181.935 203.605 183.207 203.605H185.785C187.057 203.605 188.087 202.579 188.087 201.313V199.497C188.087 198.231 187.057 197.205 185.785 197.205Z" fill="#E09A25"/>
<path d="M187.475 195.771C187.475 196.357 187.301 196.93 186.974 197.417C186.647 197.904 186.182 198.284 185.638 198.508C185.095 198.732 184.496 198.791 183.919 198.676C183.342 198.562 182.812 198.28 182.395 197.866C181.979 197.451 181.696 196.924 181.581 196.349C181.466 195.775 181.525 195.179 181.75 194.638C181.976 194.097 182.357 193.634 182.846 193.309C183.336 192.983 183.911 192.809 184.499 192.809C185.289 192.809 186.045 193.121 186.603 193.677C187.162 194.232 187.475 194.986 187.475 195.771Z" fill="#F4A837"/>
<path d="M183.59 191.905C183.59 191.726 183.644 191.551 183.744 191.402C183.843 191.253 183.985 191.137 184.151 191.069C184.317 191 184.5 190.982 184.676 191.017C184.853 191.052 185.015 191.138 185.142 191.265C185.269 191.391 185.355 191.553 185.391 191.728C185.426 191.904 185.408 192.086 185.339 192.251C185.27 192.416 185.153 192.557 185.004 192.657C184.855 192.756 184.679 192.809 184.499 192.809C184.379 192.81 184.261 192.787 184.15 192.742C184.04 192.697 183.939 192.631 183.854 192.546C183.77 192.462 183.703 192.362 183.658 192.252C183.612 192.142 183.589 192.024 183.59 191.905Z" fill="#F4A837"/>
<path d="M187.327 198.733H181.678C181.474 198.733 181.278 198.653 181.133 198.51C180.988 198.367 180.906 198.172 180.904 197.969C180.906 197.766 180.988 197.572 181.133 197.428C181.278 197.285 181.474 197.205 181.678 197.205H187.327C187.53 197.207 187.724 197.288 187.867 197.431C188.011 197.574 188.092 197.767 188.094 197.969C188.092 198.171 188.011 198.364 187.867 198.507C187.724 198.65 187.53 198.731 187.327 198.733Z" fill="#D4830A"/>
<path d="M171.769 233.526C171.379 233.479 170.984 233.561 170.645 233.76C170.273 233.971 169.972 234.289 169.783 234.671C169.691 234.863 169.625 235.066 169.588 235.275C169.581 235.379 169.581 235.485 169.588 235.589V235.75L169.622 235.931C169.657 236.277 169.775 236.608 169.965 236.899C170.155 237.19 170.412 237.432 170.715 237.603C171.018 237.775 171.358 237.872 171.707 237.887C172.055 237.901 172.402 237.833 172.718 237.687C173.184 237.517 173.607 237.247 173.957 236.896L174.199 236.615C174.274 236.514 174.334 236.407 174.401 236.3C174.539 236.091 174.649 235.866 174.731 235.63C175.065 234.602 175.128 233.506 174.913 232.447C174.688 231.336 174.331 230.256 173.849 229.23C173.378 228.171 172.846 227.092 172.402 225.973C171.951 224.854 171.569 223.708 171.258 222.542C170.618 220.193 170.379 217.753 170.551 215.325C170.747 212.855 171.534 210.468 172.846 208.363C173.513 207.301 174.34 206.347 175.297 205.535C175.781 205.116 176.304 204.743 176.859 204.422C177.454 204.084 178.106 203.857 178.784 203.752C179.553 203.61 180.347 203.732 181.038 204.097C181.729 204.462 182.275 205.049 182.588 205.763C182.664 205.959 182.718 206.164 182.749 206.373C182.756 206.484 182.756 206.596 182.749 206.708C182.756 206.817 182.756 206.927 182.749 207.036C182.69 207.455 182.538 207.855 182.305 208.209C182.058 208.574 181.725 208.873 181.335 209.08C180.884 209.313 180.365 209.382 179.868 209.274C179.755 209.247 179.649 209.199 179.555 209.131C179.461 209.063 179.382 208.978 179.321 208.879C179.26 208.781 179.22 208.672 179.201 208.558C179.183 208.444 179.188 208.328 179.215 208.215C179.242 208.103 179.291 207.997 179.359 207.904C179.427 207.811 179.513 207.731 179.611 207.671C179.71 207.611 179.82 207.57 179.934 207.552C180.049 207.534 180.166 207.538 180.278 207.565C180.363 207.597 180.456 207.597 180.541 207.565C180.679 207.499 180.798 207.397 180.884 207.27C180.987 207.137 181.056 206.981 181.086 206.815C181.116 206.66 181.102 206.5 181.046 206.352C180.902 205.983 180.623 205.682 180.265 205.508C179.874 205.306 179.428 205.233 178.993 205.3C177.96 205.512 177.003 205.993 176.219 206.694C175.358 207.399 174.613 208.233 174.011 209.167C172.787 211.075 172.037 213.246 171.823 215.499C171.715 216.634 171.715 217.776 171.823 218.91C171.941 220.053 172.15 221.185 172.449 222.294C172.743 223.411 173.107 224.508 173.54 225.578C173.964 226.657 174.475 227.702 174.96 228.801C175.486 229.916 175.873 231.091 176.111 232.299C176.359 233.565 176.278 234.873 175.876 236.099C175.766 236.369 175.633 236.629 175.479 236.876C175.384 237.017 175.304 237.171 175.203 237.305L174.873 237.7C174.396 238.203 173.812 238.593 173.163 238.84C172.501 239.102 171.78 239.183 171.076 239.074C170.338 238.962 169.656 238.617 169.13 238.089C168.603 237.576 168.235 236.922 168.073 236.206L168.013 235.951V235.67C167.996 235.48 167.996 235.29 168.013 235.1C168.035 234.724 168.117 234.353 168.255 234.001C168.53 233.267 169.016 232.631 169.653 232.172C170.291 231.713 171.05 231.452 171.837 231.421H171.877C172.02 231.406 172.165 231.42 172.303 231.462C172.44 231.505 172.568 231.575 172.677 231.669C172.786 231.763 172.875 231.878 172.937 232.007C173 232.136 173.035 232.277 173.04 232.42C173.046 232.564 173.022 232.707 172.969 232.84C172.917 232.974 172.838 233.095 172.736 233.197C172.635 233.299 172.513 233.379 172.379 233.432C172.245 233.485 172.102 233.51 171.958 233.505C171.896 233.521 171.833 233.528 171.769 233.526Z" fill="#D4830A"/>
<path d="M175.303 247.082C175.303 248.858 174.441 250.292 173.384 250.292C172.327 250.292 171.466 248.858 171.466 247.082C171.466 245.306 172.327 243.865 173.384 243.865C174.441 243.865 175.303 245.306 175.303 247.082Z" fill="#E09F34"/>
<path d="M197.694 246.177C197.862 247.946 197.149 249.461 196.098 249.561C195.048 249.662 194.079 248.315 193.877 246.553C193.675 244.79 194.415 243.269 195.472 243.168C196.529 243.068 197.546 244.415 197.694 246.177Z" fill="#E09F34"/>
<path d="M180.729 247.517C180.729 249.528 179.753 251.17 178.548 251.17C177.343 251.17 176.374 249.535 176.374 247.517C176.374 245.5 177.35 243.865 178.548 243.865C179.746 243.865 180.729 245.5 180.729 247.517Z" fill="#E09F34"/>
<path d="M188.357 247.652C188.478 249.662 189.555 251.237 190.753 251.163C191.952 251.089 192.827 249.401 192.706 247.383C192.585 245.366 191.508 243.798 190.309 243.872C189.111 243.946 188.269 245.634 188.357 247.652Z" fill="#E09F34"/>
<path d="M187.024 247.518C187.024 249.695 185.973 251.464 184.667 251.464C183.361 251.464 182.318 249.695 182.318 247.518C182.318 245.34 183.368 243.571 184.667 243.571C185.967 243.571 187.024 245.333 187.024 247.518Z" fill="#E09F34"/>
</svg>
