<svg width="14" height="14" viewBox="0 0 14 14" fill="none" xmlns="http://www.w3.org/2000/svg">
<path d="M8.67687 9.75586L8.41437 9.63919C8.35603 9.61003 8.28312 9.62461 8.22479 9.66836C7.9477 9.91628 7.69978 10.0329 7.5102 10.0913C7.3352 10.1496 7.17479 9.98919 7.21853 9.81419L8.31228 5.74544C8.32687 5.67253 8.32687 5.58503 8.28312 5.52669C8.22478 5.43919 8.13728 5.38086 8.0352 5.38086C8.02062 5.38086 8.00603 5.38086 7.99145 5.38086L5.81854 5.74544C5.6727 5.77461 5.57062 5.90586 5.5852 6.06628L5.61437 6.29961C5.62895 6.43086 5.74562 6.53294 5.89145 6.53294H6.27062L5.26437 10.2079C5.26437 10.2079 5.26437 10.2079 5.26437 10.2225C5.2352 10.3829 5.22062 10.6309 5.35187 10.8788C5.59979 11.3454 6.06645 11.4329 6.5477 11.4329C7.75812 11.4329 8.50187 10.485 8.74978 9.97461C8.80812 9.90169 8.76437 9.79961 8.67687 9.75586Z" fill="#FAF5EA"/>
<path d="M7.6707 4.8707C8.29779 4.8707 8.8082 4.36029 8.8082 3.7332C8.8082 3.10612 8.29779 2.5957 7.6707 2.5957C7.04362 2.5957 6.5332 3.10612 6.5332 3.7332C6.5332 4.36029 7.04362 4.8707 7.6707 4.8707Z" fill="#FAF5EA"/>
<path d="M6.99984 0.0727539C3.179 0.0727539 0.0727539 3.179 0.0727539 6.99984C0.0727539 10.8207 3.179 13.9269 6.99984 13.9269C10.8207 13.9269 13.9269 10.8207 13.9269 6.99984C13.9269 3.179 10.8207 0.0727539 6.99984 0.0727539ZM6.99984 12.8915C3.74775 12.8915 1.10817 10.2519 1.10817 6.99984C1.10817 3.74775 3.74775 1.10817 6.99984 1.10817C10.2519 1.10817 12.8915 3.74775 12.8915 6.99984C12.8915 10.2519 10.2519 12.8915 6.99984 12.8915Z" fill="#FAF5EA"/>
</svg>
