<svg width="14" height="14" viewBox="0 0 14 14" fill="none" xmlns="http://www.w3.org/2000/svg">
<g clip-path="url(#clip0_655_29746)">
<path d="M11.6321 0.823529H11.1176V0.411765C11.1176 0.184361 10.9333 0 10.7059 0C10.4785 0 10.2941 0.184361 10.2941 0.411765V0.823529H3.70588V0.411765C3.70588 0.184361 3.52152 0 3.29412 0C3.06671 0 2.88235 0.184361 2.88235 0.411765V0.823529H2.36789C1.06222 0.823529 0 1.88575 0 3.19142V11.6321C0 12.9378 1.06222 14 2.36789 14H11.6321C12.9378 14 14 12.9378 14 11.6321V3.19142C14 1.88575 12.9378 0.823529 11.6321 0.823529ZM2.36789 1.64706H2.88235V2.47059C2.88235 2.69799 3.06671 2.88235 3.29412 2.88235C3.52152 2.88235 3.70588 2.69799 3.70588 2.47059V1.64706H10.2941V2.47059C10.2941 2.69799 10.4785 2.88235 10.7059 2.88235C10.9333 2.88235 11.1176 2.69799 11.1176 2.47059V1.64706H11.6321C12.4837 1.64706 13.1765 2.33984 13.1765 3.19142V4.11765H0.823529V3.19142C0.823529 2.33984 1.51631 1.64706 2.36789 1.64706ZM11.6321 13.1765H2.36789C1.51631 13.1765 0.823529 12.4837 0.823529 11.6321V4.94118H13.1765V11.6321C13.1765 12.4837 12.4837 13.1765 11.6321 13.1765Z" fill="#FAF5EA"/>
<path d="M9.34277 7.90952L7.97914 7.71138L7.36932 6.47573C7.21853 6.17028 6.78167 6.17012 6.63083 6.47573L6.02101 7.71138L4.65738 7.90952C4.32028 7.95847 4.18514 8.37399 4.42918 8.61185L5.41588 9.57368L5.18296 10.9318C5.12542 11.2674 5.47863 11.5245 5.7804 11.3659L7.00007 10.7246L8.21975 11.3658C8.52215 11.5248 8.87462 11.2668 8.81719 10.9318L8.58427 9.57365L9.57097 8.61183C9.81484 8.37413 9.68003 7.95849 9.34277 7.90952ZM7.8544 9.13504C7.75734 9.22964 7.71306 9.36593 7.73598 9.49951L7.86448 10.2486L7.19171 9.89494C7.07172 9.83189 6.92845 9.83189 6.80846 9.89494L6.1357 10.2486L6.26419 9.49951C6.28712 9.36593 6.24284 9.22964 6.14577 9.13504L5.6015 8.6045L6.35368 8.49521C6.48781 8.47572 6.60371 8.39151 6.66372 8.26998L7.00007 7.5884L7.33646 8.26998C7.39647 8.39151 7.51236 8.47572 7.64649 8.49521L8.39867 8.6045L7.8544 9.13504Z" fill="#FAF5EA"/>
</g>
<defs>
<clipPath id="clip0_655_29746">
<rect width="14" height="14" fill="white"/>
</clipPath>
</defs>
</svg>
