<svg width="39" height="38" viewBox="0 0 39 38" fill="none" xmlns="http://www.w3.org/2000/svg">
<g clip-path="url(#clip0_309_10750)">
<path d="M33.7319 0H5.23193C2.61231 0 0.481934 2.13037 0.481934 4.75V33.25C0.481934 35.8696 2.61231 38 5.23193 38H33.7319C36.3516 38 38.4819 35.8696 38.4819 33.25V4.75C38.4819 2.13037 36.3516 0 33.7319 0Z" fill="#1976D2"/>
<path fill-rule="evenodd" clip-rule="evenodd" d="M32.5444 19H26.6069V14.25C26.6069 12.939 27.6709 13.0625 28.9819 13.0625H31.3569V7.125H26.6069C24.7173 7.125 22.905 7.87567 21.5688 9.21186C20.2326 10.5481 19.4819 12.3603 19.4819 14.25V19H14.7319V24.9375H19.4819V38H26.6069V24.9375H30.1694L32.5444 19Z" fill="#FAFAFA"/>
</g>
<defs>
<clipPath id="clip0_309_10750">
<rect width="38" height="38" fill="white" transform="translate(0.481934)"/>
</clipPath>
</defs>
</svg>
