<svg width="14" height="14" viewBox="0 0 14 14" fill="none" xmlns="http://www.w3.org/2000/svg">
<g clip-path="url(#clip0_655_29761)">
<path fill-rule="evenodd" clip-rule="evenodd" d="M3.11904 0H10.881C12.5975 0 14 1.40243 14 3.11904V10.881C14 12.5975 12.5976 14 10.881 14H3.11904C1.40249 14 0 12.5976 0 10.881V3.11904C0 1.40249 1.40243 0 3.11904 0ZM4.47591 2.96411C3.64101 2.96411 2.9641 3.64103 2.9641 4.47592C2.9641 5.8188 4.59494 6.49504 5.54538 5.54476C6.49574 4.59502 5.81879 2.96411 4.47591 2.96411ZM4.88546 4.06697C4.34649 3.528 3.52798 4.34649 4.06697 4.88546C4.60594 5.42443 5.42444 4.60594 4.88546 4.06697ZM0.933411 8.21175C6.32434 10.1064 8.31919 3.14701 13.0667 7.9292V3.11911C13.0667 1.9178 12.0824 0.933396 10.881 0.933396H3.11912C1.91781 0.933396 0.933411 1.91777 0.933411 3.11911V8.21175ZM13.0667 9.30975C10.5122 6.28435 8.89039 7.15017 7.0049 8.15705C5.36426 9.03327 3.55048 10.0018 0.933411 9.19308V10.8812C0.933411 12.0825 1.91778 13.0669 3.11912 13.0669H10.881C12.0823 13.0669 13.0667 12.0825 13.0667 10.8812V9.30975Z" fill="#FAF5EA"/>
</g>
<defs>
<clipPath id="clip0_655_29761">
<rect width="14" height="14" fill="white"/>
</clipPath>
</defs>
</svg>
