<svg width="15" height="14" viewBox="0 0 15 14" fill="none" xmlns="http://www.w3.org/2000/svg">
<g clip-path="url(#clip0_655_29735)">
<path fill-rule="evenodd" clip-rule="evenodd" d="M1.64082 7.00005H1.21003C0.764578 7.00005 0.366413 6.74153 0.211265 6.3525C0.0561244 5.96223 0.177307 5.52411 0.514214 5.25253L6.45677 0.471052C7.05602 -0.0111841 7.94426 -0.0111841 8.54348 0.471052L14.4854 5.25253C14.8229 5.5241 14.9434 5.96222 14.7883 6.3525C14.6338 6.74153 14.235 7.00005 13.7902 7.00005H13.3594V12.4688C13.3594 13.2928 12.6436 13.9603 11.7614 13.9603H9.09805C8.80374 13.9603 8.56538 13.7378 8.56538 13.4631V10.4802C8.56538 10.2055 8.32701 9.983 8.03271 9.983H6.96737C6.67306 9.983 6.4347 10.2055 6.4347 10.4802V13.4631C6.4347 13.7378 6.19633 13.9603 5.90203 13.9603H3.23867C2.35644 13.9603 1.64066 13.2928 1.64066 12.4688L1.64082 7.00005ZM1.21003 6.00573H2.17349C2.46779 6.00573 2.70616 6.2282 2.70616 6.50289V12.4688C2.70616 12.7435 2.94452 12.966 3.23883 12.966H5.36951V10.4802C5.36951 9.65612 6.08528 8.98868 6.96752 8.98868H8.03286C8.9151 8.98868 9.63087 9.65612 9.63087 10.4802V12.966H11.7616C12.0559 12.966 12.2942 12.7435 12.2942 12.4688V6.50289C12.2942 6.2282 12.5326 6.00573 12.8269 6.00573H13.6952C13.6958 5.97279 13.7211 5.9498 13.7904 6.00573L7.8485 1.22425C7.64808 1.06392 7.35244 1.06392 7.15204 1.22425L1.21003 6.00573Z" fill="#FAF5EA"/>
</g>
<defs>
<clipPath id="clip0_655_29735">
<rect width="15" height="14" fill="white"/>
</clipPath>
</defs>
</svg>
