<svg width="38" height="38" viewBox="0 0 38 38" fill="none" xmlns="http://www.w3.org/2000/svg">
<g clip-path="url(#clip0_230_104)">
<path d="M29.0172 36.9902L9.01724 37.0092C4.61724 37.0132 1.01424 33.4172 1.00924 29.0172L0.990238 9.01724C0.986238 4.61724 4.58224 1.01424 8.98224 1.00924L28.9822 0.990238C33.3822 0.986238 36.9852 4.58224 36.9902 8.98224L37.0092 28.9822C37.0142 33.3832 33.4172 36.9862 29.0172 36.9902Z" fill="#565656"/>
<path d="M29.0172 36.9902L9.01724 37.0092C4.61724 37.0132 1.01424 33.4172 1.00924 29.0172L0.990238 9.01724C0.986238 4.61724 4.58224 1.01424 8.98224 1.00924L28.9822 0.990238C33.3822 0.986238 36.9852 4.58224 36.9902 8.98224L37.0092 28.9822C37.0142 33.3832 33.4172 36.9862 29.0172 36.9902Z" fill="#565656"/>
<path d="M19 26C15.141 26 12 22.86 12 19C12 15.14 15.141 12 19 12C22.859 12 26 15.14 26 19C26 22.86 22.859 26 19 26ZM19 14C16.243 14 14 16.243 14 19C14 21.757 16.243 24 19 24C21.757 24 24 21.757 24 19C24 16.243 21.757 14 19 14Z" fill="white"/>
<path d="M26.5 13C27.3284 13 28 12.3284 28 11.5C28 10.6716 27.3284 10 26.5 10C25.6716 10 25 10.6716 25 11.5C25 12.3284 25.6716 13 26.5 13Z" fill="white"/>
<path d="M25 32H13C9.141 32 6 28.86 6 25V13C6 9.14 9.141 6 13 6H25C28.859 6 32 9.14 32 13V25C32 28.86 28.859 32 25 32ZM13 8C10.243 8 8 10.243 8 13V25C8 27.757 10.243 30 13 30H25C27.757 30 30 27.757 30 25V13C30 10.243 27.757 8 25 8H13Z" fill="white"/>
</g>
<defs>
<clipPath id="clip0_230_104">
<rect width="38" height="38" fill="white"/>
</clipPath>
</defs>
</svg>
