<svg width="38" height="38" viewBox="0 0 38 38" fill="none" xmlns="http://www.w3.org/2000/svg">
<g clip-path="url(#clip0_309_10746)">
<path d="M9.63598 37.8655C8.16617 37.8491 6.71018 37.5795 5.33192 37.0686C4.32546 36.6966 3.41486 36.1043 2.66671 35.3352C1.89544 34.5885 1.30231 33.6777 0.931373 32.6703C0.420888 31.2921 0.151695 29.8362 0.135608 28.3666C0.0227255 25.9235 0 25.1906 0 19C0 12.8094 0.0249608 12.0792 0.13449 9.63412C0.15253 8.16507 0.422054 6.70997 0.931373 5.33192C1.30412 4.32529 1.89641 3.41433 2.66522 2.66522C3.41245 1.89465 4.32347 1.30207 5.3308 0.931373C6.70906 0.420465 8.16505 0.150893 9.63486 0.13449C12.0788 0.0227255 12.8127 0 19 0C25.1873 0 25.9208 0.0249608 28.3659 0.13449C29.8353 0.152403 31.2908 0.421929 32.6692 0.931373C33.6761 1.30256 34.5869 1.89493 35.3344 2.66484C36.1046 3.41264 36.6972 4.32365 37.0686 5.3308C37.5797 6.70904 37.8494 8.16503 37.8659 9.63486C37.9776 12.0799 38.0004 12.812 38.0004 19.0007C38.0004 25.1895 37.9776 25.9216 37.8659 28.3666C37.8481 29.8362 37.5785 31.2919 37.0686 32.6703C36.683 33.6699 36.0923 34.5777 35.3345 35.3352C34.5768 36.0927 33.6689 36.6832 32.6692 37.0686C31.291 37.5797 29.835 37.8494 28.3651 37.8659C25.9223 37.9776 25.188 38.0004 18.9993 38.0004C12.8105 38.0004 12.0784 37.9788 9.63561 37.8659" fill="url(#paint0_radial_309_10746)"/>
<path d="M9.63598 37.8655C8.16617 37.8491 6.71018 37.5795 5.33192 37.0686C4.32546 36.6966 3.41486 36.1043 2.66671 35.3352C1.89544 34.5885 1.30231 33.6777 0.931373 32.6703C0.420888 31.2921 0.151695 29.8362 0.135608 28.3666C0.0227255 25.9235 0 25.1906 0 19C0 12.8094 0.0249608 12.0792 0.13449 9.63412C0.15253 8.16507 0.422054 6.70997 0.931373 5.33192C1.30412 4.32529 1.89641 3.41433 2.66522 2.66522C3.41245 1.89465 4.32347 1.30207 5.3308 0.931373C6.70906 0.420465 8.16505 0.150893 9.63486 0.13449C12.0788 0.0227255 12.8127 0 19 0C25.1873 0 25.9208 0.0249608 28.3659 0.13449C29.8353 0.152403 31.2908 0.421929 32.6692 0.931373C33.6761 1.30256 34.5869 1.89493 35.3344 2.66484C36.1046 3.41264 36.6972 4.32365 37.0686 5.3308C37.5797 6.70904 37.8494 8.16503 37.8659 9.63486C37.9776 12.0799 38.0004 12.812 38.0004 19.0007C38.0004 25.1895 37.9776 25.9216 37.8659 28.3666C37.8481 29.8362 37.5785 31.2919 37.0686 32.6703C36.683 33.6699 36.0923 34.5777 35.3345 35.3352C34.5768 36.0927 33.6689 36.6832 32.6692 37.0686C31.291 37.5797 29.835 37.8494 28.3651 37.8659C25.9223 37.9776 25.188 38.0004 18.9993 38.0004C12.8105 38.0004 12.0784 37.9788 9.63561 37.8659" fill="url(#paint1_radial_309_10746)"/>
<path d="M14.3344 19.0809C14.3345 18.1501 14.6106 17.2404 15.1277 16.4665C15.6449 15.6927 16.3799 15.0897 17.2398 14.7336C18.0997 14.3775 19.0458 14.2844 19.9586 14.4661C20.8714 14.6477 21.7099 15.096 22.3679 15.7542C23.0259 16.4124 23.474 17.2509 23.6555 18.1638C23.8369 19.0766 23.7436 20.0228 23.3873 20.8826C23.031 21.7424 22.4278 22.4773 21.6538 22.9942C20.8799 23.5112 19.9701 23.787 19.0394 23.7869C17.7914 23.7867 16.5946 23.2908 15.7123 22.4082C14.83 21.5257 14.3343 20.3288 14.3344 19.0809ZM11.7903 19.0809C11.7903 20.5146 12.2155 21.9161 13.012 23.1082C13.8085 24.3003 14.9407 25.2295 16.2653 25.7781C17.5899 26.3268 19.0474 26.4703 20.4536 26.1906C21.8598 25.9109 23.1514 25.2205 24.1652 24.2067C25.179 23.1929 25.8694 21.9013 26.1491 20.4951C26.4288 19.0889 26.2853 17.6313 25.7366 16.3068C25.188 14.9822 24.2588 13.85 23.0667 13.0535C21.8746 12.2569 20.4731 11.8318 19.0394 11.8318C18.0874 11.8317 17.1447 12.0192 16.2652 12.3835C15.3857 12.7478 14.5865 13.2817 13.9134 13.9549C13.2402 14.628 12.7063 15.4272 12.342 16.3067C11.9777 17.1862 11.7903 18.1289 11.7903 19.0809ZM24.8813 11.5446C24.8812 11.8796 24.9804 12.2072 25.1664 12.4858C25.3524 12.7645 25.6169 12.9817 25.9263 13.1101C26.2358 13.2384 26.5764 13.2721 26.905 13.2069C27.2337 13.1417 27.5356 12.9805 27.7726 12.7437C28.0096 12.5068 28.1711 12.2051 28.2366 11.8765C28.3021 11.5479 28.2687 11.2073 28.1406 10.8977C28.0125 10.5881 27.7955 10.3235 27.517 10.1372C27.2385 9.95097 26.9111 9.85147 26.576 9.85133C26.1269 9.85152 25.6963 10.03 25.3787 10.3474C25.0611 10.6649 24.8824 11.0955 24.882 11.5446M13.3368 30.5721C12.4416 30.5623 11.5547 30.3985 10.7151 30.0878C10.1062 29.8531 9.55321 29.4935 9.09168 29.0322C8.63015 28.5709 8.27033 28.018 8.03538 27.4092C7.72459 26.5696 7.56076 25.6828 7.55107 24.7876C7.48252 23.2996 7.46911 22.8525 7.46911 19.0827C7.46911 15.3129 7.48401 14.867 7.55107 13.3775C7.56193 12.4824 7.72572 11.5958 8.03538 10.7559C8.27006 10.1468 8.62977 9.59363 9.09132 9.13207C9.55288 8.67052 10.106 8.3108 10.7151 8.07612C11.5547 7.76534 12.4416 7.60151 13.3368 7.59182C14.8247 7.52327 15.2718 7.50985 19.0401 7.50985C22.8084 7.50985 23.2559 7.52439 24.7453 7.59219C25.6404 7.60305 26.5271 7.76684 27.367 8.0765C27.976 8.3112 28.5292 8.67092 28.9907 9.13247C29.4523 9.59402 29.812 10.1472 30.0467 10.7562C30.3575 11.5958 30.5213 12.4827 30.531 13.3779C30.5996 14.8681 30.613 15.3129 30.613 19.0831C30.613 22.8533 30.5992 23.2989 30.531 24.7883C30.5206 25.6834 30.3568 26.5702 30.0467 27.4099C29.8117 28.0187 29.4519 28.5716 28.9904 29.0329C28.5289 29.4943 27.9759 29.8539 27.367 30.0886C26.5274 30.3993 25.6405 30.5632 24.7453 30.5729C23.2574 30.6414 22.8103 30.6548 19.0401 30.6548C15.2699 30.6548 14.8243 30.6411 13.3368 30.5729M13.2198 5.04991C12.0484 5.07295 10.8895 5.29465 9.79232 5.70559C8.85443 6.06822 8.00267 6.62284 7.29163 7.33387C6.5806 8.0449 6.02599 8.89667 5.66336 9.83456C5.25247 10.9317 5.03077 12.0907 5.00768 13.262C4.93801 14.7671 4.92236 15.2484 4.92236 19.0823C4.92236 22.9162 4.93838 23.3972 5.00768 24.9027C5.03076 26.074 5.25246 27.233 5.66336 28.3301C6.02601 29.268 6.58063 30.1198 7.29166 30.8308C8.00269 31.5418 8.85444 32.0964 9.79232 32.4591C10.8895 32.8698 12.0484 33.0916 13.2198 33.1148C14.7256 33.1833 15.2062 33.2001 19.0401 33.2001C22.874 33.2001 23.355 33.1841 24.8604 33.1148C26.0318 33.0916 27.1907 32.8699 28.2879 32.4591C29.2258 32.0964 30.0775 31.5418 30.7886 30.8308C31.4996 30.1198 32.0542 29.268 32.4169 28.3301C32.8283 27.2331 33.05 26.0741 33.0725 24.9027C33.1411 23.3965 33.1567 22.9162 33.1567 19.0823C33.1567 15.2484 33.1407 14.7675 33.0725 13.262C33.0495 12.0907 32.8278 10.9317 32.4169 9.83456C32.0542 8.89685 31.4997 8.04521 30.7889 7.3342C30.0781 6.62319 29.2266 6.06847 28.289 5.70559C27.1919 5.29438 26.0329 5.07267 24.8616 5.04991C23.3561 4.98099 22.8751 4.9646 19.042 4.9646C15.2088 4.9646 14.7267 4.98062 13.2205 5.04991" fill="white"/>
</g>
<defs>
<radialGradient id="paint0_radial_309_10746" cx="0" cy="0" r="1" gradientUnits="userSpaceOnUse" gradientTransform="translate(2.4592 37.1677) scale(48.2458)">
<stop offset="0.09" stop-color="#FA8F21"/>
<stop offset="0.78" stop-color="#D82D7E"/>
</radialGradient>
<radialGradient id="paint1_radial_309_10746" cx="0" cy="0" r="1" gradientUnits="userSpaceOnUse" gradientTransform="translate(26.3213 35.9473) scale(42.4568)">
<stop offset="0.64" stop-color="#8C3AAA" stop-opacity="0"/>
<stop offset="1" stop-color="#8C3AAA"/>
</radialGradient>
<clipPath id="clip0_309_10746">
<rect width="38.0004" height="38.0004" fill="white"/>
</clipPath>
</defs>
</svg>
