<svg width="23" height="13" viewBox="0 0 23 13" fill="none" xmlns="http://www.w3.org/2000/svg">
<g clip-path="url(#clip0_655_29757)">
<path d="M11.5007 0.0879136C9.90507 0.0879136 8.60063 1.38919 8.60063 2.99063C8.60063 4.00444 9.12441 4.89856 9.91323 5.41722C9.02468 5.70196 8.24126 6.22064 7.63391 6.89984C7.21165 6.5598 6.72829 6.29228 6.2036 6.11455C6.88641 5.63485 7.33473 4.83867 7.33473 3.94093C7.33473 2.47915 6.14699 1.28754 4.69251 1.28754C3.23796 1.28754 2.04753 2.47908 2.04753 3.94093C2.04753 4.83958 2.49674 5.63576 3.18225 6.11546C1.33148 6.74477 0 8.49956 0 10.5705V12.5501C0.000898418 12.7496 0.160819 12.911 0.357578 12.9119H22.6414C22.839 12.911 22.9999 12.7496 22.9999 12.5501V10.5714C22.9999 8.50026 21.6675 6.7457 19.8167 6.11543C20.5013 5.63573 20.9514 4.83955 20.9514 3.94091C20.9514 2.47912 19.761 1.28751 18.3064 1.28751C16.8519 1.28751 15.6633 2.47905 15.6633 3.94091C15.6633 4.83955 16.1116 5.63483 16.7953 6.11453C16.2706 6.29226 15.7882 6.56068 15.365 6.89982C14.7586 6.21971 13.9751 5.70192 13.0875 5.41719C13.8763 4.89759 14.4001 4.0044 14.4001 2.9906C14.4001 1.38919 13.0956 0.0878906 11.5001 0.0878906L11.5007 0.0879136ZM11.5007 0.81336C12.7118 0.81336 13.6821 1.78546 13.6821 2.9906C13.6821 4.19575 12.7118 5.16966 11.5007 5.16966C10.2905 5.16966 9.31929 4.19575 9.31929 2.9906C9.31929 1.78546 10.2896 0.81336 11.5007 0.81336ZM4.6932 2.01307C5.76232 2.01307 6.61674 2.87453 6.61674 3.94095C6.61674 5.00737 5.76234 5.86702 4.6932 5.86702C3.62405 5.86702 2.76697 5.00737 2.76697 3.94095C2.76697 2.87453 3.62408 2.01307 4.6932 2.01307ZM18.3063 2.01307C19.3754 2.01307 20.2317 2.87453 20.2317 3.94095C20.2317 5.00737 19.3754 5.86702 18.3063 5.86702C17.2372 5.86702 16.3819 5.00737 16.3819 3.94095C16.3819 2.87453 17.2372 2.01307 18.3063 2.01307ZM11.5007 5.89334C12.9472 5.89334 14.2248 6.56892 15.0369 7.62353C15.045 7.63622 15.054 7.64892 15.0638 7.66071C15.0656 7.66161 15.0665 7.66343 15.0683 7.66433C15.6299 8.41063 15.9614 9.34013 15.9614 10.3521V12.1865L7.03907 12.1875V10.353C7.03907 9.33918 7.37238 8.40789 7.93569 7.66153V7.66062C7.95186 7.64339 7.96714 7.62344 7.97972 7.60258C8.7937 6.55975 10.0641 5.89325 11.5014 5.89325L11.5007 5.89334ZM4.6932 6.59158C5.64463 6.59158 6.51071 6.91985 7.19259 7.47029C6.64096 8.29368 6.3202 9.28481 6.3202 10.3521V12.1866H0.718605V10.5716C0.718605 8.36258 2.48313 6.59239 4.6932 6.59239V6.59158ZM18.3063 6.59158C20.5165 6.59158 22.2828 8.36167 22.2828 10.5707V12.1858H16.6802V10.3522C16.6802 9.28488 16.3586 8.29375 15.8078 7.47038C16.4888 6.91995 17.3558 6.5926 18.3072 6.5926L18.3063 6.59158Z" fill="#FAF5EA"/>
</g>
<defs>
<clipPath id="clip0_655_29757">
<rect width="23" height="13" fill="white"/>
</clipPath>
</defs>
</svg>
