<svg width="38" height="38" viewBox="0 0 38 38" fill="none" xmlns="http://www.w3.org/2000/svg">
<g clip-path="url(#clip0_230_116)">
<path d="M37.0178 29.7015C37.0178 33.7261 33.7251 37.0188 29.7006 37.0188H8.29769C4.27318 37.0188 0.980469 33.7261 0.980469 29.7015V8.29867C0.980469 4.27424 4.27318 0.981445 8.29769 0.981445H29.7006C33.7251 0.981445 37.0178 4.27424 37.0178 8.29867V29.7015Z" fill="#565656"/>
<path d="M21.6973 17.2031L30.3659 6.39893H27.855L20.4423 15.6386L13.0288 6.39893H4.75195L16.3035 20.7966L7.63416 31.6016H10.145L17.5585 22.3611L24.9728 31.6016H33.2496L21.6973 17.2031ZM8.83357 8.3574H12.0887L29.1672 29.6429H25.9121L8.83357 8.3574Z" fill="white"/>
</g>
<defs>
<clipPath id="clip0_230_116">
<rect width="38" height="38" fill="white"/>
</clipPath>
</defs>
</svg>
