<svg width="50" height="38" viewBox="0 0 50 38" fill="none" xmlns="http://www.w3.org/2000/svg">
<g clip-path="url(#clip0_230_113)">
<path d="M48.6868 31.2461C48.1921 33.8437 46.0892 35.8229 43.4915 36.194C39.4095 36.8125 32.6061 37.5547 24.9368 37.5547C17.3913 37.5547 10.5879 36.8125 6.38216 36.194C3.78451 35.8229 1.68164 33.8437 1.18685 31.2461C0.692057 28.401 0.197266 24.1953 0.197266 19C0.197266 13.8047 0.692057 9.59896 1.18685 6.75391C1.68164 4.15625 3.78451 2.17708 6.38216 1.80599C10.4642 1.1875 17.2676 0.445312 24.9368 0.445312C32.6061 0.445312 39.2858 1.1875 43.4915 1.80599C46.0892 2.17708 48.1921 4.15625 48.6868 6.75391C49.1816 9.59896 49.8001 13.8047 49.8001 19C49.6764 24.1953 49.1816 28.401 48.6868 31.2461Z" fill="#565656"/>
<path d="M19.9902 27.659V10.3413L34.834 19.0002L19.9902 27.659Z" fill="white"/>
</g>
<defs>
<clipPath id="clip0_230_113">
<rect width="49.875" height="38" fill="white"/>
</clipPath>
</defs>
</svg>
