<svg width="54" height="38" viewBox="0 0 54 38" fill="none" xmlns="http://www.w3.org/2000/svg">
<g clip-path="url(#clip0_309_10742)">
<path fill-rule="evenodd" clip-rule="evenodd" d="M51.209 3.71917C49.7583 1.13869 48.184 0.664044 44.9784 0.483544C41.7762 0.266275 33.7239 0.176025 26.7479 0.176025C19.7586 0.176025 11.7029 0.266276 8.50404 0.480202C5.30518 0.664044 3.72748 1.13535 2.26342 3.71917C0.769284 6.29631 0.000488281 10.7353 0.000488281 18.5503V18.577C0.000488281 26.3586 0.769284 30.8309 2.26342 33.3813C3.72748 35.9618 5.30184 36.4298 8.5007 36.6471C11.7029 36.8342 19.7586 36.9445 26.7479 36.9445C33.7239 36.9445 41.7762 36.8342 44.9818 36.6504C48.1873 36.4331 49.7617 35.9652 51.2123 33.3847C52.7199 30.8343 53.482 26.3619 53.482 18.5803V18.5536C53.482 10.7353 52.7199 6.29631 51.209 3.71917Z" fill="#F44336"/>
<path fill-rule="evenodd" clip-rule="evenodd" d="M20.0562 28.588V8.53247L36.7691 18.5602L20.0562 28.588Z" fill="#FAFAFA"/>
</g>
<defs>
<clipPath id="clip0_309_10742">
<rect width="53.4815" height="38" fill="white" transform="translate(0.000488281)"/>
</clipPath>
</defs>
</svg>
