<svg width="20" height="14" viewBox="0 0 20 14" fill="none" xmlns="http://www.w3.org/2000/svg">
<g clip-path="url(#clip0_655_29753)">
<mask id="path-1-outside-1_655_29753" maskUnits="userSpaceOnUse" x="-0.411621" y="-0.416504" width="20" height="14" fill="black">
<rect fill="white" x="-0.411621" y="-0.416504" width="20" height="14"/>
<path d="M19.3974 9.22228C19.3974 8.93613 19.3974 8.63079 19.3392 8.3262C19.0303 6.61001 17.738 5.33196 16.001 5.02648C16.7725 4.62601 17.2746 3.82507 17.2746 2.94737C17.2552 1.63164 16.2136 0.601302 14.9206 0.601302C13.6089 0.601302 12.5286 1.65005 12.5092 2.92812C12.5092 3.5196 12.7405 4.11035 13.1456 4.54916C12.8173 4.37732 12.5472 4.14869 12.3353 3.88171C11.7951 3.21425 11.5444 2.43249 11.3124 1.68838L11.293 1.59324C11.0997 1.00175 10.6371 0.620464 10.0581 0.601281H9.99994C9.42096 0.601281 8.95836 0.98257 8.76512 1.59324L8.63156 1.93692C8.51591 2.24225 8.40027 2.56601 8.28462 2.87134C7.93767 3.67228 7.49373 4.20624 6.87594 4.54992C7.28108 4.13026 7.51237 3.57715 7.51237 2.9864C7.51237 1.61315 6.47079 0.583496 5.1009 0.583496C3.78922 0.583496 2.72745 1.65141 2.72745 2.94788C2.72745 3.84396 3.22884 4.6449 4.05854 5.06456C2.18726 5.36915 0.856109 6.72323 0.644282 8.53533C0.567432 9.08847 0.586084 9.66077 0.605484 10.2139V10.8054C0.605484 11.492 1.12629 12.026 1.84031 12.0643H1.89851C2.1298 12.0643 2.34245 12.0068 2.53494 11.8733V12.4648C2.53494 13.0563 2.86325 13.3801 3.46089 13.3801H7.06921C7.70565 13.3801 7.99516 13.0747 7.99516 12.4648V6.83752C8.6898 6.49457 9.30685 5.97905 9.80898 5.33077C9.86718 5.23563 9.94403 5.13976 10.0022 5.06378C10.5618 5.86473 11.2177 6.43703 11.9891 6.8375V12.5399C11.9891 13.1122 12.298 13.4168 12.8762 13.4168H16.5226C17.159 13.4168 17.4485 13.1115 17.4485 12.5016V11.9293C17.6223 12.0436 17.8536 12.1011 18.0849 12.1011C18.837 12.1011 19.378 11.5672 19.378 10.823L19.3974 9.65993C19.4168 9.50801 19.4168 9.37452 19.3974 9.22185L19.3974 9.22228ZM5.12036 4.70213C4.63837 4.70213 4.17503 4.53029 3.82734 4.18734C3.48039 3.8444 3.28715 3.3864 3.28715 2.90924C3.28715 1.8981 4.07803 1.09716 5.10097 1.09716C6.18135 1.09716 6.95285 1.87892 6.95285 2.94685C6.93345 3.90119 6.10451 4.70213 5.12036 4.70213ZM7.41627 6.76198V12.4453C7.41627 12.7507 7.35807 12.8075 7.04992 12.8075H3.4416C3.15211 12.8075 3.07524 12.7315 3.07524 12.4453V9.20321C3.07524 9.14568 3.07524 9.05054 3.05585 8.99375C3.01705 8.87943 2.9402 8.74595 2.78574 8.74595C2.61189 8.74595 2.51564 8.86026 2.51564 9.05128V10.3294C2.51564 10.5012 2.51564 10.6723 2.49624 10.825C2.45744 11.2247 2.22614 11.4725 1.87919 11.4725H1.84039C1.41584 11.4342 1.14576 11.1672 1.14576 10.7667V10.1568C1.12636 9.64201 1.12636 9.08889 1.18455 8.5741C1.3778 6.97221 2.53503 5.80907 4.21374 5.52303C4.50323 5.46551 4.79272 5.44707 5.08223 5.44707C5.15908 5.44707 5.23668 5.44707 5.31352 5.42789C5.94996 5.40872 6.50955 5.27523 7.03036 5.04661C7.80185 4.66532 8.38084 4.01704 8.80539 3.04434C8.94044 2.73901 9.05609 2.41525 9.15233 2.09074C9.19113 1.95725 9.22918 1.84293 9.28738 1.70945C9.42243 1.32816 9.67312 1.11796 9.98202 1.11796H10.0208C10.3872 1.13714 10.6192 1.34659 10.7349 1.72789C10.6192 2.60479 10.3491 3.40647 9.94397 4.09228C9.84772 4.22577 9.75073 4.37843 9.65448 4.51193C9.55823 4.6646 9.46124 4.81727 9.34559 4.95075C8.92103 5.54223 8.38085 5.98031 7.725 6.28565C7.49297 6.38079 7.4161 6.51427 7.4161 6.76207L7.41627 6.76198ZM17.468 9.05047C17.4486 8.91698 17.333 8.78348 17.1211 8.78348C16.9666 8.78348 16.8898 8.93614 16.8898 9.08881V12.4452C16.8898 12.7505 16.8316 12.8073 16.5234 12.8073H12.8958C12.6257 12.8073 12.5675 12.7498 12.5675 12.4828V6.74278C12.5675 6.59011 12.5481 6.41826 12.3362 6.34231C11.5259 5.94184 10.8507 5.33117 10.3299 4.5118C10.6582 3.99701 10.8895 3.40553 11.0633 2.79561C11.2946 3.36792 11.5453 3.80675 11.8348 4.18804C12.3944 4.89384 13.1465 5.29432 14.1307 5.40862C14.362 5.42779 14.5941 5.44697 14.806 5.46614C15.1149 5.48532 15.4044 5.50449 15.6931 5.54211C17.2749 5.77073 18.4522 6.877 18.7223 8.40286C18.7611 8.66984 18.7611 8.93681 18.7611 9.22298C18.7611 9.35647 18.7611 9.50913 18.7805 9.64263C18.7999 10.0239 18.7999 10.4052 18.7999 10.7681C18.7999 11.1877 18.5104 11.493 18.0665 11.493C17.6807 11.493 17.43 11.2069 17.43 10.7496V9.28125C17.4875 9.20307 17.4874 9.12718 17.468 9.05047ZM13.0697 2.91001C13.0891 1.91806 13.8994 1.1363 14.9216 1.1363C15.9057 1.1363 16.6966 1.91806 16.716 2.92919C16.716 3.94033 15.9057 4.72209 14.8828 4.72209C14.4194 4.72209 13.9762 4.55025 13.6285 4.2073C13.2816 3.86362 13.0697 3.38644 13.0697 2.91001Z"/>
</mask>
<path d="M19.3974 9.22228C19.3974 8.93613 19.3974 8.63079 19.3392 8.3262C19.0303 6.61001 17.738 5.33196 16.001 5.02648C16.7725 4.62601 17.2746 3.82507 17.2746 2.94737C17.2552 1.63164 16.2136 0.601302 14.9206 0.601302C13.6089 0.601302 12.5286 1.65005 12.5092 2.92812C12.5092 3.5196 12.7405 4.11035 13.1456 4.54916C12.8173 4.37732 12.5472 4.14869 12.3353 3.88171C11.7951 3.21425 11.5444 2.43249 11.3124 1.68838L11.293 1.59324C11.0997 1.00175 10.6371 0.620464 10.0581 0.601281H9.99994C9.42096 0.601281 8.95836 0.98257 8.76512 1.59324L8.63156 1.93692C8.51591 2.24225 8.40027 2.56601 8.28462 2.87134C7.93767 3.67228 7.49373 4.20624 6.87594 4.54992C7.28108 4.13026 7.51237 3.57715 7.51237 2.9864C7.51237 1.61315 6.47079 0.583496 5.1009 0.583496C3.78922 0.583496 2.72745 1.65141 2.72745 2.94788C2.72745 3.84396 3.22884 4.6449 4.05854 5.06456C2.18726 5.36915 0.856109 6.72323 0.644282 8.53533C0.567432 9.08847 0.586084 9.66077 0.605484 10.2139V10.8054C0.605484 11.492 1.12629 12.026 1.84031 12.0643H1.89851C2.1298 12.0643 2.34245 12.0068 2.53494 11.8733V12.4648C2.53494 13.0563 2.86325 13.3801 3.46089 13.3801H7.06921C7.70565 13.3801 7.99516 13.0747 7.99516 12.4648V6.83752C8.6898 6.49457 9.30685 5.97905 9.80898 5.33077C9.86718 5.23563 9.94403 5.13976 10.0022 5.06378C10.5618 5.86473 11.2177 6.43703 11.9891 6.8375V12.5399C11.9891 13.1122 12.298 13.4168 12.8762 13.4168H16.5226C17.159 13.4168 17.4485 13.1115 17.4485 12.5016V11.9293C17.6223 12.0436 17.8536 12.1011 18.0849 12.1011C18.837 12.1011 19.378 11.5672 19.378 10.823L19.3974 9.65993C19.4168 9.50801 19.4168 9.37452 19.3974 9.22185L19.3974 9.22228ZM5.12036 4.70213C4.63837 4.70213 4.17503 4.53029 3.82734 4.18734C3.48039 3.8444 3.28715 3.3864 3.28715 2.90924C3.28715 1.8981 4.07803 1.09716 5.10097 1.09716C6.18135 1.09716 6.95285 1.87892 6.95285 2.94685C6.93345 3.90119 6.10451 4.70213 5.12036 4.70213ZM7.41627 6.76198V12.4453C7.41627 12.7507 7.35807 12.8075 7.04992 12.8075H3.4416C3.15211 12.8075 3.07524 12.7315 3.07524 12.4453V9.20321C3.07524 9.14568 3.07524 9.05054 3.05585 8.99375C3.01705 8.87943 2.9402 8.74595 2.78574 8.74595C2.61189 8.74595 2.51564 8.86026 2.51564 9.05128V10.3294C2.51564 10.5012 2.51564 10.6723 2.49624 10.825C2.45744 11.2247 2.22614 11.4725 1.87919 11.4725H1.84039C1.41584 11.4342 1.14576 11.1672 1.14576 10.7667V10.1568C1.12636 9.64201 1.12636 9.08889 1.18455 8.5741C1.3778 6.97221 2.53503 5.80907 4.21374 5.52303C4.50323 5.46551 4.79272 5.44707 5.08223 5.44707C5.15908 5.44707 5.23668 5.44707 5.31352 5.42789C5.94996 5.40872 6.50955 5.27523 7.03036 5.04661C7.80185 4.66532 8.38084 4.01704 8.80539 3.04434C8.94044 2.73901 9.05609 2.41525 9.15233 2.09074C9.19113 1.95725 9.22918 1.84293 9.28738 1.70945C9.42243 1.32816 9.67312 1.11796 9.98202 1.11796H10.0208C10.3872 1.13714 10.6192 1.34659 10.7349 1.72789C10.6192 2.60479 10.3491 3.40647 9.94397 4.09228C9.84772 4.22577 9.75073 4.37843 9.65448 4.51193C9.55823 4.6646 9.46124 4.81727 9.34559 4.95075C8.92103 5.54223 8.38085 5.98031 7.725 6.28565C7.49297 6.38079 7.4161 6.51427 7.4161 6.76207L7.41627 6.76198ZM17.468 9.05047C17.4486 8.91698 17.333 8.78348 17.1211 8.78348C16.9666 8.78348 16.8898 8.93614 16.8898 9.08881V12.4452C16.8898 12.7505 16.8316 12.8073 16.5234 12.8073H12.8958C12.6257 12.8073 12.5675 12.7498 12.5675 12.4828V6.74278C12.5675 6.59011 12.5481 6.41826 12.3362 6.34231C11.5259 5.94184 10.8507 5.33117 10.3299 4.5118C10.6582 3.99701 10.8895 3.40553 11.0633 2.79561C11.2946 3.36792 11.5453 3.80675 11.8348 4.18804C12.3944 4.89384 13.1465 5.29432 14.1307 5.40862C14.362 5.42779 14.5941 5.44697 14.806 5.46614C15.1149 5.48532 15.4044 5.50449 15.6931 5.54211C17.2749 5.77073 18.4522 6.877 18.7223 8.40286C18.7611 8.66984 18.7611 8.93681 18.7611 9.22298C18.7611 9.35647 18.7611 9.50913 18.7805 9.64263C18.7999 10.0239 18.7999 10.4052 18.7999 10.7681C18.7999 11.1877 18.5104 11.493 18.0665 11.493C17.6807 11.493 17.43 11.2069 17.43 10.7496V9.28125C17.4875 9.20307 17.4874 9.12718 17.468 9.05047ZM13.0697 2.91001C13.0891 1.91806 13.8994 1.1363 14.9216 1.1363C15.9057 1.1363 16.6966 1.91806 16.716 2.92919C16.716 3.94033 15.9057 4.72209 14.8828 4.72209C14.4194 4.72209 13.9762 4.55025 13.6285 4.2073C13.2816 3.86362 13.0697 3.38644 13.0697 2.91001Z" fill="#FAF5EA"/>
<path d="M19.3974 9.22228C19.3974 8.93613 19.3974 8.63079 19.3392 8.3262C19.0303 6.61001 17.738 5.33196 16.001 5.02648C16.7725 4.62601 17.2746 3.82507 17.2746 2.94737C17.2552 1.63164 16.2136 0.601302 14.9206 0.601302C13.6089 0.601302 12.5286 1.65005 12.5092 2.92812C12.5092 3.5196 12.7405 4.11035 13.1456 4.54916C12.8173 4.37732 12.5472 4.14869 12.3353 3.88171C11.7951 3.21425 11.5444 2.43249 11.3124 1.68838L11.293 1.59324C11.0997 1.00175 10.6371 0.620464 10.0581 0.601281H9.99994C9.42096 0.601281 8.95836 0.98257 8.76512 1.59324L8.63156 1.93692C8.51591 2.24225 8.40027 2.56601 8.28462 2.87134C7.93767 3.67228 7.49373 4.20624 6.87594 4.54992C7.28108 4.13026 7.51237 3.57715 7.51237 2.9864C7.51237 1.61315 6.47079 0.583496 5.1009 0.583496C3.78922 0.583496 2.72745 1.65141 2.72745 2.94788C2.72745 3.84396 3.22884 4.6449 4.05854 5.06456C2.18726 5.36915 0.856109 6.72323 0.644282 8.53533C0.567432 9.08847 0.586084 9.66077 0.605484 10.2139V10.8054C0.605484 11.492 1.12629 12.026 1.84031 12.0643H1.89851C2.1298 12.0643 2.34245 12.0068 2.53494 11.8733V12.4648C2.53494 13.0563 2.86325 13.3801 3.46089 13.3801H7.06921C7.70565 13.3801 7.99516 13.0747 7.99516 12.4648V6.83752C8.6898 6.49457 9.30685 5.97905 9.80898 5.33077C9.86718 5.23563 9.94403 5.13976 10.0022 5.06378C10.5618 5.86473 11.2177 6.43703 11.9891 6.8375V12.5399C11.9891 13.1122 12.298 13.4168 12.8762 13.4168H16.5226C17.159 13.4168 17.4485 13.1115 17.4485 12.5016V11.9293C17.6223 12.0436 17.8536 12.1011 18.0849 12.1011C18.837 12.1011 19.378 11.5672 19.378 10.823L19.3974 9.65993C19.4168 9.50801 19.4168 9.37452 19.3974 9.22185L19.3974 9.22228ZM5.12036 4.70213C4.63837 4.70213 4.17503 4.53029 3.82734 4.18734C3.48039 3.8444 3.28715 3.3864 3.28715 2.90924C3.28715 1.8981 4.07803 1.09716 5.10097 1.09716C6.18135 1.09716 6.95285 1.87892 6.95285 2.94685C6.93345 3.90119 6.10451 4.70213 5.12036 4.70213ZM7.41627 6.76198V12.4453C7.41627 12.7507 7.35807 12.8075 7.04992 12.8075H3.4416C3.15211 12.8075 3.07524 12.7315 3.07524 12.4453V9.20321C3.07524 9.14568 3.07524 9.05054 3.05585 8.99375C3.01705 8.87943 2.9402 8.74595 2.78574 8.74595C2.61189 8.74595 2.51564 8.86026 2.51564 9.05128V10.3294C2.51564 10.5012 2.51564 10.6723 2.49624 10.825C2.45744 11.2247 2.22614 11.4725 1.87919 11.4725H1.84039C1.41584 11.4342 1.14576 11.1672 1.14576 10.7667V10.1568C1.12636 9.64201 1.12636 9.08889 1.18455 8.5741C1.3778 6.97221 2.53503 5.80907 4.21374 5.52303C4.50323 5.46551 4.79272 5.44707 5.08223 5.44707C5.15908 5.44707 5.23668 5.44707 5.31352 5.42789C5.94996 5.40872 6.50955 5.27523 7.03036 5.04661C7.80185 4.66532 8.38084 4.01704 8.80539 3.04434C8.94044 2.73901 9.05609 2.41525 9.15233 2.09074C9.19113 1.95725 9.22918 1.84293 9.28738 1.70945C9.42243 1.32816 9.67312 1.11796 9.98202 1.11796H10.0208C10.3872 1.13714 10.6192 1.34659 10.7349 1.72789C10.6192 2.60479 10.3491 3.40647 9.94397 4.09228C9.84772 4.22577 9.75073 4.37843 9.65448 4.51193C9.55823 4.6646 9.46124 4.81727 9.34559 4.95075C8.92103 5.54223 8.38085 5.98031 7.725 6.28565C7.49297 6.38079 7.4161 6.51427 7.4161 6.76207L7.41627 6.76198ZM17.468 9.05047C17.4486 8.91698 17.333 8.78348 17.1211 8.78348C16.9666 8.78348 16.8898 8.93614 16.8898 9.08881V12.4452C16.8898 12.7505 16.8316 12.8073 16.5234 12.8073H12.8958C12.6257 12.8073 12.5675 12.7498 12.5675 12.4828V6.74278C12.5675 6.59011 12.5481 6.41826 12.3362 6.34231C11.5259 5.94184 10.8507 5.33117 10.3299 4.5118C10.6582 3.99701 10.8895 3.40553 11.0633 2.79561C11.2946 3.36792 11.5453 3.80675 11.8348 4.18804C12.3944 4.89384 13.1465 5.29432 14.1307 5.40862C14.362 5.42779 14.5941 5.44697 14.806 5.46614C15.1149 5.48532 15.4044 5.50449 15.6931 5.54211C17.2749 5.77073 18.4522 6.877 18.7223 8.40286C18.7611 8.66984 18.7611 8.93681 18.7611 9.22298C18.7611 9.35647 18.7611 9.50913 18.7805 9.64263C18.7999 10.0239 18.7999 10.4052 18.7999 10.7681C18.7999 11.1877 18.5104 11.493 18.0665 11.493C17.6807 11.493 17.43 11.2069 17.43 10.7496V9.28125C17.4875 9.20307 17.4874 9.12718 17.468 9.05047ZM13.0697 2.91001C13.0891 1.91806 13.8994 1.1363 14.9216 1.1363C15.9057 1.1363 16.6966 1.91806 16.716 2.92919C16.716 3.94033 15.9057 4.72209 14.8828 4.72209C14.4194 4.72209 13.9762 4.55025 13.6285 4.2073C13.2816 3.86362 13.0697 3.38644 13.0697 2.91001Z" stroke="#FAF5EA" stroke-width="0.2" mask="url(#path-1-outside-1_655_29753)"/>
</g>
<defs>
<clipPath id="clip0_655_29753">
<rect width="20" height="14" fill="white"/>
</clipPath>
</defs>
</svg>
