<svg width="100" height="102" viewBox="0 0 100 102" fill="none" xmlns="http://www.w3.org/2000/svg">
<path d="M70.1076 81.8948C70.1076 81.8948 69.4133 81.1047 71.5514 80.141C73.6894 79.1774 82.2184 76.7433 89.8706 77.8308C94.3463 78.469 100.524 79.4901 99.9645 81.8948C99.4049 84.2995 85.1475 87.1279 85.1475 87.1279L72.3645 84.2982L70.1076 81.8948Z" fill="#F1E9D6"/>
<path d="M72.1306 84.8653C72.1306 84.8653 70.4603 82.384 73.6147 81.2672C75.3511 80.6532 80.3852 79.4381 85.036 79.3041C88.8321 79.1956 92.3662 80.0801 93.6507 80.3392C96.5088 80.9162 99.2628 81.0221 97.7321 84.8653C96.4353 88.1226 72.1306 84.8653 72.1306 84.8653Z" fill="#8F0B55"/>
<path d="M99.9644 81.895C99.7807 83.3143 99.3552 84.688 98.708 85.9513C97.9242 87.4414 96.829 88.7286 95.5034 89.7179C95.3222 89.857 95.136 89.9885 94.9523 90.1149C90.5856 93.0812 85.0335 92.9995 85.0335 92.9995C85.0335 92.9995 81.4028 93.0518 77.7059 91.5048C77.2344 91.307 76.7593 91.0824 76.294 90.8284C75.7492 90.535 75.2242 90.2033 74.7229 89.8353C74.5404 89.7077 74.3628 89.5622 74.1853 89.4154C72.9939 88.4487 72.0117 87.2309 71.3027 85.8415C70.6886 84.6099 70.2835 83.2769 70.1051 81.9014C70.1051 81.9014 72.5309 84.4235 77.0385 84.1069C80.3447 83.8759 83.0216 80.6046 84.2719 78.7768C84.2719 78.7768 84.2719 78.7768 84.2719 78.7691C84.7298 78.099 84.9956 77.6204 85.0262 77.5693L85.0874 77.6765C85.0874 77.6893 85.1033 77.7059 85.1131 77.7225C85.1401 77.7646 85.1633 77.808 85.1878 77.8501C85.2001 77.8693 85.2123 77.8897 85.2233 77.9101C85.2491 77.9523 85.2748 77.9956 85.3054 78.0441C85.336 78.0926 85.347 78.1105 85.3691 78.1463C85.4254 78.2356 85.4915 78.3339 85.5576 78.4398L85.5687 78.4564C85.6581 78.593 85.756 78.7411 85.8662 78.8981C85.8944 78.9389 85.9238 78.981 85.9544 79.0257C86.0475 79.1533 86.1479 79.2963 86.2544 79.4418C86.3083 79.5158 86.3658 79.5898 86.4234 79.6652C86.5801 79.8694 86.7491 80.0812 86.9279 80.2957C86.9879 80.3672 87.0504 80.4374 87.1116 80.5101C87.2577 80.6803 87.4112 80.8505 87.572 81.0207C87.6186 81.0704 87.6651 81.1215 87.7128 81.17C87.9051 81.3691 88.1035 81.5657 88.3129 81.7597C88.3643 81.8069 88.417 81.8567 88.4696 81.9026C88.6288 82.0447 88.7921 82.1839 88.9594 82.32C89.0121 82.3634 89.0647 82.4055 89.1186 82.4476C89.1725 82.4898 89.2411 82.5408 89.2986 82.5855C89.3562 82.6302 89.4211 82.6723 89.475 82.7131C89.5288 82.754 89.6121 82.8101 89.6819 82.8586C89.7309 82.8918 89.7799 82.925 89.8301 82.9569C90.0113 83.0756 90.1974 83.1879 90.386 83.2901C90.4485 83.3271 90.5085 83.3603 90.5746 83.3922L90.7669 83.4879C90.8893 83.5504 91.0252 83.6155 91.1575 83.6628C91.2248 83.6908 91.2897 83.7164 91.3571 83.7419L91.5518 83.8121C91.6926 83.8606 91.8347 83.904 91.9791 83.9397L92.1543 83.9857L92.2069 83.9972L92.3404 84.024C92.3967 84.0355 92.4518 84.0457 92.5094 84.0546C92.5669 84.0635 92.5951 84.0699 92.6404 84.075C92.7302 84.0878 92.8208 84.098 92.9123 84.1057L93.0212 84.1159C93.8729 84.1783 94.7287 84.1355 95.5707 83.9882C98.446 83.4713 99.9644 81.895 99.9644 81.895Z" fill="#9C2DA2"/>
<path d="M85.0361 77.5566C81.6527 88.6382 74.2136 86.9814 71.3053 85.8352C70.9614 85.1525 70.6844 84.4354 70.4787 83.6947C70.3149 83.1048 70.1922 82.5034 70.1113 81.8951C70.1113 81.8951 72.5372 84.4172 77.0447 84.1006C78.9281 83.973 80.6118 82.8459 81.9429 81.5683C83.1452 80.3849 84.186 79.0351 85.0361 77.5566Z" fill="#EAB32B"/>
<path d="M99.9646 81.895C99.7808 83.3143 99.3553 84.688 98.7082 85.9514C87.4362 89.0696 85.0361 77.5566 85.0361 77.5566C85.0361 77.5566 88.4294 83.779 93.0312 84.1006C97.5375 84.4172 99.9646 81.895 99.9646 81.895Z" fill="#EAB32B"/>
<path d="M74.0322 88.1914C74.3143 88.1914 74.5429 87.9532 74.5429 87.6592C74.5429 87.3653 74.3143 87.127 74.0322 87.127C73.7502 87.127 73.5216 87.3653 73.5216 87.6592C73.5216 87.9532 73.7502 88.1914 74.0322 88.1914Z" fill="#F1E9D6"/>
<path d="M76.5365 88.1914C76.8185 88.1914 77.0472 87.9532 77.0472 87.6592C77.0472 87.3653 76.8185 87.127 76.5365 87.127C76.2545 87.127 76.0259 87.3653 76.0259 87.6592C76.0259 87.9532 76.2545 88.1914 76.5365 88.1914Z" fill="#F1E9D6"/>
<path d="M79.6909 87.1267C79.6912 87.232 79.6614 87.335 79.6055 87.4227C79.5495 87.5104 79.4699 87.5788 79.3766 87.6193C79.2833 87.6598 79.1806 87.6705 79.0814 87.6501C78.9823 87.6297 78.8912 87.5791 78.8197 87.5048C78.7481 87.4304 78.6994 87.3355 78.6796 87.2323C78.6598 87.129 78.6698 87.0219 78.7084 86.9246C78.747 86.8272 78.8125 86.744 78.8965 86.6855C78.9805 86.627 79.0793 86.5957 79.1803 86.5957C79.3155 86.5957 79.4452 86.6516 79.541 86.7512C79.6367 86.8507 79.6906 86.9857 79.6909 87.1267Z" fill="#F1E9D6"/>
<path d="M81.4555 86.0635C81.4555 86.1688 81.4255 86.2717 81.3694 86.3592C81.3133 86.4467 81.2336 86.515 81.1403 86.5552C81.0469 86.5955 80.9443 86.6061 80.8452 86.5855C80.7462 86.565 80.6552 86.5143 80.5838 86.4399C80.5124 86.3654 80.4637 86.2706 80.444 86.1673C80.4243 86.0641 80.4344 85.9571 80.4731 85.8598C80.5117 85.7626 80.5772 85.6794 80.6611 85.6209C80.7451 85.5625 80.8438 85.5313 80.9448 85.5312C81.0803 85.5313 81.2102 85.5873 81.3059 85.6871C81.4017 85.787 81.4555 85.9223 81.4555 86.0635Z" fill="#F1E9D6"/>
<path d="M96.0398 88.1914C96.3218 88.1914 96.5504 87.9532 96.5504 87.6592C96.5504 87.3653 96.3218 87.127 96.0398 87.127C95.7578 87.127 95.5292 87.3653 95.5292 87.6592C95.5292 87.9532 95.7578 88.1914 96.0398 88.1914Z" fill="#F1E9D6"/>
<path d="M93.025 87.6592C93.025 87.7645 93.055 87.8674 93.1111 87.9549C93.1672 88.0424 93.2469 88.1107 93.3402 88.1509C93.4336 88.1912 93.5362 88.2018 93.6353 88.1812C93.7343 88.1607 93.8253 88.11 93.8967 88.0356C93.9681 87.9611 94.0168 87.8663 94.0365 87.763C94.0562 87.6598 94.0461 87.5528 94.0074 87.4555C93.9688 87.3583 93.9033 87.2751 93.8193 87.2167C93.7354 87.1582 93.6367 87.127 93.5357 87.127C93.4686 87.127 93.4022 87.1407 93.3402 87.1675C93.2783 87.1942 93.222 87.2334 93.1746 87.2828C93.1272 87.3323 93.0896 87.3909 93.0639 87.4555C93.0382 87.5201 93.025 87.5893 93.025 87.6592Z" fill="#F1E9D6"/>
<path d="M90.8917 87.6592C91.1738 87.6592 91.4024 87.4209 91.4024 87.127C91.4024 86.833 91.1738 86.5947 90.8917 86.5947C90.6097 86.5947 90.3811 86.833 90.3811 87.127C90.3811 87.4209 90.6097 87.6592 90.8917 87.6592Z" fill="#F1E9D6"/>
<path d="M88.619 86.0635C88.619 86.1688 88.649 86.2718 88.7052 86.3593C88.7613 86.4469 88.8411 86.5151 88.9345 86.5554C89.0279 86.5956 89.1306 86.6061 89.2297 86.5854C89.3288 86.5648 89.4198 86.514 89.4912 86.4394C89.5625 86.3648 89.6111 86.2699 89.6306 86.1666C89.6502 86.0632 89.6399 85.9562 89.6011 85.8589C89.5622 85.7617 89.4966 85.6787 89.4125 85.6203C89.3283 85.562 89.2295 85.531 89.1284 85.5313C88.9932 85.5316 88.8636 85.5878 88.7681 85.6876C88.6726 85.7874 88.619 85.9226 88.619 86.0635Z" fill="#F1E9D6"/>
<path d="M95.5035 89.7185C95.3223 89.8577 95.1362 89.9891 94.9525 90.1155C92.0388 89.8477 89.3036 88.5377 87.2109 86.4076C86.8129 86.0045 86.441 85.5743 86.0978 85.1198C85.8725 84.8236 85.6594 84.5199 85.461 84.2046C85.2884 83.9327 85.1243 83.6519 84.9712 83.3673C84.7916 83.6906 84.5977 84.0063 84.3896 84.3144C84.1732 84.6369 83.9414 84.9496 83.694 85.2525C83.3209 85.7097 82.9187 86.1404 82.4903 86.5417C81.6856 87.2989 80.7889 87.9426 79.8232 88.4562C78.2352 89.2875 76.496 89.7578 74.7206 89.836C74.5381 89.7083 74.3605 89.5628 74.183 89.416C76.073 89.4104 77.9358 88.9458 79.6236 88.0593C81.0796 87.2786 82.3705 86.2014 83.4197 84.8913C83.6389 84.6169 83.8483 84.3335 84.0455 84.0399C84.3134 83.6443 84.5587 83.2326 84.7802 82.807C84.7982 82.7726 84.8248 82.7439 84.8571 82.7239C84.8894 82.7039 84.9263 82.6934 84.9639 82.6934C85.002 82.693 85.0394 82.7039 85.0719 82.7246C85.1044 82.7454 85.1306 82.7752 85.1476 82.8108C85.3272 83.1699 85.5227 83.5188 85.7341 83.8574C85.9141 84.151 86.1015 84.4356 86.3121 84.7113C86.6255 85.1356 86.9637 85.5392 87.3248 85.9201C89.4927 88.214 92.4114 89.5706 95.4974 89.7185H95.5035Z" fill="#EAB32B"/>
<path d="M85.036 77.5566C85.036 77.5566 80.6876 83.733 82.7742 87.1295C84.8609 90.5259 90.7056 87.2903 85.036 77.5566Z" fill="#EAB32B"/>
<path d="M84.9662 78.5469C84.9662 78.5469 82.0641 82.6696 83.4564 84.9288C84.8487 87.188 88.7513 85.0436 84.9662 78.5469Z" fill="#4E1664"/>
<path d="M84.9186 79.6143C84.9186 79.6143 82.9948 82.3483 83.9181 83.8506C84.8414 85.3528 87.4289 83.9233 84.9186 79.6143Z" fill="#DB288B"/>
<path d="M84.7251 77.0284C84.7251 77.0284 82.6213 76.135 82.9066 74.2038C83.1919 72.2726 84.7251 69 84.7251 69C84.7251 69 86.977 73.5133 86.7578 74.8981C86.5386 76.283 84.7251 77.0284 84.7251 77.0284Z" fill="#EAB32B"/>
<g style="mix-blend-mode:multiply" opacity="0.9">
<path d="M84.7692 76.346C84.7692 76.346 83.601 75.8495 83.759 74.7761C83.9169 73.7026 84.7692 71.8838 84.7692 71.8838C84.7692 71.8838 86.0219 74.3919 85.8995 75.1615C85.777 75.9312 84.7692 76.346 84.7692 76.346Z" fill="#EAB32B"/>
</g>
<g style="mix-blend-mode:multiply" opacity="0.6">
<g style="mix-blend-mode:multiply" opacity="0.3">
<path d="M99.9644 81.8955C99.7807 83.3148 99.3552 84.6885 98.708 85.9518C97.9242 87.4419 96.829 88.7292 95.5034 89.7184C95.3222 89.8575 95.136 89.989 94.9523 90.1154C90.5856 93.0817 85.0335 93 85.0335 93C85.0335 93 81.4028 93.0523 77.7058 91.5054C77.2344 91.3075 76.7593 91.0829 76.2939 90.8289C80.6626 90.9466 84.9982 90.0095 88.9619 88.091C89.9807 87.5945 90.9885 87.0214 91.7783 86.1892C92.371 85.5677 92.6355 84.8248 92.9147 84.0909L93.0237 84.1011C93.8754 84.1635 94.7312 84.1207 95.5732 83.9735C98.446 83.4718 99.9644 81.8955 99.9644 81.8955Z" fill="#9C2DA2"/>
</g>
<g style="mix-blend-mode:multiply" opacity="0.5">
<path d="M99.9644 81.8955C99.7806 83.3148 99.3551 84.6885 98.708 85.9518C97.9242 87.4419 96.8289 88.7292 95.5033 89.7184C95.3221 89.8575 95.136 89.989 94.9523 90.1154C90.5856 93.0817 85.0335 93 85.0335 93C85.0335 93 81.4027 93.0523 77.7058 91.5054C81.9525 91.926 86.2341 91.2859 90.1962 89.638C91.6277 89.0381 93.0408 88.2838 94.1012 87.1121C94.9045 86.2186 95.2756 85.1132 95.5707 83.976C98.4459 83.4718 99.9644 81.8955 99.9644 81.8955Z" fill="#9C2DA2"/>
</g>
</g>
<g style="mix-blend-mode:soft-light" opacity="0.7">
<path d="M84.5722 88.9531C86.8276 87.7584 88.1769 85.8071 87.5859 84.5949C86.9948 83.3826 84.6873 83.3685 82.4318 84.5632C80.1763 85.758 78.827 87.7093 79.4181 88.9215C80.0091 90.1337 82.3167 90.1479 84.5722 88.9531Z" fill="#F3EBD8"/>
</g>
<path opacity="0.7" d="M81.9368 81.5684C77.5541 87.4397 72.1049 84.7146 70.4787 83.6948C70.3149 83.1049 70.1922 82.5034 70.1113 81.8951C70.1113 81.8951 72.5372 84.4172 77.0447 84.1007C78.9244 83.968 80.6081 82.846 81.9368 81.5684Z" fill="#F3EBD8"/>
<path d="M38.5945 68.0225C38.458 68.0004 38.3324 67.9361 38.2359 67.839C38.1395 67.7419 38.0773 67.6172 38.0586 67.4831C38.0398 67.349 38.0655 67.2125 38.1317 67.0937C38.198 66.9749 38.3013 66.8799 38.4267 66.8227C39.7548 66.2702 40.9531 65.4574 41.9479 64.4344C42.9426 63.4114 43.7127 62.1999 44.2106 60.8745C44.5074 60.013 44.6094 59.0986 44.5095 58.1947C44.4097 57.2908 44.1103 56.4189 43.6322 55.6394C43.5473 55.4941 43.524 55.3221 43.5672 55.1603C43.6105 54.9984 43.7168 54.8595 43.8635 54.7735C43.9364 54.7317 44.0171 54.7045 44.1007 54.6933C44.1844 54.6821 44.2694 54.6872 44.3511 54.7082C44.4328 54.7292 44.5094 54.7658 44.5766 54.8159C44.6438 54.8659 44.7002 54.9284 44.7427 54.9999C45.3125 55.9328 45.6686 56.9756 45.7865 58.0563C45.9043 59.137 45.7811 60.2298 45.4253 61.2593C44.8726 62.7506 44.0145 64.1156 42.9036 65.2708C41.7926 66.426 40.4522 67.347 38.9646 67.9772C38.8477 68.0251 38.7198 68.0408 38.5945 68.0225Z" fill="#DA9828"/>
<path d="M58.9315 20.0331L50.9082 72.8164L52.1668 72.9996L60.1901 20.2162L58.9315 20.0331Z" fill="#DA9828"/>
<path d="M42.1411 17.7166L36 58.1172L52.6479 60.5401L58.789 20.1396L42.1411 17.7166Z" fill="#821E88"/>
<path d="M56.235 19.8031L41.1622 24.9929L40.4335 29.7695L58.3751 23.5893L58.8898 20.1936L56.235 19.8031ZM52.7647 60.5915L53.1696 57.9089L47.565 59.8388L52.7647 60.5915ZM36.1129 58.1692L37.906 58.4296L53.9331 52.9115L54.6561 48.1291L36.6971 54.315L36.1129 58.1692ZM42.2611 17.7656L41.92 19.9955L46.5471 18.3938L42.2611 17.7656ZM38.947 39.5493L56.9059 33.3634L57.6347 28.581L39.7047 34.7669L38.947 39.5493ZM37.4606 49.3233L55.3906 43.1374L56.1136 38.3551L38.1836 44.541L37.4606 49.3233Z" fill="#912698"/>
<path d="M54.691 3.53724C53.9449 2.08274 52.3775 1.83937 51.2207 3.03354L39.6529 14.9186C38.4961 16.1015 38.9126 17.2673 40.561 17.505L60.5386 20.4141C62.187 20.6574 62.9274 19.6613 62.1812 18.2011L54.691 3.53724Z" fill="#8F0B55"/>
<path d="M65.3566 16.7186L72.9334 52.7303C73.1763 53.8623 77.1903 54.0434 81.8926 53.0982C86.5949 52.1531 90.2156 50.4439 89.99 49.295L82.4132 13.2832L65.3566 16.7186Z" fill="#912698"/>
<path d="M82.3955 13.283C82.1526 12.1511 78.1444 11.97 73.4363 12.9152C68.7282 13.8603 65.1133 15.5695 65.3389 16.7184C65.5644 17.8673 69.59 18.0314 74.2981 17.0863C79.0062 16.1411 82.6674 14.4376 82.3955 13.283Z" fill="#DA9828"/>
<path d="M84.1601 21.6592L83.3329 17.7314C83.5759 18.8634 79.9552 20.5612 75.2355 21.529C70.5159 22.4968 66.5134 22.3157 66.2705 21.1668L67.0977 25.0889C67.1787 25.4567 67.6356 25.7227 68.3759 25.8812H68.3412L72.1123 43.788C71.3893 43.6239 70.9556 43.3636 70.8688 43.0014L71.7016 46.9291C71.9446 48.061 75.9528 48.2478 80.6609 47.297C85.3689 46.3462 88.9839 44.6483 88.7583 43.4937L87.9312 39.5717C88.0064 39.9282 87.7056 40.3414 87.1156 40.7715L83.3445 22.859H83.3099C83.923 22.4572 84.2353 22.0214 84.1601 21.6592ZM70.1111 26.068C71.0771 26.0854 72.0432 26.0401 73.003 25.9321L76.7741 43.856C75.8143 43.9639 74.8482 44.0093 73.8822 43.9918L70.1111 26.068ZM78.4456 43.6126L74.6687 25.6888C75.1314 25.6171 75.6 25.5322 76.0743 25.4341C76.5544 25.3379 77.017 25.236 77.4682 25.1228L81.245 43.0466C80.7881 43.1598 80.3253 43.2617 79.851 43.3579C79.3768 43.4541 78.9025 43.5617 78.4456 43.6352V43.6126ZM85.5772 41.6091C84.6972 42.0012 83.7909 42.334 82.8646 42.6052L79.0935 24.721C80.0179 24.4498 80.9223 24.117 81.8003 23.7249L85.5772 41.6091Z" fill="#821E88"/>
<path d="M73.9919 15.6655C73.9053 15.6828 73.816 15.6832 73.7293 15.6667C73.6425 15.6502 73.5599 15.617 73.4863 15.5691C73.4126 15.5213 73.3495 15.4596 73.3003 15.3878C73.2511 15.3159 73.2167 15.2353 73.1995 15.1505L72.0948 9.90406C72.0588 9.73295 72.0936 9.55482 72.1918 9.40889C72.29 9.26295 72.4434 9.16115 72.6183 9.12587C72.7931 9.0906 72.9752 9.12474 73.1243 9.2208C73.2735 9.31685 73.3775 9.46693 73.4135 9.63805L74.5182 14.8845C74.5368 14.9696 74.538 15.0575 74.5215 15.1431C74.505 15.2286 74.4712 15.3101 74.4222 15.3828C74.3732 15.4555 74.3099 15.5179 74.2361 15.5665C74.1622 15.615 74.0792 15.6486 73.9919 15.6655Z" fill="#DA9828"/>
<path d="M74.2173 3.14154H73.6678V2.57558C73.6678 2.49002 73.6331 2.40796 73.5712 2.34746C73.5094 2.28696 73.4257 2.25298 73.3383 2.25298C73.2947 2.25221 73.2515 2.26005 73.2112 2.27599C73.1708 2.29193 73.1341 2.31565 73.1033 2.34576C73.0725 2.37587 73.0483 2.41174 73.032 2.45122C73.0157 2.49071 73.0077 2.53301 73.0085 2.57558V3.14154H72.4301C72.3495 3.15197 72.2755 3.19072 72.2219 3.25059C72.1682 3.31046 72.1385 3.38736 72.1385 3.46697C72.1385 3.54658 72.1682 3.62348 72.2219 3.68335C72.2755 3.74321 72.3495 3.78197 72.4301 3.7924H73.0085V4.35836C73.0077 4.40093 73.0157 4.44323 73.032 4.48271C73.0483 4.5222 73.0725 4.55806 73.1033 4.58817C73.1341 4.61828 73.1708 4.64201 73.2112 4.65795C73.2515 4.67389 73.2947 4.68172 73.3383 4.68095C73.4257 4.68095 73.5094 4.64694 73.5712 4.58644C73.6331 4.52595 73.6678 4.44391 73.6678 4.35836V3.7924H74.2173C74.2646 3.79852 74.3128 3.79465 74.3585 3.7811C74.4042 3.76755 74.4465 3.74462 74.4825 3.71381C74.5184 3.683 74.5472 3.64505 74.5669 3.60248C74.5866 3.55991 74.5967 3.51371 74.5967 3.46697C74.5967 3.42023 74.5866 3.37403 74.5669 3.33145C74.5472 3.28888 74.5184 3.25093 74.4825 3.22012C74.4465 3.18931 74.4042 3.16635 74.3585 3.1528C74.3128 3.13925 74.2646 3.13541 74.2173 3.14154Z" fill="#821E88"/>
<path d="M66.3109 9.05552H65.7325V8.48956C65.7325 8.3965 65.6947 8.30724 65.6274 8.24144C65.5602 8.17563 65.4691 8.13867 65.374 8.13867C65.2788 8.13867 65.1876 8.17563 65.1203 8.24144C65.0531 8.30724 65.0153 8.3965 65.0153 8.48956V9.05552H64.4369C64.3418 9.05552 64.2505 9.09248 64.1833 9.15828C64.116 9.22409 64.0784 9.31335 64.0784 9.40641C64.0784 9.49947 64.116 9.58873 64.1833 9.65453C64.2505 9.72034 64.3418 9.7573 64.4369 9.7573H65.0153V10.3233C65.0153 10.4163 65.0531 10.5056 65.1203 10.5714C65.1876 10.6372 65.2788 10.6741 65.374 10.6741C65.4691 10.6741 65.5602 10.6372 65.6274 10.5714C65.6947 10.5056 65.7325 10.4163 65.7325 10.3233V9.7573H66.3109C66.406 9.7573 66.4972 9.72034 66.5645 9.65453C66.6317 9.58873 66.6695 9.49947 66.6695 9.40641C66.6695 9.31335 66.6317 9.22409 66.5645 9.15828C66.4972 9.09248 66.406 9.05552 66.3109 9.05552Z" fill="#821E88"/>
<path d="M69.4689 0.792318H68.9658V0.299939C68.9658 0.220385 68.9335 0.144096 68.876 0.0878434C68.8185 0.0315906 68.7405 5.02895e-09 68.6592 5.02902e-09C68.6192 -7.23096e-06 68.5796 0.00779423 68.5427 0.0229367C68.5059 0.0380792 68.4724 0.0602586 68.4444 0.0881888C68.4164 0.116119 68.3944 0.149239 68.3796 0.185601C68.3649 0.221962 68.3577 0.260817 68.3584 0.299939V0.792318H67.8494C67.8094 0.792311 67.7699 0.800112 67.733 0.815254C67.6962 0.830397 67.6628 0.852576 67.6348 0.880507C67.6068 0.908437 67.5847 0.941557 67.5699 0.977918C67.5552 1.01428 67.548 1.05317 67.5488 1.09229C67.5488 1.17034 67.5803 1.24519 67.6367 1.30038C67.6931 1.35557 67.7696 1.3866 67.8494 1.3866H68.3584V1.88464C68.3584 1.9627 68.3902 2.03754 68.4466 2.09273C68.503 2.14792 68.5795 2.17892 68.6592 2.17892C68.6992 2.17967 68.739 2.17261 68.7761 2.15816C68.8133 2.1437 68.8471 2.12217 68.8757 2.09477C68.9042 2.06737 68.9269 2.03465 68.9423 1.99857C68.9578 1.96249 68.9658 1.92377 68.9658 1.88464V1.3866H69.4689C69.5089 1.38735 69.5487 1.38029 69.5858 1.36584C69.623 1.35139 69.6568 1.32982 69.6854 1.30242C69.7139 1.27501 69.7366 1.24233 69.752 1.20625C69.7675 1.17017 69.7755 1.13142 69.7755 1.09229C69.7755 1.0529 69.7676 1.0139 69.7522 0.977504C69.7368 0.941112 69.7141 0.908049 69.6857 0.880196C69.6572 0.852342 69.6234 0.830225 69.5863 0.815151C69.5491 0.800077 69.5092 0.792318 69.4689 0.792318Z" fill="#821E88"/>
<path d="M79.6368 7.5781H78.966V6.92157C78.966 6.81747 78.924 6.71756 78.8493 6.64342C78.7746 6.56929 78.6731 6.52688 78.5668 6.52539C78.4599 6.52685 78.3578 6.56906 78.2822 6.64304C78.2066 6.71703 78.1634 6.81695 78.1619 6.92157V7.5781H77.4968C77.391 7.5781 77.2894 7.61923 77.2146 7.69247C77.1397 7.7657 77.0978 7.86504 77.0978 7.96861C77.0978 8.07218 77.1397 8.17148 77.2146 8.24471C77.2894 8.31794 77.391 8.35912 77.4968 8.35912H78.1619V9.01561C78.1634 9.1197 78.2067 9.21902 78.2825 9.29209C78.3583 9.36517 78.4604 9.40613 78.5668 9.40612C78.6726 9.40612 78.7742 9.36498 78.849 9.29175C78.9239 9.21851 78.966 9.11918 78.966 9.01561V8.35912H79.6368C79.7427 8.35912 79.8441 8.31794 79.919 8.24471C79.9938 8.17148 80.0359 8.07218 80.0359 7.96861C80.0359 7.86504 79.9938 7.7657 79.919 7.69247C79.8441 7.61923 79.7427 7.5781 79.6368 7.5781Z" fill="#821E88"/>
<path d="M20.945 83.1558C26.8049 83.1558 31.5553 82.4979 31.5553 81.6863C31.5553 80.8747 26.8049 80.2168 20.945 80.2168C15.0851 80.2168 10.3347 80.8747 10.3347 81.6863C10.3347 82.4979 15.0851 83.1558 20.945 83.1558Z" fill="#452A22"/>
<path d="M42.5976 60.6211C42.5976 71.5763 33.0602 80.4594 21.295 80.4594C9.52977 80.4594 0 71.5836 0 60.6211H42.5976Z" fill="#5F3D30"/>
<path d="M31.5176 65.9336H10.3492V81.5544H31.5176V65.9336Z" fill="#5F3D30"/>
<path d="M42.5752 60.6352C42.5752 61.9798 33.0453 63.0745 21.2875 63.0745C9.52977 63.0745 0 61.9798 0 60.6352C0 59.2906 9.52977 58.2031 21.2875 58.2031C33.0453 58.2031 42.5752 59.2906 42.5752 60.6352Z" fill="#311A0F"/>
<mask id="mask0_163_24745" style="mask-type:luminance" maskUnits="userSpaceOnUse" x="0" y="58" width="43" height="26">
<path d="M31.5175 78.0194C34.8089 76.4053 37.5849 73.9269 39.5397 70.8571C41.4946 67.7873 42.5527 64.2451 42.5973 60.6204C42.5153 59.2832 33.0152 58.2031 21.3096 58.2031C9.60396 58.2031 0.103812 59.2832 0.0218506 60.6204C0.0619581 64.1041 1.04189 67.5144 2.86075 70.5012C4.6796 73.4879 7.27192 75.9433 10.3715 77.6153V81.5388C10.3433 81.5774 10.3277 81.6236 10.3267 81.6711C10.3267 82.4794 15.073 83.1406 20.937 83.1406C26.801 83.1406 31.5473 82.4794 31.5473 81.6711C31.5426 81.6243 31.5273 81.5791 31.5026 81.5388L31.5175 78.0194Z" fill="white"/>
</mask>
<g mask="url(#mask0_163_24745)">
<g style="mix-blend-mode:multiply">
<path d="M22.4571 48.3574C22.4571 48.3574 19.4022 75.7196 5.90829 83.001C-7.58556 90.2824 41.2933 90.0252 44.0949 79.9885C46.8965 69.9518 49.1839 64.4264 45.1082 60.8849C41.0325 57.3434 22.4571 48.3574 22.4571 48.3574Z" fill="#E1E1DA"/>
</g>
</g>
<mask id="mask1_163_24745" style="mask-type:luminance" maskUnits="userSpaceOnUse" x="0" y="35" width="43" height="29">
<path d="M42.5752 60.6355C42.5752 61.9801 33.0453 63.0749 21.2875 63.0749C9.52977 63.0749 0 61.9801 0 60.6355C0 59.2909 9.68636 35 21.4069 35C33.1274 35 42.5752 59.2909 42.5752 60.6355Z" fill="white"/>
</mask>
<g mask="url(#mask1_163_24745)">
<path d="M4.70142 62.8401C6.02349 59.8944 7.78118 57.1583 9.91715 54.721C13.4415 50.6578 14.0302 49.6145 16.2655 47.3C18.5008 44.9856 18.3816 43.6262 20.9746 43.4719C23.5676 43.3177 24.3796 42.5388 25.9145 44.5153C27.4495 46.4918 26.6151 46.0216 28.5002 48.2258C30.3853 50.4301 31.7934 50.5476 33.5593 52.289C35.3252 54.0303 34.8484 53.7585 35.7946 55.8819C36.7409 58.0054 37.4415 58.821 37.7917 59.9378C38.0572 60.9698 38.2539 62.0178 38.3803 63.0752C38.3803 63.0752 26.5033 64.2287 22.8523 64.1185C19.2012 64.0083 14.4996 64.0009 11.4447 64.0009C9.15506 63.9069 6.88789 63.5166 4.70142 62.8401Z" fill="#E09F34"/>
<mask id="mask2_163_24745" style="mask-type:luminance" maskUnits="userSpaceOnUse" x="4" y="43" width="35" height="22">
<path d="M4.70142 62.8401C6.02349 59.8944 7.78118 57.1583 9.91715 54.721C13.4415 50.6578 14.0302 49.6145 16.2655 47.3C18.5008 44.9856 18.3816 43.6262 20.9746 43.4719C23.5676 43.3177 24.3796 42.5388 25.9145 44.5153C27.4495 46.4918 26.6151 46.0216 28.5002 48.2258C30.3853 50.4301 31.7934 50.5476 33.5593 52.289C35.3252 54.0303 34.8484 53.7585 35.7946 55.8819C36.7409 58.0054 37.4415 58.821 37.7917 59.9378C38.0572 60.9698 38.2539 62.0178 38.3803 63.0752C38.3803 63.0752 26.5033 64.2287 22.8523 64.1185C19.2012 64.0083 14.4996 64.0009 11.4447 64.0009C9.15506 63.9069 6.88789 63.5166 4.70142 62.8401Z" fill="white"/>
</mask>
<g mask="url(#mask2_163_24745)">
<g style="mix-blend-mode:multiply" opacity="0.5">
<path d="M25.8102 42.4805C25.8102 42.4805 23.8506 60.0631 15.1776 64.7435C6.50454 69.4238 37.9181 69.2548 39.7213 62.8037C41.5244 56.3526 42.9924 52.8037 40.3696 50.548C37.7468 48.2923 25.8102 42.4805 25.8102 42.4805Z" fill="#E09F34"/>
</g>
</g>
</g>
<path d="M45.3472 94.9996C51.2071 94.9996 55.9575 94.3416 55.9575 93.5301C55.9575 92.7185 51.2071 92.0605 45.3472 92.0605C39.4873 92.0605 34.7369 92.7185 34.7369 93.5301C34.7369 94.3416 39.4873 94.9996 45.3472 94.9996Z" fill="#452A22"/>
<path d="M66.9998 72.4648C66.9998 83.42 57.4624 92.3032 45.7047 92.3032C33.9469 92.3032 24.4022 83.42 24.4022 72.4648H66.9998Z" fill="#5F3D30"/>
<path d="M55.9272 77.7773H34.7588V93.3982H55.9272V77.7773Z" fill="#5F3D30"/>
<path d="M45.6971 74.9266C57.4539 74.9266 66.9848 73.8345 66.9848 72.4872C66.9848 71.14 57.4539 70.0479 45.6971 70.0479C33.9402 70.0479 24.4095 71.14 24.4095 72.4872C24.4095 73.8345 33.9402 74.9266 45.6971 74.9266Z" fill="#311A0F"/>
<mask id="mask3_163_24745" style="mask-type:luminance" maskUnits="userSpaceOnUse" x="24" y="70" width="43" height="25">
<path d="M55.9276 89.8641C59.2187 88.2503 61.9942 85.7718 63.9479 82.7018C65.9016 79.6318 66.9577 76.0894 67 72.4652C66.9255 71.1279 57.4253 70.0479 45.7197 70.0479C34.0141 70.0479 24.514 71.1279 24.432 72.4652C24.4736 75.9494 25.455 79.36 27.2751 82.3466C29.0952 85.3333 31.6886 87.7884 34.7891 89.46V93.3762C34.7665 93.4169 34.7537 93.4622 34.7518 93.5085C34.7518 94.3167 39.4981 94.978 45.3546 94.978C51.2112 94.978 55.9649 94.3167 55.9649 93.5085C55.9639 93.461 55.9483 93.4149 55.9202 93.3762L55.9276 89.8641Z" fill="white"/>
</mask>
<g mask="url(#mask3_163_24745)">
<g style="mix-blend-mode:multiply">
<path d="M46.8672 60.1729C46.8672 60.1729 43.8123 87.5277 30.3185 94.809C16.8246 102.09 65.7035 101.841 68.4977 91.7966C71.2918 81.7525 73.5941 76.2345 69.5184 72.693C65.4426 69.1515 46.8672 60.1729 46.8672 60.1729Z" fill="#E1E1DA"/>
</g>
</g>
<mask id="mask4_163_24745" style="mask-type:luminance" maskUnits="userSpaceOnUse" x="24" y="46" width="43" height="29">
<path d="M66.9849 72.4871C66.9849 73.8317 57.455 74.9191 45.6972 74.9191C33.9394 74.9191 24.4022 73.8317 24.4022 72.4871C24.4022 71.1425 34.0886 46.8516 45.8091 46.8516C57.5296 46.8516 66.9849 71.1351 66.9849 72.4871Z" fill="white"/>
</mask>
<g mask="url(#mask4_163_24745)">
<path d="M29.1112 74.6842C30.4208 71.7419 32.1633 69.0061 34.2824 66.5652C37.8142 62.5093 38.4026 61.466 40.638 59.1441C42.8733 56.8223 42.7541 55.4704 45.3396 55.3161C47.9251 55.1618 48.7523 54.3903 50.2798 56.3594C51.8072 58.3286 51.0249 57.8657 52.8727 60.0699C54.7206 62.2742 56.1661 62.3917 57.9246 64.1331C59.683 65.8745 59.221 65.6026 60.1599 67.726C61.0987 69.8495 61.8065 70.6283 62.1642 71.7893C62.4295 72.8188 62.6261 73.8644 62.7528 74.9193C62.7528 74.9193 50.8311 76.0802 47.2248 75.9626C43.6185 75.8451 38.8721 75.8451 35.8172 75.8451C33.54 75.7487 31.2855 75.3585 29.1112 74.6842Z" fill="#D05663"/>
<mask id="mask5_163_24745" style="mask-type:luminance" maskUnits="userSpaceOnUse" x="29" y="55" width="34" height="21">
<path d="M29.1112 74.6842C30.4208 71.7419 32.1633 69.0061 34.2824 66.5652C37.8142 62.5093 38.4026 61.466 40.638 59.1441C42.8733 56.8223 42.7541 55.4704 45.3396 55.3161C47.9251 55.1618 48.7523 54.3903 50.2798 56.3594C51.8072 58.3286 51.0249 57.8657 52.8727 60.0699C54.7206 62.2742 56.1661 62.3917 57.9246 64.1331C59.683 65.8745 59.221 65.6026 60.1599 67.726C61.0987 69.8495 61.8065 70.6283 62.1642 71.7893C62.4295 72.8188 62.6261 73.8644 62.7528 74.9193C62.7528 74.9193 50.8311 76.0802 47.2248 75.9626C43.6185 75.8451 38.8721 75.8451 35.8172 75.8451C33.54 75.7487 31.2855 75.3585 29.1112 74.6842Z" fill="white"/>
</mask>
<g mask="url(#mask5_163_24745)">
<path d="M50.22 54.3535C50.22 54.3535 48.2604 71.9362 39.5874 76.6166C30.9143 81.2969 62.3279 81.1353 64.1236 74.6841C65.9193 68.233 67.3947 64.6768 64.7794 62.4211C62.1641 60.1654 50.22 54.3535 50.22 54.3535Z" fill="#AE3658"/>
</g>
</g>
<path d="M52.1076 90.8948C52.1076 90.8948 51.4133 90.1047 53.5514 89.141C55.6894 88.1774 64.2184 85.7433 71.8706 86.8308C76.3463 87.469 82.5241 88.4901 81.9645 90.8948C81.4049 93.2995 67.1475 96.1279 67.1475 96.1279L54.3645 93.2982L52.1076 90.8948Z" fill="#F1E9D6"/>
<path d="M54.1306 93.8653C54.1306 93.8653 52.4603 91.384 55.6147 90.2672C57.3511 89.6532 62.3852 88.4381 67.036 88.3041C70.8321 88.1956 74.3662 89.0801 75.6507 89.3392C78.5088 89.9162 81.2628 90.0221 79.7321 93.8653C78.4353 97.1226 54.1306 93.8653 54.1306 93.8653Z" fill="#8F0B55"/>
<path d="M81.9644 90.895C81.7807 92.3143 81.3552 93.688 80.708 94.9513C79.9242 96.4414 78.829 97.7286 77.5034 98.7179C77.3222 98.857 77.136 98.9885 76.9523 99.1149C72.5856 102.081 67.0335 101.999 67.0335 101.999C67.0335 101.999 63.4028 102.052 59.7059 100.505C59.2344 100.307 58.7593 100.082 58.294 99.8284C57.7492 99.535 57.2242 99.2033 56.7229 98.8353C56.5404 98.7077 56.3628 98.5622 56.1853 98.4154C54.9939 97.4487 54.0117 96.2309 53.3027 94.8415C52.6886 93.6099 52.2835 92.2769 52.1051 90.9014C52.1051 90.9014 54.5309 93.4235 59.0385 93.1069C62.3447 92.8759 65.0216 89.6046 66.2719 87.7768C66.2719 87.7768 66.2719 87.7768 66.2719 87.7691C66.7298 87.099 66.9956 86.6204 67.0262 86.5693L67.0874 86.6765C67.0874 86.6893 67.1033 86.7059 67.1131 86.7225C67.1401 86.7646 67.1633 86.808 67.1878 86.8501C67.2001 86.8693 67.2123 86.8897 67.2233 86.9101C67.2491 86.9523 67.2748 86.9956 67.3054 87.0441C67.336 87.0926 67.347 87.1105 67.3691 87.1463C67.4254 87.2356 67.4915 87.3339 67.5576 87.4398L67.5687 87.4564C67.6581 87.593 67.756 87.7411 67.8662 87.8981C67.8944 87.9389 67.9238 87.981 67.9544 88.0257C68.0475 88.1533 68.1479 88.2963 68.2544 88.4418C68.3083 88.5158 68.3658 88.5898 68.4234 88.6652C68.5801 88.8694 68.7491 89.0812 68.9279 89.2957C68.9879 89.3672 69.0504 89.4374 69.1116 89.5101C69.2577 89.6803 69.4112 89.8505 69.572 90.0207C69.6186 90.0704 69.6651 90.1215 69.7128 90.17C69.9051 90.3691 70.1035 90.5657 70.3129 90.7597C70.3643 90.8069 70.417 90.8567 70.4696 90.9026C70.6288 91.0447 70.7921 91.1839 70.9594 91.32C71.0121 91.3634 71.0647 91.4055 71.1186 91.4476C71.1725 91.4898 71.2411 91.5408 71.2986 91.5855C71.3562 91.6302 71.4211 91.6723 71.475 91.7131C71.5288 91.754 71.6121 91.8101 71.6819 91.8586C71.7309 91.8918 71.7799 91.925 71.8301 91.9569C72.0113 92.0756 72.1974 92.1879 72.386 92.2901C72.4485 92.3271 72.5085 92.3603 72.5746 92.3922L72.7669 92.4879C72.8893 92.5504 73.0252 92.6155 73.1575 92.6628C73.2248 92.6908 73.2897 92.7164 73.3571 92.7419L73.5518 92.8121C73.6926 92.8606 73.8347 92.904 73.9791 92.9397L74.1543 92.9857L74.2069 92.9972L74.3404 93.024C74.3967 93.0355 74.4518 93.0457 74.5094 93.0546C74.5669 93.0635 74.5951 93.0699 74.6404 93.075C74.7302 93.0878 74.8208 93.098 74.9123 93.1057L75.0212 93.1159C75.8729 93.1783 76.7287 93.1355 77.5707 92.9882C80.446 92.4713 81.9644 90.895 81.9644 90.895Z" fill="#9C2DA2"/>
<path d="M67.0361 86.5566C63.6527 97.6382 56.2136 95.9814 53.3053 94.8352C52.9614 94.1525 52.6844 93.4354 52.4787 92.6947C52.3149 92.1048 52.1922 91.5034 52.1113 90.8951C52.1113 90.8951 54.5372 93.4172 59.0447 93.1006C60.9281 92.973 62.6118 91.8459 63.9429 90.5683C65.1452 89.3849 66.186 88.0351 67.0361 86.5566Z" fill="#EAB32B"/>
<path d="M81.9646 90.895C81.7808 92.3143 81.3553 93.688 80.7082 94.9514C69.4362 98.0696 67.0361 86.5566 67.0361 86.5566C67.0361 86.5566 70.4294 92.779 75.0312 93.1006C79.5375 93.4172 81.9646 90.895 81.9646 90.895Z" fill="#EAB32B"/>
<path d="M56.0322 97.1914C56.3143 97.1914 56.5429 96.9532 56.5429 96.6592C56.5429 96.3653 56.3143 96.127 56.0322 96.127C55.7502 96.127 55.5216 96.3653 55.5216 96.6592C55.5216 96.9532 55.7502 97.1914 56.0322 97.1914Z" fill="#F1E9D6"/>
<path d="M58.5365 97.1914C58.8185 97.1914 59.0472 96.9532 59.0472 96.6592C59.0472 96.3653 58.8185 96.127 58.5365 96.127C58.2545 96.127 58.0259 96.3653 58.0259 96.6592C58.0259 96.9532 58.2545 97.1914 58.5365 97.1914Z" fill="#F1E9D6"/>
<path d="M61.6909 96.1267C61.6912 96.232 61.6614 96.335 61.6055 96.4227C61.5495 96.5104 61.4699 96.5788 61.3766 96.6193C61.2833 96.6598 61.1806 96.6705 61.0814 96.6501C60.9823 96.6297 60.8912 96.5791 60.8197 96.5048C60.7481 96.4304 60.6994 96.3355 60.6796 96.2323C60.6598 96.129 60.6698 96.0219 60.7084 95.9246C60.747 95.8272 60.8125 95.744 60.8965 95.6855C60.9805 95.627 61.0793 95.5957 61.1803 95.5957C61.3155 95.5957 61.4452 95.6516 61.541 95.7512C61.6367 95.8507 61.6906 95.9857 61.6909 96.1267Z" fill="#F1E9D6"/>
<path d="M63.4555 95.0635C63.4555 95.1688 63.4255 95.2717 63.3694 95.3592C63.3133 95.4467 63.2336 95.515 63.1403 95.5552C63.0469 95.5955 62.9443 95.6061 62.8452 95.5855C62.7462 95.565 62.6552 95.5143 62.5838 95.4399C62.5124 95.3654 62.4637 95.2706 62.444 95.1673C62.4243 95.0641 62.4344 94.9571 62.4731 94.8598C62.5117 94.7626 62.5772 94.6794 62.6611 94.6209C62.7451 94.5625 62.8438 94.5313 62.9448 94.5312C63.0803 94.5313 63.2102 94.5873 63.3059 94.6871C63.4017 94.787 63.4555 94.9223 63.4555 95.0635Z" fill="#F1E9D6"/>
<path d="M78.0398 97.1914C78.3218 97.1914 78.5504 96.9532 78.5504 96.6592C78.5504 96.3653 78.3218 96.127 78.0398 96.127C77.7578 96.127 77.5292 96.3653 77.5292 96.6592C77.5292 96.9532 77.7578 97.1914 78.0398 97.1914Z" fill="#F1E9D6"/>
<path d="M75.025 96.6592C75.025 96.7645 75.055 96.8674 75.1111 96.9549C75.1672 97.0424 75.2469 97.1107 75.3402 97.1509C75.4336 97.1912 75.5362 97.2018 75.6353 97.1812C75.7343 97.1607 75.8253 97.11 75.8967 97.0356C75.9681 96.9611 76.0168 96.8663 76.0365 96.763C76.0562 96.6598 76.0461 96.5528 76.0074 96.4555C75.9688 96.3583 75.9033 96.2751 75.8193 96.2167C75.7354 96.1582 75.6367 96.127 75.5357 96.127C75.4686 96.127 75.4022 96.1407 75.3402 96.1675C75.2783 96.1942 75.222 96.2334 75.1746 96.2828C75.1272 96.3323 75.0896 96.3909 75.0639 96.4555C75.0382 96.5201 75.025 96.5893 75.025 96.6592Z" fill="#F1E9D6"/>
<path d="M72.8917 96.6592C73.1738 96.6592 73.4024 96.4209 73.4024 96.127C73.4024 95.833 73.1738 95.5947 72.8917 95.5947C72.6097 95.5947 72.3811 95.833 72.3811 96.127C72.3811 96.4209 72.6097 96.6592 72.8917 96.6592Z" fill="#F1E9D6"/>
<path d="M70.619 95.0635C70.619 95.1688 70.649 95.2718 70.7052 95.3593C70.7613 95.4469 70.8411 95.5151 70.9345 95.5554C71.0279 95.5956 71.1306 95.6061 71.2297 95.5854C71.3288 95.5648 71.4198 95.514 71.4912 95.4394C71.5625 95.3648 71.6111 95.2699 71.6306 95.1666C71.6502 95.0632 71.6399 94.9562 71.6011 94.8589C71.5622 94.7617 71.4966 94.6787 71.4125 94.6203C71.3283 94.562 71.2295 94.531 71.1284 94.5313C70.9932 94.5316 70.8636 94.5878 70.7681 94.6876C70.6726 94.7874 70.619 94.9226 70.619 95.0635Z" fill="#F1E9D6"/>
<path d="M77.5035 98.7185C77.3223 98.8577 77.1362 98.9891 76.9525 99.1155C74.0388 98.8477 71.3036 97.5377 69.2109 95.4076C68.8129 95.0045 68.441 94.5743 68.0978 94.1198C67.8725 93.8236 67.6594 93.5199 67.461 93.2046C67.2884 92.9327 67.1243 92.6519 66.9712 92.3673C66.7916 92.6906 66.5977 93.0063 66.3896 93.3144C66.1732 93.6369 65.9414 93.9496 65.694 94.2525C65.3209 94.7097 64.9187 95.1404 64.4903 95.5417C63.6856 96.2989 62.7889 96.9426 61.8232 97.4562C60.2352 98.2875 58.496 98.7578 56.7206 98.836C56.5381 98.7083 56.3605 98.5628 56.183 98.416C58.073 98.4104 59.9358 97.9458 61.6236 97.0593C63.0796 96.2786 64.3705 95.2014 65.4197 93.8913C65.6389 93.6169 65.8483 93.3335 66.0455 93.0399C66.3134 92.6443 66.5587 92.2326 66.7802 91.807C66.7982 91.7726 66.8248 91.7439 66.8571 91.7239C66.8894 91.7039 66.9263 91.6934 66.9639 91.6934C67.002 91.693 67.0394 91.7039 67.0719 91.7246C67.1044 91.7454 67.1306 91.7752 67.1476 91.8108C67.3272 92.1699 67.5227 92.5188 67.7341 92.8574C67.9141 93.151 68.1015 93.4356 68.3121 93.7113C68.6255 94.1356 68.9637 94.5392 69.3248 94.9201C71.4927 97.214 74.4114 98.5706 77.4974 98.7185H77.5035Z" fill="#EAB32B"/>
<path d="M67.036 86.5566C67.036 86.5566 62.6876 92.733 64.7742 96.1295C66.8609 99.5259 72.7056 96.2903 67.036 86.5566Z" fill="#EAB32B"/>
<path d="M66.9662 87.5469C66.9662 87.5469 64.0641 91.6696 65.4564 93.9288C66.8487 96.188 70.7513 94.0436 66.9662 87.5469Z" fill="#4E1664"/>
<path d="M66.9186 88.6143C66.9186 88.6143 64.9948 91.3483 65.9181 92.8506C66.8414 94.3528 69.4289 92.9233 66.9186 88.6143Z" fill="#DB288B"/>
<path d="M66.7251 86.0284C66.7251 86.0284 64.6213 85.135 64.9066 83.2038C65.1919 81.2726 66.7251 78 66.7251 78C66.7251 78 68.977 82.5133 68.7578 83.8981C68.5386 85.283 66.7251 86.0284 66.7251 86.0284Z" fill="#EAB32B"/>
<g style="mix-blend-mode:multiply" opacity="0.9">
<path d="M66.7692 85.346C66.7692 85.346 65.601 84.8495 65.759 83.7761C65.9169 82.7026 66.7692 80.8838 66.7692 80.8838C66.7692 80.8838 68.0219 83.3919 67.8995 84.1615C67.777 84.9312 66.7692 85.346 66.7692 85.346Z" fill="#EAB32B"/>
</g>
<g style="mix-blend-mode:multiply" opacity="0.6">
<g style="mix-blend-mode:multiply" opacity="0.3">
<path d="M81.9644 90.8955C81.7807 92.3148 81.3552 93.6885 80.708 94.9518C79.9242 96.4419 78.829 97.7292 77.5034 98.7184C77.3222 98.8575 77.136 98.989 76.9523 99.1154C72.5856 102.082 67.0335 102 67.0335 102C67.0335 102 63.4028 102.052 59.7058 100.505C59.2344 100.308 58.7593 100.083 58.2939 99.8289C62.6626 99.9466 66.9982 99.0095 70.9619 97.091C71.9807 96.5945 72.9885 96.0214 73.7783 95.1892C74.371 94.5677 74.6355 93.8248 74.9147 93.0909L75.0237 93.1011C75.8754 93.1635 76.7312 93.1207 77.5732 92.9735C80.446 92.4718 81.9644 90.8955 81.9644 90.8955Z" fill="#9C2DA2"/>
</g>
<g style="mix-blend-mode:multiply" opacity="0.5">
<path d="M81.9644 90.8955C81.7806 92.3148 81.3551 93.6885 80.708 94.9518C79.9242 96.4419 78.8289 97.7292 77.5033 98.7184C77.3221 98.8575 77.136 98.989 76.9523 99.1154C72.5856 102.082 67.0335 102 67.0335 102C67.0335 102 63.4027 102.052 59.7058 100.505C63.9525 100.926 68.2341 100.286 72.1962 98.638C73.6277 98.0381 75.0408 97.2838 76.1012 96.1121C76.9045 95.2186 77.2756 94.1132 77.5707 92.976C80.4459 92.4718 81.9644 90.8955 81.9644 90.8955Z" fill="#9C2DA2"/>
</g>
</g>
<g style="mix-blend-mode:soft-light" opacity="0.7">
<path d="M66.5722 97.9531C68.8276 96.7584 70.1769 94.8071 69.5859 93.5949C68.9948 92.3826 66.6873 92.3685 64.4318 93.5632C62.1763 94.758 60.827 96.7093 61.4181 97.9215C62.0091 99.1337 64.3167 99.1479 66.5722 97.9531Z" fill="#F3EBD8"/>
</g>
<path opacity="0.7" d="M63.9368 90.5684C59.5541 96.4397 54.1049 93.7146 52.4787 92.6948C52.3149 92.1049 52.1922 91.5034 52.1113 90.8951C52.1113 90.8951 54.5372 93.4172 59.0447 93.1007C60.9244 92.968 62.6081 91.846 63.9368 90.5684Z" fill="#F3EBD8"/>
</svg>
