<svg width="171" height="95" viewBox="0 0 171 95" fill="none" xmlns="http://www.w3.org/2000/svg">
<path d="M160.337 18.464H126.315C123.319 18.464 120.497 17.173 118.446 14.997C109.75 5.76971 97.4022 0 83.6952 0C69.9883 0 57.6401 5.76893 48.9438 14.997C46.8932 17.173 44.0706 18.464 41.0744 18.464H10.6629C4.77343 18.464 0 23.2205 0 29.0872V65.9128C0 71.7795 4.77421 76.536 10.6629 76.536H41.0744C44.0706 76.536 46.8932 77.827 48.9438 80.0038C57.6393 89.2311 69.9875 95 83.6952 95C97.4029 95 109.75 89.2311 118.446 80.0038C120.497 77.8278 123.319 76.536 126.315 76.536H160.337C166.227 76.536 171 71.7795 171 65.9128V29.0872C171 23.2205 166.227 18.464 160.337 18.464Z" fill="#611D42"/>
<path d="M83.8248 92.7829C71.1498 92.7829 59.3843 87.7056 50.6967 78.4862C48.2008 75.8376 44.7413 74.3189 41.2048 74.3189H10.7932C6.14074 74.3189 2.35608 70.5483 2.35608 65.9131V29.0876C2.35608 24.4532 6.14074 20.6818 10.7932 20.6818H41.2048C44.7421 20.6818 48.2016 19.1631 50.6975 16.5145C59.3851 7.29503 71.1506 2.21777 83.8256 2.21777C96.5006 2.21777 108.266 7.29503 116.954 16.5145C119.449 19.1631 122.909 20.6818 126.446 20.6818H160.467C165.12 20.6818 168.905 24.4524 168.905 29.0876V65.9131C168.905 70.5475 165.12 74.3189 160.467 74.3189H126.446C122.909 74.3189 119.449 75.8376 116.954 78.4862C108.265 87.7056 96.4998 92.7829 83.8248 92.7829Z" stroke="#FFD435" stroke-width="3" stroke-miterlimit="10" stroke-linecap="round" stroke-linejoin="round" stroke-dasharray="0.5 8"/>
<path d="M12.1136 59.4004H10.6136C10.6136 60.2288 11.2852 60.9004 12.1136 60.9004V59.4004ZM12.1136 41.9458V40.4458C11.2852 40.4458 10.6136 41.1174 10.6136 41.9458H12.1136ZM21.2244 42.5765L20.5195 43.9006L20.527 43.9045L21.2244 42.5765ZM22.9886 44.2555L21.6734 44.9768L21.6759 44.9812L22.9886 44.2555ZM23.1676 48.4402L21.8513 47.7208L21.8449 47.7327L23.1676 48.4402ZM22.1278 49.5993L21.3034 48.3461L21.2958 48.3512L22.1278 49.5993ZM20.7386 50.2299L20.344 48.7828C19.6914 48.9608 19.2386 49.5535 19.2386 50.2299H20.7386ZM20.7386 50.4004H19.2386C19.2386 51.1917 19.8534 51.8469 20.6431 51.8973L20.7386 50.4004ZM22.3494 50.9629L21.5484 52.2311H21.5484L22.3494 50.9629ZM23.6534 57.1248L24.9571 57.8667L23.6534 57.1248ZM21.7699 58.7868L21.1243 57.4328L21.7699 58.7868ZM14.2273 57.5254H12.7273C12.7273 58.3538 13.3988 59.0254 14.2273 59.0254V57.5254ZM21.3608 56.7243L22.3773 57.8273L22.3778 57.8269L21.3608 56.7243ZM21.7869 53.1277L20.4981 53.8952L20.502 53.9016L21.7869 53.1277ZM20.5 51.9174L19.7761 53.2312L19.7864 53.2368L20.5 51.9174ZM14.2273 51.4572V49.9572C13.3988 49.9572 12.7273 50.6288 12.7273 51.4572H14.2273ZM14.2273 49.6163H12.7273C12.7273 50.4447 13.3988 51.1163 14.2273 51.1163V49.6163ZM19.8693 49.2413L19.2164 47.8909L19.2105 47.8937L19.8693 49.2413ZM21.0966 48.1845L19.8533 47.3452L19.8461 47.356L21.0966 48.1845ZM20.7557 44.6305L19.6894 45.6856L19.695 45.6912L20.7557 44.6305ZM14.2273 43.8208V42.3208C13.3988 42.3208 12.7273 42.9924 12.7273 43.8208H14.2273ZM13.6136 59.4004V41.9458H10.6136V59.4004H13.6136ZM12.1136 43.4458H18.2159V40.4458H12.1136V43.4458ZM18.2159 43.4458C19.2702 43.4458 20.0106 43.6296 20.5195 43.9006L21.9293 41.2525C20.8587 40.6825 19.5935 40.4458 18.2159 40.4458V43.4458ZM20.527 43.9045C21.0855 44.1979 21.4443 44.5589 21.6734 44.9768L24.3039 43.5343C23.7603 42.5431 22.9429 41.7847 21.9219 41.2485L20.527 43.9045ZM21.6759 44.9812C21.9312 45.443 22.0682 45.9662 22.0682 46.5822H25.0682C25.0682 45.4937 24.8188 44.4657 24.3014 43.5298L21.6759 44.9812ZM22.0682 46.5822C22.0682 47.1644 21.9633 47.5161 21.8514 47.7208L24.4839 49.1595C24.9061 48.387 25.0682 47.5 25.0682 46.5822H22.0682ZM21.8449 47.7327C21.6928 48.0171 21.5113 48.2094 21.3034 48.3461L22.9523 50.8524C23.608 50.4209 24.1197 49.8405 24.4903 49.1476L21.8449 47.7327ZM21.2958 48.3512C21.0054 48.5448 20.6903 48.6883 20.344 48.7828L21.1333 51.6771C21.787 51.4988 22.398 51.2219 22.9599 50.8473L21.2958 48.3512ZM19.2386 50.2299V50.4004H22.2386V50.2299H19.2386ZM20.6431 51.8973C20.8824 51.9126 21.1801 51.9985 21.5484 52.2311L23.1504 49.6947C22.4392 49.2455 21.663 48.9563 20.8342 48.9034L20.6431 51.8973ZM21.5484 52.2311C21.8519 52.4228 22.1421 52.7179 22.4022 53.173L25.0069 51.6846C24.5397 50.867 23.9266 50.1848 23.1504 49.6947L21.5484 52.2311ZM22.4022 53.173C22.6071 53.5317 22.75 54.0388 22.75 54.764H25.75C25.75 53.6484 25.5292 52.5986 25.0069 51.6846L22.4022 53.173ZM22.75 54.764C22.75 55.4025 22.6076 55.9298 22.3497 56.3829L24.9571 57.8667C25.4947 56.9221 25.75 55.8756 25.75 54.764H22.75ZM22.3497 56.3829C22.1297 56.7696 21.7571 57.1311 21.1243 57.4328L22.4155 60.1407C23.4986 59.6243 24.3817 58.8778 24.9571 57.8667L22.3497 56.3829ZM21.1243 57.4328C20.5374 57.7127 19.6644 57.9004 18.4205 57.9004V60.9004C19.9265 60.9004 21.2865 60.679 22.4155 60.1407L21.1243 57.4328ZM18.4205 57.9004H12.1136V60.9004H18.4205V57.9004ZM14.2273 59.0254H18.4205V56.0254H14.2273V59.0254ZM18.4205 59.0254C19.919 59.0254 21.3761 58.75 22.3773 57.8273L20.3443 55.6212C20.1864 55.7667 19.6833 56.0254 18.4205 56.0254V59.0254ZM22.3778 57.8269C23.2577 57.0153 23.7386 55.9676 23.7386 54.764H20.7386C20.7386 55.0946 20.6344 55.3537 20.3438 55.6216L22.3778 57.8269ZM23.7386 54.764C23.7386 53.904 23.5155 53.0904 23.0719 52.3538L20.502 53.9016C20.6606 54.1649 20.7386 54.4423 20.7386 54.764H23.7386ZM23.0757 52.3602C22.6257 51.6044 21.9897 51.0178 21.2136 50.598L19.7864 53.2368C20.1239 53.4193 20.3459 53.6395 20.4981 53.8951L23.0757 52.3602ZM21.2239 50.6037C20.4054 50.1527 19.4873 49.9572 18.5227 49.9572V52.9572C19.0808 52.9572 19.4809 53.0686 19.7761 53.2312L21.2239 50.6037ZM18.5227 49.9572H14.2273V52.9572H18.5227V49.9572ZM12.7273 51.4572V57.5254H15.7273V51.4572H12.7273ZM14.2273 51.1163H18.1477V48.1163H14.2273V51.1163ZM18.1477 51.1163C18.9852 51.1163 19.7885 50.9505 20.5281 50.5889L19.2105 47.8937C18.9274 48.0321 18.5829 48.1163 18.1477 48.1163V51.1163ZM20.5223 50.5917C21.2683 50.231 21.8892 49.7041 22.3471 49.0129L19.8461 47.356C19.7017 47.574 19.5045 47.7516 19.2164 47.8909L20.5223 50.5917ZM22.3399 49.0237C22.8335 48.2923 23.0568 47.458 23.0568 46.5822H20.0568C20.0568 46.9337 19.9733 47.1675 19.8533 47.3453L22.3399 49.0237ZM23.0568 46.5822C23.0568 45.4243 22.6366 44.3901 21.8163 43.5698L19.695 45.6912C19.9429 45.9391 20.0568 46.2061 20.0568 46.5822H23.0568ZM21.8219 43.5755C20.8878 42.6314 19.5683 42.3208 18.2159 42.3208V45.3208C19.1817 45.3208 19.5554 45.5501 19.6894 45.6855L21.8219 43.5755ZM18.2159 42.3208H14.2273V45.3208H18.2159V42.3208ZM12.7273 43.8208V49.6163H15.7273V43.8208H12.7273ZM41.4531 55.4458L40.1092 54.7796V54.7796L41.4531 55.4458ZM38.7173 58.5481L39.5146 59.8187L38.7173 58.5481ZM30.7741 58.5481L29.9769 59.8187L30.7741 58.5481ZM28.0384 55.4458L29.3823 54.7796L28.0384 55.4458ZM38.7173 42.7981L39.5146 41.5275V41.5275L38.7173 42.7981ZM41.4531 45.9004L40.1092 46.5667L41.4531 45.9004ZM39.6463 46.8464L38.2945 47.4965L38.2974 47.5025L39.6463 46.8464ZM37.6094 44.4856L36.8129 45.7567L36.8167 45.759L37.6094 44.4856ZM31.8736 44.4856L31.0809 43.2122L31.0771 43.2146L31.8736 44.4856ZM29.8366 46.8464L28.4877 46.1904L28.4848 46.1964L29.8366 46.8464ZM29.8366 54.4998L28.4848 55.1499L28.4877 55.1559L29.8366 54.4998ZM31.8736 56.8606L31.0771 58.1317L31.0809 58.134L31.8736 56.8606ZM37.6094 56.8606L36.8166 55.5872L36.8129 55.5896L37.6094 56.8606ZM39.6463 54.4998L38.2974 53.8438L38.2945 53.8498L39.6463 54.4998ZM40.9503 50.6731C40.9503 52.3351 40.6504 53.6879 40.1092 54.7796L42.797 56.1121C43.5854 54.5219 43.9503 52.693 43.9503 50.6731H40.9503ZM40.1092 54.7796C39.5555 55.8965 38.8229 56.711 37.9201 57.2775L39.5146 59.8187C40.9299 58.9307 42.0212 57.677 42.797 56.1121L40.1092 54.7796ZM37.9201 57.2775C37.0208 57.8418 35.9781 58.139 34.7457 58.139V61.139C36.4907 61.139 38.0957 60.709 39.5146 59.8187L37.9201 57.2775ZM34.7457 58.139C33.5134 58.139 32.4707 57.8418 31.5714 57.2775L29.9769 59.8187C31.3958 60.709 33.0008 61.139 34.7457 61.139V58.139ZM31.5714 57.2775C30.6685 56.711 29.936 55.8965 29.3823 54.7796L26.6944 56.1121C27.4703 57.677 28.5616 58.9307 29.9769 59.8187L31.5714 57.2775ZM29.3823 54.7796C28.8411 53.6879 28.5412 52.3351 28.5412 50.6731H25.5412C25.5412 52.693 25.9061 54.5219 26.6944 56.1121L29.3823 54.7796ZM28.5412 50.6731C28.5412 49.0112 28.8411 47.6583 29.3823 46.5667L26.6944 45.2341C25.9061 46.8243 25.5412 48.6532 25.5412 50.6731H28.5412ZM29.3823 46.5667C29.936 45.4497 30.6685 44.6352 31.5714 44.0687L29.9769 41.5275C28.5616 42.4156 27.4703 43.6692 26.6944 45.2341L29.3823 46.5667ZM31.5714 44.0687C32.4707 43.5045 33.5134 43.2072 34.7457 43.2072V40.2072C33.0008 40.2072 31.3958 40.6372 29.9769 41.5275L31.5714 44.0687ZM34.7457 43.2072C35.9781 43.2072 37.0208 43.5045 37.9201 44.0687L39.5146 41.5275C38.0957 40.6372 36.4907 40.2072 34.7457 40.2072V43.2072ZM37.9201 44.0687C38.8229 44.6352 39.5555 45.4497 40.1092 46.5667L42.797 45.2341C42.0212 43.6692 40.9299 42.4156 39.5146 41.5275L37.9201 44.0687ZM40.1092 46.5667C40.6504 47.6583 40.9503 49.0112 40.9503 50.6731H43.9503C43.9503 48.6532 43.5854 46.8243 42.797 45.2341L40.1092 46.5667ZM41.9048 50.6731C41.9048 49.0015 41.626 47.4873 40.9952 46.1904L38.2974 47.5025C38.678 48.285 38.9048 49.322 38.9048 50.6731H41.9048ZM40.9981 46.1964C40.3926 44.9372 39.5347 43.9172 38.4021 43.2122L36.8167 45.759C37.4 46.1222 37.9 46.6761 38.2945 47.4965L40.9981 46.1964ZM38.4059 43.2146C37.3025 42.5231 36.0693 42.1845 34.7457 42.1845V45.1845C35.5358 45.1845 36.2117 45.3799 36.8129 45.7567L38.4059 43.2146ZM34.7457 42.1845C33.4221 42.1845 32.1879 42.5231 31.0809 43.2122L32.6663 45.759C33.2752 45.38 33.9557 45.1845 34.7457 45.1845V42.1845ZM31.0771 43.2146C29.9527 43.9191 29.0975 44.9365 28.4877 46.1904L31.1856 47.5025C31.5871 46.6768 32.0899 46.1203 32.6701 45.7567L31.0771 43.2146ZM28.4848 46.1964C27.8619 47.4917 27.5866 49.0036 27.5866 50.6731H30.5866C30.5866 49.3199 30.8114 48.2807 31.1885 47.4965L28.4848 46.1964ZM27.5866 50.6731C27.5866 52.3426 27.8619 53.8546 28.4848 55.1499L31.1885 53.8498C30.8114 53.0655 30.5866 52.0263 30.5866 50.6731H27.5866ZM28.4877 55.1559C29.0975 56.4097 29.9527 57.4271 31.0771 58.1317L32.6701 55.5896C32.0899 55.226 31.5871 54.6695 31.1856 53.8438L28.4877 55.1559ZM31.0809 58.134C32.1879 58.8232 33.4221 59.1618 34.7457 59.1618V56.1618C33.9557 56.1618 33.2752 55.9663 32.6663 55.5872L31.0809 58.134ZM34.7457 59.1618C36.0693 59.1618 37.3025 58.8231 38.4059 58.1317L36.8129 55.5896C36.2117 55.9663 35.5358 56.1618 34.7457 56.1618V59.1618ZM38.4021 58.134C39.5347 57.429 40.3926 56.409 40.9981 55.1499L38.2945 53.8498C37.9 54.6702 37.4 55.2241 36.8167 55.5872L38.4021 58.134ZM40.9952 55.1559C41.626 53.8589 41.9048 52.3447 41.9048 50.6731H38.9048C38.9048 52.0243 38.678 53.0612 38.2974 53.8438L40.9952 55.1559ZM46.0043 59.4004H44.5043C44.5043 60.2288 45.1758 60.9004 46.0043 60.9004V59.4004ZM46.0043 41.9458V40.4458C45.1758 40.4458 44.5043 41.1174 44.5043 41.9458H46.0043ZM48.1179 41.9458H49.6179C49.6179 41.1174 48.9463 40.4458 48.1179 40.4458V41.9458ZM48.1179 57.5254H46.6179C46.6179 58.3538 47.2895 59.0254 48.1179 59.0254V57.5254ZM56.2315 57.5254H57.7315C57.7315 56.697 57.06 56.0254 56.2315 56.0254V57.5254ZM56.2315 59.4004V60.9004C57.06 60.9004 57.7315 60.2288 57.7315 59.4004H56.2315ZM47.5043 59.4004V41.9458H44.5043V59.4004H47.5043ZM46.0043 43.4458H48.1179V40.4458H46.0043V43.4458ZM46.6179 41.9458V57.5254H49.6179V41.9458H46.6179ZM48.1179 59.0254H56.2315V56.0254H48.1179V59.0254ZM54.7315 57.5254V59.4004H57.7315V57.5254H54.7315ZM56.2315 57.9004H46.0043V60.9004H56.2315V57.9004ZM59.5043 59.4004H58.0043C58.0043 60.2288 58.6758 60.9004 59.5043 60.9004V59.4004ZM59.5043 41.9458V40.4458C58.6758 40.4458 58.0043 41.1174 58.0043 41.9458H59.5043ZM61.6179 41.9458H63.1179C63.1179 41.1174 62.4463 40.4458 61.6179 40.4458V41.9458ZM61.6179 57.5254H60.1179C60.1179 58.3538 60.7895 59.0254 61.6179 59.0254V57.5254ZM69.7315 57.5254H71.2315C71.2315 56.697 70.56 56.0254 69.7315 56.0254V57.5254ZM69.7315 59.4004V60.9004C70.56 60.9004 71.2315 60.2288 71.2315 59.4004H69.7315ZM61.0043 59.4004V41.9458H58.0043V59.4004H61.0043ZM59.5043 43.4458H61.6179V40.4458H59.5043V43.4458ZM60.1179 41.9458V57.5254H63.1179V41.9458H60.1179ZM61.6179 59.0254H69.7315V56.0254H61.6179V59.0254ZM68.2315 57.5254V59.4004H71.2315V57.5254H68.2315ZM69.7315 57.9004H59.5043V60.9004H69.7315V57.9004ZM70.6839 41.9458V40.4458C70.1407 40.4458 69.6399 40.7396 69.3747 41.2138C69.1096 41.688 69.1216 42.2684 69.406 42.7313L70.6839 41.9458ZM73.1044 41.9458L74.394 41.1797C74.1236 40.7247 73.6336 40.4458 73.1044 40.4458V41.9458ZM77.9453 50.0936L76.6558 50.8598C76.9261 51.3147 77.4161 51.5936 77.9453 51.5936V50.0936ZM78.1499 50.0936V51.5936C78.6791 51.5936 79.1691 51.3147 79.4394 50.8598L78.1499 50.0936ZM82.9908 41.9458V40.4458C82.4616 40.4458 81.9715 40.7247 81.7012 41.1797L82.9908 41.9458ZM85.4112 41.9458L86.6891 42.7313C86.9736 42.2684 86.9856 41.688 86.7205 41.2138C86.4553 40.7396 85.9545 40.4458 85.4112 40.4458V41.9458ZM79.1044 52.2072L77.8265 51.4218C77.6813 51.658 77.6044 51.9299 77.6044 52.2072H79.1044ZM79.1044 59.4004V60.9004C79.9328 60.9004 80.6044 60.2288 80.6044 59.4004H79.1044ZM76.9908 59.4004H75.4908C75.4908 60.2288 76.1623 60.9004 76.9908 60.9004V59.4004ZM76.9908 52.2072H78.4908C78.4908 51.9299 78.4139 51.658 78.2687 51.4218L76.9908 52.2072ZM70.6839 43.4458H73.1044V40.4458H70.6839V43.4458ZM71.8148 42.712L76.6558 50.8598L79.2349 49.3274L74.394 41.1797L71.8148 42.712ZM77.9453 51.5936H78.1499V48.5936H77.9453V51.5936ZM79.4394 50.8598L84.2803 42.712L81.7012 41.1797L76.8603 49.3274L79.4394 50.8598ZM82.9908 43.4458H85.4112V40.4458H82.9908V43.4458ZM84.1333 41.1604L77.8265 51.4218L80.3823 52.9926L86.6891 42.7313L84.1333 41.1604ZM77.6044 52.2072V59.4004H80.6044V52.2072H77.6044ZM79.1044 57.9004H76.9908V60.9004H79.1044V57.9004ZM78.4908 59.4004V52.2072H75.4908V59.4004H78.4908ZM78.2687 51.4218L71.9619 41.1604L69.406 42.7313L75.7128 52.9926L78.2687 51.4218ZM91.3153 59.4004L89.8685 59.796C90.0468 60.4481 90.6393 60.9004 91.3153 60.9004V59.4004ZM86.5426 41.9458V40.4458C86.0749 40.4458 85.634 40.664 85.3503 41.0357C85.0665 41.4075 84.9724 41.8904 85.0957 42.3415L86.5426 41.9458ZM88.6903 41.9458L90.1433 41.573C89.9731 40.9097 89.3752 40.4458 88.6903 40.4458V41.9458ZM92.3381 56.1618L90.8851 56.5346C91.0554 57.1979 91.6532 57.6618 92.3381 57.6618V56.1618ZM92.5085 56.1618V57.6618C93.1908 57.6618 93.7872 57.2012 93.9598 56.5411L92.5085 56.1618ZM96.2244 41.9458V40.4458C95.5421 40.4458 94.9457 40.9064 94.7732 41.5665L96.2244 41.9458ZM98.6108 41.9458L100.062 41.5665C99.8895 40.9064 99.2931 40.4458 98.6108 40.4458V41.9458ZM102.327 56.1618L100.875 56.5411C101.048 57.2012 101.644 57.6618 102.327 57.6618V56.1618ZM102.497 56.1618V57.6618C103.182 57.6618 103.78 57.1979 103.95 56.5346L102.497 56.1618ZM106.145 41.9458V40.4458C105.46 40.4458 104.862 40.9097 104.692 41.573L106.145 41.9458ZM108.293 41.9458L109.74 42.3415C109.863 41.8904 109.769 41.4075 109.485 41.0357C109.201 40.664 108.76 40.4458 108.293 40.4458V41.9458ZM103.52 59.4004V60.9004C104.196 60.9004 104.788 60.4481 104.967 59.796L103.52 59.4004ZM101.338 59.4004L99.8925 59.8008C100.072 60.4505 100.664 60.9004 101.338 60.9004V59.4004ZM97.4858 45.4913L98.9314 45.0909C98.7514 44.4412 98.16 43.9913 97.4858 43.9913V45.4913ZM97.3494 45.4913V43.9913C96.6752 43.9913 96.0838 44.4412 95.9039 45.0909L97.3494 45.4913ZM93.4972 59.4004V60.9004C94.1714 60.9004 94.7628 60.4505 94.9427 59.8008L93.4972 59.4004ZM92.7622 59.0048L87.9895 41.5502L85.0957 42.3415L89.8685 59.796L92.7622 59.0048ZM86.5426 43.4458H88.6903V40.4458H86.5426V43.4458ZM87.2374 42.3187L90.8851 56.5346L93.791 55.7889L90.1433 41.573L87.2374 42.3187ZM92.3381 57.6618H92.5085V54.6618H92.3381V57.6618ZM93.9598 56.5411L97.6757 42.3252L94.7732 41.5665L91.0573 55.7824L93.9598 56.5411ZM96.2244 43.4458H98.6108V40.4458H96.2244V43.4458ZM97.1596 42.3252L100.875 56.5411L103.778 55.7824L100.062 41.5665L97.1596 42.3252ZM102.327 57.6618H102.497V54.6618H102.327V57.6618ZM103.95 56.5346L107.598 42.3187L104.692 41.573L101.044 55.7889L103.95 56.5346ZM106.145 43.4458H108.293V40.4458H106.145V43.4458ZM106.846 41.5502L102.073 59.0048L104.967 59.796L109.74 42.3415L106.846 41.5502ZM103.52 57.9004H101.338V60.9004H103.52V57.9004ZM102.784 59L98.9314 45.0909L96.0402 45.8917L99.8925 59.8008L102.784 59ZM97.4858 43.9913H97.3494V46.9913H97.4858V43.9913ZM95.9039 45.0909L92.0516 59L94.9427 59.8008L98.795 45.8917L95.9039 45.0909ZM93.4972 57.9004H91.3153V60.9004H93.4972V57.9004ZM123.836 55.4458L122.492 54.7796V54.7796L123.836 55.4458ZM121.1 58.5481L121.897 59.8187L121.1 58.5481ZM113.157 58.5481L112.36 59.8187L113.157 58.5481ZM110.421 55.4458L111.765 54.7796L110.421 55.4458ZM121.1 42.7981L121.897 41.5275V41.5275L121.1 42.7981ZM123.836 45.9004L122.492 46.5667L123.836 45.9004ZM122.029 46.8464L120.677 47.4965L120.68 47.5025L122.029 46.8464ZM119.992 44.4856L119.196 45.7567L119.199 45.759L119.992 44.4856ZM114.256 44.4856L113.464 43.2122L113.46 43.2146L114.256 44.4856ZM112.219 46.8464L110.871 46.1904L110.868 46.1964L112.219 46.8464ZM112.219 54.4998L110.868 55.1499L110.871 55.1559L112.219 54.4998ZM114.256 56.8606L113.46 58.1317L113.464 58.134L114.256 56.8606ZM119.992 56.8606L119.199 55.5872L119.196 55.5896L119.992 56.8606ZM122.029 54.4998L120.68 53.8438L120.677 53.8498L122.029 54.4998ZM123.333 50.6731C123.333 52.3351 123.033 53.6879 122.492 54.7796L125.18 56.1121C125.968 54.5219 126.333 52.693 126.333 50.6731H123.333ZM122.492 54.7796C121.938 55.8965 121.206 56.711 120.303 57.2775L121.897 59.8187C123.313 58.9307 124.404 57.677 125.18 56.1121L122.492 54.7796ZM120.303 57.2775C119.404 57.8418 118.361 58.139 117.129 58.139V61.139C118.873 61.139 120.478 60.709 121.897 59.8187L120.303 57.2775ZM117.129 58.139C115.896 58.139 114.853 57.8418 113.954 57.2775L112.36 59.8187C113.779 60.709 115.384 61.139 117.129 61.139V58.139ZM113.954 57.2775C113.051 56.711 112.319 55.8965 111.765 54.7796L109.077 56.1121C109.853 57.677 110.944 58.9307 112.36 59.8187L113.954 57.2775ZM111.765 54.7796C111.224 53.6879 110.924 52.3351 110.924 50.6731H107.924C107.924 52.693 108.289 54.5219 109.077 56.1121L111.765 54.7796ZM110.924 50.6731C110.924 49.0112 111.224 47.6583 111.765 46.5667L109.077 45.2341C108.289 46.8243 107.924 48.6532 107.924 50.6731H110.924ZM111.765 46.5667C112.319 45.4497 113.051 44.6352 113.954 44.0687L112.36 41.5275C110.944 42.4156 109.853 43.6692 109.077 45.2341L111.765 46.5667ZM113.954 44.0687C114.853 43.5045 115.896 43.2072 117.129 43.2072V40.2072C115.384 40.2072 113.779 40.6372 112.36 41.5275L113.954 44.0687ZM117.129 43.2072C118.361 43.2072 119.404 43.5045 120.303 44.0687L121.897 41.5275C120.478 40.6372 118.873 40.2072 117.129 40.2072V43.2072ZM120.303 44.0687C121.206 44.6352 121.938 45.4497 122.492 46.5667L125.18 45.2341C124.404 43.6692 123.313 42.4156 121.897 41.5275L120.303 44.0687ZM122.492 46.5667C123.033 47.6583 123.333 49.0112 123.333 50.6731H126.333C126.333 48.6532 125.968 46.8243 125.18 45.2341L122.492 46.5667ZM124.288 50.6731C124.288 49.0015 124.009 47.4873 123.378 46.1904L120.68 47.5025C121.061 48.285 121.288 49.322 121.288 50.6731H124.288ZM123.381 46.1964C122.775 44.9372 121.917 43.9172 120.785 43.2122L119.199 45.759C119.783 46.1222 120.283 46.6761 120.677 47.4965L123.381 46.1964ZM120.789 43.2146C119.685 42.5231 118.452 42.1845 117.129 42.1845V45.1845C117.919 45.1845 118.595 45.3799 119.196 45.7567L120.789 43.2146ZM117.129 42.1845C115.805 42.1845 114.571 42.5231 113.464 43.2122L115.049 45.759C115.658 45.38 116.339 45.1845 117.129 45.1845V42.1845ZM113.46 43.2146C112.336 43.9191 111.48 44.9365 110.871 46.1904L113.568 47.5025C113.97 46.6768 114.473 46.1203 115.053 45.7567L113.46 43.2146ZM110.868 46.1964C110.245 47.4917 109.969 49.0036 109.969 50.6731H112.969C112.969 49.3199 113.194 48.2807 113.571 47.4965L110.868 46.1964ZM109.969 50.6731C109.969 52.3426 110.245 53.8546 110.868 55.1499L113.571 53.8498C113.194 53.0655 112.969 52.0263 112.969 50.6731H109.969ZM110.871 55.1559C111.48 56.4097 112.336 57.4271 113.46 58.1317L115.053 55.5896C114.473 55.226 113.97 54.6695 113.568 53.8438L110.871 55.1559ZM113.464 58.134C114.571 58.8232 115.805 59.1618 117.129 59.1618V56.1618C116.339 56.1618 115.658 55.9663 115.049 55.5872L113.464 58.134ZM117.129 59.1618C118.452 59.1618 119.685 58.8231 120.789 58.1317L119.196 55.5896C118.595 55.9663 117.919 56.1618 117.129 56.1618V59.1618ZM120.785 58.134C121.917 57.429 122.775 56.409 123.381 55.1499L120.677 53.8498C120.283 54.6702 119.783 55.2241 119.199 55.5872L120.785 58.134ZM123.378 55.1559C124.009 53.8589 124.288 52.3447 124.288 50.6731H121.288C121.288 52.0243 121.061 53.0612 120.68 53.8438L123.378 55.1559ZM142.117 55.4458L140.773 54.7796V54.7796L142.117 55.4458ZM139.381 58.5481L140.179 59.8187L139.381 58.5481ZM131.438 58.5481L130.641 59.8187L131.438 58.5481ZM128.702 55.4458L130.046 54.7796L128.702 55.4458ZM139.381 42.7981L140.179 41.5275V41.5275L139.381 42.7981ZM142.117 45.9004L140.773 46.5667L142.117 45.9004ZM140.31 46.8464L138.959 47.4965L138.961 47.5025L140.31 46.8464ZM138.273 44.4856L137.477 45.7567L137.481 45.759L138.273 44.4856ZM132.538 44.4856L131.745 43.2122L131.741 43.2146L132.538 44.4856ZM130.501 46.8464L129.152 46.1904L129.149 46.1964L130.501 46.8464ZM130.501 54.4998L129.149 55.1499L129.152 55.1559L130.501 54.4998ZM132.538 56.8606L131.741 58.1317L131.745 58.134L132.538 56.8606ZM138.273 56.8606L137.481 55.5872L137.477 55.5896L138.273 56.8606ZM140.31 54.4998L138.961 53.8438L138.959 53.8498L140.31 54.4998ZM141.614 50.6731C141.614 52.3351 141.314 53.6879 140.773 54.7796L143.461 56.1121C144.249 54.5219 144.614 52.693 144.614 50.6731H141.614ZM140.773 54.7796C140.22 55.8965 139.487 56.711 138.584 57.2775L140.179 59.8187C141.594 58.9307 142.685 57.677 143.461 56.1121L140.773 54.7796ZM138.584 57.2775C137.685 57.8418 136.642 58.139 135.41 58.139V61.139C137.155 61.139 138.76 60.709 140.179 59.8187L138.584 57.2775ZM135.41 58.139C134.177 58.139 133.135 57.8418 132.235 57.2775L130.641 59.8187C132.06 60.709 133.665 61.139 135.41 61.139V58.139ZM132.235 57.2775C131.333 56.711 130.6 55.8965 130.046 54.7796L127.359 56.1121C128.134 57.677 129.226 58.9307 130.641 59.8187L132.235 57.2775ZM130.046 54.7796C129.505 53.6879 129.205 52.3351 129.205 50.6731H126.205C126.205 52.693 126.57 54.5219 127.359 56.1121L130.046 54.7796ZM129.205 50.6731C129.205 49.0112 129.505 47.6583 130.046 46.5667L127.359 45.2341C126.57 46.8243 126.205 48.6532 126.205 50.6731H129.205ZM130.046 46.5667C130.6 45.4497 131.333 44.6352 132.235 44.0687L130.641 41.5275C129.226 42.4156 128.134 43.6692 127.359 45.2341L130.046 46.5667ZM132.235 44.0687C133.135 43.5045 134.177 43.2072 135.41 43.2072V40.2072C133.665 40.2072 132.06 40.6372 130.641 41.5275L132.235 44.0687ZM135.41 43.2072C136.642 43.2072 137.685 43.5045 138.584 44.0687L140.179 41.5275C138.76 40.6372 137.155 40.2072 135.41 40.2072V43.2072ZM138.584 44.0687C139.487 44.6352 140.22 45.4497 140.773 46.5667L143.461 45.2341C142.685 43.6692 141.594 42.4156 140.179 41.5275L138.584 44.0687ZM140.773 46.5667C141.314 47.6583 141.614 49.0112 141.614 50.6731H144.614C144.614 48.6532 144.249 46.8243 143.461 45.2341L140.773 46.5667ZM142.569 50.6731C142.569 49.0015 142.29 47.4873 141.659 46.1904L138.961 47.5025C139.342 48.285 139.569 49.322 139.569 50.6731H142.569ZM141.662 46.1964C141.057 44.9372 140.199 43.9172 139.066 43.2122L137.481 45.759C138.064 46.1222 138.564 46.6761 138.959 47.4965L141.662 46.1964ZM139.07 43.2146C137.967 42.5231 136.733 42.1845 135.41 42.1845V45.1845C136.2 45.1845 136.876 45.3799 137.477 45.7567L139.07 43.2146ZM135.41 42.1845C134.086 42.1845 132.852 42.5231 131.745 43.2122L133.33 45.759C133.939 45.38 134.62 45.1845 135.41 45.1845V42.1845ZM131.741 43.2146C130.617 43.9191 129.762 44.9365 129.152 46.1904L131.85 47.5025C132.251 46.6768 132.754 46.1203 133.334 45.7567L131.741 43.2146ZM129.149 46.1964C128.526 47.4917 128.251 49.0036 128.251 50.6731H131.251C131.251 49.3199 131.475 48.2807 131.853 47.4965L129.149 46.1964ZM128.251 50.6731C128.251 52.3426 128.526 53.8546 129.149 55.1499L131.853 53.8498C131.475 53.0655 131.251 52.0263 131.251 50.6731H128.251ZM129.152 55.1559C129.762 56.4097 130.617 57.4271 131.741 58.1317L133.334 55.5896C132.754 55.226 132.251 54.6695 131.85 53.8438L129.152 55.1559ZM131.745 58.134C132.852 58.8232 134.086 59.1618 135.41 59.1618V56.1618C134.62 56.1618 133.939 55.9663 133.33 55.5872L131.745 58.134ZM135.41 59.1618C136.733 59.1618 137.967 58.8231 139.07 58.1317L137.477 55.5896C136.876 55.9663 136.2 56.1618 135.41 56.1618V59.1618ZM139.066 58.134C140.199 57.429 141.057 56.409 141.662 55.1499L138.959 53.8498C138.564 54.6702 138.064 55.2241 137.481 55.5872L139.066 58.134ZM141.659 55.1559C142.29 53.8589 142.569 52.3447 142.569 50.6731H139.569C139.569 52.0243 139.342 53.0612 138.961 53.8438L141.659 55.1559ZM146.668 59.4004H145.168C145.168 60.2288 145.84 60.9004 146.668 60.9004V59.4004ZM146.668 41.9458V40.4458C145.84 40.4458 145.168 41.1174 145.168 41.9458H146.668ZM156.64 42.9941L155.887 44.2916L155.892 44.2942L156.64 42.9941ZM159.41 45.9856L158.065 46.6494L158.066 46.6517L159.41 45.9856ZM159.401 55.3351L160.745 56.0012L160.746 55.9989L159.401 55.3351ZM156.572 58.3521L157.309 59.6585L157.313 59.6559L156.572 58.3521ZM148.782 57.5254H147.282C147.282 58.3538 147.954 59.0254 148.782 59.0254V57.5254ZM157.637 46.9998L156.269 47.6154L156.27 47.6182L157.637 46.9998ZM155.575 44.6475L154.8 45.9324L154.806 45.9359L155.575 44.6475ZM148.782 43.8208V42.3208C147.954 42.3208 147.282 42.9924 147.282 43.8208H148.782ZM152.055 57.9004H146.668V60.9004H152.055V57.9004ZM148.168 59.4004V41.9458H145.168V59.4004H148.168ZM146.668 43.4458H152.293V40.4458H146.668V43.4458ZM152.293 43.4458C153.779 43.4458 154.956 43.7513 155.887 44.2916L157.393 41.6967C155.915 40.8392 154.194 40.4458 152.293 40.4458V43.4458ZM155.892 44.2942C156.827 44.8324 157.548 45.6024 158.065 46.6494L160.755 45.3219C159.987 43.7665 158.862 42.5422 157.388 41.694L155.892 44.2942ZM158.066 46.6517C158.583 47.695 158.873 49.007 158.873 50.639H161.873C161.873 48.6575 161.521 46.8672 160.754 45.3195L158.066 46.6517ZM158.873 50.639C158.873 52.2815 158.58 53.6091 158.056 54.6712L160.746 55.9989C161.518 54.436 161.873 52.6329 161.873 50.639H158.873ZM158.057 54.6689C157.539 55.7146 156.802 56.4952 155.83 57.0483L157.313 59.6559C158.818 58.7999 159.968 57.5691 160.745 56.0012L158.057 54.6689ZM155.835 57.0457C154.87 57.59 153.632 57.9004 152.055 57.9004V60.9004C154.023 60.9004 155.796 60.5119 157.309 59.6585L155.835 57.0457ZM148.782 59.0254H151.918V56.0254H148.782V59.0254ZM151.918 59.0254C153.547 59.0254 155.025 58.7116 156.266 57.9839L154.747 55.3965C154.09 55.7824 153.176 56.0254 151.918 56.0254V59.0254ZM156.266 57.9839C157.489 57.2659 158.405 56.234 158.995 54.9313L156.262 53.6933C155.921 54.4474 155.421 55.0008 154.747 55.3965L156.266 57.9839ZM158.995 54.9313C159.569 53.6651 159.827 52.2196 159.827 50.639H156.827C156.827 51.8994 156.62 52.9028 156.262 53.6933L158.995 54.9313ZM159.827 50.639C159.827 49.0708 159.572 47.6367 159.004 46.3814L156.27 47.6182C156.623 48.3971 156.827 49.3891 156.827 50.639H159.827ZM159.005 46.3843C158.426 45.0969 157.536 44.0708 156.343 43.3592L154.806 45.9359C155.443 46.3152 155.928 46.8573 156.269 47.6154L159.005 46.3843ZM156.349 43.3627C155.144 42.6368 153.719 42.3208 152.157 42.3208V45.3208C153.322 45.3208 154.176 45.556 154.8 45.9324L156.349 43.3627ZM152.157 42.3208H148.782V45.3208H152.157V42.3208ZM147.282 43.8208V57.5254H150.282V43.8208H147.282Z" fill="#C42927"/>
<path d="M12.1136 59.4004H11.6136C11.6136 59.6765 11.8375 59.9004 12.1136 59.9004V59.4004ZM12.1136 41.9458V41.4458C11.8375 41.4458 11.6136 41.6697 11.6136 41.9458H12.1136ZM21.2244 42.5765L20.9895 43.0179L20.992 43.0192L21.2244 42.5765ZM22.9886 44.2555L22.5502 44.4959L22.5511 44.4974L22.9886 44.2555ZM23.1676 48.4402L22.7288 48.2004L22.7267 48.2043L23.1676 48.4402ZM22.1278 49.5993L21.853 49.1815L21.8505 49.1832L22.1278 49.5993ZM20.7386 50.2299L20.6071 49.7476C20.3895 49.8069 20.2386 50.0045 20.2386 50.2299H20.7386ZM20.7386 50.4004H20.2386C20.2386 50.6642 20.4435 50.8826 20.7068 50.8994L20.7386 50.4004ZM22.3494 50.9629L22.0824 51.3856H22.0824L22.3494 50.9629ZM23.6534 57.1248L24.088 57.3721V57.3721L23.6534 57.1248ZM21.7699 58.7868L21.5547 58.3354L21.7699 58.7868ZM14.2273 57.5254H13.7273C13.7273 57.8015 13.9511 58.0254 14.2273 58.0254V57.5254ZM21.3608 56.7243L21.6996 57.0919L21.6998 57.0918L21.3608 56.7243ZM21.7869 53.1277L21.3573 53.3835L21.3586 53.3856L21.7869 53.1277ZM20.5 51.9174L20.2587 52.3554L20.2621 52.3572L20.5 51.9174ZM14.2273 51.4572V50.9572C13.9511 50.9572 13.7273 51.1811 13.7273 51.4572H14.2273ZM14.2273 49.6163H13.7273C13.7273 49.8924 13.9511 50.1163 14.2273 50.1163V49.6163ZM19.8693 49.2413L19.6517 48.7912L19.6497 48.7921L19.8693 49.2413ZM21.0966 48.1845L20.6822 47.9047L20.6798 47.9083L21.0966 48.1845ZM20.7557 44.6305L20.4003 44.9822L20.4021 44.9841L20.7557 44.6305ZM14.2273 43.8208V43.3208C13.9511 43.3208 13.7273 43.5447 13.7273 43.8208H14.2273ZM12.6136 59.4004V41.9458H11.6136V59.4004H12.6136ZM12.1136 42.4458H18.2159V41.4458H12.1136V42.4458ZM18.2159 42.4458C19.3779 42.4458 20.2933 42.6473 20.9895 43.0179L21.4594 42.1352C20.576 41.6649 19.4857 41.4458 18.2159 41.4458V42.4458ZM20.992 43.0192C21.7046 43.3935 22.2163 43.8869 22.5502 44.4959L23.427 44.0151C22.9883 43.215 22.3238 42.5891 21.4569 42.1339L20.992 43.0192ZM22.5511 44.4974C22.8937 45.1172 23.0682 45.8087 23.0682 46.5822H24.0682C24.0682 45.6512 23.8563 44.7915 23.4262 44.0136L22.5511 44.4974ZM23.0682 46.5822C23.0682 47.2763 22.9442 47.8064 22.7289 48.2004L23.6064 48.6799C23.9251 48.0967 24.0682 47.3881 24.0682 46.5822H23.0682ZM22.7267 48.2043C22.5018 48.6249 22.2102 48.9466 21.853 49.1815L22.4026 50.017C22.9091 49.6838 23.3107 49.2327 23.6085 48.676L22.7267 48.2043ZM21.8505 49.1832C21.4696 49.4372 21.0559 49.6252 20.6071 49.7476L20.8702 50.7123C21.4214 50.562 21.9338 50.3295 22.4052 50.0153L21.8505 49.1832ZM20.2386 50.2299V50.4004H21.2386V50.2299H20.2386ZM20.7068 50.8994C21.1426 50.9272 21.5998 51.0808 22.0824 51.3856L22.6164 50.5401C22.0195 50.1631 21.4028 49.9418 20.7705 49.9014L20.7068 50.8994ZM22.0824 51.3856C22.5434 51.6768 22.9413 52.1009 23.2704 52.6769L24.1387 52.1807C23.7405 51.4839 23.235 50.9308 22.6164 50.5401L22.0824 51.3856ZM23.2704 52.6769C23.5812 53.2207 23.75 53.9086 23.75 54.764H24.75C24.75 53.7785 24.5552 52.9097 24.1387 52.1807L23.2704 52.6769ZM23.75 54.764C23.75 55.5602 23.57 56.2606 23.2189 56.8775L24.088 57.3721C24.5323 56.5913 24.75 55.7179 24.75 54.764H23.75ZM23.2189 56.8775C22.8804 57.4723 22.3376 57.9621 21.5547 58.3354L21.9851 59.2381C22.9181 58.7932 23.631 58.1751 24.088 57.3721L23.2189 56.8775ZM21.5547 58.3354C20.7871 58.7014 19.7518 58.9004 18.4205 58.9004V59.9004C19.8391 59.9004 21.0368 59.6902 21.9851 59.2381L21.5547 58.3354ZM18.4205 58.9004H12.1136V59.9004H18.4205V58.9004ZM14.2273 58.0254H18.4205V57.0254H14.2273V58.0254ZM18.4205 58.0254C19.8404 58.0254 20.9795 57.7556 21.6996 57.0919L21.022 56.3566C20.583 56.7611 19.7619 57.0254 18.4205 57.0254V58.0254ZM21.6998 57.0918C22.3832 56.4614 22.7386 55.6766 22.7386 54.764H21.7386C21.7386 55.3856 21.5088 55.9075 21.0218 56.3567L21.6998 57.0918ZM22.7386 54.764C22.7386 54.0834 22.5639 53.4486 22.2152 52.8697L21.3586 53.3856C21.6122 53.8067 21.7386 54.2628 21.7386 54.764H22.7386ZM22.2165 52.8718C21.8658 52.2828 21.3678 51.8183 20.7379 51.4776L20.2621 52.3572C20.7458 52.6188 21.1058 52.9612 21.3573 53.3835L22.2165 52.8718ZM20.7413 51.4795C20.0973 51.1246 19.3518 50.9572 18.5227 50.9572V51.9572C19.2163 51.9572 19.7891 52.0966 20.2587 52.3554L20.7413 51.4795ZM18.5227 50.9572H14.2273V51.9572H18.5227V50.9572ZM13.7273 51.4572V57.5254H14.7273V51.4572H13.7273ZM14.2273 50.1163H18.1477V49.1163H14.2273V50.1163ZM18.1477 50.1163C18.8511 50.1163 19.5015 49.9777 20.0889 49.6905L19.6497 48.7921C19.2144 49.0049 18.717 49.1163 18.1477 49.1163V50.1163ZM20.087 49.6914C20.6803 49.4045 21.16 48.994 21.5134 48.4606L20.6798 47.9083C20.4309 48.284 20.0924 48.5781 19.6517 48.7912L20.087 49.6914ZM21.511 48.4642C21.8801 47.9174 22.0568 47.2832 22.0568 46.5822H21.0568C21.0568 47.1085 20.9267 47.5425 20.6822 47.9047L21.511 48.4642ZM22.0568 46.5822C22.0568 45.6849 21.7387 44.9064 21.1092 44.277L20.4021 44.9841C20.8408 45.4228 21.0568 45.9455 21.0568 46.5822H22.0568ZM21.1111 44.2788C20.4437 43.6043 19.4394 43.3208 18.2159 43.3208V44.3208C19.3106 44.3208 19.9995 44.5772 20.4003 44.9822L21.1111 44.2788ZM18.2159 43.3208H14.2273V44.3208H18.2159V43.3208ZM13.7273 43.8208V49.6163H14.7273V43.8208H13.7273ZM41.4531 55.4458L41.0052 55.2238L41.4531 55.4458ZM38.7173 58.5481L38.9831 58.9716L38.7173 58.5481ZM30.7741 58.5481L30.5084 58.9716L30.7741 58.5481ZM28.0384 55.4458L28.4863 55.2238L28.0384 55.4458ZM38.7173 42.7981L38.9831 42.3746L38.7173 42.7981ZM41.4531 45.9004L41.0052 46.1225L41.4531 45.9004ZM39.6463 46.8464L39.1957 47.0631L39.1967 47.0651L39.6463 46.8464ZM37.6094 44.4856L37.3439 44.9093L37.3451 44.9101L37.6094 44.4856ZM31.8736 44.4856L31.6093 44.0611L31.6081 44.0619L31.8736 44.4856ZM29.8366 46.8464L29.387 46.6277L29.386 46.6297L29.8366 46.8464ZM29.8366 54.4998L29.386 54.7165L29.387 54.7185L29.8366 54.4998ZM31.8736 56.8606L31.6081 57.2843L31.6093 57.2851L31.8736 56.8606ZM37.6094 56.8606L37.3451 56.4361L37.3439 56.4369L37.6094 56.8606ZM39.6463 54.4998L39.1967 54.2811L39.1957 54.2831L39.6463 54.4998ZM41.9503 50.6731C41.9503 52.4544 41.6287 53.9659 41.0052 55.2238L41.9011 55.6679C42.6071 54.2439 42.9503 52.5737 42.9503 50.6731H41.9503ZM41.0052 55.2238C40.3774 56.49 39.5253 57.4509 38.4516 58.1246L38.9831 58.9716C40.2276 58.1908 41.1993 57.0835 41.9011 55.6679L41.0052 55.2238ZM38.4516 58.1246C37.3791 58.7975 36.1489 59.139 34.7457 59.139V60.139C36.3198 60.139 37.7374 59.7533 38.9831 58.9716L38.4516 58.1246ZM34.7457 59.139C33.3425 59.139 32.1124 58.7975 31.0399 58.1246L30.5084 58.9716C31.7541 59.7533 33.1717 60.139 34.7457 60.139V59.139ZM31.0399 58.1246C29.9662 57.4509 29.1141 56.49 28.4863 55.2238L27.5904 55.6679C28.2922 57.0835 29.2639 58.1908 30.5084 58.9716L31.0399 58.1246ZM28.4863 55.2238C27.8627 53.9659 27.5412 52.4544 27.5412 50.6731H26.5412C26.5412 52.5737 26.8844 54.2439 27.5904 55.6679L28.4863 55.2238ZM27.5412 50.6731C27.5412 48.8919 27.8627 47.3803 28.4863 46.1225L27.5904 45.6783C26.8844 47.1023 26.5412 48.7726 26.5412 50.6731H27.5412ZM28.4863 46.1225C29.1141 44.8562 29.9662 43.8953 31.0399 43.2216L30.5084 42.3746C29.2639 43.1555 28.2922 44.2627 27.5904 45.6783L28.4863 46.1225ZM31.0399 43.2216C32.1124 42.5487 33.3425 42.2072 34.7457 42.2072V41.2072C33.1717 41.2072 31.7541 41.593 30.5084 42.3746L31.0399 43.2216ZM34.7457 42.2072C36.1489 42.2072 37.3791 42.5487 38.4516 43.2216L38.9831 42.3746C37.7374 41.593 36.3198 41.2072 34.7457 41.2072V42.2072ZM38.4516 43.2216C39.5253 43.8953 40.3774 44.8562 41.0052 46.1225L41.9011 45.6783C41.1993 44.2627 40.2276 43.1555 38.9831 42.3746L38.4516 43.2216ZM41.0052 46.1225C41.6287 47.3803 41.9503 48.8919 41.9503 50.6731H42.9503C42.9503 48.7726 42.6071 47.1023 41.9011 45.6783L41.0052 46.1225ZM40.9048 50.6731C40.9048 49.1083 40.6433 47.7532 40.096 46.6277L39.1967 47.0651C39.6607 48.0191 39.9048 49.2152 39.9048 50.6731H40.9048ZM40.0969 46.6297C39.5618 45.5168 38.8231 44.6522 37.8736 44.0611L37.3451 44.9101C38.1115 45.3872 38.7309 46.0965 39.1957 47.0631L40.0969 46.6297ZM37.8749 44.0619C36.9389 43.4754 35.8915 43.1845 34.7457 43.1845V44.1845C35.7136 44.1845 36.5753 44.4277 37.3439 44.9093L37.8749 44.0619ZM34.7457 43.1845C33.6 43.1845 32.5503 43.4754 31.6093 44.0611L32.1378 44.9101C32.9128 44.4277 33.7778 44.1845 34.7457 44.1845V43.1845ZM31.6081 44.0619C30.6651 44.6529 29.9274 45.5166 29.387 46.6277L30.2863 47.0651C30.7573 46.0967 31.3775 45.3866 32.1391 44.9093L31.6081 44.0619ZM29.386 46.6297C28.8451 47.7547 28.5866 49.109 28.5866 50.6731H29.5866C29.5866 49.2145 29.8282 48.0177 30.2873 47.0631L29.386 46.6297ZM28.5866 50.6731C28.5866 52.2372 28.8451 53.5916 29.386 54.7165L30.2873 54.2831C29.8282 53.3285 29.5866 52.1318 29.5866 50.6731H28.5866ZM29.387 54.7185C29.9274 55.8296 30.6651 56.6934 31.6081 57.2843L32.1391 56.4369C31.3775 55.9597 30.7573 55.2496 30.2863 54.2811L29.387 54.7185ZM31.6093 57.2851C32.5503 57.8709 33.6 58.1618 34.7457 58.1618V57.1618C33.7778 57.1618 32.9128 56.9186 32.1378 56.4361L31.6093 57.2851ZM34.7457 58.1618C35.8915 58.1618 36.9389 57.8708 37.8749 57.2843L37.3439 56.4369C36.5753 56.9186 35.7136 57.1618 34.7457 57.1618V58.1618ZM37.8736 57.2851C38.8231 56.694 39.5618 55.8294 40.0969 54.7165L39.1957 54.2831C38.7309 55.2498 38.1115 55.959 37.3451 56.4361L37.8736 57.2851ZM40.096 54.7185C40.6433 53.593 40.9048 52.2379 40.9048 50.6731H39.9048C39.9048 52.1311 39.6607 53.3271 39.1967 54.2811L40.096 54.7185ZM46.0043 59.4004H45.5043C45.5043 59.6765 45.7281 59.9004 46.0043 59.9004V59.4004ZM46.0043 41.9458V41.4458C45.7281 41.4458 45.5043 41.6697 45.5043 41.9458H46.0043ZM48.1179 41.9458H48.6179C48.6179 41.6697 48.394 41.4458 48.1179 41.4458V41.9458ZM48.1179 57.5254H47.6179C47.6179 57.8015 47.8418 58.0254 48.1179 58.0254V57.5254ZM56.2315 57.5254H56.7315C56.7315 57.2492 56.5077 57.0254 56.2315 57.0254V57.5254ZM56.2315 59.4004V59.9004C56.5077 59.9004 56.7315 59.6765 56.7315 59.4004H56.2315ZM46.5043 59.4004V41.9458H45.5043V59.4004H46.5043ZM46.0043 42.4458H48.1179V41.4458H46.0043V42.4458ZM47.6179 41.9458V57.5254H48.6179V41.9458H47.6179ZM48.1179 58.0254H56.2315V57.0254H48.1179V58.0254ZM55.7315 57.5254V59.4004H56.7315V57.5254H55.7315ZM56.2315 58.9004H46.0043V59.9004H56.2315V58.9004ZM59.5043 59.4004H59.0043C59.0043 59.6765 59.2281 59.9004 59.5043 59.9004V59.4004ZM59.5043 41.9458V41.4458C59.2281 41.4458 59.0043 41.6697 59.0043 41.9458H59.5043ZM61.6179 41.9458H62.1179C62.1179 41.6697 61.894 41.4458 61.6179 41.4458V41.9458ZM61.6179 57.5254H61.1179C61.1179 57.8015 61.3418 58.0254 61.6179 58.0254V57.5254ZM69.7315 57.5254H70.2315C70.2315 57.2492 70.0077 57.0254 69.7315 57.0254V57.5254ZM69.7315 59.4004V59.9004C70.0077 59.9004 70.2315 59.6765 70.2315 59.4004H69.7315ZM60.0043 59.4004V41.9458H59.0043V59.4004H60.0043ZM59.5043 42.4458H61.6179V41.4458H59.5043V42.4458ZM61.1179 41.9458V57.5254H62.1179V41.9458H61.1179ZM61.6179 58.0254H69.7315V57.0254H61.6179V58.0254ZM69.2315 57.5254V59.4004H70.2315V57.5254H69.2315ZM69.7315 58.9004H59.5043V59.9004H69.7315V58.9004ZM70.6839 41.9458V41.4458C70.5029 41.4458 70.3359 41.5438 70.2475 41.7018C70.1592 41.8599 70.1632 42.0534 70.258 42.2077L70.6839 41.9458ZM73.1044 41.9458L73.5343 41.6905C73.4442 41.5388 73.2808 41.4458 73.1044 41.4458V41.9458ZM77.9453 50.0936L77.5155 50.349C77.6056 50.5006 77.7689 50.5936 77.9453 50.5936V50.0936ZM78.1499 50.0936V50.5936C78.3263 50.5936 78.4896 50.5006 78.5797 50.349L78.1499 50.0936ZM82.9908 41.9458V41.4458C82.8144 41.4458 82.651 41.5388 82.5609 41.6905L82.9908 41.9458ZM85.4112 41.9458L85.8372 42.2077C85.932 42.0534 85.936 41.8599 85.8476 41.7018C85.7592 41.5438 85.5923 41.4458 85.4112 41.4458V41.9458ZM79.1044 52.2072L78.6784 51.9454C78.63 52.0241 78.6044 52.1148 78.6044 52.2072H79.1044ZM79.1044 59.4004V59.9004C79.3805 59.9004 79.6044 59.6765 79.6044 59.4004H79.1044ZM76.9908 59.4004H76.4908C76.4908 59.6765 76.7146 59.9004 76.9908 59.9004V59.4004ZM76.9908 52.2072H77.4908C77.4908 52.1148 77.4651 52.0241 77.4167 51.9454L76.9908 52.2072ZM70.6839 42.4458H73.1044V41.4458H70.6839V42.4458ZM72.6745 42.2012L77.5155 50.349L78.3752 49.8382L73.5343 41.6905L72.6745 42.2012ZM77.9453 50.5936H78.1499V49.5936H77.9453V50.5936ZM78.5797 50.349L83.4206 42.2012L82.5609 41.6905L77.72 49.8382L78.5797 50.349ZM82.9908 42.4458H85.4112V41.4458H82.9908V42.4458ZM84.9852 41.684L78.6784 51.9454L79.5304 52.469L85.8372 42.2077L84.9852 41.684ZM78.6044 52.2072V59.4004H79.6044V52.2072H78.6044ZM79.1044 58.9004H76.9908V59.9004H79.1044V58.9004ZM77.4908 59.4004V52.2072H76.4908V59.4004H77.4908ZM77.4167 51.9454L71.1099 41.684L70.258 42.2077L76.5648 52.469L77.4167 51.9454ZM91.3153 59.4004L90.833 59.5323C90.8925 59.7496 91.09 59.9004 91.3153 59.9004V59.4004ZM86.5426 41.9458V41.4458C86.3867 41.4458 86.2397 41.5186 86.1452 41.6425C86.0506 41.7664 86.0192 41.9273 86.0603 42.0777L86.5426 41.9458ZM88.6903 41.9458L89.1747 41.8216C89.1179 41.6005 88.9186 41.4458 88.6903 41.4458V41.9458ZM92.3381 56.1618L91.8538 56.286C91.9105 56.5071 92.1098 56.6618 92.3381 56.6618V56.1618ZM92.5085 56.1618V56.6618C92.736 56.6618 92.9348 56.5083 92.9923 56.2882L92.5085 56.1618ZM96.2244 41.9458V41.4458C95.997 41.4458 95.7982 41.5993 95.7407 41.8194L96.2244 41.9458ZM98.6108 41.9458L99.0945 41.8194C99.037 41.5993 98.8382 41.4458 98.6108 41.4458V41.9458ZM102.327 56.1618L101.843 56.2882C101.9 56.5083 102.099 56.6618 102.327 56.6618V56.1618ZM102.497 56.1618V56.6618C102.725 56.6618 102.925 56.5071 102.981 56.286L102.497 56.1618ZM106.145 41.9458V41.4458C105.917 41.4458 105.717 41.6005 105.661 41.8216L106.145 41.9458ZM108.293 41.9458L108.775 42.0777C108.816 41.9273 108.785 41.7664 108.69 41.6425C108.595 41.5186 108.449 41.4458 108.293 41.4458V41.9458ZM103.52 59.4004V59.9004C103.745 59.9004 103.943 59.7496 104.002 59.5323L103.52 59.4004ZM101.338 59.4004L100.856 59.5338C100.916 59.7504 101.113 59.9004 101.338 59.9004V59.4004ZM97.4858 45.4913L97.9677 45.3578C97.9077 45.1413 97.7105 44.9913 97.4858 44.9913V45.4913ZM97.3494 45.4913V44.9913C97.1247 44.9913 96.9276 45.1413 96.8676 45.3578L97.3494 45.4913ZM93.4972 59.4004V59.9004C93.7219 59.9004 93.919 59.7504 93.979 59.5338L93.4972 59.4004ZM91.7976 59.2685L87.0249 41.814L86.0603 42.0777L90.833 59.5323L91.7976 59.2685ZM86.5426 42.4458H88.6903V41.4458H86.5426V42.4458ZM88.206 42.0701L91.8538 56.286L92.8224 56.0375L89.1747 41.8216L88.206 42.0701ZM92.3381 56.6618H92.5085V55.6618H92.3381V56.6618ZM92.9923 56.2882L96.7082 42.0723L95.7407 41.8194L92.0248 56.0353L92.9923 56.2882ZM96.2244 42.4458H98.6108V41.4458H96.2244V42.4458ZM98.1271 42.0723L101.843 56.2882L102.81 56.0353L99.0945 41.8194L98.1271 42.0723ZM102.327 56.6618H102.497V55.6618H102.327V56.6618ZM102.981 56.286L106.629 42.0701L105.661 41.8216L102.013 56.0375L102.981 56.286ZM106.145 42.4458H108.293V41.4458H106.145V42.4458ZM107.81 41.814L103.038 59.2685L104.002 59.5323L108.775 42.0777L107.81 41.814ZM103.52 58.9004H101.338V59.9004H103.52V58.9004ZM101.82 59.2669L97.9677 45.3578L97.0039 45.6248L100.856 59.5338L101.82 59.2669ZM97.4858 44.9913H97.3494V45.9913H97.4858V44.9913ZM96.8676 45.3578L93.0153 59.2669L93.979 59.5338L97.8313 45.6248L96.8676 45.3578ZM93.4972 58.9004H91.3153V59.9004H93.4972V58.9004ZM123.836 55.4458L123.388 55.2238L123.836 55.4458ZM121.1 58.5481L121.366 58.9716L121.1 58.5481ZM113.157 58.5481L112.891 58.9716L113.157 58.5481ZM110.421 55.4458L110.869 55.2238L110.421 55.4458ZM121.1 42.7981L121.366 42.3746L121.1 42.7981ZM123.836 45.9004L123.388 46.1225L123.836 45.9004ZM122.029 46.8464L121.579 47.0631L121.579 47.0651L122.029 46.8464ZM119.992 44.4856L119.727 44.9093L119.728 44.9101L119.992 44.4856ZM114.256 44.4856L113.992 44.0611L113.991 44.0619L114.256 44.4856ZM112.219 46.8464L111.77 46.6277L111.769 46.6297L112.219 46.8464ZM112.219 54.4998L111.769 54.7165L111.77 54.7185L112.219 54.4998ZM114.256 56.8606L113.991 57.2843L113.992 57.2851L114.256 56.8606ZM119.992 56.8606L119.728 56.4361L119.727 56.4369L119.992 56.8606ZM122.029 54.4998L121.579 54.2811L121.579 54.2831L122.029 54.4998ZM124.333 50.6731C124.333 52.4544 124.012 53.9659 123.388 55.2238L124.284 55.6679C124.99 54.2439 125.333 52.5737 125.333 50.6731H124.333ZM123.388 55.2238C122.76 56.49 121.908 57.4509 120.834 58.1246L121.366 58.9716C122.61 58.1908 123.582 57.0835 124.284 55.6679L123.388 55.2238ZM120.834 58.1246C119.762 58.7975 118.532 59.139 117.129 59.139V60.139C118.703 60.139 120.12 59.7533 121.366 58.9716L120.834 58.1246ZM117.129 59.139C115.725 59.139 114.495 58.7975 113.423 58.1246L112.891 58.9716C114.137 59.7533 115.554 60.139 117.129 60.139V59.139ZM113.423 58.1246C112.349 57.4509 111.497 56.49 110.869 55.2238L109.973 55.6679C110.675 57.0835 111.647 58.1908 112.891 58.9716L113.423 58.1246ZM110.869 55.2238C110.246 53.9659 109.924 52.4544 109.924 50.6731H108.924C108.924 52.5737 109.267 54.2439 109.973 55.6679L110.869 55.2238ZM109.924 50.6731C109.924 48.8919 110.246 47.3803 110.869 46.1225L109.973 45.6783C109.267 47.1023 108.924 48.7726 108.924 50.6731H109.924ZM110.869 46.1225C111.497 44.8562 112.349 43.8953 113.423 43.2216L112.891 42.3746C111.647 43.1555 110.675 44.2627 109.973 45.6783L110.869 46.1225ZM113.423 43.2216C114.495 42.5487 115.725 42.2072 117.129 42.2072V41.2072C115.554 41.2072 114.137 41.593 112.891 42.3746L113.423 43.2216ZM117.129 42.2072C118.532 42.2072 119.762 42.5487 120.834 43.2216L121.366 42.3746C120.12 41.593 118.703 41.2072 117.129 41.2072V42.2072ZM120.834 43.2216C121.908 43.8953 122.76 44.8562 123.388 46.1225L124.284 45.6783C123.582 44.2627 122.61 43.1555 121.366 42.3746L120.834 43.2216ZM123.388 46.1225C124.012 47.3803 124.333 48.8919 124.333 50.6731H125.333C125.333 48.7726 124.99 47.1023 124.284 45.6783L123.388 46.1225ZM123.288 50.6731C123.288 49.1083 123.026 47.7532 122.479 46.6277L121.579 47.0651C122.043 48.0191 122.288 49.2152 122.288 50.6731H123.288ZM122.48 46.6297C121.945 45.5168 121.206 44.6522 120.256 44.0611L119.728 44.9101C120.494 45.3872 121.114 46.0965 121.579 47.0631L122.48 46.6297ZM120.258 44.0619C119.322 43.4754 118.274 43.1845 117.129 43.1845V44.1845C118.096 44.1845 118.958 44.4277 119.727 44.9093L120.258 44.0619ZM117.129 43.1845C115.983 43.1845 114.933 43.4754 113.992 44.0611L114.521 44.9101C115.296 44.4277 116.161 44.1845 117.129 44.1845V43.1845ZM113.991 44.0619C113.048 44.6529 112.31 45.5166 111.77 46.6277L112.669 47.0651C113.14 46.0967 113.76 45.3866 114.522 44.9093L113.991 44.0619ZM111.769 46.6297C111.228 47.7547 110.969 49.109 110.969 50.6731H111.969C111.969 49.2145 112.211 48.0177 112.67 47.0631L111.769 46.6297ZM110.969 50.6731C110.969 52.2372 111.228 53.5916 111.769 54.7165L112.67 54.2831C112.211 53.3285 111.969 52.1318 111.969 50.6731H110.969ZM111.77 54.7185C112.31 55.8296 113.048 56.6934 113.991 57.2843L114.522 56.4369C113.76 55.9597 113.14 55.2496 112.669 54.2811L111.77 54.7185ZM113.992 57.2851C114.933 57.8709 115.983 58.1618 117.129 58.1618V57.1618C116.161 57.1618 115.296 56.9186 114.521 56.4361L113.992 57.2851ZM117.129 58.1618C118.274 58.1618 119.322 57.8708 120.258 57.2843L119.727 56.4369C118.958 56.9186 118.096 57.1618 117.129 57.1618V58.1618ZM120.256 57.2851C121.206 56.694 121.945 55.8294 122.48 54.7165L121.579 54.2831C121.114 55.2498 120.494 55.959 119.728 56.4361L120.256 57.2851ZM122.479 54.7185C123.026 53.593 123.288 52.2379 123.288 50.6731H122.288C122.288 52.1311 122.043 53.3271 121.579 54.2811L122.479 54.7185ZM142.117 55.4458L141.669 55.2238L142.117 55.4458ZM139.381 58.5481L139.647 58.9716L139.381 58.5481ZM131.438 58.5481L131.172 58.9716L131.438 58.5481ZM128.702 55.4458L129.15 55.2238L128.702 55.4458ZM139.381 42.7981L139.647 42.3746L139.381 42.7981ZM142.117 45.9004L141.669 46.1225L142.117 45.9004ZM140.31 46.8464L139.86 47.0631L139.861 47.0651L140.31 46.8464ZM138.273 44.4856L138.008 44.9093L138.009 44.9101L138.273 44.4856ZM132.538 44.4856L132.273 44.0611L132.272 44.0619L132.538 44.4856ZM130.501 46.8464L130.051 46.6277L130.05 46.6297L130.501 46.8464ZM130.501 54.4998L130.05 54.7165L130.051 54.7185L130.501 54.4998ZM132.538 56.8606L132.272 57.2843L132.273 57.2851L132.538 56.8606ZM138.273 56.8606L138.009 56.4361L138.008 56.4369L138.273 56.8606ZM140.31 54.4998L139.861 54.2811L139.86 54.2831L140.31 54.4998ZM142.614 50.6731C142.614 52.4544 142.293 53.9659 141.669 55.2238L142.565 55.6679C143.271 54.2439 143.614 52.5737 143.614 50.6731H142.614ZM141.669 55.2238C141.041 56.49 140.189 57.4509 139.116 58.1246L139.647 58.9716C140.892 58.1908 141.863 57.0835 142.565 55.6679L141.669 55.2238ZM139.116 58.1246C138.043 58.7975 136.813 59.139 135.41 59.139V60.139C136.984 60.139 138.401 59.7533 139.647 58.9716L139.116 58.1246ZM135.41 59.139C134.007 59.139 132.776 58.7975 131.704 58.1246L131.172 58.9716C132.418 59.7533 133.836 60.139 135.41 60.139V59.139ZM131.704 58.1246C130.63 57.4509 129.778 56.49 129.15 55.2238L128.254 55.6679C128.956 57.0835 129.928 58.1908 131.172 58.9716L131.704 58.1246ZM129.15 55.2238C128.527 53.9659 128.205 52.4544 128.205 50.6731H127.205C127.205 52.5737 127.548 54.2439 128.254 55.6679L129.15 55.2238ZM128.205 50.6731C128.205 48.8919 128.527 47.3803 129.15 46.1225L128.254 45.6783C127.548 47.1023 127.205 48.7726 127.205 50.6731H128.205ZM129.15 46.1225C129.778 44.8562 130.63 43.8953 131.704 43.2216L131.172 42.3746C129.928 43.1555 128.956 44.2627 128.254 45.6783L129.15 46.1225ZM131.704 43.2216C132.776 42.5487 134.007 42.2072 135.41 42.2072V41.2072C133.836 41.2072 132.418 41.593 131.172 42.3746L131.704 43.2216ZM135.41 42.2072C136.813 42.2072 138.043 42.5487 139.116 43.2216L139.647 42.3746C138.401 41.593 136.984 41.2072 135.41 41.2072V42.2072ZM139.116 43.2216C140.189 43.8953 141.041 44.8562 141.669 46.1225L142.565 45.6783C141.863 44.2627 140.892 43.1555 139.647 42.3746L139.116 43.2216ZM141.669 46.1225C142.293 47.3803 142.614 48.8919 142.614 50.6731H143.614C143.614 48.7726 143.271 47.1023 142.565 45.6783L141.669 46.1225ZM141.569 50.6731C141.569 49.1083 141.307 47.7532 140.76 46.6277L139.861 47.0651C140.325 48.0191 140.569 49.2152 140.569 50.6731H141.569ZM140.761 46.6297C140.226 45.5168 139.487 44.6522 138.538 44.0611L138.009 44.9101C138.776 45.3872 139.395 46.0965 139.86 47.0631L140.761 46.6297ZM138.539 44.0619C137.603 43.4754 136.556 43.1845 135.41 43.1845V44.1845C136.378 44.1845 137.239 44.4277 138.008 44.9093L138.539 44.0619ZM135.41 43.1845C134.264 43.1845 133.214 43.4754 132.273 44.0611L132.802 44.9101C133.577 44.4277 134.442 44.1845 135.41 44.1845V43.1845ZM132.272 44.0619C131.329 44.6529 130.591 45.5166 130.051 46.6277L130.95 47.0651C131.421 46.0967 132.042 45.3866 132.803 44.9093L132.272 44.0619ZM130.05 46.6297C129.509 47.7547 129.251 49.109 129.251 50.6731H130.251C130.251 49.2145 130.492 48.0177 130.951 47.0631L130.05 46.6297ZM129.251 50.6731C129.251 52.2372 129.509 53.5916 130.05 54.7165L130.951 54.2831C130.492 53.3285 130.251 52.1318 130.251 50.6731H129.251ZM130.051 54.7185C130.591 55.8296 131.329 56.6934 132.272 57.2843L132.803 56.4369C132.042 55.9597 131.421 55.2496 130.95 54.2811L130.051 54.7185ZM132.273 57.2851C133.214 57.8709 134.264 58.1618 135.41 58.1618V57.1618C134.442 57.1618 133.577 56.9186 132.802 56.4361L132.273 57.2851ZM135.41 58.1618C136.556 58.1618 137.603 57.8708 138.539 57.2843L138.008 56.4369C137.239 56.9186 136.378 57.1618 135.41 57.1618V58.1618ZM138.538 57.2851C139.487 56.694 140.226 55.8294 140.761 54.7165L139.86 54.2831C139.395 55.2498 138.776 55.959 138.009 56.4361L138.538 57.2851ZM140.76 54.7185C141.307 53.593 141.569 52.2379 141.569 50.6731H140.569C140.569 52.1311 140.325 53.3271 139.861 54.2811L140.76 54.7185ZM146.668 59.4004H146.168C146.168 59.6765 146.392 59.9004 146.668 59.9004V59.4004ZM146.668 41.9458V41.4458C146.392 41.4458 146.168 41.6697 146.168 41.9458H146.668ZM156.64 42.9941L156.389 43.4266L156.391 43.4275L156.64 42.9941ZM159.41 45.9856L158.961 46.2069L158.962 46.2077L159.41 45.9856ZM159.401 55.3351L159.849 55.5571L159.85 55.5563L159.401 55.3351ZM156.572 58.3521L156.817 58.7876L156.819 58.7867L156.572 58.3521ZM148.782 57.5254H148.282C148.282 57.8015 148.506 58.0254 148.782 58.0254V57.5254ZM157.637 46.9998L157.181 47.205L157.182 47.206L157.637 46.9998ZM155.575 44.6475L155.317 45.0758L155.318 45.077L155.575 44.6475ZM148.782 43.8208V43.3208C148.506 43.3208 148.282 43.5447 148.282 43.8208H148.782ZM152.055 58.9004H146.668V59.9004H152.055V58.9004ZM147.168 59.4004V41.9458H146.168V59.4004H147.168ZM146.668 42.4458H152.293V41.4458H146.668V42.4458ZM152.293 42.4458C153.917 42.4458 155.276 42.7806 156.389 43.4266L156.891 42.5617C155.595 41.8099 154.056 41.4458 152.293 41.4458V42.4458ZM156.391 43.4275C157.505 44.069 158.361 44.9905 158.961 46.2069L159.858 45.7644C159.174 44.3785 158.184 43.3056 156.889 42.5608L156.391 43.4275ZM158.962 46.2077C159.562 47.419 159.873 48.8905 159.873 50.639H160.873C160.873 48.774 160.542 47.1431 159.858 45.7636L158.962 46.2077ZM159.873 50.639C159.873 52.3986 159.559 53.8847 158.953 55.1138L159.85 55.5563C160.539 54.1604 160.873 52.5158 160.873 50.639H159.873ZM158.953 55.113C158.349 56.3328 157.474 57.2634 156.325 57.9175L156.819 58.7867C158.146 58.0317 159.158 56.951 159.849 55.5571L158.953 55.113ZM156.326 57.9166C155.179 58.564 153.762 58.9004 152.055 58.9004V59.9004C153.893 59.9004 155.487 59.538 156.817 58.7876L156.326 57.9166ZM148.782 58.0254H151.918V57.0254H148.782V58.0254ZM151.918 58.0254C153.423 58.0254 154.714 57.7352 155.759 57.1214L155.253 56.2589C154.402 56.7588 153.3 57.0254 151.918 57.0254V58.0254ZM155.759 57.1214C156.8 56.5109 157.577 55.6385 158.084 54.5187L157.173 54.106C156.749 55.043 156.111 55.7558 155.253 56.2589L155.759 57.1214ZM158.084 54.5187C158.586 53.411 158.827 52.1129 158.827 50.639H157.827C157.827 52.0061 157.603 53.1569 157.173 54.106L158.084 54.5187ZM158.827 50.639C158.827 49.1769 158.589 47.8901 158.093 46.7937L157.182 47.206C157.606 48.1436 157.827 49.283 157.827 50.639H158.827ZM158.093 46.7946C157.593 45.6837 156.838 44.8189 155.831 44.2181L155.318 45.077C156.14 45.5671 156.761 46.2705 157.181 47.205L158.093 46.7946ZM155.833 44.2193C154.821 43.6099 153.587 43.3208 152.157 43.3208V44.3208C153.454 44.3208 154.498 44.5829 155.317 45.0758L155.833 44.2193ZM152.157 43.3208H148.782V44.3208H152.157V43.3208ZM148.282 43.8208V57.5254H149.282V43.8208H148.282Z" fill="#CE800C"/>
<path d="M12.1136 59.4004H12.0136C12.0136 59.4556 12.0584 59.5004 12.1136 59.5004V59.4004ZM12.1136 41.9458V41.8458C12.0584 41.8458 12.0136 41.8906 12.0136 41.9458H12.1136ZM21.2244 42.5765L21.1774 42.6648L21.1779 42.6651L21.2244 42.5765ZM22.9886 44.2555L22.901 44.3036L22.9011 44.3039L22.9886 44.2555ZM23.1676 48.4402L23.0799 48.3922L23.0794 48.393L23.1676 48.4402ZM22.1278 49.5993L22.0729 49.5157L22.0724 49.516L22.1278 49.5993ZM20.7386 50.2299L20.7123 50.1335C20.6688 50.1453 20.6386 50.1848 20.6386 50.2299H20.7386ZM20.7386 50.4004H20.6386C20.6386 50.4531 20.6796 50.4968 20.7323 50.5002L20.7386 50.4004ZM22.3494 50.9629L22.296 51.0474L22.3494 50.9629ZM23.6534 57.1248L23.7403 57.1743L23.6534 57.1248ZM21.7699 58.7868L21.7268 58.6965L21.7699 58.7868ZM14.2273 57.5254H14.1273C14.1273 57.5806 14.172 57.6254 14.2273 57.6254V57.5254ZM21.3608 56.7243L21.4286 56.7978L21.4286 56.7978L21.3608 56.7243ZM21.7869 53.1277L21.701 53.1788L21.7013 53.1793L21.7869 53.1277ZM20.5 51.9174L20.4517 52.005L20.4524 52.0054L20.5 51.9174ZM14.2273 51.4572V51.3572C14.172 51.3572 14.1273 51.402 14.1273 51.4572H14.2273ZM14.2273 49.6163H14.1273C14.1273 49.6715 14.172 49.7163 14.2273 49.7163V49.6163ZM19.8693 49.2413L19.8258 49.1513L19.8254 49.1515L19.8693 49.2413ZM21.0966 48.1845L21.0137 48.1285L21.0132 48.1293L21.0966 48.1845ZM20.7557 44.6305L20.6846 44.7008L20.685 44.7012L20.7557 44.6305ZM14.2273 43.8208V43.7208C14.172 43.7208 14.1273 43.7656 14.1273 43.8208H14.2273ZM12.2136 59.4004V41.9458H12.0136V59.4004H12.2136ZM12.1136 42.0458H18.2159V41.8458H12.1136V42.0458ZM18.2159 42.0458C19.421 42.0458 20.4064 42.2543 21.1774 42.6648L21.2714 42.4883C20.4629 42.0578 19.4426 41.8458 18.2159 41.8458V42.0458ZM21.1779 42.6651C21.9523 43.0717 22.5251 43.6182 22.901 44.3036L23.0763 44.2074C22.6795 43.4838 22.0761 42.9109 21.2709 42.488L21.1779 42.6651ZM22.9011 44.3039C23.2787 44.9869 23.4682 45.7457 23.4682 46.5822H23.6682C23.6682 45.7142 23.4713 44.9218 23.0762 44.2071L22.9011 44.3039ZM23.4682 46.5822C23.4682 47.321 23.3366 47.9225 23.0799 48.3922L23.2554 48.4881C23.5328 47.9806 23.6682 47.3434 23.6682 46.5822H23.4682ZM23.0794 48.393C22.8254 48.868 22.4898 49.2414 22.0729 49.5157L22.1828 49.6828C22.6296 49.3889 22.9871 48.9896 23.2558 48.4873L23.0794 48.393ZM22.0724 49.516C21.6553 49.7941 21.2021 49.9999 20.7123 50.1335L20.7649 50.3264C21.2752 50.1873 21.7481 49.9726 22.1833 49.6825L22.0724 49.516ZM20.6386 50.2299V50.4004H20.8386V50.2299H20.6386ZM20.7323 50.5002C21.2467 50.533 21.7677 50.7137 22.296 51.0474L22.4028 50.8783C21.8516 50.5302 21.2987 50.3359 20.745 50.3006L20.7323 50.5002ZM22.296 51.0474C22.82 51.3784 23.261 51.8541 23.6177 52.4784L23.7914 52.3792C23.4208 51.7307 22.9584 51.2292 22.4028 50.8783L22.296 51.0474ZM23.6177 52.4784C23.9708 53.0963 24.15 53.8566 24.15 54.764H24.35C24.35 53.8306 24.1656 53.0341 23.7914 52.3792L23.6177 52.4784ZM24.15 54.764C24.15 55.6233 23.9549 56.3929 23.5665 57.0754L23.7403 57.1743C24.1474 56.459 24.35 55.6548 24.35 54.764H24.15ZM23.5665 57.0754C23.1806 57.7534 22.5698 58.2946 21.7268 58.6965L21.8129 58.877C22.6859 58.4608 23.3307 57.894 23.7403 57.1743L23.5665 57.0754ZM21.7268 58.6965C20.887 59.097 19.7867 59.3004 18.4205 59.3004V59.5004C19.8042 59.5004 20.9369 59.2947 21.8129 58.877L21.7268 58.6965ZM18.4205 59.3004H12.1136V59.5004H18.4205V59.3004ZM14.2273 57.6254H18.4205V57.4254H14.2273V57.6254ZM18.4205 57.6254C19.809 57.6254 20.8209 57.3578 21.4286 56.7978L21.293 56.6507C20.7416 57.1589 19.7933 57.4254 18.4205 57.4254V57.6254ZM21.4286 56.7978C22.0335 56.2399 22.3386 55.5602 22.3386 54.764H22.1386C22.1386 55.502 21.8586 56.1291 21.293 56.6507L21.4286 56.7978ZM22.3386 54.764C22.3386 54.1552 22.1832 53.5918 21.8726 53.0761L21.7013 53.1793C21.9929 53.6635 22.1386 54.1911 22.1386 54.764H22.3386ZM21.8729 53.0765C21.5618 52.5541 21.119 52.1385 20.5476 51.8295L20.4524 52.0054C20.9946 52.2986 21.4098 52.6898 21.701 53.1788L21.8729 53.0765ZM20.5483 51.8299C19.974 51.5134 19.2976 51.3572 18.5227 51.3572V51.5572C19.2705 51.5572 19.9124 51.7078 20.4517 52.005L20.5483 51.8299ZM18.5227 51.3572H14.2273V51.5572H18.5227V51.3572ZM14.1273 51.4572V57.5254H14.3273V51.4572H14.1273ZM14.2273 49.7163H18.1477V49.5163H14.2273V49.7163ZM18.1477 49.7163C18.7975 49.7163 19.3867 49.5886 19.9132 49.3311L19.8254 49.1515C19.3293 49.394 18.7707 49.5163 18.1477 49.5163V49.7163ZM19.9128 49.3313C20.4452 49.0739 20.8684 48.71 21.18 48.2397L21.0132 48.1293C20.7225 48.568 20.3276 48.9087 19.8258 49.1513L19.9128 49.3313ZM21.1795 48.2404C21.4988 47.7674 21.6568 47.2133 21.6568 46.5822H21.4568C21.4568 47.1784 21.3081 47.6924 21.0137 48.1285L21.1795 48.2404ZM21.6568 46.5822C21.6568 45.7891 21.3796 45.113 20.8264 44.5598L20.685 44.7012C21.2 45.2162 21.4568 45.8412 21.4568 46.5822H21.6568ZM20.8268 44.5602C20.266 43.9934 19.3879 43.7208 18.2159 43.7208V43.9208C19.3621 43.9208 20.1772 44.188 20.6846 44.7008L20.8268 44.5602ZM18.2159 43.7208H14.2273V43.9208H18.2159V43.7208ZM14.1273 43.8208V49.6163H14.3273V43.8208H14.1273ZM41.4531 55.4458L41.3635 55.4014L41.4531 55.4458ZM38.7173 58.5481L38.7705 58.6328L38.7173 58.5481ZM30.7741 58.5481L30.721 58.6328L30.7741 58.5481ZM28.0384 55.4458L28.1279 55.4014L28.0384 55.4458ZM38.7173 42.7981L38.7705 42.7134L38.7173 42.7981ZM41.4531 45.9004L41.3635 45.9448L41.4531 45.9004ZM39.6463 46.8464L39.5562 46.8898L39.5564 46.8901L39.6463 46.8464ZM37.6094 44.4856L37.5563 44.5704L37.5565 44.5705L37.6094 44.4856ZM31.8736 44.4856L31.8207 44.4007L31.8205 44.4009L31.8736 44.4856ZM29.8366 46.8464L29.7467 46.8027L29.7465 46.8031L29.8366 46.8464ZM29.8366 54.4998L29.7465 54.5432L29.7467 54.5436L29.8366 54.4998ZM31.8736 56.8606L31.8205 56.9454L31.8207 56.9455L31.8736 56.8606ZM37.6094 56.8606L37.5565 56.7757L37.5563 56.7759L37.6094 56.8606ZM39.6463 54.4998L39.5564 54.4561L39.5562 54.4565L39.6463 54.4998ZM42.3503 50.6731C42.3503 52.5021 42.0201 54.0771 41.3635 55.4014L41.5427 55.4903C42.2157 54.1327 42.5503 52.526 42.5503 50.6731H42.3503ZM41.3635 55.4014C40.7062 56.7274 39.8062 57.7469 38.6642 58.4634L38.7705 58.6328C39.9467 57.8948 40.8705 56.8461 41.5427 55.4903L41.3635 55.4014ZM38.6642 58.4634C37.5224 59.1798 36.2173 59.539 34.7457 59.539V59.739C36.2515 59.739 37.5941 59.371 38.7705 58.6328L38.6642 58.4634ZM34.7457 59.539C33.2742 59.539 31.9691 59.1798 30.8273 58.4634L30.721 58.6328C31.8974 59.371 33.24 59.739 34.7457 59.739V59.539ZM30.8273 58.4634C29.6853 57.7469 28.7853 56.7274 28.1279 55.4014L27.9488 55.4903C28.6209 56.8461 29.5448 57.8948 30.721 58.6328L30.8273 58.4634ZM28.1279 55.4014C27.4714 54.0771 27.1412 52.5021 27.1412 50.6731H26.9412C26.9412 52.526 27.2757 54.1327 27.9488 55.4903L28.1279 55.4014ZM27.1412 50.6731C27.1412 48.8441 27.4714 47.2691 28.1279 45.9448L27.9488 45.856C27.2757 47.2135 26.9412 48.8203 26.9412 50.6731H27.1412ZM28.1279 45.9448C28.7853 44.6188 29.6853 43.5994 30.8273 42.8828L30.721 42.7134C29.5448 43.4514 28.6209 44.5001 27.9488 45.856L28.1279 45.9448ZM30.8273 42.8828C31.9691 42.1664 33.2742 41.8072 34.7457 41.8072V41.6072C33.24 41.6072 31.8974 41.9753 30.721 42.7134L30.8273 42.8828ZM34.7457 41.8072C36.2173 41.8072 37.5224 42.1664 38.6642 42.8828L38.7705 42.7134C37.5941 41.9753 36.2515 41.6072 34.7457 41.6072V41.8072ZM38.6642 42.8828C39.8062 43.5994 40.7062 44.6188 41.3635 45.9448L41.5427 45.856C40.8705 44.5001 39.9467 43.4514 38.7705 42.7134L38.6642 42.8828ZM41.3635 45.9448C42.0201 47.2691 42.3503 48.8441 42.3503 50.6731H42.5503C42.5503 48.8203 42.2157 47.2135 41.5427 45.856L41.3635 45.9448ZM40.5048 50.6731C40.5048 49.1511 40.2503 47.8596 39.7362 46.8027L39.5564 46.8901C40.0537 47.9128 40.3048 49.1724 40.3048 50.6731H40.5048ZM39.7364 46.8031C39.2294 45.7487 38.5385 44.9462 37.6622 44.4007L37.5565 44.5705C38.3962 45.0932 39.0632 45.8646 39.5562 46.8898L39.7364 46.8031ZM37.6625 44.4009C36.7935 43.8563 35.8203 43.5845 34.7457 43.5845V43.7845C35.7848 43.7845 36.7207 44.0468 37.5563 44.5704L37.6625 44.4009ZM34.7457 43.5845C33.6711 43.5845 32.6953 43.8563 31.8207 44.4007L31.9264 44.5705C32.7678 44.0468 33.7067 43.7845 34.7457 43.7845V43.5845ZM31.8205 44.4009C30.9501 44.9463 30.2593 45.7486 29.7467 46.8027L29.9266 46.8901C30.4253 45.8646 31.0925 45.0931 31.9267 44.5704L31.8205 44.4009ZM29.7465 46.8031C29.2383 47.8599 28.9866 49.1512 28.9866 50.6731H29.1866C29.1866 49.1723 29.435 47.9125 29.9268 46.8898L29.7465 46.8031ZM28.9866 50.6731C28.9866 52.195 29.2383 53.4863 29.7465 54.5432L29.9268 54.4565C29.435 53.4337 29.1866 52.1739 29.1866 50.6731H28.9866ZM29.7467 54.5436C30.2593 55.5976 30.9501 56.3999 31.8205 56.9454L31.9267 56.7759C31.0925 56.2532 30.4253 55.4816 29.9266 54.4561L29.7467 54.5436ZM31.8207 56.9455C32.6953 57.4899 33.6711 57.7618 34.7457 57.7618V57.5618C33.7067 57.5618 32.7678 57.2995 31.9264 56.7757L31.8207 56.9455ZM34.7457 57.7618C35.8203 57.7618 36.7935 57.4899 37.6625 56.9454L37.5563 56.7759C36.7207 57.2995 35.7848 57.5618 34.7457 57.5618V57.7618ZM37.6622 56.9455C38.5385 56.4 39.2294 55.5976 39.7364 54.5432L39.5562 54.4565C39.0632 55.4816 38.3962 56.253 37.5565 56.7757L37.6622 56.9455ZM39.7362 54.5436C40.2503 53.4866 40.5048 52.1952 40.5048 50.6731H40.3048C40.3048 52.1738 40.0537 53.4335 39.5564 54.4561L39.7362 54.5436ZM46.0043 59.4004H45.9043C45.9043 59.4556 45.949 59.5004 46.0043 59.5004V59.4004ZM46.0043 41.9458V41.8458C45.949 41.8458 45.9043 41.8906 45.9043 41.9458H46.0043ZM48.1179 41.9458H48.2179C48.2179 41.8906 48.1731 41.8458 48.1179 41.8458V41.9458ZM48.1179 57.5254H48.0179C48.0179 57.5806 48.0627 57.6254 48.1179 57.6254V57.5254ZM56.2315 57.5254H56.3315C56.3315 57.4702 56.2868 57.4254 56.2315 57.4254V57.5254ZM56.2315 59.4004V59.5004C56.2868 59.5004 56.3315 59.4556 56.3315 59.4004H56.2315ZM46.1043 59.4004V41.9458H45.9043V59.4004H46.1043ZM46.0043 42.0458H48.1179V41.8458H46.0043V42.0458ZM48.0179 41.9458V57.5254H48.2179V41.9458H48.0179ZM48.1179 57.6254H56.2315V57.4254H48.1179V57.6254ZM56.1315 57.5254V59.4004H56.3315V57.5254H56.1315ZM56.2315 59.3004H46.0043V59.5004H56.2315V59.3004ZM59.5043 59.4004H59.4043C59.4043 59.4556 59.449 59.5004 59.5043 59.5004V59.4004ZM59.5043 41.9458V41.8458C59.449 41.8458 59.4043 41.8906 59.4043 41.9458H59.5043ZM61.6179 41.9458H61.7179C61.7179 41.8906 61.6731 41.8458 61.6179 41.8458V41.9458ZM61.6179 57.5254H61.5179C61.5179 57.5806 61.5627 57.6254 61.6179 57.6254V57.5254ZM69.7315 57.5254H69.8315C69.8315 57.4702 69.7868 57.4254 69.7315 57.4254V57.5254ZM69.7315 59.4004V59.5004C69.7868 59.5004 69.8315 59.4556 69.8315 59.4004H69.7315ZM59.6043 59.4004V41.9458H59.4043V59.4004H59.6043ZM59.5043 42.0458H61.6179V41.8458H59.5043V42.0458ZM61.5179 41.9458V57.5254H61.7179V41.9458H61.5179ZM61.6179 57.6254H69.7315V57.4254H61.6179V57.6254ZM69.6315 57.5254V59.4004H69.8315V57.5254H69.6315ZM69.7315 59.3004H59.5043V59.5004H69.7315V59.3004ZM70.6839 41.9458V41.8458C70.6477 41.8458 70.6143 41.8654 70.5967 41.897C70.579 41.9287 70.5798 41.9674 70.5988 41.9982L70.6839 41.9458ZM73.1044 41.9458L73.1904 41.8948C73.1724 41.8644 73.1397 41.8458 73.1044 41.8458V41.9458ZM77.9453 50.0936L77.8593 50.1447C77.8774 50.175 77.91 50.1936 77.9453 50.1936V50.0936ZM78.1499 50.0936V50.1936C78.1851 50.1936 78.2178 50.175 78.2358 50.1447L78.1499 50.0936ZM82.9908 41.9458V41.8458C82.9555 41.8458 82.9228 41.8644 82.9048 41.8948L82.9908 41.9458ZM85.4112 41.9458L85.4964 41.9982C85.5154 41.9674 85.5162 41.9287 85.4985 41.897C85.4808 41.8654 85.4474 41.8458 85.4112 41.8458V41.9458ZM79.1044 52.2072L79.0192 52.1548C79.0095 52.1706 79.0044 52.1887 79.0044 52.2072H79.1044ZM79.1044 59.4004V59.5004C79.1596 59.5004 79.2044 59.4556 79.2044 59.4004H79.1044ZM76.9908 59.4004H76.8908C76.8908 59.4556 76.9355 59.5004 76.9908 59.5004V59.4004ZM76.9908 52.2072H77.0908C77.0908 52.1887 77.0856 52.1706 77.076 52.1548L76.9908 52.2072ZM70.6839 42.0458H73.1044V41.8458H70.6839V42.0458ZM73.0184 41.9969L77.8593 50.1447L78.0313 50.0425L73.1904 41.8948L73.0184 41.9969ZM77.9453 50.1936H78.1499V49.9936H77.9453V50.1936ZM78.2358 50.1447L83.0767 41.9969L82.9048 41.8948L78.0639 50.0425L78.2358 50.1447ZM82.9908 42.0458H85.4112V41.8458H82.9908V42.0458ZM85.326 41.8935L79.0192 52.1548L79.1896 52.2596L85.4964 41.9982L85.326 41.8935ZM79.0044 52.2072V59.4004H79.2044V52.2072H79.0044ZM79.1044 59.3004H76.9908V59.5004H79.1044V59.3004ZM77.0908 59.4004V52.2072H76.8908V59.4004H77.0908ZM77.076 52.1548L70.7691 41.8935L70.5988 41.9982L76.9056 52.2596L77.076 52.1548ZM91.3153 59.4004L91.2189 59.4268C91.2308 59.4702 91.2703 59.5004 91.3153 59.5004V59.4004ZM86.5426 41.9458V41.8458C86.5114 41.8458 86.482 41.8604 86.4631 41.8852C86.4442 41.91 86.4379 41.9421 86.4462 41.9722L86.5426 41.9458ZM88.6903 41.9458L88.7872 41.921C88.7759 41.8768 88.736 41.8458 88.6903 41.8458V41.9458ZM92.3381 56.1618L92.2412 56.1866C92.2526 56.2308 92.2924 56.2618 92.3381 56.2618V56.1618ZM92.5085 56.1618V56.2618C92.554 56.2618 92.5938 56.2311 92.6053 56.187L92.5085 56.1618ZM96.2244 41.9458V41.8458C96.1789 41.8458 96.1392 41.8765 96.1277 41.9206L96.2244 41.9458ZM98.6108 41.9458L98.7075 41.9206C98.696 41.8765 98.6563 41.8458 98.6108 41.8458V41.9458ZM102.327 56.1618L102.23 56.187C102.241 56.2311 102.281 56.2618 102.327 56.2618V56.1618ZM102.497 56.1618V56.2618C102.543 56.2618 102.583 56.2308 102.594 56.1866L102.497 56.1618ZM106.145 41.9458V41.8458C106.099 41.8458 106.059 41.8768 106.048 41.921L106.145 41.9458ZM108.293 41.9458L108.389 41.9722C108.397 41.9421 108.391 41.91 108.372 41.8852C108.353 41.8604 108.324 41.8458 108.293 41.8458V41.9458ZM103.52 59.4004V59.5004C103.565 59.5004 103.604 59.4702 103.616 59.4268L103.52 59.4004ZM101.338 59.4004L101.242 59.4271C101.254 59.4704 101.293 59.5004 101.338 59.5004V59.4004ZM97.4858 45.4913L97.5822 45.4646C97.5702 45.4213 97.5307 45.3913 97.4858 45.3913V45.4913ZM97.3494 45.4913V45.3913C97.3045 45.3913 97.2651 45.4213 97.2531 45.4646L97.3494 45.4913ZM93.4972 59.4004V59.5004C93.5421 59.5004 93.5815 59.4704 93.5935 59.4271L93.4972 59.4004ZM91.4118 59.374L86.6391 41.9195L86.4462 41.9722L91.2189 59.4268L91.4118 59.374ZM86.5426 42.0458H88.6903V41.8458H86.5426V42.0458ZM88.5935 41.9707L92.2412 56.1866L92.4349 56.1369L88.7872 41.921L88.5935 41.9707ZM92.3381 56.2618H92.5085V56.0618H92.3381V56.2618ZM92.6053 56.187L96.3212 41.9711L96.1277 41.9206L92.4118 56.1365L92.6053 56.187ZM96.2244 42.0458H98.6108V41.8458H96.2244V42.0458ZM98.514 41.9711L102.23 56.187L102.423 56.1365L98.7075 41.9206L98.514 41.9711ZM102.327 56.2618H102.497V56.0618H102.327V56.2618ZM102.594 56.1866L106.242 41.9707L106.048 41.921L102.4 56.1369L102.594 56.1866ZM106.145 42.0458H108.293V41.8458H106.145V42.0458ZM108.196 41.9195L103.423 59.374L103.616 59.4268L108.389 41.9722L108.196 41.9195ZM103.52 59.3004H101.338V59.5004H103.52V59.3004ZM101.434 59.3737L97.5822 45.4646L97.3894 45.518L101.242 59.4271L101.434 59.3737ZM97.4858 45.3913H97.3494V45.5913H97.4858V45.3913ZM97.2531 45.4646L93.4008 59.3737L93.5935 59.4271L97.4458 45.518L97.2531 45.4646ZM93.4972 59.3004H91.3153V59.5004H93.4972V59.3004ZM123.836 55.4458L123.746 55.4014L123.836 55.4458ZM121.1 58.5481L121.153 58.6328L121.1 58.5481ZM113.157 58.5481L113.104 58.6328L113.157 58.5481ZM110.421 55.4458L110.511 55.4014L110.421 55.4458ZM121.1 42.7981L121.153 42.7134L121.1 42.7981ZM123.836 45.9004L123.746 45.9448L123.836 45.9004ZM122.029 46.8464L121.939 46.8898L121.939 46.8901L122.029 46.8464ZM119.992 44.4856L119.939 44.5704L119.939 44.5705L119.992 44.4856ZM114.256 44.4856L114.204 44.4007L114.203 44.4009L114.256 44.4856ZM112.219 46.8464L112.13 46.8027L112.129 46.8031L112.219 46.8464ZM112.219 54.4998L112.129 54.5432L112.13 54.5436L112.219 54.4998ZM114.256 56.8606L114.203 56.9454L114.204 56.9455L114.256 56.8606ZM119.992 56.8606L119.939 56.7757L119.939 56.7759L119.992 56.8606ZM122.029 54.4998L121.939 54.4561L121.939 54.4565L122.029 54.4998ZM124.733 50.6731C124.733 52.5021 124.403 54.0771 123.746 55.4014L123.926 55.4903C124.599 54.1327 124.933 52.526 124.933 50.6731H124.733ZM123.746 55.4014C123.089 56.7274 122.189 57.7469 121.047 58.4634L121.153 58.6328C122.329 57.8948 123.253 56.8461 123.926 55.4903L123.746 55.4014ZM121.047 58.4634C119.905 59.1798 118.6 59.539 117.129 59.539V59.739C118.634 59.739 119.977 59.371 121.153 58.6328L121.047 58.4634ZM117.129 59.539C115.657 59.539 114.352 59.1798 113.21 58.4634L113.104 58.6328C114.28 59.371 115.623 59.739 117.129 59.739V59.539ZM113.21 58.4634C112.068 57.7469 111.168 56.7274 110.511 55.4014L110.332 55.4903C111.004 56.8461 111.928 57.8948 113.104 58.6328L113.21 58.4634ZM110.511 55.4014C109.854 54.0771 109.524 52.5021 109.524 50.6731H109.324C109.324 52.526 109.659 54.1327 110.332 55.4903L110.511 55.4014ZM109.524 50.6731C109.524 48.8441 109.854 47.2691 110.511 45.9448L110.332 45.856C109.659 47.2135 109.324 48.8203 109.324 50.6731H109.524ZM110.511 45.9448C111.168 44.6188 112.068 43.5994 113.21 42.8828L113.104 42.7134C111.928 43.4514 111.004 44.5001 110.332 45.856L110.511 45.9448ZM113.21 42.8828C114.352 42.1664 115.657 41.8072 117.129 41.8072V41.6072C115.623 41.6072 114.28 41.9753 113.104 42.7134L113.21 42.8828ZM117.129 41.8072C118.6 41.8072 119.905 42.1664 121.047 42.8828L121.153 42.7134C119.977 41.9753 118.634 41.6072 117.129 41.6072V41.8072ZM121.047 42.8828C122.189 43.5994 123.089 44.6188 123.746 45.9448L123.926 45.856C123.253 44.5001 122.329 43.4514 121.153 42.7134L121.047 42.8828ZM123.746 45.9448C124.403 47.2691 124.733 48.8441 124.733 50.6731H124.933C124.933 48.8203 124.599 47.2135 123.926 45.856L123.746 45.9448ZM122.888 50.6731C122.888 49.1511 122.633 47.8596 122.119 46.8027L121.939 46.8901C122.437 47.9128 122.688 49.1724 122.688 50.6731H122.888ZM122.119 46.8031C121.612 45.7487 120.921 44.9462 120.045 44.4007L119.939 44.5705C120.779 45.0932 121.446 45.8646 121.939 46.8898L122.119 46.8031ZM120.045 44.4009C119.176 43.8563 118.203 43.5845 117.129 43.5845V43.7845C118.168 43.7845 119.104 44.0468 119.939 44.5704L120.045 44.4009ZM117.129 43.5845C116.054 43.5845 115.078 43.8563 114.204 44.4007L114.309 44.5705C115.151 44.0468 116.09 43.7845 117.129 43.7845V43.5845ZM114.203 44.4009C113.333 44.9463 112.642 45.7486 112.13 46.8027L112.309 46.8901C112.808 45.8646 113.475 45.0931 114.309 44.5704L114.203 44.4009ZM112.129 46.8031C111.621 47.8599 111.369 49.1512 111.369 50.6731H111.569C111.569 49.1723 111.818 47.9125 112.31 46.8898L112.129 46.8031ZM111.369 50.6731C111.369 52.195 111.621 53.4863 112.129 54.5432L112.31 54.4565C111.818 53.4337 111.569 52.1739 111.569 50.6731H111.369ZM112.13 54.5436C112.642 55.5976 113.333 56.3999 114.203 56.9454L114.309 56.7759C113.475 56.2532 112.808 55.4816 112.309 54.4561L112.13 54.5436ZM114.204 56.9455C115.078 57.4899 116.054 57.7618 117.129 57.7618V57.5618C116.09 57.5618 115.151 57.2995 114.309 56.7757L114.204 56.9455ZM117.129 57.7618C118.203 57.7618 119.176 57.4899 120.045 56.9454L119.939 56.7759C119.104 57.2995 118.168 57.5618 117.129 57.5618V57.7618ZM120.045 56.9455C120.921 56.4 121.612 55.5976 122.119 54.5432L121.939 54.4565C121.446 55.4816 120.779 56.253 119.939 56.7757L120.045 56.9455ZM122.119 54.5436C122.633 53.4866 122.888 52.1952 122.888 50.6731H122.688C122.688 52.1738 122.437 53.4335 121.939 54.4561L122.119 54.5436ZM142.117 55.4458L142.028 55.4014L142.117 55.4458ZM139.381 58.5481L139.435 58.6328L139.381 58.5481ZM131.438 58.5481L131.385 58.6328L131.438 58.5481ZM128.702 55.4458L128.792 55.4014L128.702 55.4458ZM139.381 42.7981L139.435 42.7134L139.381 42.7981ZM142.117 45.9004L142.028 45.9448L142.117 45.9004ZM140.31 46.8464L140.22 46.8898L140.22 46.8901L140.31 46.8464ZM138.273 44.4856L138.22 44.5704L138.221 44.5705L138.273 44.4856ZM132.538 44.4856L132.485 44.4007L132.485 44.4009L132.538 44.4856ZM130.501 46.8464L130.411 46.8027L130.411 46.8031L130.501 46.8464ZM130.501 54.4998L130.411 54.5432L130.411 54.5436L130.501 54.4998ZM132.538 56.8606L132.485 56.9454L132.485 56.9455L132.538 56.8606ZM138.273 56.8606L138.221 56.7757L138.22 56.7759L138.273 56.8606ZM140.31 54.4998L140.22 54.4561L140.22 54.4565L140.31 54.4998ZM143.014 50.6731C143.014 52.5021 142.684 54.0771 142.028 55.4014L142.207 55.4903C142.88 54.1327 143.214 52.526 143.214 50.6731H143.014ZM142.028 55.4014C141.37 56.7274 140.47 57.7469 139.328 58.4634L139.435 58.6328C140.611 57.8948 141.535 56.8461 142.207 55.4903L142.028 55.4014ZM139.328 58.4634C138.186 59.1798 136.881 59.539 135.41 59.539V59.739C136.916 59.739 138.258 59.371 139.435 58.6328L139.328 58.4634ZM135.41 59.539C133.938 59.539 132.633 59.1798 131.491 58.4634L131.385 58.6328C132.561 59.371 133.904 59.739 135.41 59.739V59.539ZM131.491 58.4634C130.349 57.7469 129.449 56.7274 128.792 55.4014L128.613 55.4903C129.285 56.8461 130.209 57.8948 131.385 58.6328L131.491 58.4634ZM128.792 55.4014C128.135 54.0771 127.805 52.5021 127.805 50.6731H127.605C127.605 52.526 127.94 54.1327 128.613 55.4903L128.792 55.4014ZM127.805 50.6731C127.805 48.8441 128.135 47.2691 128.792 45.9448L128.613 45.856C127.94 47.2135 127.605 48.8203 127.605 50.6731H127.805ZM128.792 45.9448C129.449 44.6188 130.349 43.5994 131.491 42.8828L131.385 42.7134C130.209 43.4514 129.285 44.5001 128.613 45.856L128.792 45.9448ZM131.491 42.8828C132.633 42.1664 133.938 41.8072 135.41 41.8072V41.6072C133.904 41.6072 132.561 41.9753 131.385 42.7134L131.491 42.8828ZM135.41 41.8072C136.881 41.8072 138.186 42.1664 139.328 42.8828L139.435 42.7134C138.258 41.9753 136.916 41.6072 135.41 41.6072V41.8072ZM139.328 42.8828C140.47 43.5994 141.37 44.6188 142.028 45.9448L142.207 45.856C141.535 44.5001 140.611 43.4514 139.435 42.7134L139.328 42.8828ZM142.028 45.9448C142.684 47.2691 143.014 48.8441 143.014 50.6731H143.214C143.214 48.8203 142.88 47.2135 142.207 45.856L142.028 45.9448ZM141.169 50.6731C141.169 49.1511 140.914 47.8596 140.4 46.8027L140.22 46.8901C140.718 47.9128 140.969 49.1724 140.969 50.6731H141.169ZM140.4 46.8031C139.893 45.7487 139.203 44.9462 138.326 44.4007L138.221 44.5705C139.06 45.0932 139.727 45.8646 140.22 46.8898L140.4 46.8031ZM138.327 44.4009C137.458 43.8563 136.484 43.5845 135.41 43.5845V43.7845C136.449 43.7845 137.385 44.0468 138.22 44.5704L138.327 44.4009ZM135.41 43.5845C134.335 43.5845 133.359 43.8563 132.485 44.4007L132.59 44.5705C133.432 44.0468 134.371 43.7845 135.41 43.7845V43.5845ZM132.485 44.4009C131.614 44.9463 130.923 45.7486 130.411 46.8027L130.591 46.8901C131.089 45.8646 131.757 45.0931 132.591 44.5704L132.485 44.4009ZM130.411 46.8031C129.902 47.8599 129.651 49.1512 129.651 50.6731H129.851C129.851 49.1723 130.099 47.9125 130.591 46.8898L130.411 46.8031ZM129.651 50.6731C129.651 52.195 129.902 53.4863 130.411 54.5432L130.591 54.4565C130.099 53.4337 129.851 52.1739 129.851 50.6731H129.651ZM130.411 54.5436C130.923 55.5976 131.614 56.3999 132.485 56.9454L132.591 56.7759C131.757 56.2532 131.089 55.4816 130.591 54.4561L130.411 54.5436ZM132.485 56.9455C133.359 57.4899 134.335 57.7618 135.41 57.7618V57.5618C134.371 57.5618 133.432 57.2995 132.59 56.7757L132.485 56.9455ZM135.41 57.7618C136.484 57.7618 137.458 57.4899 138.327 56.9454L138.22 56.7759C137.385 57.2995 136.449 57.5618 135.41 57.5618V57.7618ZM138.326 56.9455C139.203 56.4 139.893 55.5976 140.4 54.5432L140.22 54.4565C139.727 55.4816 139.06 56.253 138.221 56.7757L138.326 56.9455ZM140.4 54.5436C140.914 53.4866 141.169 52.1952 141.169 50.6731H140.969C140.969 52.1738 140.718 53.4335 140.22 54.4561L140.4 54.5436ZM146.668 59.4004H146.568C146.568 59.4556 146.613 59.5004 146.668 59.5004V59.4004ZM146.668 41.9458V41.8458C146.613 41.8458 146.568 41.8906 146.568 41.9458H146.668ZM156.64 42.9941L156.59 43.0806L156.59 43.0808L156.64 42.9941ZM159.41 45.9856L159.32 46.0299L159.32 46.03L159.41 45.9856ZM159.401 55.3351L159.491 55.3795L159.491 55.3793L159.401 55.3351ZM156.572 58.3521L156.621 58.4392L156.621 58.439L156.572 58.3521ZM148.782 57.5254H148.682C148.682 57.5806 148.727 57.6254 148.782 57.6254V57.5254ZM157.637 46.9998L157.546 47.0409L157.546 47.041L157.637 46.9998ZM155.575 44.6475L155.523 44.7332L155.523 44.7334L155.575 44.6475ZM148.782 43.8208V43.7208C148.727 43.7208 148.682 43.7656 148.682 43.8208H148.782ZM152.055 59.3004H146.668V59.5004H152.055V59.3004ZM146.768 59.4004V41.9458H146.568V59.4004H146.768ZM146.668 42.0458H152.293V41.8458H146.668V42.0458ZM152.293 42.0458C153.973 42.0458 155.403 42.3923 156.59 43.0806L156.69 42.9076C155.467 42.1982 154 41.8458 152.293 41.8458V42.0458ZM156.59 43.0808C157.777 43.7637 158.686 44.7457 159.32 46.0299L159.499 45.9414C158.849 44.6233 157.912 43.611 156.69 42.9075L156.59 43.0808ZM159.32 46.03C159.954 47.3087 160.273 48.8439 160.273 50.639H160.473C160.473 48.8206 160.15 47.2535 159.499 45.9412L159.32 46.03ZM160.273 50.639C160.273 52.4455 159.951 53.995 159.312 55.2908L159.491 55.3793C160.147 54.0501 160.473 52.4689 160.473 50.639H160.273ZM159.312 55.2906C158.673 56.58 157.743 57.5707 156.522 58.2652L156.621 58.439C157.878 57.7244 158.835 56.7037 159.491 55.3795L159.312 55.2906ZM156.523 58.265C155.302 58.9536 153.814 59.3004 152.055 59.3004V59.5004C153.84 59.5004 155.364 59.1484 156.621 58.4392L156.523 58.265ZM148.782 57.6254H151.918V57.4254H148.782V57.6254ZM151.918 57.6254C153.374 57.6254 154.589 57.3446 155.557 56.7764L155.456 56.6039C154.526 57.1493 153.349 57.4254 151.918 57.4254V57.6254ZM155.557 56.7764C156.524 56.2088 157.245 55.4003 157.72 54.3536L157.537 54.2711C157.08 55.2812 156.386 56.0578 155.456 56.6039L155.557 56.7764ZM157.72 54.3536C158.193 53.3093 158.427 52.0702 158.427 50.639H158.227C158.227 52.0488 157.996 53.2585 157.537 54.2711L157.72 54.3536ZM158.427 50.639C158.427 49.2193 158.196 47.9915 157.728 46.9586L157.546 47.041C157.999 48.0422 158.227 49.2405 158.227 50.639H158.427ZM157.728 46.9588C157.26 45.9184 156.559 45.1182 155.626 44.5617L155.523 44.7334C156.42 45.2678 157.094 46.0358 157.546 47.0409L157.728 46.9588ZM155.626 44.5619C154.692 43.9991 153.534 43.7208 152.157 43.7208V43.9208C153.507 43.9208 154.628 44.1937 155.523 44.7332L155.626 44.5619ZM152.157 43.7208H148.782V43.9208H152.157V43.7208ZM148.682 43.8208V57.5254H148.882V43.8208H148.682Z" fill="#FFD435"/>
<path d="M65.7585 80.1689V71.4417H69.2017C69.8636 71.4417 70.4276 71.5681 70.8935 71.8209C71.3594 72.0709 71.7145 72.4189 71.9588 72.865C72.206 73.3081 72.3295 73.8195 72.3295 74.3991C72.3295 74.9786 72.2045 75.49 71.9545 75.9331C71.7045 76.3763 71.3423 76.7215 70.8679 76.9687C70.3963 77.2158 69.8253 77.3394 69.1548 77.3394H66.9602V75.8607H68.8565C69.2116 75.8607 69.5043 75.7996 69.7344 75.6775C69.9673 75.5525 70.1406 75.3806 70.2543 75.1618C70.3707 74.9403 70.429 74.686 70.429 74.3991C70.429 74.1093 70.3707 73.8564 70.2543 73.6405C70.1406 73.4218 69.9673 73.2528 69.7344 73.1334C69.5014 73.0113 69.206 72.9502 68.848 72.9502H67.6037V80.1689H65.7585ZM74.0245 80.1689H72.0472L75.06 71.4417H77.4379L80.4464 80.1689H78.4691L76.283 73.436H76.2148L74.0245 80.1689ZM73.9009 76.7385H78.5714V78.1789H73.9009V76.7385ZM81.4968 80.1689V71.4417H84.94C85.5991 71.4417 86.1616 71.5596 86.6275 71.7954C87.0962 72.0283 87.4528 72.3593 87.6971 72.7883C87.9442 73.2144 88.0678 73.7158 88.0678 74.2925C88.0678 74.8721 87.9428 75.3706 87.6928 75.7883C87.4428 76.203 87.0806 76.5212 86.6062 76.7428C86.1346 76.9644 85.5636 77.0752 84.8931 77.0752H82.5877V75.5922H84.5948C84.9471 75.5922 85.2397 75.5439 85.4727 75.4474C85.7056 75.3508 85.8789 75.2059 85.9925 75.0127C86.109 74.8195 86.1673 74.5795 86.1673 74.2925C86.1673 74.0028 86.109 73.7584 85.9925 73.5596C85.8789 73.3607 85.7042 73.2101 85.4684 73.1079C85.2354 73.0028 84.9414 72.9502 84.5863 72.9502H83.342V80.1689H81.4968ZM86.2099 76.1974L88.3789 80.1689H86.342L84.2198 76.1974H86.2099ZM89.0394 72.963V71.4417H96.207V72.963H93.5352V80.1689H91.7113V72.963H89.0394ZM96.8761 71.4417H98.9428L100.933 75.2002H101.018L103.008 71.4417H105.075L101.892 77.0837V80.1689H100.059V77.0837L96.8761 71.4417Z" fill="#FFD435"/>
<path d="M73.3773 14.991L74.0441 17.0348C74.0944 17.1881 74.2381 17.2922 74.3999 17.2922H76.5565C76.9193 17.2922 77.0693 17.7546 76.7764 17.9666L75.0313 19.2295C74.9002 19.3242 74.8452 19.4924 74.8954 19.6465L75.5622 21.6903C75.6745 22.0338 75.2795 22.3194 74.9865 22.1073L73.2415 20.8445C73.1103 20.7498 72.9328 20.7498 72.8017 20.8445L71.0566 22.1073C70.7636 22.3194 70.3686 22.0338 70.4809 21.6903L71.1477 19.6465C71.198 19.4932 71.143 19.325 71.0118 19.2295L69.2667 17.9666C68.9738 17.7546 69.1238 17.2922 69.4866 17.2922H71.6432C71.805 17.2922 71.9488 17.1881 71.999 17.0348L72.6658 14.991C72.7773 14.6475 73.265 14.6475 73.3773 14.991Z" fill="#FFD435"/>
<path d="M85.4852 14.991L86.152 17.0348C86.2023 17.1881 86.346 17.2922 86.5078 17.2922H88.6644C89.0272 17.2922 89.1772 17.7546 88.8843 17.9666L87.1392 19.2295C87.0081 19.3242 86.9531 19.4924 87.0033 19.6465L87.6701 21.6903C87.7824 22.0338 87.3874 22.3194 87.0944 22.1073L85.3494 20.8445C85.2182 20.7498 85.0407 20.7498 84.9096 20.8445L83.1645 22.1073C82.8715 22.3194 82.4765 22.0338 82.5888 21.6903L83.2556 19.6465C83.3059 19.4932 83.2509 19.325 83.1197 19.2295L81.3747 17.9666C81.0817 17.7546 81.2317 17.2922 81.5946 17.2922H83.7512C83.9129 17.2922 84.0567 17.1881 84.1069 17.0348L84.7737 14.991C84.8852 14.6475 85.3729 14.6475 85.4852 14.991Z" fill="#FFD435"/>
<path d="M97.5932 14.991L98.2599 17.0348C98.3102 17.1881 98.4539 17.2922 98.6157 17.2922H100.772C101.135 17.2922 101.285 17.7546 100.992 17.9666L99.2471 19.2295C99.116 19.3242 99.061 19.4924 99.1113 19.6465L99.778 21.6903C99.8903 22.0338 99.4953 22.3194 99.2024 22.1073L97.4573 20.8445C97.3261 20.7498 97.1486 20.7498 97.0175 20.8445L95.2724 22.1073C94.9795 22.3194 94.5844 22.0338 94.6967 21.6903L95.3635 19.6465C95.4138 19.4932 95.3588 19.325 95.2276 19.2295L93.4826 17.9666C93.1896 17.7546 93.3396 17.2922 93.7025 17.2922H95.8591C96.0209 17.2922 96.1646 17.1881 96.2148 17.0348L96.8816 14.991C96.9931 14.6475 97.4808 14.6475 97.5932 14.991Z" fill="#FFD435"/>
</svg>
