<svg width="151" height="168" viewBox="0 0 151 168" fill="none" xmlns="http://www.w3.org/2000/svg">
<path d="M114.34 132.564L118.635 130.096L122.93 127.629L66.5807 30L58.0041 34.9345L114.34 132.564Z" fill="#D05663"/>
<path d="M132.722 158.133C132.722 158.133 159.391 144.887 148.301 125.672C137.21 106.458 119.698 122.047 110.707 106.472L104.851 109.835L132.722 158.133Z" fill="#E09F34"/>
<path d="M135.553 156.506C135.553 156.506 110.693 172.867 99.644 153.653C88.5951 134.438 111.246 126.926 102.255 111.351L107.71 108.208L135.553 156.506Z" fill="#CE800C"/>
<path d="M59.8129 57.5808C60.0789 58.062 60.4832 58.4528 60.9735 58.7031C61.4637 58.9534 62.0176 59.0517 62.5643 58.9855C63.111 58.9192 63.6255 58.6914 64.0415 58.3312C64.4575 57.971 64.7561 57.4949 64.899 56.9641C65.0418 56.4333 65.0224 55.872 64.8433 55.3523C64.6642 54.8326 64.3336 54.3781 63.8938 54.0473C63.454 53.7165 62.9251 53.5245 62.3751 53.4959C61.8252 53.4673 61.2791 53.6034 60.8072 53.8868C60.1948 54.2545 59.7491 54.8448 59.5637 55.5337C59.3783 56.2225 59.4676 56.9563 59.8129 57.5808Z" fill="#5F3D30"/>
<path d="M54.3437 43.6179C54.6098 44.0991 55.0137 44.4899 55.504 44.7402C55.9943 44.9905 56.5485 45.0889 57.0952 45.0226C57.6419 44.9563 58.1564 44.7285 58.5724 44.3683C58.9884 44.0081 59.287 43.532 59.4298 43.0012C59.5727 42.4704 59.5533 41.9091 59.3742 41.3894C59.1951 40.8697 58.8642 40.4153 58.4244 40.0845C57.9845 39.7537 57.456 39.5616 56.906 39.533C56.356 39.5044 55.81 39.6405 55.3381 39.9239C54.7257 40.2916 54.28 40.8819 54.0946 41.5708C53.9091 42.2596 53.9984 42.9934 54.3437 43.6179Z" fill="#5F3D30"/>
<path d="M76.649 38.5597C76.9133 39.0428 77.3167 39.4357 77.8069 39.688C78.297 39.9404 78.8514 40.0405 79.399 39.9756C79.9467 39.9106 80.4624 39.6836 80.8796 39.3237C81.2968 38.9637 81.5965 38.4873 81.7401 37.9559C81.8837 37.4245 81.8645 36.8623 81.6852 36.3418C81.5058 35.8213 81.1746 35.3663 80.734 35.0354C80.2933 34.7045 79.7634 34.5128 79.2126 34.485C78.6618 34.4572 78.1152 34.5945 77.6433 34.8794C77.0345 35.247 76.5914 35.8349 76.4062 36.5204C76.2209 37.206 76.3079 37.9365 76.649 38.5597Z" fill="#5F3D30"/>
<path d="M82.5322 52.315C82.7979 52.7975 83.2024 53.1896 83.6935 53.4406C84.1845 53.6917 84.7397 53.7903 85.2873 53.7236C85.835 53.657 86.35 53.4282 86.7662 53.0668C87.1824 52.7053 87.4805 52.2278 87.6223 51.6956C87.7641 51.1635 87.743 50.6012 87.5616 50.0811C87.3803 49.5611 87.0472 49.1072 86.605 48.7779C86.1629 48.4486 85.6321 48.2589 85.081 48.2334C84.5298 48.2079 83.9835 48.3477 83.5127 48.6348C82.9063 49.0046 82.466 49.5933 82.2833 50.2788C82.1007 50.9642 82.1899 51.6935 82.5322 52.315Z" fill="#5F3D30"/>
<path d="M115.914 143.08C116.788 144.595 118.092 145.817 119.662 146.591C121.232 147.366 122.997 147.659 124.734 147.432C126.47 147.205 128.1 146.47 129.418 145.318C130.735 144.167 131.681 142.651 132.136 140.963C132.59 139.275 132.532 137.49 131.97 135.835C131.408 134.18 130.366 132.728 128.977 131.663C127.588 130.599 125.914 129.97 124.166 129.855C122.419 129.74 120.676 130.146 119.159 131.019C117.127 132.19 115.644 134.118 115.036 136.38C114.427 138.641 114.743 141.051 115.914 143.08Z" fill="#5F3D30"/>
<path d="M127.1 144.762L134.766 140.365L136.257 142.957L128.592 147.367L120.927 151.778L119.435 149.173L127.1 144.762Z" fill="#A82A2A"/>
<path d="M75.005 64.4038L79.3001 61.9365L83.5955 59.4693L66.5801 30L58.0035 34.9345L75.005 64.4038Z" fill="#87A0D1"/>
<path d="M71.7715 40.9511L124.171 131.944L123.39 132.392L70.9905 41.399L71.7715 40.9511Z" fill="#421C18"/>
<path d="M69.2347 42.1178L129.066 145.793L128.288 146.24L68.4568 42.5649L69.2347 42.1178Z" fill="#421C18"/>
<path d="M64.4955 37.2309L127.587 146.556L126.809 147.003L63.7176 37.678L64.4955 37.2309Z" fill="#421C18"/>
<path d="M70.4741 51.3932L125.905 147.481L125.127 147.928L69.6961 51.8402L70.4741 51.3932Z" fill="#421C18"/>
<path d="M63.8747 36.8983L64.6604 38.2598L56.6658 42.8551L55.8801 41.4936L63.8747 36.8983Z" fill="#421C18"/>
<path d="M69.5441 50.741L70.3298 52.1025L63.0414 56.292L62.2556 54.9305L69.5441 50.741Z" fill="#421C18"/>
<path d="M77.7263 36.6981L78.5673 38.1553L69.0647 43.6174L68.2238 42.1603L77.7263 36.6981Z" fill="#421C18"/>
<path d="M84.0573 50.1971L84.843 51.5586L78.1768 55.3904L77.3911 54.0289L84.0573 50.1971Z" fill="#421C18"/>
<path d="M46.3687 2.6608C46.3687 2.6608 46.1277 0.589795 47.3697 0.453795C48.6097 0.314795 49.3697 2.6608 49.3697 2.6608C49.3697 2.6608 49.5777 1.76279 50.2667 1.69479C50.9557 1.62479 51.1627 2.6608 51.1627 2.6608C51.1627 2.6608 51.1627 -0.375205 52.4057 0.0387949C53.6467 0.453795 53.6807 2.6608 53.6807 2.6608H46.3687Z" fill="url(#paint0_linear_110_875)"/>
<path d="M45.8507 153.642L45.9897 155.16L54.5457 153.919V152.538L45.8507 153.642Z" fill="#7F4A26"/>
<path d="M67.6577 54.1175C65.8827 57.5005 62.9757 60.1375 59.4447 61.0365C53.6087 62.5245 44.2657 62.8745 40.4547 55.4035C39.6697 53.8605 39.1177 51.9855 38.8827 49.7205C37.5017 36.4725 49.0997 32.9465 52.9597 32.6085C60.8257 31.9185 67.1717 35.0925 69.1067 42.8205C70.0677 46.6705 69.4217 50.7595 67.6577 54.1175Z" fill="url(#paint1_radial_110_875)"/>
<path d="M35.5308 11.3828L46.9528 11.7038L47.0197 12.7618L47.0438 13.1268L35.5958 13.9988L35.5438 11.8938L35.5308 11.3828Z" fill="#3C2520"/>
<path opacity="0.5" d="M35.5308 11.3828L46.9528 11.7038L47.0197 12.7618C43.8367 12.3288 37.3548 11.9838 35.5428 11.8938L35.5308 11.3828Z" fill="#3C2520"/>
<path d="M35.3898 10.3037C35.8878 10.3037 36.2917 11.3727 36.2917 12.6917C36.2917 12.7467 36.2917 12.7997 36.2907 12.8527C36.2597 14.0957 35.8678 15.0787 35.3898 15.0787C34.8928 15.0787 34.4888 14.0097 34.4888 12.6917C34.4888 12.5217 34.4968 12.3577 34.5098 12.1997C34.5948 11.1167 34.9558 10.3037 35.3898 10.3037Z" fill="#A03D0E"/>
<path opacity="0.5" d="M35.3898 10.3037C35.8878 10.3037 36.2918 11.3727 36.2918 12.6917C36.2918 12.7467 36.2918 12.7997 36.2908 12.8527C35.6808 12.5787 35.0168 12.3557 34.5088 12.1997C34.5948 11.1167 34.9558 10.3037 35.3898 10.3037Z" fill="#A03D0E"/>
<path opacity="0.2" d="M67.6577 54.1175C67.0107 45.0365 59.1807 36.9195 50.4747 39.6455C43.3467 41.8785 40.7617 49.3475 40.4547 55.4035C39.6697 53.8605 39.1177 51.9855 38.8827 49.7205C37.5017 36.4725 49.0997 32.9465 52.9597 32.6085C60.8257 31.9185 67.1717 35.0925 69.1067 42.8205C70.0677 46.6705 69.4217 50.7595 67.6577 54.1175Z" fill="#BE6121"/>
<path d="M35.2727 21.2656L46.6967 21.5856L46.7627 22.6436L46.7877 23.0076L35.3397 23.8806L35.2867 21.7756L35.2727 21.2656Z" fill="#3C2520"/>
<path opacity="0.5" d="M35.2727 21.2656L46.6967 21.5866L46.7627 22.6436C43.5797 22.2106 37.0977 21.8656 35.2857 21.7756L35.2727 21.2656Z" fill="#3C2520"/>
<path d="M35.1337 20.1855C35.6317 20.1855 36.0347 21.2545 36.0347 22.5725C36.0347 22.6285 36.0347 22.6815 36.0337 22.7335C36.0027 23.9775 35.6097 24.9585 35.1337 24.9585C34.6367 24.9585 34.2327 23.8915 34.2327 22.5725C34.2327 22.4045 34.2377 22.2395 34.2507 22.0815C34.3367 20.9985 34.7007 20.1855 35.1337 20.1855Z" fill="#A03D0E"/>
<path opacity="0.5" d="M35.1337 20.1855C35.6317 20.1855 36.0347 21.2545 36.0347 22.5725C36.0347 22.6285 36.0347 22.6815 36.0337 22.7335C35.4227 22.4605 34.7597 22.2345 34.2507 22.0815C34.3367 20.9985 34.7007 20.1855 35.1337 20.1855Z" fill="#A03D0E"/>
<path d="M64.5488 17.6387L53.2508 17.9557L53.1828 19.0017L53.1608 19.3617L64.4838 20.2247L64.5378 18.1427L64.5488 17.6387Z" fill="#3C2520"/>
<path opacity="0.5" d="M64.5487 17.6387L53.2497 17.9547L53.1827 19.0017C56.3307 18.5717 62.7457 18.2307 64.5367 18.1427L64.5487 17.6387Z" fill="#3C2520"/>
<path d="M64.6877 16.5693C64.1957 16.5693 63.7937 17.6273 63.7937 18.9303C63.7937 18.9853 63.7937 19.0383 63.7977 19.0913C63.8267 20.3203 64.2157 21.2933 64.6877 21.2933C65.1797 21.2933 65.5797 20.2343 65.5797 18.9313C65.5797 18.7653 65.5727 18.6023 65.5607 18.4453C65.4757 17.3753 65.1177 16.5693 64.6877 16.5693Z" fill="#A03D0E"/>
<path opacity="0.5" d="M64.6877 16.5693C64.1957 16.5693 63.7937 17.6273 63.7937 18.9303C63.7937 18.9853 63.7937 19.0383 63.7977 19.0913C64.4007 18.8193 65.0567 18.5973 65.5607 18.4443C65.4757 17.3753 65.1177 16.5693 64.6877 16.5693Z" fill="#A03D0E"/>
<path d="M64.8018 27.4141L53.5038 27.7301L53.4378 28.7761L53.4148 29.1381L64.7388 30.0011L64.7918 27.9191L64.8018 27.4141Z" fill="#3C2520"/>
<path opacity="0.5" d="M64.8018 27.4141L53.5038 27.7301L53.4377 28.7761C56.5847 28.3481 62.9987 28.0061 64.7917 27.9191L64.8018 27.4141Z" fill="#3C2520"/>
<path d="M64.9418 26.3457C64.4498 26.3457 64.0488 27.4017 64.0488 28.7057C64.0488 28.7597 64.0488 28.8127 64.0528 28.8657C64.0828 30.0947 64.4708 31.0677 64.9428 31.0677C65.4348 31.0677 65.8348 30.0107 65.8348 28.7057C65.8348 28.5397 65.8278 28.3767 65.8168 28.2197C65.7298 27.1487 65.3718 26.3457 64.9418 26.3457Z" fill="#A03D0E"/>
<path opacity="0.5" d="M64.9418 26.3457C64.4498 26.3457 64.0488 27.4017 64.0488 28.7057C64.0488 28.7597 64.0488 28.8127 64.0528 28.8657C64.6558 28.5957 65.3118 28.3737 65.8158 28.2197C65.7298 27.1487 65.3718 26.3457 64.9418 26.3457Z" fill="#A03D0E"/>
<path d="M34.8497 47.708L46.1687 48.024L46.2347 49.072L46.2597 49.434L34.9157 50.298L34.8627 48.212L34.8497 47.708Z" fill="#3C2520"/>
<path opacity="0.5" d="M34.8497 47.708L46.1677 48.024L46.2337 49.072C43.0817 48.643 36.6567 48.301 34.8617 48.213L34.8497 47.708Z" fill="#3C2520"/>
<path d="M34.7117 46.6367C35.2057 46.6367 35.6067 47.6947 35.6067 49.0017C35.6067 49.0557 35.6067 49.1087 35.6057 49.1617C35.5747 50.3937 35.1847 51.3667 34.7127 51.3667C34.2207 51.3667 33.8187 50.3077 33.8187 49.0007C33.8187 48.8347 33.8267 48.6707 33.8397 48.5137C33.9217 47.4427 34.2827 46.6367 34.7117 46.6367Z" fill="#A03D0E"/>
<path opacity="0.5" d="M34.7118 46.6367C35.2058 46.6367 35.6068 47.6947 35.6068 49.0017C35.6068 49.0557 35.6067 49.1087 35.6057 49.1617C35.0017 48.8907 34.3427 48.6697 33.8387 48.5147C33.9217 47.4427 34.2828 46.6367 34.7118 46.6367Z" fill="#A03D0E"/>
<path d="M34.8497 59.7246L46.1687 60.0406L46.2347 61.0896L46.2597 61.4506L34.9157 62.3136L34.8627 60.2296L34.8497 59.7246Z" fill="#3C2520"/>
<path opacity="0.5" d="M34.8497 59.7246L46.1677 60.0406L46.2337 61.0896C43.0817 60.6606 36.6567 60.3176 34.8617 60.2296L34.8497 59.7246Z" fill="#3C2520"/>
<path d="M34.7117 58.6523C35.2057 58.6523 35.6067 59.7123 35.6067 61.0193C35.6067 61.0723 35.6067 61.1263 35.6057 61.1793C35.5747 62.4103 35.1847 63.3843 34.7127 63.3843C34.2207 63.3843 33.8187 62.3253 33.8187 61.0193C33.8187 60.8503 33.8267 60.6883 33.8397 60.5313C33.9217 59.4593 34.2827 58.6523 34.7117 58.6523Z" fill="#A03D0E"/>
<path opacity="0.5" d="M34.7118 58.6523C35.2058 58.6523 35.6068 59.7123 35.6068 61.0193C35.6068 61.0723 35.6067 61.1263 35.6057 61.1793C35.0017 60.9073 34.3427 60.6853 33.8387 60.5323C33.9217 59.4593 34.2828 58.6523 34.7118 58.6523Z" fill="#A03D0E"/>
<path d="M35.3596 71.7432L46.6766 72.0592L46.7436 73.1072L46.7676 73.4692L35.4246 74.3332L35.3726 72.2452L35.3596 71.7432Z" fill="#3C2520"/>
<path opacity="0.5" d="M35.3596 71.7432L46.6766 72.0592L46.7426 73.1072C43.5906 72.6782 37.1656 72.3362 35.3716 72.2452L35.3596 71.7432Z" fill="#3C2520"/>
<path d="M35.2197 70.6719C35.7137 70.6719 36.1147 71.7299 36.1147 73.0369C36.1147 73.0909 36.1147 73.1439 36.1127 73.1969C36.0817 74.4289 35.6937 75.4019 35.2207 75.4019C34.7287 75.4019 34.3267 74.3429 34.3267 73.0369C34.3267 72.8699 34.3347 72.7069 34.3467 72.5499C34.4307 71.4769 34.7907 70.6719 35.2197 70.6719Z" fill="#A03D0E"/>
<path opacity="0.5" d="M35.2197 70.6719C35.7137 70.6719 36.1147 71.7299 36.1147 73.0369C36.1147 73.0909 36.1147 73.1439 36.1127 73.1969C35.5087 72.9269 34.8497 72.7029 34.3467 72.5509C34.4307 71.4769 34.7907 70.6719 35.2197 70.6719Z" fill="#A03D0E"/>
<path d="M73.7947 136.359C72.3567 143.873 66.1777 150.757 51.8537 152.537C30.3457 155.208 29.0817 138.046 31.7057 129.077C31.9037 128.393 32.1557 127.679 32.4507 126.94C36.0167 117.967 45.9587 105.384 48.1277 102.579L54.7517 100.646C54.7517 100.646 68.1397 113.481 72.4187 124.108C73.9367 127.883 74.5867 132.216 73.7947 136.359Z" fill="url(#paint2_linear_110_875)"/>
<path opacity="0.2" d="M73.7947 136.36C72.3567 143.874 66.1777 150.758 51.8537 152.538C30.3457 155.209 29.0817 138.047 31.7057 129.078C31.9037 128.394 32.1557 127.68 32.4507 126.941C33.0257 126.366 33.3617 126.04 33.3617 126.04C34.3277 132.251 46.3347 147.431 62.7577 142.188C67.6157 140.637 71.1817 138.541 73.7947 136.36Z" fill="#B0591C"/>
<path d="M73.2467 123.97C68.9677 113.344 54.7517 100.646 54.7517 100.646L45.0937 105.062C43.0917 107.652 36.0667 116.974 32.4197 125.226C31.7897 126.645 31.2617 128.035 30.8777 129.352C28.2537 138.322 30.4827 156.174 51.9917 153.505C66.2267 151.734 72.7007 144.473 74.3907 136.688C75.3397 132.318 74.7827 127.786 73.2467 123.97ZM52.9597 151.709C39.8347 155.335 30.6017 145.36 32.5337 133.216C32.7667 131.747 33.2617 130.137 33.9387 128.454C37.6797 119.133 46.9797 107.644 48.2657 105.892L51.8527 102.993C59.1847 109.536 69.5207 116.242 72.1397 131.147C72.5517 133.49 72.5177 135.862 71.7987 138.163C70.1387 143.493 64.8177 148.431 52.9597 151.709Z" fill="url(#paint3_linear_110_875)"/>
<path d="M54.5797 37.0251H45.3347L46.3687 2.66113H53.6817L54.5797 37.0251Z" fill="url(#paint4_linear_110_875)"/>
<path d="M54.7867 36.8164H45.2637V115.275H54.7867V36.8164Z" fill="#472813"/>
<path d="M47.4368 35.1091V26.5711L49.8188 22.1211L52.6657 26.5191L52.7688 35.1091H47.4368Z" fill="#3D2615"/>
<path opacity="0.2" d="M52.2678 9.8354H47.4368L47.6438 4.2124L52.0958 4.1084L52.2678 9.8354Z" fill="#956922"/>
<path opacity="0.3" d="M45.4368 134.045L45.8727 138.184L56.0478 137.632L56.3398 133.63L45.4368 134.045Z" fill="#B0591C"/>
<path d="M54.8217 113.48H45.2307V115.551H54.8217V113.48Z" fill="#B67B25"/>
<path d="M45.0217 132.527L45.4367 136.666L55.0977 136.114L55.3727 132.113L45.0217 132.527Z" fill="#8D7542"/>
<path d="M53.2347 37.4385H46.7477L48.1637 117.966L50.1647 120.244L52.1287 118.241L53.2347 37.4385Z" fill="url(#paint5_linear_110_875)"/>
<path opacity="0.2" d="M62.3428 48.342C58.8918 47.375 56.8228 52.344 59.5828 54.691C62.3428 57.035 66.9498 49.631 62.3428 48.342Z" fill="#BE6121"/>
<path opacity="0.5" d="M74.3907 136.688C72.7007 144.473 66.2267 151.734 51.9917 153.505C30.4827 156.174 28.2537 138.322 30.8777 129.352C31.2617 128.035 31.7897 126.646 32.4197 125.226C32.8087 126.138 33.3127 127.242 33.9397 128.454C33.2617 130.137 32.7677 131.747 32.5347 133.216C30.6017 145.36 39.8357 155.335 52.9607 151.709C64.8187 148.431 70.1407 143.493 71.8007 138.163C72.7057 137.681 73.5717 137.185 74.3907 136.688Z" fill="#BBB0B6"/>
<path d="M54.6827 36.8692L54.3737 26.0012L50.6697 19.5542L52.3017 17.7722L51.9917 14.6672L50.1287 12.9082L48.3697 14.5642L47.9547 17.0482L49.4217 19.3192L45.5237 26.2092L45.2637 36.8172H47.3857L47.5757 26.3982L49.8187 22.2742L52.5617 26.5192V36.8692H54.6827Z" fill="#D2BBB7"/>
<path d="M54.8398 37.6981H45.1858L45.1608 36.1451L54.8398 36.1191V37.6981Z" fill="#A47228"/>
<path d="M54.7997 42.9629H45.2307V43.6099H54.7997V42.9629Z" fill="#907857"/>
<path d="M54.7997 53.625H45.2307V54.273H54.7997V53.625Z" fill="#907857"/>
<path d="M54.7997 63.6641H45.2307V64.3111H54.7997V63.6641Z" fill="#907857"/>
<path d="M54.7997 72.4609H45.2307V73.1099H54.7997V72.4609Z" fill="#907857"/>
<path d="M54.7997 80.0186H45.2307V80.6646H54.7997V80.0186Z" fill="#907857"/>
<path d="M54.7997 87.5752H45.2307V88.2222H54.7997V87.5752Z" fill="#907857"/>
<path d="M54.7997 94.9219H45.2307V95.5709H54.7997V94.9219Z" fill="#907857"/>
<path d="M54.7997 101.651H45.2307V102.297H54.7997V101.651Z" fill="#907857"/>
<path d="M54.7997 107.965H45.2307V108.612H54.7997V107.965Z" fill="#907857"/>
<path d="M54.7997 113.245H45.2307V113.892H54.7997V113.245Z" fill="#907857"/>
<g opacity="0.5">
<path d="M47.4718 155.005C47.4158 155.005 47.3698 154.959 47.3698 154.902L45.7477 36.0601C45.7457 36.0031 45.7928 35.9561 45.8498 35.9551H45.8508C45.9068 35.9551 45.9538 35.9991 45.9538 36.0581L47.5757 154.9C47.5777 154.957 47.5307 155.004 47.4727 155.006L47.4718 155.005Z" fill="#B1A8A0"/>
<path d="M49.3178 154.764C49.2608 154.764 49.2148 154.718 49.2148 154.66L48.0928 36.0591C48.0928 36.0031 48.1378 35.9561 48.1968 35.9551C48.1968 35.9551 48.1968 35.9551 48.1978 35.9551C48.2538 35.9551 48.2998 35.9991 48.2998 36.0581L49.4218 154.658C49.4218 154.717 49.3758 154.763 49.3198 154.764H49.3178Z" fill="#B1A8A0"/>
<path d="M50.7507 154.538C50.6917 154.538 50.6467 154.492 50.6467 154.434L51.1897 36.0844C51.1897 36.0254 51.2357 35.9814 51.2937 35.9814C51.3527 35.9814 51.3967 36.0284 51.3957 36.0854L50.8537 154.435C50.8527 154.492 50.8077 154.538 50.7507 154.538Z" fill="#B1A8A0"/>
<path d="M54.5457 153.953C54.4887 153.953 54.4427 153.906 54.4427 153.85C54.4427 153.85 54.1147 124.422 53.7897 94.9941C53.1427 36.0921 53.1427 36.0921 53.1877 36.0451C53.2267 36.0051 53.2937 36.0061 53.3337 36.0461C53.3557 36.0681 53.3637 36.0981 53.3627 36.1251C53.3467 36.9121 54.6347 152.677 54.6477 153.847C54.6497 153.904 54.6027 153.952 54.5457 153.953Z" fill="#B1A8A0"/>
<path d="M52.7008 154.262C52.6428 154.262 52.5958 154.217 52.5958 154.159L52.0278 36.0854C52.0278 36.0284 52.0738 35.9814 52.1298 35.9814C52.1898 35.9824 52.2348 36.0254 52.2348 36.0844L52.8028 154.159C52.8038 154.215 52.7568 154.262 52.7008 154.262Z" fill="#B1A8A0"/>
</g>
<path d="M61.6352 150.443C61.6352 150.443 61.6375 150.444 61.6375 150.446C62.1215 151.665 62.7107 152.856 63.4198 154.012L63.422 154.016C65.2552 157.01 67.8924 159.757 71.6209 162.026C72.0009 162.258 72.3922 162.483 72.7936 162.707C72.9723 162.806 73.1532 162.902 73.3353 162.999H73.3376C76.3593 164.591 79.5043 165.683 82.6696 166.182C83.4363 166.306 84.2008 166.393 84.9664 166.443C85.5138 166.482 86.0645 166.501 86.6141 166.5C89.2796 166.501 91.9281 166.058 94.4997 165.121C95.2133 164.86 95.9224 164.561 96.6224 164.222C99.7413 162.719 102.712 160.43 105.412 157.267C105.917 156.672 106.415 156.045 106.9 155.387C107.034 155.212 107.167 155.03 107.296 154.849C114.178 145.21 110.295 124.461 110.295 124.461C110.295 124.461 110.248 124.534 110.149 124.674C109.407 125.697 105.729 130.195 97.0532 132.222C96.5896 132.33 96.1123 132.433 95.6193 132.525C92.8803 133.044 89.6912 133.317 85.9955 133.188C84.6351 133.139 83.3402 133.054 82.1075 132.931C81.377 132.861 80.6679 132.776 79.9804 132.682C77.1249 132.292 74.6437 131.72 72.5019 131.056C71.7555 130.824 71.0509 130.584 70.386 130.334C69.8002 130.116 69.2483 129.891 68.727 129.665C66.0683 128.509 64.1854 127.28 62.9538 126.323C62.3839 125.881 61.9553 125.499 61.6533 125.208C61.2666 124.834 61.0856 124.615 61.0856 124.615C60.9816 125.312 60.8606 126.06 60.7339 126.852C59.7308 133.215 58.4077 142.354 61.6352 150.443Z" fill="url(#paint6_linear_110_875)"/>
<path opacity="0.3" d="M104.111 141.348C99.8151 140.549 90.0522 147.336 89.8102 150.734C89.5671 154.132 95.615 156.252 102.146 151.668C108.678 147.084 109.203 142.294 104.111 141.348Z" fill="url(#paint7_linear_110_875)"/>
<path opacity="0.5" d="M61.6351 150.442C61.6351 150.442 61.6374 150.444 61.6374 150.446C62.1214 151.665 62.7106 152.856 63.4197 154.011L63.4219 154.016C65.2551 157.009 67.8923 159.756 71.6208 162.026C72.0008 162.258 72.392 162.483 72.7935 162.707C72.9722 162.805 73.1531 162.901 73.3352 162.999H73.3375C76.3592 164.591 79.5041 165.682 82.6695 166.182C74.6142 156.787 72.8761 139.886 72.5029 131.056C71.7565 130.824 71.052 130.583 70.387 130.333C69.8012 130.116 69.2493 129.891 68.728 129.665C66.0693 128.509 64.1864 127.28 62.9549 126.323C62.3849 125.881 61.9563 125.499 61.6544 125.208C61.2676 124.834 61.0867 124.614 61.0867 124.614C60.9826 125.312 60.8616 126.06 60.7349 126.851C59.7307 133.215 58.4076 142.353 61.6351 150.442Z" fill="url(#paint8_linear_110_875)"/>
<path opacity="0.5" d="M60.734 126.85C62.3071 129.738 65.3661 132.423 68.3516 133.984C72.1446 135.965 83.6716 138.636 95.4554 137.1C107.239 135.567 109.768 129.849 110.029 128.8C110.11 128.468 110.486 127.616 110.272 124.926C110.268 124.844 110.224 124.759 110.149 124.672C109.407 125.695 105.729 130.193 97.0533 132.221C96.5896 132.328 96.1124 132.431 95.6194 132.524C92.8804 133.043 89.6913 133.315 85.9956 133.186C84.6351 133.138 83.3403 133.053 82.1076 132.93C81.3771 132.86 80.668 132.775 79.9804 132.681C76.1264 132.155 72.9543 131.297 70.3861 130.333C69.8003 130.116 69.2484 129.891 68.7271 129.665C66.0684 128.509 64.1854 127.28 62.9539 126.323C62.384 125.881 61.9554 125.499 61.6534 125.208C61.2667 124.834 61.0857 124.614 61.0857 124.614C60.9817 125.312 60.8595 126.06 60.734 126.85Z" fill="url(#paint9_linear_110_875)"/>
<path opacity="0.5" d="M105.346 133.069C105.364 133.162 106.666 142.232 106.381 148.446C106.21 152.201 105.747 155.357 105.41 157.266C105.916 156.671 106.413 156.044 106.898 155.386C107.243 152.43 107.758 146.759 107.426 141.734C106.954 134.55 106.147 130.229 106.147 130.229L104.259 130.475C104.259 130.475 105.021 131.38 105.346 133.069Z" fill="url(#paint10_linear_110_875)"/>
<path opacity="0.5" d="M96.5581 148.131C96.3726 156.303 96.1894 160.508 94.4999 165.12C95.2135 164.86 95.9225 164.56 96.6225 164.221C97.128 162.473 97.8948 159.398 98.1334 156.101C98.4715 151.431 98.2024 137.705 97.0534 132.221C96.5897 132.328 96.1125 132.431 95.6194 132.524C95.6353 132.56 95.6477 132.592 95.6613 132.627C96.6531 135.268 96.7526 139.504 96.5581 148.131Z" fill="url(#paint11_linear_110_875)"/>
<path opacity="0.5" d="M79.9819 132.681C80.026 135.147 80.121 139.832 80.311 146.246C80.527 153.674 83.5318 162.579 84.9668 166.441C85.5142 166.48 86.0649 166.5 86.6145 166.498C83.1224 158.013 82.3873 151.345 82.0492 147.73C81.7438 144.466 82.0424 136.468 82.1091 132.928C81.3774 132.86 80.6684 132.776 79.9819 132.681Z" fill="url(#paint12_linear_110_875)"/>
<path opacity="0.5" d="M68.0932 146.959C68.541 152.036 70.4499 158.446 71.6204 162.026C72.0003 162.258 72.3916 162.483 72.7931 162.707C72.9718 162.805 73.1527 162.901 73.3348 162.999C71.2845 156.516 69.7103 145.502 69.4344 141.064C69.1799 136.951 69.8833 132.975 70.3866 130.335C69.8008 130.118 69.2489 129.893 68.7276 129.667C68.0151 134.189 67.5583 140.963 68.0932 146.959Z" fill="url(#paint13_linear_110_875)"/>
<path opacity="0.5" d="M61.6353 150.442C61.6353 150.442 61.6376 150.443 61.6376 150.446C62.1216 151.665 62.7108 152.856 63.4199 154.011C62.2053 148.169 62.0085 140.298 62.1408 133.7C62.2121 130.116 62.5513 127.83 62.9539 126.324C62.384 125.882 61.9554 125.5 61.6534 125.209C60.8776 127.435 60.9772 130.561 60.6107 134.97C60.2658 139.096 60.9749 145.651 61.6353 150.442Z" fill="url(#paint14_linear_110_875)"/>
<path d="M86.3506 136.751C94.8107 137.328 111.48 135.453 110.581 122.796C110.581 122.786 110.581 122.776 110.579 122.766C109.649 110.081 89.3022 109.625 84.7606 109.696C80.6917 109.76 76.8422 110.002 73.4654 110.66C66.6575 111.987 61.7653 114.997 60.8154 121.616C59.153 133.238 77.8848 136.174 86.3506 136.751Z" fill="url(#paint15_linear_110_875)"/>
<path opacity="0.3" d="M63.199 122.3C63.787 135.783 92.4627 136.695 103.148 131.362C107.091 129.396 109.677 126.307 110.581 122.797C110.581 122.787 110.581 122.776 110.578 122.767C109.649 110.082 89.3019 109.626 84.7603 109.697C80.6914 109.761 76.8419 110.003 73.4651 110.661C67.7372 112.993 62.9717 117.076 63.199 122.3Z" fill="#C58216"/>
<path d="M77.7502 135.62C77.7502 135.62 74.7375 156.084 77.5376 165.048L79.6252 165.528C79.6252 165.528 76.6148 149.425 80.038 136.059L77.7502 135.62Z" fill="#FCB97C"/>
<path d="M67.0045 132.015C66.6992 132.803 64.4668 150.843 66.1519 157.882L68.0178 159.541C68.0178 159.541 66.2197 142.523 68.2768 132.709L67.0045 132.015Z" fill="#E2AF86"/>
<path d="M81.4631 132.409L78.7218 131.949C78.7218 131.949 78.4595 157.759 84.3525 166.464L86.0533 166.593C86.0533 166.593 83.5394 161.925 82.093 152.621C80.6432 143.318 81.4631 132.409 81.4631 132.409Z" fill="#FFC799"/>
<path d="M68.0264 127.961C68.0264 127.961 64.3647 147.925 71.09 161.892L72.7931 162.707C72.7931 162.707 66.2623 144.533 70.0518 129.041L68.0264 127.961Z" fill="#EFB081"/>
<path d="M98.3079 131.86L96.1434 132.348C96.1434 132.348 97.4801 141.144 97.1114 152.106C96.8174 160.845 95.1527 164.936 95.1527 164.936L97.7175 163.732C97.7153 163.731 101.409 151.817 98.3079 131.86Z" fill="#FFC799"/>
<path d="M105.254 128.162C106.007 129.267 108.225 148.781 105.987 156.712C105.987 156.712 107.572 154.959 108.308 153.523C108.308 153.523 109.632 140.764 106.793 126.709L105.254 128.162Z" fill="#F4B98C"/>
<path d="M64.2859 123.421C62.5183 124.009 61.885 126.123 61.5978 132.401C61.3106 138.681 61.1556 146.775 63.1222 153.557L61.4723 150.47C61.4723 150.47 59.6787 139.327 59.9218 130.985C60.1559 122.963 62.2763 121.622 63.915 121.295L64.2859 123.421Z" fill="#E2AF86"/>
<path d="M93.5714 136.596C93.784 137.81 92.7391 151.101 91.5155 157.337C90.2919 163.574 89.5059 165.78 88.7041 166.479L90.9794 166.15C90.9794 166.15 95.3706 155.423 95.1716 136.401L93.5714 136.596Z" fill="#FCB97C"/>
<path d="M103.974 133.811C103.954 134.211 105.401 150.494 101.286 161.418L103.251 159.767C103.251 159.767 106.553 153.476 105.346 133.07L103.974 133.811Z" fill="#FCB97C"/>
<path d="M109.612 128.41C109.535 128.59 111.668 136.455 111.236 141.909C111.236 141.909 111.998 132.203 110.496 125.524C110.496 125.524 110.173 127.116 109.612 128.41Z" fill="#FCB97C"/>
<path d="M108.073 121.029C108.073 121.029 109.973 120.48 110.428 121.505C110.428 121.505 110.125 120.084 109.853 119.469C109.853 119.469 108.032 119.035 107.413 119.408L108.073 121.029Z" fill="#FCB97C"/>
<path d="M105.976 114.624C105.976 114.624 104.115 114.672 103.489 115.196L101.927 114.203C101.927 114.203 103.065 113.486 104.071 113.432L105.976 114.624Z" fill="#FCB97C"/>
<path d="M96.4607 110.807C96.4607 110.807 95.3807 111.376 95.1602 111.819L93.3734 111.385C93.3734 111.385 93.9739 110.659 94.5393 110.384C94.5393 110.384 96.1181 110.588 96.4607 110.807Z" fill="#FCB97C"/>
<path d="M86.5871 110.788L84.4463 110.812C84.4463 110.812 84.6272 110.062 84.0946 109.636C84.0946 109.636 86.0341 109.675 86.1867 109.632C86.3405 109.589 86.7069 110.393 86.5871 110.788Z" fill="#FCB97C"/>
<path d="M77.3012 111.45C77.3012 111.45 75.4657 111.734 74.9026 111.959C74.9026 111.959 74.388 110.763 73.593 110.577C73.593 110.577 74.8981 110.234 75.8548 110.179C75.8548 110.179 77.2197 111.045 77.3012 111.45Z" fill="#FCB97C"/>
<path d="M69.5959 113.825C69.5959 113.825 68.1076 112.686 67.0582 112.588C67.0582 112.588 65.6604 113.527 65.0859 114.003C65.0859 114.003 67.3126 114.34 67.5286 115.103L69.5959 113.825Z" fill="#FCB97C"/>
<path d="M63.8046 122.856C64.1314 124.376 64.9705 125.756 66.141 126.797C67.6699 128.154 70.09 129.442 73.028 130.508C83.8483 134.419 101.706 135.279 108.141 125.332C109.298 123.54 108.885 119.699 105.36 116.392C105.358 116.39 105.358 116.388 105.353 116.385C101.879 113.135 95.3934 110.408 84.425 110.662C83.7951 110.677 83.1833 110.699 82.5896 110.732C67.014 111.549 62.7314 117.927 63.8046 122.856Z" fill="url(#paint16_radial_110_875)"/>
<path d="M97.8078 115.358C106.338 118.306 105.77 132.618 83.7227 129.571C61.6773 126.525 69.693 117.69 72.7317 116.245C75.8529 114.759 85.5875 111.134 97.8078 115.358Z" fill="#E5BC9C"/>
<path d="M93.0984 120.435C92.9311 124.095 79.0993 123.863 79.8773 120.234C80.6542 116.608 93.2839 116.372 93.0984 120.435Z" fill="#485758"/>
<path opacity="0.4" d="M63.8042 122.856C64.131 124.376 64.9701 125.755 66.1406 126.797C73.3013 133.153 99.9584 137.982 108.14 125.331C109.297 123.54 108.884 119.698 105.359 116.392C107.206 118.6 108.604 121.059 107.742 123.138C106.275 126.686 104.078 130.801 93.2749 132.115C83.564 133.293 67.475 128.584 63.8042 122.856Z" fill="#FCB97C"/>
<path opacity="0.3" d="M63.8046 122.856C64.1314 124.376 64.9705 125.755 66.141 126.797C67.6699 128.154 70.09 129.442 73.028 130.507C75.2547 123.098 80.0542 114.847 82.5896 110.731C67.014 111.548 62.7314 117.926 63.8046 122.856Z" fill="#E5BC9C"/>
<path d="M51.3027 134.891C51.3027 134.891 49.4209 142.169 49.1732 143.385L49.6278 145.031C49.6278 145.031 51.9574 139.503 51.7595 133.479L51.3027 134.891Z" fill="#FCB97C"/>
<path d="M4.06848 157.162C4.23585 157.45 4.42019 157.733 4.62035 158.014C4.78546 158.246 4.96414 158.476 5.1496 158.701C5.39048 158.992 5.65058 159.277 5.92425 159.556C6.14251 159.78 6.3766 160.002 6.61748 160.217C7.82187 161.294 9.26826 162.266 10.8866 163.117C11.4633 163.421 12.057 163.707 12.6733 163.98C14.6614 164.858 16.8429 165.575 19.1092 166.109C19.3252 166.159 19.5423 166.21 19.7583 166.257C20.2095 166.356 20.6596 166.446 21.1142 166.529C21.5937 166.617 22.0709 166.695 22.5538 166.771C22.5776 166.774 22.6002 166.777 22.6262 166.781C23.2753 166.877 23.9335 166.956 24.5871 167.023C26.3604 167.199 28.1347 167.263 29.8593 167.202C30.2257 167.189 30.5865 167.172 30.9461 167.147C31.3962 167.118 31.8451 167.078 32.2873 167.032C32.5417 167.005 32.7928 166.973 33.045 166.943C34.3217 166.774 35.5567 166.531 36.7226 166.203C37.2179 166.065 37.7008 165.912 38.169 165.746C38.3307 165.69 38.4913 165.627 38.6485 165.566C39.8631 165.103 40.9544 164.555 41.9303 163.951C42.1621 163.807 42.3849 163.661 42.6043 163.515C42.8712 163.332 43.1324 163.147 43.379 162.958C43.7567 162.671 44.114 162.375 44.4499 162.076C44.4635 162.064 44.4736 162.053 44.4872 162.042C44.969 161.609 45.41 161.169 45.8171 160.717C47.0916 159.307 48.0088 157.837 48.667 156.493C48.8174 156.191 48.9497 155.895 49.0752 155.604C49.0752 155.602 49.0752 155.602 49.0752 155.602C49.4371 154.757 49.696 153.983 49.8792 153.344C49.9539 153.076 50.0183 152.829 50.0692 152.609C50.2389 151.902 50.2852 151.479 50.2852 151.479C50.2852 151.479 50.067 148.005 48.7744 142.045C47.6435 136.815 43.8426 119.441 43.8426 119.441C43.8426 119.441 43.1777 119.753 42.0117 120.2C41.729 120.311 41.4157 120.425 41.0754 120.547C38.3171 121.537 33.7552 122.878 28.6199 123.2C20.24 123.727 8.97989 119.057 8.97989 119.057L8.07858 126.047L4.87932 150.851V150.855C4.87932 150.855 4.87819 150.856 4.87932 150.858L4.87819 150.892L4.06848 157.162Z" fill="url(#paint17_radial_110_875)"/>
<path d="M32.724 128.472L36.7239 166.202C37.2192 166.064 37.7021 165.911 38.1703 165.745C38.332 165.688 38.4926 165.626 38.6498 165.565L34.5594 129.886L34.3649 128.188L33.7949 128.288L32.724 128.472Z" fill="#EAA56C"/>
<path opacity="0.3" d="M35.9981 132.119L30.1006 131.61L32.9187 147.515L35.7222 143.124L35.9981 132.119Z" fill="url(#paint18_linear_110_875)"/>
<path d="M22.9645 128.611L22.5563 166.769C23.2325 166.87 23.9122 166.953 24.5907 167.022L25.0544 134.473L25.1335 128.823L23.9382 128.706L22.9645 128.611Z" fill="#E0A16C"/>
<path d="M10.8867 163.117C11.4635 163.421 12.0572 163.707 12.6735 163.98L14.7102 146.801V146.793L16.981 127.626L15.8501 127.27L15.4023 127.128L10.8867 163.117Z" fill="#D8986C"/>
<path d="M5.14917 158.701C5.58569 159.228 6.07649 159.732 6.61705 160.217L12.4219 125.8L10.7945 124.689L5.14917 158.701Z" fill="#BA8B6C"/>
<path d="M40.4775 125.407L42.5256 144.283L44.4537 162.074L44.4514 162.087C44.4537 162.045 44.5001 162.32 44.491 162.041C44.9728 161.607 45.4138 161.167 45.8209 160.715L42.2428 125.89C42.2428 125.887 42.2406 125.883 42.2406 125.881L42.0314 123.828L41.6932 124.173L40.4775 125.407Z" fill="#D39B71"/>
<g opacity="0.6">
<path d="M39.7888 122.766L41.0407 124.849C41.0407 124.849 43.1792 130.94 44.0715 134.641C44.8642 137.933 47.99 153.164 48.6696 156.491C48.82 156.189 48.9523 155.893 49.0779 155.602C49.0779 155.6 49.0779 155.6 49.0779 155.6C49.4397 154.755 49.6987 153.981 49.8819 153.342C48.6232 147.882 44.8947 131.725 44.0839 128.319C43.1034 124.206 40.8552 121.375 40.8552 121.375L39.7888 122.766Z" fill="#FF6A23"/>
<path d="M32.7239 128.472C33.6715 129.651 36.4897 135.604 37.4068 138.592L34.0368 147.654L33.2463 149.872C33.2463 149.872 32.7454 152.607 38.3421 152.901L39.6256 151.213C39.6256 151.213 41.4192 155.732 41.9337 163.951C42.1656 163.806 42.3884 163.66 42.6077 163.515C42.8746 163.331 43.1359 163.147 43.3824 162.958C43.4242 159.621 43.3688 150.78 41.7675 145.27C39.7625 138.368 34.7176 127.895 34.7176 127.895L33.1626 125.7L31.0117 125.932C31.0117 125.932 31.9096 127.459 32.7239 128.472Z" fill="#FF6A23"/>
<path d="M21.644 125.507L22.5759 128.089C23.0746 131.368 26.1517 145.649 27.7248 153.25C28.8579 158.709 29.5579 164.418 29.8633 167.2C30.2297 167.188 30.5904 167.171 30.95 167.146C31.4001 167.116 31.8491 167.077 32.2913 167.03C31.5268 162.307 29.7864 151.767 28.5831 146.14C27.0044 138.743 24.8817 126.33 24.8817 126.33L21.644 125.507Z" fill="#FF6A23"/>
<path d="M15.7118 149.675C16.2127 153.399 18.6713 162.378 19.7581 166.256C20.2093 166.354 20.6594 166.445 21.114 166.527C21.5935 166.616 22.0707 166.694 22.5536 166.769C22.5773 166.773 22.6 166.776 22.626 166.78C20.6752 161.405 18.6034 151.508 18.6034 151.508C22.3048 150.616 23.9955 148.939 22.8533 146.555C21.7111 144.171 18.4134 145.179 18.4134 145.179C18.4134 145.179 18.2234 144.765 18.2393 141.398C18.2529 138.034 18.4157 127.332 18.7097 124.792L17.1175 123.616C16.3462 128.281 15.0626 144.86 15.7118 149.675Z" fill="#FF6A23"/>
<path d="M4.62 158.014C4.7851 158.246 4.96378 158.476 5.14925 158.701C5.39012 158.992 5.65023 159.277 5.9239 159.556C5.88432 153.772 6.60808 144.568 6.60808 144.568C6.60808 144.568 9.42171 142.83 9.67389 141.411C9.92834 139.991 8.08388 137.277 8.08388 137.277C8.08388 137.277 8.0443 135.44 8.46159 132.192C8.88115 128.943 11.2447 122.498 12.0329 120.281L10.8715 120.445C10.081 121.629 9.04286 123.579 8.08161 126.044C6.77658 129.387 5.61517 133.678 5.39578 138.306C5.23632 141.689 5.04521 146.457 4.88236 150.849V150.852C4.88236 150.852 4.88123 150.853 4.88236 150.856L4.88123 150.89C4.78058 153.531 4.69011 156.035 4.62 158.014Z" fill="#FF6A23"/>
</g>
<path d="M21.3962 128.854C29.4797 129.693 43.3047 129.796 43.8079 120.485C43.8147 120.363 43.8192 120.24 43.8192 120.12C43.9911 111.111 31.9586 108.71 26.3189 109.063C17.6699 109.606 11.2375 110.829 9.07073 115.798C8.82986 116.347 8.64213 116.945 8.50982 117.591C7.18104 124.075 13.3138 128.016 21.3962 128.854Z" fill="#D08610"/>
<path d="M21.0076 149.893L20.7272 149.962C20.8199 149.954 20.9126 149.929 21.0076 149.893Z" fill="#645A6D"/>
<path d="M44.5903 132.607L44.9635 134.524C44.6966 133.993 44.5552 133.391 44.5767 132.756C44.579 132.706 44.5858 132.657 44.5903 132.607Z" fill="#6D2E18"/>
<path d="M45.0448 134.947L44.9634 134.525C45.0256 134.649 45.0957 134.769 45.1703 134.884L45.0448 134.947Z" fill="#645A6D"/>
<path opacity="0.5" d="M21.0076 149.893L20.7272 149.962C20.8199 149.954 20.9126 149.929 21.0076 149.893Z" fill="#645A6D"/>
<path d="M7.56694 150.49C7.60652 150.616 7.65062 150.737 7.69699 150.851C8.22737 152.166 9.12642 152.864 9.12642 152.864L20.727 149.962C20.1989 150.028 19.6911 149.687 19.2715 149.13C18.0106 147.477 17.5006 143.887 19.4706 143.176L7.94804 146.179C7.79085 146.531 7.66758 146.868 7.57259 147.193C7.19148 148.51 7.28648 149.615 7.56694 150.49Z" fill="#645A6D"/>
<path d="M18.8612 148.478C19.4041 149.527 20.1979 150.214 21.0077 149.893C21.8162 149.571 22.1431 148.472 22.1159 147.251C22.0695 145.129 20.9669 142.636 19.4697 143.175C17.7304 143.804 17.9249 146.676 18.8612 148.478Z" fill="#6D2E18"/>
<path opacity="0.5" d="M7.69763 150.851C8.22801 152.166 9.12706 152.864 9.12706 152.864L20.7276 149.962C20.1995 150.028 19.6917 149.687 19.2722 149.13C16.16 149.86 11.7846 150.876 10.3642 151.022C9.26729 151.132 8.35128 151.009 7.69763 150.851Z" fill="#645A6D"/>
<path opacity="0.3" d="M18.8613 148.478C19.4041 149.527 20.198 150.214 21.0077 149.893C21.8163 149.572 22.1431 148.472 22.116 147.251C21.1423 147.655 19.8328 148.174 18.8613 148.478Z" fill="#6D2E18"/>
<path d="M7.56711 150.491L17.4227 147.39L17.1954 145.139L9.17522 147.003L7.57163 147.195C7.19166 148.511 7.28665 149.616 7.56711 150.491Z" fill="#7C7484"/>
<path opacity="0.3" d="M21.3962 128.854C29.4797 129.693 43.3047 129.796 43.8079 120.485C43.8147 120.363 43.8193 120.24 43.8193 120.12C41.8074 126.163 29.2434 128.822 19.5585 126.865C9.42923 124.814 8.8016 118.633 9.07188 115.798C8.831 116.347 8.64327 116.946 8.51096 117.591C7.18105 124.075 13.3138 128.016 21.3962 128.854Z" fill="#C58216"/>
<path d="M3.10998 143.496C2.70513 142.023 5.00646 140.153 6.8317 139.788C7.7217 139.611 8.49975 139.795 8.78699 140.564L5.79356 131.233C5.79356 131.233 3.00594 130.044 0.87084 132.215C0.607346 132.481 0.35516 132.802 0.117676 133.179L3.10998 143.496Z" fill="#645A6D"/>
<path d="M3.10973 143.496C3.51571 144.972 6.27619 144.049 7.81758 142.674C8.57074 142.002 9.02988 141.225 8.78561 140.564C8.452 139.674 7.46248 139.566 6.40059 139.899C4.66808 140.438 2.73428 142.137 3.10973 143.496Z" fill="#6D2E18"/>
<path opacity="0.5" d="M0.871094 132.214L3.95387 132.851C3.95387 132.851 5.58573 136.862 6.83196 139.788C7.72196 139.61 8.5 139.794 8.78725 140.563L5.79381 131.233C5.79381 131.233 3.00619 130.045 0.871094 132.214Z" fill="#645A6D"/>
<path opacity="0.3" d="M6.401 139.899L7.81912 142.674C8.57229 142.002 9.03143 141.225 8.78716 140.564C8.45355 139.674 7.46403 139.566 6.401 139.899Z" fill="#6D2E18"/>
<path d="M4.63457 139.708C4.95687 139.718 2.47459 134.33 2.47459 134.33L0.771484 133.456L3.05699 141.082C3.05699 141.082 4.02389 139.686 4.63457 139.708Z" fill="#7C7484"/>
<path d="M33.6759 150.184C34.1995 150.992 35.0341 151.5 35.9094 151.823C37.6215 152.455 39.4897 152.366 39.4897 152.366L44.78 140.656C43.7995 139.399 42.6483 138.787 41.6034 138.509C39.9625 138.072 38.5907 138.461 38.5907 138.461L33.6759 150.184Z" fill="#645A6D"/>
<path opacity="0.5" d="M33.6759 150.184C34.1995 150.992 35.0341 151.5 35.9094 151.823C36.7858 148.87 38.429 143.416 38.8994 142.62C39.3631 141.835 40.8117 139.676 41.6034 138.509C39.9625 138.072 38.5907 138.461 38.5907 138.461L33.6759 150.184Z" fill="#645A6D"/>
<path d="M44.1692 140.661L42.2761 139.373L37.2821 151.132L39.6253 151.212L44.1692 140.661Z" fill="#7C7484"/>
<path d="M32.0685 124.847C32.0685 124.847 32.7753 126.182 33.7953 128.288C34.0339 128.779 34.2918 129.316 34.5598 129.886C36.8544 134.755 40.031 142.172 40.9391 147.586C42.0655 154.307 42.476 160.839 42.6071 163.514C43.2789 163.058 43.8952 162.574 44.4539 162.075L44.4867 162.055C44.4867 162.013 44.4889 162.055 44.4912 162.041C45.008 159.76 43.9325 150.196 42.5257 144.284C42.3798 143.678 42.2272 143.112 42.0643 142.595C40.1011 136.408 34.51 125.067 34.51 125.067L32.0685 124.847Z" fill="#FCB97C"/>
<path d="M14.653 148.858C14.6812 151.045 17.6962 161.38 19.1098 166.108C19.7725 166.264 20.4419 166.406 21.1159 166.528C19.9624 161.984 17.0934 150.591 16.8401 148.525C16.5223 145.93 18.2028 124.777 18.2028 124.777L16.0428 124.294C16.0428 124.294 15.9659 125.452 15.8506 127.269C15.5305 132.261 14.9029 142.231 14.7106 146.792V146.8C14.6688 147.757 14.6484 148.476 14.653 148.858Z" fill="#FCB97C"/>
<path d="M10.8713 120.446C9.50406 120.67 4.22399 135.852 3.61444 137.736C3.00603 139.618 4.0634 157.263 4.0634 157.263C4.0634 157.263 2.00746 144.888 2.24608 137.961C2.24608 137.961 4.67634 124.652 10.5863 117.887L10.8713 120.446Z" fill="#DB9963"/>
<path d="M43.311 126.05L44.5901 132.608C44.6986 131.178 45.6124 129.987 46.8744 129.481C47.3336 129.292 47.8413 129.197 48.3717 129.216C49.5535 129.257 50.5871 129.854 51.2272 130.75L48.7528 125.966C48.7528 125.966 48.02 125.511 46.9457 125.312C45.9279 125.125 44.6002 125.165 43.311 126.05Z" fill="#645A6D"/>
<path d="M44.5903 132.608L44.9635 134.526C45.0257 134.649 45.0958 134.769 45.1705 134.883C45.8026 135.849 46.8758 136.506 48.1164 136.55C48.847 136.575 49.5323 136.386 50.1158 136.036C51.1539 135.422 51.8653 134.304 51.9116 133.009C51.9399 132.167 51.6798 131.385 51.2263 130.75C50.5863 129.854 49.5526 129.257 48.3709 129.216C47.7545 129.195 47.1721 129.326 46.6531 129.577C45.5086 130.13 44.6898 131.264 44.5903 132.608Z" fill="#6D2E18"/>
<path opacity="0.5" d="M43.311 126.049L44.5901 132.607C44.6986 131.178 45.6124 129.987 46.8744 129.48L46.9468 125.311C45.9279 125.124 44.6002 125.165 43.311 126.049Z" fill="#645A6D"/>
<path opacity="0.3" d="M44.5903 132.607L44.9635 134.525C45.0257 134.648 45.0958 134.768 45.1705 134.882C45.8026 135.848 46.8758 136.505 48.1164 136.549C48.847 136.574 49.5323 136.385 50.1158 136.036C48.2499 133.76 47.154 131.049 46.6531 129.576C45.5086 130.129 44.6898 131.263 44.5903 132.607Z" fill="#6D2E18"/>
<path d="M48.0352 126.11C48.1302 126.317 48.2579 128.464 48.2579 128.464L49.7665 129.128L48.0352 126.11Z" fill="#7C7484"/>
<path d="M40.603 121.775C40.8088 121.801 41.1922 122.692 41.6921 124.173C41.864 124.68 42.0472 125.256 42.2417 125.89C44.6471 133.739 48.6538 150.527 49.0778 155.6C49.5924 154.399 49.9 153.35 50.0719 152.607C49.1242 148.03 44.6934 126.833 43.0548 121.69L42.0144 120.198L41.4976 119.461L41.078 120.545L40.603 121.775Z" fill="#FCB97C"/>
<path d="M23.338 125.633C23.338 125.633 23.5653 126.781 23.9385 128.705C24.2303 130.212 24.6148 132.195 25.0536 134.473C27.0586 144.909 30.2092 161.553 30.9488 167.147C31.6602 167.101 32.3579 167.032 33.0466 166.943C32.2211 161.936 27.5845 134.086 25.6382 125.986L23.338 125.633Z" fill="#FCB97C"/>
<path d="M42.1812 114.742C42.1812 114.742 41.0899 114.577 40.6025 114.714L40.3967 114.758L39.7136 113.868C39.7136 113.868 40.4645 113.512 41.151 113.56C41.151 113.56 42.1167 114.408 42.1812 114.742Z" fill="#FCB97C"/>
<path d="M36.1817 110.558C36.1817 110.558 35.1989 110.931 34.9377 111.076L33.7277 110.754C33.7277 110.754 34.0013 110.151 34.465 110.04C34.465 110.04 35.8809 110.344 36.1817 110.558Z" fill="#FCB97C"/>
<path d="M29.2228 109.07C29.2228 109.07 28.9468 109.647 28.8055 110.074L27.2019 110.02C27.2019 110.02 27.3036 109.259 27.186 109C27.186 109 28.637 109.024 29.2228 109.07Z" fill="#FCB97C"/>
<path d="M22.79 109.28L22.7278 110.298L21.2916 110.555C21.2916 110.555 21.1706 109.633 21.1242 109.504C21.079 109.375 22.1499 109.31 22.79 109.28Z" fill="#FCB97C"/>
<path d="M15.5296 112.091L15.2695 110.731C15.2695 110.731 13.8786 111.168 13.3301 111.506L14.1545 112.758C14.1545 112.758 15.3996 112.162 15.5296 112.091Z" fill="#FCB97C"/>
<path d="M24.347 126.205C24.9678 126.229 25.6147 126.242 26.2842 126.243C30.0783 126.245 32.9541 125.853 35.1299 125.219C42.2578 123.135 42.1334 118.386 41.4029 116.295C39.2587 110.142 28.1173 109.063 20.0315 110.7C16.2058 111.475 13.0631 112.855 11.8813 114.596C8.74198 119.219 9.94411 125.672 24.347 126.205Z" fill="#FCB97C"/>
<path d="M25.4729 112.688C33.7136 112.241 37.389 116.887 36.0308 119.267C34.0846 122.673 17.8045 123.025 15.0214 118.908C12.2405 114.792 20.1816 112.977 25.4729 112.688Z" fill="#FFC799"/>
<path d="M31.1588 117.454C30.8015 120.378 19.3536 120.521 19.832 117.247C20.3092 113.973 31.6689 113.268 31.1588 117.454Z" fill="#485758"/>
<path d="M41.6108 117.221C42.3311 117.042 47.687 124.364 50.0019 128.219C50.0019 128.219 44.8801 114.071 41.2534 115.782L41.6108 117.221Z" fill="#FCB97C"/>
<path opacity="0.3" d="M24.347 126.206C20.2566 120.867 19.863 114.333 20.0315 110.7C16.2058 111.475 13.0631 112.856 11.8813 114.596C8.74198 119.219 9.94411 125.672 24.347 126.206Z" fill="#E5BC9C"/>
<defs>
<linearGradient id="paint0_linear_110_875" x1="50.0221" y1="2.7111" x2="49.9412" y2="-0.120005" gradientUnits="userSpaceOnUse">
<stop stop-color="#89631B"/>
<stop offset="1" stop-color="#9E6A10"/>
</linearGradient>
<radialGradient id="paint1_radial_110_875" cx="0" cy="0" r="1" gradientUnits="userSpaceOnUse" gradientTransform="translate(60.1343 45.7179) scale(15.3742 15.3742)">
<stop offset="0.0051" stop-color="#C56A1F"/>
<stop offset="1" stop-color="#BE6121"/>
</radialGradient>
<linearGradient id="paint2_linear_110_875" x1="60.7904" y1="106.589" x2="46.2997" y2="153.995" gradientUnits="userSpaceOnUse">
<stop stop-color="#B0591C"/>
<stop offset="1" stop-color="#9C4B15"/>
</linearGradient>
<linearGradient id="paint3_linear_110_875" x1="51.0832" y1="158.978" x2="53.9814" y2="105.155" gradientUnits="userSpaceOnUse">
<stop stop-color="#BBB0B6"/>
<stop offset="1" stop-color="#C2BBAB"/>
</linearGradient>
<linearGradient id="paint4_linear_110_875" x1="49.9832" y1="36.4678" x2="48.9481" y2="0.240033" gradientUnits="userSpaceOnUse">
<stop stop-color="#89631B"/>
<stop offset="1" stop-color="#9E6A10"/>
</linearGradient>
<linearGradient id="paint5_linear_110_875" x1="48.6306" y1="33.6078" x2="53.185" y2="130.697" gradientUnits="userSpaceOnUse">
<stop stop-color="#956922"/>
<stop offset="1" stop-color="#925522"/>
</linearGradient>
<linearGradient id="paint6_linear_110_875" x1="92.7854" y1="111.372" x2="77.4345" y2="165.205" gradientUnits="userSpaceOnUse">
<stop stop-color="#F24C00"/>
<stop offset="1" stop-color="#D32600"/>
</linearGradient>
<linearGradient id="paint7_linear_110_875" x1="107.375" y1="148.174" x2="89.963" y2="147.376" gradientUnits="userSpaceOnUse">
<stop stop-color="#F24C00"/>
<stop offset="1" stop-color="#D32600"/>
</linearGradient>
<linearGradient id="paint8_linear_110_875" x1="83.5969" y1="145.935" x2="59.2588" y2="144.819" gradientUnits="userSpaceOnUse">
<stop stop-color="#F24C00"/>
<stop offset="1" stop-color="#D32600"/>
</linearGradient>
<linearGradient id="paint9_linear_110_875" x1="110.112" y1="131.648" x2="60.6181" y2="129.379" gradientUnits="userSpaceOnUse">
<stop stop-color="#F24C00"/>
<stop offset="1" stop-color="#D32600"/>
</linearGradient>
<linearGradient id="paint10_linear_110_875" x1="107.671" y1="143.833" x2="103.655" y2="143.649" gradientUnits="userSpaceOnUse">
<stop stop-color="#F24C00"/>
<stop offset="1" stop-color="#D32600"/>
</linearGradient>
<linearGradient id="paint11_linear_110_875" x1="98.4789" y1="148.795" x2="94.8805" y2="148.63" gradientUnits="userSpaceOnUse">
<stop stop-color="#F24C00"/>
<stop offset="1" stop-color="#D32600"/>
</linearGradient>
<linearGradient id="paint12_linear_110_875" x1="87.3801" y1="149.79" x2="79.214" y2="149.416" gradientUnits="userSpaceOnUse">
<stop stop-color="#F24C00"/>
<stop offset="1" stop-color="#D32600"/>
</linearGradient>
<linearGradient id="paint13_linear_110_875" x1="74.0918" y1="146.472" x2="67.5568" y2="146.172" gradientUnits="userSpaceOnUse">
<stop stop-color="#F24C00"/>
<stop offset="1" stop-color="#D32600"/>
</linearGradient>
<linearGradient id="paint14_linear_110_875" x1="64.0767" y1="139.68" x2="60.386" y2="139.511" gradientUnits="userSpaceOnUse">
<stop stop-color="#F24C00"/>
<stop offset="1" stop-color="#D32600"/>
</linearGradient>
<linearGradient id="paint15_linear_110_875" x1="57.5274" y1="129.625" x2="105.011" y2="118.949" gradientUnits="userSpaceOnUse">
<stop stop-color="#C58216"/>
<stop offset="1" stop-color="#D09004"/>
</linearGradient>
<radialGradient id="paint16_radial_110_875" cx="0" cy="0" r="1" gradientUnits="userSpaceOnUse" gradientTransform="translate(86.1994 121.886) rotate(-177.375) scale(17.8289 12.3744)">
<stop stop-color="#FCB97C"/>
<stop offset="1" stop-color="#FFC799"/>
</radialGradient>
<radialGradient id="paint17_radial_110_875" cx="0" cy="0" r="1" gradientUnits="userSpaceOnUse" gradientTransform="translate(39.5367 136.015) rotate(-178.029) scale(27.3125 27.3125)">
<stop stop-color="#FF6A23"/>
<stop offset="0.9949" stop-color="#F54D01"/>
</radialGradient>
<linearGradient id="paint18_linear_110_875" x1="35.8395" y1="139.712" x2="29.829" y2="139.505" gradientUnits="userSpaceOnUse">
<stop stop-color="#F24C00"/>
<stop offset="1" stop-color="#D32600"/>
</linearGradient>
</defs>
</svg>
