<svg width="229" height="136" viewBox="0 0 229 136" fill="none" xmlns="http://www.w3.org/2000/svg">
<path d="M196.535 54.1337C196.535 54.1337 195.194 58.5423 202.763 60.3583C209.46 61.9652 211.267 59.5552 211.267 59.5552C211.267 59.5552 210.993 55.2995 206.037 53.5317C203.558 52.6471 199.748 51.5103 196.535 54.1337Z" fill="#7D4E2F"/>
<path d="M199.246 42.94C199.246 42.94 198.05 45.6218 201.956 47.7785C205.862 49.9356 218.683 50.5768 218.683 50.5768C218.683 50.5768 203.181 40.3751 199.246 42.94Z" fill="#7D4E2F"/>
<path d="M200.469 72.2126C200.469 72.2126 200.57 80.7577 203.003 82.5902C205.435 84.4227 207.011 81.9005 207.113 79.3205C207.215 76.7402 205.513 75.3659 205.685 73.816C205.856 72.2661 206.697 67.6977 204.073 67.7844C201.449 67.8712 200.006 69.0314 200.469 72.2126Z" fill="#7D4E2F"/>
<path d="M205.684 73.816C205.855 72.2661 206.696 67.6977 204.073 67.7844C204.012 67.7865 203.956 67.7921 203.896 67.7953C204.446 68.5123 205.287 70.2143 204.877 73.6632C204.313 78.4107 207.283 75.4065 205.738 82.7847C206.566 82.1065 207.057 80.7231 207.113 79.3205C207.215 76.7402 205.513 75.3659 205.684 73.816Z" fill="#E37B3A"/>
<path d="M199.246 52.0911C199.246 52.0911 194.174 65.1452 194.261 67.8595C194.349 70.5738 195.835 73.676 199.246 74.0048C202.656 74.3336 205.279 69.9973 205.979 67.3562C206.678 64.715 211.266 56.5826 211.266 56.5826C211.266 56.5826 202.918 51.0974 199.246 52.0911Z" fill="#F29D98"/>
<path d="M211.266 56.5823C211.266 56.5823 202.918 51.0974 199.246 52.0911C199.246 52.0911 197.24 57.2552 195.772 61.7628C197.8 62.2015 203.18 63.5051 206.619 65.6307C208.087 62.2186 211.266 56.5823 211.266 56.5823Z" fill="#D17171"/>
<path d="M207.032 64.7073C208.61 61.292 211.266 56.5823 211.266 56.5823C211.266 56.5823 202.918 51.0974 199.246 52.0911C199.246 52.0911 197.551 56.4532 196.138 60.6586C198.231 60.8422 204.087 61.6222 207.032 64.7073Z" fill="#3C3121"/>
<path d="M199.246 52.0911C199.246 52.0911 198.614 53.7169 197.802 55.9373C200.386 56.4518 204.782 57.8887 208.417 61.8828C209.813 59.1591 211.267 56.5823 211.267 56.5823C211.267 56.5823 202.918 51.0974 199.246 52.0911Z" fill="#FDE4A2"/>
<path d="M212.625 63.2275C212.625 63.2275 212.799 72.0595 213.936 74.5079C213.936 74.5079 211.22 77.4811 211.266 81.7659C211.313 86.0507 208.165 97.1562 208.165 97.1562L212.712 98.2055C212.712 98.2055 220.407 86.3714 220.582 82.9317C220.757 79.4923 220.057 75.8196 220.057 75.8196C220.057 75.8196 221.194 74.9452 221.457 73.1963C221.719 71.4474 223.73 63.2275 223.73 63.2275H212.625Z" fill="#D17171"/>
<path d="M208.165 97.1564L212.712 98.2057C212.712 98.2057 213.634 96.787 214.847 94.7902C211.925 94.4551 210.191 93.2403 209.388 92.498C208.736 95.1406 208.165 97.1564 208.165 97.1564Z" fill="#F7CB6B"/>
<path d="M223.73 63.2275H212.625C212.625 63.2275 212.683 66.1674 212.951 69.1252C214.48 70.2466 217.371 71.4921 222.044 70.3613C222.725 67.3354 223.73 63.2275 223.73 63.2275Z" fill="#FDE4A2"/>
<path d="M203.939 19.272L192.687 22.6534C192.687 22.6534 191.959 21.6915 190.589 21.2833C189.218 20.8751 187.091 19.8551 187.091 19.8551L185.766 18.0625C185.766 18.0625 185.196 18.6599 185.459 19.7386C185.721 20.817 186.741 22.0997 187.353 22.6534C187.966 23.2071 190.356 25.3589 190.385 25.9735C190.414 26.5884 188.753 28.8658 189.685 30.3065C189.685 30.3065 190.385 30.7854 190.589 30.0858C190.793 29.3863 191.23 28.6283 192.192 28.2204C193.154 27.8123 193.475 26.0927 193.475 26.0927C193.475 26.0927 194.932 25.7377 196.156 25.9735C197.381 26.2092 202.103 27.4334 204.347 25.1308L203.939 19.272Z" fill="#F29D98"/>
<path d="M203.939 19.2715L200.734 20.2348C200.48 23.0935 201.752 25.1565 202.59 26.1793C203.252 25.9656 203.858 25.6319 204.346 25.1303L203.939 19.2715Z" fill="#D17171"/>
<path d="M202.656 41.541C202.656 41.541 196.972 51.8595 196.535 54.1331C196.535 54.1331 205.367 52.9963 210.613 59.5547L211.631 57.5434V65.326C211.631 65.326 218.221 69.5202 223.555 65.8489C223.555 65.8489 226.354 57.456 225.96 50.5041L202.656 41.541Z" fill="#E37B3A"/>
<path d="M225.96 50.5041L202.656 41.541C202.656 41.541 201.222 44.1441 199.74 47.0235C199.741 47.0235 207.023 47.6041 209.387 50.5772C211.643 53.415 211.428 62.5208 224.378 62.9892C225.169 59.9321 226.21 54.9278 225.96 50.5041Z" fill="#CC6329"/>
<path d="M227.315 42.4743C227.49 38.9181 226.732 33.5235 225.129 31.9652C222.79 27.7255 217.544 22.4295 205.892 18.3248L204.318 18.0625C204.318 18.0625 201.563 19.5053 201.519 24.8832C201.519 24.8832 201.519 27.113 202.787 27.7252C202.787 27.7252 203.724 32.3891 204.886 34.7208C204.886 34.7208 204.099 35.5078 204.318 36.5134C204.318 36.5134 203.137 37.3441 202.35 39.4865C201.563 41.6289 199.246 42.9406 199.246 42.9406C199.246 42.9406 201.957 42.241 206.547 45.6514C211.138 49.0617 213.456 50.1985 213.456 50.1985C213.456 50.1985 218.79 52.4721 221.675 52.0348C223.3 51.7886 224.454 51.3346 225.152 50.9848C228.022 51.2038 228.316 50.1509 228.365 49.1782C228.423 48.0124 227.14 46.0302 227.315 42.4743Z" fill="#7D4E2F"/>
<path d="M211.867 31.9806C211.867 31.9806 219.567 29.5906 215.775 22.8863C214.534 22.1322 213.155 21.3896 211.627 20.667C208.788 24.6769 211.867 31.9806 211.867 31.9806Z" fill="#D17171"/>
<path d="M208.369 24.8394C208.369 24.8394 207.145 25.0143 206.591 22.8281C206.591 22.8281 204.288 22.1286 204.609 19.039C204.929 15.9494 208.165 16.9403 208.165 16.9403C208.165 16.9403 208.194 15.5996 209.855 15.891C209.855 15.891 212.129 13.53 214.898 16.4447C214.898 16.4447 216.938 15.7161 218.309 18.0771C219.679 20.4381 216.851 24.9852 216.851 24.9852L209.272 25.6848L208.369 24.8394Z" fill="#3C3121"/>
<path d="M209.826 23.1777C209.826 23.1777 209.826 30.8145 210.701 33.5546C210.701 33.5546 216.09 32.1842 217.663 29.0659C219.521 25.3821 217.879 24.2645 217.879 24.2645" stroke="#3C3121" stroke-width="0.5" stroke-miterlimit="10" stroke-linecap="round" stroke-linejoin="round"/>
<path d="M207.932 21.7784C207.932 21.7784 207.611 26.7918 209.535 30.4645C209.535 30.4645 210.496 32.2424 213.091 30.6394C215.685 29.0363 216.326 28.2784 216.297 26.8792L216.181 26.1507C216.181 26.1507 217.492 26.4564 217.638 25.0429C217.743 24.0264 217.551 22.3611 216.414 23.1191C216.414 23.1191 215.889 23.7896 215.831 24.9845C215.831 24.9845 214.782 24.9845 214.548 22.7693C214.548 22.7693 212.246 22.9442 210.934 21.6035C210.934 21.6035 209.331 22.274 207.932 21.7784Z" fill="#F29D98"/>
<path d="M207.932 21.7784C207.932 21.7784 207.922 21.9411 207.916 22.2247C208.555 22.4818 209.705 22.7753 210.898 22.2373C210.898 22.2373 212.481 23.8757 214.614 23.2195C214.588 23.0796 214.566 22.932 214.549 22.7693C214.549 22.7693 212.246 22.9442 210.934 21.6035C210.934 21.6035 209.331 22.274 207.932 21.7784Z" fill="#D17171"/>
<path d="M208.895 94.4473L209.594 96.8069C209.594 96.8069 209.71 94.9996 210.468 94.9996C211.226 94.9996 213.091 97.7978 216.239 97.5064C216.239 97.5064 215.015 99.4302 213.033 99.8384L214.141 107.009C214.141 107.009 215.948 108 215.948 109.224V110.682C215.948 110.682 213.909 112.197 208.895 110.682C203.881 109.166 204.813 106.076 205.222 105.202C205.63 104.327 206.933 101.095 206.271 99.2553C205.221 96.3406 206.68 94.5942 208.895 94.4473Z" fill="#7D4E2F"/>
<path d="M207.903 108.757C204.209 106.247 208.427 101.82 207.436 99.896C206.747 98.5585 206.509 96.7162 206.428 95.7158C205.862 96.5392 205.724 97.7365 206.27 99.2545C206.932 101.094 205.629 104.326 205.221 105.201C204.813 106.075 203.88 109.165 208.894 110.681C213.909 112.196 215.947 110.681 215.947 110.681V109.355C213.798 109.898 210.305 110.389 207.903 108.757Z" fill="#E37B3A"/>
<path d="M223.118 50.6943C227.656 51.5796 228.254 50.4691 228.352 49.3568C228.253 48.5572 227.657 47.7454 225.998 47.1965C221.591 45.739 216.454 46.4305 216.454 46.4305C216.454 46.4305 218.338 49.7615 223.118 50.6943Z" fill="#7D4E2F"/>
<path d="M216.997 46.3222C216.997 46.3222 214.607 46.5171 213.965 48.8679C213.324 51.2192 207.611 55.8828 207.611 55.8828C207.611 55.8828 204.055 57.5152 204.346 59.9052C204.638 62.2953 202.481 64.0442 202.481 64.0442C202.481 64.0442 201.023 64.5104 200.965 66.1429C200.907 67.7753 198.983 69.932 200.091 69.9904C201.199 70.0488 202.288 69.2909 202.763 66.8424C202.763 66.8424 203.355 65.8515 203.997 65.7931C203.997 65.7931 203.239 70.704 204.346 70.8425C205.454 70.9814 205.454 70.2818 205.454 70.2818C205.454 70.2818 206.154 70.69 206.678 70.1069C207.203 69.5238 207.669 68.8243 207.669 68.8243C207.669 68.8243 208.777 68.8827 209.36 68.2412C209.943 67.6 211.19 65.1516 211.266 64.2187C211.342 63.2859 211.266 59.5551 211.266 59.5551C211.266 59.5551 222.957 54.9642 224.459 52.7344C225.96 50.5046 225.998 47.1963 225.998 47.1963C225.998 47.1963 223.001 45.8556 216.997 46.3222Z" fill="#F29D98"/>
<path d="M204.346 70.8425C205.454 70.9814 205.454 70.2818 205.454 70.2818C205.454 70.2818 206.154 70.69 206.678 70.1069C207.203 69.5239 207.669 68.8243 207.669 68.8243C207.669 68.8243 208.777 68.8827 209.36 68.2412C209.943 67.6001 211.19 65.1516 211.266 64.2188C210.665 64.9767 209.126 65.5595 207.117 66.0261C205.107 66.4923 203.996 65.7928 203.996 65.7928C203.996 65.7928 203.239 70.7037 204.346 70.8425Z" fill="#D17171"/>
<path d="M225.998 47.1966C225.998 47.1966 223.002 45.8559 216.997 46.3221C216.997 46.3221 216.601 46.3571 216.09 46.5526C216.09 46.5526 222.025 47.6912 225.412 50.6779C225.975 48.8947 225.998 47.1966 225.998 47.1966Z" fill="#D17171"/>
<path d="M207.611 55.8821C207.611 55.8821 207.289 56.0304 206.849 56.3011C206.849 56.3011 209.967 56.9314 211.266 59.5548C211.266 59.5548 212.114 59.2218 213.377 58.694L213.324 58.5418C213.324 58.5418 214.661 54.037 210.261 53.5312C208.863 54.8597 207.611 55.8821 207.611 55.8821Z" fill="#F7CB6B"/>
<path d="M204.886 34.7207C204.886 34.7207 207.58 38.8016 208.878 39.7341" stroke="white" stroke-width="0.5" stroke-miterlimit="10" stroke-linecap="round" stroke-linejoin="round"/>
<path d="M209.386 43.667C209.896 44.0699 210.434 44.4029 210.992 44.6317" stroke="white" stroke-width="0.5" stroke-miterlimit="10" stroke-linecap="round" stroke-linejoin="round"/>
<path d="M204.317 36.5137C204.317 36.5137 205.908 40.1944 208.326 42.6992" stroke="white" stroke-width="0.5" stroke-miterlimit="10" stroke-linecap="round" stroke-linejoin="round"/>
<path d="M202.787 27.7252C202.787 27.7252 202.947 23.9941 203.764 22.8867" stroke="white" stroke-width="0.5" stroke-miterlimit="10" stroke-linecap="round" stroke-linejoin="round"/>
<path d="M216.454 46.4307C216.454 46.4307 218.038 40.3176 217.663 36.7617" stroke="white" stroke-width="0.5" stroke-miterlimit="10" stroke-linecap="round" stroke-linejoin="round"/>
<path d="M187.091 19.8555C187.091 19.8555 188.781 21.546 189.598 21.8957" stroke="#7D4E2F" stroke-width="0.5" stroke-miterlimit="10" stroke-linecap="round" stroke-linejoin="round"/>
<path d="M213.936 74.5078L215.306 77.1021" stroke="#7D4E2F" stroke-width="0.5" stroke-miterlimit="10" stroke-linecap="round" stroke-linejoin="round"/>
<path d="M217.23 78.2094C217.23 78.2094 218.688 77.16 220.057 75.8193" stroke="#7D4E2F" stroke-width="0.5" stroke-miterlimit="10" stroke-linecap="round" stroke-linejoin="round"/>
<path d="M211.867 31.9805L210.425 32.3876" stroke="#3C3121" stroke-width="0.5" stroke-miterlimit="10" stroke-linecap="round" stroke-linejoin="round"/>
<path d="M217.087 44.6311C217.087 44.6311 225.127 43.474 227.751 46.5521" stroke="#3C3121" stroke-width="0.5" stroke-miterlimit="10" stroke-linecap="round" stroke-linejoin="round"/>
<path d="M205.454 70.2818L206.037 64.707" stroke="#7D4E2F" stroke-width="0.5" stroke-miterlimit="10" stroke-linecap="round" stroke-linejoin="round"/>
<path d="M207.669 68.8241L208.878 64.9766" stroke="#7D4E2F" stroke-width="0.5" stroke-miterlimit="10" stroke-linecap="round" stroke-linejoin="round"/>
<path d="M203.997 65.793L204.317 64.1025" stroke="#7D4E2F" stroke-width="0.5" stroke-miterlimit="10" stroke-linecap="round" stroke-linejoin="round"/>
<path d="M210.992 52.8186C210.992 52.8186 208.97 48.4491 207.912 47.6621" stroke="#7D4E2F" stroke-width="0.5" stroke-miterlimit="10" stroke-linecap="round" stroke-linejoin="round"/>
<path d="M212.211 59.1758L217.23 62.9894" stroke="#7D4E2F" stroke-width="0.5" stroke-miterlimit="10" stroke-linecap="round" stroke-linejoin="round"/>
<path d="M214.621 59.1758C214.621 59.1758 218.533 61.5868 221.044 61.8831" stroke="#7D4E2F" stroke-width="0.5" stroke-miterlimit="10" stroke-linecap="round" stroke-linejoin="round"/>
<path d="M214.14 107.009C214.14 107.009 211.76 106.079 209.258 106.819" stroke="white" stroke-width="0.5" stroke-miterlimit="10" stroke-linecap="round" stroke-linejoin="round"/>
<path d="M209.608 24.752C209.608 24.752 208.952 27.5285 209.367 27.7251C209.782 27.9217 210.701 27.4844 210.701 27.4844" stroke="#D17171" stroke-width="0.5" stroke-miterlimit="10" stroke-linecap="round" stroke-linejoin="round"/>
<path d="M209.226 24.9616C209.228 25.227 209.073 25.4436 208.88 25.445C208.687 25.4464 208.528 25.2323 208.526 24.9668C208.524 24.7013 208.68 24.4848 208.873 24.4834C209.066 24.4817 209.224 24.6957 209.226 24.9616Z" fill="#7D4E2F"/>
<path d="M212.247 25.0908C212.249 25.3563 212.093 25.5728 211.9 25.5742C211.707 25.5756 211.549 25.3615 211.547 25.0957C211.545 24.8299 211.7 24.6137 211.893 24.6123C212.086 24.6109 212.244 24.8253 212.247 25.0908Z" fill="#7D4E2F"/>
<path d="M208.296 23.681L209.586 24.3805C209.586 24.3805 209.717 23.682 209.345 23.3756L209.273 23.5355L208.165 22.916C208.165 22.916 207.947 23.4918 208.296 23.681Z" fill="#FDE4A2"/>
<path d="M212.577 23.7825L211.287 24.4821C211.287 24.4821 211.156 23.7836 211.528 23.4772L211.6 23.637L212.708 23.0176C212.708 23.0176 212.926 23.593 212.577 23.7825Z" fill="#FDE4A2"/>
<path d="M211.265 28.5336L212.515 28.2275" stroke="#7D4E2F" stroke-width="0.5" stroke-miterlimit="10" stroke-linecap="round" stroke-linejoin="round"/>
<path d="M158.232 77.918C158.232 77.918 156.667 80.2723 156.782 81.6746C156.897 83.0772 157.538 84.3889 155.731 86.1378C153.924 87.8867 155.268 93.0229 156.782 93.4279C158.296 93.8329 161.832 90.4226 161.769 87.5369C161.706 84.6512 162.144 78.4426 162.144 78.4426L158.232 77.918Z" fill="#E37B3A"/>
<path d="M154.869 89.0655C154.944 91.0446 155.829 93.173 156.782 93.428C157.829 93.7081 159.842 92.1635 160.965 90.2299C158.583 87.92 156.052 88.559 154.869 89.0655Z" fill="#3C3121"/>
<path d="M154.647 26.9209L150.557 31.2225C150.557 31.2225 148.502 33.4961 150.557 37.6934C150.557 37.6934 149.289 42.7652 150.339 45.9132C151.388 49.0612 150.951 52.0344 152.787 51.6846C154.623 51.3348 157.684 47.9245 157.684 47.9245L154.647 26.9209Z" fill="#F29D98"/>
<path d="M169.081 49.3528C169.081 49.3528 172.986 57.9808 172.374 63.5772C171.763 69.1737 163.543 76.8126 163.543 76.8126L163.116 79.1487C163.116 79.1487 161.269 81.6136 159.695 81.2086C158.121 80.8035 156.547 78.6797 156.46 76.8122L157.684 73.1958L158.121 67.8586L156.46 71.6218C156.46 71.6218 156.023 74.4459 154.886 75.3949C154.886 75.3949 154.361 82.465 153.05 84.3888C151.738 86.3126 149.115 91.2969 147.978 95.9315C147.978 95.9315 149.027 97.7678 147.978 98.9921L147.628 100.887L143.168 100.168C143.168 100.168 142.871 82.2989 144.025 77.3099C145.18 72.3214 148.94 69.1734 148.94 69.1734C148.94 69.1734 147.453 58.3302 148.852 54.1328C150.251 49.9355 155.731 47.1201 155.731 47.1201L169.081 49.3528Z" fill="#F29D98"/>
<path d="M172.418 61.574C172.148 56.1353 169.081 49.3534 169.081 49.3534L155.731 47.1211C155.731 47.1211 150.251 49.9365 148.852 54.1338C148.394 55.5064 148.246 57.5903 148.253 59.7726C150.799 61.9671 154.684 64.6972 158.231 64.6709C158.231 64.6709 159.135 61.4799 159.449 60.7751C159.449 60.7747 165.824 58.3217 172.418 61.574Z" fill="#D17171"/>
<path d="M143.248 86.7002C143.052 93.1631 143.168 100.168 143.168 100.168L147.628 100.888L147.977 98.9928C149.027 97.7686 147.977 95.9323 147.977 95.9323C148.622 93.3054 149.743 90.5674 150.833 88.3368C150.833 88.3368 149.313 89.1343 146.983 88.6639C144.655 88.1934 143.248 86.7002 143.248 86.7002Z" fill="#3C3121"/>
<path d="M146.984 88.6639C144.655 88.1934 143.248 86.7002 143.248 86.7002C143.223 87.5106 143.203 88.3295 143.188 89.1424C144.476 89.8423 147.121 91.0259 149.772 90.674C150.117 89.8563 150.477 89.0675 150.833 88.3368C150.833 88.3368 149.313 89.134 146.984 88.6639Z" fill="#87B753"/>
<path d="M172.33 60.4845C171.758 55.2714 169.081 49.3524 169.081 49.3524L155.731 47.1201C155.731 47.1201 150.251 49.9355 148.852 54.1328C148.799 54.293 148.751 54.4655 148.706 54.6439C149.481 56.8811 151.777 61.1589 158.384 63.8392C158.384 63.8392 159.396 60.254 160.464 58.8549C160.464 58.8549 166.46 55.6722 172.33 60.4845Z" fill="#87B753"/>
<path d="M149.745 52.3126C150.513 52.6382 151.675 52.6372 152.352 52.6463C153.843 52.6659 155.442 52.2934 156.891 51.9936C158.768 51.605 160.646 51.3741 162.537 51.2034C163.431 51.1226 164.208 51.0922 164.999 50.7201C163.7 50.3598 163.002 49.4161 162.643 48.2758L155.731 47.1201C155.731 47.1201 151.798 49.1418 149.745 52.3126Z" fill="#70993A"/>
<path d="M177.578 35.901C177.578 35.901 175.61 39.355 175.042 39.2239C174.473 39.0927 176.215 34.4735 177.796 33.7148L177.578 35.901Z" fill="#D17171"/>
<path d="M164.301 18.9217C164.301 18.9217 165.467 16.7065 167.565 16.065C169.664 15.4239 171.438 11.9782 174.502 11.0517C177.49 10.1482 178.175 10.8768 178.175 11.9845C178.175 13.0923 178.991 16.007 179.749 17.9308C180.507 19.8546 181.614 26.0922 180.215 30.6393C178.816 35.1864 177.388 39.034 177.621 40.2292C177.854 41.4244 175.814 39.034 176.688 37.3145C177.563 35.5946 177.271 33.2046 177.271 33.2046C177.271 33.2046 176.251 35.2449 174.91 35.2158C173.569 35.1868 175.522 33.8457 175.522 32.709C175.522 31.5722 175.945 30.0856 177.49 29.0363C177.49 29.0363 177.603 26.1307 176.444 23.7966C175.878 22.657 174.269 20.5398 174.036 19.4611L168.452 28.3951C168.453 28.3951 163.805 20.0585 164.301 18.9217Z" fill="#F29D98"/>
<path d="M180.419 29.8889C180.688 28.7752 180.826 27.5863 180.869 26.3991C180.044 26.1386 178.437 25.7454 177.219 26.14C177.54 27.715 177.491 29.0358 177.491 29.0358C177.491 29.0358 179.524 29.1827 180.419 29.8889Z" fill="#3C3121"/>
<path d="M157.247 23.7029L154.215 27.3756C154.215 27.3756 155.556 33.4384 154.215 36.5283C152.874 39.6179 155.731 42.3581 155.848 44.2819C155.964 46.2057 155.731 47.1214 155.731 47.1214C155.731 47.1214 158.232 51.0249 164.417 50.5195C168.557 50.1812 169.081 49.3537 169.081 49.3537C169.081 49.3537 168.323 45.0979 170.83 39.4434C170.83 39.4434 173.776 36.9743 171.529 32.0396C169.603 27.8101 164.825 21.5462 164.3 18.9229L157.247 23.7029Z" fill="#E37B3A"/>
<path d="M162.319 46.3432C162.256 45.1907 162.34 44.0329 162.406 42.8933C162.439 42.3291 162.824 41.256 162.406 40.8328C159.863 41.5725 156.805 41.236 154.215 40.1465C154.769 41.7425 155.779 43.1525 155.848 44.2809C155.964 46.2047 155.731 47.1204 155.731 47.1204C155.731 47.1204 158.232 51.0239 164.417 50.5185C164.43 50.5174 164.442 50.5164 164.455 50.5154C162.901 49.7868 162.412 48.0595 162.319 46.3432Z" fill="#CC6329"/>
<path d="M162.609 20.0684L157.247 23.7022L155.894 25.3413C156.237 28.6397 157.492 34.8731 162.085 34.7339C167.168 34.5804 163.968 23.9876 162.609 20.0684Z" fill="#F29D98"/>
<path d="M162.745 21.7347L162.574 20.0918L157.247 23.7022L155.894 25.3413C155.904 25.4399 157.567 26.6201 158.558 26.5879C161.051 26.5071 162.745 21.7347 162.745 21.7347Z" fill="#D17171"/>
<path d="M162.231 21.7354V26.5885" stroke="#7D4E2F" stroke-width="0.5" stroke-miterlimit="10" stroke-linecap="round" stroke-linejoin="round"/>
<path d="M155.657 14.1073C155.657 14.1073 151.355 11.9803 152.756 7.79065L153.299 9.17193C153.299 9.17193 153.351 5.58284 156.631 5.11973C159.911 4.65697 161.729 6.66506 162.797 8.87391C163.865 11.0828 165.436 12.662 166.394 12.5417C166.394 12.5417 165.74 13.0307 165.093 12.8782C165.093 12.8782 167.157 14.3819 168.453 13.0251C168.453 13.0251 166.15 17.3043 161.766 16.2011C157.382 15.0979 155.657 14.1073 155.657 14.1073Z" fill="#7D4E2F"/>
<path d="M161.051 13.2357C161.097 14.5631 159.947 15.6799 158.483 15.7303C157.019 15.7807 155.795 14.7457 155.75 13.4183C155.704 12.0909 156.854 10.974 158.318 10.9236C159.782 10.8733 161.006 11.9086 161.051 13.2357Z" fill="#87B753"/>
<path d="M155.377 20.0836C155.57 20.8234 155.385 21.5121 154.965 21.6219C154.545 21.7317 154.047 21.2211 153.854 20.4809C153.661 19.7411 153.845 19.0524 154.265 18.9426C154.686 18.8328 155.184 19.3438 155.377 20.0836Z" fill="#D17171"/>
<path d="M162.406 19.8415C162.265 20.5929 162.496 21.2676 162.923 21.348C163.35 21.4285 163.811 20.8849 163.953 20.1336C164.095 19.3823 163.864 18.7079 163.437 18.6271C163.009 18.5463 162.548 19.0902 162.406 19.8415Z" fill="#D17171"/>
<path d="M158.972 22.3317C161.619 22.2406 163.683 19.8092 163.583 16.9009C163.483 13.9926 161.256 11.7088 158.61 11.7999C155.963 11.891 153.899 14.3225 153.999 17.2308C154.099 20.1391 156.326 22.4228 158.972 22.3317Z" fill="#7D4E2F"/>
<path d="M157.605 15.6445C157.184 17.0188 155.781 18.6509 155.246 19.2385C155.109 19.3893 155.02 19.5775 155.002 19.7807C154.977 20.0591 154.968 20.3442 154.977 20.6348C155.123 24.8588 159.092 25.772 159.092 25.772C159.092 25.772 162.992 24.7045 162.843 20.3638C162.839 20.2732 162.835 20.1836 162.828 20.0944C162.793 19.6222 162.424 19.2389 161.952 19.2018C158.878 18.9608 157.605 15.6445 157.605 15.6445Z" fill="#F29D98"/>
<path d="M160.832 19.7387C160.832 19.7387 161.922 19.7814 162.843 20.4715C162.842 20.4355 162.844 20.4008 162.842 20.3641C162.839 20.2735 162.834 20.184 162.827 20.0948C162.792 19.6226 162.424 19.2392 161.952 19.2021C158.877 18.9608 157.605 15.6445 157.605 15.6445C157.493 16.0087 157.311 16.3906 157.096 16.767C157.742 17.8146 158.949 19.2826 160.832 19.7387Z" fill="#D17171"/>
<path d="M174.036 19.4617L175.872 15.6445" stroke="#7D4E2F" stroke-width="0.5" stroke-miterlimit="10" stroke-linecap="round" stroke-linejoin="round"/>
<path d="M158.383 63.8398C158.383 63.8398 157.946 65.6111 158.121 67.8592" stroke="#7D4E2F" stroke-width="0.5" stroke-miterlimit="10" stroke-linecap="round" stroke-linejoin="round"/>
<path d="M160.464 58.8552L163.116 53.4336" stroke="#7D4E2F" stroke-width="0.5" stroke-miterlimit="10" stroke-linecap="round" stroke-linejoin="round"/>
<path d="M161.105 57.5437C161.105 57.5437 158.238 54.7724 157.48 51.7129" stroke="#7D4E2F" stroke-width="0.5" stroke-miterlimit="10" stroke-linecap="round" stroke-linejoin="round"/>
<path d="M159.987 57.9998C159.987 57.9998 156.955 57.2229 155.731 56.1445" stroke="#7D4E2F" stroke-width="0.5" stroke-miterlimit="10" stroke-linecap="round" stroke-linejoin="round"/>
<path d="M167.587 30.2167C167.587 30.2167 170.56 29.7574 171.282 29.1236C171.897 28.5832 172.287 29.6266 171.391 30.4353C170.495 31.244 168.331 31.6378 168.331 31.6378L167.587 30.2167Z" fill="#D17171"/>
<path d="M166.875 36.9282C166.875 36.9282 168.412 37.0314 168.746 35.9005C169.079 34.77 168.571 32.5119 168.571 32.5119L166.057 32.3691L166.875 36.9282Z" fill="#D17171"/>
<path d="M171.675 31.0917C170.647 30.9823 168.461 30.6762 166.975 29.3428C166.975 29.3428 166.101 28.5121 165.707 29.3428L165.445 30.4579C165.445 30.4579 164.796 30.5674 164.858 31.2887C164.858 31.2887 164.439 31.7917 164.724 32.7315L164.421 34.0736C164.218 34.9729 163.801 35.8099 163.205 36.5137L162.847 36.9362C162.847 36.9362 161.284 38.4934 159.987 39.3602C158.395 40.4242 154.66 41.9069 153.665 43.2322C152.176 45.2144 151.192 49.1788 151.334 50.3737C151.334 50.3737 151.534 51.8603 152.788 51.6854C154.041 51.5105 154.841 50.3611 156.898 50.0141C158.954 49.6671 162.319 45.7391 163.602 42.1245L164.796 39.1874C165.493 38.9111 167.061 38.2535 167.282 37.847C167.566 37.3224 167.872 36.2073 167.741 35.9012C167.61 35.5952 167.148 33.8025 167.148 33.8025C167.148 33.8025 168.718 35.195 170.072 34.6917C170.223 34.6357 170.258 34.437 170.147 34.322L169.643 33.8025C169.643 33.8025 170.807 34.0176 171.271 33.3118C171.353 33.1876 171.288 33.0176 171.15 32.9617L169.555 32.316C169.555 32.316 171.195 32.8627 171.96 31.9004C171.96 31.9004 172.703 31.2009 171.675 31.0917Z" fill="#F29D98"/>
<path d="M169.642 33.8025L166.505 31.8486" stroke="#7D4E2F" stroke-width="0.5" stroke-miterlimit="10" stroke-linecap="round" stroke-linejoin="round"/>
<path d="M165.445 30.4573C165.445 30.4573 165.969 30.3479 166.429 30.7417C166.888 31.1356 169.753 32.3699 169.753 32.3699" stroke="#7D4E2F" stroke-width="0.5" stroke-miterlimit="10" stroke-linecap="round" stroke-linejoin="round"/>
<path d="M167.147 33.8023L166.603 33.3867" stroke="#7D4E2F" stroke-width="0.5" stroke-miterlimit="10" stroke-linecap="round" stroke-linejoin="round"/>
<path d="M155.355 50.4881L156.955 49.3594" stroke="#7D4E2F" stroke-width="0.5" stroke-miterlimit="10" stroke-linecap="round" stroke-linejoin="round"/>
<path d="M154.944 42.1553C154.944 42.1553 152.83 43.1434 151.913 45.9133" stroke="#7D4E2F" stroke-width="0.5" stroke-miterlimit="10" stroke-linecap="round" stroke-linejoin="round"/>
<path d="M162.45 33.3867L163.18 34.6505" stroke="#7D4E2F" stroke-width="0.5" stroke-miterlimit="10" stroke-linecap="round" stroke-linejoin="round"/>
<path d="M159.086 71.0125L159.987 69.6113" stroke="#7D4E2F" stroke-width="0.5" stroke-miterlimit="10" stroke-linecap="round" stroke-linejoin="round"/>
<path d="M157.684 73.196L158.589 71.7871" stroke="#7D4E2F" stroke-width="0.5" stroke-miterlimit="10" stroke-linecap="round" stroke-linejoin="round"/>
<path d="M163.543 76.8127C163.543 76.8127 163.193 74.1582 163.543 73.1963" stroke="#7D4E2F" stroke-width="0.5" stroke-miterlimit="10" stroke-linecap="round" stroke-linejoin="round"/>
<path d="M148.939 69.1738C148.939 69.1738 148.25 74.1841 149.644 75.3954" stroke="#7D4E2F" stroke-width="0.5" stroke-miterlimit="10" stroke-linecap="round" stroke-linejoin="round"/>
<path d="M154.886 75.3955L152.525 77.3105" stroke="#7D4E2F" stroke-width="0.5" stroke-miterlimit="10" stroke-linecap="round" stroke-linejoin="round"/>
<path d="M143.168 100.168C143.168 100.168 143.037 97.6806 144.873 97.8555C146.71 98.0304 147.978 98.2829 148.065 100.168V101.616L149.814 108.48C149.814 108.48 151.257 109.267 151.388 111.672H140.982C140.982 111.672 141.507 109.092 142.556 108.043L143.168 100.168Z" fill="#E37B3A"/>
<path d="M151.388 111.672C151.257 109.267 149.814 108.48 149.814 108.48C146.054 104.895 142.556 108.043 142.556 108.043C141.507 109.092 140.982 111.672 140.982 111.672H151.388Z" fill="#3C3121"/>
<path d="M140.982 111.672H151.388C151.357 111.104 151.251 110.628 151.11 110.229H141.383C141.116 111.015 140.982 111.672 140.982 111.672Z" fill="#E37B3A"/>
<path d="M143.78 102.607C143.78 102.607 145.616 101.354 147.307 102.607" stroke="white" stroke-width="0.5" stroke-miterlimit="10" stroke-linecap="round" stroke-linejoin="round"/>
<path d="M143.78 103.977C143.78 103.977 145.82 103.044 147.453 103.977" stroke="white" stroke-width="0.5" stroke-miterlimit="10" stroke-linecap="round" stroke-linejoin="round"/>
<path d="M143.78 105.58C143.78 105.58 145.733 104.53 147.978 105.58" stroke="white" stroke-width="0.5" stroke-miterlimit="10" stroke-linecap="round" stroke-linejoin="round"/>
<path d="M144.334 101.996L144.181 107.106" stroke="white" stroke-width="0.5" stroke-miterlimit="10" stroke-linecap="round" stroke-linejoin="round"/>
<path d="M146.783 101.878L147.739 107.105" stroke="white" stroke-width="0.5" stroke-miterlimit="10" stroke-linecap="round" stroke-linejoin="round"/>
<path d="M158.503 81.2412L157.072 88.5824" stroke="white" stroke-width="0.5" stroke-miterlimit="10" stroke-linecap="round" stroke-linejoin="round"/>
<path d="M160.788 81.7656L159.987 89.4436" stroke="white" stroke-width="0.5" stroke-miterlimit="10" stroke-linecap="round" stroke-linejoin="round"/>
<path d="M158.232 82.6348L160.667 82.9317" stroke="white" stroke-width="0.5" stroke-miterlimit="10" stroke-linecap="round" stroke-linejoin="round"/>
<path d="M157.917 84.25L160.473 84.781" stroke="white" stroke-width="0.5" stroke-miterlimit="10" stroke-linecap="round" stroke-linejoin="round"/>
<path d="M157.534 86.2129L160.273 86.6994" stroke="white" stroke-width="0.5" stroke-miterlimit="10" stroke-linecap="round" stroke-linejoin="round"/>
<path d="M157.256 87.6348L159.987 88.1927" stroke="white" stroke-width="0.5" stroke-miterlimit="10" stroke-linecap="round" stroke-linejoin="round"/>
<path d="M164.858 41.5416C164.858 41.5416 166.48 40.181 168.859 40.3366" stroke="#7D4E2F" stroke-width="0.5" stroke-miterlimit="10" stroke-linecap="round" stroke-linejoin="round"/>
<path d="M157.546 19.9473C157.548 20.2127 157.393 20.4292 157.199 20.4306C157.006 20.432 156.848 20.218 156.846 19.9522C156.844 19.6867 156.999 19.4702 157.192 19.4688C157.386 19.4677 157.544 19.6818 157.546 19.9473Z" fill="#7D4E2F"/>
<path d="M161.189 19.9209C161.192 20.1864 161.036 20.4029 160.843 20.4043C160.65 20.4057 160.492 20.1916 160.49 19.9258C160.488 19.6603 160.643 19.4438 160.836 19.4424C161.029 19.441 161.187 19.6554 161.189 19.9209Z" fill="#7D4E2F"/>
<path d="M158.516 21.3401C158.516 21.3401 158.974 22.3349 159.74 21.3311" stroke="#D17171" stroke-width="0.5" stroke-miterlimit="10" stroke-linecap="round" stroke-linejoin="round"/>
<path d="M158.91 22.828C158.91 22.828 159.589 22.828 159.97 22.6094C159.97 22.6094 159.688 23.197 159.44 23.3404C159.192 23.4838 158.91 22.828 158.91 22.828Z" fill="#7D4E2F"/>
<path d="M156.044 19.0238C156.044 19.0238 156.81 18.5209 157.684 18.8052C157.684 18.8052 157.75 18.346 157.444 18.3243C157.137 18.3026 156.176 18.1931 156.044 19.0238Z" fill="#7D4E2F"/>
<path d="M47.8268 66.1414C47.8268 66.1414 46.3402 65.4856 44.5913 66.5786C42.8424 67.6717 44.5476 72.6998 45.2909 73.8366C46.0342 74.9733 45.8156 80.1763 50.7999 80.3075C50.7999 80.3075 53.5107 80.1326 53.6856 78.9084C53.8605 77.6841 50.5376 74.9415 50.1441 73.2521C49.7506 71.563 49.838 70.8925 49.838 70.8925L47.8268 66.1414Z" fill="#70993A"/>
<path d="M46.4193 73.5659C44.5511 70.6984 44.8907 67.5466 45.1324 66.293C44.9554 66.372 44.7753 66.464 44.5913 66.5791C42.8424 67.6721 44.5476 72.7002 45.2909 73.837C46.0342 74.9738 45.8156 80.1768 50.7999 80.3079C50.7999 80.3079 53.5107 80.133 53.6856 78.9088C53.6929 78.8584 53.6919 78.8049 53.688 78.7497C46.9198 80.7448 46.4193 73.5659 46.4193 73.5659Z" fill="#3C3121"/>
<path d="M62.1383 52.6465L68.3759 66.7325C68.3759 66.7325 70.0373 72.0886 67.0642 73.925C64.0911 75.7613 57.3869 69.5237 49.8376 70.8934C49.8376 70.8934 46.748 69.4943 47.8263 66.1424C47.8263 66.1424 50.0999 66.638 50.8579 65.6761C51.6159 64.7142 54.5596 62.0618 56.6583 63.0528L52.6358 56.2321L62.1383 52.6465Z" fill="#F29D98"/>
<path d="M62.1383 52.6465L52.6359 56.2317L56.3512 62.5316C60.3628 61.6026 63.3916 58.7382 64.18 57.2573L62.1383 52.6465Z" fill="#D17171"/>
<path d="M56.134 62.8823C54.0976 62.4811 51.5547 64.7911 50.8583 65.6749C50.1003 66.6368 47.8267 66.1412 47.8267 66.1412C46.7483 69.4931 49.8379 70.8923 49.8379 70.8923C52.2311 70.4578 54.539 70.7891 56.6705 71.3844C54.4071 66.6645 56.134 62.8823 56.134 62.8823Z" fill="#3C3121"/>
<path d="M54.6202 70.9241C53.1064 67.1664 54.1131 64.2727 54.7871 62.96C54.1431 63.1296 53.5003 63.4602 52.9193 63.8477C52.3922 65.5036 52.092 67.8887 53.0564 70.7349C53.5849 70.7716 54.1064 70.8363 54.6202 70.9241Z" fill="#87B753"/>
<path d="M34.5352 54.9785C34.5352 54.9785 32.0868 61.9741 42.1139 64.0143C42.1139 64.0143 48.1766 64.1105 48.5264 59.2528L49.2267 54.7634L35.4744 51.0459C35.4744 52.6465 34.5352 54.9785 34.5352 54.9785Z" fill="#7D4E2F"/>
<path d="M35.4969 42.9249C35.4969 42.9249 35.5155 46.9036 43.4639 47.3408C51.4119 47.7781 59.2819 45.0235 59.3257 38.334C59.3257 38.334 34.6225 37.2847 35.4969 42.9249Z" fill="#7D4E2F"/>
<path d="M36.8086 51.3638C36.8086 51.3638 35.7593 64.5463 36.3714 67.4428C36.9835 70.3394 38.1203 72.3506 38.1203 72.3506L37.5082 79.8236C37.5082 79.8236 36.9835 83.8059 40.9185 89.0526C44.8536 94.2992 50.3626 103.831 50.3626 103.831L56.6586 101.844C56.6586 101.844 50.1664 89.0938 50.2751 81.7072C50.3626 75.7609 46.45 70.7766 46.45 70.7766C46.45 70.7766 47.4465 68.7874 47.3958 66.3459C47.3398 63.6568 47.8267 53.2603 47.8267 53.2603C47.8267 53.2603 42.7549 48.4435 36.8086 51.3638Z" fill="#F29D98"/>
<path d="M47.8268 53.2603C47.8268 53.2603 42.755 48.4435 36.8088 51.3638C36.8088 51.3638 36.5555 54.5479 36.3705 58.1292C39.4405 57.8872 43.7729 58.1429 47.5239 60.5683C47.6519 56.996 47.8268 53.2603 47.8268 53.2603Z" fill="#D17171"/>
<path d="M56.6586 101.843C56.6586 101.843 52.223 93.128 50.7476 85.9338C45.6429 84.7848 42.5019 87.9076 41.2644 89.5194C45.1683 94.8437 50.3629 103.831 50.3629 103.831L56.6586 101.843Z" fill="#3C3121"/>
<path d="M43.5381 92.7937C45.0845 91.3543 47.8789 89.4896 51.7555 89.7939C51.5362 89.0825 51.3329 88.3696 51.1507 87.6624C47.1282 87.5865 44.1474 89.4637 42.3562 91.0528C42.7459 91.6142 43.1415 92.198 43.5381 92.7937Z" fill="#87B753"/>
<path d="M37.3732 39.8211C37.3732 39.8211 37.0259 42.0747 36.5653 44.8491C35.8832 48.959 34.9524 54.2124 34.5348 54.9781C34.5348 54.9781 43.7165 51.1392 48.526 59.2527L49.6337 52.1508L52.9857 60.3996C52.9857 60.3996 64.7624 59.7298 65.1405 54.0746L60.8557 45.8548C60.8557 45.8548 59.544 38.1376 56.3086 36.4873L37.3732 39.8211Z" fill="#87B753"/>
<path d="M60.0786 42.6679C59.371 40.338 58.1527 37.4279 56.309 36.4873L37.3737 39.8211C37.3737 39.8211 37.0263 42.0747 36.5657 44.8491C36.5657 44.8491 38.2072 43.6113 41.7491 44.4707C44.8568 45.2248 56.076 47.477 60.0786 42.6679Z" fill="#70993A"/>
<path d="M33.6607 18.3965C33.6607 18.3965 31.562 20.7575 32.0867 25.3921L29.4633 32.5626C29.4633 32.5626 26.2279 31.7756 23.8669 33.1747C21.5059 34.5738 19.3197 37.4595 17.0462 37.5469C17.0462 37.5469 16.3029 36.3664 14.7726 36.3227C13.2423 36.279 10.0506 35.5136 9.5476 34.7487C9.5476 34.7487 9.15409 35.4482 9.5476 36.2352C9.9411 37.0222 11.7558 37.7655 11.7558 37.7655C11.7558 37.7655 8.95752 37.3063 8.12679 37.5032C7.29606 37.7001 6.203 39.427 6.203 39.427L7.77701 44.2148L16.3249 42.9248C16.3249 42.9248 17.5929 42.1378 17.921 41.307C17.921 41.307 28.8607 40.1542 33.681 38.1104C34.4495 37.7848 35.0742 37.195 35.4435 36.4465L39.2575 28.715L33.6607 18.3965Z" fill="#F29D98"/>
<path d="M39.2572 28.715L33.6607 18.3965C33.6607 18.3965 32.2616 19.9736 32.0349 23.0769C33.9171 27.504 37.3736 32.5339 37.3736 32.5339L39.2572 28.715Z" fill="#D17171"/>
<path d="M11.7557 37.7656C11.7557 37.7656 12.2367 40.2578 15.2535 39.7331" stroke="#7D4E2F" stroke-width="0.5" stroke-miterlimit="10" stroke-linecap="round" stroke-linejoin="round"/>
<path d="M31.1758 27.8818L29.4633 32.5629C29.4633 32.5629 32.9345 36.1415 35.1615 36.9152C35.2661 36.7673 35.3619 36.6116 35.4431 36.4472L37.3732 32.5343C35.909 31.4951 32.4192 28.9938 31.1758 27.8818Z" fill="#87B753"/>
<path d="M41.1299 14.8547C41.097 14.8708 35.6279 17.4634 32.9608 17.0993C32.9608 17.0993 33.2669 26.9658 36.6335 31.5567L38.6885 35.0108L37.5079 38.0276C37.5079 38.0276 34.7387 38.1214 35.4967 42.9245C35.4967 42.9245 37.4205 40.3012 41.3992 42.3999C45.378 44.4985 54.9969 46.947 58.8882 38.9458L59.3255 38.3337C59.3255 38.3337 55.7402 34.967 55.5653 33.9614L57.0519 26.1788C57.0519 26.1788 60.0687 16.9097 57.5766 16.385C55.0844 15.8603 52.73 16.0216 49.8377 14.8547C49.8377 14.8547 45.3203 12.7998 41.1299 14.8547Z" fill="#3C3121"/>
<path d="M55.5657 33.9623L57.0523 26.1797C57.0523 26.1797 57.1292 25.9426 57.2481 25.5442C57.1261 24.8275 56.9648 24.1153 56.926 23.3871C56.8718 22.3748 56.9361 21.3419 57.0956 20.3496C55.445 21.0939 55.2824 23.3031 55.0589 24.8506C54.8602 26.2252 54.3908 27.5736 54.1232 28.9342C53.9043 30.0479 53.3806 31.1256 52.985 32.1868C52.5768 33.2817 52.2662 34.4338 51.8615 35.5409C51.1476 37.493 49.5243 39.6211 47.1619 39.534C46.192 39.4983 45.2535 39.1002 44.4333 38.5983C43.2794 37.8918 42.1013 37.4164 40.9921 36.6133C40.0512 35.9319 39.1554 35.2278 38.3408 34.4254L38.6895 35.0117L37.509 38.0285C37.509 38.0285 37.3369 38.0345 37.0907 38.1174C37.2698 38.2314 37.4398 38.3619 37.6185 38.4738C38.3447 38.9285 39.1236 39.2786 39.8554 39.7305C41.1719 40.5441 42.881 41.4917 44.4424 41.6806C45.0594 41.7551 45.8922 41.6288 46.4718 41.9265C46.0986 41.726 45.8464 41.4004 45.5645 41.0982C47.6233 41.159 49.632 40.2769 51.4985 39.493C53.6461 38.5913 55.3244 37.4832 56.7291 35.6686C56.1194 34.9735 55.6276 34.3191 55.5657 33.9623Z" fill="#FDE4A2"/>
<path d="M58.0897 16.6963C54.7857 18.9391 55.487 24.6916 55.487 24.6916L57.4038 25.0099C58.0414 22.7716 59.2205 17.9919 58.0897 16.6963Z" fill="#7D4E2F"/>
<path d="M39.2571 13.675L40.0441 15.9486C40.0441 15.9486 39.9129 22.7255 42.7112 24.3433C42.7112 24.3433 49.5406 19.587 47.1708 14.0685L44.6717 9.85645L39.2571 13.675Z" fill="#F29D98"/>
<path d="M44.906 10.2513L44.6717 9.85645L39.2571 13.675L39.8465 15.3774L40.7356 17.4788C46.1481 14.8118 44.906 10.2513 44.906 10.2513Z" fill="#D17171"/>
<path d="M37.9893 10.3726C38.4639 11.1579 38.48 12.0173 38.0253 12.2922C37.5706 12.5668 36.8172 12.153 36.3429 11.3677C35.8682 10.5825 35.8521 9.72306 36.3068 9.44813C36.7616 9.17355 37.5146 9.58734 37.9893 10.3726Z" fill="#D17171"/>
<path d="M43.4179 8.76001C43.4491 9.67713 43.9048 10.4057 44.4358 10.3879C44.9668 10.37 45.3718 9.61172 45.3407 8.6946C45.3096 7.77748 44.8538 7.04889 44.3228 7.06673C43.7919 7.08492 43.3868 7.84289 43.4179 8.76001Z" fill="#D17171"/>
<path d="M43.846 3.66574C43.4105 2.45795 43.1926 1.27045 42.762 1.08926C42.4608 0.962644 42.1758 0.975938 41.9194 1.05709C41.9694 0.648194 41.898 0.340037 41.5185 0.443571C41.1859 0.534514 40.9498 0.820284 40.7805 1.15327C40.679 0.553752 40.3139 -0.13986 39.1285 0.024536C38.0228 0.17774 37.4996 1.0368 37.2509 1.78113C37.1648 1.05394 37.1428 0.49289 36.7199 0.910876C36.3404 1.28584 36.3474 1.9854 36.4527 2.60241C36.2613 2.55065 36.0263 2.52721 35.7377 2.58248C35.254 2.67517 34.9427 3.09595 34.878 4.02147C34.7122 3.79516 34.5376 3.65945 34.4649 3.95256C34.3676 4.34501 34.6597 5.1635 34.8982 5.73224C34.9661 5.89384 35.0123 6.06103 35.0396 6.23417C35.0882 6.53883 35.1466 6.86518 35.2179 7.2181C35.9462 10.8215 37.3491 11.4882 37.3491 11.4882L44.5829 9.41507C44.584 9.41507 45.4567 8.13348 43.846 3.66574Z" fill="#7D4E2F"/>
<path d="M42.644 15.0653L42.0809 15.2325C40.2445 15.7782 38.3137 14.7316 37.7681 12.8953L35.8457 6.424L43.0589 4.28125L44.9812 10.7525C45.5269 12.5889 44.4804 14.5197 42.644 15.0653Z" fill="#F29D98"/>
<path d="M36.7852 9.58671C38.3081 8.70526 40.7856 7.51776 43.8469 6.93363L43.0589 4.28125L35.8457 6.424L36.7852 9.58671Z" fill="#D17171"/>
<path d="M35.7197 9.11054C35.7197 9.11054 40.1622 6.51377 44.6716 6.45116L44.0783 4.19018C43.9853 3.87713 43.689 3.66901 43.3634 3.69105C41.9436 3.78759 38.1083 4.21362 35.2705 6.05906C35.0072 6.23045 34.8826 6.55085 34.9722 6.85201L35.7197 9.11054Z" fill="#87B753"/>
<path d="M39.2248 9.75691C39.3004 10.0115 39.2115 10.2623 39.0265 10.3176C38.8414 10.3729 38.6298 10.2109 38.5543 9.95628C38.4787 9.70164 38.5676 9.4505 38.7526 9.39558C38.9376 9.34032 39.1493 9.50227 39.2248 9.75691Z" fill="#7D4E2F"/>
<path d="M42.7174 8.71979C42.7929 8.97443 42.7041 9.22558 42.519 9.28049C42.334 9.33541 42.1224 9.17381 42.0468 8.91917C41.9713 8.66453 42.0601 8.41339 42.2452 8.35847C42.4305 8.30321 42.6418 8.46515 42.7174 8.71979Z" fill="#7D4E2F"/>
<path d="M40.5431 10.8243C40.5431 10.8243 41.2273 11.0545 41.7166 10.4756" stroke="#D17171" stroke-width="0.5" stroke-miterlimit="10" stroke-linecap="round" stroke-linejoin="round"/>
<path d="M41.4264 11.9994C41.4264 11.9994 42.0294 11.6835 42.3603 11.722" stroke="#7D4E2F" stroke-width="0.5" stroke-miterlimit="10" stroke-linecap="round" stroke-linejoin="round"/>
<path d="M40.0442 15.9482L41.4265 19.8833" stroke="#7D4E2F" stroke-width="0.5" stroke-miterlimit="10" stroke-linecap="round" stroke-linejoin="round"/>
<path d="M9.43843 55.2548C14.0988 55.2548 17.8769 51.4768 17.8769 46.8164C17.8769 42.1559 14.0988 38.3779 9.43843 38.3779C4.77801 38.3779 1 42.1559 1 46.8164C1 51.4768 4.77801 55.2548 9.43843 55.2548Z" fill="#E37B3A"/>
<path d="M16.3882 42.0322C16.6715 42.8762 16.8272 43.7787 16.8272 44.7182C16.8272 49.3786 13.0492 53.1566 8.38872 53.1566C5.50514 53.1566 2.96084 51.7096 1.4386 49.5028C2.56069 52.846 5.7171 55.2553 9.43806 55.2553C14.0985 55.2553 17.8765 51.4773 17.8765 46.8169C17.8768 45.0396 17.3263 43.3922 16.3882 42.0322Z" fill="#CC6329"/>
<path d="M32.0867 25.3926L32.4802 26.9229" stroke="#7D4E2F" stroke-width="0.5" stroke-miterlimit="10" stroke-linecap="round" stroke-linejoin="round"/>
<path d="M17.0461 37.5469L17.6583 38.3776" stroke="#7D4E2F" stroke-width="0.5" stroke-miterlimit="10" stroke-linecap="round" stroke-linejoin="round"/>
<path d="M38.6887 35.0117L40.9476 37.9632" stroke="#7D4E2F" stroke-width="0.5" stroke-miterlimit="10" stroke-linecap="round" stroke-linejoin="round"/>
<path d="M37.5083 38.0282C37.5083 38.0282 39.4321 37.897 42.4052 39.8792C45.3783 41.8614 48.8177 42.561 49.6341 42.3861" stroke="#7D4E2F" stroke-width="0.5" stroke-miterlimit="10" stroke-linecap="round" stroke-linejoin="round"/>
<path d="M52.489 38.1218C53.8427 37.1085 55.2365 35.6839 55.5657 33.9619" stroke="#7D4E2F" stroke-width="0.5" stroke-miterlimit="10" stroke-linecap="round" stroke-linejoin="round"/>
<path d="M49.6337 39.8209C49.6337 39.8209 50.3024 39.5288 51.1937 38.9912" stroke="#7D4E2F" stroke-width="0.5" stroke-miterlimit="10" stroke-linecap="round" stroke-linejoin="round"/>
<path d="M38.1204 72.3506C38.1204 72.3506 38.9074 74.1869 41.2684 74.7819" stroke="#7D4E2F" stroke-width="0.5" stroke-miterlimit="10" stroke-linecap="round" stroke-linejoin="round"/>
<path d="M44.9691 73.2525C45.6061 72.618 46.2857 71.7411 46.4501 70.7764" stroke="#7D4E2F" stroke-width="0.5" stroke-miterlimit="10" stroke-linecap="round" stroke-linejoin="round"/>
<path d="M52.6271 101.41C52.6271 101.41 49.7488 98.1421 45.5528 100.974C40.8892 104.122 47.0104 113.566 53.7142 113.217C60.4185 112.867 62.5752 110.185 61.5843 108.32C60.5934 106.454 59.3107 102.024 57.212 101.383C55.1137 100.741 52.6271 101.41 52.6271 101.41Z" fill="#87B753"/>
<path d="M61.8078 109.327C58.1065 108.495 53.2851 102.737 50.2752 101.032C47.8768 99.6725 45.5606 101.219 44.3416 102.326C42.3457 106.215 47.8009 113.524 53.7146 113.216C59.2772 112.926 61.7067 111.03 61.8078 109.327Z" fill="white"/>
<path d="M48.6427 102.14C44.8724 102.153 44.0882 105.368 44.0693 105.449C44.9057 109.198 49.174 113.453 53.7145 113.216C58.0962 112.987 60.5349 111.763 61.4223 110.421C57.1172 110.188 53.2902 102.123 48.6427 102.14Z" fill="#7D4E2F"/>
<path d="M52.6272 101.409L56.9792 104.413" stroke="#7D4E2F" stroke-width="0.5" stroke-miterlimit="10" stroke-linecap="round" stroke-linejoin="round"/>
<path d="M44.9362 107.682L51.7555 104.413" stroke="white" stroke-width="0.5" stroke-miterlimit="10" stroke-linecap="round" stroke-linejoin="round"/>
<path d="M47.5029 110.827L54.254 107.24" stroke="white" stroke-width="0.5" stroke-miterlimit="10" stroke-linecap="round" stroke-linejoin="round"/>
<path d="M50.8746 112.802L56.979 109.311" stroke="white" stroke-width="0.5" stroke-miterlimit="10" stroke-linecap="round" stroke-linejoin="round"/>
<path d="M43.5709 45.5488C48.4969 46.7293 49.6336 52.1509 49.6336 52.1509" stroke="#7D4E2F" stroke-width="0.5" stroke-miterlimit="10" stroke-linecap="round" stroke-linejoin="round"/>
<path d="M60.8561 45.8545V48.4432" stroke="#7D4E2F" stroke-width="0.5" stroke-miterlimit="10" stroke-linecap="round" stroke-linejoin="round"/>
<path d="M49.6336 52.1508L48.5262 44.4707" stroke="#7D4E2F" stroke-width="0.5" stroke-miterlimit="10" stroke-linecap="round" stroke-linejoin="round"/>
<path d="M56.6587 63.0518L59.7193 68.4149" stroke="#7D4E2F" stroke-width="0.5" stroke-miterlimit="10" stroke-linecap="round" stroke-linejoin="round"/>
<path d="M49.2262 48.8499C49.2262 48.8499 50.6246 48.2459 49.8376 44.4707" stroke="#7D4E2F" stroke-width="0.5" stroke-miterlimit="10" stroke-linecap="round" stroke-linejoin="round"/>
<path d="M50.0779 52.1504C50.0779 52.1504 54.8657 53.0102 56.9206 52.646" stroke="#7D4E2F" stroke-width="0.5" stroke-miterlimit="10" stroke-linecap="round" stroke-linejoin="round"/>
<path d="M65.1408 73.9826L62.6339 71.709" stroke="#7D4E2F" stroke-width="0.5" stroke-miterlimit="10" stroke-linecap="round" stroke-linejoin="round"/>
<path d="M77.2663 55.9402C76.1586 55.4446 73.2439 54.0454 73.2439 54.0454C73.2439 54.0454 72.311 51.3637 70.3292 51.0139C70.3292 51.0139 72.3114 37.7807 72.7776 36.2067C73.2439 34.6327 71.8448 33.5833 71.8448 33.5833C70.6205 32.7089 66.3067 26.8211 63.9747 22.5069C61.6427 18.193 56.8627 17.916 56.8627 17.916C53.7146 22.5359 56.5692 28.7081 56.5692 28.7081L64.1279 34.8439C63.0569 37.2707 63.6834 41.6283 64.5578 43.6685C65.4323 45.7088 65.8404 51.7719 65.8404 51.7719V56.6688C65.8404 56.6688 65.9569 58.2428 66.6565 58.7965C67.356 59.3502 69.1049 61.3961 69.1049 61.3961L69.5712 66.293C69.5712 66.293 70.6205 66.6372 70.8538 65.7337C71.0871 64.8302 71.1452 64.0138 71.1452 64.0138C71.1452 64.0138 72.311 64.4713 72.6027 62.9599C72.8941 61.4485 72.8728 59.2523 72.8728 59.2523L74.8179 63.0519C74.8179 63.0519 75.8672 63.4111 75.8088 62.1386C75.7504 60.8658 73.4188 56.3771 73.4188 56.3771L78.2573 57.8654C78.2573 57.8654 78.3741 56.4355 77.2663 55.9402Z" fill="#F29D98"/>
<path d="M59.592 18.6142C58.0837 17.9877 56.8627 17.916 56.8627 17.916C53.7146 22.5359 56.5692 28.7081 56.5692 28.7081C56.5692 28.7081 56.1645 20.4764 59.592 18.6142Z" fill="#D17171"/>
<path d="M70.3291 51.0141C70.3291 51.0141 70.6393 48.9427 71.043 46.3435C71.043 46.3435 67.7421 45.1046 65.5088 46.6604L65.3027 46.8293C65.6665 49.1903 65.8403 51.7721 65.8403 51.7721C65.8403 51.7721 68.4053 50.7227 70.3291 51.0141Z" fill="#87B753"/>
<path d="M64.1279 34.8441C64.1279 34.8441 65.0241 32.5922 66.8898 32.8255" stroke="#7D4E2F" stroke-width="0.5" stroke-miterlimit="10" stroke-linecap="round" stroke-linejoin="round"/>
<path d="M69.1049 61.3963L68.8391 58.5928" stroke="#7D4E2F" stroke-width="0.5" stroke-miterlimit="10" stroke-linecap="round" stroke-linejoin="round"/>
<path d="M71.1452 64.0144C71.1452 64.0144 71.0287 59.817 70.6205 58.5928" stroke="#7D4E2F" stroke-width="0.5" stroke-miterlimit="10" stroke-linecap="round" stroke-linejoin="round"/>
<path d="M72.8727 59.252L72.078 57.5293" stroke="#7D4E2F" stroke-width="0.5" stroke-miterlimit="10" stroke-linecap="round" stroke-linejoin="round"/>
<path d="M38.5051 15.9487C38.5051 15.9487 38.091 23.6729 42.8767 26.5565C42.8767 26.5565 47.8264 23.3123 49.08 18.6595C49.6522 16.2695 49.08 14.5713 49.08 14.5713" stroke="#7D4E2F" stroke-width="0.5" stroke-miterlimit="10" stroke-linecap="round" stroke-linejoin="round"/>
<path d="M42.7112 24.3428L44.0631 25.6614" stroke="#7D4E2F" stroke-width="0.5" stroke-miterlimit="10" stroke-linecap="round" stroke-linejoin="round"/>
<path d="M1.20886 48.611C2.49115 49.0245 5.07288 49.497 6.72768 47.3854C8.63503 44.9517 6.02917 42.2744 6.44821 38.9229" stroke="#7D4E2F" stroke-width="0.5" stroke-miterlimit="10" stroke-linecap="round" stroke-linejoin="round"/>
<path d="M11.4372 55.0161C10.5921 53.7041 9.39308 51.1738 10.8667 48.9674C12.6807 46.2514 15.1477 47.668 17.8539 46.748" stroke="#7D4E2F" stroke-width="0.5" stroke-miterlimit="10" stroke-linecap="round" stroke-linejoin="round"/>
<path d="M2.64807 41.8057C2.64807 41.8057 9.21693 50.7849 16.4871 51.4564" stroke="#7D4E2F" stroke-width="0.5" stroke-miterlimit="10" stroke-linecap="round" stroke-linejoin="round"/>
<path d="M5.85181 54.4566C5.85181 54.4566 6.48701 45.1552 14.554 40.1055" stroke="#7D4E2F" stroke-width="0.5" stroke-miterlimit="10" stroke-linecap="round" stroke-linejoin="round"/>
<path d="M133.224 82.9316C133.224 82.9316 131.048 89.6939 118.145 88.5281C118.145 88.5281 105.386 83.9764 117.251 78.0347C126.249 73.5289 133.224 82.9316 133.224 82.9316Z" fill="#E37B3A"/>
<path d="M130.049 77.3109C130.049 77.3109 131.709 83.3883 130.31 96.3935C128.911 109.399 127.978 113.13 127.978 113.13L116.417 112.197C116.417 112.197 117.368 82.6492 116.085 77.3105L130.049 77.3109Z" fill="#3C3121"/>
<path d="M130.049 77.3105H116.085C116.386 78.5642 116.565 81.1529 116.661 84.38C119.474 83.7913 125.696 82.871 130.845 84.7808C130.709 79.7317 130.049 77.3105 130.049 77.3105Z" fill="#FDE4A2"/>
<path d="M130.258 96.8687C124.348 98.3867 119.271 96.4982 116.745 95.2188C116.685 103.844 116.417 112.196 116.417 112.196L127.978 113.129C127.978 113.129 128.888 109.484 130.258 96.8687Z" fill="#E37B3A"/>
<path d="M83.0896 74.2461C83.0896 74.2461 83.5558 79.0556 91.9506 82.3785C91.9506 82.3785 96.8765 84.3897 99.8353 83.865L102.182 81.1882C102.182 81.1882 91.8922 70.7483 83.0896 74.2461Z" fill="#E37B3A"/>
<path d="M116.085 99.7793C116.085 99.7793 120.605 103.06 129.713 101.638" stroke="white" stroke-width="0.5" stroke-miterlimit="10" stroke-linecap="round" stroke-linejoin="round"/>
<path d="M88.0446 71.9717L83.4975 78.6175C83.4975 78.6175 79.2781 84.8674 85.4395 91.7986C91.6008 98.7298 92.8079 103.627 92.8079 103.627L105.417 100.916C105.417 100.916 100.432 87.872 98.2463 85.1685L101.219 80.5413L88.0446 71.9717Z" fill="#3C3121"/>
<path d="M92.8082 103.627L105.417 100.916C105.417 100.916 102.76 93.9648 100.475 89.1592L87.8323 94.6965C91.925 100.055 92.8082 103.627 92.8082 103.627Z" fill="#E37B3A"/>
<path d="M83.8458 78.1092C92.0044 79.6318 98.2466 85.1695 98.2466 85.1695L101.22 80.5423L88.0446 71.9727L83.8458 78.1092Z" fill="#FDE4A2"/>
<path d="M97.4886 57.5439C97.4886 57.5439 85.1879 73.7213 83.0892 74.2459L84.9987 74.6643C90.4962 75.8689 95.4578 78.8165 99.1448 83.0688L99.8353 83.8649L111.363 70.7125L114.599 82.932C114.599 82.932 125.296 76.8693 133.225 82.932L126.812 61.9452L97.4886 57.5439Z" fill="#7D4E2F"/>
<path d="M94.3991 68.4163L115.292 95.5371L118.146 92.8515L95.9731 65.1518L94.1123 62.7617L91.54 64.802L94.3991 68.4163Z" fill="#E37B3A"/>
<path d="M86.7039 52.035C86.7039 52.035 84.4303 51.6562 83.6723 53.7255C83.6723 53.7255 82.1833 52.2998 81.7052 53.8007C81.0784 55.7682 81.5394 58.3307 83.4974 59.1471C83.4974 59.1471 83.6139 63.4029 83.4974 64.2773C83.381 65.1518 83.6139 67.2504 85.9459 66.9007L88.4528 68.3582C88.4528 68.3582 89.0939 70.8651 91.5424 69.8738C91.5424 69.8738 93.6995 68.4163 94.399 68.4163L93.1748 66.5509C93.1748 66.5509 94.5155 64.1608 95.973 65.1518C95.973 65.1518 96.0444 62.9604 96.4047 62.237C96.7646 61.5133 93.9912 59.5553 93.9912 59.5553C93.9912 59.5553 95.157 58.5644 95.0405 57.544C94.9541 56.7889 94.8359 55.4024 94.7803 54.7332C94.7516 54.3883 94.5882 54.0676 94.3161 53.8535C93.5896 53.2827 91.6753 52.382 86.7039 52.035Z" fill="#7D4E2F"/>
<path d="M114.919 32.9714C114.919 32.9714 123.839 41.8908 126.579 46.4964C129.318 51.1019 130.193 54.4248 128.444 62.4113C126.695 70.3979 122.134 82.9319 122.134 82.9319L111.83 81.1245V74.2454C111.83 74.2454 103.726 73.4294 101.045 67.4831C98.363 61.5369 93.9908 59.5547 93.9908 59.5547L97.4885 55.4157C97.4885 55.4157 96.0894 50.8686 95.973 49.7028L94.1163 54.563C94.0285 54.7924 93.8841 54.9957 93.692 55.1492C92.8316 55.8372 90.2142 57.5582 87.1701 55.9408C87.1701 55.9408 84.9549 54.7165 85.3627 51.5101C85.7709 48.3037 87.2281 41.5414 87.2281 41.5414L86.4701 38.1601C86.4701 38.1601 89.1519 36.6022 92.0082 34.2041C94.8649 31.806 98.328 29.1998 101.161 28.8329C104.309 28.4243 108.856 28.0161 114.919 32.9714Z" fill="#F7CB6B"/>
<path d="M114.158 55.6517C113.648 56.2218 113.124 57.6738 112.354 57.5216C111.841 57.4202 111.536 55.8224 111.364 55.4156C111.393 56.5562 111.316 57.5748 111.72 58.5695C112 59.2607 112.126 59.6794 111.978 60.4234C111.22 64.243 105.734 63.6011 103.406 61.8183C99.4816 58.8137 99.0269 55.489 97.0517 51.1308C93.7837 43.9194 96.9411 34.3242 96.9411 34.3242C96.0541 34.7583 95.8159 35.8678 95.3318 36.6817C94.7452 37.6671 94.0236 38.6094 93.4699 39.5597C92.5294 41.174 92.1456 43.4048 91.4835 45.2027C90.8252 46.9897 90.5304 48.7197 90.552 50.6065C90.5748 52.5498 90.8441 53.4897 90.0568 55.2928C89.8808 55.6957 89.7455 56.1386 89.6437 56.6048C91.5657 56.6521 93.0785 55.6401 93.6927 55.1487C93.8848 54.9951 94.0292 54.7919 94.117 54.5625L95.9736 49.7023C96.0901 50.8681 97.4892 55.4152 97.4892 55.4152L93.9914 59.5542C93.9914 59.5542 98.3637 61.5364 101.045 67.4826C103.727 73.4289 111.83 74.2449 111.83 74.2449V81.124L114.969 81.6746C115.653 78.9369 115.413 75.5188 115.765 73.0452C116.054 71.0091 116.081 69.0962 116.229 67.0597C116.561 62.5109 117.329 57.8654 118.866 53.574C117.475 52.7443 115.048 54.6545 114.158 55.6517Z" fill="#DDA32F"/>
<path d="M112.284 67.8594L111.83 74.246V81.1251L122.134 82.9324C122.134 82.9324 124.323 76.9169 126.25 70.5656C118.937 72.7601 112.284 67.8594 112.284 67.8594Z" fill="#3C3121"/>
<path d="M115.764 73.0453C115.919 71.9599 115.998 70.9095 116.061 69.8567C113.75 68.9378 112.284 67.8584 112.284 67.8584L111.83 74.245V81.1241L114.969 81.6747C115.652 78.937 115.412 75.5189 115.764 73.0453Z" fill="#FDE4A2"/>
<path d="M87.2286 41.541C87.2286 41.541 85.771 48.3033 85.3632 51.5097C84.955 54.7162 87.1705 55.9404 87.1705 55.9404C90.215 57.5578 92.8324 55.8372 93.6925 55.1488C93.8845 54.9953 94.029 54.7921 94.1168 54.5626L95.9734 49.7024L95.8191 48.8672C88.145 49.7224 87.2286 41.541 87.2286 41.541Z" fill="#3C3121"/>
<path d="M94.1164 54.5633L95.973 49.7031L95.8191 48.8678C93.6351 49.1113 91.9999 48.6216 90.7756 47.7979C90.6137 48.7125 90.5399 49.6391 90.5511 50.6073C90.5738 52.5507 90.8431 53.4905 90.0558 55.2936C89.8799 55.6966 89.7445 56.1394 89.6427 56.6057H89.6431C90.9533 56.6378 92.073 56.1775 92.8477 55.7256C92.8673 55.7141 92.8869 55.7025 92.9061 55.691C92.9887 55.6417 93.066 55.5934 93.1401 55.5451C93.1811 55.5185 93.223 55.4916 93.2615 55.4657C93.2934 55.444 93.3224 55.4234 93.3521 55.4024C93.3944 55.3727 93.4361 55.3433 93.4742 55.315C93.4952 55.2996 93.5162 55.2842 93.5357 55.2695C93.5917 55.2272 93.6456 55.1863 93.6918 55.1492C93.8841 54.996 94.0286 54.7927 94.1164 54.5633Z" fill="#FDE4A2"/>
<path d="M105.786 28.7061C105.786 28.7061 101.511 38.2187 105.111 50.0139C105.111 50.0139 113.27 45.4689 116.033 34.1049" stroke="#3C3121" stroke-width="0.5" stroke-miterlimit="10" stroke-linecap="round" stroke-linejoin="round"/>
<path d="M105.111 35.0236L105.984 47.1207L115.61 38.3056C115.61 38.3056 113.2 31.7412 105.111 35.0236Z" fill="#7D4E2F"/>
<path d="M114.599 34.2043V39.6528C114.599 42.217 112.52 44.2961 109.955 44.2961H109.754C107.189 44.2961 105.111 42.2174 105.111 39.6528V34.2043L107.333 34.4257C108.171 34.5093 109.013 34.5509 109.854 34.5509C110.696 34.5509 111.537 34.5093 112.376 34.4257L114.599 34.2043ZM114.599 33.8545C114.587 33.8545 114.576 33.8552 114.564 33.8562L112.342 34.0777C111.519 34.1598 110.682 34.2011 109.855 34.2011C109.028 34.2011 108.191 34.1595 107.368 34.0777L105.146 33.8562C105.134 33.8552 105.123 33.8545 105.111 33.8545C105.025 33.8545 104.941 33.8863 104.877 33.9451C104.803 34.0115 104.761 34.1056 104.761 34.2043V39.6528C104.761 42.4059 107.001 44.6459 109.755 44.6459H109.956C112.709 44.6459 114.949 42.4059 114.949 39.6528V34.2043C114.949 34.1053 114.907 34.0112 114.834 33.9451C114.769 33.8863 114.685 33.8545 114.599 33.8545Z" fill="#3C3121"/>
<path d="M116.872 30.6106L116.497 30.6481C116.461 27.7963 114.142 25.4951 111.282 25.4951H108.428C105.568 25.4951 103.249 27.7963 103.212 30.6481L102.838 30.6106V33.9773L103.209 34.0143V36.9399C103.209 38.5394 104.506 39.8361 106.106 39.8361H113.605C115.204 39.8361 116.501 38.5394 116.501 36.9399V34.0143L116.873 33.9773V30.6106H116.872Z" fill="#7D4E2F"/>
<path d="M103.212 30.6484C103.212 30.6484 109.258 32.0413 116.497 30.6484" stroke="white" stroke-width="0.5" stroke-miterlimit="10" stroke-linecap="round" stroke-linejoin="round"/>
<path d="M112.653 25.7578V27.3755C112.653 27.9551 112.183 28.4249 111.604 28.4249H108.106C107.526 28.4249 107.056 27.9551 107.056 27.3755V25.7578" stroke="white" stroke-width="0.5" stroke-miterlimit="10" stroke-linecap="round" stroke-linejoin="round"/>
<path d="M112.377 34.4255C110.7 34.5927 109.01 34.5927 107.333 34.4255L105.111 34.2041V39.6526C105.111 42.2169 107.19 44.2959 109.754 44.2959H109.956C112.52 44.2959 114.599 42.2172 114.599 39.6526V34.2041L112.377 34.4255Z" fill="#F29D98"/>
<path d="M107.333 34.4255L105.111 34.2041V35.7641C107.979 35.9484 112.172 35.9163 114.599 34.5126V34.2041L112.377 34.4255C110.699 34.5927 109.01 34.5927 107.333 34.4255Z" fill="#D17171"/>
<path d="M97.4886 55.416C97.4886 55.416 99.2085 61.6536 102.182 64.8017" stroke="#7D4E2F" stroke-width="0.5" stroke-miterlimit="10" stroke-linecap="round" stroke-linejoin="round"/>
<path d="M95.9731 49.7024C95.9731 49.7024 93.758 39.3549 97.4887 33.4961" stroke="#7D4E2F" stroke-width="0.5" stroke-miterlimit="10" stroke-linecap="round" stroke-linejoin="round"/>
<path d="M111.83 74.2459C111.83 74.2459 112.588 61.6539 113.462 57.5439" stroke="#7D4E2F" stroke-width="0.5" stroke-miterlimit="10" stroke-linecap="round" stroke-linejoin="round"/>
<path d="M113.05 60.109C113.05 60.109 111.538 57.748 111.363 55.416" stroke="#7D4E2F" stroke-width="0.5" stroke-miterlimit="10" stroke-linecap="round" stroke-linejoin="round"/>
<path d="M119.408 52.0346C119.408 52.0346 125.786 47.4875 128.98 52.0346" stroke="#7D4E2F" stroke-width="0.5" stroke-miterlimit="10" stroke-linecap="round" stroke-linejoin="round"/>
<path d="M105.984 47.1201L106.357 49.1789" stroke="#3C3121" stroke-width="0.5" stroke-miterlimit="10" stroke-linecap="round" stroke-linejoin="round"/>
<path d="M90.158 61.2104C91.1129 61.2258 92.0146 61.0495 92.7376 60.5605" stroke="white" stroke-width="0.5" stroke-miterlimit="10" stroke-linecap="round" stroke-linejoin="round"/>
<path d="M83.4974 59.1465C83.4974 59.1465 86.409 60.7751 89.2198 61.1392" stroke="white" stroke-width="0.5" stroke-miterlimit="10" stroke-linecap="round" stroke-linejoin="round"/>
<path d="M83.6724 53.7256C83.6724 53.7256 84.6633 55.0082 86.281 55.6494" stroke="white" stroke-width="0.5" stroke-miterlimit="10" stroke-linecap="round" stroke-linejoin="round"/>
<path d="M85.9459 66.9006L84.933 65.4795" stroke="white" stroke-width="0.5" stroke-miterlimit="10" stroke-linecap="round" stroke-linejoin="round"/>
<path d="M88.4527 68.3582L87.6367 65.4795" stroke="white" stroke-width="0.5" stroke-miterlimit="10" stroke-linecap="round" stroke-linejoin="round"/>
<path d="M116.085 99.7796C116.085 99.7796 115.2 100.208 114.109 100.165C113.297 100.134 112.571 99.647 112.175 98.938L111.83 98.3221C111.83 98.3221 109.906 98.4385 109.615 97.2143C109.323 95.9901 109.615 95.0572 109.615 95.0572C109.615 95.0572 107.516 92.6672 106.7 92.3755C105.884 92.0841 106.175 89.7521 108.682 90.3933C111.189 91.0344 111.189 91.7983 111.189 91.7983C111.189 91.7983 113.171 91.5591 113.462 93.5413C113.462 93.5413 115.542 93.7162 115.61 96.456L116.085 99.7796Z" fill="#7D4E2F"/>
<path d="M111.83 98.3224C111.83 98.3224 110.795 93.7753 113.462 93.542" stroke="white" stroke-width="0.5" stroke-miterlimit="10" stroke-linecap="round" stroke-linejoin="round"/>
<path d="M109.615 95.0574C109.615 95.0574 109.659 92.2567 111.189 91.7988" stroke="white" stroke-width="0.5" stroke-miterlimit="10" stroke-linecap="round" stroke-linejoin="round"/>
<path d="M111.83 77.8017C111.83 77.8017 110.372 76.461 109.672 78.2099C108.973 79.9588 108.798 81.8826 109.964 82.9319L111.072 83.8648C111.072 83.8648 110.78 85.5552 111.83 87.3625L113.753 89.9859C113.753 89.9859 112.296 93.3672 113.753 95.524C115.211 97.681 114.103 100.304 117.251 101.529C117.251 101.529 116.106 105.376 119.04 106.134C121.973 106.892 119.991 104.735 121.041 102.053C122.09 99.3715 123.081 97.6226 122.615 94.4165C122.148 91.2101 122.498 86.8379 122.498 86.8379C122.498 86.8379 124.072 86.3716 124.305 85.3803C124.539 84.3894 124.83 81.183 124.83 81.183C124.83 81.183 124.496 80.0224 123.264 79.7283L122.662 81.4534C122.662 81.4534 114.57 81.0662 111.83 77.8017Z" fill="#7D4E2F"/>
<path d="M119.238 87.0401C120.302 87.1366 121.404 87.0936 122.498 86.8379" stroke="white" stroke-width="0.5" stroke-miterlimit="10" stroke-linecap="round" stroke-linejoin="round"/>
<path d="M111.072 83.8643C111.072 83.8643 113.343 85.538 116.417 86.4729" stroke="white" stroke-width="0.5" stroke-miterlimit="10" stroke-linecap="round" stroke-linejoin="round"/>
<path d="M117.251 101.528C117.251 101.528 118.716 102.009 118.865 100.96C119.015 99.9105 118.059 96.8062 119.04 94.2266" stroke="white" stroke-width="0.5" stroke-miterlimit="10" stroke-linecap="round" stroke-linejoin="round"/>
<path d="M89.6434 109.049C89.6434 109.049 85.2246 110.623 85.4397 114.558C85.6549 118.493 91.6885 115.608 91.6885 115.608L107.938 109.43C107.938 109.43 107.778 102.36 103.975 96.2822C103.975 96.2822 102.313 97.9 98.9027 97.7251C95.4924 97.5502 94.6617 99.7363 95.5361 102.054C95.5361 102.054 91.9509 99.9549 89.415 100.786C89.415 100.786 94.4189 104.721 89.6434 109.049Z" fill="#7D4E2F"/>
<path d="M95.5358 102.053C95.5358 102.053 91.9506 99.9546 89.4147 100.785C89.4147 100.785 94.419 104.72 89.6434 109.049C89.6434 109.049 88.2044 109.563 87.0085 110.735C87.7567 111.557 88.8239 111.932 90.3185 111.614C98.538 109.865 95.5358 102.053 95.5358 102.053Z" fill="#F7CB6B"/>
<path d="M88.5437 109.42L90.8138 112.197" stroke="#3C3121" stroke-width="2" stroke-miterlimit="10" stroke-linecap="round" stroke-linejoin="round"/>
<path d="M90.1143 108.203L93.1748 111.147" stroke="#3C3121" stroke-width="2" stroke-miterlimit="10" stroke-linecap="round" stroke-linejoin="round"/>
<path d="M90.9596 106.804L95.1276 109.675" stroke="#3C3121" stroke-width="2" stroke-miterlimit="10" stroke-linecap="round" stroke-linejoin="round"/>
<path d="M91.5394 105.143L96.6847 107.241" stroke="#3C3121" stroke-width="2" stroke-miterlimit="10" stroke-linecap="round" stroke-linejoin="round"/>
<path d="M91.1345 103.394L96.8184 104.181" stroke="#3C3121" stroke-width="2" stroke-miterlimit="10" stroke-linecap="round" stroke-linejoin="round"/>
<path d="M99.0238 100.936C99.0238 101.36 98.6804 101.704 98.2564 101.704C97.8325 101.704 97.489 101.36 97.489 100.936C97.489 100.512 97.8325 100.169 98.2564 100.169C98.6804 100.169 99.0238 100.512 99.0238 100.936Z" fill="#3C3121"/>
<path d="M116.558 105.225C115.664 105.14 114.964 105.986 115.193 106.854C115.59 108.355 116.59 112.592 116.417 116.627C116.202 121.641 116.91 121.874 119.237 123.389C121.565 124.905 121.096 130.143 130.076 130.152C136.985 130.159 133.224 122.602 130.87 121.174C129.057 120.074 127.936 114.363 128.613 109.675C128.613 109.675 125.18 105.142 120.868 110.331C120.868 110.331 119.194 107.326 116.562 106.832L116.598 105.229C116.597 105.229 116.583 105.227 116.558 105.225Z" fill="#7D4E2F"/>
<path d="M121.682 121.203C123.606 123.039 125.354 124.264 125.354 124.264C125.354 124.264 128.344 121.278 132.532 122.909C131.998 122.126 131.399 121.495 130.87 121.174C129.057 120.074 127.936 114.363 128.613 109.675C128.613 109.675 125.18 105.143 120.868 110.331C120.868 110.331 119.758 119.367 121.682 121.203Z" fill="#F7CB6B"/>
<path d="M98.2467 85.1688L92.8083 82.9316" stroke="#7D4E2F" stroke-width="0.5" stroke-miterlimit="10" stroke-linecap="round" stroke-linejoin="round"/>
<path d="M97.4886 86.8379L93.7526 89.1594" stroke="#7D4E2F" stroke-width="0.5" stroke-miterlimit="10" stroke-linecap="round" stroke-linejoin="round"/>
<path d="M122.712 123.215C122.712 123.215 126.855 118.784 130.87 121.175" stroke="#3C3121" stroke-width="2" stroke-miterlimit="10" stroke-linecap="round" stroke-linejoin="round"/>
<path d="M120.868 120.942C120.868 120.942 124.599 115.698 129.349 118.801" stroke="#3C3121" stroke-width="2" stroke-miterlimit="10" stroke-linecap="round" stroke-linejoin="round"/>
<path d="M119.845 117.685C119.845 117.685 123.702 113.876 128.682 116.053" stroke="#3C3121" stroke-width="2" stroke-miterlimit="10" stroke-linecap="round" stroke-linejoin="round"/>
<path d="M119.845 113.129C119.845 113.129 126.725 113.975 128.473 112.809" stroke="#3C3121" stroke-width="2" stroke-miterlimit="10" stroke-linecap="round" stroke-linejoin="round"/>
<path d="M90.0782 97.9332L102.182 92.9541" stroke="white" stroke-width="0.5" stroke-miterlimit="10" stroke-linecap="round" stroke-linejoin="round"/>
<path d="M118.767 99.5754L135.557 121.841C135.557 121.841 141.503 128.869 149.898 128.52L156.893 128.022C158.682 127.887 159.515 125.738 158.284 124.433L155.614 121.603C154.893 120.839 153.867 120.439 152.818 120.515L146.829 120.924C143.354 121.299 139.92 119.919 137.671 117.244L119.039 94.2266C119.039 94.2266 118.721 95.087 118.595 96.7187C118.469 98.3505 118.767 99.5754 118.767 99.5754Z" fill="#3C3121"/>
<path d="M107.836 37.8398C108.03 37.8398 108.186 37.6245 108.186 37.3589C108.186 37.0933 108.03 36.8779 107.836 36.8779C107.643 36.8779 107.487 37.0933 107.487 37.3589C107.487 37.6245 107.643 37.8398 107.836 37.8398Z" fill="#7D4E2F"/>
<path d="M111.48 37.8398C111.673 37.8398 111.83 37.6245 111.83 37.3589C111.83 37.0933 111.673 36.8779 111.48 36.8779C111.287 36.8779 111.13 37.0933 111.13 37.3589C111.13 37.6245 111.287 37.8398 111.48 37.8398Z" fill="#7D4E2F"/>
<path d="M110.909 38.5498H110.431V38.7278C110.431 39.1546 110.085 39.5002 109.658 39.5002C109.232 39.5002 108.886 39.1542 108.886 38.7278V38.5498H108.801C107.42 38.5498 106.296 39.6736 106.296 41.0549V41.497C106.296 43.4257 107.865 44.9948 109.794 44.9948H109.917C111.845 44.9948 113.414 43.4257 113.414 41.497V41.0549C113.414 39.6736 112.29 38.5498 110.909 38.5498ZM112.015 41.497C112.015 42.6545 111.074 43.5957 109.916 43.5957H109.793C108.636 43.5957 107.695 42.6545 107.695 41.497V41.0549C107.695 40.4453 108.191 39.9489 108.801 39.9489H110.909C111.519 39.9489 112.015 40.4453 112.015 41.0549V41.497H112.015Z" fill="#D17171"/>
<path d="M110.43 38.3057V38.7282C110.43 39.1549 110.085 39.5005 109.658 39.5005C109.231 39.5005 108.886 39.1546 108.886 38.7282V38.4148" stroke="#7D4E2F" stroke-width="0.5" stroke-miterlimit="10" stroke-linecap="round" stroke-linejoin="round"/>
<path d="M108.652 36.6593L106.871 36.2413C106.354 36.12 106.033 35.6023 106.154 35.085L107.935 35.503C108.452 35.6247 108.773 36.1423 108.652 36.6593Z" fill="#7D4E2F"/>
<path d="M110.581 36.631L112.362 36.213C112.879 36.0916 113.2 35.574 113.078 35.0566L111.298 35.4746C110.781 35.596 110.46 36.1137 110.581 36.631Z" fill="#7D4E2F"/>
<path d="M109.658 40.8414L111.276 40.6123" stroke="#7D4E2F" stroke-width="0.5" stroke-miterlimit="10" stroke-linecap="round" stroke-linejoin="round"/>
<path d="M104.254 81.209C104.254 81.209 105.075 78.8445 107.178 79.1492" stroke="#7D4E2F" stroke-width="0.5" stroke-miterlimit="10" stroke-linecap="round" stroke-linejoin="round"/>
<path d="M105.923 83.3749C105.923 83.3749 106.727 81.002 108.826 81.2091" stroke="#7D4E2F" stroke-width="0.5" stroke-miterlimit="10" stroke-linecap="round" stroke-linejoin="round"/>
<path d="M102.646 79.122C102.646 79.122 102.969 76.3311 105.417 76.9499" stroke="#7D4E2F" stroke-width="0.5" stroke-miterlimit="10" stroke-linecap="round" stroke-linejoin="round"/>
<path d="M148.859 126.371C145.542 126.371 142.854 127.035 142.854 127.853V131.176C142.854 131.995 145.542 132.658 148.859 132.658C152.175 132.658 154.863 131.995 154.863 131.176V127.853C154.863 127.035 152.175 126.371 148.859 126.371Z" fill="#70993A"/>
<path d="M154.863 127.853C154.863 128.672 152.175 129.335 148.859 129.335C145.543 129.335 142.854 128.672 142.854 127.853C142.854 127.035 145.543 126.371 148.859 126.371C152.175 126.371 154.863 127.034 154.863 127.853Z" fill="#87B753"/>
</svg>
