<svg width="92" height="166" viewBox="0 0 92 166" fill="none" xmlns="http://www.w3.org/2000/svg">
<path d="M65.2265 165.511C78.6561 165.511 89.543 164.558 89.543 163.384C89.543 162.209 78.6561 161.257 65.2265 161.257C51.7969 161.257 40.91 162.209 40.91 163.384C40.91 164.558 51.7969 165.511 65.2265 165.511Z" fill="#EAE4CC"/>
<path d="M58.9579 153.831C58.9579 153.831 58.4014 157.979 55.0128 160.053C51.6241 162.126 50.4607 161.975 50.6633 162.48C50.8655 162.986 51.6242 163.745 53.0911 163.189C53.0911 163.189 58.1992 162.076 60.7283 162.43C63.2569 162.784 64.8756 162.329 64.2687 160.508C63.6617 158.687 61.9422 153.275 61.9422 153.275L58.9579 153.831Z" fill="#E1AA8D"/>
<path d="M72.8961 153.831C72.8961 153.831 73.4526 157.979 76.8412 160.053C80.2298 162.126 81.3933 161.975 81.1907 162.48C80.9885 162.986 80.2298 163.745 78.7629 163.189C78.7629 163.189 73.6548 162.076 71.1257 162.43C68.5971 162.784 66.9784 162.329 67.5853 160.508C68.1923 158.687 69.9118 153.275 69.9118 153.275L72.8961 153.831Z" fill="#E1AA8D"/>
<path d="M51.0348 74.4091C48.5963 79.9348 44.8136 89.4621 47.056 100.709C48.9588 110.252 55.8903 154.928 55.8903 154.928C55.8903 154.928 56.0757 156.007 58.0482 155.197C60.0208 154.388 63.0046 154.844 65.4833 154.944C67.9615 155.046 70.7432 153.275 73.2214 154.388C75.6996 155.5 76.803 155.552 76.8121 154.438C77.0652 124.446 81.9752 110.165 81.1111 96.6624C80.0322 79.8034 72.954 73.1973 72.954 73.1973L51.0348 74.4091Z" fill="#A4AA01"/>
<path d="M63.7921 153.478C63.6892 153.478 63.6017 153.401 63.5905 153.297C63.5787 153.183 62.3862 141.663 61.3857 124.459C61.3796 124.347 61.4646 124.251 61.5761 124.245C61.6866 124.235 61.7834 124.323 61.7905 124.435C62.79 141.629 63.982 153.14 63.9937 153.254C64.0049 153.365 63.924 153.465 63.8135 153.476C63.8063 153.478 63.7992 153.478 63.7921 153.478Z" fill="#C8A39F"/>
<path d="M67.4574 153.074C67.4564 153.074 67.4549 153.074 67.4534 153.074C67.3419 153.072 67.2533 152.979 67.2548 152.868C67.2589 152.631 67.6759 129.02 67.5155 116.442C67.514 116.33 67.6031 116.238 67.7156 116.236C67.7166 116.236 67.7171 116.236 67.7181 116.236C67.8286 116.236 67.9188 116.325 67.9203 116.436C68.0807 129.022 67.6632 152.638 67.6596 152.875C67.6575 152.986 67.5674 153.074 67.4574 153.074Z" fill="#C8A39F"/>
<path d="M58.3468 29.4757V29.4838C58.3549 30.4711 58.306 31.4747 58.2256 32.462C58.2175 32.6402 58.2012 32.8261 58.1854 33.0043C58.0963 34.016 57.724 35.0273 57.1252 35.8934C56.4211 36.897 55.4098 37.7142 54.1796 38.143C53.9368 38.2321 53.6857 38.2967 53.4271 38.3533C52.9255 38.4587 52.3995 38.4989 51.841 38.4668C48.3694 38.2647 46.7507 34.2182 46.3785 31.2486C46.2975 30.5933 46.2165 29.7598 46.1921 28.8616C46.0791 25.722 46.6616 21.7239 50.4646 21.174C56.9552 20.2259 58.3223 24.612 58.3468 29.4757Z" fill="#E1AA8D"/>
<path d="M62.297 29.0547C60.6248 26.3189 58.9791 17.9357 50.8383 19.3115C44.2592 20.4282 44.1462 27.6224 45.635 34.3792C47.1081 41.0877 45.1009 43.0868 46.1447 45.927C47.2451 45.0772 49.7294 43.0058 50.8383 42.2369L53.6221 40.2379L53.4276 38.3524C52.926 38.4578 52.4 38.498 51.8414 38.4659C48.3698 38.2638 46.7511 34.2173 46.3789 31.2478C46.298 30.5925 46.217 29.7589 46.1926 28.8607C46.3545 28.7553 48.8388 27.1937 49.5023 23.0667C49.5023 23.0667 52.2615 27.8169 58.3473 29.4758V29.484C58.3554 30.4713 58.3065 31.4749 58.2261 32.4622L58.7602 37.1797L61.8677 36.1441C61.8677 36.1441 64.2227 35.3024 65.6143 34.8171C65.1291 33.449 63.4798 30.9901 62.297 29.0547Z" fill="#3C3121"/>
<path d="M58.3486 29.4768C59.5655 28.1743 60.7412 29.1478 60.6149 30.4631C60.4887 31.7783 59.1286 33.2595 57.846 31.9173C57.3022 31.348 57.8877 29.9702 58.3486 29.4768Z" fill="#E1AA8D"/>
<path d="M58.6723 31.588C58.6662 31.588 58.6606 31.5875 58.654 31.5865C58.599 31.5763 58.5623 31.5238 58.5725 31.4688C58.9315 29.5263 60.0384 29.6566 60.0853 29.6602C60.1408 29.6679 60.1795 29.7188 60.1723 29.7743C60.1642 29.8298 60.1097 29.8639 60.0588 29.8608C60.0114 29.8557 59.0924 29.7692 58.7721 31.505C58.7629 31.5539 58.7202 31.588 58.6723 31.588Z" fill="#CF7E68"/>
<path d="M59.4979 31.5883C59.4648 31.5883 59.4322 31.572 59.4134 31.5424L58.8492 30.6778C58.8182 30.631 58.8319 30.5684 58.8782 30.5378C58.9266 30.5073 58.9887 30.521 59.0183 30.5669L59.5824 31.4314C59.6135 31.4783 59.5997 31.5409 59.5534 31.5715C59.5361 31.5832 59.5168 31.5883 59.4979 31.5883Z" fill="#CF7E68"/>
<path d="M47.6558 28.5193C47.6074 28.5193 47.5595 28.5025 47.5203 28.4673C47.4373 28.3925 47.4302 28.2657 47.5045 28.1827C47.5371 28.146 48.3157 27.2927 49.4919 27.7051C49.5978 27.7418 49.6533 27.8573 49.6166 27.9627C49.5795 28.0681 49.4659 28.1257 49.359 28.087C48.444 27.7693 47.8314 28.4251 47.8055 28.4536C47.7663 28.4969 47.7113 28.5193 47.6558 28.5193Z" fill="#3C3121"/>
<path d="M53.6136 27.8997C53.5795 27.8997 53.5454 27.8916 53.5148 27.8743C52.5616 27.3406 51.836 27.8269 51.8055 27.8468C51.7154 27.9109 51.5881 27.8875 51.5239 27.7958C51.4608 27.7047 51.4827 27.5794 51.5738 27.5153C51.6115 27.4888 52.5316 26.8579 53.7124 27.5209C53.8097 27.5759 53.8443 27.6991 53.7898 27.7963C53.7526 27.8625 53.6839 27.8997 53.6136 27.8997Z" fill="#3C3121"/>
<path d="M48.5412 28.8608C49.1971 28.7554 49.1497 30.5956 48.5412 30.6531C47.9328 30.7112 47.8849 28.9662 48.5412 28.8608Z" fill="#3C3121"/>
<path d="M52.8738 28.5239C53.5296 28.4185 53.4822 30.2587 52.8738 30.3162C52.2653 30.3743 52.2174 28.6293 52.8738 28.5239Z" fill="#3C3121"/>
<path d="M51.1021 32.8024C51.0996 32.8024 51.0965 32.8024 51.094 32.8019C50.1545 32.7281 50.1235 31.9699 50.1235 31.9623C50.1219 31.9063 50.1662 31.8599 50.2222 31.8584C50.2233 31.8584 50.2238 31.8584 50.2248 31.8584C50.2793 31.8584 50.3246 31.9017 50.3261 31.9562C50.3266 31.9816 50.3572 32.5407 51.1102 32.6003C51.1663 32.6049 51.2075 32.6532 51.2034 32.7092C51.1988 32.7622 51.1545 32.8024 51.1021 32.8024Z" fill="#CF7E68"/>
<path d="M51.1238 35.2126C51.108 35.2126 51.0978 35.2121 51.0978 35.2121C51.0418 35.2095 50.999 35.1622 51.0016 35.1062C51.0041 35.0507 51.0571 35.0171 51.1075 35.0099C51.1538 35.0155 52.4314 35.0553 53.0342 33.7533C53.0587 33.7034 53.1172 33.6815 53.1687 33.7044C53.2191 33.7278 53.2415 33.7879 53.2175 33.8388C52.6055 35.1591 51.3249 35.2126 51.1238 35.2126Z" fill="#CF7E68"/>
<path d="M50.0202 26.1332C50.3124 26.0263 50.3206 26.7947 50.1205 26.8201C49.9199 26.8451 49.8119 26.2091 50.0202 26.1332Z" fill="#531969"/>
<path d="M61.8672 36.1431L61.2526 37.333L58.6547 42.4065L52.9738 42.2853L50.8378 42.237L53.6215 40.2379L53.427 38.3524L53.346 37.608L53.8399 37.0011L57.1496 32.9551L58.145 31.7412L58.226 32.4612L58.7596 37.1793L61.8672 36.1431Z" fill="#E1AA8D"/>
<path d="M54.1797 38.3443C54.0957 38.3443 54.0178 38.2924 53.9883 38.2088C53.9521 38.1034 54.0071 37.9879 54.113 37.9512C55.2571 37.5515 56.2419 36.7999 56.9588 35.776C57.2323 35.3819 57.4573 34.9547 57.6279 34.5076C57.6681 34.4037 57.7837 34.3518 57.8886 34.391C57.993 34.4312 58.0459 34.5473 58.0057 34.6522C57.8239 35.1293 57.5831 35.585 57.2903 36.0071C56.524 37.1019 55.471 37.9059 54.2454 38.3331C54.224 38.3412 54.2016 38.3443 54.1797 38.3443Z" fill="#CF7E68"/>
<path d="M66.2688 34.6024C68.5341 33.8126 81.448 29.5477 82.0718 29.261C82.6955 28.9744 78.1775 15.6053 77.2671 12.9244C76.3567 10.2436 76.7106 7.56327 78.4306 5.03416C80.1501 2.50557 86.9273 -0.680895 87.0791 0.128195C87.2308 0.937285 85.7134 2.55597 85.7134 2.55597C85.7134 2.55597 87.3825 3.09571 87.3153 3.56772C87.2481 4.03973 83.9771 4.00612 83.9771 4.00612C83.9771 4.00612 82.6283 6.60244 82.6619 7.07445C82.6955 7.54647 85.5281 6.93952 85.6289 7.51286C85.7302 8.0862 84.0102 9.60356 81.3131 9.7721C81.3131 9.7721 87.9386 23.5964 89.8098 27.2381C91.681 30.8797 92.4397 32.3462 87.4324 35.634C82.4251 38.9212 70.1859 44.5355 70.1859 44.5355L66.2688 34.6024Z" fill="#E1AA8D"/>
<path d="M83.2349 31.8421C83.1937 31.8421 83.155 31.8167 83.1402 31.7764L82.2802 29.4535C82.2604 29.4011 82.2873 29.3431 82.3403 29.3237C82.3902 29.3044 82.4503 29.3308 82.4701 29.3833L83.3302 31.7062C83.35 31.7586 83.323 31.8167 83.2701 31.836C83.2589 31.8401 83.2471 31.8421 83.2349 31.8421Z" fill="#CF7E68"/>
<path d="M84.0693 3.71959C84.0382 3.71959 84.0077 3.70533 83.9878 3.67783C83.9547 3.63303 83.9639 3.56938 84.0092 3.53628L85.3244 2.57545C85.3687 2.54236 85.4329 2.55152 85.466 2.59735C85.4991 2.64216 85.4899 2.7058 85.4446 2.7389L84.1294 3.69973C84.1116 3.71348 84.0902 3.71959 84.0693 3.71959Z" fill="#CF7E68"/>
<path d="M80.0992 11.2046C80.0753 11.2046 80.0519 11.1965 80.033 11.1797C79.9913 11.143 79.9867 11.0789 80.0233 11.0371L80.8161 10.1282C80.8523 10.0865 80.9175 10.0819 80.9582 10.1186C80.9999 10.1552 81.0046 10.2194 80.9679 10.2611L80.1751 11.17C80.1552 11.1929 80.1277 11.2046 80.0992 11.2046Z" fill="#CF7E68"/>
<path d="M82.2233 31.842C82.2187 31.842 82.2136 31.8415 82.208 31.841C82.1525 31.8329 82.1148 31.7814 82.1224 31.7259L82.4127 29.7773C82.4213 29.7223 82.461 29.6811 82.5283 29.6923C82.5838 29.7004 82.6215 29.7518 82.6138 29.8073L82.3236 31.7555C82.3154 31.8064 82.2732 31.842 82.2233 31.842Z" fill="#CF7E68"/>
<path d="M72.347 55.864C73.0187 60.0479 72.954 73.1975 72.954 73.1975C64.0525 80.5455 51.0347 74.4089 51.0347 74.4089C47.0453 60.9756 45.1002 46.6631 45.7072 46.2583C45.7718 46.218 45.8609 46.1452 45.9745 46.0561C46.0228 46.024 46.0799 45.9751 46.1445 45.9268C47.2449 45.077 49.7292 43.0056 50.8382 42.2367L55.0461 41.1522L55.0624 41.144L57.6276 40.4887L60.3792 37.6643L61.8681 36.1428C61.8681 36.1428 64.2231 35.3012 65.6147 34.8159C65.801 34.7594 65.9629 34.7024 66.1086 34.654C66.3188 34.5812 66.521 34.5165 66.6992 34.4758C67.5409 34.2573 68.0424 34.3704 68.4309 35.3984C69.0623 37.0573 74.5732 51.0084 73.8609 53.234C73.1561 55.4597 72.347 55.864 72.347 55.864Z" fill="#E1AA8D"/>
<path d="M72.347 55.864C73.0187 60.0479 72.954 73.1975 72.954 73.1975C64.0525 80.5455 51.0347 74.4089 51.0347 74.4089C47.0453 60.9756 45.1002 46.6631 45.7072 46.2583C45.7718 46.218 45.8609 46.1452 45.9745 46.0561C47.5932 45.6432 53.8159 46.2583 63.3926 48.682C63.3926 48.682 65.6146 43.4221 66.6987 34.4758C67.5404 34.2573 68.0419 34.3704 68.4304 35.3984C69.0618 37.0573 74.5727 51.0084 73.8603 53.234C73.1561 55.4597 72.347 55.864 72.347 55.864Z" fill="#E0BB6A"/>
<path d="M51.0347 74.4086C49.3636 77.1943 47.8314 82.2144 47.8314 82.2144C47.8314 82.2144 48.9817 83.8499 52.3346 83.58C55.6876 83.3101 58.1714 82.0723 62.6333 84.8611C64.7913 86.2099 68.434 81.6283 71.3327 82.973C76.0534 85.1625 78.9532 80.6802 78.9532 80.6802L72.9539 73.1973L51.0347 74.4086Z" fill="#E0BB6A"/>
<path d="M70.5908 69.0795C69.2394 86.0088 62.1424 104.662 49.308 113.612L51.2907 125.774C51.2907 125.774 46.9856 124.334 43.927 120.004C43.5064 119.414 43.1097 118.774 42.7533 118.078C42.6158 117.811 42.4865 117.528 42.3566 117.245C42.1708 116.832 42.0007 116.395 41.8469 115.942C41.6774 115.432 41.5236 114.898 41.3938 114.339C41.127 113.223 40.965 112.009 40.9162 110.689C40.5114 98.9558 61.5757 36.2398 61.5757 36.2398C61.5757 36.2398 62.4658 33.8528 64.0519 35.3661C64.0519 35.3661 64.392 34.9129 64.9419 34.5081C64.9419 34.4999 64.9419 34.4999 64.9419 34.4999C65.225 34.2896 65.5733 34.0951 65.9618 33.9903C66.0591 33.9658 66.1482 33.9419 66.2449 33.9256C66.6655 33.8528 67.1268 33.9011 67.6044 34.144C67.6044 34.144 67.6446 34.3141 67.718 34.6456C68.3977 37.6569 71.8128 53.8091 70.5908 69.0795Z" fill="#E9DD9D"/>
<path d="M64.0524 35.3668C64.0524 35.3668 47.3257 83.4759 41.4019 114.348L41.3938 114.339C41.127 113.223 40.965 112.009 40.9162 110.69C40.5114 98.956 61.5757 36.2401 61.5757 36.2401C61.5757 36.2401 62.4668 33.8536 64.0524 35.3668Z" fill="#A4AA01"/>
<path d="M65.962 33.9912C63.8983 40.2221 53.0874 73.4009 42.3569 117.245C42.171 116.832 42.0009 116.395 41.8472 115.942C52.1001 74.1855 62.3692 42.3102 64.9426 34.509C64.9426 34.5009 64.9426 34.5009 64.9426 34.5009C65.2257 34.2906 65.5735 34.0966 65.962 33.9912Z" fill="#E0BB6A"/>
<path d="M67.7184 34.6471C65.1613 43.322 52.9093 85.1029 43.9268 120.005C43.5063 119.414 43.1096 118.775 42.7532 118.079C51.7922 83.0957 63.9066 41.8489 66.2453 33.9266C66.6659 33.8537 67.1272 33.9021 67.6048 34.145C67.6048 34.145 67.6456 34.3156 67.7184 34.6471Z" fill="#A4AA01"/>
<path d="M48.9758 115.598C48.2084 115.476 47.7064 115.232 47.4421 115.072C48.6234 114.286 49.0573 113.993 49.0573 113.993C49.1504 113.931 49.1744 113.804 49.1117 113.712C49.0491 113.619 48.9228 113.596 48.8312 113.658C48.8296 113.658 47.9696 114.24 45.2104 116.067C45.1172 116.128 45.0912 116.254 45.1533 116.347C45.192 116.406 45.2562 116.438 45.3219 116.438C45.3606 116.438 45.3993 116.427 45.4334 116.404C46.0841 115.973 46.6213 115.617 47.075 115.316C47.3179 115.488 47.9131 115.839 48.9131 115.998C48.9243 115.999 48.9345 116 48.9447 116C49.0425 116 49.1285 115.929 49.1443 115.83C49.1616 115.719 49.0863 115.616 48.9758 115.598Z" fill="#CFCAAE"/>
<path d="M67.9374 62.5413C67.804 62.5285 67.7281 62.6161 67.72 62.7271C67.7083 62.8758 66.5015 77.7006 62.5131 87.7544C57.6351 100.051 52.2006 106.715 49.8513 109.225C53.3025 102.725 59.5003 89.6048 63.5895 72.5681C68.0591 53.9427 67.9227 41.7529 67.9211 41.6317C67.9196 41.5212 67.8295 41.4326 67.719 41.4326H67.7159C67.6044 41.4347 67.5153 41.5263 67.5168 41.6383C67.5184 41.759 67.6533 53.9025 63.1964 72.4739C58.8434 90.6099 52.0978 104.29 48.8446 110.242C48.7326 110.347 48.6674 110.404 48.6608 110.409C48.5905 110.47 48.5855 110.565 48.6231 110.645C47.6124 112.476 46.9871 113.476 46.9622 113.515C46.9021 113.61 46.9306 113.735 47.0248 113.795C47.0589 113.816 47.0961 113.826 47.1333 113.826C47.2005 113.826 47.2662 113.793 47.3039 113.732C47.3303 113.69 48.0371 112.559 49.1675 110.494C50.4959 109.238 57.0934 102.514 62.8894 87.9036C66.8997 77.7928 68.1116 62.9079 68.1233 62.7587C68.1319 62.6472 68.0489 62.5499 67.9374 62.5413Z" fill="#CFCAAE"/>
<path d="M45.7069 46.2588C45.7069 46.2588 30.8877 58.6966 29.3199 60.2139C27.7521 61.7313 27.3779 62.9045 29.3199 66.789C32.2533 72.6558 40.2444 82.2152 40.2444 82.2152C40.2444 82.2152 39.334 85.4016 39.8396 87.1716C40.3452 88.942 41.8626 91.0999 42.773 90.965C42.773 90.965 43.3463 92.1789 44.3917 91.1671C44.3917 91.1671 44.7965 92.2125 45.3357 91.8077C45.8754 91.4029 45.4029 89.3463 44.6951 87.9302C43.9869 86.5142 44.5266 83.8843 45.7069 83.9515C46.8872 84.0192 47.5949 85.1318 47.8648 84.4235C48.1347 83.7152 45.2685 81.8272 43.9874 81.2538C43.9874 81.2538 41.5092 71.8971 36.6536 63.4508L47.5038 56.5275C47.5038 56.5275 50.0568 52.0207 45.7069 46.2588Z" fill="#E1AA8D"/>
<path d="M36.3508 62.9968C36.3131 62.9968 36.2764 62.9749 36.2591 62.9382C36.253 62.924 35.5962 61.5151 34.8502 60.3714C34.8197 60.3246 34.8329 60.262 34.8792 60.2314C34.9281 60.2004 34.9897 60.2146 35.0193 60.2604C35.7728 61.4168 36.4363 62.8384 36.4424 62.8527C36.4664 62.9031 36.444 62.9637 36.3935 62.9871C36.3793 62.9932 36.3645 62.9968 36.3508 62.9968Z" fill="#CF7E68"/>
<path d="M44.1641 90.713C44.1229 90.713 44.0842 90.6876 44.0694 90.6463L43.3362 88.6233C43.3174 88.5709 43.3444 88.5134 43.3963 88.4935C43.4508 88.4742 43.5068 88.5016 43.5261 88.5546L44.2594 90.5776C44.2782 90.63 44.2512 90.6881 44.1993 90.7074C44.1871 90.711 44.1753 90.713 44.1641 90.713Z" fill="#CF7E68"/>
<path d="M42.571 90.7129C42.5298 90.7129 42.4911 90.6875 42.4763 90.6468L41.5914 88.2694C41.5715 88.217 41.5985 88.1589 41.6509 88.1396C41.7029 88.1192 41.7614 88.1467 41.7813 88.1991L42.6663 90.5765C42.6861 90.6284 42.6591 90.687 42.6072 90.7063C42.595 90.7109 42.5833 90.7129 42.571 90.7129Z" fill="#CF7E68"/>
<path d="M36.2333 62.7515C36.1798 62.7515 36.1345 62.7088 36.132 62.6543L36.0301 60.0834C36.0276 60.0279 36.0714 59.9806 36.1274 59.9785C36.1732 59.9775 36.2302 60.0198 36.2323 60.0758L36.3341 62.6466C36.3367 62.7021 36.2929 62.7495 36.2369 62.7515C36.2358 62.7515 36.2348 62.7515 36.2333 62.7515Z" fill="#CF7E68"/>
<path d="M32.2554 165.769C43.9786 165.769 53.4821 165.001 53.4821 164.055C53.4821 163.109 43.9786 162.342 32.2554 162.342C20.5321 162.342 11.0286 163.109 11.0286 164.055C11.0286 165.001 20.5321 165.769 32.2554 165.769Z" fill="#EAE4CC"/>
<path d="M38.6653 145.112C39.0701 148.484 38.6653 153.475 38.2269 155.261C37.7885 157.049 39.036 157.419 39.036 157.419C39.036 157.419 40.8569 156.071 42.8462 153.204C44.8356 150.338 43.9924 147.54 44.7684 146.596C45.5439 145.652 47.3647 143.662 45.8474 142.482C44.33 141.302 40.9918 139.447 40.9918 139.447L38.6653 145.112Z" fill="#E1AA8D"/>
<path d="M19.0415 120.363C19.0919 123.954 19.2946 125.067 22.4805 129.467C25.667 133.868 37.755 147.017 37.755 147.017C37.755 147.017 42.5596 144.893 43.8239 139.33C43.8239 139.33 35.0909 126.904 32.933 123.803C30.7751 120.701 30.7751 118.003 30.7751 118.003L19.0415 120.363Z" fill="#E0BB6A"/>
<path d="M27.6398 155.515C26.7294 158.448 23.9981 161.988 24.049 163.404C24.0995 164.82 25.5664 164.315 27.3363 164.264C29.1068 164.214 30.978 164.163 32.8997 164.062C34.8218 163.961 34.2653 163.051 33.9618 160.674C33.6583 158.297 32.6975 155.818 32.6975 155.818L27.6398 155.515Z" fill="#E1AA8D"/>
<path d="M26.6619 163.859C26.6594 163.859 26.6573 163.859 26.6548 163.859C26.5988 163.855 26.557 163.806 26.5606 163.75C26.5611 163.742 26.6207 162.876 26.3141 162.508C26.2775 162.464 26.2841 162.401 26.3269 162.365C26.3702 162.33 26.4343 162.335 26.4689 162.378C26.8284 162.81 26.7653 163.727 26.7627 163.766C26.7592 163.818 26.7149 163.859 26.6619 163.859Z" fill="#CF7E68"/>
<path d="M27.0158 163.859C26.9613 163.859 26.916 163.815 26.9145 163.76C26.9135 163.727 26.9017 162.965 27.4797 162.705C27.5301 162.681 27.5902 162.704 27.6141 162.755C27.637 162.806 27.6141 162.865 27.5637 162.888C27.1069 163.095 27.1171 163.748 27.1171 163.755C27.1186 163.81 27.0743 163.857 27.0183 163.858C27.0173 163.859 27.0168 163.859 27.0158 163.859Z" fill="#CF7E68"/>
<path d="M29.3588 119.554C28.6506 126.837 25.3129 155.868 25.3129 155.868C25.3129 155.868 27.5385 157.403 30.7245 157.419C33.9109 157.436 35.8835 155.767 35.8835 155.767C35.8835 155.767 41.2951 120.97 41.6999 117.228L29.3588 119.554Z" fill="#E0BB6A"/>
<path d="M27.8779 133.461C27.8708 133.461 27.8626 133.461 27.8555 133.46C27.744 133.448 27.6646 133.348 27.6768 133.237C28.3586 127.127 28.8123 122.948 29.0643 120.464C29.076 120.353 29.1605 120.269 29.2863 120.283C29.3978 120.294 29.4783 120.393 29.4671 120.504C29.214 122.99 28.7608 127.17 28.078 133.281C28.0678 133.385 27.9803 133.461 27.8779 133.461Z" fill="#C2B7A0"/>
<path d="M37.6319 144.669C37.6217 144.669 37.6115 144.668 37.6008 144.666C37.4903 144.649 37.4145 144.546 37.4318 144.436C37.9053 141.361 38.4283 137.955 38.9374 134.615C38.9542 134.505 39.0601 134.433 39.1681 134.446C39.2781 134.463 39.3539 134.566 39.3371 134.676C38.828 138.015 38.305 141.422 37.8315 144.497C37.8167 144.597 37.7307 144.669 37.6319 144.669Z" fill="#C2B7A0"/>
<path d="M37.6861 26.1204H37.678C37.6454 26.6301 37.5644 27.1479 37.4514 27.6581C37.346 28.1515 37.2329 28.6536 37.1036 29.1633V29.1714C36.2054 32.7642 34.6677 36.5276 30.6217 36.05C29.0275 35.8636 27.7652 34.8361 26.9317 33.1288C26.2519 31.7611 25.839 29.9729 25.7422 27.8201C25.7341 27.7956 25.7341 27.7798 25.7422 27.7554C25.7259 27.5772 25.7178 27.3913 25.7178 27.205C25.6205 21.9935 27.587 18.198 32.4425 18.805C36.6749 19.331 37.9855 22.6651 37.6861 26.1204Z" fill="#E1AA8D"/>
<path d="M36.7393 19.6785C36.7393 19.6785 36.0997 16.1743 29.8607 16.5145C23.6294 16.8464 21.5015 24.0646 21.9058 25.2138C22.3106 26.3549 26.2756 35.2646 26.2756 35.2646L26.9309 33.128C26.2511 31.7604 25.8382 29.9721 25.7415 27.8193L25.717 27.7547H25.7415C33.2672 26.7511 35.3956 23.3523 35.3956 23.3523C35.9862 25.0514 37.5805 26.055 37.6777 26.1197C37.6451 26.6294 37.5642 27.1472 37.4511 27.6574C37.3457 28.1508 37.2327 28.6528 37.1033 29.1625V29.1707C37.1033 29.1707 39.0051 28.078 39.442 24.6716C39.7985 21.9123 36.7393 19.6785 36.7393 19.6785Z" fill="#3C3121"/>
<path d="M25.7143 27.7569C24.5294 27.4789 23.2142 28.541 23.8975 30.2855C24.5803 32.0305 26.2744 32.0559 26.8054 31.6257C27.3365 31.1959 25.7143 27.7569 25.7143 27.7569Z" fill="#E1AA8D"/>
<path d="M26.3502 30.9686C26.2998 30.9686 26.256 30.9314 26.2499 30.8805C26.1165 29.8474 25.8074 29.2053 25.3318 28.9726C24.8425 28.7323 24.3328 29.0256 24.3282 29.0281C24.2798 29.0561 24.2177 29.0398 24.1897 28.9925C24.1612 28.9441 24.177 28.882 24.2254 28.854C24.2498 28.8392 24.8308 28.5031 25.4209 28.7908C25.9612 29.0551 26.3074 29.7496 26.4505 30.8545C26.4576 30.91 26.4189 30.961 26.3629 30.9681C26.3588 30.9681 26.3543 30.9686 26.3502 30.9686Z" fill="#CF7E68"/>
<path d="M25.3111 30.7914C25.2943 30.7914 25.278 30.7873 25.2622 30.7787C25.2133 30.7517 25.196 30.6901 25.2225 30.6412L25.8773 29.4553C25.9043 29.4069 25.9648 29.3891 26.0147 29.4156C26.0636 29.4426 26.0809 29.5042 26.0545 29.5531L25.3991 30.7389C25.3813 30.7726 25.3467 30.7914 25.3111 30.7914Z" fill="#CF7E68"/>
<path d="M31.1419 27.0995C31.1073 27.0995 31.0716 27.0934 31.037 27.0812C30.1841 26.7665 29.0273 27.0852 29.0155 27.0883C28.8592 27.1321 28.6861 27.0404 28.6418 26.879C28.596 26.7176 28.6892 26.5501 28.8506 26.5042C28.9061 26.4895 30.206 26.1285 31.2473 26.5114C31.4046 26.5694 31.4851 26.7436 31.4265 26.9014C31.3812 27.0236 31.2651 27.0995 31.1419 27.0995Z" fill="#3C3121"/>
<path d="M29.8606 28.0948C30.436 28.1086 30.3831 29.7069 29.8606 29.7858C29.3382 29.8648 29.1529 28.078 29.8606 28.0948Z" fill="#3C3121"/>
<path d="M33.553 27.0995C33.4298 27.0995 33.3137 27.0236 33.2684 26.9014C33.2098 26.7436 33.2903 26.5694 33.4476 26.5114C34.4879 26.129 35.7883 26.4885 35.8438 26.5043C36.0047 26.5501 36.0984 26.7176 36.0526 26.879C36.0068 27.0404 35.8337 27.1331 35.6789 27.0883C35.6672 27.0852 34.5098 26.7665 33.6579 27.0812C33.6233 27.0939 33.5876 27.0995 33.553 27.0995Z" fill="#3C3121"/>
<path d="M34.822 28.0948C34.2466 28.1086 34.2991 29.7069 34.822 29.7858C35.3444 29.8648 35.5298 28.078 34.822 28.0948Z" fill="#3C3121"/>
<path d="M32.4571 32.3595C32.4153 32.3595 32.3766 32.3341 32.3613 32.2923C32.343 32.2399 32.37 32.1818 32.4229 32.163C33.0396 31.943 32.9077 31.2083 32.9011 31.1772C32.8909 31.1227 32.927 31.0693 32.9815 31.0591C33.0345 31.0499 33.09 31.0845 33.1002 31.139C33.1623 31.4613 33.1159 32.1304 32.4907 32.3539C32.48 32.3575 32.4683 32.3595 32.4571 32.3595Z" fill="#CF7E68"/>
<path d="M32.0682 34.235C30.7555 34.235 29.9922 33.2507 29.9571 33.2049C29.923 33.1601 29.9316 33.097 29.977 33.0629C30.0218 33.0303 30.0854 33.0384 30.1185 33.0822C30.1272 33.0934 31.0029 34.2177 32.4419 34.0043C32.4948 33.9977 32.5483 34.0344 32.5575 34.0894C32.5651 34.1449 32.5274 34.1963 32.4719 34.2044C32.3319 34.2253 32.197 34.235 32.0682 34.235Z" fill="#CF7E68"/>
<path d="M26.3962 31.8115L26.1727 38.1753L22.6323 39.8444L30.0674 42.8287L34.9224 38.5297L32.5456 37.5688L32.5624 35.7139L26.3962 31.8115Z" fill="#E1AA8D"/>
<path d="M31.3029 36.293C31.0728 36.293 30.8375 36.2788 30.5972 36.2508C29.1771 36.0848 27.9729 35.264 27.1124 33.8775C27.0538 33.7822 27.0833 33.6575 27.1781 33.5989C27.2728 33.5399 27.397 33.5689 27.4571 33.6641C28.2606 34.9605 29.3334 35.6958 30.6451 35.849C31.0127 35.8928 31.3706 35.9004 31.7042 35.873C31.8157 35.8633 31.9129 35.9463 31.9221 36.0578C31.9318 36.1693 31.8488 36.2665 31.7373 36.2757C31.5952 36.2869 31.4501 36.293 31.3029 36.293Z" fill="#CF7E68"/>
<path d="M71.1358 60.9609C74.221 61.9726 77.8626 62.4278 79.1269 62.301C80.3912 62.1748 85.9041 58.3309 86.1063 58.5331C86.3084 58.7352 86.3843 59.7974 84.5889 61.2139C82.7936 62.63 81.8831 64.0715 81.8831 64.0715C81.8831 64.0715 84.1296 63.353 84.3109 64.3495C84.4122 64.906 80.2649 66.5242 78.8484 66.7014C77.4324 66.8786 70.0482 65.7406 70.0482 65.7406L71.1358 60.9609Z" fill="#E1AA8D"/>
<path d="M70.2736 67.6094C70.2736 67.6094 69.8612 67.5284 69.1651 67.3665C68.9788 67.3263 68.7685 67.2774 68.5419 67.2209C68.3637 67.1725 68.1778 67.1236 67.9752 67.0752C67.1498 66.865 66.1462 66.5976 65.0703 66.2662C62.5213 65.4892 59.5757 64.3888 57.4799 63.0049C53.0292 60.0755 42.7116 51.8858 42.7116 51.8858L41.4733 40.2734C44.1521 41.2363 46.45 43.8423 49.7439 46.8765C53.0292 49.9112 59.5518 56.4333 65.524 58.3596C65.7261 58.4243 65.9206 58.4889 66.1065 58.5459C67.2878 58.9182 68.2349 59.2176 68.9956 59.4523C69.2059 59.517 69.4004 59.5735 69.5781 59.6305C69.5781 59.6305 69.5781 59.6305 69.5862 59.6386C69.6993 59.6712 69.8128 59.7033 69.9182 59.7359L70.4035 59.8734V59.8815C71.876 60.3103 72.095 60.3266 72.095 60.3266C73.0089 65.3843 70.2736 67.6094 70.2736 67.6094Z" fill="#531969"/>
<path d="M68.9951 59.4532C69.4411 61.1386 69.1886 64.35 67.9752 67.0762C67.1498 66.8659 66.1462 66.5986 65.0703 66.2671C65.9767 63.5664 66.356 61.6697 66.106 58.5469C67.2878 58.9191 68.2344 59.2185 68.9951 59.4532Z" fill="#E0BB6A"/>
<path d="M69.1654 67.3669C68.979 67.3266 68.7687 67.2778 68.5421 67.2212C70.727 63.0943 69.6506 59.8493 69.5859 59.639C69.5778 59.6309 69.5778 59.6309 69.5778 59.6309L69.9179 59.7363L70.4032 59.8737V59.8819C71.1074 63.5796 69.7881 66.3307 69.1654 67.3669Z" fill="#E0BB6A"/>
<path d="M48.5779 119.554C48.5779 119.554 42.9132 120.768 36.1401 121.27C29.3588 121.779 19.7449 126.433 12.9718 119.149C12.9718 119.149 15.9093 86.8775 15.9093 78.4856C15.9093 70.0938 15.5534 47.3303 15.699 45.0074C15.8528 42.6769 15.8528 43.0089 17.528 42.1993C18.2642 41.8434 19.9797 40.9772 21.6549 40.1198C22.1325 39.8769 22.6096 39.634 23.0551 39.3993C23.7349 39.0515 24.3663 38.7358 24.8434 38.4848H24.8515C25.4585 38.1691 25.847 37.9751 25.847 37.9751V36.1787L28.3476 36.5107L30.0391 39.4889L30.8482 36.6563L33.0249 36.5351L32.9032 37.5143C32.9032 37.5143 33.5993 37.7327 34.6024 38.0484C35.2658 38.2587 36.0754 38.5179 36.9171 38.7847C38.1147 39.1651 39.377 39.5775 40.348 39.9013C40.793 40.047 41.1815 40.1763 41.4728 40.2736C43.5202 40.9854 43.593 42.0216 43.5686 44.4249C43.5441 46.8201 42.5084 79.5941 43.0181 82.5316C43.5202 85.4696 48.5779 119.554 48.5779 119.554Z" fill="#531969"/>
<path d="M40.3484 39.9023C40.3565 43.5114 39.9599 50.4628 36.9252 52.7286C33.9149 54.9619 30.7753 61.9621 30.7753 61.9621C30.9774 58.8627 27.6031 53.805 23.7109 50.6328C20.6441 48.1485 21.2505 42.4436 21.6553 40.1208C22.1329 39.8779 22.61 39.635 23.0555 39.4003C23.7353 39.0525 24.3667 38.7368 24.8438 38.4858H24.8519C25.4589 38.1701 25.8474 37.9761 25.8474 37.9761V36.1797L28.348 36.5117L30.0395 39.4899L30.8486 36.6573L33.0253 36.5361L32.9036 37.5148C32.9036 37.5148 33.5997 37.7332 34.6028 38.0489C35.2662 38.2592 36.0758 38.5184 36.9175 38.7852C38.1151 39.1655 39.3774 39.5785 40.3484 39.9023Z" fill="#E0BB6A"/>
<path d="M34.1824 46.351C31.1477 49.6933 31.2124 53.974 31.2124 53.974C31.2124 53.974 29.667 47.4356 27.4011 46.1489C25.3216 44.9676 23.4682 42.2486 23.0558 39.3997C23.7355 39.0519 24.3669 38.7362 24.844 38.4852H24.8522C24.8522 38.4852 24.3018 42.3453 27.806 44.3281C30.6059 45.9142 30.9781 49.0136 30.9781 49.0136C30.9781 49.0136 31.3504 45.3235 33.2359 43.7456C34.4981 42.6936 34.6443 39.8208 34.6035 38.0488C35.267 38.2591 36.0766 38.5183 36.9183 38.7851C36.9661 40.5652 36.6184 43.6646 34.1824 46.351Z" fill="#531969"/>
<path d="M44.7454 45.5927C44.6436 45.5494 44.5234 45.5973 44.4806 45.7006L43.334 48.4202C43.2387 46.6131 43.0366 44.281 42.6038 42.5768C42.5763 42.4678 42.4638 42.4016 42.3579 42.4307C42.2494 42.4576 42.1842 42.5681 42.2117 42.6766C43.005 45.802 43.0147 51.1209 43.0147 51.1743C43.0147 51.2864 43.1053 51.3765 43.2169 51.3765C43.3284 51.3765 43.419 51.2858 43.419 51.1743C43.419 51.155 43.4175 50.4263 43.3767 49.3601L44.8534 45.858C44.8972 45.7546 44.8488 45.636 44.7454 45.5927Z" fill="#A08090"/>
<path d="M20.4578 65.2348C23.2395 65.6396 24.4029 65.7404 25.3133 65.2348C26.2238 64.7292 31.2861 58.5375 31.7112 58.8873C32.1364 59.2371 29.7132 64.5016 29.9663 64.6278C30.2193 64.7541 31.1547 65.0326 30.5477 66.0693C29.9408 67.106 28.0945 69.0282 26.1092 69.2558C24.1244 69.4834 19.6986 69.433 19.6986 69.433L20.4578 65.2348Z" fill="#E1AA8D"/>
<path d="M20.5226 73.2259C20.5226 73.2259 20.2477 73.1449 19.7538 72.9912C19.1789 72.8211 18.3051 72.5461 17.2532 72.2141C16.9217 72.1087 16.5653 71.9957 16.2012 71.874V71.8659C15.6997 71.7039 15.1737 71.5339 14.6314 71.348C10.0915 69.794 4.20029 67.577 1.87791 65.7399C-0.104334 64.1782 -0.347214 63.3447 0.364623 62.2357C1.06882 61.1191 4.3057 56.4656 7.64746 52.3876C10.9816 48.3091 15.0438 43.6562 16.3142 42.79C16.3142 42.79 18.0943 44.2305 17.8922 49.0698C17.6901 53.909 15.7236 57.0405 15.7236 57.0405L11.3859 60.6175C12.2596 61.0544 13.9995 61.5804 15.772 62.0498L16.0311 62.1227C16.3713 62.2118 16.7028 62.3009 17.0347 62.3895L17.2613 62.446C17.6737 62.5514 18.0786 62.6481 18.4589 62.7372C19.3816 62.9638 20.1662 63.142 20.6194 63.2469C20.9025 63.3116 21.0644 63.3442 21.0644 63.3442C22.651 68.1682 20.5226 73.2259 20.5226 73.2259Z" fill="#531969"/>
<path d="M20.6196 63.2475C20.9384 65.133 21.1151 69.0782 19.7535 72.9907C19.1787 72.8206 18.3049 72.5457 17.2529 72.2137C18.3838 68.7742 18.586 65.0317 18.4587 62.7373C19.3813 62.9644 20.1665 63.1426 20.6196 63.2475Z" fill="#E0BB6A"/>
<path d="M17.2611 62.4474C17.2448 64.0417 17.0992 67.6991 16.201 71.8668C15.6995 71.7049 15.1735 71.5348 14.6312 71.349C15.036 69.3341 15.7239 65.4251 15.7723 62.0508L16.0315 62.1236L17.0351 62.3904L17.2611 62.4474Z" fill="#E0BB6A"/>
<path d="M10.8858 60.1353L9.95249 59.8436L8.93718 57.9138C8.88525 57.8145 8.76354 57.7773 8.66374 57.8287C8.56496 57.8812 8.52729 58.0029 8.57871 58.1017L9.40461 59.672L7.16522 58.9719C7.06033 58.9377 6.94576 58.9983 6.91216 59.1048C6.87804 59.2117 6.93813 59.3247 7.04506 59.3583L10.7657 60.5218C10.7855 60.5279 10.8059 60.531 10.8257 60.531C10.9118 60.531 10.9917 60.4755 11.0187 60.3889C11.0523 60.2825 10.9922 60.1689 10.8858 60.1353Z" fill="#A08090"/>
<path d="M15.9457 55.575C15.9426 55.575 15.9386 55.5749 15.9355 55.5744C15.824 55.5688 15.7379 55.4736 15.7435 55.3621C15.7609 55.021 16.1784 46.981 16.9533 44.0018C16.9819 43.8943 17.0924 43.8261 17.1998 43.8571C17.3083 43.8851 17.3729 43.9956 17.3454 44.1036C16.5801 47.0431 16.1519 55.3 16.1483 55.3825C16.1427 55.4909 16.0531 55.575 15.9457 55.575Z" fill="#A08090"/>
</svg>
