<svg width="90" height="82" viewBox="0 0 90 82" fill="none" xmlns="http://www.w3.org/2000/svg">
<path d="M28.1101 65.54C35.9746 65.54 42.3501 64.6446 42.3501 63.54C42.3501 62.4355 35.9746 61.54 28.1101 61.54C20.2456 61.54 13.8701 62.4355 13.8701 63.54C13.8701 64.6446 20.2456 65.54 28.1101 65.54Z" fill="#452A22"/>
<path d="M57.1699 34.8701C57.1699 49.7801 44.3698 61.8701 28.5798 61.8701C12.7898 61.8701 0 49.7901 0 34.8701H57.1699Z" fill="#5F3D30"/>
<path d="M42.2996 42.1001H13.8896V63.3601H42.2996V42.1001Z" fill="#5F3D30"/>
<path d="M57.1399 34.8901C57.1399 36.7201 44.3498 38.2101 28.5698 38.2101C12.7898 38.2101 0 36.7201 0 34.8901C0 33.0601 12.7898 31.5801 28.5698 31.5801C44.3498 31.5801 57.1399 33.0601 57.1399 34.8901Z" fill="#311A0F"/>
<mask id="mask0_145_15230" style="mask-type:luminance" maskUnits="userSpaceOnUse" x="0" y="31" width="58" height="35">
<path d="M42.2993 58.55C46.7167 56.3533 50.4423 52.9802 53.0659 48.8021C55.6895 44.6241 57.1096 39.8032 57.1694 34.8701C57.0594 33.0501 44.3094 31.5801 28.5994 31.5801C12.8894 31.5801 0.139297 33.0501 0.0292969 34.8701C0.0831248 39.6113 1.39828 44.2528 3.83936 48.3177C6.28043 52.3827 9.75955 55.7246 13.9194 58.0001V63.34C13.8817 63.3926 13.8607 63.4554 13.8594 63.5201C13.8594 64.6201 20.2294 65.5201 28.0994 65.5201C35.9694 65.5201 42.3394 64.6201 42.3394 63.5201C42.333 63.4564 42.3125 63.3948 42.2793 63.34L42.2993 58.55Z" fill="white"/>
</mask>
<g mask="url(#mask0_145_15230)">
<g style="mix-blend-mode:multiply">
<path d="M30.1394 18.1801C30.1394 18.1801 26.0394 55.4201 7.9294 65.3301C-10.1806 75.2401 55.4194 74.89 59.1794 61.23C62.9394 47.57 66.0093 40.05 60.5393 35.23C55.0693 30.41 30.1394 18.1801 30.1394 18.1801Z" fill="#E1E1DA"/>
</g>
</g>
<mask id="mask1_145_15230" style="mask-type:luminance" maskUnits="userSpaceOnUse" x="0" y="0" width="58" height="39">
<path d="M57.1399 34.89C57.1399 36.72 44.3498 38.21 28.5698 38.21C12.7898 38.21 0 36.72 0 34.89C0 33.06 13 0 28.73 0C44.46 0 57.1399 33.06 57.1399 34.89Z" fill="white"/>
</mask>
<g mask="url(#mask1_145_15230)">
<path d="M6.30957 37.8901C8.08391 33.881 10.4429 30.1571 13.3096 26.84C18.0396 21.31 18.8296 19.89 21.8296 16.74C24.8296 13.59 24.6697 11.74 28.1497 11.53C31.6297 11.32 32.7195 10.2601 34.7795 12.9501C36.8395 15.6401 35.7198 15 38.2498 18C40.7798 21 42.6696 21.16 45.0396 23.53C47.4095 25.9 46.7696 25.53 48.0396 28.42C49.3096 31.31 50.2497 32.42 50.7197 33.94C51.0762 35.3446 51.3401 36.771 51.5098 38.2101C51.5098 38.2101 35.5697 39.78 30.6697 39.63C25.7697 39.48 19.4596 39.47 15.3596 39.47C12.2868 39.342 9.24402 38.8108 6.30957 37.8901Z" fill="#E09F34"/>
<mask id="mask2_145_15230" style="mask-type:luminance" maskUnits="userSpaceOnUse" x="6" y="11" width="46" height="29">
<path d="M6.30957 37.8901C8.08391 33.881 10.4429 30.1571 13.3096 26.84C18.0396 21.31 18.8296 19.89 21.8296 16.74C24.8296 13.59 24.6697 11.74 28.1497 11.53C31.6297 11.32 32.7195 10.2601 34.7795 12.9501C36.8395 15.6401 35.7198 15 38.2498 18C40.7798 21 42.6696 21.16 45.0396 23.53C47.4095 25.9 46.7696 25.53 48.0396 28.42C49.3096 31.31 50.2497 32.42 50.7197 33.94C51.0762 35.3446 51.3401 36.771 51.5098 38.2101C51.5098 38.2101 35.5697 39.78 30.6697 39.63C25.7697 39.48 19.4596 39.47 15.3596 39.47C12.2868 39.342 9.24402 38.8108 6.30957 37.8901Z" fill="white"/>
</mask>
<g mask="url(#mask2_145_15230)">
<g style="mix-blend-mode:multiply" opacity="0.5">
<path d="M34.6398 10.1801C34.6398 10.1801 32.0098 34.11 20.3698 40.48C8.72978 46.85 50.8897 46.62 53.3097 37.84C55.7297 29.06 57.6998 24.23 54.1798 21.16C50.6598 18.09 34.6398 10.1801 34.6398 10.1801Z" fill="#E09F34"/>
</g>
</g>
</g>
<path d="M60.8601 81.6602C68.7246 81.6602 75.1001 80.7647 75.1001 79.6602C75.1001 78.5556 68.7246 77.6602 60.8601 77.6602C52.9956 77.6602 46.6201 78.5556 46.6201 79.6602C46.6201 80.7647 52.9956 81.6602 60.8601 81.6602Z" fill="#452A22"/>
<path d="M89.9199 50.9902C89.9199 65.9002 77.1198 77.9902 61.3398 77.9902C45.5598 77.9902 32.75 65.9002 32.75 50.9902H89.9199Z" fill="#5F3D30"/>
<path d="M75.0593 58.2202H46.6494V79.4802H75.0593V58.2202Z" fill="#5F3D30"/>
<path d="M61.3296 54.3401C77.1084 54.3401 89.8997 52.8538 89.8997 51.0202C89.8997 49.1866 77.1084 47.7002 61.3296 47.7002C45.5508 47.7002 32.7598 49.1866 32.7598 51.0202C32.7598 52.8538 45.5508 54.3401 61.3296 54.3401Z" fill="#311A0F"/>
<mask id="mask3_145_15230" style="mask-type:luminance" maskUnits="userSpaceOnUse" x="32" y="47" width="58" height="35">
<path d="M75.0601 74.6702C79.477 72.4738 83.2019 69.1006 85.824 64.9222C88.446 60.7439 89.8635 55.9227 89.9202 50.9902C89.8202 49.1702 77.0701 47.7002 61.3601 47.7002C45.6501 47.7002 32.9 49.1702 32.79 50.9902C32.8459 55.7322 34.1629 60.374 36.6057 64.4388C39.0485 68.5037 42.5291 71.8452 46.6902 74.1202V79.4502C46.6599 79.5055 46.6427 79.5671 46.6401 79.6302C46.6401 80.7302 53.0101 81.6302 60.8701 81.6302C68.7301 81.6302 75.1101 80.7302 75.1101 79.6302C75.1088 79.5655 75.0878 79.5028 75.05 79.4502L75.0601 74.6702Z" fill="white"/>
</mask>
<g mask="url(#mask3_145_15230)">
<g style="mix-blend-mode:multiply">
<path d="M62.9001 34.2603C62.9001 34.2603 58.8002 71.4902 40.6902 81.4002C22.5802 91.3102 88.1802 90.9702 91.9302 77.3002C95.6802 63.6302 98.77 56.1202 93.3 51.3002C87.83 46.4802 62.9001 34.2603 62.9001 34.2603Z" fill="#E1E1DA"/>
</g>
</g>
<mask id="mask4_145_15230" style="mask-type:luminance" maskUnits="userSpaceOnUse" x="32" y="16" width="58" height="39">
<path d="M89.8999 51.0204C89.8999 52.8504 77.1098 54.3304 61.3298 54.3304C45.5498 54.3304 32.75 52.8504 32.75 51.0204C32.75 49.1904 45.75 16.1304 61.48 16.1304C77.21 16.1304 89.8999 49.1804 89.8999 51.0204Z" fill="white"/>
</mask>
<g mask="url(#mask4_145_15230)">
<path d="M39.0703 54.0104C40.8279 50.0059 43.1665 46.2825 46.0105 42.9604C50.7505 37.4404 51.5403 36.0203 54.5403 32.8603C57.5403 29.7003 57.3803 27.8603 60.8503 27.6503C64.3203 27.4403 65.4305 26.3904 67.4805 29.0704C69.5305 31.7504 68.4804 31.1203 70.9604 34.1203C73.4404 37.1203 75.3805 37.2803 77.7405 39.6503C80.1005 42.0203 79.4805 41.6503 80.7405 44.5403C82.0005 47.4303 82.9504 48.4904 83.4304 50.0704C83.7865 51.4716 84.0504 52.8946 84.2205 54.3304C84.2205 54.3304 68.2204 55.9103 63.3804 55.7503C58.5404 55.5903 52.1703 55.5903 48.0703 55.5903C45.0142 55.4592 41.9884 54.9281 39.0703 54.0104Z" fill="#D05663"/>
<mask id="mask5_145_15230" style="mask-type:luminance" maskUnits="userSpaceOnUse" x="39" y="27" width="46" height="29">
<path d="M39.0703 54.0104C40.8279 50.0059 43.1665 46.2825 46.0105 42.9604C50.7505 37.4404 51.5403 36.0203 54.5403 32.8603C57.5403 29.7003 57.3803 27.8603 60.8503 27.6503C64.3203 27.4403 65.4305 26.3904 67.4805 29.0704C69.5305 31.7504 68.4804 31.1203 70.9604 34.1203C73.4404 37.1203 75.3805 37.2803 77.7405 39.6503C80.1005 42.0203 79.4805 41.6503 80.7405 44.5403C82.0005 47.4303 82.9504 48.4904 83.4304 50.0704C83.7865 51.4716 84.0504 52.8946 84.2205 54.3304C84.2205 54.3304 68.2204 55.9103 63.3804 55.7503C58.5404 55.5903 52.1703 55.5903 48.0703 55.5903C45.0142 55.4592 41.9884 54.9281 39.0703 54.0104Z" fill="white"/>
</mask>
<g mask="url(#mask5_145_15230)">
<path d="M67.4006 26.3403C67.4006 26.3403 64.7705 50.2704 53.1305 56.6404C41.4905 63.0104 83.6505 62.7904 86.0605 54.0104C88.4705 45.2304 90.4506 40.3904 86.9406 37.3204C83.4306 34.2504 67.4006 26.3403 67.4006 26.3403Z" fill="#AE3658"/>
</g>
</g>
</svg>
