<svg width="628" height="288" viewBox="0 0 628 288" fill="none" xmlns="http://www.w3.org/2000/svg">
<path d="M431.604 287.181C454.83 287.181 473.659 285.534 473.659 283.503C473.659 281.471 454.83 279.824 431.604 279.824C408.378 279.824 389.549 281.471 389.549 283.503C389.549 285.534 408.378 287.181 431.604 287.181Z" fill="#EAE4CC"/>
<path d="M420.764 266.983C420.764 266.983 419.801 274.155 413.941 277.742C408.08 281.328 406.068 281.066 406.418 281.941C406.768 282.815 408.08 284.127 410.617 283.166C410.617 283.166 419.452 281.242 423.826 281.854C428.199 282.466 430.998 281.678 429.949 278.529C428.899 275.38 425.925 266.021 425.925 266.021L420.764 266.983Z" fill="#E1AA8D"/>
<path d="M444.87 266.983C444.87 266.983 445.832 274.155 451.693 277.742C457.553 281.328 459.565 281.066 459.215 281.941C458.865 282.815 457.553 284.127 455.016 283.166C455.016 283.166 446.182 281.242 441.808 281.854C437.435 282.466 434.635 281.678 435.685 278.529C436.734 275.38 439.708 266.021 439.708 266.021L444.87 266.983Z" fill="#E1AA8D"/>
<path d="M407.06 129.622C402.843 139.178 396.301 155.655 400.179 175.107C403.47 191.611 415.458 268.877 415.458 268.877C415.458 268.877 415.779 270.744 419.19 269.344C422.602 267.945 427.762 268.732 432.049 268.907C436.335 269.082 441.146 266.02 445.432 267.944C449.718 269.868 451.626 269.958 451.642 268.031C452.08 216.16 460.572 191.461 459.077 168.108C457.211 138.951 444.97 127.526 444.97 127.526L407.06 129.622Z" fill="#CD6450"/>
<path d="M429.123 266.37C428.945 266.37 428.794 266.236 428.775 266.057C428.754 265.859 426.692 245.936 424.961 216.182C424.951 215.989 425.098 215.823 425.291 215.812C425.482 215.795 425.649 215.947 425.662 216.14C427.39 245.877 429.452 265.786 429.472 265.984C429.491 266.176 429.351 266.348 429.16 266.368C429.148 266.369 429.136 266.37 429.123 266.37Z" fill="#C8A39F"/>
<path d="M435.463 265.67C435.461 265.67 435.458 265.67 435.456 265.67C435.263 265.667 435.11 265.507 435.112 265.314C435.119 264.904 435.841 224.07 435.563 202.315C435.561 202.122 435.715 201.963 435.909 201.96C435.911 201.96 435.912 201.96 435.914 201.96C436.105 201.96 436.261 202.114 436.263 202.306C436.541 224.073 435.819 264.916 435.812 265.327C435.809 265.518 435.653 265.67 435.463 265.67Z" fill="#C8A39F"/>
<path d="M419.707 51.9092V51.9233C419.721 53.6309 419.637 55.3666 419.498 57.0741C419.484 57.3823 419.455 57.7038 419.428 58.012C419.274 59.7618 418.63 61.5107 417.595 63.0086C416.377 64.7444 414.628 66.1578 412.5 66.8992C412.08 67.0534 411.646 67.1652 411.199 67.263C410.331 67.4452 409.422 67.5148 408.456 67.4593C402.452 67.1097 399.652 60.1114 399.008 54.9756C398.868 53.8422 398.728 52.4006 398.686 50.8472C398.49 45.4173 399.498 38.5026 406.075 37.5515C417.301 35.9118 419.665 43.4975 419.707 51.9092Z" fill="#E1AA8D"/>
<path d="M426.537 51.1809C423.645 46.4493 420.799 31.9507 406.72 34.3302C395.341 36.2614 395.146 48.7037 397.721 60.3896C400.268 71.9919 396.797 75.4492 398.602 80.3613C400.505 78.8916 404.802 75.3092 406.72 73.9794L411.534 70.5221L411.198 67.2612C410.33 67.4434 409.421 67.513 408.455 67.4575C402.451 67.1079 399.651 60.1096 399.007 54.9738C398.867 53.8404 398.727 52.3988 398.685 50.8454C398.965 50.6631 403.262 47.9622 404.409 40.8248C404.409 40.8248 409.181 49.0401 419.706 51.9092V51.9233C419.72 53.6308 419.636 55.3665 419.497 57.0741L420.421 65.2331L425.795 63.4419C425.795 63.4419 429.868 61.9862 432.275 61.147C431.435 58.7807 428.583 54.5282 426.537 51.1809Z" fill="#3C3121"/>
<path d="M419.71 51.91C421.815 49.6574 423.849 51.3411 423.63 53.6158C423.412 55.8904 421.06 58.4522 418.841 56.1308C417.901 55.1463 418.913 52.7633 419.71 51.91Z" fill="#E1AA8D"/>
<path d="M420.269 55.562C420.259 55.562 420.249 55.5611 420.238 55.5594C420.142 55.5417 420.079 55.451 420.097 55.3559C420.718 51.9963 422.632 52.2218 422.713 52.2279C422.809 52.2412 422.876 52.3292 422.864 52.4252C422.85 52.5212 422.755 52.5802 422.667 52.5749C422.585 52.5661 420.996 52.4164 420.442 55.4185C420.426 55.503 420.352 55.562 420.269 55.562Z" fill="#CF7E68"/>
<path d="M421.699 55.562C421.641 55.562 421.585 55.5339 421.552 55.4828L420.577 53.9875C420.523 53.9065 420.547 53.7981 420.627 53.7453C420.711 53.6925 420.818 53.7162 420.869 53.7955L421.845 55.2908C421.899 55.3718 421.875 55.4801 421.795 55.533C421.765 55.5532 421.731 55.562 421.699 55.562Z" fill="#CF7E68"/>
<path d="M401.218 50.2544C401.134 50.2544 401.051 50.2253 400.983 50.1645C400.84 50.0351 400.828 49.8158 400.956 49.6723C401.012 49.6089 402.359 48.1329 404.393 48.8462C404.576 48.9096 404.672 49.1095 404.609 49.2918C404.545 49.4741 404.348 49.5736 404.163 49.5067C402.581 48.9572 401.521 50.0914 401.477 50.1408C401.409 50.2156 401.314 50.2544 401.218 50.2544Z" fill="#3C3121"/>
<path d="M411.521 49.1835C411.462 49.1835 411.403 49.1694 411.35 49.1394C409.702 48.2165 408.447 49.0575 408.394 49.0919C408.238 49.2028 408.018 49.1623 407.907 49.0038C407.798 48.8462 407.836 48.6295 407.993 48.5186C408.058 48.4728 409.65 47.3817 411.692 48.5283C411.86 48.6234 411.92 48.8365 411.826 49.0047C411.761 49.1192 411.643 49.1835 411.521 49.1835Z" fill="#3C3121"/>
<path d="M402.747 50.8452C403.882 50.6629 403.8 53.8455 402.747 53.945C401.695 54.0454 401.612 51.0275 402.747 50.8452Z" fill="#3C3121"/>
<path d="M410.241 50.2622C411.375 50.0799 411.293 53.2625 410.241 53.362C409.188 53.4624 409.105 50.4445 410.241 50.2622Z" fill="#3C3121"/>
<path d="M407.179 57.6614C407.175 57.6614 407.169 57.6614 407.165 57.6605C405.54 57.5328 405.486 56.2215 405.486 56.2083C405.484 56.1115 405.56 56.0313 405.657 56.0287C405.659 56.0287 405.66 56.0287 405.662 56.0287C405.756 56.0287 405.834 56.1035 405.837 56.1978C405.838 56.2418 405.891 57.2087 407.193 57.3118C407.29 57.3197 407.361 57.4033 407.354 57.5002C407.346 57.5918 407.27 57.6614 407.179 57.6614Z" fill="#CF7E68"/>
<path d="M407.215 61.8311C407.188 61.8311 407.171 61.8302 407.171 61.8302C407.074 61.8258 407 61.7439 407.004 61.647C407.008 61.551 407.1 61.4929 407.187 61.4806C407.267 61.4902 409.477 61.5589 410.52 59.3072C410.562 59.2209 410.663 59.183 410.752 59.2226C410.839 59.2631 410.878 59.367 410.837 59.4551C409.778 61.7386 407.563 61.8311 407.215 61.8311Z" fill="#CF7E68"/>
<path d="M405.305 46.1278C405.811 45.9428 405.825 47.2717 405.479 47.3157C405.132 47.3589 404.945 46.259 405.305 46.1278Z" fill="#9E5774"/>
<path d="M425.795 63.4409L424.732 65.4989L420.239 74.2735L410.414 74.0639L406.72 73.9802L411.534 70.5229L411.198 67.2619L411.058 65.9744L411.912 64.9247L417.636 57.9273L419.358 55.8279L419.498 57.0731L420.421 65.233L425.795 63.4409Z" fill="#E1AA8D"/>
<path d="M412.5 67.2476C412.354 67.2476 412.22 67.1578 412.169 67.0134C412.106 66.8311 412.201 66.6312 412.384 66.5678C414.363 65.8765 416.066 64.5767 417.306 62.8057C417.779 62.1241 418.168 61.3853 418.463 60.6121C418.533 60.4324 418.733 60.3426 418.914 60.4104C419.095 60.48 419.186 60.6808 419.117 60.8622C418.802 61.6873 418.386 62.4755 417.879 63.2055C416.554 65.0989 414.733 66.4894 412.613 67.2282C412.576 67.2423 412.538 67.2476 412.5 67.2476Z" fill="#CF7E68"/>
<path d="M433.407 60.776C437.325 59.4101 459.66 52.034 460.738 51.5382C461.817 51.0424 454.003 27.9207 452.429 23.2842C450.854 18.6477 451.466 14.0121 454.441 9.63806C457.415 5.26487 469.136 -0.246083 469.398 1.15323C469.661 2.55254 467.037 5.35205 467.037 5.35205C467.037 5.35205 469.923 6.28551 469.807 7.10185C469.691 7.91819 464.034 7.86007 464.034 7.86007C464.034 7.86007 461.701 12.3504 461.759 13.1667C461.817 13.9831 466.716 12.9334 466.89 13.9249C467.066 14.9165 464.091 17.5408 459.426 17.8323C459.426 17.8323 470.885 41.7413 474.121 48.0395C477.357 54.3377 478.67 56.8739 470.01 62.5601C461.349 68.2454 440.182 77.9552 440.182 77.9552L433.407 60.776Z" fill="#E1AA8D"/>
<path d="M462.751 56.0021C462.68 56.0021 462.613 55.9581 462.588 55.8885L461.1 51.8711C461.066 51.7804 461.112 51.68 461.204 51.6466C461.29 51.6131 461.394 51.6589 461.429 51.7496L462.916 55.767C462.95 55.8577 462.904 55.9581 462.812 55.9916C462.793 55.9986 462.772 56.0021 462.751 56.0021Z" fill="#CF7E68"/>
<path d="M464.194 7.36407C464.14 7.36407 464.087 7.33941 464.053 7.29186C463.996 7.21436 464.011 7.10428 464.09 7.04704L466.364 5.3853C466.441 5.32806 466.552 5.34391 466.609 5.42317C466.667 5.50066 466.651 5.61074 466.572 5.66798L464.298 7.32972C464.267 7.3535 464.23 7.36407 464.194 7.36407Z" fill="#CF7E68"/>
<path d="M457.327 20.3103C457.286 20.3103 457.246 20.2962 457.213 20.2672C457.141 20.2038 457.133 20.0928 457.196 20.0206L458.567 18.4487C458.63 18.3765 458.743 18.3685 458.813 18.4319C458.885 18.4954 458.893 18.6063 458.83 18.6785L457.459 20.2504C457.424 20.2901 457.377 20.3103 457.327 20.3103Z" fill="#CF7E68"/>
<path d="M461.003 56.002C460.995 56.002 460.987 56.0011 460.977 56.0002C460.881 55.9861 460.816 55.8972 460.829 55.8012L461.331 52.431C461.346 52.3359 461.414 52.2646 461.531 52.284C461.627 52.298 461.692 52.387 461.679 52.483L461.177 55.8522C461.163 55.9403 461.09 56.002 461.003 56.002Z" fill="#CF7E68"/>
<path d="M443.919 97.5483C445.081 104.784 444.969 127.527 444.969 127.527C429.574 140.235 407.06 129.622 407.06 129.622C400.16 106.389 396.796 81.6354 397.846 80.9353C397.958 80.8657 398.112 80.7398 398.308 80.5857C398.392 80.5302 398.491 80.4457 398.602 80.362C400.505 78.8923 404.802 75.3099 406.72 73.9801L413.998 72.1044L414.026 72.0903L418.462 70.9569L423.221 66.0721L425.796 63.4408C425.796 63.4408 429.869 61.9851 432.276 61.1459C432.598 61.0482 432.878 60.9495 433.13 60.8659C433.494 60.7399 433.843 60.6281 434.152 60.5576C435.607 60.1799 436.475 60.3754 437.147 62.1533C438.238 65.0224 447.77 89.1507 446.538 92.9999C445.319 96.8491 443.919 97.5483 443.919 97.5483Z" fill="#E1AA8D"/>
<path d="M443.919 97.5483C445.081 104.784 444.969 127.527 444.969 127.527C429.574 140.235 407.06 129.622 407.06 129.622C400.16 106.389 396.796 81.6354 397.846 80.9353C397.958 80.8657 398.112 80.7398 398.308 80.5857C401.108 79.8715 411.87 80.9353 428.433 85.1271C428.433 85.1271 432.276 76.0302 434.151 60.5576C435.606 60.1799 436.474 60.3754 437.146 62.1533C438.238 65.0224 447.769 89.1507 446.537 92.9999C445.319 96.8491 443.919 97.5483 443.919 97.5483Z" fill="#E0BB6A"/>
<path d="M407.061 129.621C404.17 134.439 401.521 143.121 401.521 143.121C401.521 143.121 403.51 145.95 409.309 145.483C415.108 145.017 419.403 142.876 427.12 147.699C430.852 150.032 437.152 142.108 442.166 144.434C450.33 148.22 455.345 140.468 455.345 140.468L444.97 127.526L407.061 129.621Z" fill="#E0BB6A"/>
<path d="M440.883 120.403C438.546 149.682 426.271 181.942 404.074 197.421L407.503 218.456C407.503 218.456 400.058 215.965 394.768 208.477C394.04 207.456 393.354 206.35 392.738 205.146C392.5 204.683 392.277 204.194 392.052 203.704C391.731 202.99 391.436 202.234 391.171 201.451C390.877 200.569 390.611 199.645 390.387 198.679C389.925 196.748 389.645 194.649 389.561 192.367C388.861 172.074 425.291 63.6072 425.291 63.6072C425.291 63.6072 426.831 59.4788 429.574 62.096C429.574 62.096 430.162 61.3123 431.113 60.6122C431.113 60.5981 431.113 60.5981 431.113 60.5981C431.603 60.2344 432.205 59.898 432.877 59.7166C433.045 59.6743 433.199 59.6329 433.367 59.6047C434.094 59.4788 434.892 59.5625 435.718 59.9825C435.718 59.9825 435.787 60.2766 435.914 60.8499C437.09 66.0579 442.996 93.9932 440.883 120.403Z" fill="#E9DD9D"/>
<path d="M429.574 62.0977C429.574 62.0977 400.645 145.302 390.4 198.694L390.386 198.68C389.924 196.749 389.644 194.649 389.56 192.368C388.86 172.075 425.29 63.608 425.29 63.608C425.29 63.608 426.831 59.4805 429.574 62.0977Z" fill="#CD6450"/>
<path d="M432.875 59.7181C429.306 70.4944 410.609 127.877 392.05 203.705C391.729 202.991 391.435 202.235 391.169 201.451C408.901 129.234 426.662 74.1058 431.112 60.6137C431.112 60.5996 431.112 60.5996 431.112 60.5996C431.602 60.2359 432.203 59.9004 432.875 59.7181Z" fill="#E0BB6A"/>
<path d="M435.914 60.8517C431.492 75.8549 410.302 148.115 394.767 208.477C394.04 207.456 393.354 206.35 392.737 205.146C408.37 144.643 429.322 73.3072 433.367 59.6056C434.094 59.4797 434.892 59.5633 435.718 59.9834C435.718 59.9834 435.788 60.2784 435.914 60.8517Z" fill="#CD6450"/>
<path d="M403.498 200.857C402.171 200.647 401.303 200.225 400.846 199.947C402.889 198.589 403.639 198.081 403.639 198.081C403.801 197.974 403.842 197.755 403.734 197.595C403.625 197.435 403.407 197.394 403.248 197.502C403.246 197.503 401.758 198.509 396.986 201.668C396.825 201.775 396.78 201.992 396.888 202.153C396.955 202.255 397.066 202.31 397.179 202.31C397.246 202.31 397.313 202.292 397.372 202.252C398.497 201.507 399.426 200.89 400.211 200.37C400.631 200.668 401.661 201.274 403.39 201.549C403.41 201.552 403.427 201.554 403.445 201.554C403.614 201.554 403.763 201.43 403.79 201.259C403.82 201.068 403.69 200.888 403.498 200.857Z" fill="#CFCAAE"/>
<path d="M436.292 109.096C436.061 109.074 435.93 109.225 435.916 109.417C435.896 109.674 433.809 135.314 426.911 152.702C418.474 173.968 409.075 185.495 405.012 189.835C410.981 178.594 421.7 155.902 428.772 126.437C436.502 94.2247 436.266 73.1425 436.264 72.933C436.261 72.7419 436.105 72.5886 435.914 72.5886H435.909C435.716 72.5921 435.562 72.7507 435.565 72.9444C435.567 73.1531 435.801 94.1552 428.092 126.274C420.564 157.64 408.897 181.3 403.271 191.594C403.077 191.775 402.965 191.874 402.953 191.883C402.832 191.988 402.823 192.152 402.888 192.291C401.14 195.457 400.059 197.187 400.015 197.255C399.912 197.418 399.961 197.635 400.124 197.739C400.183 197.775 400.247 197.792 400.311 197.792C400.428 197.792 400.541 197.735 400.606 197.63C400.652 197.556 401.874 195.601 403.829 192.03C406.127 189.857 417.537 178.228 427.561 152.96C434.497 135.473 436.593 109.73 436.613 109.472C436.628 109.279 436.485 109.111 436.292 109.096Z" fill="#CFCAAE"/>
<path d="M397.846 80.9353C397.846 80.9353 372.216 102.446 369.504 105.071C366.793 107.695 366.146 109.724 369.504 116.442C374.578 126.589 388.398 143.122 388.398 143.122C388.398 143.122 386.824 148.633 387.698 151.694C388.573 154.756 391.197 158.488 392.771 158.254C392.771 158.254 393.763 160.354 395.571 158.604C395.571 158.604 396.271 160.412 397.204 159.712C398.137 159.012 397.32 155.455 396.096 153.006C394.871 150.557 395.804 146.008 397.846 146.124C399.887 146.242 401.111 148.166 401.578 146.941C402.044 145.716 397.087 142.451 394.872 141.459C394.872 141.459 390.586 125.277 382.188 110.669L400.953 98.6949C400.953 98.6949 405.369 90.9005 397.846 80.9353Z" fill="#E1AA8D"/>
<path d="M381.663 109.882C381.598 109.882 381.534 109.845 381.504 109.781C381.494 109.756 380.358 107.32 379.068 105.342C379.015 105.261 379.038 105.153 379.118 105.1C379.202 105.046 379.309 105.071 379.36 105.15C380.663 107.15 381.811 109.609 381.821 109.633C381.863 109.72 381.824 109.825 381.737 109.866C381.712 109.876 381.687 109.882 381.663 109.882Z" fill="#CF7E68"/>
<path d="M395.178 157.818C395.106 157.818 395.039 157.774 395.014 157.702L393.746 154.204C393.713 154.113 393.76 154.013 393.85 153.979C393.944 153.946 394.041 153.993 394.074 154.085L395.342 157.583C395.375 157.674 395.328 157.774 395.238 157.808C395.217 157.814 395.197 157.818 395.178 157.818Z" fill="#CF7E68"/>
<path d="M392.422 157.817C392.351 157.817 392.284 157.773 392.259 157.703L390.728 153.591C390.694 153.501 390.74 153.4 390.831 153.367C390.921 153.332 391.022 153.379 391.057 153.47L392.587 157.581C392.621 157.671 392.575 157.773 392.485 157.806C392.464 157.814 392.444 157.817 392.422 157.817Z" fill="#CF7E68"/>
<path d="M381.463 109.459C381.37 109.459 381.292 109.385 381.288 109.29L381.112 104.844C381.107 104.748 381.183 104.666 381.28 104.663C381.359 104.661 381.458 104.734 381.461 104.831L381.637 109.277C381.642 109.373 381.566 109.455 381.469 109.459C381.467 109.459 381.466 109.459 381.463 109.459Z" fill="#CF7E68"/>
<path d="M566.147 284.169C588.345 284.169 606.34 282.522 606.34 280.49C606.34 278.459 588.345 276.812 566.147 276.812C543.948 276.812 525.953 278.459 525.953 280.49C525.953 282.522 543.948 284.169 566.147 284.169Z" fill="#EAE4CC"/>
<path d="M558.977 59.6238C558.823 59.6238 558.669 59.6097 558.516 59.5956C557.536 59.5392 556.613 59.3015 555.745 58.9237C554.163 58.2377 552.764 57.0761 551.574 55.6205C550.356 54.1507 549.349 52.4018 548.523 50.5119C547.879 49.0422 547.347 47.5169 546.955 45.9917L546.941 45.9776C546.885 45.7821 546.829 45.5857 546.787 45.3902C545.108 38.5742 548.131 31.339 555.311 31.9264C561.37 32.416 563.386 35.8733 564.547 41.1773C564.757 42.1293 564.939 43.1508 565.107 44.2287C565.989 49.8127 563.89 59.6661 558.977 59.6238Z" fill="#E1AA8D"/>
<path d="M570.23 59.6238C569.012 55.8309 567.024 54.893 568.425 47.3214C569.824 39.7357 566.382 30.0224 555.815 30.0506C543.163 30.0929 542.016 44.9279 540.195 47.8392C538.39 50.7506 536.122 51.2825 536.934 55.1308C537.746 58.9792 536.64 60.4348 532.736 62.5906C528.831 64.7464 530.118 68.1887 530.118 68.1887L548.131 69.3503L548.228 68.9443L542.21 66.2989L548.606 64.0181L548.523 50.5119C547.879 49.0422 547.347 47.5169 546.955 45.9917L546.941 45.9776C554.876 41.0514 555.814 34.0257 555.814 34.0257C559.859 41.1359 564.547 41.1773 564.547 41.1773C564.757 42.1293 564.939 43.1508 565.106 44.2287C565.988 49.8127 563.889 59.666 558.976 59.6238C558.822 59.6238 558.668 59.6097 558.515 59.5956V63.9899L565.681 64.8159L562.07 66.1457L568.774 67.7273C568.774 67.7273 571.461 63.4166 570.23 59.6238Z" fill="#3C3121"/>
<path d="M546.97 46.0736C544.97 45.5655 542.959 47.1841 544.796 50.4204C546.633 53.6567 548.601 52.0821 549.038 50.4204C549.476 48.7578 546.97 46.0736 546.97 46.0736Z" fill="#E1AA8D"/>
<path d="M547.954 49.8761C547.882 49.8761 547.815 49.8321 547.79 49.7617C547.315 48.4733 546.45 47.9361 545.146 48.1167C545.049 48.1202 544.962 48.0621 544.948 47.967C544.934 47.871 545.001 47.7829 545.097 47.7697C546.585 47.5698 547.587 48.1959 548.118 49.6419C548.152 49.7326 548.103 49.833 548.014 49.8665C547.995 49.8726 547.974 49.8761 547.954 49.8761Z" fill="#CF7E68"/>
<path d="M546.336 50.8509C546.316 50.8509 546.294 50.8474 546.274 50.8394C546.184 50.8042 546.138 50.7038 546.174 50.6131L547.024 48.4124C547.057 48.3217 547.161 48.2751 547.25 48.312C547.34 48.3473 547.385 48.4485 547.349 48.5384L546.499 50.7391C546.473 50.8077 546.406 50.8509 546.336 50.8509Z" fill="#CF7E68"/>
<path d="M553.756 41.3665C553.632 41.3665 553.511 41.2995 553.447 41.1815C553.357 41.0116 553.421 40.7994 553.591 40.7078C553.675 40.6646 555.644 39.6299 557.022 40.4674C557.187 40.5678 557.239 40.7835 557.139 40.9482C557.038 41.1137 556.82 41.1631 556.658 41.0653C555.79 40.5387 554.39 41.0741 553.922 41.3251C553.869 41.3533 553.813 41.3665 553.756 41.3665Z" fill="#3C3121"/>
<path d="M562.549 41.1033C562.467 41.1033 562.385 41.0742 562.318 41.0169C561.651 40.4349 560.645 41.046 560.634 41.0513C560.471 41.1543 560.255 41.1033 560.154 40.9386C560.051 40.7748 560.102 40.5599 560.265 40.4578C560.322 40.4208 561.718 39.5622 562.78 40.4912C562.926 40.618 562.941 40.8399 562.813 40.9844C562.743 41.0627 562.646 41.1033 562.549 41.1033Z" fill="#3C3121"/>
<path d="M555.439 42.3944C556.32 42.4085 556.508 45.0407 555.439 45.1719C554.371 45.3031 554.124 42.3724 555.439 42.3944Z" fill="#3C3121"/>
<path d="M561.945 42.6074C562.656 42.6074 563.064 45.1921 561.945 45.3074C560.825 45.4237 561.122 42.6074 561.945 42.6074Z" fill="#3C3121"/>
<path d="M560.319 49.3168C560.249 49.3168 560.183 49.2754 560.156 49.2067C560.121 49.116 560.164 49.0147 560.254 48.9795C560.436 48.9073 560.552 48.7981 560.609 48.6449C560.727 48.3278 560.559 47.8884 560.485 47.7458C560.44 47.6595 560.473 47.5547 560.559 47.5097C560.644 47.4639 560.75 47.4983 560.794 47.5837C560.809 47.6101 561.132 48.2407 560.938 48.7664C560.845 49.0139 560.659 49.1953 560.383 49.3053C560.363 49.3124 560.341 49.3168 560.319 49.3168Z" fill="#CF7E68"/>
<path d="M560.571 52.3304C560.56 52.3304 560.549 52.3287 560.536 52.3269C557.8 51.788 557.172 49.6111 557.147 49.5186C557.121 49.4253 557.176 49.3293 557.268 49.3037C557.358 49.272 557.459 49.3319 557.483 49.4253C557.506 49.5098 558.086 51.4868 560.605 51.9835C560.699 52.002 560.761 52.0944 560.743 52.1895C560.727 52.2732 560.653 52.3304 560.571 52.3304Z" fill="#CF7E68"/>
<path d="M565.678 64.8161L562.068 66.1459L551.04 70.1765L548.226 68.9454L542.208 66.3L548.604 64.0191L548.52 50.513L548.506 48.2736L548.758 48.5113L556.344 55.7333L557.603 56.9372L558.513 59.5958V63.991L565.678 64.8161Z" fill="#E1AA8D"/>
<path d="M557.25 59.7693C557.225 59.7693 557.198 59.7667 557.173 59.7614C556.644 59.6434 556.115 59.4699 555.601 59.2444C554.039 58.5672 552.59 57.4224 551.298 55.8426C550.764 55.1971 550.251 54.4767 549.777 53.7018C549.676 53.5371 549.728 53.3222 549.892 53.221C550.057 53.1223 550.273 53.1717 550.373 53.3372C550.831 54.084 551.324 54.777 551.838 55.3988C553.06 56.8932 554.42 57.9711 555.879 58.6033C556.353 58.8103 556.838 58.9706 557.325 59.078C557.514 59.1203 557.633 59.3078 557.59 59.4954C557.554 59.6592 557.411 59.7693 557.25 59.7693Z" fill="#CF7E68"/>
<path d="M595.25 195.902C595.25 195.902 594.783 203.774 598.107 207.74C601.431 211.705 602.656 211.997 601.315 212.988C599.973 213.98 596.591 212.639 596.241 210.773C596.241 210.773 585.046 206.349 579.679 200.626C577.93 198.76 586.444 191.412 586.444 191.412L595.25 195.902Z" fill="#E1AA8D"/>
<path d="M587.61 128.664C604.929 130.063 619.333 136.828 623.532 138.577C627.731 140.327 630.529 145.575 623.532 155.022C616.535 164.47 602.189 191.528 602.539 200.042C602.539 200.042 600.09 199.109 594.958 199.341C589.825 199.574 582.945 199.924 579.446 193.626C579.68 191.993 593.209 162.136 600.439 153.972C600.439 153.972 574.198 151.989 566.967 150.122L587.61 128.664Z" fill="#E0BB6A"/>
<path d="M606.243 146.441C606.11 146.302 605.889 146.3 605.748 146.432C604.66 147.481 603.495 148.876 602.542 150.093L603.101 146.741C603.133 146.551 603.004 146.37 602.813 146.338C602.623 146.307 602.441 146.434 602.41 146.626L601.633 151.281C601.004 152.122 600.588 152.719 600.544 152.782C600.433 152.941 600.473 153.159 600.632 153.269C600.692 153.311 600.762 153.332 600.832 153.332C600.942 153.332 601.05 153.279 601.119 153.181C601.146 153.141 603.924 149.16 606.236 146.936C606.372 146.803 606.377 146.581 606.243 146.441Z" fill="#C2B7A0"/>
<path d="M557.696 265.296C555.421 270.107 554.284 276.318 547.024 278.767C547.024 278.767 548.774 282.528 554.722 279.817C560.67 277.105 571.08 278.942 570.379 274.306C569.679 269.67 565.219 263.634 565.219 263.634L557.696 265.296Z" fill="#E1AA8D"/>
<path d="M541.076 142.135C539.851 154.731 539.677 186.572 540.376 195.493C541.076 204.416 549.076 256.549 548.05 263.372C548.05 263.372 552.185 265.384 556.121 267.658C560.058 269.933 565.569 264.946 569.942 264.684C574.315 264.422 576.24 264.597 576.24 264.597C576.24 264.597 572.392 241.155 567.493 227.508C562.595 213.863 561.195 200.917 563.12 189.37C565.044 177.823 571.342 147.384 571.342 147.384L541.076 142.135Z" fill="#E0BB6A"/>
<path d="M549.018 205.547C546.683 205.547 544.674 204.791 544.549 204.742C544.368 204.673 544.278 204.47 544.348 204.29C544.416 204.108 544.62 204.019 544.8 204.089C544.843 204.106 549.242 205.759 552.384 204.106C552.556 204.016 552.767 204.081 552.857 204.253C552.946 204.423 552.88 204.635 552.709 204.725C551.537 205.342 550.233 205.547 549.018 205.547Z" fill="#C2B7A0"/>
<path d="M579.213 123.878C563.469 138.461 538.976 132.863 538.976 132.863C538.976 132.863 540.613 129.602 542.209 122.254C543.538 116.124 539.563 107.657 534.385 94.7107C534.385 94.7107 534.385 94.7108 534.385 94.6967C533.685 92.9477 532.972 91.1275 532.243 89.2104C528.045 78.2237 528.702 66.3 528.702 66.3C528.702 66.3 530.312 66.5237 532.579 66.6778C533.069 66.706 533.601 66.7342 534.161 66.7615C536.708 66.8592 539.745 66.8178 542.208 66.3L565.678 64.8162C565.678 64.8162 566.21 64.8443 567.162 64.9844C568.114 65.1244 577.812 84.3405 578.624 90.2882C579.45 96.236 576.874 98.9237 576.874 98.9237C576.874 98.9237 577.112 113.269 576.874 118.28C576.652 123.304 579.213 123.878 579.213 123.878Z" fill="#E1AA8D"/>
<path d="M595.658 123.878C595.658 123.878 589.878 147.208 579.213 155.257C568.535 163.304 562.419 158.406 558.22 162.254C554.021 166.103 539.326 161.554 530.579 155.257C530.579 155.257 537.046 138.266 538.977 132.864C538.977 132.864 540.614 129.603 542.21 122.255C543.539 116.125 539.564 107.658 534.386 94.7117C534.386 94.7117 534.386 94.7117 534.386 94.6977C534.456 94.0962 536.262 78.1965 532.581 66.6788C532.581 66.6788 533.505 65.7409 534.162 66.7624L537.494 75.6497C537.494 75.6497 554.639 75.832 562.686 82.4799L569.908 73.9704L570.552 73.2148L567.165 64.9854C567.878 65.0831 573.463 75.832 576.584 83.7532C577.648 86.4259 578.417 88.7913 578.627 90.2892C578.683 90.6952 578.725 91.073 578.753 91.4508C579.117 96.5875 576.877 98.9247 576.877 98.9247C576.877 98.9247 577.115 113.27 576.877 118.281C576.653 123.305 579.214 123.879 579.214 123.879C579.214 123.879 589.36 125.166 595.658 123.878Z" fill="#9E5774"/>
<path d="M572.217 85.5021C572.147 89.995 571.727 95.2153 570.761 101.163C568.731 113.759 564.239 129.588 555.24 148.426C544.044 171.911 540.377 195.493 540.377 195.493C540.377 195.493 532.805 193.771 529.013 185.024C528.607 184.1 528.257 183.107 527.949 182.015C527.543 180.517 527.235 179.104 527.011 177.774C526.857 176.808 526.745 175.885 526.674 175.003C526.563 173.645 526.534 172.385 526.563 171.238C526.703 166.731 527.795 164.03 527.934 163.709C527.934 163.695 527.934 163.68 527.948 163.666C527.948 163.666 522.013 151.589 524.449 141.092C526.912 130.595 551.922 102.604 561.887 64.382C561.887 64.382 562.475 64.2843 563.385 64.2279C563.623 64.2138 563.903 64.1997 564.183 64.1997C564.631 64.1715 565.121 64.1856 565.639 64.2279C565.835 64.2279 566.016 64.242 566.213 64.2702C567.472 64.3961 568.788 64.7325 569.852 65.4176L569.866 65.4317C569.894 65.4881 569.963 65.6977 570.089 66.0614C570.383 67.0547 570.957 69.1682 571.447 72.3878C571.937 75.6487 572.329 80.0298 572.217 85.5021Z" fill="#CD6450"/>
<path d="M563.384 64.2289C562.783 69.2396 532.077 148.609 527.947 163.667C527.947 163.667 522.012 151.59 524.448 141.093C526.911 130.595 551.922 102.605 561.886 64.383C561.886 64.383 562.474 64.2844 563.384 64.2289Z" fill="#E9DD9D"/>
<path d="M565.638 64.2288C562.223 77.5244 537.353 145.879 526.675 175.004C526.563 173.646 526.535 172.386 526.563 171.239C537.704 140.784 560.782 77.2021 564.183 64.2006C564.631 64.1724 565.12 64.1865 565.638 64.2288Z" fill="#E0BB6A"/>
<path d="M570.091 66.0623C567.474 75.2156 559.104 99.0356 547.321 132.388C540.169 152.625 532.835 173.367 529.014 185.025C528.608 184.101 528.259 183.108 527.951 182.016C527.545 180.518 527.236 179.105 527.013 177.775C531.029 165.907 537.09 148.748 543.36 130.987C552.96 103.808 563.723 73.3539 566.215 64.2703C567.474 64.3962 568.79 64.7326 569.853 65.4177L569.867 65.4318C569.896 65.4882 569.965 65.6986 570.091 66.0623Z" fill="#E9DD9D"/>
<path d="M606.155 73.2974C600.668 71.5203 578.625 66.971 569.864 65.4316C569.948 65.6694 570.788 68.0066 571.446 72.3877C573.21 75.9005 575.141 80.1275 576.582 83.7522C575.449 84.0322 573.853 84.7041 572.215 85.502C568.8 87.1813 565.218 89.4349 565.218 89.9386C565.218 90.6528 568.073 89.8126 568.395 89.729C566.702 90.695 563.875 95.5508 563.636 98.3362C563.413 101.135 562.167 100.892 562.823 101.723C563.532 102.621 565.106 101.023 565.106 101.023C564.406 102.241 565.037 102.828 566.8 101.75C568.535 100.673 569.067 101.261 569.823 101.722C570.005 101.834 570.341 101.596 570.761 101.162C572.076 99.8042 574.133 96.5301 574.133 96.5301C576.261 95.4944 577.842 93.1291 578.751 91.4497C579.34 90.3577 579.647 89.5608 579.647 89.5608C594.608 89.043 604.321 84.4945 608.254 81.6114C612.187 78.7141 612.368 75.3131 606.155 73.2974Z" fill="#E1AA8D"/>
<path d="M577.637 83.2372C577.556 83.2372 577.482 83.1782 577.465 83.0954C577.447 83.0003 577.51 82.9087 577.604 82.8902C577.638 82.884 581.02 82.2333 585.037 80.6252C589.062 79.0163 596.834 74.6731 596.912 74.6291C596.998 74.5789 597.103 74.6123 597.151 74.696C597.198 74.7796 597.168 74.8862 597.084 74.9338C597.005 74.9778 589.212 79.3325 585.168 80.9502C581.115 82.5705 577.704 83.2275 577.67 83.2345C577.659 83.2363 577.649 83.2372 577.637 83.2372Z" fill="#CF7E68"/>
<path d="M591.879 77.7146C591.838 77.7146 591.798 77.7005 591.766 77.6723C591.692 77.6098 591.684 77.4997 591.746 77.4257L594.708 73.9675C594.771 73.8935 594.883 73.8865 594.953 73.949C595.027 74.0115 595.035 74.1216 594.973 74.1956L592.011 77.6538C591.978 77.6943 591.928 77.7146 591.879 77.7146Z" fill="#CF7E68"/>
<path d="M565.183 100.454C565.166 100.454 565.151 100.452 565.134 100.446C565.041 100.419 564.988 100.322 565.015 100.229C565.02 100.212 565.505 98.5863 566.112 96.9386C566.726 95.2743 567.836 93.6847 567.882 93.6178C567.939 93.5377 568.046 93.5192 568.127 93.5755C568.205 93.631 568.224 93.7393 568.169 93.8186C568.159 93.8353 567.038 95.4381 566.441 97.0584C565.837 98.6955 565.356 100.312 565.351 100.328C565.328 100.406 565.258 100.454 565.183 100.454Z" fill="#CF7E68"/>
<path d="M567.45 100.454C567.429 100.454 567.407 100.45 567.386 100.443C567.296 100.407 567.251 100.306 567.287 100.215C567.34 100.077 568.611 96.8215 569.311 95.6406C569.359 95.5578 569.468 95.527 569.551 95.5798C569.635 95.6292 569.662 95.7366 569.613 95.8194C568.927 96.9739 567.627 100.309 567.613 100.342C567.586 100.412 567.519 100.454 567.45 100.454Z" fill="#CF7E68"/>
<path d="M569.557 100.454C569.534 100.454 569.51 100.45 569.489 100.44C569.4 100.401 569.358 100.299 569.395 100.21C569.457 100.067 570.896 96.6868 571.55 95.6371C571.604 95.556 571.711 95.5296 571.792 95.5816C571.874 95.6327 571.899 95.741 571.849 95.8229C571.207 96.8488 569.733 100.312 569.718 100.347C569.69 100.414 569.625 100.454 569.557 100.454Z" fill="#CF7E68"/>
<path d="M586.62 90.9347C586.589 90.9347 586.558 90.9329 586.526 90.9303C585.949 90.8792 585.521 90.3693 585.573 89.7916C586.185 82.9034 583.598 81.3852 583.573 81.3702C583.075 81.0937 582.874 80.4658 583.135 79.9621C583.395 79.4566 583.994 79.2453 584.51 79.4918C584.91 79.6856 588.406 81.6229 587.664 89.9774C587.616 90.5234 587.158 90.9347 586.62 90.9347Z" fill="#E9DD9D"/>
<path d="M589.524 90.0901C589.52 90.0901 589.516 90.0901 589.51 90.0901C588.931 90.0831 588.468 89.6067 588.475 89.0272C588.562 82.2032 586.373 80.4667 586.351 80.449C585.897 80.1065 585.786 79.4575 586.114 78.9951C586.443 78.5328 587.067 78.406 587.539 78.7204C587.861 78.9352 590.676 81.0461 590.574 89.0545C590.567 89.6295 590.098 90.0901 589.524 90.0901Z" fill="#E9DD9D"/>
<path d="M528.705 66.3002C521.95 64.8683 507.324 56.4698 506.321 55.7124C505.758 55.288 505.808 54.1379 506.799 51.8641C507.791 49.5895 516.118 28.2466 516.118 28.2466C516.118 28.2466 521.745 26.1041 523.714 24.223C525.682 22.342 527.256 19.1057 526.643 18.5809C526.031 18.056 524.719 19.1057 524.719 19.1057C524.719 19.1057 529.224 11.0145 528.524 10.0961C527.824 9.17756 526.25 11.6266 526.25 11.6266C526.25 11.6266 527.78 7.51582 526.862 7.34058C525.943 7.16533 524.062 10.3585 524.062 10.3585C524.062 10.3585 524.85 8.12785 524.149 7.8214C523.449 7.51494 521.875 9.92081 521.875 9.92081C521.875 9.92081 521.831 7.95261 520.825 8.34625C519.819 8.73989 514.396 13.8132 512.909 22.298C512.909 22.298 498.748 39.9528 494.656 52.8548C493.14 57.6366 491.849 60.9936 503.386 69.3507C514.933 77.7149 530.912 85.1615 530.912 85.1615L530.578 71.4572L528.705 66.3002Z" fill="#E1AA8D"/>
<path d="M516.76 22.0572C516.728 22.0572 516.698 22.0493 516.67 22.0317C516.586 21.9815 516.561 21.875 516.61 21.7922C517.917 19.6276 520.941 19.4594 522.566 19.3696C522.824 19.3555 523.045 19.3432 523.215 19.3247C523.335 19.3141 523.398 19.3845 523.408 19.4805C523.418 19.5765 523.349 19.6619 523.253 19.6734C523.078 19.6919 522.852 19.7051 522.587 19.7192C521.027 19.8064 518.122 19.9675 516.912 21.9727C516.877 22.0273 516.819 22.0572 516.76 22.0572Z" fill="#CF7E68"/>
<path d="M523.233 16.2918C523.198 16.2918 523.164 16.2821 523.134 16.2609C523.053 16.2072 523.033 16.098 523.087 16.0188L525.636 12.2858C525.69 12.2057 525.8 12.1845 525.879 12.24C525.96 12.2937 525.98 12.4038 525.925 12.4831L523.376 16.216C523.343 16.2645 523.289 16.2918 523.233 16.2918Z" fill="#CF7E68"/>
<path d="M521.817 15.0077C521.792 15.0077 521.767 15.0024 521.743 14.991C521.656 14.9505 521.617 14.8466 521.658 14.7585L523.524 10.7349C523.567 10.6477 523.668 10.6116 523.757 10.6504C523.844 10.6909 523.883 10.7948 523.841 10.8829L521.975 14.9064C521.945 14.9707 521.883 15.0077 521.817 15.0077Z" fill="#CF7E68"/>
<path d="M519.996 14.1923C519.974 14.1923 519.952 14.1879 519.93 14.1791C519.841 14.143 519.797 14.0408 519.833 13.9519L521.128 10.7438C521.165 10.6539 521.267 10.6125 521.356 10.6478C521.445 10.6839 521.489 10.786 521.453 10.875L520.158 14.0831C520.131 14.1509 520.065 14.1923 519.996 14.1923Z" fill="#CF7E68"/>
<path d="M530.914 81.7208C530.843 81.7208 530.775 81.6768 530.75 81.6054C529.272 77.5141 522.498 73.5724 522.429 73.5336C522.345 73.4852 522.317 73.3786 522.365 73.2941C522.414 73.2096 522.521 73.1814 522.604 73.2298C522.887 73.3927 529.557 77.2763 531.079 81.4866C531.111 81.5773 531.065 81.6777 530.973 81.7111C530.954 81.7182 530.932 81.7208 530.914 81.7208Z" fill="#CF7E68"/>
<path d="M529.033 78.7531C529.026 78.7531 529.021 78.7531 529.014 78.7513L525.005 78.3075C524.909 78.2969 524.839 78.2106 524.851 78.1146C524.862 78.0186 524.95 77.9508 525.044 77.9605L529.052 78.4043C529.148 78.4149 529.218 78.5012 529.206 78.5972C529.198 78.687 529.122 78.7531 529.033 78.7531Z" fill="#CF7E68"/>
<path d="M514.835 33.2027C514.546 33.2027 514.257 33.0829 514.05 32.8487C511.285 29.726 507.753 29.7506 507.571 29.7621C506.965 29.7207 506.513 29.3156 506.499 28.7379C506.486 28.1602 506.94 27.6794 507.516 27.6636C507.715 27.6468 512.186 27.5746 515.622 31.4573C516.006 31.8914 515.966 32.5545 515.531 32.9385C515.331 33.1155 515.082 33.2027 514.835 33.2027Z" fill="#E9DD9D"/>
<path d="M516.071 30.9438C515.781 30.9438 515.493 30.8241 515.285 30.5898C512.493 27.4363 508.835 27.5068 508.813 27.5024C508.179 27.5305 507.75 27.0612 507.733 26.4826C507.716 25.9031 508.173 25.4206 508.753 25.4038C508.966 25.3977 513.425 25.3219 516.858 29.1984C517.242 29.6326 517.202 30.2957 516.768 30.6796C516.566 30.8575 516.317 30.9438 516.071 30.9438Z" fill="#E9DD9D"/>
<path d="M87.8556 284.168C136.194 284.168 175.379 282.604 175.379 280.674C175.379 278.744 136.194 277.18 87.8556 277.18C39.5177 277.18 0.332031 278.744 0.332031 280.674C0.332031 282.604 39.5177 284.168 87.8556 284.168Z" fill="#EAE4CC"/>
<path d="M37.8727 259.733C34.2859 265.331 25.9764 272.679 20.7278 273.204C15.4793 273.729 14.1179 274.986 13.6626 277.403C13.2372 279.659 44.0248 278.015 44.0248 278.015C44.0248 278.015 46.745 270.229 47.2567 261.945L37.8727 259.733Z" fill="#E1AA8D"/>
<path d="M104.72 163.42C89.3253 179.981 49.9041 225.467 25.4121 257.191C25.4121 257.191 31.1274 265.122 42.9066 265.822C54.6859 266.522 57.835 264.772 57.835 264.772C57.835 264.772 64.7135 250.971 69.498 243.953C90.4912 213.163 131.953 169.952 131.953 169.952L104.72 163.42Z" fill="#CD6450"/>
<path d="M71.8311 205.641C71.8311 205.641 75.3298 206.807 78.1293 210.54L71.8311 205.641Z" fill="#C8A39F"/>
<path d="M78.13 210.888C78.0244 210.888 77.9187 210.84 77.85 210.748C75.1553 207.156 71.7552 205.983 71.7217 205.973C71.5386 205.911 71.439 205.713 71.5007 205.53C71.5615 205.346 71.7605 205.248 71.9428 205.309C72.0898 205.358 75.578 206.553 78.4101 210.329C78.5254 210.483 78.4937 210.702 78.3396 210.819C78.2762 210.866 78.2022 210.888 78.13 210.888Z" fill="#C8A39F"/>
<path d="M112.535 183.072C112.349 183.072 112.194 182.926 112.186 182.738L111.748 173.116C111.74 172.923 111.888 172.76 112.082 172.752C112.308 172.724 112.439 172.893 112.448 173.085L112.885 182.707C112.894 182.9 112.745 183.064 112.552 183.072C112.545 183.072 112.539 183.072 112.535 183.072Z" fill="#C8A39F"/>
<path d="M146.21 268.183C144.985 273.956 142.536 275.968 140.524 276.755C138.512 277.542 138.6 279.554 138.6 279.554C138.6 279.554 145.773 280.779 151.021 279.554C156.27 278.329 154.958 277.105 160.118 277.193C160.118 277.193 160.468 270.088 156.707 265.987L146.21 268.183Z" fill="#E1AA8D"/>
<path d="M120.056 157.88C117.782 168.552 107.635 206.34 106.469 213.221C105.303 220.102 104.253 221.268 112.767 231.299C121.281 241.329 142.508 269.32 142.508 269.32C142.508 269.32 147.173 271.769 151.139 270.719C155.104 269.669 160.119 266.52 160.119 266.52C160.119 266.52 144.724 238.529 139.242 229.665C133.761 220.802 130.262 217.653 130.262 217.653C130.262 217.653 145.87 194.605 151.897 178.348C157.924 162.092 150.147 145.984 150.147 145.984L120.056 157.88Z" fill="#CD6450"/>
<path d="M113.442 184.994C113.413 184.994 113.384 184.99 113.355 184.984C113.168 184.936 113.055 184.748 113.103 184.56C114.972 177.228 116.904 169.651 118.253 164.095C118.299 163.908 118.489 163.798 118.676 163.837C118.864 163.883 118.979 164.073 118.933 164.26C117.582 169.819 115.649 177.399 113.782 184.728C113.742 184.888 113.598 184.994 113.442 184.994Z" fill="#C8A39F"/>
<path d="M128.806 216.662C128.623 216.662 128.468 216.52 128.457 216.335L128.019 209.687C128.007 209.493 128.152 209.328 128.345 209.315C128.548 209.288 128.704 209.449 128.718 209.64L129.155 216.288C129.168 216.482 129.022 216.648 128.829 216.661C128.821 216.662 128.813 216.662 128.806 216.662Z" fill="#C8A39F"/>
<path d="M115.221 68.4275C114.521 69.9113 112.912 71.9967 111.121 73.6478V73.6619C109.889 74.7953 108.559 75.7332 107.398 76.125C105.48 76.7688 102.443 73.2701 100.175 69.1831C99.2658 67.546 98.5525 65.9644 98.0761 64.2005C97.3619 61.5833 97.1946 58.546 97.7265 54.3199C98.5939 47.252 112.296 47.252 113.528 50.8211C114.031 52.2768 114.591 55.0622 115.011 58.0291C115.109 58.7706 115.207 59.5402 115.291 60.2826C115.417 61.4159 115.515 62.5361 115.557 63.5576C115.682 65.768 115.613 67.6015 115.221 68.4275Z" fill="#E1AA8D"/>
<path d="M118.72 44.6911C109.553 36.2098 97.4187 47.9239 97.4187 47.9239C97.4187 47.9239 94.0459 48.078 94.0459 52.5559C94.0459 57.0489 98.0765 64.2005 98.0765 64.2005C98.0765 64.2005 97.5446 55.7192 98.9721 54.4872C98.9721 54.4872 100.288 53.2552 101.995 54.9627C103.703 56.6702 106.698 59.3015 115.011 58.0281C115.109 58.7696 115.206 59.5393 115.291 60.2817L119.126 65.4597C119.126 65.4597 125.48 50.947 118.72 44.6911Z" fill="#3C3121"/>
<path d="M114.519 56.6049C115.555 54.6182 117.18 54.4667 118.028 56.0272C118.876 57.5877 118.516 62.0621 115.613 61.9283C112.709 61.7944 114.519 56.6049 114.519 56.6049Z" fill="#E1AA8D"/>
<path d="M115.755 60.5439C115.754 60.5439 115.751 60.5439 115.749 60.5448C115.653 60.5501 115.569 60.4761 115.564 60.3801C115.475 58.8522 116.011 56.4517 117.213 56.1065C117.311 56.0792 117.402 56.1346 117.429 56.2271C117.456 56.3196 117.402 56.4164 117.309 56.4437C116.41 56.7018 115.82 58.7607 115.914 60.3599C115.919 60.4541 115.849 60.5351 115.755 60.5439Z" fill="#CF7E68"/>
<path d="M116.953 59.8862C116.903 59.8906 116.851 59.8739 116.812 59.8351L115.745 58.7555C115.677 58.6868 115.677 58.5767 115.747 58.508C115.815 58.4402 115.926 58.4402 115.994 58.5098L117.062 59.5894C117.129 59.6581 117.129 59.7682 117.06 59.8369C117.031 59.866 116.992 59.8827 116.953 59.8862Z" fill="#CF7E68"/>
<path d="M98.6272 61.4563C98.5224 61.4563 98.4177 61.4087 98.3498 61.3189C98.2318 61.1657 98.2609 60.9455 98.415 60.8293C98.4714 60.7852 99.8302 59.7628 101.242 60.2833C101.423 60.3493 101.516 60.551 101.449 60.7324C101.383 60.9138 101.181 61.008 101 60.9394C99.9464 60.551 98.8509 61.3762 98.8404 61.3841C98.7761 61.4325 98.7021 61.4563 98.6272 61.4563Z" fill="#3C3121"/>
<path d="M104.837 60.6277C104.747 60.6277 104.657 60.5934 104.59 60.5256C104.453 60.3891 104.453 60.1672 104.59 60.0307C104.64 59.9796 105.869 58.7784 107.658 59.4988C107.837 59.571 107.925 59.7744 107.852 59.954C107.78 60.1337 107.572 60.2173 107.396 60.1478C106.03 59.5974 105.094 60.5159 105.085 60.5247C105.016 60.5934 104.926 60.6277 104.837 60.6277Z" fill="#3C3121"/>
<path d="M99.9102 62.7686C101.084 62.5793 101.193 65.1886 100.231 65.3348C99.2682 65.4801 99.0058 62.9139 99.9102 62.7686Z" fill="#3C3121"/>
<path d="M106.382 61.6599C107.577 61.5137 107.577 64.2841 106.849 64.3713C106.12 64.4594 105.187 61.8061 106.382 61.6599Z" fill="#3C3121"/>
<path d="M103.737 67.737C102.647 67.737 102.425 66.9321 102.423 66.9233C102.4 66.83 102.455 66.7349 102.549 66.7102C102.64 66.6891 102.738 66.7419 102.762 66.8344C102.769 66.8608 102.949 67.4825 103.946 67.3768C104.038 67.3636 104.127 67.4376 104.137 67.5336C104.147 67.6296 104.076 67.7159 103.98 67.7247C103.895 67.7326 103.814 67.737 103.737 67.737Z" fill="#CF7E68"/>
<path d="M105.188 71.2524C105.092 71.2524 105.013 71.1749 105.013 71.0772C105.013 70.9812 105.09 70.9019 105.188 70.9019C105.21 70.9019 107.428 70.8773 108.357 69.1292C108.403 69.0429 108.511 69.013 108.593 69.057C108.679 69.1019 108.71 69.2085 108.666 69.2939C107.637 71.2304 105.287 71.2524 105.188 71.2524Z" fill="#CF7E68"/>
<path d="M125.831 69.9667L122.598 92.9757L115.615 94.375L108.519 79.1481L114.103 75.7753C114.103 75.7753 112.773 73.9137 111.122 73.6618V73.6477L114.453 62.9693L115.292 60.2825L119.127 65.4606L122.85 70.4986L125.831 69.9667Z" fill="#E1AA8D"/>
<path d="M112.168 72.9758C112.082 72.9758 111.995 72.9441 111.928 72.8799C111.788 72.7478 111.781 72.5258 111.914 72.3849C113.24 70.9803 114.355 69.4445 114.899 68.2768C115.072 67.9034 115.277 67.0519 115.266 65.1171C115.264 64.9234 115.421 64.7667 115.614 64.7649H115.616C115.809 64.7649 115.964 64.9199 115.965 65.1127C115.974 66.7709 115.829 67.9343 115.532 68.5718C114.96 69.8029 113.797 71.4083 112.422 72.8658C112.354 72.9388 112.261 72.9758 112.168 72.9758Z" fill="#CF7E68"/>
<path d="M43.8959 110.645C38.0062 113.211 35.1486 113.211 32.874 114.61C30.5993 116.01 23.8933 124.99 24.8268 125.457C25.7594 125.924 30.9498 120.791 31.9414 120.675C32.933 120.558 34.3173 121.142 34.3173 121.142C34.3173 121.142 31.8833 123.65 32.6415 124.233C33.3997 124.816 36.2573 123.067 38.473 121.551C40.6886 120.034 47.9784 115.252 47.9784 115.252L43.8959 110.645Z" fill="#E1AA8D"/>
<path d="M102.819 81.8634L100.636 105.572C89.3278 111.282 76.7877 115.257 67.018 117.804C66.192 118.027 65.395 118.224 64.6253 118.419C63.7157 118.643 62.8482 118.853 62.0081 119.049C60.3147 119.455 58.7613 119.804 57.3619 120.112C52.7431 121.106 49.9022 121.554 49.9022 121.554C45.116 118.279 42.4424 109.77 42.4424 109.77C42.4424 109.77 45.5774 108.58 50.7696 106.452C51.9311 105.963 53.2045 105.445 54.5624 104.871C55.2203 104.591 55.9204 104.296 56.6337 104.003C57.4456 103.654 58.2707 103.303 59.139 102.925C70.8813 97.8882 87.2275 90.4425 102.819 81.8634Z" fill="#E0BB6A"/>
<path d="M62.0071 119.05C60.3137 119.455 58.7602 119.805 57.3609 120.113C51.9583 114.123 50.9227 108.833 50.7686 106.454C51.9301 105.964 53.2035 105.446 54.5614 104.872C55.8075 110.064 60.2582 116.614 62.0071 119.05Z" fill="#E9DD9D"/>
<path d="M67.0181 117.803C66.1921 118.027 65.3951 118.224 64.6255 118.419C60.889 113.731 58.0049 107.363 56.6338 104.003C57.4457 103.654 58.2709 103.303 59.1392 102.925C61.4763 110.036 65.1424 115.369 67.0181 117.803Z" fill="#E9DD9D"/>
<path d="M209.336 49.4732C213.068 47.7815 219.366 45.2162 222.224 44.9829C225.082 44.7495 230.796 44.9829 230.913 45.6248C231.029 46.2659 225.257 47.0241 223.623 48.4243C221.991 49.8237 220.416 52.1564 220.416 52.1564C220.416 52.1564 225.256 51.7487 225.256 52.565C225.256 53.3814 220.357 57.1135 211.144 57.3468L209.336 49.4732Z" fill="#E1AA8D"/>
<path d="M212.361 62.6472C212.361 62.6472 210.234 63.8088 206.525 65.6845C205.196 66.3705 203.67 67.1402 201.963 67.9935C201.445 68.2454 200.913 68.5113 200.367 68.7773C199.933 68.9869 199.486 69.2114 199.023 69.4351C187.589 75.0051 170.192 82.899 152.53 88.749C152.53 88.749 138.66 85.628 139.472 67.5594C139.472 67.5594 172.361 59.4981 182.047 56.8245C185.476 55.8726 189.955 54.5437 194.335 53.2272C194.797 53.0872 195.244 52.9471 195.706 52.8071C196.77 52.4848 197.805 52.1634 198.827 51.8552C200.366 51.3796 201.822 50.9314 203.152 50.5254C207.127 49.2943 209.911 48.426 209.911 48.426C209.911 48.426 214.461 55.6498 212.361 62.6472Z" fill="#E0BB6A"/>
<path d="M203.152 50.5271C203.152 50.5271 206.847 56.8535 206.525 65.6844C205.195 66.3704 203.67 67.1401 201.962 67.9934C202.06 65.1525 201.738 59.5685 198.827 51.8569" fill="#E9DD9D"/>
<path d="M200.368 68.7772C199.934 68.9868 199.487 69.2114 199.024 69.4351C198.087 61.1493 195.469 55.4111 194.336 53.228C194.798 53.088 195.246 52.948 195.707 52.808C196.939 55.2015 199.388 60.7583 200.368 68.7772Z" fill="#E9DD9D"/>
<path d="M155.4 184.647L146.639 181.315C146.639 181.315 152.769 161.721 150.502 153.324C150.502 153.324 142.622 169.251 139.305 180.097C139.305 180.097 109.383 168.383 95.3867 170.118C95.3867 170.118 106.583 145.696 107.171 143.359C107.171 143.359 105.884 138.698 108.445 138.11C108.445 138.11 100.425 115.017 99.6974 101.371C98.8018 84.3108 99.6692 83.7085 102.818 81.8609C105.001 80.5875 109.018 78.4881 111.286 77.3266C112.279 76.8088 112.937 76.4733 112.937 76.4733C112.937 76.4733 113.259 85.6265 116.575 84.6604C119.879 83.7085 123.965 70.301 123.965 70.301C123.965 70.301 124.819 70.1468 126.134 69.9091C129.843 69.2372 137.204 67.9074 139.472 67.5578C142.536 67.0823 144.146 68.3698 147.253 73.3796C157.498 89.8244 153.999 130.761 153.999 130.761C153.999 130.761 161.867 164.185 155.4 184.647Z" fill="#E0BB6A"/>
<path d="M126.136 69.9109C125.52 73.2141 122.483 87.1958 115.611 87.4618C109.691 87.6854 111.287 77.3293 111.287 77.3293C112.28 76.8115 112.938 76.476 112.938 76.476C112.938 76.476 113.26 85.6292 116.576 84.6631C119.88 83.7112 123.966 70.3036 123.966 70.3036C123.966 70.3036 124.82 70.1495 126.136 69.9109Z" fill="#E9DD9D"/>
<path d="M118.235 145.104C111.654 145.104 109.256 144.357 109.098 144.304C108.914 144.244 108.815 144.047 108.875 143.863C108.934 143.681 109.129 143.581 109.316 143.638C109.379 143.658 115.941 145.674 137.242 143.012C137.427 142.98 137.61 143.123 137.633 143.316C137.657 143.508 137.522 143.683 137.33 143.707C128.764 144.778 122.585 145.104 118.235 145.104Z" fill="#C2B7A0"/>
<path d="M120.474 139.635C112.463 139.635 110.152 138.661 110.029 138.606C109.853 138.528 109.773 138.321 109.851 138.144C109.93 137.968 110.137 137.89 110.311 137.966C110.351 137.983 114.454 139.661 130.352 138.55C130.53 138.528 130.713 138.681 130.726 138.875C130.739 139.068 130.594 139.235 130.401 139.248C126.387 139.528 123.119 139.635 120.474 139.635Z" fill="#C2B7A0"/>
<path d="M100.048 101.354C99.6839 94.4185 99.6231 90.357 99.8442 87.7741C99.8609 87.5813 99.7174 87.4122 99.5254 87.3955C99.3422 87.3893 99.1634 87.5214 99.1467 87.7143C98.9301 90.232 98.9811 94.1393 99.3105 100.633C96.8747 98.4033 96.5559 93.131 96.5524 93.0737C96.5418 92.8809 96.4036 92.7365 96.1843 92.7435C95.9914 92.7541 95.8435 92.9188 95.854 93.1116C95.8681 93.3714 96.2362 99.4019 99.3598 101.556C99.4065 102.381 99.4787 103.255 99.5782 104.168C99.5976 104.347 99.7491 104.48 99.9252 104.48C99.9384 104.48 99.9516 104.479 99.9639 104.478C100.156 104.457 100.294 104.284 100.273 104.092C100.17 103.133 100.094 102.212 100.048 101.354Z" fill="#C2B7A0"/>
<path d="M155.085 72.2258C154.909 72.1474 154.701 72.2302 154.625 72.4081L150.958 80.9105C149.991 77.8732 148.853 75.2842 147.553 73.1971C146.585 71.6375 145.814 70.5226 145.125 69.6869C145.002 69.5355 144.781 69.517 144.632 69.6394C144.483 69.7627 144.462 69.9828 144.584 70.1317C145.253 70.9418 146.008 72.032 146.958 73.5661C148.731 76.4114 150.205 80.2139 151.342 84.8654C151.381 85.0257 151.524 85.1322 151.682 85.1322C151.71 85.1322 151.738 85.1287 151.765 85.1217C151.953 85.0759 152.068 84.8865 152.022 84.699C151.788 83.7417 151.536 82.8285 151.275 81.9417L155.267 72.6828C155.344 72.5085 155.262 72.3024 155.085 72.2258Z" fill="#C2B7A0"/>
<path d="M264.284 284.168C284.559 284.168 300.995 282.842 300.995 281.205C300.995 279.568 284.559 278.242 264.284 278.242C244.009 278.242 227.572 279.568 227.572 281.205C227.572 282.842 244.009 284.168 264.284 284.168Z" fill="#EAE4CC"/>
<path d="M275.37 248.443C276.07 254.275 275.37 262.906 274.612 265.996C273.853 269.087 276.011 269.728 276.011 269.728C276.011 269.728 279.16 267.395 282.601 262.438C286.041 257.481 284.583 252.641 285.925 251.008C287.266 249.376 290.415 245.935 287.791 243.894C285.167 241.852 279.394 238.645 279.394 238.645L275.37 248.443Z" fill="#E1AA8D"/>
<path d="M241.432 205.64C241.519 211.85 241.869 213.776 247.379 221.385C252.89 228.995 273.796 251.738 273.796 251.738C273.796 251.738 282.106 248.064 284.293 238.442C284.293 238.442 269.189 216.953 265.457 211.588C261.725 206.223 261.725 201.558 261.725 201.558L241.432 205.64Z" fill="#E0BB6A"/>
<path d="M256.304 266.433C254.73 271.507 250.006 277.63 250.094 280.079C250.181 282.528 252.718 281.653 255.779 281.566C258.841 281.479 262.078 281.391 265.401 281.217C268.725 281.041 267.763 279.467 267.238 275.356C266.713 271.245 265.051 266.958 265.051 266.958L256.304 266.433Z" fill="#E1AA8D"/>
<path d="M254.611 280.866C254.606 280.866 254.603 280.866 254.598 280.865C254.501 280.858 254.429 280.775 254.435 280.678C254.436 280.663 254.539 279.166 254.009 278.529C253.946 278.454 253.957 278.344 254.031 278.282C254.106 278.221 254.217 278.23 254.277 278.305C254.898 279.051 254.789 280.637 254.785 280.705C254.779 280.796 254.702 280.866 254.611 280.866Z" fill="#CF7E68"/>
<path d="M255.224 280.866C255.13 280.866 255.052 280.79 255.049 280.695C255.047 280.639 255.027 279.321 256.027 278.87C256.114 278.829 256.218 278.869 256.259 278.957C256.299 279.045 256.259 279.148 256.172 279.188C255.382 279.544 255.4 280.675 255.4 280.686C255.402 280.782 255.326 280.863 255.229 280.865C255.227 280.866 255.226 280.866 255.224 280.866Z" fill="#CF7E68"/>
<path d="M259.277 204.24C258.052 216.836 252.279 267.045 252.279 267.045C252.279 267.045 256.129 269.699 261.639 269.728C267.15 269.757 270.561 266.87 270.561 266.87C270.561 266.87 279.92 206.689 280.62 200.217L259.277 204.24Z" fill="#E0BB6A"/>
<path d="M256.715 228.293C256.703 228.293 256.689 228.292 256.676 228.291C256.484 228.269 256.346 228.097 256.367 227.905C257.547 217.337 258.331 210.111 258.767 205.813C258.787 205.622 258.934 205.476 259.151 205.501C259.344 205.52 259.483 205.691 259.464 205.884C259.026 210.183 258.242 217.411 257.061 227.981C257.044 228.16 256.892 228.293 256.715 228.293Z" fill="#C2B7A0"/>
<path d="M273.584 247.676C273.566 247.676 273.549 247.675 273.53 247.672C273.339 247.643 273.208 247.464 273.238 247.273C274.057 241.955 274.961 236.064 275.842 230.289C275.871 230.098 276.054 229.973 276.241 229.996C276.431 230.025 276.562 230.204 276.533 230.394C275.652 236.169 274.748 242.061 273.929 247.38C273.903 247.553 273.755 247.676 273.584 247.676Z" fill="#C2B7A0"/>
<path d="M273.678 42.647H273.664C273.607 43.5285 273.467 44.4241 273.272 45.3065C273.089 46.1598 272.894 47.0281 272.67 47.9096V47.9237C271.117 54.1374 268.457 60.6461 261.46 59.8201C258.703 59.4978 256.52 57.7207 255.078 54.7679C253.902 52.4026 253.188 49.3098 253.021 45.5865C253.007 45.5443 253.007 45.517 253.021 45.4747C252.993 45.1665 252.979 44.845 252.979 44.5227C252.81 35.5095 256.211 28.9454 264.609 29.9951C271.929 30.9047 274.195 36.6711 273.678 42.647Z" fill="#E1AA8D"/>
<path d="M272.04 31.5063C272.04 31.5063 270.934 25.4459 260.144 26.0341C249.367 26.6083 245.687 39.092 246.386 41.0796C247.086 43.0531 253.944 58.4623 253.944 58.4623L255.077 54.7671C253.901 52.4018 253.187 49.309 253.02 45.5858L252.978 45.4739H253.02C266.035 43.7382 269.717 37.86 269.717 37.86C270.738 40.7987 273.495 42.5344 273.663 42.6462C273.607 43.5277 273.467 44.4233 273.272 45.3057C273.089 46.159 272.894 47.0273 272.67 47.9088V47.9229C272.67 47.9229 275.959 46.0331 276.715 40.1417C277.331 35.3696 272.04 31.5063 272.04 31.5063Z" fill="#3C3121"/>
<path d="M252.971 45.4782C250.921 44.9974 248.647 46.8344 249.828 49.8514C251.009 52.8693 253.939 52.9133 254.858 52.1692C255.776 51.426 252.971 45.4782 252.971 45.4782Z" fill="#E1AA8D"/>
<path d="M254.072 51.0324C253.984 51.0324 253.909 50.9681 253.898 50.8801C253.667 49.0933 253.133 47.9828 252.31 47.5804C251.464 47.1647 250.583 47.6719 250.575 47.6763C250.491 47.7248 250.384 47.6966 250.335 47.6147C250.286 47.531 250.313 47.4236 250.397 47.3752C250.439 47.3496 251.444 46.7684 252.464 47.266C253.399 47.723 253.998 48.9242 254.245 50.8351C254.257 50.9311 254.19 51.0192 254.094 51.0315C254.087 51.0315 254.079 51.0324 254.072 51.0324Z" fill="#CF7E68"/>
<path d="M252.273 50.7259C252.244 50.7259 252.216 50.7188 252.189 50.7038C252.104 50.6572 252.074 50.5506 252.12 50.4661L253.253 48.4151C253.299 48.3314 253.404 48.3006 253.49 48.3464C253.575 48.3931 253.605 48.4996 253.559 48.5842L252.426 50.6352C252.395 50.6933 252.335 50.7259 252.273 50.7259Z" fill="#CF7E68"/>
<path d="M262.358 44.3406C262.298 44.3406 262.236 44.33 262.176 44.3089C260.701 43.7646 258.7 44.3159 258.68 44.3212C258.41 44.3969 258.11 44.2384 258.034 43.9593C257.955 43.6801 258.116 43.3904 258.395 43.3111C258.491 43.2856 260.739 42.6612 262.54 43.3234C262.812 43.4238 262.951 43.725 262.85 43.998C262.772 44.2094 262.571 44.3406 262.358 44.3406Z" fill="#3C3121"/>
<path d="M260.142 46.0614C261.137 46.0851 261.046 48.8494 260.142 48.9859C259.239 49.1224 258.918 46.0323 260.142 46.0614Z" fill="#3C3121"/>
<path d="M266.528 44.3406C266.315 44.3406 266.114 44.2094 266.036 43.998C265.935 43.725 266.074 43.4239 266.346 43.3235C268.145 42.6621 270.394 43.2838 270.49 43.3111C270.768 43.3904 270.931 43.6801 270.851 43.9593C270.772 44.2384 270.473 44.3987 270.205 44.3212C270.185 44.3159 268.183 43.7647 266.71 44.3089C266.65 44.3309 266.588 44.3406 266.528 44.3406Z" fill="#3C3121"/>
<path d="M268.722 46.0614C267.727 46.0851 267.818 48.8494 268.722 48.9859C269.626 49.1224 269.947 46.0323 268.722 46.0614Z" fill="#3C3121"/>
<path d="M264.633 53.4383C264.56 53.4383 264.493 53.3943 264.467 53.3221C264.435 53.2314 264.482 53.131 264.574 53.0984C265.64 52.7179 265.412 51.4472 265.4 51.3935C265.383 51.2993 265.445 51.2068 265.54 51.1892C265.631 51.1733 265.727 51.2332 265.745 51.3274C265.852 51.8849 265.772 53.042 264.691 53.4286C264.672 53.4348 264.652 53.4383 264.633 53.4383Z" fill="#CF7E68"/>
<path d="M263.961 56.6816C261.691 56.6816 260.371 54.9793 260.31 54.9001C260.251 54.8226 260.266 54.7134 260.345 54.6544C260.422 54.598 260.532 54.6121 260.59 54.6879C260.605 54.7072 262.119 56.6517 264.608 56.2827C264.699 56.2712 264.792 56.3346 264.808 56.4297C264.821 56.5257 264.756 56.6147 264.66 56.6288C264.418 56.6649 264.184 56.6816 263.961 56.6816Z" fill="#CF7E68"/>
<path d="M254.152 52.4906L253.766 63.4967L247.643 66.3834L260.501 71.5447L268.898 64.1096L264.787 62.4478L264.817 59.2397L254.152 52.4906Z" fill="#E1AA8D"/>
<path d="M262.639 60.241C262.241 60.241 261.835 60.2163 261.419 60.1679C258.963 59.8808 256.88 58.4612 255.392 56.0633C255.291 55.8986 255.342 55.6829 255.505 55.5816C255.669 55.4794 255.884 55.5296 255.988 55.6943C257.378 57.9364 259.233 59.208 261.502 59.4731C262.137 59.5488 262.757 59.562 263.333 59.5145C263.526 59.4977 263.694 59.6413 263.71 59.8341C263.727 60.027 263.583 60.1952 263.391 60.211C263.145 60.2304 262.894 60.241 262.639 60.241Z" fill="#CF7E68"/>
<path d="M331.529 102.904C336.865 104.654 343.163 105.441 345.35 105.222C347.537 105.003 357.071 98.3555 357.421 98.7051C357.77 99.0547 357.902 100.892 354.796 103.342C351.691 105.791 350.117 108.284 350.117 108.284C350.117 108.284 354.002 107.041 354.316 108.764C354.491 109.727 347.318 112.526 344.868 112.832C342.419 113.139 329.648 111.17 329.648 111.17L331.529 102.904Z" fill="#E1AA8D"/>
<path d="M330.039 114.402C330.039 114.402 329.326 114.262 328.122 113.982C327.8 113.913 327.436 113.828 327.044 113.73C326.736 113.647 326.415 113.562 326.064 113.478C324.637 113.115 322.901 112.652 321.04 112.079C316.632 110.735 311.537 108.832 307.913 106.439C300.215 101.373 282.371 87.2085 282.371 87.2085L280.229 67.125C284.862 68.7903 288.837 73.2973 294.534 78.545C300.215 83.7935 311.496 95.0734 321.825 98.4048C322.175 98.5167 322.511 98.6285 322.832 98.7271C324.875 99.3709 326.513 99.8887 327.829 100.295C328.193 100.406 328.529 100.504 328.837 100.603C328.837 100.603 328.837 100.603 328.851 100.617C329.046 100.673 329.242 100.729 329.425 100.785L330.264 101.023V101.037C332.811 101.778 333.189 101.807 333.189 101.807C334.77 110.554 330.039 114.402 330.039 114.402Z" fill="#9E5774"/>
<path d="M327.827 100.296C328.598 103.21 328.162 108.765 326.063 113.479C324.636 113.116 322.9 112.653 321.039 112.08C322.607 107.409 323.263 104.129 322.83 98.728C324.874 99.3718 326.511 99.8896 327.827 100.296Z" fill="#E0BB6A"/>
<path d="M328.122 113.983C327.8 113.914 327.436 113.829 327.044 113.731C330.823 106.594 328.961 100.982 328.849 100.618C328.835 100.604 328.835 100.604 328.835 100.604L329.423 100.786L330.263 101.024V101.038C331.481 107.433 329.199 112.191 328.122 113.983Z" fill="#E0BB6A"/>
<path d="M292.519 204.24C292.519 204.24 282.722 206.339 271.008 207.207C259.28 208.088 242.653 216.136 230.938 203.54C230.938 203.54 236.019 147.726 236.019 133.212C236.019 118.699 235.403 79.3294 235.655 75.312C235.921 71.2814 235.921 71.8556 238.818 70.4554C240.092 69.8398 243.059 68.3419 245.956 66.8589C246.782 66.4388 247.607 66.0188 248.378 65.6128C249.553 65.0113 250.645 64.4654 251.47 64.0312H251.484C252.534 63.4852 253.206 63.1497 253.206 63.1497V60.0428L257.531 60.617L260.456 65.7678L261.855 60.8689L265.62 60.6593L265.41 62.3527C265.41 62.3527 266.614 62.7305 268.348 63.2765C269.496 63.6402 270.896 64.0885 272.352 64.5499C274.423 65.2077 276.606 65.921 278.285 66.4811C279.055 66.733 279.727 66.9566 280.231 67.1248C283.772 68.356 283.898 70.148 283.855 74.3046C283.813 78.447 282.022 135.129 282.903 140.21C283.772 145.291 292.519 204.24 292.519 204.24Z" fill="#9E5774"/>
<path d="M278.285 66.4821C278.299 72.724 277.613 84.7463 272.365 88.665C267.158 92.5275 261.728 104.634 261.728 104.634C262.078 99.2739 256.242 90.5267 249.511 85.0404C244.207 80.7438 245.255 70.8773 245.955 66.8599C246.781 66.4398 247.607 66.0197 248.377 65.6138C249.553 65.0123 250.645 64.4663 251.47 64.0322H251.484C252.534 63.4862 253.206 63.1507 253.206 63.1507V60.0438L257.53 60.618L260.456 65.7688L261.855 60.8699L265.62 60.6603L265.409 62.3528C265.409 62.3528 266.613 62.7306 268.348 63.2766C269.495 63.6403 270.896 64.0885 272.351 64.55C274.423 65.2078 276.606 65.922 278.285 66.4821Z" fill="#E0BB6A"/>
<path d="M267.62 77.636C262.372 83.4164 262.484 90.8198 262.484 90.8198C262.484 90.8198 259.811 79.5117 255.892 77.2863C252.296 75.2433 249.09 70.5407 248.377 65.6136C249.553 65.0122 250.645 64.4662 251.47 64.032H251.484C251.484 64.032 250.532 70.7081 256.592 74.1372C261.435 76.8804 262.079 82.2407 262.079 82.2407C262.079 82.2407 262.722 75.8588 265.983 73.1298C268.166 71.3104 268.419 66.3419 268.349 63.2773C269.496 63.641 270.896 64.0893 272.352 64.5507C272.435 67.6294 271.833 72.9898 267.62 77.636Z" fill="#9E5774"/>
<path d="M285.89 76.3247C285.714 76.2499 285.506 76.3327 285.432 76.5114L283.449 81.2149C283.284 78.0895 282.935 74.0563 282.186 71.1088C282.138 70.9203 281.944 70.8059 281.761 70.8561C281.573 70.9027 281.46 71.0938 281.508 71.2814C282.88 76.6867 282.897 85.8857 282.897 85.9782C282.897 86.1719 283.053 86.3278 283.246 86.3278C283.439 86.3278 283.596 86.171 283.596 85.9782C283.596 85.9447 283.593 84.6845 283.523 82.8405L286.077 76.7835C286.152 76.6048 286.069 76.3996 285.89 76.3247Z" fill="#A08090"/>
<path d="M243.884 110.295C248.695 110.995 250.707 111.17 252.282 110.295C253.856 109.421 262.612 98.7122 263.347 99.3172C264.082 99.9222 259.891 109.027 260.329 109.245C260.767 109.464 262.384 109.945 261.335 111.738C260.285 113.531 257.092 116.856 253.658 117.249C250.226 117.643 242.571 117.556 242.571 117.556L243.884 110.295Z" fill="#E1AA8D"/>
<path d="M243.997 124.116C243.997 124.116 243.521 123.976 242.667 123.71C241.673 123.415 240.162 122.94 238.342 122.366C237.769 122.183 237.152 121.988 236.523 121.778V121.763C235.655 121.483 234.746 121.189 233.808 120.868C225.956 118.18 215.767 114.346 211.751 111.169C208.322 108.468 207.902 107.026 209.134 105.108C210.351 103.177 215.95 95.1289 221.729 88.076C227.495 81.0222 234.521 72.975 236.718 71.4771C236.718 71.4771 239.797 73.9683 239.447 82.3378C239.098 90.7073 235.697 96.1231 235.697 96.1231L228.195 102.31C229.706 103.065 232.715 103.975 235.78 104.787L236.229 104.913C236.817 105.067 237.39 105.221 237.964 105.374L238.356 105.472C239.07 105.654 239.77 105.821 240.427 105.976C242.023 106.367 243.38 106.676 244.164 106.857C244.654 106.969 244.934 107.025 244.934 107.025C247.678 115.368 243.997 124.116 243.997 124.116Z" fill="#9E5774"/>
<path d="M244.164 106.859C244.716 110.12 245.021 116.943 242.667 123.71C241.672 123.416 240.161 122.94 238.342 122.366C240.298 116.417 240.647 109.945 240.427 105.977C242.023 106.369 243.381 106.678 244.164 106.859Z" fill="#E0BB6A"/>
<path d="M238.356 105.474C238.328 108.231 238.076 114.557 236.523 121.765C235.655 121.485 234.745 121.19 233.808 120.869C234.508 117.384 235.697 110.624 235.781 104.788L236.229 104.914L237.965 105.375L238.356 105.474Z" fill="#E0BB6A"/>
<path d="M227.328 101.476L225.714 100.971L223.958 97.6335C223.868 97.4618 223.658 97.3975 223.485 97.4865C223.315 97.5772 223.249 97.7876 223.338 97.9585L224.767 100.674L220.894 99.4635C220.712 99.4045 220.514 99.5092 220.456 99.6933C220.397 99.8782 220.501 100.074 220.686 100.132L227.121 102.144C227.155 102.155 227.19 102.16 227.224 102.16C227.373 102.16 227.512 102.064 227.558 101.914C227.616 101.73 227.512 101.534 227.328 101.476Z" fill="#A08090"/>
<path d="M236.079 93.5877C236.073 93.5877 236.066 93.5877 236.061 93.5868C235.868 93.5771 235.719 93.4125 235.729 93.2196C235.759 92.6296 236.481 78.7245 237.821 73.572C237.871 73.3862 238.062 73.2682 238.248 73.3219C238.435 73.3703 238.547 73.5614 238.499 73.7481C237.176 78.8319 236.435 93.1122 236.429 93.2548C236.419 93.4424 236.264 93.5877 236.079 93.5877Z" fill="#A08090"/>
</svg>
