<svg width="217" height="151" viewBox="0 0 217 151" fill="none" xmlns="http://www.w3.org/2000/svg">
<path fill-rule="evenodd" clip-rule="evenodd" d="M130.403 107.238L141.669 111.659L152.251 130.16L162.214 113.325L146.302 97.4974L130.403 107.238Z" fill="#768BBF"/>
<path d="M205.641 117.288C205.579 117.301 205.515 117.301 205.453 117.288C193.005 114.238 193.368 94.5282 193.663 75.4764C193.905 61.1136 194.146 47.557 188.708 43.7278C188.601 43.6736 188.508 43.5971 188.433 43.5034C188.359 43.4096 188.305 43.3008 188.276 43.1845C188.248 43.0682 188.244 42.9471 188.266 42.8294C188.289 42.7118 188.337 42.6003 188.406 42.5027C188.475 42.405 188.565 42.3233 188.668 42.2634C188.772 42.2035 188.887 42.1668 189.006 42.1555C189.126 42.1443 189.246 42.1589 189.359 42.1984C189.472 42.2379 189.575 42.3012 189.661 42.3842C195.811 46.7105 195.583 60.7106 195.328 75.5167C195.006 93.9237 194.684 112.949 205.842 115.689C206.038 115.74 206.208 115.86 206.321 116.027C206.435 116.194 206.483 116.397 206.459 116.597C206.434 116.798 206.338 116.982 206.187 117.117C206.037 117.251 205.843 117.327 205.641 117.329V117.288Z" fill="#768BBF"/>
<path fill-rule="evenodd" clip-rule="evenodd" d="M40.6915 147.196C40.6915 147.196 44.8542 142.185 43.7531 136.622C49.8628 133.008 51.8099 122.985 46.8013 112.438C41.7926 101.891 22.8859 78.4727 28.1631 48.9814C33.4403 19.49 51.9308 3.29989 86.7899 4.15978C107.174 -2.55808 166.418 -4.46593 184.814 24.7567C203.211 53.9794 179.524 94.6224 181.753 108.542C183.982 122.461 188.144 142.776 188.144 142.776C188.144 142.776 170.903 157.246 146.142 144.724C150.6 129.69 151.15 113.553 143.644 105.761C131.115 109.926 112.477 104.417 112.477 104.417L107.106 112.774L112.249 145.611C112.249 145.611 95.1689 157.166 71.3477 145.06C74.8926 135.055 76.5897 124.488 76.3563 113.876C76.1952 100.346 73.026 92.3787 68.8499 82.705C64.6738 73.0312 50.2119 75.7452 49.0974 81.5898C47.9829 87.4343 63.8681 111.148 60.7797 126.68C57.6913 142.212 49.8628 146.645 40.6915 147.196Z" fill="#87A0D1"/>
<path fill-rule="evenodd" clip-rule="evenodd" d="M50.7884 50.5398C50.7884 50.5398 46.4375 50.1233 43.8459 51.7893C41.6437 53.2001 39.2939 54.7855 39.2939 52.7299C39.2939 50.6742 41.4156 48.9813 44.0206 48.9813C46.3372 49.1886 48.6144 49.713 50.7884 50.5398Z" fill="#421C18"/>
<path fill-rule="evenodd" clip-rule="evenodd" d="M39.8713 68.0865C39.8713 68.0865 30.6866 85.7142 0.366211 72.8697C13.9956 86.4666 31.6669 87.649 47.1091 76.4436C46.2632 71.7142 39.8713 68.0865 39.8713 68.0865Z" fill="#C0CDE7"/>
<path fill-rule="evenodd" clip-rule="evenodd" d="M39.8716 68.0865C39.8755 68.1178 39.8755 68.1494 39.8716 68.1806C41.6978 69.6854 43.7925 71.9292 44.2491 74.5089C31.6805 83.6048 17.635 84.5319 5.49609 77.196C18.2661 86.601 33.574 86.2651 47.1229 76.4302C46.2635 71.7142 39.8716 68.0865 39.8716 68.0865Z" fill="#768BBF"/>
<path fill-rule="evenodd" clip-rule="evenodd" d="M109.537 99.4324C105.24 96.3959 104.81 112.868 104.81 112.868C104.81 112.868 107.16 137.052 102.46 139.74C102.46 139.74 104.689 143.287 107.563 147.801C109.174 147.194 110.721 146.429 112.182 145.517L107.039 112.693L112.41 104.336C112.41 104.336 131.048 109.899 143.576 105.68C128.604 107.319 113.833 102.482 109.537 99.4324Z" fill="#768BBF"/>
<g style="mix-blend-mode:multiply" opacity="0.5">
<path fill-rule="evenodd" clip-rule="evenodd" d="M49.0292 81.5087C49.6066 78.4857 53.7828 76.2822 58.2543 76.2151C35.0776 74.3206 52.3861 101.931 56.7368 114.964C61.0875 127.996 55.1524 136.81 50.7883 140.68C46.4242 144.549 45.1888 141.781 43.7521 136.649C44.8531 142.211 40.6904 147.223 40.6904 147.223C49.8617 146.672 57.6499 142.211 60.7114 126.626C63.773 111.04 47.9146 87.3533 49.0292 81.5087Z" fill="#9A9D99"/>
</g>
<mask id="mask0_43_2137" style="mask-type:luminance" maskUnits="userSpaceOnUse" x="27" y="0" width="165" height="151">
<path d="M40.6915 147.196C40.6915 147.196 44.8542 142.185 43.7531 136.622C49.8628 133.008 51.8099 122.985 46.8013 112.438C41.7926 101.891 22.8859 78.4727 28.1631 48.9814C33.4403 19.49 51.9308 3.29989 86.7899 4.15978C107.174 -2.55808 166.418 -4.46593 184.814 24.7567C203.211 53.9794 179.524 94.6224 181.753 108.542C183.982 122.461 188.144 142.776 188.144 142.776C188.144 142.776 170.903 157.246 146.142 144.724C150.6 129.69 151.15 113.553 143.644 105.761C131.115 109.926 112.477 104.417 112.477 104.417L107.106 112.774L112.249 145.611C112.249 145.611 95.1689 157.166 71.3477 145.06C74.8926 135.055 76.5897 124.488 76.3563 113.876C76.1952 100.346 73.026 92.3787 68.8499 82.705C64.6738 73.0312 50.2119 75.7452 49.0974 81.5898C47.9829 87.4343 63.8681 111.148 60.7797 126.68C57.6913 142.212 49.8628 146.645 40.6915 147.196Z" fill="white"/>
</mask>
<g mask="url(#mask0_43_2137)">
<path fill-rule="evenodd" clip-rule="evenodd" d="M85.514 146.766C85.4508 148.189 84.9717 149.561 84.1361 150.713C83.3004 151.865 82.1452 152.747 80.8135 153.248C79.4818 153.749 78.0324 153.847 76.6451 153.532C75.2578 153.216 73.9938 152.499 73.0098 151.471C72.0258 150.443 71.3652 149.148 71.11 147.748C70.8548 146.347 71.0162 144.902 71.5742 143.593C72.1323 142.283 73.0623 141.167 74.249 140.381C75.4357 139.596 76.8268 139.177 78.2495 139.175C79.2248 139.196 80.1864 139.409 81.0794 139.802C81.9723 140.195 82.7789 140.76 83.4535 141.465C84.1281 142.17 84.6575 143.001 85.0111 143.911C85.3646 144.82 85.5353 145.791 85.514 146.766Z" fill="#C0CDE7"/>
<path fill-rule="evenodd" clip-rule="evenodd" d="M98.8483 149.064C98.7851 150.486 98.306 151.858 97.4704 153.011C96.6348 154.163 95.4792 155.044 94.1475 155.545C92.8158 156.046 91.3664 156.145 89.9791 155.829C88.5918 155.513 87.3278 154.797 86.3438 153.768C85.3598 152.74 84.6992 151.446 84.444 150.045C84.1888 148.645 84.3502 147.2 84.9082 145.89C85.4663 144.581 86.3963 143.464 87.583 142.679C88.7697 141.893 90.1608 141.474 91.5835 141.473C92.5587 141.494 93.5204 141.707 94.4134 142.1C95.3063 142.492 96.1132 143.057 96.7878 143.762C97.4625 144.467 97.9915 145.298 98.345 146.208C98.6986 147.118 98.8697 148.088 98.8483 149.064Z" fill="#C0CDE7"/>
<path fill-rule="evenodd" clip-rule="evenodd" d="M112.491 146.766C112.428 148.189 111.949 149.561 111.113 150.713C110.277 151.865 109.122 152.747 107.79 153.248C106.459 153.749 105.009 153.847 103.622 153.532C102.234 153.216 100.97 152.499 99.9863 151.471C99.0023 150.443 98.3417 149.148 98.0865 147.748C97.8313 146.347 97.993 144.902 98.551 143.593C99.1091 142.283 100.039 141.167 101.226 140.381C102.412 139.596 103.804 139.177 105.226 139.175C106.202 139.196 107.163 139.409 108.056 139.802C108.949 140.195 109.756 140.76 110.43 141.465C111.105 142.17 111.634 143.001 111.988 143.911C112.341 144.82 112.512 145.791 112.491 146.766Z" fill="#C0CDE7"/>
<path fill-rule="evenodd" clip-rule="evenodd" d="M160.684 145.127C160.672 146.587 160.233 148.011 159.42 149.223C158.607 150.435 157.456 151.382 156.111 151.946C154.765 152.509 153.284 152.666 151.85 152.395C150.417 152.125 149.094 151.439 148.046 150.423C146.999 149.408 146.272 148.107 145.956 146.682C145.64 145.256 145.75 143.77 146.27 142.406C146.791 141.043 147.7 139.862 148.885 139.011C150.07 138.159 151.479 137.675 152.936 137.617C153.938 137.599 154.934 137.779 155.866 138.147C156.798 138.516 157.649 139.064 158.369 139.762C159.089 140.46 159.664 141.293 160.061 142.214C160.458 143.134 160.67 144.125 160.684 145.127Z" fill="#C0CDE7"/>
<path fill-rule="evenodd" clip-rule="evenodd" d="M175.602 146.941C175.601 148.523 175.134 150.07 174.261 151.389C173.388 152.708 172.146 153.741 170.69 154.358C169.234 154.976 167.629 155.151 166.074 154.862C164.519 154.573 163.084 153.833 161.947 152.734C160.81 151.634 160.021 150.224 159.679 148.68C159.337 147.135 159.457 145.524 160.024 144.047C160.59 142.57 161.579 141.292 162.866 140.373C164.154 139.455 165.683 138.935 167.263 138.88C169.437 138.844 171.536 139.673 173.099 141.184C174.663 142.696 175.563 144.766 175.602 146.941Z" fill="#C0CDE7"/>
<path fill-rule="evenodd" clip-rule="evenodd" d="M188.373 144.079C188.361 145.539 187.921 146.963 187.108 148.175C186.296 149.387 185.145 150.334 183.799 150.898C182.454 151.462 180.972 151.618 179.539 151.347C178.105 151.077 176.782 150.391 175.735 149.375C174.687 148.36 173.96 147.059 173.644 145.633C173.329 144.208 173.438 142.722 173.958 141.358C174.479 139.995 175.388 138.814 176.573 137.963C177.758 137.111 179.167 136.627 180.625 136.569C181.626 136.553 182.621 136.734 183.553 137.103C184.484 137.472 185.334 138.021 186.054 138.718C186.773 139.416 187.348 140.248 187.746 141.168C188.144 142.088 188.357 143.077 188.373 144.079Z" fill="#C0CDE7"/>
</g>
<path fill-rule="evenodd" clip-rule="evenodd" d="M200.269 113.311C200.269 113.311 210.648 118.78 217 117.342C211.253 121.373 208.714 121.883 208.714 121.883L204.968 119.707L206.727 124.154L204.512 125.35L200.269 113.311Z" fill="#768BBF"/>
<path fill-rule="evenodd" clip-rule="evenodd" d="M37.481 41.7663C37.481 42.2101 37.3497 42.6439 37.1033 43.0129C36.8569 43.3819 36.5066 43.6694 36.0969 43.8392C35.6871 44.0091 35.2363 44.0535 34.8013 43.9669C34.3663 43.8804 33.9665 43.6667 33.6529 43.3529C33.3393 43.0391 33.1257 42.6393 33.0392 42.2041C32.9527 41.7688 32.997 41.3176 33.1667 40.9076C33.3365 40.4977 33.6241 40.1473 33.9929 39.9007C34.3616 39.6542 34.7951 39.5225 35.2386 39.5225C35.5336 39.5207 35.826 39.5776 36.0989 39.6897C36.3717 39.8018 36.6197 39.967 36.8283 40.1758C37.0369 40.3845 37.2021 40.6325 37.3141 40.9055C37.4262 41.1785 37.4828 41.4712 37.481 41.7663Z" fill="#FFB14A"/>
<path fill-rule="evenodd" clip-rule="evenodd" d="M50.816 36.741C50.816 37.1847 50.6844 37.6186 50.438 37.9876C50.1916 38.3566 49.8413 38.6442 49.4315 38.814C49.0218 38.9838 48.5709 39.0282 48.1359 38.9417C47.7009 38.8551 47.3015 38.6414 46.9879 38.3276C46.6743 38.0138 46.4607 37.614 46.3742 37.1787C46.2876 36.7435 46.332 36.2924 46.5017 35.8824C46.6714 35.4724 46.9587 35.1219 47.3275 34.8754C47.6963 34.6288 48.1297 34.4972 48.5733 34.4972C48.8682 34.4954 49.1606 34.5523 49.4335 34.6644C49.7064 34.7766 49.9543 34.9418 50.1629 35.1505C50.3715 35.3592 50.5367 35.6072 50.6488 35.8802C50.7608 36.1533 50.8177 36.4458 50.816 36.741Z" fill="#FFB14A"/>
<path fill-rule="evenodd" clip-rule="evenodd" d="M63.4781 29.0696C63.4807 29.5146 63.351 29.9502 63.1056 30.3212C62.8603 30.6922 62.5102 30.9819 62.0999 31.1534C61.6895 31.3249 61.2376 31.3705 60.8013 31.2844C60.3651 31.1982 59.9644 30.9843 59.65 30.6696C59.3355 30.355 59.1217 29.954 59.0356 29.5175C58.9495 29.081 58.995 28.6287 59.1664 28.2182C59.3378 27.8077 59.6273 27.4573 59.9981 27.2118C60.3689 26.9663 60.8045 26.8366 61.2491 26.8393C61.8403 26.8393 62.4073 27.0743 62.8253 27.4925C63.2434 27.9108 63.4781 28.4781 63.4781 29.0696Z" fill="#FFB14A"/>
<path fill-rule="evenodd" clip-rule="evenodd" d="M75.6167 19.1809C75.6167 19.6246 75.4852 20.0584 75.2387 20.4274C74.9923 20.7964 74.6421 21.084 74.2323 21.2538C73.8225 21.4236 73.3717 21.4681 72.9367 21.3815C72.5017 21.2949 72.1023 21.0812 71.7886 20.7674C71.475 20.4536 71.2615 20.0539 71.1749 19.6186C71.0884 19.1834 71.1327 18.7322 71.3025 18.3222C71.4722 17.9122 71.7595 17.5618 72.1283 17.3153C72.4971 17.0687 72.9308 16.9371 73.3744 16.9371C73.6694 16.9353 73.9617 16.9921 74.2346 17.1043C74.5075 17.2164 74.7551 17.3816 74.9637 17.5903C75.1723 17.799 75.3375 18.047 75.4495 18.3201C75.5616 18.5931 75.6185 18.8857 75.6167 19.1809Z" fill="#FFB14A"/>
<path fill-rule="evenodd" clip-rule="evenodd" d="M84.44 9.64155C84.4427 10.0859 84.3133 10.521 84.0686 10.8918C83.8238 11.2625 83.4743 11.5522 83.0647 11.7241C82.6552 11.896 82.204 11.9423 81.7682 11.8572C81.3323 11.7722 80.9315 11.5596 80.6165 11.2463C80.3015 10.933 80.0868 10.5334 79.9992 10.0977C79.9116 9.66213 79.9551 9.2103 80.1244 8.79952C80.2937 8.38874 80.5812 8.03751 80.9502 7.79036C81.3193 7.54322 81.7532 7.41126 82.1973 7.41125C82.7897 7.41124 83.3583 7.6458 83.7784 8.06369C84.1986 8.48157 84.4364 9.04879 84.44 9.64155Z" fill="#FFB14A"/>
<path fill-rule="evenodd" clip-rule="evenodd" d="M37.1996 25.1464C35.5516 27.8009 34.0632 30.5511 32.7418 33.3825C31.4056 36.4855 30.3144 39.6885 29.4785 42.9621C33.5069 42.465 61.1554 37.8566 86.7894 4.13298C62.9144 3.56868 46.6932 10.9583 37.1996 25.1464Z" fill="#D05663"/>
<path fill-rule="evenodd" clip-rule="evenodd" d="M77.9669 4.32068C53.2057 5.95984 38.0856 17.5951 31.1299 37.5203C41.3217 34.551 59.8525 26.3821 77.9669 4.32068Z" fill="#AE3658"/>
<path fill-rule="evenodd" clip-rule="evenodd" d="M37.1998 25.1466C35.857 27.2695 34.7293 29.3519 33.749 31.3136C43.1486 27.1888 55.6903 19.5708 68.2589 5.58423C54.2669 8.35198 44.0078 15.0027 37.1998 25.1466Z" fill="#FFB14A"/>
<path fill-rule="evenodd" clip-rule="evenodd" d="M167.706 9.76233C147.833 -0.569734 119.151 -1.36242 100.016 1.29785V85.8218H167.706V9.76233Z" fill="#F3D65E"/>
<path d="M167.706 77.8412H99.8545V82.2078H167.706V77.8412Z" fill="#A82A2A"/>
<path fill-rule="evenodd" clip-rule="evenodd" d="M107.965 85.8217C107.922 86.385 107.667 86.9112 107.253 87.295C106.838 87.6788 106.295 87.892 105.73 87.892C105.165 87.892 104.621 87.6788 104.207 87.295C103.792 86.9112 103.538 86.385 103.494 85.8217C103.47 85.5133 103.51 85.2034 103.612 84.9113C103.713 84.6191 103.874 84.3512 104.084 84.1242C104.294 83.8972 104.548 83.7161 104.832 83.5922C105.115 83.4683 105.421 83.4044 105.73 83.4044C106.039 83.4044 106.345 83.4683 106.628 83.5922C106.911 83.7161 107.166 83.8972 107.376 84.1242C107.585 84.3512 107.746 84.6191 107.848 84.9113C107.949 85.2034 107.989 85.5133 107.965 85.8217Z" fill="#FFB14A"/>
<path fill-rule="evenodd" clip-rule="evenodd" d="M122.038 85.822C122.038 86.2658 121.906 86.6996 121.66 87.0686C121.413 87.4376 121.063 87.7252 120.653 87.895C120.244 88.0649 119.793 88.1093 119.358 88.0227C118.923 87.9361 118.523 87.7224 118.209 87.4086C117.896 87.0948 117.682 86.695 117.596 86.2598C117.509 85.8245 117.554 85.3733 117.724 84.9634C117.893 84.5534 118.181 84.203 118.549 83.9564C118.918 83.7099 119.352 83.5783 119.795 83.5783C120.09 83.5765 120.383 83.6333 120.655 83.7454C120.928 83.8575 121.176 84.0227 121.385 84.2315C121.593 84.4402 121.759 84.6883 121.871 84.9613C121.983 85.2343 122.04 85.5269 122.038 85.822Z" fill="#FFB14A"/>
<path fill-rule="evenodd" clip-rule="evenodd" d="M136.096 85.8217C136.053 86.385 135.798 86.9112 135.384 87.295C134.969 87.6788 134.425 87.892 133.861 87.892C133.296 87.892 132.752 87.6788 132.338 87.295C131.923 86.9112 131.669 86.385 131.625 85.8217C131.601 85.5133 131.641 85.2034 131.743 84.9113C131.844 84.6191 132.005 84.3512 132.215 84.1242C132.425 83.8972 132.679 83.7161 132.962 83.5922C133.246 83.4683 133.552 83.4044 133.861 83.4044C134.17 83.4044 134.475 83.4683 134.759 83.5922C135.042 83.7161 135.296 83.8972 135.506 84.1242C135.716 84.3512 135.877 84.6191 135.979 84.9113C136.08 85.2034 136.12 85.5133 136.096 85.8217Z" fill="#FFB14A"/>
<path fill-rule="evenodd" clip-rule="evenodd" d="M150.169 85.822C150.169 86.2658 150.038 86.6996 149.791 87.0686C149.545 87.4376 149.195 87.7252 148.785 87.895C148.375 88.0649 147.924 88.1093 147.489 88.0227C147.054 87.9361 146.655 87.7224 146.341 87.4086C146.028 87.0948 145.814 86.695 145.728 86.2598C145.641 85.8245 145.685 85.3733 145.855 84.9634C146.025 84.5534 146.312 84.203 146.681 83.9564C147.05 83.7099 147.483 83.5783 147.927 83.5783C148.222 83.5765 148.514 83.6333 148.787 83.7454C149.06 83.8575 149.308 84.0227 149.516 84.2315C149.725 84.4402 149.89 84.6883 150.002 84.9613C150.114 85.2343 150.171 85.5269 150.169 85.822Z" fill="#FFB14A"/>
<path fill-rule="evenodd" clip-rule="evenodd" d="M164.228 85.8217C164.185 86.385 163.93 86.9112 163.516 87.295C163.101 87.6788 162.557 87.892 161.993 87.892C161.428 87.892 160.884 87.6788 160.469 87.295C160.055 86.9112 159.8 86.385 159.757 85.8217C159.733 85.5133 159.773 85.2034 159.874 84.9113C159.976 84.6191 160.137 84.3512 160.347 84.1242C160.557 83.8972 160.811 83.7161 161.095 83.5922C161.378 83.4683 161.683 83.4044 161.993 83.4044C162.302 83.4044 162.608 83.4683 162.891 83.5922C163.174 83.7161 163.428 83.8972 163.638 84.1242C163.848 84.3512 164.009 84.6191 164.111 84.9113C164.212 85.2034 164.252 85.5133 164.228 85.8217Z" fill="#F3D65E"/>
<path fill-rule="evenodd" clip-rule="evenodd" d="M167.706 9.76233C147.833 -0.569734 119.151 -1.36242 100.016 1.29785V85.8218H167.706V9.76233Z" fill="#FFB14A"/>
<mask id="mask1_43_2137" style="mask-type:luminance" maskUnits="userSpaceOnUse" x="100" y="0" width="68" height="86">
<path d="M167.706 9.76233C147.833 -0.569734 119.151 -1.36242 100.016 1.29785V85.8218H167.706V9.76233Z" fill="white"/>
</mask>
<g mask="url(#mask1_43_2137)">
<path fill-rule="evenodd" clip-rule="evenodd" d="M110.691 75.0733C110.687 75.3703 110.567 75.6539 110.356 75.8627C110.144 76.0715 109.86 76.1885 109.563 76.1885C109.267 76.1885 108.984 76.071 108.775 75.8619C108.566 75.6528 108.448 75.3691 108.448 75.0733V15.5666C108.448 15.2708 108.566 14.9872 108.775 14.778C108.984 14.5689 109.267 14.4514 109.563 14.4514C109.86 14.4514 110.144 14.5685 110.356 14.7772C110.567 14.986 110.687 15.2696 110.691 15.5666V75.0733Z" fill="#E09F34"/>
<path fill-rule="evenodd" clip-rule="evenodd" d="M116.76 75.0733C116.76 75.3691 116.643 75.6528 116.434 75.8619C116.225 76.071 115.941 76.1885 115.646 76.1885C115.349 76.1885 115.064 76.0715 114.853 75.8627C114.641 75.6539 114.521 75.3703 114.518 75.0733V15.5666C114.521 15.2696 114.641 14.986 114.853 14.7772C115.064 14.5685 115.349 14.4514 115.646 14.4514C115.941 14.4514 116.225 14.5689 116.434 14.778C116.643 14.9872 116.76 15.2708 116.76 15.5666V75.0733Z" fill="#E09F34"/>
<path fill-rule="evenodd" clip-rule="evenodd" d="M122.83 75.0733C122.83 75.3691 122.712 75.6528 122.503 75.8619C122.294 76.071 122.011 76.1885 121.715 76.1885C121.42 76.1885 121.136 76.071 120.927 75.8619C120.718 75.6528 120.601 75.3691 120.601 75.0733V15.5666C120.601 15.2708 120.718 14.9872 120.927 14.778C121.136 14.5689 121.42 14.4514 121.715 14.4514C122.011 14.4514 122.294 14.5689 122.503 14.778C122.712 14.9872 122.83 15.2708 122.83 15.5666V75.0733Z" fill="#E09F34"/>
<path fill-rule="evenodd" clip-rule="evenodd" d="M128.912 75.0733C128.909 75.3703 128.788 75.6539 128.577 75.8627C128.366 76.0715 128.081 76.1885 127.784 76.1885C127.489 76.1885 127.205 76.071 126.996 75.8619C126.787 75.6528 126.67 75.3691 126.67 75.0733V15.5666C126.67 15.2708 126.787 14.9872 126.996 14.778C127.205 14.5689 127.489 14.4514 127.784 14.4514C128.081 14.4514 128.366 14.5685 128.577 14.7772C128.788 14.986 128.909 15.2696 128.912 15.5666V75.0733Z" fill="#E09F34"/>
<path fill-rule="evenodd" clip-rule="evenodd" d="M104.608 75.0733C104.608 75.3691 104.491 75.6528 104.282 75.8619C104.073 76.071 103.789 76.1885 103.494 76.1885C103.198 76.1885 102.914 76.071 102.705 75.8619C102.496 75.6528 102.379 75.3691 102.379 75.0733V15.5666C102.379 15.2708 102.496 14.9872 102.705 14.778C102.914 14.5689 103.198 14.4514 103.494 14.4514C103.789 14.4514 104.073 14.5689 104.282 14.778C104.491 14.9872 104.608 15.2708 104.608 15.5666V75.0733Z" fill="#E09F34"/>
<path fill-rule="evenodd" clip-rule="evenodd" d="M141.051 75.0733C141.051 75.3691 140.934 75.6528 140.725 75.8619C140.516 76.071 140.232 76.1885 139.937 76.1885C139.641 76.1885 139.357 76.071 139.148 75.8619C138.939 75.6528 138.822 75.3691 138.822 75.0733V15.5666C138.822 15.2708 138.939 14.9872 139.148 14.778C139.357 14.5689 139.641 14.4514 139.937 14.4514C140.232 14.4514 140.516 14.5689 140.725 14.778C140.934 14.9872 141.051 15.2708 141.051 15.5666V75.0733Z" fill="#E09F34"/>
<path fill-rule="evenodd" clip-rule="evenodd" d="M147.134 75.0733C147.134 75.2209 147.105 75.367 147.048 75.5032C146.991 75.6393 146.908 75.7629 146.803 75.8666C146.698 75.9703 146.574 76.0522 146.437 76.1075C146.3 76.1627 146.154 76.1903 146.006 76.1885C145.711 76.1885 145.427 76.071 145.218 75.8618C145.009 75.6527 144.892 75.369 144.892 75.0733V15.5666C144.892 15.2708 145.009 14.9871 145.218 14.778C145.427 14.5689 145.711 14.4514 146.006 14.4514C146.154 14.4496 146.3 14.4772 146.437 14.5324C146.574 14.5876 146.698 14.6694 146.803 14.7732C146.908 14.8769 146.991 15.0005 147.048 15.1367C147.105 15.2729 147.134 15.419 147.134 15.5666V75.0733Z" fill="#E09F34"/>
<path fill-rule="evenodd" clip-rule="evenodd" d="M153.204 75.0733C153.204 75.3691 153.086 75.6528 152.877 75.8619C152.668 76.071 152.385 76.1885 152.089 76.1885C151.792 76.1885 151.507 76.0715 151.296 75.8627C151.085 75.6539 150.964 75.3703 150.961 75.0733V15.5666C150.964 15.2696 151.085 14.986 151.296 14.7772C151.507 14.5685 151.792 14.4514 152.089 14.4514C152.385 14.4514 152.668 14.5689 152.877 14.778C153.086 14.9872 153.204 15.2708 153.204 15.5666V75.0733Z" fill="#E09F34"/>
<path fill-rule="evenodd" clip-rule="evenodd" d="M159.287 75.0733C159.283 75.3703 159.162 75.6539 158.951 75.8627C158.74 76.0715 158.455 76.1885 158.159 76.1885C157.863 76.1885 157.579 76.071 157.37 75.8619C157.161 75.6528 157.044 75.3691 157.044 75.0733V15.5666C157.044 15.2708 157.161 14.9872 157.37 14.778C157.579 14.5689 157.863 14.4514 158.159 14.4514C158.455 14.4514 158.74 14.5685 158.951 14.7772C159.162 14.986 159.283 15.2696 159.287 15.5666V75.0733Z" fill="#E09F34"/>
<path fill-rule="evenodd" clip-rule="evenodd" d="M165.356 75.0733C165.356 75.369 165.238 75.6527 165.029 75.8618C164.82 76.071 164.537 76.1885 164.241 76.1885C164.094 76.1903 163.947 76.1627 163.811 76.1075C163.674 76.0522 163.549 75.9703 163.444 75.8666C163.339 75.7629 163.256 75.6393 163.2 75.5032C163.143 75.367 163.113 75.2209 163.113 75.0733V15.5666C163.113 15.419 163.143 15.2729 163.2 15.1367C163.256 15.0005 163.339 14.8769 163.444 14.7732C163.549 14.6694 163.674 14.5876 163.811 14.5324C163.947 14.4772 164.094 14.4496 164.241 14.4514C164.537 14.4514 164.82 14.5689 165.029 14.778C165.238 14.9871 165.356 15.2708 165.356 15.5666V75.0733Z" fill="#E09F34"/>
<path fill-rule="evenodd" clip-rule="evenodd" d="M134.982 75.0733C134.982 75.3691 134.864 75.6528 134.655 75.8619C134.446 76.071 134.163 76.1885 133.867 76.1885C133.57 76.1885 133.285 76.0715 133.074 75.8627C132.863 75.6539 132.743 75.3703 132.739 75.0733V15.5666C132.743 15.2696 132.863 14.986 133.074 14.7772C133.285 14.5685 133.57 14.4514 133.867 14.4514C134.163 14.4514 134.446 14.5689 134.655 14.778C134.864 14.9872 134.982 15.2708 134.982 15.5666V75.0733Z" fill="#E09F34"/>
<path d="M146.343 30.7881C169.183 23.8664 182.091 -0.271116 175.173 -23.1246C168.256 -45.978 144.132 -58.8933 121.292 -51.9717C98.4512 -45.05 85.5434 -20.9125 92.4611 1.94091C99.3787 24.7944 123.502 37.7097 146.343 30.7881Z" fill="#D05663"/>
<path d="M145.421 24.2861C164.474 17.9334 174.773 -2.67073 168.423 -21.7344C162.074 -40.798 141.482 -51.1022 122.429 -44.7495C103.377 -38.3968 93.0786 -17.7928 99.4276 1.27082C105.777 20.3345 126.369 30.6388 145.421 24.2861Z" fill="#E09F34"/>
<path d="M134.539 15.8486C148.511 15.8486 159.838 4.51572 159.838 -9.46419C159.838 -23.4441 148.511 -34.7771 134.539 -34.7771C120.567 -34.7771 109.241 -23.4441 109.241 -9.46419C109.241 4.51572 120.567 15.8486 134.539 15.8486Z" fill="#AE3658"/>
<path d="M147.175 3.02911C154.527 -4.32714 154.527 -16.254 147.175 -23.6103C139.823 -30.9665 127.903 -30.9665 120.551 -23.6102C113.199 -16.254 113.199 -4.32715 120.551 3.02911C127.903 10.3854 139.823 10.3854 147.175 3.02911Z" fill="#FFB14A"/>
</g>
<path fill-rule="evenodd" clip-rule="evenodd" d="M61.6787 35.2368C61.6787 35.2368 63.1157 73.3271 85.0571 83.1755C91.5428 77.4519 106.26 59.0718 101.949 28.1965C101.949 28.1965 80.9479 16.6687 77.4297 20.1351C73.9116 23.6015 72.6225 28.1428 61.6787 35.2368Z" fill="#768BBF"/>
<g style="mix-blend-mode:multiply" opacity="0.4">
<path fill-rule="evenodd" clip-rule="evenodd" d="M78.0068 19.8257C107.871 34.4707 92.5628 67.2001 85.7145 81.8181C85.4996 82.2884 85.2714 82.7452 85.0565 83.1617C91.5422 77.4381 106.259 59.058 101.949 28.1827C101.949 28.1961 82.7738 17.6626 78.0068 19.8257Z" fill="#828380"/>
</g>
<path d="M167.706 73.4877H99.8545V77.8543H167.706V73.4877Z" fill="#E09F34"/>
<path fill-rule="evenodd" clip-rule="evenodd" d="M184.787 24.7297C183.943 23.3998 183.014 22.1252 182.007 20.9139C197.664 53.2671 184.21 77.4246 180.06 91.1424C175.911 104.86 178.395 117.288 188.117 142.749C188.117 142.749 183.941 122.434 181.725 108.515C179.51 94.5954 203.143 53.9524 184.787 24.7297Z" fill="#768BBF"/>
</svg>
