<svg width="217" height="151" viewBox="0 0 217 151" fill="none" xmlns="http://www.w3.org/2000/svg">
<path fill-rule="evenodd" clip-rule="evenodd" d="M86.5967 107.238L75.3307 111.659L64.7493 130.16L54.7858 113.325L70.6981 97.4974L86.5967 107.238Z" fill="#768BBF"/>
<path d="M11.3591 117.288C11.4211 117.301 11.4852 117.301 11.5472 117.288C23.995 114.238 23.6325 94.5282 23.3371 75.4764C23.0954 61.1136 22.8536 47.557 28.2919 43.7278C28.3987 43.6736 28.4925 43.5971 28.567 43.5034C28.6415 43.4096 28.695 43.3008 28.7237 43.1845C28.7524 43.0682 28.7558 42.9471 28.7335 42.8294C28.7112 42.7118 28.6635 42.6003 28.5942 42.5027C28.5249 42.405 28.4353 42.3233 28.3316 42.2634C28.2279 42.2035 28.1128 42.1668 27.9936 42.1555C27.8744 42.1443 27.7542 42.1589 27.6412 42.1984C27.5281 42.2379 27.4249 42.3012 27.3386 42.3842C21.1886 46.7105 21.4169 60.7106 21.672 75.5167C21.9943 93.9237 22.3164 112.949 11.1578 115.689C10.9625 115.74 10.7923 115.86 10.6788 116.027C10.5654 116.194 10.5165 116.397 10.5411 116.597C10.5658 116.798 10.6624 116.982 10.8129 117.117C10.9634 117.251 11.1573 117.327 11.3591 117.329V117.288Z" fill="#768BBF"/>
<path fill-rule="evenodd" clip-rule="evenodd" d="M176.309 147.196C176.309 147.196 172.146 142.185 173.247 136.622C167.137 133.008 165.19 122.985 170.199 112.438C175.207 101.891 194.114 78.4727 188.837 48.9814C183.56 19.49 165.069 3.29989 130.21 4.15978C109.826 -2.55808 50.5821 -4.46593 32.1858 24.7567C13.7894 53.9794 37.4765 94.6224 35.2474 108.542C33.0184 122.461 28.8557 142.776 28.8557 142.776C28.8557 142.776 46.0973 157.246 70.8585 144.724C66.4004 129.69 65.85 113.553 73.3562 105.761C85.8845 109.926 104.523 104.417 104.523 104.417L109.894 112.774L104.751 145.611C104.751 145.611 121.831 157.166 145.652 145.06C142.107 135.055 140.41 124.488 140.644 113.876C140.805 100.346 143.974 92.3787 148.15 82.705C152.326 73.0312 166.788 75.7452 167.903 81.5898C169.017 87.4343 153.132 111.148 156.22 126.68C159.309 142.212 167.137 146.645 176.309 147.196Z" fill="#87A0D1"/>
<path fill-rule="evenodd" clip-rule="evenodd" d="M166.212 50.5398C166.212 50.5398 170.563 50.1233 173.154 51.7893C175.356 53.2001 177.706 54.7855 177.706 52.7299C177.706 50.6742 175.584 48.9813 172.979 48.9813C170.663 49.1886 168.386 49.713 166.212 50.5398Z" fill="#421C18"/>
<path fill-rule="evenodd" clip-rule="evenodd" d="M177.129 68.0865C177.129 68.0865 186.313 85.7142 216.634 72.8697C203.004 86.4666 185.333 87.649 169.891 76.4436C170.737 71.7142 177.129 68.0865 177.129 68.0865Z" fill="#C0CDE7"/>
<path fill-rule="evenodd" clip-rule="evenodd" d="M177.128 68.0865C177.125 68.1178 177.125 68.1494 177.128 68.1806C175.302 69.6854 173.207 71.9292 172.751 74.5089C185.32 83.6048 199.365 84.5319 211.504 77.196C198.734 86.601 183.426 86.2651 169.877 76.4302C170.737 71.7142 177.128 68.0865 177.128 68.0865Z" fill="#768BBF"/>
<path fill-rule="evenodd" clip-rule="evenodd" d="M107.463 99.4324C111.76 96.3959 112.19 112.868 112.19 112.868C112.19 112.868 109.84 137.052 114.54 139.74C114.54 139.74 112.311 143.287 109.437 147.801C107.826 147.194 106.279 146.429 104.818 145.517L109.961 112.693L104.59 104.336C104.59 104.336 85.952 109.899 73.4237 105.68C88.3959 107.319 103.167 102.482 107.463 99.4324Z" fill="#768BBF"/>
<g style="mix-blend-mode:multiply" opacity="0.5">
<path fill-rule="evenodd" clip-rule="evenodd" d="M167.971 81.5087C167.393 78.4857 163.217 76.2822 158.746 76.2151C181.922 74.3206 164.614 101.931 160.263 114.964C155.913 127.996 161.848 136.81 166.212 140.68C170.576 144.549 171.811 141.781 173.248 136.649C172.147 142.211 176.31 147.223 176.31 147.223C167.138 146.672 159.35 142.211 156.289 126.626C153.227 111.04 169.085 87.3533 167.971 81.5087Z" fill="#9A9D99"/>
</g>
<mask id="mask0_43_2138" style="mask-type:luminance" maskUnits="userSpaceOnUse" x="25" y="0" width="165" height="151">
<path d="M176.309 147.196C176.309 147.196 172.146 142.185 173.247 136.622C167.137 133.008 165.19 122.985 170.199 112.438C175.207 101.891 194.114 78.4727 188.837 48.9814C183.56 19.49 165.069 3.29989 130.21 4.15978C109.826 -2.55808 50.5821 -4.46593 32.1858 24.7567C13.7894 53.9794 37.4765 94.6224 35.2474 108.542C33.0184 122.461 28.8557 142.776 28.8557 142.776C28.8557 142.776 46.0973 157.246 70.8585 144.724C66.4004 129.69 65.85 113.553 73.3562 105.761C85.8845 109.926 104.523 104.417 104.523 104.417L109.894 112.774L104.751 145.611C104.751 145.611 121.831 157.166 145.652 145.06C142.107 135.055 140.41 124.488 140.644 113.876C140.805 100.346 143.974 92.3787 148.15 82.705C152.326 73.0312 166.788 75.7452 167.903 81.5898C169.017 87.4343 153.132 111.148 156.22 126.68C159.309 142.212 167.137 146.645 176.309 147.196Z" fill="white"/>
</mask>
<g mask="url(#mask0_43_2138)">
<path fill-rule="evenodd" clip-rule="evenodd" d="M131.486 146.766C131.549 148.189 132.028 149.561 132.864 150.713C133.7 151.865 134.855 152.747 136.186 153.248C137.518 153.749 138.968 153.847 140.355 153.532C141.742 153.216 143.006 152.499 143.99 151.471C144.974 150.443 145.635 149.148 145.89 147.748C146.145 146.347 145.984 144.902 145.426 143.593C144.868 142.283 143.938 141.167 142.751 140.381C141.564 139.596 140.173 139.177 138.75 139.175C137.775 139.196 136.814 139.409 135.921 139.802C135.028 140.195 134.221 140.76 133.546 141.465C132.872 142.17 132.342 143.001 131.989 143.911C131.635 144.82 131.465 145.791 131.486 146.766Z" fill="#C0CDE7"/>
<path fill-rule="evenodd" clip-rule="evenodd" d="M118.152 149.064C118.215 150.486 118.694 151.858 119.53 153.011C120.365 154.163 121.521 155.044 122.853 155.545C124.184 156.046 125.634 156.145 127.021 155.829C128.408 155.513 129.672 154.797 130.656 153.768C131.64 152.74 132.301 151.446 132.556 150.045C132.811 148.645 132.65 147.2 132.092 145.89C131.534 144.581 130.604 143.464 129.417 142.679C128.23 141.893 126.839 141.474 125.416 141.473C124.441 141.494 123.48 141.707 122.587 142.1C121.694 142.492 120.887 143.057 120.212 143.762C119.538 144.467 119.008 145.298 118.655 146.208C118.301 147.118 118.13 148.088 118.152 149.064Z" fill="#C0CDE7"/>
<path fill-rule="evenodd" clip-rule="evenodd" d="M104.509 146.766C104.572 148.189 105.051 149.561 105.887 150.713C106.723 151.865 107.878 152.747 109.21 153.248C110.541 153.749 111.991 153.847 113.378 153.532C114.766 153.216 116.03 152.499 117.014 151.471C117.998 150.443 118.658 149.148 118.914 147.748C119.169 146.347 119.007 144.902 118.449 143.593C117.891 142.283 116.961 141.167 115.774 140.381C114.588 139.596 113.196 139.177 111.774 139.175C110.798 139.196 109.837 139.409 108.944 139.802C108.051 140.195 107.244 140.76 106.57 141.465C105.895 142.17 105.366 143.001 105.012 143.911C104.659 144.82 104.488 145.791 104.509 146.766Z" fill="#C0CDE7"/>
<path fill-rule="evenodd" clip-rule="evenodd" d="M56.316 145.127C56.3276 146.587 56.7671 148.011 57.5801 149.223C58.3931 150.435 59.5436 151.382 60.8892 151.946C62.2348 152.509 63.7162 152.666 65.1497 152.395C66.5833 152.125 67.9058 151.439 68.9536 150.423C70.0013 149.408 70.7284 148.107 71.0441 146.682C71.3599 145.256 71.2504 143.77 70.7298 142.406C70.2091 141.043 69.2999 139.862 68.115 139.011C66.93 138.159 65.5213 137.675 64.0636 137.617C63.0615 137.599 62.0661 137.779 61.1338 138.147C60.2015 138.516 59.351 139.064 58.6311 139.762C57.9113 140.46 57.3362 141.293 56.9389 142.214C56.5416 143.134 56.33 144.125 56.316 145.127Z" fill="#C0CDE7"/>
<path fill-rule="evenodd" clip-rule="evenodd" d="M41.3982 146.941C41.3992 148.523 41.8656 150.07 42.739 151.389C43.6125 152.708 44.8543 153.741 46.3101 154.358C47.7659 154.976 49.3713 155.151 50.926 154.862C52.4807 154.573 53.9159 153.833 55.0531 152.734C56.1902 151.634 56.979 150.224 57.321 148.68C57.663 147.135 57.5432 145.524 56.9764 144.047C56.4097 142.57 55.4211 141.292 54.1338 140.373C52.8465 139.455 51.3172 138.935 49.7369 138.88C47.5632 138.844 45.464 139.673 43.9005 141.184C42.337 142.696 41.437 144.766 41.3982 146.941Z" fill="#C0CDE7"/>
<path fill-rule="evenodd" clip-rule="evenodd" d="M28.6274 144.079C28.6391 145.539 29.0786 146.963 29.8915 148.175C30.7045 149.387 31.8551 150.334 33.2006 150.898C34.5462 151.462 36.0276 151.618 37.4612 151.347C38.8947 151.077 40.2175 150.391 41.2653 149.375C42.3131 148.36 43.0398 147.059 43.3556 145.633C43.6713 144.208 43.5622 142.722 43.0415 141.358C42.5209 139.995 41.6117 138.814 40.4267 137.963C39.2417 137.111 37.8331 136.627 36.3754 136.569C35.3737 136.553 34.3787 136.734 33.4472 137.103C32.5157 137.472 31.666 138.021 30.9465 138.718C30.227 139.416 29.6518 140.248 29.2539 141.168C28.856 142.088 28.6431 143.077 28.6274 144.079Z" fill="#C0CDE7"/>
</g>
<path fill-rule="evenodd" clip-rule="evenodd" d="M16.7314 113.311C16.7314 113.311 6.35166 118.78 0.000213623 117.342C5.7474 121.373 8.28551 121.883 8.28551 121.883L12.0316 119.707L10.2728 124.154L12.4883 125.35L16.7314 113.311Z" fill="#768BBF"/>
<path fill-rule="evenodd" clip-rule="evenodd" d="M179.519 41.7663C179.519 42.2101 179.65 42.6439 179.897 43.0129C180.143 43.3819 180.493 43.6694 180.903 43.8392C181.313 44.0091 181.764 44.0535 182.199 43.9669C182.634 43.8804 183.033 43.6667 183.347 43.3529C183.661 43.0391 183.874 42.6393 183.961 42.2041C184.047 41.7688 184.003 41.3176 183.833 40.9076C183.664 40.4977 183.376 40.1473 183.007 39.9007C182.638 39.6542 182.205 39.5225 181.761 39.5225C181.466 39.5207 181.174 39.5776 180.901 39.6897C180.628 39.8018 180.38 39.967 180.172 40.1758C179.963 40.3845 179.798 40.6325 179.686 40.9055C179.574 41.1785 179.517 41.4712 179.519 41.7663Z" fill="#FFB14A"/>
<path fill-rule="evenodd" clip-rule="evenodd" d="M166.184 36.741C166.184 37.1847 166.316 37.6186 166.562 37.9876C166.808 38.3566 167.159 38.6442 167.568 38.814C167.978 38.9838 168.429 39.0282 168.864 38.9417C169.299 38.8551 169.699 38.6414 170.012 38.3276C170.326 38.0138 170.539 37.614 170.626 37.1787C170.712 36.7435 170.668 36.2924 170.498 35.8824C170.329 35.4724 170.041 35.1219 169.672 34.8754C169.304 34.6288 168.87 34.4972 168.427 34.4972C168.132 34.4954 167.839 34.5523 167.567 34.6644C167.294 34.7766 167.046 34.9418 166.837 35.1505C166.628 35.3592 166.463 35.6072 166.351 35.8802C166.239 36.1533 166.182 36.4458 166.184 36.741Z" fill="#FFB14A"/>
<path fill-rule="evenodd" clip-rule="evenodd" d="M153.522 29.0696C153.519 29.5146 153.649 29.9502 153.894 30.3212C154.14 30.6922 154.49 30.9819 154.9 31.1534C155.31 31.3249 155.762 31.3705 156.199 31.2844C156.635 31.1982 157.036 30.9843 157.35 30.6696C157.664 30.355 157.878 29.954 157.964 29.5175C158.05 29.081 158.005 28.6287 157.834 28.2182C157.662 27.8077 157.373 27.4573 157.002 27.2118C156.631 26.9663 156.196 26.8366 155.751 26.8393C155.16 26.8393 154.593 27.0743 154.175 27.4925C153.757 27.9108 153.522 28.4781 153.522 29.0696Z" fill="#FFB14A"/>
<path fill-rule="evenodd" clip-rule="evenodd" d="M141.383 19.1809C141.383 19.6246 141.515 20.0584 141.761 20.4274C142.008 20.7964 142.358 21.084 142.768 21.2538C143.177 21.4236 143.628 21.4681 144.063 21.3815C144.498 21.2949 144.898 21.0812 145.211 20.7674C145.525 20.4536 145.739 20.0539 145.825 19.6186C145.912 19.1834 145.867 18.7322 145.698 18.3222C145.528 17.9122 145.24 17.5618 144.872 17.3153C144.503 17.0687 144.069 16.9371 143.626 16.9371C143.331 16.9353 143.038 16.9921 142.765 17.1043C142.493 17.2164 142.245 17.3816 142.036 17.5903C141.828 17.799 141.663 18.047 141.55 18.3201C141.438 18.5931 141.381 18.8857 141.383 19.1809Z" fill="#FFB14A"/>
<path fill-rule="evenodd" clip-rule="evenodd" d="M132.56 9.64155C132.557 10.0859 132.687 10.521 132.931 10.8918C133.176 11.2625 133.526 11.5522 133.935 11.7241C134.345 11.896 134.796 11.9423 135.232 11.8572C135.668 11.7722 136.069 11.5596 136.384 11.2463C136.698 10.933 136.913 10.5334 137.001 10.0977C137.088 9.66213 137.045 9.2103 136.876 8.79952C136.706 8.38874 136.419 8.03751 136.05 7.79036C135.681 7.54322 135.247 7.41126 134.803 7.41125C134.21 7.41124 133.642 7.6458 133.222 8.06369C132.801 8.48157 132.564 9.04879 132.56 9.64155Z" fill="#FFB14A"/>
<path fill-rule="evenodd" clip-rule="evenodd" d="M179.8 25.1464C181.448 27.8009 182.937 30.5511 184.258 33.3825C185.594 36.4855 186.686 39.6885 187.521 42.9621C183.493 42.465 155.845 37.8566 130.211 4.13298C154.086 3.56868 170.307 10.9583 179.8 25.1464Z" fill="#D05663"/>
<path fill-rule="evenodd" clip-rule="evenodd" d="M139.033 4.32068C163.794 5.95984 178.914 17.5951 185.87 37.5203C175.678 34.551 157.147 26.3821 139.033 4.32068Z" fill="#AE3658"/>
<path fill-rule="evenodd" clip-rule="evenodd" d="M179.8 25.1466C181.143 27.2695 182.271 29.3519 183.251 31.3136C173.851 27.1888 161.31 19.5708 148.741 5.58423C162.733 8.35198 172.992 15.0027 179.8 25.1466Z" fill="#FFB14A"/>
<path fill-rule="evenodd" clip-rule="evenodd" d="M49.2937 9.76233C69.1671 -0.569734 97.8495 -1.36242 116.984 1.29785V85.8218H49.2937V9.76233Z" fill="#F3D65E"/>
<path d="M49.2938 77.8412H117.146V82.2078H49.2938V77.8412Z" fill="#A82A2A"/>
<path fill-rule="evenodd" clip-rule="evenodd" d="M109.035 85.8217C109.078 86.385 109.333 86.9112 109.747 87.295C110.162 87.6788 110.705 87.892 111.27 87.892C111.835 87.892 112.379 87.6788 112.793 87.295C113.208 86.9112 113.462 86.385 113.506 85.8217C113.53 85.5133 113.49 85.2034 113.388 84.9113C113.287 84.6191 113.126 84.3512 112.916 84.1242C112.706 83.8972 112.452 83.7161 112.168 83.5922C111.885 83.4683 111.579 83.4044 111.27 83.4044C110.961 83.4044 110.655 83.4683 110.372 83.5922C110.089 83.7161 109.834 83.8972 109.624 84.1242C109.415 84.3512 109.254 84.6191 109.152 84.9113C109.051 85.2034 109.011 85.5133 109.035 85.8217Z" fill="#FFB14A"/>
<path fill-rule="evenodd" clip-rule="evenodd" d="M94.9621 85.822C94.9621 86.2658 95.0937 86.6996 95.3401 87.0686C95.5865 87.4376 95.9368 87.7252 96.3465 87.895C96.7563 88.0649 97.2071 88.1093 97.6421 88.0227C98.0771 87.9361 98.4769 87.7224 98.7905 87.4086C99.1042 87.0948 99.3177 86.695 99.4042 86.2598C99.4908 85.8245 99.4461 85.3733 99.2764 84.9634C99.1067 84.5534 98.8193 84.203 98.4506 83.9564C98.0818 83.7099 97.6483 83.5783 97.2048 83.5783C96.9098 83.5765 96.6175 83.6333 96.3446 83.7454C96.0717 83.8575 95.8237 84.0227 95.6152 84.2315C95.4066 84.4402 95.2414 84.6883 95.1293 84.9613C95.0172 85.2343 94.9603 85.5269 94.9621 85.822Z" fill="#FFB14A"/>
<path fill-rule="evenodd" clip-rule="evenodd" d="M80.9035 85.8217C80.9472 86.385 81.2017 86.9112 81.6162 87.295C82.0307 87.6788 82.5746 87.892 83.1393 87.892C83.704 87.892 84.2479 87.6788 84.6624 87.295C85.0769 86.9112 85.3315 86.385 85.3751 85.8217C85.399 85.5133 85.3589 85.2034 85.2574 84.9113C85.1559 84.6191 84.9953 84.3512 84.7854 84.1242C84.5754 83.8972 84.3208 83.7161 84.0376 83.5922C83.7543 83.4683 83.4484 83.4044 83.1393 83.4044C82.8302 83.4044 82.5246 83.4683 82.2414 83.5922C81.9582 83.7161 81.7035 83.8972 81.4936 84.1242C81.2837 84.3512 81.1227 84.6191 81.0212 84.9113C80.9197 85.2034 80.8796 85.5133 80.9035 85.8217Z" fill="#FFB14A"/>
<path fill-rule="evenodd" clip-rule="evenodd" d="M66.8305 85.822C66.8305 86.2658 66.9621 86.6996 67.2085 87.0686C67.4549 87.4376 67.8052 87.7252 68.215 87.895C68.6247 88.0649 69.0755 88.1093 69.5105 88.0227C69.9455 87.9361 70.345 87.7224 70.6586 87.4086C70.9722 87.0948 71.1858 86.695 71.2723 86.2598C71.3588 85.8245 71.3145 85.3733 71.1448 84.9634C70.9751 84.5534 70.6878 84.203 70.319 83.9564C69.9502 83.7099 69.5167 83.5783 69.0732 83.5783C68.7782 83.5765 68.4855 83.6333 68.2127 83.7454C67.9398 83.8575 67.6921 84.0227 67.4836 84.2315C67.275 84.4402 67.1098 84.6883 66.9977 84.9613C66.8856 85.2343 66.8287 85.5269 66.8305 85.822Z" fill="#FFB14A"/>
<path fill-rule="evenodd" clip-rule="evenodd" d="M52.7717 85.8217C52.8153 86.385 53.0699 86.9112 53.4844 87.295C53.8988 87.6788 54.4428 87.892 55.0075 87.892C55.5722 87.892 56.1161 87.6788 56.5306 87.295C56.9451 86.9112 57.1996 86.385 57.2433 85.8217C57.2672 85.5133 57.2271 85.2034 57.1256 84.9113C57.0241 84.6191 56.8631 84.3512 56.6532 84.1242C56.4432 83.8972 56.1886 83.7161 55.9054 83.5922C55.6222 83.4683 55.3166 83.4044 55.0075 83.4044C54.6984 83.4044 54.3924 83.4683 54.1092 83.5922C53.826 83.7161 53.5717 83.8972 53.3618 84.1242C53.1518 84.3512 52.9909 84.6191 52.8894 84.9113C52.7878 85.2034 52.7478 85.5133 52.7717 85.8217Z" fill="#F3D65E"/>
<path fill-rule="evenodd" clip-rule="evenodd" d="M49.2937 9.76233C69.1671 -0.569734 97.8495 -1.36242 116.984 1.29785V85.8218H49.2937V9.76233Z" fill="#FFB14A"/>
<mask id="mask1_43_2138" style="mask-type:luminance" maskUnits="userSpaceOnUse" x="49" y="0" width="68" height="86">
<path d="M49.2937 9.76233C69.1671 -0.569734 97.8495 -1.36242 116.984 1.29785V85.8218H49.2937V9.76233Z" fill="white"/>
</mask>
<g mask="url(#mask1_43_2138)">
<path fill-rule="evenodd" clip-rule="evenodd" d="M106.309 75.0733C106.313 75.3703 106.433 75.6539 106.644 75.8627C106.856 76.0715 107.14 76.1885 107.437 76.1885C107.733 76.1885 108.016 76.071 108.225 75.8619C108.434 75.6528 108.552 75.3691 108.552 75.0733V15.5666C108.552 15.2708 108.434 14.9872 108.225 14.778C108.016 14.5689 107.733 14.4514 107.437 14.4514C107.14 14.4514 106.856 14.5685 106.644 14.7772C106.433 14.986 106.313 15.2696 106.309 15.5666V75.0733Z" fill="#E09F34"/>
<path fill-rule="evenodd" clip-rule="evenodd" d="M100.24 75.0733C100.24 75.3691 100.357 75.6528 100.566 75.8619C100.775 76.071 101.059 76.1885 101.354 76.1885C101.651 76.1885 101.936 76.0715 102.147 75.8627C102.359 75.6539 102.479 75.3703 102.482 75.0733V15.5666C102.479 15.2696 102.359 14.986 102.147 14.7772C101.936 14.5685 101.651 14.4514 101.354 14.4514C101.059 14.4514 100.775 14.5689 100.566 14.778C100.357 14.9872 100.24 15.2708 100.24 15.5666V75.0733Z" fill="#E09F34"/>
<path fill-rule="evenodd" clip-rule="evenodd" d="M94.1705 75.0733C94.1705 75.3691 94.288 75.6528 94.497 75.8619C94.706 76.071 94.9892 76.1885 95.2848 76.1885C95.5804 76.1885 95.8639 76.071 96.0729 75.8619C96.2819 75.6528 96.3994 75.3691 96.3994 75.0733V15.5666C96.3994 15.2708 96.2819 14.9872 96.0729 14.778C95.8639 14.5689 95.5804 14.4514 95.2848 14.4514C94.9892 14.4514 94.706 14.5689 94.497 14.778C94.288 14.9872 94.1705 15.2708 94.1705 15.5666V75.0733Z" fill="#E09F34"/>
<path fill-rule="evenodd" clip-rule="evenodd" d="M88.0877 75.0733C88.0912 75.3703 88.2116 75.6539 88.4227 75.8627C88.6339 76.0715 88.9189 76.1885 89.2158 76.1885C89.5114 76.1885 89.7945 76.071 90.0036 75.8619C90.2126 75.6528 90.3301 75.3691 90.3301 75.0733V15.5666C90.3301 15.2708 90.2126 14.9872 90.0036 14.778C89.7945 14.5689 89.5114 14.4514 89.2158 14.4514C88.9189 14.4514 88.6339 14.5685 88.4227 14.7772C88.2116 14.986 88.0912 15.2696 88.0877 15.5666V75.0733Z" fill="#E09F34"/>
<path fill-rule="evenodd" clip-rule="evenodd" d="M112.392 75.0733C112.392 75.3691 112.509 75.6528 112.718 75.8619C112.927 76.071 113.211 76.1885 113.506 76.1885C113.802 76.1885 114.086 76.071 114.295 75.8619C114.504 75.6528 114.621 75.3691 114.621 75.0733V15.5666C114.621 15.2708 114.504 14.9872 114.295 14.778C114.086 14.5689 113.802 14.4514 113.506 14.4514C113.211 14.4514 112.927 14.5689 112.718 14.778C112.509 14.9872 112.392 15.2708 112.392 15.5666V75.0733Z" fill="#E09F34"/>
<path fill-rule="evenodd" clip-rule="evenodd" d="M75.9488 75.0733C75.9488 75.3691 76.0663 75.6528 76.2753 75.8619C76.4843 76.071 76.7678 76.1885 77.0634 76.1885C77.359 76.1885 77.6425 76.071 77.8515 75.8619C78.0606 75.6528 78.1777 75.3691 78.1777 75.0733V15.5666C78.1777 15.2708 78.0606 14.9872 77.8515 14.778C77.6425 14.5689 77.359 14.4514 77.0634 14.4514C76.7678 14.4514 76.4843 14.5689 76.2753 14.778C76.0663 14.9872 75.9488 15.2708 75.9488 15.5666V75.0733Z" fill="#E09F34"/>
<path fill-rule="evenodd" clip-rule="evenodd" d="M69.8657 75.0733C69.8657 75.2209 69.8951 75.367 69.9519 75.5032C70.0088 75.6393 70.0919 75.7629 70.1968 75.8666C70.3017 75.9703 70.4262 76.0522 70.563 76.1075C70.6998 76.1627 70.8463 76.1903 70.9938 76.1885C71.2894 76.1885 71.5729 76.071 71.7819 75.8618C71.9909 75.6527 72.1084 75.369 72.1084 75.0733V15.5666C72.1084 15.2708 71.9909 14.9871 71.7819 14.778C71.5729 14.5689 71.2894 14.4514 70.9938 14.4514C70.8463 14.4496 70.6998 14.4772 70.563 14.5324C70.4262 14.5876 70.3017 14.6694 70.1968 14.7732C70.0919 14.8769 70.0088 15.0005 69.9519 15.1367C69.8951 15.2729 69.8657 15.419 69.8657 15.5666V75.0733Z" fill="#E09F34"/>
<path fill-rule="evenodd" clip-rule="evenodd" d="M63.7964 75.0733C63.7964 75.3691 63.9139 75.6528 64.1229 75.8619C64.3319 76.071 64.6154 76.1885 64.911 76.1885C65.2078 76.1885 65.4925 76.0715 65.7037 75.8627C65.9148 75.6539 66.0355 75.3703 66.0391 75.0733V15.5666C66.0355 15.2696 65.9148 14.986 65.7037 14.7772C65.4925 14.5685 65.2078 14.4514 64.911 14.4514C64.6154 14.4514 64.3319 14.5689 64.1229 14.778C63.9139 14.9872 63.7964 15.2708 63.7964 15.5666V75.0733Z" fill="#E09F34"/>
<path fill-rule="evenodd" clip-rule="evenodd" d="M57.7133 75.0733C57.7169 75.3703 57.8376 75.6539 58.0487 75.8627C58.2599 76.0715 58.5446 76.1885 58.8414 76.1885C59.137 76.1885 59.4205 76.071 59.6295 75.8619C59.8385 75.6528 59.9561 75.3691 59.9561 75.0733V15.5666C59.9561 15.2708 59.8385 14.9872 59.6295 14.778C59.4205 14.5689 59.137 14.4514 58.8414 14.4514C58.5446 14.4514 58.2599 14.5685 58.0487 14.7772C57.8376 14.986 57.7169 15.2696 57.7133 15.5666V75.0733Z" fill="#E09F34"/>
<path fill-rule="evenodd" clip-rule="evenodd" d="M51.644 75.0733C51.644 75.369 51.7615 75.6527 51.9705 75.8618C52.1796 76.071 52.4631 76.1885 52.7587 76.1885C52.9061 76.1903 53.0526 76.1627 53.1894 76.1075C53.3262 76.0522 53.4507 75.9703 53.5556 75.8666C53.6605 75.7629 53.7437 75.6393 53.8005 75.5032C53.8573 75.367 53.8867 75.2209 53.8867 75.0733V15.5666C53.8867 15.419 53.8573 15.2729 53.8005 15.1367C53.7437 15.0005 53.6605 14.8769 53.5556 14.7732C53.4507 14.6694 53.3262 14.5876 53.1894 14.5324C53.0526 14.4772 52.9061 14.4496 52.7587 14.4514C52.4631 14.4514 52.1796 14.5689 51.9705 14.778C51.7615 14.9871 51.644 15.2708 51.644 15.5666V75.0733Z" fill="#E09F34"/>
<path fill-rule="evenodd" clip-rule="evenodd" d="M82.0184 75.0733C82.0184 75.3691 82.1359 75.6528 82.3449 75.8619C82.5539 76.071 82.8374 76.1885 83.133 76.1885C83.4298 76.1885 83.7145 76.0715 83.9257 75.8627C84.1368 75.6539 84.2572 75.3703 84.2607 75.0733V15.5666C84.2572 15.2696 84.1368 14.986 83.9257 14.7772C83.7145 14.5685 83.4298 14.4514 83.133 14.4514C82.8374 14.4514 82.5539 14.5689 82.3449 14.778C82.1359 14.9872 82.0184 15.2708 82.0184 15.5666V75.0733Z" fill="#E09F34"/>
<path d="M70.6574 30.7881C47.8171 23.8664 34.909 -0.271116 41.8266 -23.1246C48.7443 -45.978 72.8681 -58.8933 95.7085 -51.9717C118.549 -45.05 131.457 -20.9125 124.539 1.94091C117.621 24.7944 93.4977 37.7097 70.6574 30.7881Z" fill="#D05663"/>
<path d="M71.5786 24.2861C52.5259 17.9334 42.2275 -2.67073 48.5765 -21.7344C54.9256 -40.798 75.5179 -51.1022 94.5706 -44.7495C113.623 -38.3968 123.921 -17.7928 117.572 1.27082C111.223 20.3345 90.6313 30.6388 71.5786 24.2861Z" fill="#E09F34"/>
<path d="M82.4607 15.8486C68.4888 15.8486 57.1622 4.51572 57.1622 -9.46419C57.1622 -23.4441 68.4888 -34.7771 82.4607 -34.7771C96.4325 -34.7771 107.759 -23.4441 107.759 -9.46419C107.759 4.51572 96.4325 15.8486 82.4607 15.8486Z" fill="#AE3658"/>
<path d="M69.8247 3.02911C62.4727 -4.32714 62.4727 -16.254 69.8247 -23.6103C77.1767 -30.9665 89.0967 -30.9665 96.4487 -23.6102C103.801 -16.254 103.801 -4.32715 96.4488 3.02911C89.0967 10.3854 77.1767 10.3854 69.8247 3.02911Z" fill="#FFB14A"/>
</g>
<path fill-rule="evenodd" clip-rule="evenodd" d="M155.321 35.2368C155.321 35.2368 153.884 73.3271 131.943 83.1755C125.457 77.4519 110.74 59.0718 115.051 28.1965C115.051 28.1965 136.052 16.6687 139.57 20.1351C143.088 23.6015 144.377 28.1428 155.321 35.2368Z" fill="#768BBF"/>
<g style="mix-blend-mode:multiply" opacity="0.4">
<path fill-rule="evenodd" clip-rule="evenodd" d="M138.993 19.8257C109.129 34.4707 124.437 67.2001 131.286 81.8181C131.5 82.2884 131.729 82.7452 131.943 83.1617C125.458 77.4381 110.741 59.058 115.051 28.1827C115.051 28.1961 134.226 17.6626 138.993 19.8257Z" fill="#828380"/>
</g>
<path d="M49.2938 73.4877H117.146V77.8543H49.2938V73.4877Z" fill="#E09F34"/>
<path fill-rule="evenodd" clip-rule="evenodd" d="M32.213 24.7297C33.0573 23.3998 33.9858 22.1252 34.9927 20.9139C19.3357 53.2671 32.7905 77.4246 36.9397 91.1424C41.089 104.86 38.6048 117.288 28.8829 142.749C28.8829 142.749 33.0591 122.434 35.2747 108.515C37.4903 94.5954 13.857 53.9524 32.213 24.7297Z" fill="#768BBF"/>
</svg>
