<svg width="245" height="189" viewBox="0 0 245 189" fill="none" xmlns="http://www.w3.org/2000/svg">
<path d="M0.879079 101.99C0.879079 101.99 -4.79094 95.7998 12.6691 88.2498C30.1291 80.6998 99.779 61.6299 162.269 70.1499C198.819 75.1499 249.269 83.1498 244.699 101.99C240.129 120.83 123.699 142.99 123.699 142.99L19.3091 120.82L0.879079 101.99Z" fill="#F1E9D6"/>
<path d="M17.3993 125.26C17.3993 125.26 3.75926 105.82 29.5193 97.07C43.6993 92.26 84.8093 82.74 122.789 81.69C153.789 80.84 182.649 87.77 193.139 89.8C216.479 94.32 238.969 95.1501 226.469 125.26C215.879 150.78 17.3993 125.26 17.3993 125.26Z" fill="#8F0B55"/>
<path d="M244.698 101.99C243.198 113.11 239.723 123.872 234.438 133.77C228.038 145.444 219.094 155.53 208.268 163.28C206.788 164.37 205.268 165.4 203.768 166.39C168.108 189.63 122.768 188.99 122.768 188.99C122.768 188.99 93.1184 189.4 62.9284 177.28C59.0784 175.73 55.1984 173.97 51.3984 171.98C46.9495 169.682 42.6629 167.083 38.5684 164.2C37.0784 163.2 35.6284 162.06 34.1784 160.91C24.4494 153.337 16.428 143.795 10.6384 132.91C5.62376 123.261 2.31501 112.817 0.858398 102.04C0.858398 102.04 20.6684 121.8 57.4784 119.32C84.4784 117.51 106.338 91.8801 116.548 77.5601C116.548 77.5601 116.548 77.5601 116.548 77.5001C120.288 72.2501 122.458 68.5001 122.708 68.1001L123.208 68.9401C123.208 69.0401 123.338 69.17 123.418 69.3C123.638 69.63 123.828 69.97 124.028 70.3C124.128 70.45 124.228 70.6101 124.318 70.7701C124.528 71.1001 124.738 71.4401 124.988 71.8201C125.238 72.2001 125.328 72.3401 125.508 72.6201C125.968 73.3201 126.508 74.09 127.048 74.92L127.138 75.05C127.868 76.12 128.668 77.2801 129.568 78.5101C129.798 78.8301 130.038 79.1601 130.288 79.5101C131.048 80.5101 131.868 81.6301 132.738 82.7701C133.178 83.3501 133.648 83.9301 134.118 84.5201C135.398 86.1201 136.778 87.7801 138.238 89.4601C138.728 90.0201 139.238 90.5701 139.738 91.1401C140.932 92.4735 142.185 93.8068 143.498 95.1401C143.878 95.5301 144.258 95.9301 144.648 96.3101C146.218 97.8701 147.838 99.4101 149.548 100.93C149.968 101.3 150.398 101.69 150.828 102.05C152.128 103.163 153.462 104.253 154.828 105.32C155.258 105.66 155.688 105.99 156.128 106.32C156.568 106.65 157.128 107.05 157.598 107.4C158.068 107.75 158.598 108.08 159.038 108.4C159.478 108.72 160.158 109.16 160.728 109.54C161.128 109.8 161.528 110.06 161.938 110.31C163.418 111.24 164.938 112.12 166.478 112.92C166.988 113.21 167.478 113.47 168.018 113.72L169.588 114.47C170.588 114.96 171.698 115.47 172.778 115.84C173.328 116.06 173.858 116.26 174.408 116.46L175.998 117.01C177.148 117.39 178.308 117.73 179.488 118.01L180.918 118.37L181.348 118.46L182.438 118.67C182.898 118.76 183.348 118.84 183.818 118.91C184.288 118.98 184.518 119.03 184.888 119.07C185.622 119.17 186.362 119.25 187.108 119.31L187.998 119.39C194.954 119.879 201.942 119.544 208.818 118.39C232.298 114.34 244.698 101.99 244.698 101.99Z" fill="#9C2DA2"/>
<path d="M122.789 68C95.1592 154.82 34.4092 141.84 10.6592 132.86C7.85076 127.511 5.5893 121.893 3.90918 116.09C2.57201 111.468 1.56942 106.756 0.90918 101.99C0.90918 101.99 20.7192 121.75 57.5292 119.27C72.9092 118.27 86.6592 109.44 97.5292 99.4299C107.348 90.1586 115.847 79.5833 122.789 68Z" fill="#EAB32B"/>
<path d="M244.699 101.99C243.198 113.11 239.724 123.872 234.439 133.77C142.389 158.2 122.789 68 122.789 68C122.789 68 150.499 116.75 188.079 119.27C224.879 121.75 244.699 101.99 244.699 101.99Z" fill="#EAB32B"/>
<path d="M32.9288 151.32C35.2318 151.32 37.0988 149.453 37.0988 147.15C37.0988 144.847 35.2318 142.98 32.9288 142.98C30.6257 142.98 28.7588 144.847 28.7588 147.15C28.7588 149.453 30.6257 151.32 32.9288 151.32Z" fill="#F1E9D6"/>
<path d="M53.379 151.32C55.6821 151.32 57.549 149.453 57.549 147.15C57.549 144.847 55.6821 142.98 53.379 142.98C51.076 142.98 49.209 144.847 49.209 147.15C49.209 149.453 51.076 151.32 53.379 151.32Z" fill="#F1E9D6"/>
<path d="M79.1388 142.98C79.1408 143.805 78.8979 144.612 78.4409 145.299C77.9839 145.986 77.3333 146.522 76.5715 146.84C75.8097 147.157 74.971 147.241 74.1614 147.081C73.3519 146.921 72.6079 146.525 72.0237 145.942C71.4395 145.359 71.0414 144.616 70.8797 143.807C70.718 142.998 70.8 142.159 71.1153 141.396C71.4306 140.634 71.9651 139.982 72.6511 139.523C73.337 139.065 74.1436 138.82 74.9688 138.82C76.073 138.82 77.1322 139.258 77.9139 140.038C78.6957 140.818 79.1362 141.876 79.1388 142.98Z" fill="#F1E9D6"/>
<path d="M93.549 134.65C93.549 135.475 93.3044 136.281 92.8462 136.967C92.388 137.652 91.7367 138.187 90.9748 138.503C90.2128 138.818 89.3744 138.901 88.5655 138.74C87.7566 138.579 87.0135 138.182 86.4303 137.599C85.8472 137.015 85.45 136.272 85.2891 135.464C85.1282 134.655 85.2108 133.816 85.5264 133.054C85.842 132.292 86.3765 131.641 87.0622 131.183C87.748 130.725 88.5543 130.48 89.379 130.48C90.485 130.48 91.5456 130.919 92.3276 131.701C93.1096 132.483 93.549 133.544 93.549 134.65Z" fill="#F1E9D6"/>
<path d="M212.648 151.32C214.951 151.32 216.818 149.453 216.818 147.15C216.818 144.847 214.951 142.98 212.648 142.98C210.345 142.98 208.479 144.847 208.479 147.15C208.479 149.453 210.345 151.32 212.648 151.32Z" fill="#F1E9D6"/>
<path d="M188.029 147.15C188.029 147.975 188.274 148.781 188.732 149.467C189.19 150.152 189.842 150.687 190.604 151.003C191.365 151.318 192.204 151.401 193.013 151.24C193.822 151.079 194.565 150.682 195.148 150.099C195.731 149.515 196.128 148.772 196.289 147.964C196.45 147.155 196.367 146.316 196.052 145.554C195.736 144.792 195.202 144.141 194.516 143.683C193.83 143.225 193.024 142.98 192.199 142.98C191.652 142.98 191.109 143.088 190.604 143.297C190.098 143.507 189.638 143.814 189.251 144.201C188.864 144.589 188.556 145.048 188.347 145.554C188.137 146.06 188.029 146.602 188.029 147.15Z" fill="#F1E9D6"/>
<path d="M170.608 147.15C172.911 147.15 174.778 145.283 174.778 142.98C174.778 140.677 172.911 138.81 170.608 138.81C168.305 138.81 166.438 140.677 166.438 142.98C166.438 145.283 168.305 147.15 170.608 147.15Z" fill="#F1E9D6"/>
<path d="M152.049 134.65C152.049 135.475 152.294 136.282 152.752 136.968C153.211 137.654 153.863 138.188 154.625 138.504C155.388 138.819 156.227 138.901 157.036 138.739C157.845 138.577 158.588 138.179 159.171 137.595C159.754 137.011 160.15 136.267 160.31 135.457C160.47 134.648 160.386 133.809 160.069 133.047C159.751 132.285 159.215 131.635 158.528 131.178C157.841 130.721 157.034 130.478 156.209 130.48C155.105 130.483 154.047 130.923 153.267 131.705C152.487 132.487 152.049 133.546 152.049 134.65Z" fill="#F1E9D6"/>
<path d="M208.269 163.28C206.789 164.37 205.269 165.4 203.769 166.39C179.975 164.292 157.639 154.029 140.549 137.34C137.299 134.182 134.262 130.811 131.459 127.25C129.619 124.93 127.879 122.55 126.259 120.08C124.849 117.95 123.509 115.75 122.259 113.52C120.793 116.054 119.209 118.527 117.509 120.94C115.743 123.467 113.849 125.917 111.829 128.29C108.782 131.873 105.498 135.247 101.999 138.39C95.428 144.323 88.1052 149.367 80.2192 153.39C67.2511 159.903 53.0479 163.588 38.5492 164.2C37.0592 163.2 35.6092 162.06 34.1592 160.91C49.5938 160.866 64.8058 157.226 78.5892 150.28C90.479 144.164 101.021 135.724 109.589 125.46C111.379 123.31 113.089 121.09 114.699 118.79C116.887 115.691 118.89 112.465 120.699 109.13C120.846 108.861 121.063 108.636 121.327 108.48C121.591 108.323 121.892 108.24 122.199 108.24C122.51 108.238 122.816 108.322 123.081 108.485C123.346 108.648 123.561 108.882 123.699 109.16C125.166 111.974 126.763 114.707 128.489 117.36C129.959 119.66 131.489 121.89 133.209 124.05C135.768 127.374 138.53 130.537 141.479 133.52C159.183 151.493 183.018 162.121 208.219 163.28H208.269Z" fill="#EAB32B"/>
<path d="M122.788 68C122.788 68 87.2784 116.39 104.318 143C121.358 169.61 169.088 144.26 122.788 68Z" fill="#EAB32B"/>
<path d="M122.218 75.7598C122.218 75.7598 98.5185 108.06 109.889 125.76C121.259 143.46 153.128 126.66 122.218 75.7598Z" fill="#4E1664"/>
<path d="M121.829 84.1201C121.829 84.1201 106.119 105.54 113.659 117.31C121.199 129.08 142.329 117.88 121.829 84.1201Z" fill="#DB288B"/>
<path d="M120.249 63.86C120.249 63.86 103.069 56.86 105.399 41.73C107.729 26.6 120.249 0.959961 120.249 0.959961C120.249 0.959961 138.639 36.3199 136.849 47.1699C135.059 58.0199 120.249 63.86 120.249 63.86Z" fill="#EAB32B"/>
<g style="mix-blend-mode:multiply" opacity="0.9">
<path d="M120.609 58.5099C120.609 58.5099 111.069 54.6198 112.359 46.2098C113.649 37.7998 120.609 23.5498 120.609 23.5498C120.609 23.5498 130.839 43.1999 129.839 49.2299C128.839 55.2599 120.609 58.5099 120.609 58.5099Z" fill="#EAB32B"/>
</g>
<g style="mix-blend-mode:multiply" opacity="0.6">
<g style="mix-blend-mode:multiply" opacity="0.3">
<path d="M244.698 101.99C243.198 113.11 239.723 123.872 234.438 133.77C228.038 145.444 219.094 155.53 208.268 163.28C206.788 164.37 205.268 165.4 203.768 166.39C168.108 189.63 122.768 188.99 122.768 188.99C122.768 188.99 93.1185 189.4 62.9285 177.28C59.0785 175.73 55.1984 173.97 51.3984 171.98C87.0744 172.902 122.48 165.561 154.848 150.53C163.168 146.64 171.399 142.15 177.849 135.63C182.689 130.76 184.848 124.94 187.128 119.19L188.018 119.27C194.974 119.759 201.962 119.424 208.839 118.27C232.298 114.34 244.698 101.99 244.698 101.99Z" fill="#9C2DA2"/>
</g>
<g style="mix-blend-mode:multiply" opacity="0.5">
<path d="M244.699 101.99C243.198 113.11 239.724 123.872 234.439 133.77C228.038 145.444 219.094 155.53 208.269 163.28C206.789 164.37 205.269 165.4 203.769 166.39C168.109 189.63 122.769 188.99 122.769 188.99C122.769 188.99 93.1187 189.4 62.9287 177.28C97.6081 180.576 132.574 175.56 164.929 162.65C176.619 157.95 188.159 152.04 196.819 142.86C203.379 135.86 206.409 127.2 208.819 118.29C232.299 114.34 244.699 101.99 244.699 101.99Z" fill="#9C2DA2"/>
</g>
</g>
<g style="mix-blend-mode:soft-light" opacity="0.7">
<path d="M119.001 157.284C137.42 147.923 148.439 132.636 143.612 123.138C138.785 113.641 119.941 113.53 101.522 122.89C83.1033 132.251 72.0847 147.539 76.9114 157.036C81.738 166.534 100.582 166.644 119.001 157.284Z" fill="#F3EBD8"/>
</g>
<path opacity="0.7" d="M97.4792 99.4297C61.6892 145.43 17.1892 124.08 3.90918 116.09C2.57201 111.468 1.56942 106.756 0.90918 101.99C0.90918 101.99 20.7192 121.75 57.5292 119.27C72.8792 118.23 86.6292 109.44 97.4792 99.4297Z" fill="#F3EBD8"/>
</svg>
